<svg width="800" height="782.54" version="1.1" viewBox="0 0 800 782.54" xml:space="preserve" xmlns="http://www.w3.org/2000/svg">
<path d="m791.51 396.14c-19.704-70.936-108.37-51.232-132.02-132.02l-7.8818 19.704-92.611 210.84v-1.9704c-1.9704-3.9409-7.8818-7.8818-11.823-9.8522-5.9113-1.9704-11.823-3.9409-17.734-3.9409s-13.793 1.9704-19.704 1.9704c-5.9113 1.9704-11.823 5.9113-15.764 7.8818-5.9113 3.9409-9.8522 7.8818-13.793 13.793-3.9409 5.9113-7.8818 9.8522-9.8522 15.764s-3.9409 11.823-3.9409 17.734 1.9704 11.823 3.9409 15.764c1.9704 7.8818 5.9113 11.823 9.8522 15.764 5.9113 3.9409 11.823 3.9409 19.704 3.9409 7.8818 0 15.764-1.9704 21.675-3.9409 5.9113-1.9704 13.793-5.9113 17.734-11.823l7.8818-7.8818c5.9113-5.9113 9.8522-13.793 11.823-21.675 0-1.9704 66.995-153.69 92.611-214.78 29.557 29.557 116.26 47.291 126.11 90.64 11.823 59.113-63.054 108.37-63.054 108.37l11.823-5.9113c1.9704 3.9409 84.729-29.557 65.025-108.37zm-256.16 102.46c0 3.9409-1.9704 7.8818-3.9409 11.823-1.9704 3.9409-3.9409 9.8522-5.9113 13.793-1.9704 5.9113-3.9409 9.8522-7.8818 15.764-1.9704 3.9409-5.9113 7.8818-7.8818 11.823-1.9704 3.9409-5.9113 5.9113-7.8818 9.8522-1.9704 1.9704-3.9409 3.9409-7.8818 3.9409-1.9704 0-3.9409-1.9704-3.9409-3.9409v-11.823c1.9704-3.9409 1.9704-7.8818 3.9409-13.793 1.9704-5.9113 3.9409-9.8522 7.8818-15.764 1.9704-3.9409 3.9409-9.8522 7.8818-13.793l7.8818-11.823c1.9704-3.9409 3.9409-5.9113 7.8818-7.8818 1.9704-1.9704 3.9409-1.9704 7.8818-1.9704 1.9704 0 1.9704 1.9704 3.9409 1.9704 0 3.9409-1.9704 7.8818-1.9704 11.823z" fill="#fff" stroke-width="19.704"/><g transform="matrix(19.704 0 0 19.704 0 -2.0585e-5)" fill="#dc1e41">
	<path d="m40.1 25.6c-0.1 0.1-0.1 0.2-0.1 0.4s-0.1 0.2-0.2 0.4c0-0.1 0.1-0.1 0.1-0.2-0.2 0.4-0.4 0.7-0.6 1.1-0.3 0.6-0.6 1.1-1 1.6-0.7 1.1-1.5 2-2.5 2.9-3.4 3.8-8.2 6.1-13.3 6.6-2.5 0.2-5.1-0.1-7.5-0.8-2.4-0.8-4.6-2-6.6-3.6-1.9-1.6-3.6-3.6-4.8-5.8-0.6-1.1-1.1-2.2-1.5-3.4-0.2-0.6-0.4-1.2-0.5-1.8s-0.2-1.3-0.4-1.9c-0.2-2.5-0.2-5.1 0.3-7.6l0.7-3.5-1.2 3.4c-0.4 1.3-0.7 2.6-0.9 3.9 0 0.7-0.1 1.4-0.1 2.1s0 1.4 0.1 2c0 0.1 0.1 0.4 0.1 0.5l0.3 1.5c0.1 0.6 0.4 1.3 0.6 2 0.4 1.3 1 2.5 1.6 3.6 1.3 2.3 3.1 4.4 5.1 6.1 1 0.9 2.2 1.6 3.4 2.2s2.4 1.1 3.7 1.5c2.6 0.8 5.3 1.1 7.9 0.8 2.7-0.2 5.3-1 7.6-2.2 1.2-0.6 2.3-1.3 3.4-2.1 0.5-0.4 1.1-0.8 1.5-1.3l1.4-1.4c0.8-1 1.5-2.1 2.2-3.3 0.3-0.6 0.6-1.2 0.8-1.8l0.4-0.9 0.1-0.5c0.1-0.1 0.1-0.4 0.1-0.5l-0.3 0.6c0-0.1 0-0.4 0.1-0.6z"/>
	<path d="m40.4 16.9c0-1-0.1-2-0.4-3l-0.4-1.6c-0.1-0.5-0.3-0.9-0.5-1.4s-0.4-0.9-0.6-1.4-0.4-0.9-0.7-1.3c-0.5-0.9-1.1-1.7-1.7-2.5-0.6-0.7-1.3-1.4-2.1-2l-1.2-0.9-1.3-0.8c-0.4-0.3-0.9-0.5-1.3-0.7-0.5-0.2-0.9-0.4-1.4-0.6l-1.5-0.4-0.3-0.2-0.4-0.1h-0.8c0.1 0 0.1 0 0.1 0.1 0.1 0 0.1 0.1 0.2 0.1l0.4 0.1 0.6 0.3c0.4 0.2 0.8 0.4 1.3 0.6 0.9 0.4 1.7 1 2.5 1.5 1.6 1.1 3 2.4 4.3 3.9 0.3 0.4 0.6 0.8 0.9 1.1s0.6 0.8 0.8 1.2c0.5 0.8 1 1.7 1.4 2.5 0.4 0.9 0.8 1.8 1.1 2.7s0.6 1.8 0.8 2.8l0.4 1.5z"/>
</g><path d="m543.84 630.54c-23.645 15.764-47.291 27.586-74.877 35.468-13.793 3.9409-27.586 5.9113-41.379 7.8818h-33.498c-3.9409 0-7.8818 0-11.823-1.9704-27.586-1.9704-57.143-9.8522-82.759-19.704-25.616-9.8522-51.232-25.616-72.906-43.35-21.675-17.734-41.379-39.409-57.143-63.054s-29.557-49.261-37.438-76.847c-17.734-55.172-19.704-112.32-3.9409-169.46 7.8818-27.586 19.704-53.202 35.468-76.847s33.498-45.32 55.172-65.025c21.675-19.704 45.32-33.498 70.936-45.32 25.616-11.823 53.202-19.704 80.788-23.645 5.9113-1.9704 13.793-1.9704 21.675-1.9704h21.675c13.793 0 29.557 1.9704 43.35 3.9409 13.793 1.9704 27.586 5.9113 41.379 9.8522l11.823 3.9409c1.9704 1.9704 7.8818 1.9704 9.8522 3.9409 1.9704 1.9704 7.8818 1.9704 9.8522 3.9409 3.9409 1.9704 5.9113 3.9409 9.8522 5.9113 5.9113 1.9704 11.823 5.9113 17.734 11.823 5.9113 3.9409 11.823 7.8818 17.734 11.823 11.823 7.8818 21.675 17.734 31.527 27.586 9.8522 9.8522 17.734 19.704 25.616 31.527 7.8818 11.823 15.764 23.645 21.675 35.468-15.764-21.675-33.498-43.35-55.172-59.113-21.675-17.734-43.35-29.557-68.966-39.409-11.823-5.9113-23.645-9.8522-37.438-13.793-11.823-3.9409-25.616-7.8818-39.409-9.8522-11.823-1.9704-25.616-3.9409-39.409-1.9704h-19.704c-7.8818 0-11.823 1.9704-19.704 1.9704-25.616 3.9409-51.232 9.8522-76.847 21.675-23.645 11.823-47.291 25.616-66.995 43.35s-37.438 37.438-51.232 59.113c-13.793 21.675-25.616 47.291-31.527 70.936-13.793 51.232-11.823 106.4 3.9409 155.67 7.8818 25.616 19.704 49.261 35.468 70.936s33.498 41.379 53.202 57.143c19.704 17.734 43.35 29.557 66.995 39.409s49.261 15.764 76.847 17.734c7.8818 0 11.823 1.9704 19.704 1.9704h21.675c13.793 0 27.586 0 39.409-1.9704 13.793-1.9704 27.586-3.9409 39.409-7.8818 1.9704-1.9704 7.8818-1.9704 9.8522-1.9704l11.823-3.9409c3.9409 0 9.8522-3.9409 17.734-5.9113z" fill="#dc1e41" stroke-width="19.704"/><g transform="matrix(19.704 0 0 19.704 178.38 291.76)" fill="#dc1e41">
	<g transform="translate(0,3.158)">
		<path d="m0.3 3.4c0.4 0.1 0.8 0.2 1.2 0.2 0.5 0 0.7-0.1 0.7-0.5 0-0.2-0.2-0.4-0.6-0.5-1-0.1-1.5-0.6-1.5-1.3 0-0.9 0.6-1.3 1.7-1.3 0.4 0 0.8 0.1 1.2 0.2l-0.3 0.9c-0.3-0.1-0.6-0.2-0.9-0.2-0.5 0-0.8 0.2-0.8 0.5 0 0.2 0.2 0.4 0.6 0.5 1 0.1 1.5 0.6 1.5 1.3 0 0.9-0.6 1.3-1.6 1.3-0.5 0.1-1 0-1.5-0.2z"/>
		<path d="m3.7 0.1h0.9v2.8c0 0.4 0.2 0.7 0.6 0.8h0.2c0.5 0 0.7-0.3 0.7-0.8v-2.8h0.9v2.8c0.1 0.8-0.5 1.5-1.3 1.6h-0.4c-0.7 0.1-1.4-0.4-1.6-1.2v-0.4z"/>
		<path d="m7.6 2.2c0-1.4 0.7-2.2 1.9-2.2s1.9 0.8 1.9 2.2-0.6 2.2-1.9 2.2-1.9-0.6-1.9-2.2zm1.9-1.3c-0.6 0-1 0.4-1 1.3s0.4 1.3 1 1.3 1-0.4 1-1.3c0-0.8-0.3-1.3-1-1.3z"/>
		<path d="m12 0.1h0.8l1.5 2.6v-2.6h0.9v4.4h-0.8l-1.5-2.6v2.6h-0.9z"/>
		<path d="m15.9 2.2c0-1.5 0.6-2.2 1.9-2.2s1.9 0.8 1.9 2.2-0.7 2.3-1.9 2.3-1.9-0.7-1.9-2.3zm1.9-1.3c-0.6 0-1 0.4-1 1.3s0.4 1.3 1 1.3 1-0.4 1-1.3c-0.1-0.8-0.4-1.3-1-1.3z"/>
	</g>
	<g transform="translate(.07)">
		<path d="m0 0h1c0.8 0 1.1 0.4 1.1 1.3s-0.3 1.4-1.1 1.4h-1zm0.6 0.6v1.7h0.4c0.4 0 0.6-0.3 0.6-0.8s-0.3-0.9-0.6-0.9z"/>
		<path d="m2.6 0h0.6v2.7h-0.6z"/>
		<path d="m3.6 0h0.8l0.6 1.8 0.5-1.8h0.8v2.7h-0.5v-1.7l-0.5 1.7h-0.6l-0.5-1.7v1.8h-0.6z"/>
		<path d="m6.8 0h1.7v0.6h-1.1v0.6h1.1v0.6h-1.1v0.6h1.1v0.5h-1.7z"/>
		<path d="m9.1 0h0.5l0.9 1.5v-1.5h0.5v2.7h-0.5l-0.9-1.5v1.5h-0.5z"/>
		<path d="m11.6 2.1c0.2 0.1 0.5 0.1 0.8 0.1s0.4-0.1 0.4-0.3c0-0.1-0.1-0.2-0.4-0.3-0.6-0.1-0.9-0.4-0.9-0.8 0-0.6 0.4-0.8 1-0.8 0.2 0 0.5 0.1 0.7 0.1l-0.1 0.6c-0.2-0.1-0.4-0.1-0.6-0.1-0.3 0-0.4 0.1-0.4 0.3 0 0.1 0.1 0.2 0.4 0.3 0.6 0.1 0.9 0.4 0.9 0.8 0 0.6-0.4 0.8-1 0.8-0.3 0-0.6-0.1-0.9-0.1z"/>
		<path d="m13.9 0h0.6v2.7h-0.6z"/>
		<path d="m14.9 1.4c0-0.9 0.4-1.3 1.1-1.3s1.1 0.4 1.1 1.3-0.3 1.3-1.1 1.3c-0.7 0-1.1-0.4-1.1-1.3zm1.2-0.8c-0.4 0-0.6 0.3-0.6 0.8s0.2 0.8 0.6 0.8 0.6-0.3 0.6-0.8-0.3-0.8-0.6-0.8z"/>
		<path d="m17.6 0h0.5l0.9 1.5v-1.5h0.6v2.7h-0.5l-0.9-1.5v1.5h-0.6z"/>
		<path d="m20.1 0h1.7v0.6h-1.1v0.6h1.1v0.6h-1.1v0.6h1.1v0.5h-1.7z"/>
	</g>
</g><g fill="#dc1e42" stroke-width="19.704"><path d="m456.53 543.92c-3.9409 7.8818-11.823 13.793-17.734 17.734-3.9409 1.9704-9.8522 3.9409-13.793 7.8818-5.9113 1.9704-11.823 1.9704-17.734 1.9704-5.9113-1.9704-9.8522-1.9704-15.764-5.9113-1.9704-1.9704-5.9113-3.9409-7.8818-7.8818-1.9704-3.9409-1.9704-3.9409-1.9704-7.8818s0-3.9409 1.9704-5.9113 1.9704-1.9704 3.9409-1.9704 3.9409 0 5.9113 1.9704 1.9704 1.9704 1.9704 3.9409c1.9704 1.9704 1.9704 3.9409 1.9704 7.8818v7.8818c3.9409 0 7.8818-1.9704 9.8522-3.9409 3.9409-3.9409 5.9113-7.8818 7.8818-11.823 1.9704-3.9409 1.9704-7.8818 0-11.823 0-3.9409-1.9704-5.9113-1.9704-9.8522-1.9704-1.9704-1.9704-7.8818-3.9409-9.8522-1.9704-3.9409-1.9704-5.9113-1.9704-9.8522l5.9113-11.823h-3.9409l-3.9409 7.8818c-1.9704 3.9409-3.9409 5.9113-5.9113 9.8522-1.9704 1.9704-3.9409 7.8818-5.9113 9.8522-1.9704 3.9409-3.9409 5.9113-5.9113 7.8818l-5.9113-1.9704c1.9704-5.9113 5.9113-9.8522 9.8522-15.764 1.9704-5.9113 5.9113-9.8522 7.8818-15.764 1.9704-3.9409 5.9113-7.8818 7.8818-11.823 1.9704-3.9409 5.9113-5.9113 9.8522-7.8818 3.9409-1.9704 7.8818-3.9409 11.823-5.9113 5.9113-1.9704 9.8522-1.9704 15.764-1.9704 1.9704 0 5.9113 0 7.8818 1.9704 1.9704 1.9704 3.9409 1.9704 5.9113 3.9409 1.9704 1.9704 1.9704 1.9704 1.9704 3.9409s0 3.9409-1.9704 3.9409-3.9409-1.9704-5.9113-1.9704-3.9409 0-3.9409-1.9704l-3.9409-3.9409c-1.9704-1.9704-1.9704-1.9704-1.9704-3.9409-5.9113 1.9704-9.8522 7.8818-9.8522 15.764 0 5.9113 0 9.8522 1.9704 15.764l5.9113 13.793c1.9704 3.9409 1.9704 7.8818 3.9409 13.793 1.9704 5.9113 1.9704 9.8522 0 15.764 0 1.9704-1.9704 1.9704-1.9704 3.9409l-1.9704 1.9704v1.9704c3.9409-1.9704 5.9113-5.9113 9.8522-7.8818l5.9113-1.9704"/><path d="m712.69 472.99h25.616l3.9409-9.8522h-25.616l11.823-29.557c-5.9113 1.9704-11.823 1.9704-17.734 3.9409s-13.793 1.9704-19.704 1.9704l-11.823 25.616h-33.498c1.9704-3.9409 3.9409-5.9113 3.9409-9.8522 1.9704-3.9409 1.9704-7.8818 5.9113-9.8522 5.9113-7.8818 9.8522-11.823 15.764-11.823v7.8818c0 1.9704 1.9704 1.9704 1.9704 3.9409 1.9704 1.9704 5.9113 1.9704 7.8818 0 1.9704-1.9704 1.9704-3.9409 1.9704-7.8818-1.9704-3.9409-3.9409-7.8818-7.8818-9.8522-1.9704-1.9704-5.9113-1.9704-7.8818-1.9704s-7.8818-1.9704-9.8522-1.9704c-3.9409 0-5.9113 0-9.8522 1.9704-3.9409 0-5.9113 0-7.8818 1.9704-5.9113 1.9704-11.823 5.9113-15.764 11.823-5.9113 5.9113-9.8522 15.764-13.793 23.645h-11.823l-3.9409 7.8818h11.823l-61.084 141.87h35.468l61.084-141.87h35.468s-23.645 57.143-25.616 63.054c-1.9704 5.9113-3.9409 9.8522-5.9113 15.764v9.8522c1.9704 1.9704 1.9704 3.9409 3.9409 5.9113 1.9704 1.9704 3.9409 3.9409 5.9113 3.9409 1.9704 1.9704 3.9409 1.9704 7.8818 1.9704 5.9113 0 11.823-1.9704 17.734-3.9409 5.9113-1.9704 9.8522-5.9113 13.793-9.8522 3.9409-3.9409 7.8818-7.8818 11.823-13.793 1.9704-3.9409 7.8818-9.8522 9.8522-13.793l-5.9113-1.9704c-5.9113 7.8818-11.823 15.764-17.734 23.645-1.9704 1.9704-3.9409 3.9409-7.8818 5.9113-1.9704 1.9704-1.9704 1.9704-3.9409 1.9704-3.9409 0-1.9704-5.9113 3.9409-19.704z"/></g>
</svg>
