<svg width="498.71pt" height="271.88pt" version="1.1" viewBox="0 0 498.71 271.88" xmlns="http://www.w3.org/2000/svg">
 <g transform="translate(-48.08 -135.43)" fill="#0630f4">
  <path d="m119.31 136.47c7.32-2.05 16.26-1.33 21.79 4.41 5.74 5.69 7.73 13.9 8.67 21.67 1.68 14.44 1.28 29.04 0.74 43.54-1.34 22.41-3.15 45-8.92 66.77-2.23 7.8-5.93 16.48-13.96 19.78-7.38 2.77-16.53 2.64-22.99-2.27-5.84-4.62-7.93-12.22-9.23-19.22-2.7-16.2-1.95-32.72-1.1-49.04 1.73-23.05 2.93-46.55 10.27-68.65 2.33-7.33 6.78-14.91 14.73-16.99m3.12 52.06c-3.52 2.15-4.19 6.7-5.07 10.4-2.2 12.23-3.2 24.65-3.57 37.06 0.01 4.38-0.18 9.13 2.13 13.04 1.2 2.22 4.52 3.25 6.47 1.38 2.51-2.52 3.17-6.21 3.95-9.55 1.85-9.83 2.49-19.84 3.2-29.8 0.21-6.2 0.82-12.64-1.11-18.64-0.71-2.5-3.24-4.95-6-3.89z"/>
  <path d="m60.4 140.31 20.18 0.02-7.9883 96.72 18.808-0.12-4.35 52.83-38.97 0.02z"/>
  <path d="m162.17 140.26h26.058l0.68455 74.995 13.318-74.995h26.7l-12.32 149.52h-19.07l6.05-78.185-14.95 78.185h-11.05l-2.01-79.985-6.57 79.985h-19.16z"/>
  <path d="m237 140.29c12.69 0.04 25.39-0.02 38.08 0.02 3.52-0.15 7.06 1.79 8.52 5.05 2.63 5.83 2.65 12.4 2.97 18.67 0.15 12.16-0.06 24.49-2.94 36.36-1.56 6.03-4.19 12.86-10.48 15.29 5.43 1.71 7.29 7.75 8.07 12.79 1.64 11.82 0.9 23.85-0.54 35.65-1.07 6.97-2.45 14.2-6.38 20.18-2.61 4.07-7.67 5.51-12.26 5.48-12.33 0.09-24.67-0.12-37 0.1l-0.5-0.42c4.41-49.7 8.2-99.46 12.46-149.17m16.22 41.734c-0.59 7.29-1.19 14.684-1.73 21.984h5.568c2.7507 0 5.3474-0.32214 6.542-3.1585 1.8898-5.0177 2.211-10.763 1.0443-16.003-0.25874-1.1048-0.75654-1.6343-1.5596-2.1762-1.0026-0.52502-2.1738-0.64685-3.4052-0.64685h-6.4595m-3.85 47.833c-0.72 8.05-1.4 16.164-1.99 24.224h6.4368c3.0412-8.5e-4 4.1373-0.48235 5.4069-2.4113 1.9757-3.0328 2.1718-7.1077 2.4762-10.621-0.0168-2.8581 0.36691-6.0184-0.68612-8.727-0.70039-2.2163-2.8244-2.4525-5.1752-2.4652z"/>
  <path d="m307.45 140.31 33.32 0.01-0.25 149.45-19.64-0.01 0.05-21.63-14.92 0.03-3.86 21.63-22.15-0.01 27.45-149.47m4.4 90.4h9.67l0.07-52.21z"/>
  <path d="m355.99 140.3c12.35 0.02 24.71-0.05 37.07 0.03 4.21-0.01 6.72 4.09 7.92 7.64 2.8 8.71 2.83 17.99 2.89 27.05-0.17 13.8-0.45 27.92-4.75 41.16-1.83 5.66-5.81 11.96-12.52 11.87 4.34 20.57 8.69 41.14 13.02 61.72-7.89 0.04-15.78 0.02-23.66 0.02-2.82-16.38-6.02-32.69-8.44-49.14-0.95 16.4-2.52 32.76-3.8 49.13-6.69 0.02-13.37 0-20.05 0.01 4.07-49.83 8.17-99.66 12.32-149.49m16.49 43.05c-0.78 10.14-1.78 20.26-2.47 30.41 3.73-0.2 8.72 1.15 11.07-2.69 3.26-5.76 2.77-12.71 2.84-19.1-0.23-2.83-0.04-6.42-2.57-8.3-2.87-0.73-5.93-0.22-8.87-0.32z"/>
  <path d="m413.63 140.31c10.12-0.01 20.23-0.03 30.34 0 3.34 0.15 7.1 0.46 9.66 2.85 4.21 4.78 5.62 11.27 6.54 17.4 1.44 11.07 1.31 22.26 1 33.4-0.6 16.09-1.79 32.17-3.68 48.16-1.5 12.11-3.36 24.35-7.89 35.75-2.16 5.89-6.86 11.62-13.55 12.04-11.56-0.14-23.13-0.17-34.7-0.08 4.01-49.85 8.18-99.68 12.28-149.52m11.1 107.81c3.07-0.2 6.87 0.36 9.06-2.34 2.23-2.81 2.74-6.5 3.5-9.91 2.11-11.49 3.11-23.21 2.81-34.89-0.27-3.4-0.15-7.1-2.04-10.08-2.04-2.56-5.66-1.58-8.48-1.81-1.64 19.67-3.25 39.35-4.85 59.03z"/>
  <path d="m472.37 140.31h20.27l-12.36 149.48h-20.23z"/>
  <path d="m511.52 140.31 33.28-0.01-0.21 149.47-19.65 0.02 0.13-21.64-15 0.02-3.85 21.62-22.17-0.01 27.47-149.47m14.06 38.24-9.6 52.16h9.6z"/>
 </g>
 <g transform="translate(-48.08 -135.43)" fill="#f30941">
  <path d="m283.39 313.5c5.17-0.51 10.39-0.11 15.59-0.23 2.2-0.01 5.53 0.02 6.02 2.81 0.65 3.26 0.68 6.7-0.09 9.94-0.61 2.59-3.79 2.49-5.88 2.56-5.18-0.11-10.39 0.26-15.55-0.23-3.6-0.37-3.3-4.69-3.39-7.34 0.11-2.66-0.29-7.03 3.3-7.51z"/>
  <path d="m245.28 314.57c8.16 0.06 16.31 0.01 24.47 0.03-0.01 30 0 60-0.01 90-8.16 0-16.32-0.02-24.48 0.01-0.11-5.33 0.18-10.66 0.41-15.99-1.38 6.22-4.09 13.12-10.27 15.95-5.92 2.47-13.17 2.17-18.65-1.26-5.52-3.61-7.86-10.25-9.1-16.43-1.94-10.53-1.89-21.36-0.95-31.99 0.79-6.31 1.86-13.04 5.99-18.12 5.22-6.08 14.3-7.28 21.72-5.41 6.74 1.88 9.77 8.95 11.05 15.21-0.36-10.66-0.19-21.33-0.18-32m-10.09 43.58c-3.17 1.65-3.84 5.59-4.11 8.82-0.25 4.26-0.24 8.95 2.15 12.67 2.23 3.54 8.17 3.57 10.33-0.05 1.75-2.84 1.99-6.28 2.13-9.52 0.04-3.56-0.09-7.47-2.29-10.46-1.86-2.49-5.58-2.77-8.21-1.46z"/>
  <path d="m61.36 404.6c0.01-28.65-0.01-57.31 0.01-85.96 15.53 0.02 31.07-0.01 46.6 0.02 6.1 0.06 12.82 1.49 16.96 6.33 4.35 5.26 5.03 12.45 4.93 19.02-0.14 6.67-1.32 13.87-5.93 19.01-3.18 3.6-7.96 5.18-12.61 5.65 7.23 11.94 14.33 23.97 21.59 35.9-10.12 0.06-20.23 0.01-30.34 0.02-5.28-10.92-11.91-21.28-15.4-32.97-0.02 10.99 0.18 21.98 0.1 32.97-8.64 0.01-17.28 0-25.91 0.01m25.92-63.26c-0.03 5.82 0 11.64-0.02 17.47 4.88-0.23 10.88 1.05 14.68-2.82 2.41-3.63 2.76-9.3-0.18-12.72-4.22-2.86-9.68-1.64-14.48-1.93z"/>
  <path d="m416.69 318.64 61.67 0.01 0.01 28.76h-17.66l-0.01 57.19-26.36 0.01 0.02-57.17-17.67-0.03z"/>
  <path d="m337.62 329.84c10.12-1.19 21.52-0.77 29.91 5.74 7.79 6.27 9.92 16.86 10.33 26.34 0.22 11.15-0.27 23.02-5.95 32.93-4.22 7.47-12.67 11.44-20.97 12.16-10.05 1.01-21.56-0.29-28.87-8-7.12-7.82-8.6-18.91-9.11-29.05-0.31-9.96 0.16-20.68 5.7-29.32 4.13-6.42 11.59-9.82 18.96-10.8m4.79 25.71c-4.29 1.44-5.9 6.3-6.14 10.41-0.23 5.08-0.2 10.67 2.71 15.07 2.74 4.11 9.5 4.28 12.53 0.42 2.76-3.47 3.14-8.14 3.15-12.41-0.13-3.79-0.37-7.93-2.71-11.09-2.17-2.86-6.28-3.4-9.54-2.4z"/>
  <path d="m139.38 338.44c2.71-4.33 7.58-6.9 12.56-7.55 4.93-0.68 10.47-0.56 14.63 2.52 3.98 3.06 5.58 8.07 6.76 12.75-0.17-4.73-0.18-9.46-0.14-14.19 8.15 0.13 16.3-0.02 24.45 0.07-0.07 24.19 0.03 48.39-0.06 72.58-8.13-0.06-16.27-0.02-24.4-0.02-0.08-5.26 0.12-10.51 0.5-15.75-1.67 6.03-4.04 12.98-10.25 15.68-7.25 2.92-16.84 2.27-22.15-4.03-4.32-5.17-5.63-12.07-6.51-18.56-0.94-8.3-0.87-16.7-0.34-25.03 0.62-6.34 1.53-12.95 4.95-18.47m23.79 19.68c-3.2 1.66-3.9 5.62-4.18 8.88-0.22 4.27-0.23 8.99 2.21 12.7 2.13 3.28 7.56 3.52 9.93 0.38 2.12-2.89 2.34-6.65 2.49-10.1 0.03-3.53-0.1-7.42-2.29-10.37-1.85-2.47-5.53-2.76-8.16-1.49z"/>
  <path d="m480.58 331.96 24.89 0.08 8.33 50.16 8.37-50.17 24.62 0.01-16.8 72.54-32.59 0.02z"/>
  <path d="m280.29 332.5c2.63 1.6 5.81 1.46 8.77 1.56 5.41-0.08 10.96 0.47 16.22-1.15 0.01 23.89 0 47.79 0.01 71.68-8.33 0.02-16.65-0.01-24.97 0.01-0.03-24.03 0.02-48.06-0.03-72.1z"/>
 </g>
</svg>
