<svg width="800" height="493.17" clip-rule="evenodd" fill-rule="evenodd" stroke-miterlimit="10" version="1.1" viewBox="0 0 800 493.17" xml:space="preserve" xmlns="http://www.w3.org/2000/svg">
    <g transform="matrix(.35805 0 0 .35805 405.93 299.04)">
                <path d="m0-322.74c2.424-21.03 3.861-42.227 4.705-63.661 0.878-21.286 1.413-38.461 1.413-51.533h184.69c0.261 11.676-0.285 26.298-1.509 44.068-1.259 17.698-2.66 34.517-4.454 50.487h2.281c3.576-7.274 9.407-16.967 17.282-29.291 7.876-12.394 18.721-24.273 32.405-35.913 13.636-11.558 30.633-21.583 50.802-29.885 20.241-8.381 44.353-12.567 71.957-12.567 24.019 0 46.337 3.747 66.531 10.898 20.466 7.299 37.582 18.536 51.634 33.74 13.945 15.227 24.03 34.203 30.301 57.044 6.153 22.806 7.555 49.811 4.086 80.938l-43.794 396.71-196.7-0.024 37.582-340.18c5.833-53.618-9.145-80.374-44.72-80.374-12.425 0-23.365 2.94-32.606 8.612-9.396 5.874-17.639 13.778-24.564 23.863-7.08 10.251-12.733 22.029-17.081 35.368-4.336 13.416-7.329 27.391-8.873 41.853l-34.483 310.86-196.64-0.107z" fill="#ee2224" fill-rule="nonzero"/>
            </g><g transform="matrix(.35805 0 0 .35805 662.97 219.7)">
                <path d="m0 107.52c-1.128 23.162 1.355 42.167 7.84 57.026 6.379 14.812 15.442 26.881 27.141 36.479 11.76 9.347 25.812 15.892 42.073 19.444 16.344 3.646 33.674 5.441 51.978 5.441 26.834 0 55.936-4.858 86.818-14.658 31.038-9.788 59.011-19.742 84.252-29.862l-10.595 135.89c-24.327 7.946-54.01 15.169-89.383 21.725-35.385 6.462-73.17 10.109-113.22 10.869-57.478-0.037-104.65-8.743-140.92-26.096-36.263-17.307-64.166-40.244-83.717-68.502-19.551-28.27-31.976-60.281-37.427-96.249-5.583-35.825-6.415-71.779-2.281-108.03 4.252-39.215 14.04-76.275 29.232-111.42 15.073-35.075 35.61-66.286 61.137-93.462 25.633-27.208 55.672-48.624 90.166-64.648 34.625-15.917 73.36-23.815 116.47-23.815 44.484 0 82.149 8.112 113.16 24.379 30.908 16.274 55.898 38.07 74.773 65.194 18.815 27.172 31.632 58.612 38.212 93.985 6.557 35.516 7.934 72.457 3.564 110.9l-5.916 55.406zm175.13-102.27 1.83-16.137c4.215-38.437 1.424-66.743-8.066-84.78-9.657-18.185-29.446-27.124-59.308-27.124-27.711 0-50.684 11.481-68.846 34.584-18.315 23.251-29.564 54.413-33.876 93.457z" fill="#ee2224" fill-rule="nonzero"/>
            </g><g transform="matrix(.35805 0 0 .35805 239.9 50.143)">
                <path d="m0 683.31h-250.3l39.382-449.86-163.7 111.13-54.598-180.7 276.34-173.69h213.64zm133.08-822.16-436.03-1.193c-148.21-0.488-279.93 118.09-293.65 264.7l-41.199 431.2c-13.863 146.62 95.155 265.87 243.42 266.33l435.99 1.248c148.27 0.403 279.79-118.09 293.72-264.87l40.879-430.96c14.111-146.78-94.812-266.08-243.14-266.47" fill="#ee2224" fill-rule="nonzero"/>
            </g><g clip-rule="nonzero" fill-rule="nonzero" shape-rendering="auto"><path d="m279.48 383.25c-2.3565-0.0383-4.7591 0.0167-7.2001 0.13636l-7.1e-4 7.2e-4h-7.2e-4c-23.649 1.1661-47.574 0.27972-71.633 0.27972v8.5931c23.845 0 47.91 0.90025 72.055-0.29021 9.1444-0.44831 17.037 0.2166 23.084 2.8273 5.8275 2.516 10.192 6.6502 13.268 14.4-0.68326 6.7322-1.3761 13.541-2.051 20.186-34.611-0.73113-69.396-2.5074-104.27-1.693-9.3804 0.2174-17.157 4.4945-22.318 10.85-5.1612 6.3555-7.8749 14.651-8.1638 23.31-0.32094 9.5932 3.0236 17.257 8.44 22.247 5.4164 4.9904 12.58 7.332 19.759 7.705h0.00143c35.006 1.8075 69.998 0.62239 104.9 0.62239h3.8818l0.39231-3.8623c2.801-27.572 5.3868-53.004 8.0833-79.572l0.1007-0.99302-0.34685-0.93568c-3.7526-10.115-10.286-16.705-18.274-20.153-5.9909-2.5866-12.641-3.5434-19.71-3.6581zm-63.565 52.843c29.937-0.1873 60.03 1.2137 90.215 1.863-1.5338 15.099-3.0582 30.11-4.6623 45.899-33.778 0.078-67.33 1.0827-100.57-0.63358h-1e-3c-5.5983-0.2911-10.785-2.1303-14.381-5.4434-3.5963-3.3134-5.9272-8.0771-5.6742-15.64 0.23439-7.0298 2.4848-13.549 6.2462-18.181 3.7615-4.6318 8.8668-7.5149 15.847-7.6763h7.1e-4c4.3232-0.10097 8.6501-0.16103 12.98-0.18812z" color="#000000" color-rendering="auto" dominant-baseline="auto" image-rendering="auto" solid-color="#000000" stop-color="#000000" style="font-feature-settings:normal;font-variant-alternates:normal;font-variant-caps:normal;font-variant-east-asian:normal;font-variant-ligatures:normal;font-variant-numeric:normal;font-variant-position:normal;font-variation-settings:normal;inline-size:0;isolation:auto;mix-blend-mode:normal;shape-margin:0;shape-padding:0;text-decoration-color:#000000;text-decoration-line:none;text-decoration-style:solid;text-indent:0;text-orientation:mixed;text-transform:none;white-space:normal"/><path d="m591.51 383.52c-16.344-0.0341-32.702 1e-3 -49.069 0.27832-12.631 0.21456-23.528 4.3179-31.717 11.75-8.1896 7.4319-13.591 18.033-15.987 30.809v7.2e-4c-3.2538 17.361-3.7844 30.505-0.3035 40.994s11.322 17.746 22.608 22.321h7.2e-4v6.9e-4c7.0224 2.8444 14.608 2.5939 21.079 2.6399 29.792 0.23049 59.566 0.1028 89.311 0.1028v-8.5931c-29.77 0-59.521 0.12716-89.244-0.1028h-2e-3c-6.6015-0.047-13.204-0.10183-17.918-2.0112h1e-3c-9.7831-3.9655-14.983-8.9381-17.68-17.064-2.6965-8.1257-2.5403-19.982 0.59371-36.704v-7.1e-4c2.1254-11.334 6.7392-20.06 13.316-26.028 6.5765-5.968 15.196-9.3368 26.088-9.5218 32.565-0.55175 65.212-0.13916 97.911-0.13916v-8.5931c-16.313 0-32.643-0.10368-48.987-0.13777z" color="#000000" color-rendering="auto" dominant-baseline="auto" image-rendering="auto" solid-color="#000000" stop-color="#000000" style="font-feature-settings:normal;font-variant-alternates:normal;font-variant-caps:normal;font-variant-east-asian:normal;font-variant-ligatures:normal;font-variant-numeric:normal;font-variant-position:normal;font-variation-settings:normal;inline-size:0;isolation:auto;mix-blend-mode:normal;shape-margin:0;shape-padding:0;text-decoration-color:#000000;text-decoration-line:none;text-decoration-style:solid;text-indent:0;text-orientation:mixed;text-transform:none;white-space:normal"/><path d="m468.38 490.85-8.522-1.1002c2.9355-22.737 7.6755-45.051 8.1485-67.058l-5e-4 8.8e-4c0.22584-10.598-2.7072-17.782-7.9848-22.643s-13.37-7.6124-24.254-7.7242c-28.467-0.28505-56.986-0.0961-85.706-0.0792-4.2608 34.07-8.3017 66.402-12.329 98.587l-8.5266-1.067c4.181-33.411 8.3574-66.822 12.8-102.34l0.4705-3.7633 3.7928 1.4e-4c29.966 9e-5 59.762-0.22604 89.587 0.0726l6.9e-4 -1.9e-4c12.295 0.1263 22.692 3.2778 29.988 9.9973 7.2952 6.7195 11.017 16.795 10.754 29.145l1.9e-4 6.9e-4c-0.49651 23.1-5.3424 45.707-8.2172 67.974z" color="#000000" color-rendering="auto" dominant-baseline="auto" image-rendering="auto" solid-color="#000000" stop-color="#000000" style="font-feature-settings:normal;font-variant-alternates:normal;font-variant-caps:normal;font-variant-east-asian:normal;font-variant-ligatures:normal;font-variant-numeric:normal;font-variant-position:normal;font-variation-settings:normal;inline-size:0;isolation:auto;mix-blend-mode:normal;shape-margin:0;shape-padding:0;text-decoration-color:#000000;text-decoration-line:none;text-decoration-style:solid;text-indent:0;text-orientation:mixed;text-transform:none;white-space:normal"/><path d="m762.26 383.45c-21.504 0.88323-43.269-0.0228-65.199 0.27693h-7.1e-4c-12.283 0.16844-22.144 3.1691-29.144 9.7834-7.0006 6.6142-10.716 16.364-12.093 28.817l7.1e-4 -1e-3c-1.6953 15.277-3.4806 30.561-5.17 45.356l-0.0839 0.73148 0.16504 0.71749c2.4424 10.637 8.4263 17.283 15.824 20.404 7.3977 3.122 15.737 3.2106 24.11 3.0595 32.562-0.58562 65.207-0.17343 97.906-0.17343v-8.5931c-32.627 0-65.323-0.41395-98.061 0.17483h-7.2e-4c-8.1285 0.14673-15.41-0.1882-20.614-2.3846-5.067-2.1384-8.6004-5.6145-10.616-13.773 0.97947-8.5706 1.9892-17.472 2.9966-26.285v7.3106c31.2 0 62.422 0.12366 93.66-0.1021 6.2188-0.0402 14.601 1.163 21.572-3.1077l1e-3 -7.2e-4 7.1e-4 -7.1e-4c5.8454-3.5853 12.164-7.6157 16.751-13.478 4.5865-5.8621 7.0847-13.846 4.9875-23.36v-7.1e-4c-2.1098-9.5664-6.7503-16.527-13.352-20.569-6.6017-4.0419-14.684-5.1713-23.64-4.8029zm0.35246 8.5854h7.1e-4c7.9998-0.32906 14.296 0.78876 18.8 3.5462s7.6952 7.1483 9.447 15.091c1.6151 7.3276-0.0117 11.931-3.363 16.214-3.3514 4.2835-8.7832 7.9562-14.476 11.448-3.1777 1.9456-10.283 1.797-17.137 1.8413h-3e-3c-31.127 0.22499-62.28 0.10249-93.455 0.1021 0.65134-5.7056 1.3019-11.268 1.9385-17.004v-0.00143c1.2468-11.274 4.4128-18.753 9.4533-23.516 5.0405-4.7624 12.38-7.2866 23.361-7.4372 21.612-0.29537 43.456 0.61879 65.434-0.28392z" color="#000000" color-rendering="auto" dominant-baseline="auto" image-rendering="auto" solid-color="#000000" stop-color="#000000" style="font-feature-settings:normal;font-variant-alternates:normal;font-variant-caps:normal;font-variant-east-asian:normal;font-variant-ligatures:normal;font-variant-numeric:normal;font-variant-position:normal;font-variation-settings:normal;inline-size:0;isolation:auto;mix-blend-mode:normal;shape-margin:0;shape-padding:0;text-decoration-color:#000000;text-decoration-line:none;text-decoration-style:solid;text-indent:0;text-orientation:mixed;text-transform:none;white-space:normal"/><path d="m117.8 383.49c-31.086 0.67398-62.276 0.16924-93.535 0.16924a4.2966 4.2966 0 0 0-0.01329 0 4.2966 4.2966 0 0 0-0.06783 1e-3 4.2966 4.2966 0 0 0-0.06364 1e-3 4.2966 4.2966 0 0 0-0.08672 4e-3 4.2966 4.2966 0 0 0-0.04406 3e-3 4.2966 4.2966 0 0 0-0.07413 6e-3 4.2966 4.2966 0 0 0-0.0035 0 4.2966 4.2966 0 0 0-0.0056 7.2e-4 4.2966 4.2966 0 0 0-0.08951 8e-3 4.2966 4.2966 0 0 0-0.01678 1e-3 4.2966 4.2966 0 0 0-0.09511 0.0119 4.2966 4.2966 0 0 0-0.09371 0.0133 4.2966 4.2966 0 0 0-0.04126 7e-3 4.2966 4.2966 0 0 0-0.04755 8e-3 4.2966 4.2966 0 0 0-0.06434 0.0119 4.2966 4.2966 0 0 0-0.03566 7e-3 4.2966 4.2966 0 0 0-0.05175 0.0105 4.2966 4.2966 0 0 0-0.06993 0.0154 4.2966 4.2966 0 0 0-0.01958 5e-3 4.2966 4.2966 0 0 0-0.06364 0.0154 4.2966 4.2966 0 0 0-0.08602 0.0224 4.2966 4.2966 0 0 0-0.08042 0.0231 4.2966 4.2966 0 0 0-0.03986 0.0119 4.2966 4.2966 0 0 0-0.06154 0.0196 4.2966 4.2966 0 0 0-0.02587 8e-3 4.2966 4.2966 0 0 0-0.08392 0.028 4.2966 4.2966 0 0 0-0.01189 5e-3 4.2966 4.2966 0 0 0-0.06574 0.0238 4.2966 4.2966 0 0 0-0.05035 0.0189 4.2966 4.2966 0 0 0-0.03986 0.0161 4.2966 4.2966 0 0 0-0.05385 0.0217 4.2966 4.2966 0 0 0-0.05944 0.0252 4.2966 4.2966 0 0 0-0.02378 0.01 4.2966 4.2966 0 0 0-0.06014 0.0273 4.2966 4.2966 0 0 0-0.05594 0.0259 4.2966 4.2966 0 0 0-0.02937 0.0147 4.2966 4.2966 0 0 0-0.05105 0.0252 4.2966 4.2966 0 0 0-0.05734 0.0294 4.2966 4.2966 0 0 0-0.03357 0.0175 4.2966 4.2966 0 0 0-0.04615 0.0245 4.2966 4.2966 0 0 0-0.06504 0.0371 4.2966 4.2966 0 0 0-0.0028 1e-3 4.2966 4.2966 0 0 0-0.05525 0.0322 4.2966 4.2966 0 0 0-0.07203 0.0434 4.2966 4.2966 0 0 0-0.03147 0.0196 4.2966 4.2966 0 0 0-0.06014 0.0385 4.2966 4.2966 0 0 0-0.03567 0.0238 4.2966 4.2966 0 0 0-0.01818 0.0119 4.2966 4.2966 0 0 0-0.06364 0.044 4.2966 4.2966 0 0 0-0.01539 0.0105 4.2966 4.2966 0 0 0-0.05175 0.0378 4.2966 4.2966 0 0 0-0.05315 0.0392 4.2966 4.2966 0 0 0-0.06224 0.0482 4.2966 4.2966 0 0 0-0.05525 0.0441 4.2966 4.2966 0 0 0-0.07552 0.0622 4.2966 4.2966 0 0 0-0.07832 0.0685 4.2966 4.2966 0 0 0-0.05874 0.0531 4.2966 4.2966 0 0 0-0.04546 0.0427 4.2966 4.2966 0 0 0-0.0042 4e-3 4.2966 4.2966 0 0 0-0.06574 0.0636 4.2966 4.2966 0 0 0-0.02098 0.0217 4.2966 4.2966 0 0 0-0.04546 0.0469 4.2966 4.2966 0 0 0-0.01329 0.0133 4.2966 4.2966 0 0 0-0.04336 0.0469 4.2966 4.2966 0 0 0-0.04755 0.0525 4.2966 4.2966 0 0 0-0.03846 0.0433 4.2966 4.2966 0 0 0-0.01049 0.0119 4.2966 4.2966 0 0 0-0.04126 0.0489 4.2966 4.2966 0 0 0-7e-3 8e-3c-1.1801 1.4166-4.0686 3.5492-6.8889 5.8434-2.8203 2.2943-6.182 4.7941-6.705 9.5484v-5e-3c-3.1471 28.34-4.9471 56.737-7.3595 87.189a4.297 4.297 0 0 0 4.2833 4.6357c37.18 0 74.586 2.3642 111.72-1.3182a4.297 4.297 0 0 0 2e-3 0c7.6554-0.76236 15.033-5.1302 21.557-10.709 6.5236-5.5787 12.149-12.467 15.658-19.181l7.2e-4 -1e-3c7.341-14.037 7.0287-32.304 5.1959-47.545a4.297 4.297 0 0 0 0-7.2e-4c-1.8204-15.11-16.328-30.7-40.626-30.172zm0.18671 8.591a4.297 4.297 0 0 0 7.2e-4 0c20.643-0.44931 30.644 12.123 31.907 22.608 1.7389 14.46 1.5252 31.44-4.2791 42.537a4.297 4.297 0 0 0-7.1e-4 1e-3c-2.8573 5.4665-7.934 11.762-13.628 16.632-5.6942 4.8694-12.05 8.2135-16.824 8.6889-34.709 3.4419-70.279 1.4963-106.23 1.3266 2.2381-28.745 4.0257-55.712 6.9819-82.333a4.297 4.297 0 0 0 7.16e-4 -5e-3c-6e-3 0.0545 1.1308-1.8238 3.5868-3.8217 1.9918-1.6203 4.4322-3.316 6.5959-5.4567 30.56 0.0188 61.201 0.48782 91.893-0.17763z" color="#000000" color-rendering="auto" dominant-baseline="auto" image-rendering="auto" solid-color="#000000" stop-color="#000000" style="font-feature-settings:normal;font-variant-alternates:normal;font-variant-caps:normal;font-variant-east-asian:normal;font-variant-ligatures:normal;font-variant-numeric:normal;font-variant-position:normal;font-variation-settings:normal;inline-size:0;isolation:auto;mix-blend-mode:normal;shape-margin:0;shape-padding:0;text-decoration-color:#000000;text-decoration-line:none;text-decoration-style:solid;text-indent:0;text-orientation:mixed;text-transform:none;white-space:normal"/></g>
</svg>
