<svg width="800" height="208.05" version="1.1" viewBox="0 0 800 208.05" xml:space="preserve" xmlns="http://www.w3.org/2000/svg"><defs><radialGradient id="radialGradient30" cx="0" cy="0" r="1" gradientTransform="matrix(18.009 0 0 18.009 296.52 421.78)" gradientUnits="userSpaceOnUse"><stop stop-color="#fff" offset="0"/><stop stop-color="#fff" offset=".1573"/><stop stop-color="#008bcb" offset=".9949"/><stop stop-color="#008bcb" offset="1"/></radialGradient></defs><g transform="matrix(1.3333 0 0 -1.3333 -284.6 747.45)"><g transform="matrix(3.5207 0 0 3.5207 -538.04 -986.23)"><path d="m296.52 404.86c10.512 0 19.039 7.571 19.039 16.917 0 9.345-8.527 16.921-19.039 16.921s-19.035-7.576-19.035-16.921c0-9.346 8.523-16.917 19.035-16.917z" fill="url(#radialGradient30)"/></g><path d="m505.92 560.59c-17.363 0-33.228-5.7832-45.306-15.327h-1e-3l-0.0791-0.063c-0.0929-0.0737-0.18746-0.14561-0.27978-0.21973l-2.8462-2.2822h0.15237c-4.121-3.6755-7.7092-7.8317-10.667-12.35h-0.0131l-0.37794-0.59179c-0.0865-0.13515-0.17089-0.27136-0.25634-0.40723l-1.0019-1.5659h0.0512c-2.2208-3.7912-3.9978-7.8169-5.2778-12.026h-7e-3l-0.26805-0.92139c-7e-4 -2e-3 -7.9e-4 -4e-3 -1e-3 -7e-3 -9e-3 -0.0272-0.0153-0.0547-0.0233-0.082l-0.44384-1.5483h0.0249c-0.91032-3.5886-1.4416-7.3078-1.6099-11.112h-0.0438v-1.2847l-0.0351-1.2803h0.0153c0.0174-4.0502 0.48381-8.0142 1.3506-11.848h-0.0323l0.41894-1.6084c0.0109-0.0377 0.0218-0.075 0.0307-0.1127l0.21667-0.84374h0.0109c1.1586-4.1408 2.7735-8.1043 4.812-11.862h-0.0586l1.0371-1.7329c0.0401-0.0682 0.0783-0.13711 0.11858-0.20512l0.37208-0.62549h0.0109c2.5065-4.0935 5.5181-7.902 8.959-11.347h-0.10833l1.9658-1.7842c0.16305-0.15063 0.32449-0.30217 0.48926-0.45118l0.36473-0.32959h0.0153c12.375-11.055 29.468-17.886 48.319-17.886 18.855 0 35.954 6.8307 48.34 17.886h9e-3l0.36475 0.32959 2.4683 2.2354h-0.12447c3.4405 3.446 6.4496 7.2522 8.9487 11.347h0.0109l0.37059 0.62549c0.0567 0.0948 0.11095 0.19051 0.16698 0.28564l0.98142 1.6538h-0.0438c2.0447 3.757 3.6522 7.7248 4.8047 11.861h0.0131l0.24755 0.9624c0.0109 0.0394 0.0196 0.0791 0.0292 0.11858l0.38964 1.4839h-0.0307c0.88961 3.9017 1.3711 7.9399 1.3711 12.069 0 0.44286-0.0351 0.80138-0.0351 1.0591v1.2847h-0.0484c-0.16021 3.8087-0.69643 7.5245-1.6026 11.112h0.0351l-0.46729 1.6377c-0.0519 0.17983-0.10594 0.35841-0.15978 0.53761l-0.10834 0.38378h-7e-3c-1.2926 4.2089-3.0744 8.2351-5.2881 12.026h0.0558l-1.2583 1.9731-0.37791 0.59181h-9e-3c-2.9595 4.5214-6.5528 8.6745-10.677 12.35h0.14365l-2.8462 2.2822-0.3501 0.28273h-0.0109c-12.06 9.5425-27.918 15.319-45.299 15.321h-7e-3zm-0.0109-2.565c2e-3 4e-5 4e-3 -2e-5 7e-3 0h9e-3c0.0244-1.1e-4 0.0499-2e-3 0.0776-7e-3h9.8e-4c0.0283-4e-3 0.0589-0.0109 0.0909-0.0196h1e-3c0.0647-0.0174 0.13711-0.0488 0.21827-0.0953h1e-3c0.0406-0.0231 0.0824-0.0499 0.12752-0.082h9.8e-4c0.0451-0.032 0.0922-0.0706 0.14213-0.1127h1e-3c0.10027-0.0848 0.21014-0.19095 0.33105-0.32372 0.48452-0.53217 1.0542-1.4476 1.6025-2.6895 0.94453-2.1393 1.8132-5.6097 2.6191-9.4336h-10.429c0.8081 3.8202 1.6758 7.2953 2.6191 9.4336 0.54806 1.2422 1.1193 2.1571 1.6026 2.6895 0.47434 0.52263 0.7822 0.63468 0.97853 0.63867zm-4.2012-0.82178c-0.24992-0.45303-0.48968-0.9448-0.72364-1.4751-0.0702-0.15891-0.1406-0.32149-0.20948-0.48927-1.0553-2.5382-1.9833-5.9079-2.8008-9.9756h-9.4365c3.8553 6.0987 8.3062 10.431 13.17 11.94zm8.4375-1e-3c4.8665-1.5097 9.3114-5.8437 13.179-11.938h-9.4556c-0.86773 4.3354-1.861 7.8823-3.0044 10.472-0.23289 0.52748-0.47115 1.0166-0.71924 1.4663zm-15.779-0.86132c-3.4542-2.6536-6.5707-6.4469-9.2344-11.077h-10.677c5.7846 5.2522 12.513 9.0964 19.912 11.077zm23.115 0c7.4027-1.9804 14.13-5.8243 19.913-11.077h-10.666c-2.6762 4.6299-5.793 8.4231-9.2476 11.077zm-36.173-2.5928c-3.9245-2.3221-7.5624-5.1791-10.837-8.4844h-5.1978c4.874 3.4263 10.195 6.3679 16.034 8.4844zm49.269-0.0174c5.8286-2.115 11.137-5.0462 15.998-8.4668h-5.1973c-3.2655 3.2962-6.8897 6.148-10.8 8.4668zm-68.974-11.032h6.4732c-3.219-3.6803-6.0231-7.8346-8.332-12.35h-9.2959c3.1705 4.5059 6.7464 8.7868 11.155 12.35zm10.046 0h12.088c-1.8789-3.6819-3.5181-7.8361-4.8516-12.35h-15.904c2.4598 4.521 5.2655 8.7862 8.6675 12.35zm15.073 0h10.766c-0.64717-3.6629-1.2182-7.8231-1.6963-12.35h-14.055c1.4013 4.5436 3.0446 8.7739 4.9863 12.35zm13.415 0h11.566c0.67335-3.6136 1.2503-7.7923 1.7256-12.35h-15.01c0.48981 4.555 1.0619 8.7348 1.7183 12.35zm14.225 0h10.86c1.9494-3.6035 3.657-7.7713 5.0728-12.357h-14.24c-0.46269 4.5279-1.0309 8.6905-1.6934 12.357zm13.507 0h12.33c3.4151-3.5658 6.226-7.8328 8.6924-12.357h-16.022c-1.3704 4.5635-3.0858 8.6456-4.9995 12.357zm15.902 0h6.4673c4.4096-3.5639 7.9939-7.8446 11.167-12.35h-9.2827c-2.3144 4.5151-5.1224 8.6696-8.3511 12.35zm-95.379-14.915h10.102c-1.7376-3.7903-3.1399-7.8162-4.1367-12.021h-11.411c1.3558 4.2005 3.0992 8.2617 5.4463 12.021zm13.03 0h16.746c-1.0035-3.7903-1.8157-7.8145-2.3979-12.021h-18.59c1.0472 4.2076 2.4263 8.2595 4.2422 12.021zm19.46 0h14.653c-0.34938-3.784-0.63485-7.8091-0.8247-12.021h-16.255c0.60041 4.2128 1.3992 8.2549 2.4272 12.021zm17.253 0h15.568c0.34853-3.7831 0.63939-7.8113 0.83937-12.026h-17.24c0.19313 4.2158 0.47821 8.2466 0.83202 12.026zm18.163 0h14.666c1.028-3.7695 1.8372-7.8128 2.4346-12.026h-16.258c-0.19705 4.2197-0.49683 8.2393-0.84229 12.026zm17.388 0h16.752c1.806-3.7625 3.1884-7.8153 4.2495-12.026h-18.602c-0.57864 4.2088-1.3968 8.2363-2.3994 12.026zm19.679 0h10.09c2.3373-3.7603 4.0932-7.8175 5.4609-12.021h-11.414c-1.0108 4.2055-2.408 8.2288-4.1367 12.021zm-111.3-14.592h11.729c-0.71649-3.5858-1.1315-7.3002-1.2495-11.106h-12.144c0.18028 3.8196 0.70494 7.5399 1.6641 11.106zm14.448 0h18.93c-0.41046-3.5841-0.65657-7.2967-0.73391-11.106h-19.49c0.12578 3.8179 0.54627 7.5372 1.2935 11.106zm21.571 0h16.512c-0.15237-3.583-0.22871-7.3013-0.2637-11.106h-16.998c0.0811 3.8164 0.32903 7.5332 0.75 11.106zm19.102 0h17.48c0.13689-3.5797 0.23636-7.2936 0.26805-11.106h-18.016c0.0355 3.8191 0.11379 7.5334 0.26808 11.106zm20.067 0h16.516c0.42352-3.5743 0.66144-7.2896 0.73534-11.106h-16.995c-0.031 3.8154-0.12141 7.5265-0.25634 11.106zm19.16 0h18.94c0.72951-3.5717 1.154-7.2914 1.2934-11.106h-19.507c-0.0702 3.8097-0.31427 7.5228-0.72658 11.106zm21.649 0h11.726c0.95298-3.5688 1.4849-7.2891 1.6567-11.106h-12.126c-0.13122 3.8078-0.55644 7.5236-1.2568 11.106zm-117.85-13.671h12.256c0.0131-4.0548 0.40367-8.018 1.0855-11.848h-11.837c-0.91361 3.8359-1.4883 7.7834-1.5059 11.848zm14.84 0h19.626c9e-3 -4.0506 0.22244-8.0141 0.61965-11.848h-19.043c-0.7113 3.8404-1.1885 7.7878-1.2026 11.848zm22.197 0h17.074c2e-3 -4.0659 0.10267-8.0067 0.24024-11.848h-16.635c-0.40791 3.837-0.6727 7.7822-0.67969 11.848zm19.633 0h18.075c-2e-3 -4.0564-0.0802-8.0163-0.2169-11.848h-17.634c-0.13799 3.8335-0.22126 7.7933-0.22411 11.848zm20.632 0h17.076c-9e-3 -4.0645-0.27582-8.0084-0.67968-11.848h-16.621c0.1358 3.8441 0.22247 7.7841 0.22556 11.848zm19.654 0h19.605c-0.0131-4.067-0.46483-8.0122-1.1821-11.848h-19.044c0.39328 3.8319 0.61334 7.7959 0.6211 11.848zm22.188 0h12.284c-0.0174-4.062-0.60542-8.0107-1.5264-11.848h-11.823c0.68678 3.8345 1.052 7.7996 1.0649 11.848zm-116.84-14.413h11.539c0.89202-4.139 2.1611-8.102 3.7676-11.861h-10.355c-2.1491 3.7284-3.7278 7.7248-4.9512 11.861zm14.344 0h18.736c0.52536-4.1394 1.2553-8.1024 2.1826-11.861h-17.061c-1.6771 3.7303-2.9231 7.7186-3.8584 11.861zm21.407 0h16.381c0.18267-4.1383 0.42502-8.1069 0.74707-11.861h-14.902c-0.95173 3.7355-1.6843 7.7131-2.2266 11.861zm18.964 0h17.377c-0.1855-4.1478-0.4396-8.1148-0.76318-11.861h-15.851c-0.32571 3.7424-0.57801 7.7102-0.76318 11.861zm19.979 0h16.46c-0.56423-4.3894-1.3793-8.5743-2.4023-12.501h-14.878l0.0543 0.64013h-9.9e-4c0.32118 3.7535 0.58422 7.7157 0.76757 11.861zm18.97 0h18.813c-0.9295-4.139-2.1834-8.131-3.8569-11.861h-17.164c0.929 3.7647 1.6853 7.7114 2.2075 11.861zm21.614 0h11.53c-1.2183-4.1385-2.7965-8.1334-4.957-11.861h-10.33c1.602 3.7562 2.8721 7.722 3.7573 11.861zm-41.515-13.78h14.64c-1.2922-4.6502-2.8689-8.9064-4.7139-12.633h-11.52l0.10834 0.64013h-0.0109c0.58295 3.6121 1.105 7.6426 1.497 11.993zm-66.955-0.64597h9.6577c1.9527-4.0906 4.3054-7.8975 7.0064-11.347h-7.3257c-3.667 3.3634-6.6615 7.2684-9.3384 11.347zm12.797 0h16.33c1.1317-4.0883 2.4902-7.8943 4.0576-11.347h-13.132c-2.8463 3.3622-5.1845 7.2578-7.2554 11.347zm19.144 0h14.369c0.39928-4.1004 0.87278-7.9111 1.4121-11.347h-11.626c-1.6162 3.3706-2.9731 7.2368-4.1543 11.347zm16.985 0h15.341c-0.39352-4.1137-0.88329-7.9388-1.4443-11.347h-12.466c-0.54734 3.4038-1.023 7.2309-1.4312 11.347zm35.07 0h16.408c-2.0714-4.0881-4.4129-7.9813-7.2627-11.347h-13.318c1.5959 3.4748 3.0251 7.2246 4.1733 11.347zm19.554 0h9.6358c-2.6694-4.0778-5.6633-7.9802-9.3311-11.347h-7.3227c2.7051 3.4502 5.0643 7.2556 7.018 11.347zm-38.41-13.272h11.086c-4.2882-8.1805-9.6909-13.611-15.538-15.356 0.40804 0.71372 0.7884 1.5262 1.1572 2.4419 1.2212 3.0322 2.2805 7.1973 3.1816 12.274h2e-3l0.0543 0.32373c0.0196 0.10615 0.0373 0.20948 0.0558 0.3164zm-52.535-0.64013h6.189c3.7188-4.2474 7.9918-7.8778 12.687-10.736-7.0159 2.5974-13.334 6.2684-18.876 10.736zm9.9507 0h11.865c3.0294-5.9332 6.7175-10.722 10.89-13.846-8.6647 2.2638-16.379 7.2008-22.755 13.846zm15.155 0h10.451c0.85112-4.7538 1.8356-8.7109 2.9605-11.682 0.0765-0.2049 0.15346-0.40536 0.23145-0.59913 0.0264-0.0652 0.0536-0.12555 0.0807-0.18746 0.29373-0.71375 0.59603-1.3666 0.91407-1.9527-5.5044 1.7256-10.496 6.9293-14.637 14.421zm13.162 0h11.442c-0.85236-4.6038-1.8006-8.7192-2.8476-11.319-0.59257-1.4713-1.2108-2.5738-1.7534-3.2241-0.54269-0.65048-0.90336-0.78515-1.1206-0.78515-0.0257 0-0.0543 2e-3 -0.085 7e-3 -0.0303 4e-3 -0.0628 0.0131-0.0981 0.0248h-1e-3c-0.2134 0.0682-0.51801 0.26559-0.92285 0.75293-0.54078 0.65103-1.1604 1.7522-1.7534 3.2241-1.0474 2.5995-2.0002 6.7178-2.8594 11.319zm27.738 0h12.034c-6.5201-6.7938-14.443-11.802-23.351-13.994 4.3508 3.0802 8.1735 7.8913 11.317 13.994zm15.795 0h6.1889c-5.5441-4.4648-11.862-8.1386-18.879-10.736 4.6958 2.8582 8.9697 6.4883 12.69 10.736z" color="#000000" fill="#fff" style="-inkscape-stroke:none"/><g transform="matrix(3.5207 0 0 3.5207 -538.04 -986.23)" fill="#003a78"><path d="m223.4 421.89c3.273-0.69 3.095-5.203 3.095-5.203 0.136-2.719 2.289-2.994 2.289-2.994v-0.784h-3.01c-1.121 0.184-2.152 1.981-2.152 5.019 0 3.041-2.11 3.547-2.11 3.547l-3.195-0.046v-5.511c0-1.843 0.262-2.362 2.346-2.472v-0.523h-7.215v0.523c2.109 0.137 2.216 0.713 2.216 2.775v11.895c0 2.03-0.391 2.274-2.216 2.469v0.523h7.187c2.32 0 6.709-0.249 6.579-4.475 0.044-2.856-2.219-4.117-3.772-4.515zm-5.083 0.456c2.189 0.026 6.095 0.08 6.095 4.008 0 3.658-3.41 3.737-4.477 3.737-1.383 0-1.618-0.191-1.618-0.99z"/><path d="m352.76 422.26c3.728-0.693 3.526-5.203 3.526-5.203 0.151-2.716 2.603-2.994 2.603-2.994v-0.788h-3.423c-1.755-0.086-3.598 1.525-3.822 4.653-0.217 3.031-1.658 3.548-1.658 3.548l-2.067-0.046-0.041-5.248c0-1.841-0.231-2.167 1.928-2.213v-0.694h-7.958l-3e-3 0.773c2.401 0.135 2.114 0.481 2.114 2.541v11.896c0 2.03 0.062 2.101-2.01 2.289v0.739l7.669-0.038c2.638 0 7.427-0.247 7.28-4.476 0.05-2.852-2.322-4.114-4.09-4.508zm-4.882 0.642c2.486 0.031 4.666-0.102 4.666 3.822 0 3.655-2.521 3.904-3.726 3.734-1.346-0.186-0.94-0.403-0.94-1.203z"/><path d="m245.89 412.86h-6.28l0.031 0.779c0.912 0 1.691-0.231 1.691 0.775 0 0.437-0.319 1.339-0.469 1.72l-1.489 3.906-5.613-0.048-1.49-4.431c-0.121-0.354-0.197-0.736-0.197-1.037 0-1.143 1.218-0.885 1.732-0.885l-0.055-0.779h-4.877l0.037 0.779c0.4 0.026 0.773-0.175 1.214 0.339 0.571 0.682 1.333 2.673 1.802 3.871l4.215 13.295h2.019l5.515-15.391c0.783-1.991 0.185-2.068 2.296-2.161zm-6.741 8.055-2.648 7.41-2.514-7.364z"/><path d="m340.25 414.59c0.242-0.451 0.607-0.542 1.596-0.542l1e-3 -0.774h-7.977l-6e-3 0.782c0.911 0 1.981-0.111 1.981 0.744 0 0.434-0.302 1.368-0.451 1.748l-0.988 3.087h-5.073l-1.12-3.775c-0.124-0.356-0.113-0.593-0.113-0.894 0.017-1.097 1.616-0.962 2.134-0.962l-9e-3 -0.73h-5.691v0.782c0.39 0.028 0.439-0.178 0.88 0.341 0.568 0.679 1.333 2.672 1.8 3.87l4.213 13.293h3.437l4.598-14.482zm-6.202 6.379-2.153 6.815-2.291-6.862z"/><path d="m382.27 414.59c0.239-0.451 0.602-0.542 1.591-0.542l5e-3 -0.774h-7.983l-3e-3 0.782c0.91 0 1.983-0.111 1.983 0.744 0 0.434-0.306 1.368-0.45 1.748l-0.989 3.087h-5.072l-1.123-3.775c-0.123-0.356-0.11-0.593-0.11-0.894 0.015-1.097 1.614-0.962 2.132-0.962l-7e-3 -0.73h-5.694v0.782c0.394 0.028 0.44-0.178 0.885 0.341 0.564 0.679 1.329 2.672 1.799 3.87l4.213 13.293h3.435l4.599-14.482zm-6.203 6.379-2.157 6.815-2.288-6.862z"/><path d="m245.98 413.6c2.03 0.112 2.292 0.342 2.292 2.262v12.195c0 2.034-0.295 2.31-2.349 2.475v0.524h7.209c7.928 0.088 10.622-2.582 10.659-9.149-0.037-4.394-1.741-9.045-10.283-9.039h-7.585zm4.667 16.53-0.046-1.151 0.046-13.719c0-0.936 0.67-1.373 1.952-1.373 1.712 0 8.28 0 8.28 7.993 0 2.309-0.4 4.843-2.013 6.453-1.283 1.182-1.978 1.846-6.69 1.846z"/><path d="m264.14 413.54c2.131 0.053 2.433 0.319 2.433 2.273v12.226c0 2.038-0.353 2.368-2.433 2.479v0.525h7.446v-0.525c-1.831-0.085-2.458-0.275-2.458-2.479v-12.226c0-2.149 0.603-2.168 2.458-2.229v-0.771h-7.446z"/><path d="m358.87 414c1.657 0 1.867 0.318 1.867 2.271v12.227c0 2.037 0.288 2.267-2.092 2.267v0.736h7.991l0.047-0.824c-2.199 0-2.034 0.024-2.034-2.179v-12.227c0-2.147 0.523-2.232 1.823-2.232v-0.773h-7.571z"/><path d="m272.43 422.19c0 6.271 4.331 9.437 8.689 9.437 4.356 0 8.692-3.166 8.692-9.437 0-5.807-3.882-9.374-8.692-9.374-4.812 0-8.689 3.567-8.689 9.374m14.35 0.03c0 6.212-2.948 8.422-5.661 8.422-2.711 0-5.657-2.21-5.657-8.422 0-6.001 2.71-8.427 5.657-8.427 2.952 0 5.661 2.426 5.661 8.427"/><path d="m324.94 430.76c-1.674-0.137-2.307 0.186-2.307-2.024v-12.415c0-2.15 0.203-2.071 1.904-2.184v-0.865h-7.858v0.819c2.076 0.115 1.886 0.425 1.886 2.718l-0.047 10.542v1.062l-5.25-14.598h-1.709l-5.432 14.725h-0.056v-11.155c0-2.879 0.56-3.497 2.503-3.577v-0.536h-6.246l0.03 0.91c2.019 0.142 2.158 0.252 2.158 3.275v11.279c0 2.181-0.19 1.915-2.158 2.024l0.024 1.023h6.798l4.581-12.12 4.131 12.12h7.048z"/></g><g transform="matrix(1.051 0 0 -1.051 420.5 623.86)" fill="#003a78" style="shape-inside:url(#rect2519-5);white-space:pre" aria-label="ITALIA"><path d="m24.761 208.67h12.64v-0.72h-0.96c-1.8 0-2.48-0.72-2.48-2.44v-21.04c0-1.72 0.68-2.44 2.48-2.44h0.96v-0.72h-12.64v0.72h0.96c1.84 0 2.56 0.76 2.56 2.44v21.04c0 1.6-0.72 2.44-2.56 2.44h-0.96z"/><path d="m43.121 208.67h14.08v-0.72h-1.68c-1.84 0-2.52-0.84-2.52-2.44v-23.48h1c5.6 0 6.16 4.28 7.12 10.44h0.76l-0.44-11.16h-22.6l-0.4 11.16h0.72c1-6.16 1.52-10.44 7.12-10.44h1.04v23.48c0 1.52-0.68 2.44-2.52 2.44h-1.68z"/><path d="m60.121 208.67h7.84v-0.72h-0.72c-1.52 0-2.28-0.72-2.28-1.84 0-0.88 0.24-2.2 0.8-3.64l1.2-3.04h9.28l1.72 4.44c0.4 1.08 0.56 1.8 0.52 2.52-0.04 0.8-0.6 1.52-2.08 1.52h-1.2v0.76h12.8v-0.72c-2.12-0.12-2.92-1-3.64-2.84l-9.68-24.44h-1.52l-9.16 23.32c-1 2.56-1.92 3.8-3.88 3.96zm7.16-10.12 4.28-11.08 4.36 11.08z"/><path d="m88.281 208.67h20.84l0.6-11.64h-0.72c-0.76 6.6-2.32 10.88-7.72 10.88h-1.4c-1.84 0-2.52-0.84-2.52-2.4v-21.04c0-1.56 0.68-2.44 2.52-2.44h1.36v-0.72h-12.96v0.72h0.84c1.84 0 2.56 0.96 2.56 2.44v21.04c0 1.56-0.72 2.44-2.56 2.44h-0.84z"/><path d="m110.96 208.67h12.64v-0.72h-0.96c-1.8 0-2.48-0.72-2.48-2.44v-21.04c0-1.72 0.68-2.44 2.48-2.44h0.96v-0.72h-12.64v0.72h0.96c1.84 0 2.56 0.76 2.56 2.44v21.04c0 1.6-0.72 2.44-2.56 2.44h-0.96z"/><path d="m124.24 208.67h7.84v-0.72h-0.72c-1.52 0-2.28-0.72-2.28-1.84 0-0.88 0.24-2.2 0.8-3.64l1.2-3.04h9.28l1.72 4.44c0.4 1.08 0.56 1.8 0.52 2.52-0.04 0.8-0.6 1.52-2.08 1.52h-1.2v0.76h12.8v-0.72c-2.12-0.12-2.92-1-3.64-2.84l-9.68-24.44h-1.52l-9.16 23.32c-1 2.56-1.92 3.8-3.88 3.96zm7.16-10.12 4.28-11.08 4.36 11.08z"/></g></g></svg>
