<svg width="794.57" height="800" space="preserve" version="1.1" viewBox="0 0 794.57 800" xmlns="http://www.w3.org/2000/svg">
 <link href="" rel="stylesheet" type="text/css"/>
 <style type="text/css"/>
 <style type="text/css">.Ombra_x0020_esterna{fill:none;}
	.Bagliore_x0020_esterno_x0020_5_x0020_pt{fill:none;}
	.Jive_GS{fill:#A6D0E4;}</style>
 <g transform="scale(.57803)" fill="#fff">
  <polygon points="468.1 206.3 468.5 610.9 376.3 667.3 376.3 261 298.6 310.1 298.6 715.4 204.6 772.2 204.6 262.6 640.3 0 640.3 506.3 544.7 566.8 544.7 159.3"/>
  <polygon points="843.1 362.8 843.1 462 1179.8 668.9 1179.8 773.2 743.9 508.5 743.9 204.9 1079.7 407.2 1079.1 305.6 744.9 102.7 744.9 1.9 1179.8 262.8 1179.8 565"/>
  <path d="m691.9 570.3-437.5 265 437.5 263.2 435.5-264zm0 411.8-256.1-156 256.1-154 252.2 154z"/>
  <path d="m74.6 1223.5v27.9c-23-0.9-47.9 10.7-47.9 47v81.3h-26.7v-153.4h26.7v25.8c9.8-21.6 28.5-28.6 47.9-28.6z"/>
  <path d="m253 1226.2v153.4h-26.7v-26.4c-12.3 18.7-31.9 30.4-58 30.4-42.7 0-77.6-35.3-77.6-80.7s35-80.7 77.6-80.7c26.1 0 45.7 11.7 58 30.4v-26.4zm-26.7 76.7c0-31.3-23.6-54.9-54.6-54.9-30.7 0-54.3 23.6-54.3 54.9s23.6 54.9 54.3 54.9c31 0.1 54.6-23.6 54.6-54.9z"/>
  <path d="m453.2 1164.8v214.8h-26.7v-26.4c-12.3 18.7-31.9 30.4-58 30.4-42.7 0-77.6-35.3-77.6-80.7s35-80.7 77.6-80.7c26.1 0 45.7 11.7 58 30.4v-87.8zm-26.7 138.1c0-31.3-23.6-54.9-54.6-54.9-30.7 0-54.3 23.6-54.3 54.9s23.6 54.9 54.3 54.9c30.9 0.1 54.6-23.6 54.6-54.9z"/>
  <path d="m496 1180.5c0-9.8 8-18.1 18.1-18.1 9.8 0 17.8 8.3 17.8 18.1s-8 17.8-17.8 17.8c-10.2 0-18.1-8-18.1-17.8zm4.6 45.7h26.7v153.4h-26.7z"/>
  <path d="m564.4 1302.9c0-45.4 35.9-80.7 80.7-80.7s81 35.3 81 80.7-36.2 80.7-81 80.7-80.7-35.2-80.7-80.7zm135 0c0-31-23.6-54.6-54.3-54.6-30.4 0-54 23.6-54 54.6s23.6 54.6 54 54.6c30.7 0.1 54.3-23.6 54.3-54.6z"/>
  <path d="m1001 1282.4v97.1h-53v-91.1c0-13.6-6.3-22.2-19.7-22.2-14.9 0-21.9 10.8-21.9 26.7v86.7h-52.7v-91.1c0-13.6-6.7-22.2-20-22.2-14.6 0-21.9 10.8-21.9 26.7v86.7h-52.7v-158.7h52.7v14.9c8.6-11.4 22.5-19.4 42.9-19.4 18.7 0 32.1 7.3 40.6 20.3 9.8-12.1 24.1-20.3 46-20.3 36.5-0.1 59.7 24.6 59.7 65.9z"/>
  <path d="m1030.2 1338.2 73.6-77.8c12.4-13.3 21.3-23.5 21.3-34.3 0-10.5-7-18.4-19.7-18.4-14 0-23.8 9.2-29.8 23.2l-48.9-27.3c14.9-34.9 45.7-51.1 78.1-51.1 40 0 77.1 25.1 77.1 70.5 0 27.9-15.2 48.9-35.6 70.1l-30.2 31.4h69.5v54.9h-155.5v-41.2z"/>
  <path d="m1205.1 1300.2c0-47.3 37.8-83.8 84.8-83.8 47.3 0 84.7 36.5 84.7 83.8s-37.5 83.8-84.7 83.8c-46.8-0.1-84.8-36.6-84.8-83.8zm116.8 0c0-19.7-13.6-33-32.1-33-18.1 0-31.7 13.3-31.7 33s13.6 33 31.7 33c18.4 0 32.1-13.4 32.1-33z"/>
 </g>
</svg>
