<svg width="649.34pt" height="87.488pt" version="1.1" viewBox="0 0 649.34 87.488" xmlns="http://www.w3.org/2000/svg">
 <g transform="translate(-158.07 -202.48)">
  <path d="m535.02 205.51c6.39 0.31 12.79 0.16 19.19 0.37 0.13 5.5 0.3 11.01 0.2 16.52 7.17-1.33 14.81-3.36 21.93-0.68 3.45 1.35 7.47 4.06 7.17 8.26-0.03 15.7-0.06 31.4 0 47.1 0.18 2.55-1 4.89-2.51 6.87-5.19 2.71-10.92 4.92-16.86 4.64-4.77-0.19-9.28-3.15-14.1-1.81-4.85 1.06-9.83 1.01-14.76 0.86-0.13-27.38 0.36-54.76-0.26-82.13m21.17 25.52c-2.12 1.19-1.34 3.96-1.61 5.96 0.16 13.72-0.14 27.45 0.19 41.18 2.4 0.7 5.29 1.94 7.55 0.17 1.61-1.23 1.2-3.51 1.39-5.28-0.07-11.7-0.12-23.4 0.01-35.1-0.08-2.02 0.09-4.15-0.75-6.03-1.57-1.99-4.75-2.42-6.78-0.9z"/>
  <path d="m392.97 220.58h16.908l6.855 31.965 6.855-31.965h20.82l6.67 31.955 6.67-31.955h20.22l-14.27 66.415h-23.04l-6.065-22.78-6.065 22.78h-24.32z"/>
  <path d="m482.85 226.8c6.046-6.7861 14.502-7.1962 22.271-7.1412 8.0578 0.0696 16.189 1.1266 22.599 6.3712 1.75 2.26 2.88 5.01 2.76 7.9 0.05 8.2-0.0298 16.535-0.0298 24.735h-27.97v18.795h6.145v-15.365h21.825c-0.09 7.33 1.7198 17.145-5.4002 22.035-8.04 4.86-18.01 4.6-27.06 3.92-9.7878-1.4283-17.6-4.8474-17.32-14.99 0.01-12.02 0.09-24.05-0.02-36.07-0.02-3.48 0.05-7.26 2.2-10.19m19.81 5.22 0.09 16.64h5.87l-0.05-17.31c-6e-3 -2.0338-5.9238-1.8733-5.91 0.67z"/>
 </g>
 <g transform="translate(-158.07 -202.48)">
  <g fill="#44a22a">
   <path d="m310.3 206.23c0.38-1.39 1.03-3.37 2.76-3.43 5.75-0.6 11.55-0.21 17.32 0.03-2.05 13.85-5.41 27.45-8.29 41.13-1.28 7.77-3.4 15.35-5 23.06-1.62 6.91-2.46 13.99-4.3 20.86-5.1 0.39-10.34 0.94-15.31-0.58-4.25-1.52-8.23 1.81-12.51 1.59-5.77-0.07-12.97 0.09-16.69-5.17-2.36-2.81-1.25-6.58-0.56-9.77 3.49-13.72 5.63-27.74 8.84-41.53 0.93-3.59 1.59-7.85 4.93-10.06 3.66-2.47 8.14-3.39 12.48-3.74 4.61-0.47 8.94 2.16 13.55 1.34 0.99-4.56 1.69-9.19 2.78-13.73m-12.66 24.44c-1.38 2.04-1.7 4.56-2.25 6.91-1.69 8.87-3.98 17.62-5.47 26.54-0.74 4.91-2.67 9.72-2 14.77 1.88-0.1 3.77-0.1 5.63-0.39 1.65-1.61 2.1-3.99 2.69-6.13 1.72-7.6 3.73-15.15 5.05-22.84 0.71275-4.2577 1.9337-8.4881 2.5483-12.772 1.9147-7.1457-1.7591-10.901-6.1983-6.0883z"/>
   <path d="m335.83 202.86h19.35l-1.7371 9.49c-0.71 1.4-1.4032 2.21-2.9132 2.66h-17.01z"/>
   <path d="m172.99 219.77c9.36-0.83 18.78 0.97 28.08-0.66 5.47-1 11.16 0.01 16.06 2.59 0.74 0.79 1.47 1.61 2.17 2.46-1.89 7.4-1.99 15.26-4.83 22.39-5.04 1.4-10.37 0.87-15.54 0.74-1.44 0-3.82-0.23-3.54-2.23 0.61-5.28 2.37-10.41 2.34-15.78-2.02 0.04-4.05-0.01-6.05 0.34-2.57 3.23-2.81 7.57-3.73 11.45-3.32 15.62-6.64 31.23-10.01 46.83h-19.87c5.12-22.68 9.28-45.57 14.92-68.13z"/>
   <path d="m237.4 220.35c10.44-2.48 22.13-2.68 31.73 2.71 0.32 0.31 0.96 0.93 1.28 1.23 0.78 3.85 0.66 7.83-0.3 11.64-4.1 17.25-7.24 34.72-11.21 52-5.3 0.44-10.61 0.35-15.91 0.02-6.97-0.46-13.82 2.13-20.79 1.02-3.01-0.47-6.54-1.11-8.2-3.99-2.4-3.54-0.49-7.87 0.13-11.65 1.4-5.22 1.25-11.64 5.94-15.23 5.93-4.71 13.25-7.1 20.19-9.9 3-1.36 6.82-2.4 8.19-5.74 1.48-3.72 2.55-7.82 1.96-11.84-2.02-2.88-6.15-1.25-7.38 1.5-2.1 4.31-2.41 9.2-3.2 13.86-6.29 0.4-12.59 0.28-18.87-0.24 0.94-5.22 1.48-10.59 3.34-15.6 2.11-5.44 7.66-8.55 13.1-9.79m3.05 38.18c-2.62 1.04-3.91 3.84-4.59 6.41-1.13 4.5-2.51 9.16-1.6 13.84 2.26-0.23 5.57 0.86 6.6-1.92 2.15-6.06 3.18-12.51 4.15-18.86-1.53 0.13-3.07 0.2-4.56 0.53z"/>
   <path d="m332.43 219.37h19.62l-13.88 68.69h-20.28z"/>
   <path d="m362.52 222.42c9.99-4.48 21.44-4.61 31.96-1.97 1.06 0.29 2.11 0.61 3.16 0.96 3.57 2.15 6.67 6.16 5.45 10.56-1.71 7.98-3.53 15.94-5.36 23.89-2.24 9.15-3.62 18.62-7.59 27.24-0.24 0.26-0.74 0.78-0.98 1.04-9.8122 6.0116-21.611 6.3539-32.737 4.7167-4.6846-0.53166-9.0306-3.4611-10.833-7.4967-1.18-3.63-0.16-7.51 0.57-11.14 2.68-11.18 5.1-22.43 7.28-33.72 1.04-5.59 3.59-11.58 9.08-14.08m14.19 7.26c-2.29 2.19-2.89 5.46-3.57 8.41-1.47 7.74-3.3 15.4-4.76 23.14-0.58015 3.1373-1.43 6.2238-2.1331 9.3383-0.95596 5.2942-2.956 8.3596 3.5931 8.4617 3-0.88 3.61-4.32 4.25-6.93 2.41-11.85 4.65-23.74 7.51-35.49 1.0243-4.4954 0.35126-10.011-4.89-6.93z"/>
  </g>
 </g>
 <g fill="#cd061d">
  <path d="m426.05 3.7679c6.62-0.01 13.25 0.1 19.88 0v11.46c-6.63 0.02-13.25 0.07-19.88 0z"/>
  <path d="m550.32 3.8629h20.195v82.255h-20.195z"/>
  <path d="m575.88 3.7779h20.085v11.485h-20.085z"/>
  <path d="m459.38 6.1429h20.138v12.975h11.685v9.9949h-11.685v30.395c0.02 4.32-0.435 8.79 1.105 12.93 0.51 0.87 1.04 1.73 1.59 2.6 3 0.1 6.01 0.26 9.01 0.46 0.07 3.44 0.06 6.89 0.02 10.34-8.45 0.44-16.91 0.24-25.35-0.16-1.99-0.91-3.68-2.32-5.26-3.78-1.96-8.33-1.1525-16.91-1.2525-25.38v-27.405h-9.5973v-9.9949h9.5973z"/>
  <path d="m511.11 19.047c4.2544-0.64704 8.5548-0.73014 12.858-0.61539 11.091-0.0596 21.236 3.7057 20.772 15.535-0.10999 17.13 0.06 34.27-0.09 51.4-8.17 1.02-16.54-1.34-24.54 0.97-1.14 0.21-2.27 0.43-3.39 0.65-4.31-0.24-8.75-0.08-12.88-1.46-3.12-1.13-6.36-3.4-6.93-6.89-0.65-4.19-0.44-8.45-0.43-12.67 0.1-3.2 0.12-6.85 2.56-9.26 6.82-6.77 17.09-7.86 24.63-13.41 2.23-4.42 0.71-9.73 0.49-14.47-2.37-0.01-5.96-1.15-7.12 1.73-1.38 4.65-0.62 9.48-0.54 14.25h-18.86c0-5.41-0.62-10.98 0.3-16.34 1.7-5.64 7.8-8.43 13.17-9.42m5.88 40.44c-0.51 3.84-0.25 7.73-0.28 11.6 0.13 1.92-0.26 4.68 2.04 5.5 1.73 0.21 3.48 0.11 5.24 0.1 1.22-6.64 0.61-13.4 0.7-20.11-2.87-0.52-6.13 0.29-7.7 2.91z"/>
  <path d="m615.69 19.548c4.2544-0.64704 8.5548-0.73014 12.858-0.61539 11.091-0.0596 21.236 3.7057 20.772 15.535-0.11 17.13 0.06 34.27-0.09 51.4-8.17 1.02-16.54-1.34-24.54 0.97-1.14 0.21-2.27 0.43-3.39 0.65-4.31-0.24-8.75-0.08-12.88-1.46-3.12-1.13-6.36-3.4-6.93-6.89-0.65-4.19-0.44-8.45-0.43-12.67 0.1-3.2 0.12-6.85 2.56-9.26 6.82-6.77 17.09-7.86 24.63-13.41 2.23-4.42 0.71-9.73 0.49-14.47-2.37-0.01-5.96-1.15-7.12 1.73-1.38 4.65-0.62 9.48-0.54 14.25h-18.86c0-5.41-0.62-10.98 0.3-16.34 1.7-5.64 7.8-8.43 13.17-9.42m5.88 40.44c-0.51 3.84-0.25 7.73-0.28 11.6 0.13 1.92-0.26 4.68 2.04 5.5 1.73 0.21 3.48 0.11 5.24 0.1 1.22-6.64 0.61-13.4 0.7-20.11-2.87-0.52-6.13 0.29-7.7 2.91z"/>
  <path d="m426.62 20.298v-1.09h19.735v62.35c-0.08 1.96 0.47489 5.265-2.4851 5.045h-18.15c2.29-4.11 6.135-7.935 5.705-13.025v-46.12c0.22-3.25-2.6448-5.27-4.8048-7.16z"/>
  <path d="m575.88 19.498h20.085v66.265h-20.085z"/>
 </g>
</svg>
