<svg width="800" height="147.3" version="1.1" viewBox="0 0 800 147.3" xmlns="http://www.w3.org/2000/svg" xmlns:xlink="http://www.w3.org/1999/xlink">
 <defs>
  <linearGradient id="linear-gradient" y1=".483" y2=".483">
   <stop stop-color="#2aac75" offset="0"/>
   <stop stop-color="#1b5a9c" offset="1"/>
  </linearGradient>
  <linearGradient id="linear-gradient-2" x1=".0036973" x2="48.273" y1="24.135" y2="24.135" gradientTransform="matrix(3.0963 0 0 3.0473 -.01146 .21194)" gradientUnits="userSpaceOnUse" xlink:href="#linear-gradient"/>
  <linearGradient id="linearGradient856" x2="18.644" y1="9.005" y2="9.005" gradientTransform="matrix(2.2189 0 0 4.2522 55.686 -2.7147e-6)" gradientUnits="userSpaceOnUse" xlink:href="#linear-gradient"/>
 </defs>
 <g stroke-width="3.0717">
  <path d="m62.895 0.82629c1.1058 23.873 0.66656 57.794-7.2093 76.774a12.594 12.594 0 0 0 4.2021 1.5359c10.542 1.4038 23.901-7.8144 37.168-21.05-2.5403-8.1953-1.7447-15.297-2.3898-16.728-0.4239-0.92151-1.4007-0.34096-2.1502 0.24574-0.5867 0.45768-1.0259 0.92151-0.94916 0.64506 2.5587-8.6837 0.54984-10.017 0.54984-10.017-0.771-0.77714-2.0949-0.15973-3.1116 0.46383-0.92151 0.55905-1.585 1.1242-1.3577 0.64199 1.3546-3.64 2.4574-11.894 0.1843-13.307-1.0505-0.64506-2.2024 0.0215-3.0993 0.68499-0.75564 0.56212-1.33 1.1242-1.5021 0.89387 0.61434-10.865-3.1577-11.298-3.1577-11.298-1.4652-0.12901-2.5219 3.7075-2.743 3.8703-3.726-18.074-5.9775-11.786-5.9775-11.786s-1.843 14.336-1.7816 12.818c-2.3068-12.834-4.3618-15.214-5.5536-15.214-0.70342 0-1.1181 0.82629-1.1181 0.82629" fill="none" data-name="Clip 18"/>
  <path d="m62.895 0.82629c1.1058 23.873 0.66656 57.794-7.2093 76.774a12.594 12.594 0 0 0 4.2021 1.5359c10.542 1.4038 23.901-7.8144 37.168-21.05-2.5403-8.1953-1.7447-15.297-2.3898-16.728-0.4239-0.92151-1.4007-0.34096-2.1502 0.24574-0.5867 0.45768-1.0259 0.92151-0.94916 0.64506 2.5587-8.6837 0.54984-10.017 0.54984-10.017-0.771-0.77714-2.0949-0.15973-3.1116 0.46383-0.92151 0.55905-1.585 1.1242-1.3577 0.64199 1.3546-3.64 2.4574-11.894 0.1843-13.307-1.0505-0.64506-2.2024 0.0215-3.0993 0.68499-0.75564 0.56212-1.33 1.1242-1.5021 0.89387 0.61434-10.865-3.1577-11.298-3.1577-11.298-1.4652-0.12901-2.5219 3.7075-2.743 3.8703-3.726-18.074-5.9775-11.786-5.9775-11.786s-1.843 14.336-1.7816 12.818c-2.3068-12.834-4.3618-15.214-5.5536-15.214-0.70342 0-1.1181 0.82629-1.1181 0.82629" fill="url(#linearGradient856)" data-name="Fill 17"/>
  <path d="m21.423 20.676c-2.5004 4.5615-5.2495 10.551-6.1434 12.367 2.098-8.4871 1.6649-13.515 1.3884-27.876-10.984 18.151-4.6536 25.698-2.4758 30.41-1.5359 3.5294-2.9857 7.9864-3.2222 8.7206-0.79864-6.0697-5.8977-12.576-9.5223-26.205-4.9854 18.793 4.1959 28.195 8.0817 31.666-0.11672 0.5099-0.23345 1.0198-0.35325 1.5359-0.10137 0.52526-0.22423 1.1734-0.34403 1.926 0 0.09215-0.027645 0.18123-0.043004 0.27645 0 0.09829-0.030717 0.2058-0.043004 0.30717-0.039932 0.27338-0.079864 0.54676-0.11672 0.82014a50.64 50.64 0 0 0-0.24881 10.954 68.622 68.622 0 0 0-5.0314 6.0451 17.905 17.905 0 0 1 5.8547-0.72799 31.614 31.614 0 0 0 5.7594 12.594c0.19659 0.24266 0.38396 0.47304 0.55598 0.68806l0.07065 0.07986a21.425 21.425 0 0 0 1.5696 1.6526 1.0167 1.0167 0 0 0 0.12901 0.11672c0.30717 0.24574 0.51605 0.3686 0.58362 0.34096l0.02457-0.0215c0.01843-0.04608-0.0215-0.15666-0.15051-0.35325a43.925 43.925 0 0 1-5.5291-14.615c7.2062 2.1932 10.822 10.917 14.778 21.523 4.4448 11.915 9.3226 26.189 20.224 36.246a37.079 37.079 0 0 0 4.6413 3.7383c19.435 13.334 49.454 8.2936 51.476 7.9864a56.728 56.728 0 0 0 23.907 6.4322h0.0276c3.7137 0 5.8639-0.72799 5.9499-1.4652 0.93687-1.4806-5.4154-4.4386-5.4154-4.4386s8.1185 2.1133 8.1185-0.10444c0-2.2208-5.5291-3.9134-5.2035-4.2297a6.2356 6.2356 0 0 1 1.7355-0.0184c2.2208 0.086 5.7594 0.17202 5.7594-1.4621 0.21195-3.2775-4.6844-4.3311-4.6844-4.3311s6.6625-0.20888 6.7578-2.6417c0-3.2775-7.0649-2.6447-4.8902-4.2297 8.0141-4.3342-0.41776-5.4984-11.872-4.2267a74.83 74.83 0 0 1-21.585-1.5359c-2.915-0.67577-4.1407-1.3362-2.1502-1.5358 3.686-0.3686 15.973-7.6793 25.403-20.58q0.24881-0.34096 0.49761-0.6942c1.1273-1.585 2.2086-3.2499 3.2222-4.9915a90.029 90.029 0 0 0 5.9468-14.102c1.6249-3.6707 5.3601-4.4724 5.9591-7.5011 0.27646-1.9321-3.9656-1.0597-3.3389-1.4806 8.4349-5.7103 6.7578-8.4564 6.7578-8.4564-0.20273-1.5881-2.6847-1.5359-4.0485-1.5082-0.72492 0.0215-1.1365 0.043-0.73721-0.17816 3.5386-1.3761 9.7834-10.462 9.1598-13.515-0.61434-3.0717-4.6874-1.6894-4.6874-2.4328 8.1247-9.937 4.8963-12.259 4.8963-12.259-0.83858-1.3731-4.8963 1.8-5.2065 1.8 9.2673-19.241 2.7062-15.359 2.7062-15.359s-11.672 12.404-10.551 10.994c10.828-21.984 3.8888-18.32 3.8888-18.32a372.01 372.01 0 0 1-40.393 51.74c-13.472 13.792-27.006 23.37-37.625 21.828a12.539 12.539 0 0 1-4.2113-1.6526c-13.006-7.6301-25.259-36.768-46.496-17.358 0.03072-0.55905 0.09829-1.8 0.17509-3.127a58.206 58.206 0 0 1 0.43311-6.6318c0.1413-1.1519 0.30717-2.3253 0.52833-3.5202 5.4093-0.68806 14.956-0.38089 23.597-21.302-12.64 8.9448-17.048 11.571-23.268 19.349a15.46 15.46 0 0 1 0.42697-1.9321c0.95223-3.9594 3.0717-10.087 3.7045-11.9 0.0215-0.04608 0.03686-0.08601 0.05836-0.13208 4.6874-0.66963 15.653-3.5447 22.104-18.323a133.24 133.24 0 0 0-19.917 13.322c0.32867-0.75871 3.7168-7.2892 3.7168-7.2892 6.4168-2.4789 6.9298-7.6055 14.21-21.358-14.498 9.5745-15.162 17.202-15.279 20.464" fill="none" data-name="Clip 21"/>
  <path d="m21.423 20.676c-2.5004 4.5615-5.2495 10.551-6.1434 12.367 2.098-8.4871 1.6649-13.515 1.3884-27.876-10.984 18.151-4.6536 25.698-2.4758 30.41-1.5359 3.5294-2.9857 7.9864-3.2222 8.7206-0.79864-6.0697-5.8977-12.576-9.5223-26.205-4.9854 18.793 4.1959 28.195 8.0817 31.666-0.11672 0.5099-0.23345 1.0198-0.35325 1.5359-0.10137 0.52526-0.22423 1.1734-0.34403 1.926 0 0.09215-0.027645 0.18123-0.043004 0.27645 0 0.09829-0.030717 0.2058-0.043004 0.30717-0.039932 0.27338-0.079864 0.54676-0.11672 0.82014a50.64 50.64 0 0 0-0.24881 10.954 68.622 68.622 0 0 0-5.0314 6.0451 17.905 17.905 0 0 1 5.8547-0.72799 31.614 31.614 0 0 0 5.7594 12.594c0.19659 0.24266 0.38396 0.47304 0.55598 0.68806l0.07065 0.07986a21.425 21.425 0 0 0 1.5696 1.6526 1.0167 1.0167 0 0 0 0.12901 0.11672c0.30717 0.24574 0.51605 0.3686 0.58362 0.34096l0.02457-0.0215c0.01843-0.04608-0.0215-0.15666-0.15051-0.35325a43.925 43.925 0 0 1-5.5291-14.615c7.2062 2.1932 10.822 10.917 14.778 21.523 4.4448 11.915 9.3226 26.189 20.224 36.246a37.079 37.079 0 0 0 4.6413 3.7383c19.435 13.334 49.454 8.2936 51.476 7.9864a56.728 56.728 0 0 0 23.907 6.4322h0.0276c3.7137 0 5.8639-0.72799 5.9499-1.4652 0.93687-1.4806-5.4154-4.4386-5.4154-4.4386s8.1185 2.1133 8.1185-0.10444c0-2.2208-5.5291-3.9134-5.2035-4.2297a6.2356 6.2356 0 0 1 1.7355-0.0184c2.2208 0.086 5.7594 0.17202 5.7594-1.4621 0.21195-3.2775-4.6844-4.3311-4.6844-4.3311s6.6625-0.20888 6.7578-2.6417c0-3.2775-7.0649-2.6447-4.8902-4.2297 8.0141-4.3342-0.41776-5.4984-11.872-4.2267a74.83 74.83 0 0 1-21.585-1.5359c-2.915-0.67577-4.1407-1.3362-2.1502-1.5358 3.686-0.3686 15.973-7.6793 25.403-20.58q0.24881-0.34096 0.49761-0.6942c1.1273-1.585 2.2086-3.2499 3.2222-4.9915a90.029 90.029 0 0 0 5.9468-14.102c1.6249-3.6707 5.3601-4.4724 5.9591-7.5011 0.27646-1.9321-3.9656-1.0597-3.3389-1.4806 8.4349-5.7103 6.7578-8.4564 6.7578-8.4564-0.20273-1.5881-2.6847-1.5359-4.0485-1.5082-0.72492 0.0215-1.1365 0.043-0.73721-0.17816 3.5386-1.3761 9.7834-10.462 9.1598-13.515-0.61434-3.0717-4.6874-1.6894-4.6874-2.4328 8.1247-9.937 4.8963-12.259 4.8963-12.259-0.83858-1.3731-4.8963 1.8-5.2065 1.8 9.2673-19.241 2.7062-15.359 2.7062-15.359s-11.672 12.404-10.551 10.994c10.828-21.984 3.8888-18.32 3.8888-18.32a372.01 372.01 0 0 1-40.393 51.74c-13.472 13.792-27.006 23.37-37.625 21.828a12.539 12.539 0 0 1-4.2113-1.6526c-13.006-7.6301-25.259-36.768-46.496-17.358 0.03072-0.55905 0.09829-1.8 0.17509-3.127a58.206 58.206 0 0 1 0.43311-6.6318c0.1413-1.1519 0.30717-2.3253 0.52833-3.5202 5.4093-0.68806 14.956-0.38089 23.597-21.302-12.64 8.9448-17.048 11.571-23.268 19.349a15.46 15.46 0 0 1 0.42697-1.9321c0.95223-3.9594 3.0717-10.087 3.7045-11.9 0.0215-0.04608 0.03686-0.08601 0.05836-0.13208 4.6874-0.66963 15.653-3.5447 22.104-18.323a133.24 133.24 0 0 0-19.917 13.322c0.32867-0.75871 3.7168-7.2892 3.7168-7.2892 6.4168-2.4789 6.9298-7.6055 14.21-21.358-14.498 9.5745-15.162 17.202-15.279 20.464" fill="url(#linear-gradient-2)" data-name="Fill 20"/>
 </g>
 <g fill="#1f599c" stroke-width="3.1253">
  <path d="m201.19 122.99v-89.384h32.003q16.252 0 25.378 6.8757 9.1256 6.7507 9.1256 20.252v0.50005q0 18.252-18.377 23.753l23.628 38.003h-21.502l-21.377-34.503h-8.7509v34.503zm20.127-48.255h11.376q15.252 0 15.252-12.876v-0.50004q0-6.6256-3.8754-9.3761-3.7504-2.8753-11.376-2.8753h-11.376z" style="white-space:pre"/>
  <path d="m296.9 124.36q-9.6256 0-15.752-4.8755-6.1256-4.8755-6.1256-14.626 0-21.002 34.003-21.002h7.3757v-2.6253q0-6.1256-2.3752-9.0009-2.3753-3.0003-8.2508-3.0003-9.8761 0-11.126 9.2513h-17.126q0.75008-11.126 8.7509-16.752 8.0008-5.6262 20.628-5.6255 27.378 0 27.378 24.253v42.629h-17.626v-7.8758q-6.6256 9.2513-19.752 9.2513zm5.3755-12.626q6.1256 0 10.126-3.1253t4.0004-8.5008v-5.5006h-7.0007q-8.2508 0-12.501 2.1252-4.1254 2.1252-4.1254 7.1257 0 7.8758 9.5008 7.8758z" style="white-space:pre"/>
  <path d="m370.7 124.36q-12.376 0-20.377-8.6259-8.0008-8.7509-8.0008-24.502v-1.0001q0-15.752 8.0008-24.877 8.1259-9.2513 20.752-9.2513 14.501 0 20.628 11.251v-39.379h18.002v95.008h-18.002v-10.876q-2.6253 5.2506-8.3759 8.7509t-12.626 3.5003zm5.3755-14.126q7.3757 0 11.752-5.0005 4.3758-5.0005 4.3754-14.626v-1.0001q0-9.6256-4.1254-14.626-4.0004-5.0005-11.501-5.0005-7.6258 0-11.752 5.1255-4.0004 5.0005-4.0004 14.752v1.0001q0 9.5008 4.1254 14.501 4.1254 4.8755 11.126 4.8755z" style="white-space:pre"/>
  <path d="m422.59 122.99v-65.382h18.002v65.382zm16.252-77.008q-3.0003 2.7502-7.3757 2.7502t-7.3757-2.7502q-2.8753-2.8753-2.8753-7.1257t2.8753-7.0007q3.0003-2.8753 7.3757-2.8753t7.3757 2.8753q3.0003 2.7502 3.0003 7.0007t-3.0003 7.1257z" style="white-space:pre"/>
  <path d="m472.05 105.36q4.2505 5.2506 11.876 5.2506t11.752-5.2506q4.2505-5.2506 4.2505-14.626v-0.87509q0-9.3761-4.2505-14.626-4.1254-5.3755-11.752-5.3755-7.5008 0-11.752 5.2506-4.2505 5.1255-4.2505 14.501v1.0001q0 9.3761 4.1254 14.752zm11.752 19.002q-14.877 0-24.628-9.1256-9.7513-9.2513-9.7513-24.253v-1.0001q0-15.126 9.7513-24.502 9.7513-9.3761 24.753-9.3761t24.628 9.2513q9.7513 9.1256 9.7513 24.253v1.0001q0 15.252-9.7513 24.502-9.7513 9.2513-24.753 9.2513z" style="white-space:pre"/>
  <path d="m527.02 145.24v-87.634h18.126v10.251q2.8753-5.0005 8.3759-8.3759 5.6256-3.3753 12.501-3.3753 12.501 0 20.502 8.8759 8.0008 8.8759 8.0008 24.628v1.0001q0 15.752-8.0008 24.753-8.0008 9.0009-20.502 9.0009-7.2507 0-12.752-3.1253-5.5006-3.2503-8.1259-8.2508v32.253zm33.629-35.003q7.5008 0 11.501-5.0005 4.0003-5.0005 4.0004-14.501v-1.0001q0-9.6256-4.2505-14.626-4.2505-5.1255-11.376-5.1255-7.3757 0-11.752 5.1255-4.2505 5.0005-4.2505 14.626v1.0001q0 9.6256 4.2505 14.626 4.2505 4.8755 11.876 4.8755z" style="white-space:pre"/>
  <path d="m620.54 124.36q-9.6256 0-15.752-4.8755-6.1256-4.8755-6.1256-14.626 0-21.002 34.003-21.002h7.3757v-2.6253q0-6.1256-2.3752-9.0009-2.3753-3.0003-8.2508-3.0003-9.8761 0-11.126 9.2513h-17.126q0.75008-11.126 8.7509-16.752 8.0008-5.6262 20.628-5.6255 27.378 0 27.378 24.253v42.629h-17.626v-7.8758q-6.6256 9.2513-19.752 9.2513zm5.3755-12.626q6.1256 0 10.126-3.1253t4.0004-8.5008v-5.5006h-7.0007q-8.2508 0-12.501 2.1252-4.1254 2.1252-4.1254 7.1257 0 7.8758 9.5008 7.8758z" style="white-space:pre"/>
  <path d="m699.76 124.36q-14.752 0-24.253-8.7509-9.3761-8.8759-9.3761-24.502v-1.0001q0-15.377 9.6256-24.628 9.7513-9.3761 24.128-9.3761 12.501 0 21.002 6.1256 8.6259 6.1256 9.7513 19.252h-17.126q-1.8752-11.126-13.252-11.126-7.1257 0-11.376 5.1255-4.2505 5.1255-4.2505 14.377v1.0001q0 9.7513 4.1254 14.877 4.2505 5.0005 11.876 5.0005 5.6256 0 9.5008-3.2503t4.5005-9.3761h16.377q-0.75008 11.876-9.0009 19.126-8.2508 7.1257-22.252 7.1257z" style="white-space:pre"/>
  <path d="m768.62 124.36q-15.126 0-24.628-8.8759-9.5008-9.0009-9.5008-24.377v-1.0001q0-15.252 9.5008-24.628 9.6256-9.3761 24.128-9.3761 13.752 0 22.752 8.3759 9.1256 8.3758 9.1256 24.877v5.0005h-47.13q0.37504 8.1259 4.6255 12.626 4.2505 4.5005 11.626 4.5005 11.752 0 13.626-9.1256h17.126q-1.6252 10.626-9.7513 16.377-8.1259 5.6256-21.502 5.6256zm-15.501-41.129h29.253q-0.87509-14.626-14.252-14.626-6.1256 0-10.126 3.8754-3.8754 3.7504-4.8755 10.751z" style="white-space:pre"/>
 </g>
</svg>
