<svg width="593.83" height="593.82" version="1.1" viewBox="0 0 157.12 157.12" xmlns="http://www.w3.org/2000/svg">
 <g transform="translate(-19.773 -153.43)" fill="#fff">
  <g fill="#fff">
   <path transform="matrix(.26458 0 0 .26458 18.143 153.43)" d="m303.11-0.0039062c-163.84 0-296.95 133.15-296.95 296.91 0.0021 163.78 133.11 296.92 296.95 296.92 163.76 0 296.89-133.14 296.89-296.92 0-163.76-133.13-296.91-296.89-296.91zm0 29.904c147.59 0 266.99 119.41 266.99 267.01 0 147.62-119.4 267.03-266.99 267.03-147.68 0-267.04-119.41-267.04-267.03-4e-3 -147.6 119.36-267.01 267.04-267.01z" color="#000000" color-rendering="auto" image-rendering="auto" shape-rendering="auto" solid-color="#000000" style="font-feature-settings:normal;font-variant-alternates:normal;font-variant-caps:normal;font-variant-ligatures:normal;font-variant-numeric:normal;font-variant-position:normal;isolation:auto;mix-blend-mode:normal;shape-padding:0;text-decoration-color:#000000;text-decoration-line:none;text-decoration-style:solid;text-indent:0;text-transform:none;white-space:normal"/>
   <path d="m69.037 220.15c-1.937-0.07-3.047-0.13-4.971-0.01l0.013-25.97 4.352 0.02c3.729 0 4.97 4.69 4.966 10.88l-9e-3 3.42s0.31 11.8-4.351 11.66m1.889-35.92-15.851-0.01c-1.784 0-3.127 1.47-3.127 3.1l-0.026 39.19c0 1.77 2.081 2.8 3.106 2.8l18.504 0.02c9.526 0 11.242-14.67 11.517-17.09l9e-3 -9.64c-0.195-8.04-2.776-18.36-14.132-18.37"/>
   <path d="m91.512 184.24 20.528 0.02c2.94 0.16 2.64 2.09 2.63 5.6 0 2.68-0.22 4.02-2.34 4.04-2.27 0.04-5 0.12-12.12-0.01l-0.01 7.15c2.9 0.1 4.56 0 7.46 0.01 1.87 0 2.49 1.06 2.49 2.5l-0.01 4.97c0 1.37-1.42 2.18-2.79 2.18l-7.15-0.01-0.01 9.17c3.1 0.06 4.19 0 11.97 0.01 1.71 0 2.95 0.47 2.63 3.89 0 2.92 0.72 5.6-2.49 5.6l-20.826-0.03c-1.674 0-3.432-1.68-3.42-3.11l0.039-36.39c-0.259-3.93 0.86-5.59 3.419-5.59"/>
   <path d="m121.73 184.27 20.54 0.01c2.94 0.17 2.63 2.08 2.63 5.61 0 2.68-0.22 4-2.33 4.04-2.28 0.02-5.01 0.12-12.13-0.01v7.14c2.88 0.1 4.55 0.01 7.46 0.01 1.86 0 2.49 1.07 2.49 2.49v4.98c0 1.38-1.45 2.18-2.81 2.18l-7.15-0.01-0.01 9.17c3.11 0.06 4.2 0.01 11.96 0.02 1.73 0 2.96 0.46 2.63 3.88 0 2.92 0.74 5.59-2.47 5.59l-20.83-0.01c-1.68 0-3.43-1.68-3.43-3.11l0.04-36.39c-0.25-3.94 0.87-5.59 3.41-5.59"/>
   <path d="m68.501 235.43 6.81 0.01c2.627 0 2.627 3.08 2.474 5.57l-0.033 35.63c0 0.88-0.873 3.42-2.789 3.42l-20.156-0.01c-1.017-0.01-2.772-1.19-2.772-3.11v-10.54c5e-3 -1.67 1.627-3.41 3.738-3.41l3.712 0.01c1.546 0 3.398 0.87 3.398 2.78v3.12c0 0.7 0.093 1.53 1.546 1.53 1.212 0 1.556-0.52 1.556-1.53l0.029-25.73c4e-3 -2.98-0.597-7.74 2.487-7.74"/>
   <path d="m96.726 259.14c0.937-3.7 1.403-8.05 2.191-10.22 0.559 2.34 2.143 10.23 2.143 10.23zm15.494-2.91c-4.65-15.88-4.9-20.77-8.34-20.77l-10.544-0.01c-3.334 0-3.254 3.24-4.33 6.8l-9.017 35.65c0.148 1.17-0.132 0.83 0.915 2.16l9.288 0.01c2.233 0 2.335-2.02 3.572-6.35 0.466-2.32 1.246-4.8 1.246-4.8h8.36s0.54 3.55 1.24 6.34 1.11 4.83 2.96 4.83l9.29 0.01c1.05 0 1.55-0.66 1.55-1.87 0-2.29-0.51-2.82-6.19-22"/>
   <path d="m112.62 235.46 9.6 0.01c2.21 0 2.47 3.09 3.41 4.64 0 0 2 5.44 2.62 6.2 0.03-0.23 1.22-3.33 2.32-6.04 0.95-2.31 1.54-4.8 3.11-4.8l10.24 0.01c1.29 0 1.33 0.47 1.55 1.55l-11.5 23.85v16.44c0 1.02-1.18 2.78-3.11 2.78h-5.89c-1.39 0-3.1-1.84-3.1-3.72l0.02-15.5-11.29-23.72c0.15-1.55 0.9-1.7 2.02-1.7"/>
   <path d="m140.27 276.34v-1.31h0.88c0.45 0 0.92 0.09 0.92 0.62 0 0.65-0.48 0.69-1.03 0.69zm0 0.55h0.74l1.12 1.84h0.72l-1.21-1.87c0.63-0.08 1.1-0.41 1.1-1.18 0-0.82-0.49-1.2-1.5-1.2h-1.62v4.25h0.65zm0.79 3.37c1.99 0 3.69-1.53 3.69-3.67 0-2.11-1.7-3.66-3.69-3.66-2.03 0-3.74 1.55-3.74 3.66 0 2.14 1.71 3.67 3.74 3.67m-3-3.67c0-1.73 1.32-3.03 3-3.03 1.65 0 2.96 1.3 2.96 3.03 0 1.78-1.31 3.07-2.96 3.07-1.68 0-3-1.29-3-3.07"/>
  </g>
 </g>
</svg>
