<svg width="800" height="203.89" version="1.1" viewBox="0 0 800 203.89" xmlns="http://www.w3.org/2000/svg" xmlns:xlink="http://www.w3.org/1999/xlink">
 <defs>
  <polygon id="path-1" points="25.472 0.4982 25.472 53 0.42823 53 0.42823 0.4982"/>
  <polygon id="path-3" points="206 54 206 1 0 1 0 54"/>
  <mask id="mask-4" fill="#ffffff">
   <use width="100%" height="100%" xlink:href="#path-3"/>
  </mask>
  <mask id="mask-2" fill="#ffffff">
   <use width="100%" height="100%" xlink:href="#path-1"/>
  </mask>
 </defs>
 <g fill="#cf2639" fill-rule="evenodd">
  <path transform="matrix(3.8835,0,0,3.8835,77.67,-1.9348)" d="m25.472 33.275v6.8193c0 8.2126-4.2758 12.906-12.521 12.906-8.2467 0-12.522-4.6929-12.522-12.906v-26.691c0-8.2121 4.2752-12.905 12.522-12.905 8.2455 0 12.521 4.6934 12.521 12.905v4.9861h-7.9406v-5.499c0-3.667-1.68-5.0597-4.352-5.0597s-4.352 1.3927-4.352 5.0597v27.717c0 3.6664 1.68 4.9861 4.352 4.9861s4.352-1.3197 4.352-4.9861v-7.3328z" mask="url(#mask-2)"/>
  <path d="m220.3 1.9487h48.719l33.895 201.94h-33.592l-26.326-166.17-26.023 166.17h-30.563z" stroke-width="3.8835"/>
  <path d="m609.2 203.89 26.019-166.17 26.33 166.17h33.592l-33.903-201.94h-48.699l-33.903 201.94z" stroke-width="3.8835"/>
  <path d="m351.2 30.798v68.373h15.486c10.423 0 16.081-4.6175 16.081-19.042v-30.29c0-14.427-5.6583-19.042-16.081-19.042zm64.33 21.06v26.252c0 32.311-16.083 49.911-48.843 49.911h-15.486v75.872h-32.759v-201.94h48.245c32.759 0 48.843 17.601 48.843 49.911z" stroke-width="3.8835"/>
  <path transform="matrix(3.8835,0,0,3.8835,0,-1.9348)" d="m113 1v52h8v-52z" mask="url(#mask-4)"/>
  <path transform="matrix(3.8835,0,0,3.8835,0,-1.9348)" d="m142.21 8.4287v44.571h-8.42v-44.571h-8.79v-7.4287h26v7.4287z" mask="url(#mask-4)"/>
  <path transform="matrix(3.8835,0,0,3.8835,0,-1.9348)" d="m206 45.571v7.429h-22v-52h8.32v44.571z" mask="url(#mask-4)"/>
  <path transform="matrix(3.8835,0,0,3.8835,0,-1.9348)" d="m2.0004 48.427h4.3001v-1.0052c0-0.9593-0.36007-1.5447-1.4798-1.5447h-1.3807c-0.9993 0-1.4397 0.3981-1.4397 1.3103zm12-2.8066c-0.36007 0.14015-0.58024 0.23378-1.72 0.23378h-2.1993c-1.301 0-1.7809 0.51469-1.7809 1.6842v0.88862h5.7002v2.5734h-14v-3.8831c0-2.6665 1.0601-3.8124 3.2205-3.8124h1.0997c1.4397 0 2.38 0.53764 2.8398 1.6842 0.46042-1.2867 1.5199-1.7084 2.9803-1.7084h2.1598c0.67999 0 1.1806-0.02356 1.7-0.2803z" mask="url(#mask-4)"/>
  <path transform="matrix(3.8835,0,0,3.8835,0,-1.9348)" d="m0 38.382v-3.764l14-2.618v2.595l-11.52 2.034 11.52 2.01v2.361z" mask="url(#mask-4)"/>
  <path transform="matrix(3.8835,0,0,3.8835,0,-1.9348)" d="m2.0004 25.397h9.9997v-1.4676c0-0.82885-0.36007-1.3258-1.36-1.3258h-7.2798c-0.99991 0-1.36 0.49694-1.36 1.3258zm-2.0004 2.6033v-4.1186c0-2.6033 1.2201-3.8814 3.4602-3.8814h7.0797c2.2401 0 3.4602 1.2781 3.4602 3.8814v4.1186z" mask="url(#mask-4)"/>
  <path transform="matrix(3.8835,0,0,3.8835,0,-1.9348)" d="m0 14v3h14v-3z" mask="url(#mask-4)"/>
  <path transform="matrix(3.8835,0,0,3.8835,0,-1.9348)" d="m10.695 8.3655c0.97762 0 1.3493-0.52764 1.3493-1.3652 0-0.83878-0.37166-1.3658-1.3493-1.3658h-7.391c-0.97821 0-1.3493 0.52702-1.3493 1.3658 0 0.83755 0.37107 1.3652 1.3493 1.3652zm-7.2542 2.6345c-2.1901 0-3.4413-1.4128-3.4413-3.9997 0-2.5875 1.2512-4.0003 3.4413-4.0003h7.1174c2.1901 0 3.4413 1.4128 3.4413 4.0003 0 2.5869-1.2512 3.9997-3.4413 3.9997z" mask="url(#mask-4)"/>
 </g>
</svg>
