<svg width="1608.6" height="578.6" space="preserve" version="1.1" viewBox="0 0 1608.6 578.6" xmlns="http://www.w3.org/2000/svg">
 <link href="" rel="stylesheet" type="text/css"/>
 <style type="text/css"/>
 <style type="text/css">.st0{fill:#FF8D00;}
	.st1{fill:#FFFFFF;}</style>
 <path class="st0" d="m0 0v578.6h578.4v-578.6z" fill="#ff8d00"/>
 <g fill="#fff">
  <path class="st1" d="m367.1 155c-9.3-33.7-24.6-61.1-65.9-72-1.2-0.3-2.6-1.1-3.6-1.5-0.6-0.2-1-0.8-1-1.4v-10.6c0-0.8 0.7-1.5 1.5-1.5l9.2-0.1c0.8 0 1.5-0.7 1.5-1.5v-13.1c0-0.8-0.7-1.5-1.5-1.5h-9.2c-0.8 0-1.5-0.7-1.5-1.5v-8.1c0-0.8-0.7-1.5-1.5-1.5h-12.6c-0.8 0-1.5 0.7-1.5 1.5v8.1c0 0.8-0.7 1.5-1.5 1.5h-8.6c-0.8 0-1.5 0.7-1.5 1.5v13.2c0 0.8 0.7 1.5 1.5 1.5h8.7c0.8 0 1.5 0.7 1.5 1.5v10.6c0 0.6-0.4 1.2-0.9 1.4-0.9 0.4-2 1.1-2.7 1.3-34.5 9-62.7 37.6-67.3 72.5 53.1-11.1 104.8-10.1 156.9-0.3z"/>
  <path class="st1" d="m243.8 259.9c30 0.1 59.9 0.1 89.9 0 1.4 0 3.5-0.9 4-2 4.7-11.7 9.1-23.4 14-36.3-42.2-6.9-83.2-6.9-125.5 0 4.9 12.9 9.2 24.5 13.7 36.1 0.5 1.1 2.5 2.2 3.9 2.2z"/>
  <path class="st1" d="m478.8 266.6-10.2 10.2-12.2-12.2 10.2-10.2-10.6-10.5 12.8-12.8 10.5 10.5 10.2-10.2 12.2 12.2-10.2 10.2 23 23c9.7-9.8 19.6-19.8 23.7-23.9-21.6-21.4-43.3-42.8-65-64.3 2.3-2.5 4.1-4.6 5.8-6.4-5.1-5.3-9.9-10.2-15-15.5-3 2.8-5.9 5.5-9.3 8.8-4.3-8.3-10.1-14.1-17.9-17.7-24-11.3-55-4.2-71.4 16.6-1.9 2.4-3.5 2.6-6.3 2.2-24.1-4.2-48.5-8-73-6.8-22.6 1.1-45 4.5-67.5 6.7-1.5 0.1-3.8-0.2-4.6-1.2-11-14.3-25.8-21.5-43.4-22.4-19.1-1-36.2 3.4-46.4 21.9-0.2 0.3-0.8 0.5-1.3 0.8l-9.3-8.7c-5.3 5.2-10.2 9.9-15.3 14.9 2.2 2.5 4.1 4.7 6.7 7.7-21.6 21.4-64.4 63.9-64.4 63.9l22.7 23 22.5-22.5-10.2-10.2 12.2-12.2 10.2 10.2 10.5-10.5 12.8 12.8-10.5 10.5 10.2 10.2-12.2 12.2-10.2-10.2-22.6 22.5 23.8 24.1s42.8-43.2 64.5-65.1c1.7 1.6 3 2.9 4.7 4.6-4.9 5.5-9.5 10.8-14.2 15.9-13.3 14.6-25.5 30-32.6 48.7-12.7 33.8 0.4 63.7 33.7 77.4 0.9 0.4 1.8 1 3 1.7-47.3 16.3-61 66.5-43.3 101.3 18.5 36.6 62.5 50.8 98 32.3 35.6-18.6 52.9-66 25.9-106.3 16.6-16.7 33.1-33.3 49.4-49.6 16.4 16.3 32.9 32.8 49.6 49.3-26.1 38.4-10.9 85 22 104.5 31.9 18.9 74.5 10.4 95.7-20 13.9-20 17.3-41.9 9.6-65.1-7.6-23.1-24-37.8-47.5-46.5 11.3-3.6 20.3-8.6 27.4-16.4 17.6-19.2 19.5-41.1 10-64.5-7.2-17.7-18.9-32.4-31.6-46.4-4.9-5.4-9.6-10.9-14.6-16.5 1.7-1.6 2.9-2.7 4.1-3.9 0.7 0.6 1.3 0.9 1.7 1.4 19.5 19.6 39.1 39.1 58.6 58.7 2.4 2.4 4.7 4.6 4.7 4.6s2.3-2.1 4.5-4.4l8.1-8.1c1.1-1.2 5.3-5.4 10.7-10.9zm-104.7-83.5c6.4-10.2 16.6-13.8 26.1-10.8-3.9 5.4-9.1 10.6-11.9 16.8-5.2 11.6-3.9 24.1-2.3 36.4 0.1 1 1.7 6 2.1 6.8 5.5 10.9-11.8 24.3-13.8 25.9-8.1-24.9-15.2-51.2-0.2-75.1zm2.5 102.7c3.4 4.8 6.9 10 10.7 15 6.9 9.2 14.4 17.9 20.9 27.4 5.3 7.7 8.1 16.4 5.4 26-1.9 6.8-3.7 7.7-10.2 5.2-15.7-6.1-27.5-17.3-38.3-29.6-5-5.7-9.5-12-14.5-18.3 8.9-8.8 17.3-17.1 26-25.7zm-35 35c7.8 9 14.9 18.5 23.4 26.6 8.3 8 17.8 14.6 26.7 21.7-28.7 3-46.8-14.5-63.3-34.4 4.7-5.1 9.1-9.6 13.2-13.9zm-14.8-17c-3.8 3.9-7.6 7.8-12.2 12.5-5.4-9.1-10.4-17.5-15.7-26.5 7.2-1.3 13.6-2.5 19.9-3.3 1.2-0.2 3.2 0.9 3.9 2 2.5 3.9 4.5 8.1 6.8 12.2-1 1.1-1.8 2.2-2.7 3.1zm-112.8-40.8c8.5-20.1 12.9-40.9 9.9-63.8 43.6-6.7 86.8-6.7 130.6 0.1-2.9 22.7 1.4 43.1 9.7 62.9 0.5 1.3 0.2 3.7-0.7 4.7-7.8 8.4-15.8 16.7-24.5 25.8-3.3-6.3-6.2-11.1-8.4-16.1-1.4-3.2-2.8-4.5-6.7-3.6-7.9 1.8-16 2.8-24 4.3-14 2.6-27.4-1.3-41-3.3-1.6-0.2-3.3-0.4-4.9-1-3.1-1.2-4.4 0.3-5.6 2.9-2.6 5.4-5.4 10.6-8.5 16.6-1.9-1.8-3.4-3.2-4.9-4.7-6.5-6.5-13.1-12.8-19.3-19.5-1.3-1.2-2.3-4-1.7-5.3zm65.6 26.7c-5.3 9-10.4 17.6-16.1 27.3-3.9-4.2-6.6-7.9-10.1-10.6-4.8-3.7-4.2-7-1.3-11.6 5.5-8.9 5.3-9 15.5-7.3 3.6 0.8 7.4 1.4 12 2.2zm-43.6 31.2c4.7 4.7 9 9.1 13.4 13.5-8.5 20.2-42.2 38.6-64.1 33.9 21.8-11.1 36.9-28.6 50.7-47.4zm-62.4 39.2c-4.4 1.7-6.4 0.2-7.9-3.6-3.2-8.2-2-16.1 2-23.6 2.8-5.2 6.4-10.1 10-14.9 7.9-10.5 16-20.8 24.7-32 7.8 7.9 15.7 15.8 23.4 23.8 0.6 0.7 0.8 2.7 0.3 3.4-13.9 19.7-29.2 37.7-52.5 46.9zm31.2-176.7c8.3 12.2 9.5 25.9 7.5 39.8-1.5 10.4-5.1 20.6-7.8 30.8-0.2 0.6-0.8 1-2 2.6-4.2-4.7-8.4-9-12.1-13.6-0.9-1.2-1-3.7-0.5-5.3 3.3-11.5 4.5-23.2 3.6-35.1-0.9-12.2-5.1-22.7-17-29.7 11.4-3.7 21.3 0.3 28.3 10.5zm-66.7-7.8c4.4-5.5 12.2-9.3 22.4-10.1-10.9 7-16.4 16.5-19.8 27.5-8.6-6.8-8.9-9.4-2.6-17.4zm13.7 28.9c-0.6-0.6-0.9-2-0.7-2.7 2.3-6 4.6-12 7.4-17.7 0.7-1.4 3.9-2.6 5.7-2.3 6.7 0.9 11.8 4.5 14.4 10.8 5.1 12.6 3 25.2 0.3 39.5-9.8-10-18.5-18.8-27.1-27.6zm-6.9 169.8c-14.1-12.2-18.5-27.9-13.4-46 4.7-16.8 14.4-30.6 25.5-43.6 6.6-7.7 13.4-15.2 20.2-22.8 5 5.1 9.9 10.1 15.8 16.1-7.7 10.2-15.6 21-24 31.5-7.5 9.5-14.5 19.1-16.4 31.4-3.1 20.2 7.5 35.5 27.7 39.3 5.2 1 10.5 1.1 17 1.8-19.8 7.2-37.2 5.4-52.4-7.7zm35 140.2c-27-0.2-48.4-22.2-48.3-49.4 0.2-26.7 22.1-48.2 49-48.1 26.7 0.1 49.1 22.4 48.8 48.6-0.3 27.4-22.3 49.1-49.5 48.9zm42.4-108.4c-7.3-3.4-15.4-7.2-24.3-11.4 27.1-9.1 43.8-30.4 60.6-51.7 4.9 5.1 9.2 9.6 13.2 13.8-16.2 16.2-32.8 32.7-49.5 49.3zm66.2-65.5c-4.7-4.9-9.9-10.2-15.5-16 5.2-8.6 10.6-17.6 16.2-26.9 5.5 9.1 10.8 17.9 16.1 26.8-5.6 5.4-11.2 10.7-16.8 16.1zm16.7 16.3c4.5-4.1 9.3-8.6 14.5-13.4 3.2 3.6 7 7.5 10.3 11.8 12.9 17 28.2 30.9 48.4 38.7 0.5 0.2 1 0.6 1.3 0.9-8.5 4-16.8 7.8-25.1 11.7-16.2-16.4-32.7-32.9-49.4-49.7zm141.2 108.4c0.2 26.6-21.7 48.9-48.2 49.2-26.8 0.2-49.2-21.1-49.5-47.1-0.3-28.3 20.7-50.1 48.7-50.4 26.4-0.2 48.8 21.8 49 48.3zm-0.9-142c6.6 18.2 4.5 35-9.6 48.8-15 14.7-33.1 17.3-52.7 10.5-0.4-0.1-0.7-0.5-0.6-0.4 6.7-1.1 14-1.3 20.6-3.5 20-6.6 28.6-24.9 20.9-45.2-2.7-7.2-7.2-13.8-11.6-20.2-7.9-11.3-16.4-22.2-24.8-33.2-2.2-2.8-1.8-4.7 0.8-7.1 4.1-3.8 7.8-8.1 11.9-12.4 17.3 20.1 36.2 37.9 45.1 62.7zm-25.7-112.4c-6.4 6.5-12.6 13.2-18.8 19.8-0.6-0.3-1.1-0.7-1.7-1-2.6-11.7-3.6-23.5-0.2-35.2 0.9-3.1 3.1-6.6 5.7-8.4 10.5-7.2 14.3-6.8 18.9 4.2 5 11.6 5 11.5-3.9 20.6zm17.9-18.6c-3.8-10.7-9-20-18.3-26.5 9.2 0.9 17.2 3.9 22.3 11.9 4.6 7 4.3 7.7-4 14.6z"/>
 </g>
 <g fill="#fff">
  <path d="m660.5 43.8h44.4c3.8 0 7.1 0.1 10 0.3 2.8 0.2 5.4 0.5 7.5 0.8 2.2 0.4 4.1 0.8 5.8 1.3s3.3 1 4.7 1.7c3.5 1.6 6.7 3.6 9.5 6.1s5.1 5.4 7.1 8.7c1.9 3.3 3.4 7 4.5 11 1 4 1.6 8.3 1.6 12.8 0 5.1-0.7 9.8-2 14.2-1.4 4.4-3.3 8.4-5.8 11.9s-5.5 6.5-9 9-7.3 4.3-11.6 5.5v0.4c0.3 0.4 0.7 0.9 1 1.5s0.7 1.2 1.2 1.9 1 1.6 1.6 2.6l32.6 60.4h-16.9l-33.7-63.3h-37.8v63.1h-14.7zm50.3 73.6c4.5 0 8.6-0.7 12.3-2.1s6.8-3.5 9.4-6.1 4.5-5.8 5.9-9.6c1.4-3.7 2.1-8 2.1-12.7 0-6.2-1.2-11.6-3.5-16-2.4-4.4-5.7-7.8-10.1-10.2-1.1-0.6-2.3-1.1-3.6-1.5-1.3-0.5-2.8-0.8-4.4-1.1-1.7-0.3-3.6-0.6-5.7-0.7-2.2-0.2-4.7-0.3-7.6-0.3h-30.3v60.4h35.5z"/>
  <path d="m862.1 146h-60.4l-17.1 47.8h-15.5l55-149.9h15.8l55 149.9h-15.6zm-30.3-86.6c-0.6 2.4-1.3 4.8-2 7.1-0.6 2-1.2 4.1-1.9 6.4-0.7 2.2-1.4 4.2-2 5.9l-20 54.4h51.6l-19.7-54.4c-0.6-1.7-1.3-3.7-2-5.9s-1.3-4.3-1.9-6.4c-0.7-2.3-1.3-4.6-1.9-7.1h-0.2z"/>
  <path d="m913 43.8h48.4c11.2 0 21.5 1.7 30.7 5 9.2 3.4 17.2 8.2 23.8 14.6s11.7 14.2 15.4 23.5c3.6 9.3 5.4 19.8 5.4 31.7s-1.8 22.6-5.4 31.9-8.7 17.2-15.4 23.6c-6.6 6.4-14.6 11.3-23.8 14.6s-19.5 5-30.7 5h-48.4zm46.9 136.7c9.2 0 17.6-1.3 25.2-4s14-6.6 19.4-11.9c5.3-5.2 9.5-11.7 12.4-19.4s4.4-16.6 4.4-26.6-1.5-18.8-4.4-26.5c-3-7.7-7.1-14.1-12.5-19.3-5.4-5.1-11.9-9.1-19.4-11.8-7.6-2.7-15.9-4-25.1-4h-32.2v123.5z"/>
  <path d="m1064.5 43.8h14.7v149.9h-14.7z"/>
  <path d="m1106.1 117.8c0-7.1 0.9-14 2.7-20.6s4.4-12.7 7.7-18.4 7.3-10.8 11.9-15.4 9.8-8.6 15.4-11.9c5.7-3.3 11.7-5.8 18.3-7.6 6.5-1.8 13.3-2.7 20.4-2.7s13.9 0.9 20.4 2.7 12.6 4.3 18.2 7.6c5.7 3.3 10.8 7.3 15.5 11.9 4.6 4.6 8.6 9.8 11.9 15.4 3.3 5.7 5.8 11.8 7.7 18.4 1.8 6.6 2.7 13.5 2.7 20.6 0 7.4-0.9 14.4-2.7 21.1s-4.4 13-7.7 18.8-7.3 11.1-11.9 15.9c-4.7 4.8-9.8 8.8-15.5 12.2s-11.7 6-18.2 7.8-13.3 2.8-20.4 2.8-13.9-0.9-20.4-2.8c-6.5-1.8-12.6-4.4-18.3-7.8s-10.8-7.4-15.4-12.2-8.6-10-11.9-15.9c-3.3-5.8-5.8-12.1-7.7-18.8-1.8-6.8-2.7-13.8-2.7-21.1zm15.3 0c0 9.2 1.6 17.7 4.7 25.6 3.2 7.9 7.5 14.8 13 20.6s12 10.4 19.4 13.7 15.4 5 23.8 5c5.6 0 11-0.7 16.2-2.2s10-3.6 14.6-6.4c4.5-2.8 8.7-6.1 12.4-10s6.9-8.3 9.5-13.1 4.7-10 6.1-15.6c1.5-5.6 2.2-11.4 2.2-17.5 0-9-1.6-17.3-4.8-24.9-3.2-7.7-7.5-14.3-13.1-19.9-5.5-5.6-12-10-19.4-13.2s-15.3-4.8-23.7-4.8c-8.5 0-16.4 1.6-23.8 4.8s-13.9 7.6-19.4 13.2-9.9 12.3-13 19.9-4.7 15.9-4.7 24.8z"/>
  <path d="m641.4 222.4h15.7l41.5 113.9c0.7 1.9 1.4 4 2.1 6.3s1.3 4.4 1.9 6.3c0.7 2.3 1.3 4.5 1.9 6.8h0.4c0.6-2.2 1.2-4.5 1.9-6.8 0.6-1.9 1.2-4 1.8-6.3 0.7-2.3 1.3-4.4 2-6.3l41.6-113.9h15.8l-55.6 149.9h-15.4z"/>
  <path d="m856.7 324.5h-60.4l-17.1 47.8h-15.5l55-149.9h15.8l55 149.9h-15.6zm-30.2-86.5c-0.6 2.4-1.3 4.8-2 7.1-0.6 2-1.2 4.1-1.9 6.4-0.7 2.2-1.4 4.2-2 5.9l-20 54.4h51.6l-19.7-54.4c-0.6-1.7-1.3-3.7-2-5.9s-1.3-4.3-1.9-6.4c-0.7-2.3-1.3-4.6-1.9-7.1z"/>
  <path d="m936.7 235.6h-53.9v-13.2h122.4v13.2h-53.7v136.7h-14.8z"/>
  <path d="m1022 222.4h14.7v149.9h-14.7z"/>
  <path d="m1063.8 296.4c0-7.2 0.9-14.1 2.6-20.8 1.7-6.6 4.2-12.8 7.4-18.4 3.2-5.7 7-10.8 11.6-15.4 4.5-4.6 9.6-8.5 15.1-11.8 5.6-3.3 11.6-5.8 18.1-7.5 6.5-1.8 13.3-2.7 20.5-2.7 4.4 0 8.6 0.3 12.5 0.8 3.9 0.6 7.6 1.3 10.9 2.2 3.4 0.9 6.5 1.9 9.3 3.1s5.4 2.4 7.7 3.5c5.3 2.8 9.8 6.1 13.5 9.7l-7.9 10.8c-3.5-3.1-7.6-5.8-12.3-8.2-4-2.1-8.7-4-14.3-5.7s-11.9-2.6-19-2.6c-8.8 0-16.9 1.6-24.3 4.8s-13.8 7.7-19.1 13.3-9.5 12.3-12.5 19.9-4.5 15.9-4.5 24.7c0 9 1.5 17.4 4.5 25.3s7.2 14.8 12.5 20.7c5.4 5.9 11.8 10.5 19.3 14 7.5 3.4 15.6 5.2 24.5 5.2 3.7 0 7.3-0.3 10.8-0.8 3.4-0.6 6.6-1.3 9.6-2.2s5.8-2 8.3-3.2c2.6-1.2 4.9-2.4 7-3.7 4.9-2.9 9.2-6.3 12.9-10.1l8.5 10.4c-4.2 4.4-9.2 8.3-14.9 11.7-2.4 1.5-5.2 2.9-8.2 4.3s-6.3 2.6-9.8 3.7-7.4 2-11.5 2.7-8.4 1-13 1c-7.4 0-14.4-0.9-21-2.8-6.6-1.8-12.7-4.5-18.3-7.9s-10.7-7.5-15.2-12.2c-4.5-4.8-8.3-10-11.5-15.9-3.2-5.8-5.6-12.1-7.3-18.8-1.6-6.8-2.5-13.8-2.5-21.1z"/>
  <path d="m1296.7 324.5h-60.4l-17.1 47.8h-15.5l55-149.9h15.8l55 149.9h-15.6zm-30.3-86.5c-0.6 2.4-1.3 4.8-2 7.1-0.6 2-1.2 4.1-1.9 6.4-0.7 2.2-1.4 4.2-2 5.9l-20 54.4h51.6l-19.7-54.4c-0.6-1.7-1.3-3.7-2-5.9s-1.3-4.3-1.9-6.4c-0.7-2.3-1.3-4.6-1.9-7.1z"/>
  <path d="m1347.7 222.4h14.3l76.5 108c1.2 1.9 2.6 4 4.1 6.3s2.8 4.5 4.1 6.6c1.5 2.4 2.9 4.9 4.3 7.3h0.4l-0.6-7.2c-0.1-2-0.3-4.2-0.4-6.5s-0.2-4.5-0.2-6.5v-108h14.7v149.9h-14.3l-76.5-107.9c-1.3-1.9-2.7-4-4.1-6.3s-2.8-4.5-4-6.6c-1.5-2.4-2.9-4.9-4.3-7.4h-0.4l0.6 7.2c0.1 2 0.3 4.2 0.4 6.6s0.2 4.5 0.2 6.6v107.9h-14.7z"/>
  <path d="m1575.8 324.5h-60.4l-17.1 47.8h-15.5l55-149.9h15.8l55 149.9h-15.6zm-30.3-86.5c-0.6 2.4-1.3 4.8-2 7.1-0.6 2-1.2 4.1-1.9 6.4-0.7 2.2-1.4 4.2-2 5.9l-20 54.4h51.6l-19.7-54.4c-0.6-1.7-1.3-3.7-2-5.9s-1.3-4.3-1.9-6.4c-0.7-2.3-1.3-4.6-1.9-7.1z"/>
  <path d="m660.5 401h14.7v149.9h-14.7z"/>
  <path d="m746 414.2h-54v-13.2h122.4v13.2h-53.7v136.7h-14.7z"/>
  <path d="m900.6 503.1h-60.4l-17.1 47.8h-15.5l55-149.9h15.8l55 149.9h-15.6zm-30.3-86.5c-0.6 2.4-1.3 4.8-2 7.1-0.6 2-1.2 4.1-1.9 6.4-0.7 2.2-1.4 4.2-2 5.9l-20 54.4h51.6l-19.7-54.4c-0.6-1.7-1.3-3.7-2-5.9s-1.3-4.3-1.9-6.4c-0.7-2.3-1.3-4.6-1.9-7.1z"/>
  <path d="m951.6 401h14.7v136.7h69.6v13.2h-84.2v-149.9z"/>
  <path d="m1055.7 401h14.7v149.9h-14.7z"/>
  <path d="m1181.5 503.1h-60.4l-17.1 47.8h-15.5l55-149.9h15.8l55 149.9h-15.6zm-30.3-86.5c-0.6 2.4-1.3 4.8-2 7.1-0.6 2-1.2 4.1-1.9 6.4-0.7 2.2-1.4 4.2-2 5.9l-20 54.4h51.6l-19.7-54.4c-0.6-1.7-1.3-3.7-2-5.9s-1.3-4.3-1.9-6.4c-0.7-2.3-1.3-4.6-1.9-7.1z"/>
 </g>
</svg>
