<svg width="1670.8" height="837" enable-background="new 0 0 400.4 200.4" space="preserve" version="1.1" viewBox="0 0 1670.8 837" xmlns="http://www.w3.org/2000/svg">
 <defs>
  <linearGradient id="linearGradient4623" x1="1297.1" x2="1697.5" y1="371.25" y2="371.25" gradientTransform="matrix(2.0188 -.54094 .54094 2.0188 -767.07 88.659)" gradientUnits="userSpaceOnUse">
   <stop stop-color="#aed071" offset="0"/>
   <stop stop-color="#f0f3d6" offset="1"/>
  </linearGradient>
  <linearGradient id="linearGradient4623-5" x1="1297.1" x2="1551.2" y1="371.25" y2="564.09" gradientTransform="matrix(1.8138 -.486 .486 1.8138 -439.71 36.669)" gradientUnits="userSpaceOnUse">
   <stop stop-color="#87c558" offset="0"/>
   <stop stop-color="#a6d064" offset="1"/>
  </linearGradient>
  <linearGradient id="linearGradient4623-3" x1="1297.1" x2="1697.5" y1="371.25" y2="371.25" gradientTransform="matrix(-2.0188 .54094 -.54094 -2.0188 5680 -32.251)" gradientUnits="userSpaceOnUse">
   <stop stop-color="#a6d054" offset="0"/>
   <stop stop-color="#aed071" offset="1"/>
  </linearGradient>
  <linearGradient id="linearGradient4623-3-2" x1="1297.1" x2="1697.5" y1="371.25" y2="371.25" gradientTransform="matrix(-1.8138 .486 -.486 -1.8138 5352.6 -71.962)" gradientUnits="userSpaceOnUse">
   <stop stop-color="#75c04a" offset="0"/>
   <stop stop-color="#87c558" offset="1"/>
  </linearGradient>
  <linearGradient id="linearGradient4623-5-9" x1="1551.2" x2="1697.5" y1="564.09" y2="371.25" gradientTransform="matrix(1.8138 -.486 .486 1.8138 -439.71 36.669)" gradientUnits="userSpaceOnUse">
   <stop stop-color="#8bc756" offset="0"/>
   <stop stop-color="#a2d183" offset="1"/>
  </linearGradient>
  <linearGradient id="linearGradient4623-5-3" x1="1297.1" x2="1551.2" y1="371.25" y2="564.09" gradientTransform="matrix(1.2832 -.34382 .34382 1.2832 407.58 20.779)" gradientUnits="userSpaceOnUse">
   <stop stop-color="#60ba72" offset="0"/>
   <stop stop-color="#8bc24d" offset="1"/>
  </linearGradient>
  <linearGradient id="linearGradient4897" x1="2199.6" x2="2387.6" y1="51.182" y2="-274.52" gradientUnits="userSpaceOnUse">
   <stop stop-color="#60ba72" offset="0"/>
   <stop stop-color="#8bcb99" offset="1"/>
  </linearGradient>
 </defs>
 <link href="" rel="stylesheet" type="text/css"/>
 <style type="text/css"/>
 <g transform="translate(-1204.1 436.15)">
  <g transform="translate(0 -45.851)" stroke-width="4.6385">
   <path d="m2860.6-80.085c59.806 223.2-72.651 452.62-295.85 512.43-223.2 59.806-452.62-72.651-512.43-295.85z" fill="url(#linearGradient4623)"/>
   <path d="m2052.3 136.49c-59.806-223.2 72.65-452.62 295.85-512.43 223.2-59.806 452.62 72.651 512.43 295.85z" fill="url(#linearGradient4623-3)"/>
  </g>
  <path d="m2819.6-114.94c53.733 200.53-65.273 406.66-265.81 460.39-200.53 53.733-406.66-65.273-460.39-265.81z" fill="url(#linearGradient4623-5)" stroke-width="4.1675"/>
  <path d="m2093.4 79.646c-53.733-200.53 65.273-406.66 265.81-460.39 200.53-53.733 406.66 65.273 460.39 265.81z" fill="url(#linearGradient4623-3-2)" stroke-width="4.1675"/>
  <path d="m2819.6-114.94c44.653 166.65-29.987 337.16-171.57 420.86l-191.52-323.57z" fill="url(#linearGradient4623-5-9)" stroke-width="4.1675"/>
  <path d="m2713.3-86.475c38.013 141.87-46.177 287.69-188.04 325.7-141.87 38.013-287.69-46.177-325.7-188.04z" fill="url(#linearGradient4623-5-3)" stroke-width="2.9483"/>
  <path d="m2199.6 51.182c-38.013-141.87 46.177-287.69 188.04-325.7 141.87-38.013 287.69 46.177 325.7 188.04z" fill="url(#linearGradient4897)" stroke-width="2.9483"/>
  <path d="m2713.3-86.475c31.59 117.89-21.214 238.52-121.38 297.74l-135.49-228.91z" fill="#53a751" stroke-width="2.9483"/>
  <path d="m2387.6-274.52c141.87-38.013 287.69 46.177 325.7 188.04l-256.87 68.829z" fill="#44a148" stroke-width="2.9483"/>
 </g>
 <g transform="matrix(2.088 0 0 2.088 0 .90668)" fill="#010101" stroke-width="1.9979">
  <path d="m73.322 201.63c15.384-6.7928 23.974-20.778 23.974-39.358 0-27.571-18.181-43.953-48.349-43.953h-45.352c-1.9979 0-3.5962 1.5983-3.5962 3.5962v134.86c0 1.9979 1.5983 3.5962 3.5962 3.5962h21.177c1.9979 0 3.5962-1.5983 3.5962-3.5962v-50.546h14.984l36.561 52.744c0.59936 0.99893 1.7981 1.5983 2.9968 1.5983h24.973c1.9979 0 3.5962-1.5983 3.5962-3.5962 0-0.79915-0.19978-1.3985-0.59936-2.1977zm-44.752-57.539h20.179c13.186 0 19.979 6.1934 19.979 18.181 0 12.187-6.7928 18.181-19.979 18.181h-20.179z"/>
  <path d="m211.97 155.08h-18.181c-1.9979 0-3.5962 1.5983-3.5962 3.5962l-0.19979 5.1945c-8.9904-7.3921-20.378-11.388-32.166-11.388-28.37 0-50.546 24.374-50.546 55.341s22.176 55.341 50.546 55.341c11.787 0 22.976-3.9958 32.166-11.388l0.19979 5.1945c0 1.9979 1.5983 3.5962 3.5962 3.5962h18.181c1.9979 0 3.5962-1.5983 3.5962-3.5962v-98.295c0-1.9979-1.5983-3.5962-3.5962-3.5962zm-49.947 83.711c-15.983 0-26.971-12.786-26.971-30.967s11.188-30.967 26.971-30.967c15.983 0 26.971 12.786 26.971 30.967s-11.188 30.967-26.971 30.967z"/>
  <path d="m331.85 118.32h-20.378c-1.9979 0-3.5962 1.5983-3.5962 3.5962v40.157c-8.7906-6.3932-19.18-9.7896-29.968-9.7896-28.37 0-50.546 24.374-50.546 55.341s22.176 55.341 50.546 55.341c11.787 0 22.976-3.9958 32.166-11.388l0.19979 5.1945c0 1.9979 1.5983 3.5962 3.5962 3.5962h18.181c1.9979 0 3.5962-1.5983 3.5962-3.5962v-134.66c0-1.9979-1.7981-3.796-3.796-3.796zm-49.947 120.47c-15.983 0-26.971-12.786-26.971-30.967s11.188-30.967 26.971-30.967c15.983 0 26.971 12.786 26.971 30.967s-10.988 30.967-26.971 30.967z"/>
  <path d="m356.22 155.08h20.378c1.9979 0 3.5962 1.5983 3.5962 3.5962v98.096c0 1.9979-1.5983 3.5962-3.5962 3.5962h-20.378c-1.9979 0-3.5962-1.5983-3.5962-3.5962v-98.096c0-1.9979 1.5983-3.5962 3.5962-3.5962z"/>
  <path d="m447.92 151.68c-32.565 0-57.139 24.174-57.139 56.34 0 31.966 24.574 56.14 57.139 56.14 32.366 0 56.939-24.174 56.939-56.14 0-32.166-24.374-56.34-56.939-56.34zm0 87.906c-17.382 0-29.369-12.986-29.369-31.766s12.187-31.766 29.369-31.766 29.169 12.986 29.169 31.766-11.987 31.766-29.169 31.766z"/>
  <path d="m380.99 132.9a14.584 14.584 0 0 1-14.584 14.584 14.584 14.584 0 0 1-14.584-14.584 14.584 14.584 0 0 1 14.584-14.584 14.584 14.584 0 0 1 14.584 14.584z"/>
 </g>
 <g transform="matrix(2.088 0 0 2.088 0 .90668)" fill="#fff" stroke-width="1.9979">
  <path d="m590.37 195.84c3.3964-3.1966 6.7928-6.593 9.7896-9.9894s5.7938-7.1924 7.9915-10.988c2.3974-3.9958 4.1955-8.1913 5.594-12.587 1.3985-4.5951 1.9979-9.5898 1.9979-14.385 0.39958-13.586-5.594-26.572-16.383-35.163-4.9947-3.9958-10.789-6.9926-16.982-8.9904-6.3932-1.9979-13.186-2.9968-19.779-2.9968-6.9926 0-13.785 1.1987-20.378 3.3964-5.9936 2.1977-11.588 5.3943-16.383 9.5898-4.5951 3.9958-8.5909 8.9904-11.588 14.385-2.9968 5.594-4.9947 11.987-5.594 18.38l-0.19978 1.5983 28.969 4.3953 0.19979-1.7981c0.79915-6.593 3.3964-12.986 7.7917-17.981 4.1955-4.5951 10.389-7.1924 16.582-6.9926 5.9936-0.19979 11.987 1.9979 16.383 5.9936 4.3953 4.1955 6.7928 9.9894 6.593 16.183 0 5.3943-1.1987 10.789-3.9958 15.384-3.1966 4.9947-6.7928 9.5898-11.188 13.785l-59.736 58.538c-0.19979 0.19979-0.39958 0.59936-0.39958 0.99894v24.374c0 0.79915 0.59936 1.5983 1.5983 1.5983h80.115c0.79915 0 1.5983-0.59936 1.5983-1.5983v-24.374c0-0.79915-0.59936-1.5983-1.5983-1.5983h-38.559c-0.79915 0-1.5983-0.59936-1.5983-1.5983 0-0.39958 0.19978-0.79915 0.39957-0.99894z"/>
  <path d="m700.45 235.59v-97.097c0-0.79915-0.59936-1.5983-1.5983-1.5983h-31.766c-0.59937 0-0.99894 0.19978-1.1987 0.59936l-65.73 99.494-0.19979 0.39958v23.974c0 0.79915 0.59936 1.5983 1.5983 1.5983h68.327c0.79915 0 1.5983 0.59936 1.5983 1.5983v29.169c0 0.79915 0.59936 1.5983 1.5983 1.5983h26.172c0.79915 0 1.5983-0.59937 1.5983-1.5983v-29.169c0-0.79915 0.59936-1.5983 1.5983-1.5983h18.58c0.79915 0 1.5983-0.59937 1.5983-1.5983v-22.976c0-0.79915-0.59937-1.5983-1.5983-1.5983h-18.58c-1.3985 0.39957-1.9979-0.39958-1.9979-1.1987zm-67.328-0.79915 35.163-55.541c0.39958-0.79915 1.3985-0.99894 1.9979-0.39957 0.39957 0.19978 0.79915 0.79915 0.79915 1.1987v55.541c0 0.79915-0.59937 1.5983-1.5983 1.5983h-35.163c-0.79915 0-1.5983-0.59936-1.5983-1.5983 0.19979-0.19979 0.39957-0.59936 0.39957-0.79915z"/>
 </g>
</svg>
