<svg width="800" height="694.86" version="1.1" viewBox="0 0 800 694.86" xmlns="http://www.w3.org/2000/svg">
 <g transform="matrix(1.6812 0 0 1.6812 -104.36 -161.21)" fill="#f7941d">
  <path d="m178.68 95.886h242.57v242.57h-242.57z" stroke-width=".26458"/>
  <g transform="matrix(.35619 0 0 .35619 75.533 229.05)">
   <path d="m932.99 409.08c-11.825 0-21.599 4.0686-29.317 12.207-7.7186 8.139-11.576 18.417-11.576 30.834 0 12.42 3.8918 22.687 11.677 30.802 7.7849 8.1148 17.555 12.171 29.306 12.171 5.3553 0 10.08-0.86828 14.171-2.5997 4.092-1.7317 7.5018-4.3539 10.23-7.867v9.2783h32.95v-22.043h-9.0526v-39.482h9.0526v-21.893h-31.911v10.317c-3.0194-4.0074-6.6041-6.9656-10.76-8.8705-4.1563-1.9042-9.0794-2.8553-14.768-2.8553zm4.4515 22.19c5.8379 0 10.635 1.9547 14.396 5.8626 3.7597 3.909 5.6426 8.9036 5.6426 14.989 0 6.0368-1.8931 11.01-5.6779 14.918-3.7845 3.9086-8.5721 5.8626-14.361 5.8626-5.8389 0-10.649-1.9539-14.434-5.8626-3.7851-3.9081-5.6779-8.881-5.6779-14.918 0-6.0352 1.8929-11.02 5.6779-14.954 3.7848-3.9335 8.5948-5.8984 14.434-5.8984z" stroke-width="2.8075"/>
   <path d="m1068.2 471.87v-39.476h-10.165v-21.89h33.688v61.363h10.537v22.037h-44.521v-22.037z" stroke-width="2.8075"/>
   <path d="m1068.2 405.9v-20.034h23.522v20.034z" stroke-width="2.8075"/>
   <path d="m1253.8 408.25c-6.0288 0-11.798 1.1111-17.306 3.3324-5.5106 2.2216-10.328 5.3703-14.454 9.4434-4.1267 4.0731-7.2781 8.7402-9.4514 13.998-2.1744 5.2583-3.2618 10.948-3.2618 17.07 0 6.0241 1.1003 11.713 3.2998 17.07 2.1989 5.3577 5.384 10.06 9.5602 14.109 4.1745 4.0488 8.9457 7.1488 14.308 9.2968 5.3603 2.1454 11.129 3.2184 17.306 3.2184 3.1133 0 6.0782-0.27225 8.8947-0.81479 2.8166-0.54439 5.5837-1.3304 8.303-2.3683 5.4349-2.2216 10.253-5.3703 14.454-9.4434 4.1993-4.0738 7.3611-8.7397 9.4871-13.998 2.1244-5.2573 3.1858-10.948 3.1858-17.07s-1.0989-11.838-3.2972-17.146c-2.1998-5.3077-5.3613-9.9979-9.4871-14.072-4.1272-4.0731-8.8837-7.1945-14.27-9.3672-5.3871-2.1725-11.144-3.2591-17.271-3.2591zm0 23.053c5.386 0 9.9559 2.0232 13.713 6.0672 3.7551 4.0442 5.633 8.952 5.633 14.723 0 5.6725-1.9025 10.52-5.7061 14.541-3.8054 4.0191-8.3529 6.0267-13.64 6.0267-5.3366 0-9.9091-2.0208-13.713-6.0646-3.8049-4.0447-5.7061-8.8785-5.7061-14.503 0-5.7708 1.9133-10.679 5.7445-14.723 3.8289-4.044 8.3871-6.0672 13.675-6.0672z" stroke-width="2.8075"/>
   <path d="m786.15 414.15v57.909h9.1791v22.462h-43.73v-22.462h10.522v-63.877h-10.522v-22.313h48.133l19.701 70.894 19.999-70.894h47.387v22.313h-10.522v63.877h10.522v22.462h-43.879v-22.462h9.328v-56.866l-24.552 79.323h-16.716z" stroke-width="3.4268"/>
   <path d="m1005.8 471.88v-39.457h-9.5681v-21.88h31.896v12.089c2.2254-4.4003 5.1664-7.7135 8.8266-9.9387 1.8285-1.0867 3.8942-1.9398 6.1928-2.5587 2.3003-0.61748 4.7846-0.92709 7.4545-0.92709v23.215c-3.7083 0-6.9234 0.50647-9.6421 1.5182-2.7194 1.0117-4.995 2.4559-6.8236 4.331-3.3128 3.5532-4.9697 9.1552-4.9697 16.803v16.805h9.568v22.028h-43.54v-22.028h10.607z" stroke-width=".74281"/>
   <path d="m1122.5 471.89v-39.433h-10.155v-21.866h32.465v11.044c2.7669-4.1508 6.127-7.2641 10.081-9.3394 3.9532-2.0756 8.598-3.1133 13.935-3.1133 9.1912 0 16.294 2.7678 21.31 8.3016 5.0154 5.5344 7.5237 13.392 7.5237 23.571v30.835h10.599v22.014h-34.765v-45.807c0-6.2266-0.9883-10.649-2.9642-13.268-1.977-2.619-5.3371-3.9285-10.081-3.9285-4.4473 0-7.9933 1.5446-10.636 4.6326-2.6442 3.0886-3.9656 7.2766-3.9656 12.564v23.793h9.5617v22.014h-43.51v-22.014h10.6z" stroke-width=".74281"/>
  </g>
  <g transform="matrix(.35619 0 0 .35619 75.533 229.05)">
   <path d="m560.83 407.76c-11.825 0-21.599 4.0686-29.317 12.207-7.7186 8.139-11.576 18.417-11.576 30.834 0 12.42 3.8918 22.687 11.677 30.802 7.7849 8.1148 17.555 12.171 29.306 12.171 5.3553 0 10.08-0.86828 14.171-2.5997 4.092-1.7317 7.5018-4.3539 10.23-7.867v9.2783h32.95v-22.043h-9.0526v-39.482h9.0526v-21.893h-31.911v10.317c-3.0194-4.0074-6.6041-6.9656-10.76-8.8705-4.1563-1.9042-9.0794-2.8553-14.768-2.8553zm4.4515 22.19c5.8379 0 10.635 1.9547 14.396 5.8626 3.7597 3.909 5.6426 8.9036 5.6426 14.989 0 6.0368-1.8931 11.01-5.6779 14.918-3.7845 3.9086-8.5721 5.8626-14.361 5.8626-5.8389 0-10.649-1.9539-14.434-5.8626-3.7851-3.9081-5.6779-8.881-5.6779-14.918 0-6.0352 1.8929-11.02 5.6779-14.954 3.7848-3.9335 8.5947-5.8984 14.434-5.8984z" stroke-width="2.8075"/>
   <path d="m639.32 470.57v-39.433h-10.155v-21.866h32.465v11.044c2.7669-4.1508 6.127-7.2641 10.081-9.3394 3.9532-2.0756 8.598-3.1133 13.935-3.1133 9.1912 0 16.294 2.7678 21.31 8.3016 5.0154 5.5344 7.5237 13.392 7.5237 23.571v30.835h10.599v22.014h-34.765v-45.807c0-6.2266-0.9883-10.649-2.9642-13.268-1.977-2.619-5.3371-3.9285-10.081-3.9285-4.4473 0-7.9933 1.5446-10.636 4.6326-2.6442 3.0886-3.9656 7.2766-3.9656 12.564v23.793h9.5617v22.014h-43.51v-22.014h10.6z" stroke-width=".74281"/>
   <path d="m458.12 488.92v3.4837h-20.976v-35.355h24.608c0.54307 5.1885 1.6678 8.9573 3.3724 11.303 1.7051 2.3476 4.1625 3.521 7.3751 3.521 3.0135 0 5.5465-0.95089 7.5973-2.8537 2.0501-1.9018 3.0761-4.2862 3.0761-7.1529 0-1.7289-0.41933-3.3354-1.2567-4.8178-0.83741-1.4824-2.0684-2.7171-3.6933-3.7061-1.626-0.98771-4.6545-2.3464-9.0878-4.0766-3.9899-1.4326-6.8957-2.5443-8.7188-3.3354-7.7827-3.2615-13.607-7.4237-17.473-12.49-3.8672-5.0645-5.8-10.957-5.8-17.678 0-9.3393 3.1768-17.196 9.5329-23.571 6.3558-6.3744 14.288-9.5617 23.798-9.5617 3.1039 0 6.0592 0.47018 8.8678 1.4083 2.8073 0.93937 5.443 2.3972 7.9077 4.3732v-3.039h19.865v30.834h-22.38c-0.59067-3.6562-1.7976-6.4728-3.6192-8.4498-1.8216-1.9759-4.0871-2.9649-6.795-2.9649-2.5606 0-4.7392 0.82814-6.5365 2.4832-1.7976 1.656-2.6963 3.7189-2.6963 6.1893 0 1.9769 0.4053 3.6946 1.2184 5.1515 0.81286 1.4581 2.044 2.6069 3.6943 3.4466 1.6493 0.84067 5.06 2.1994 10.232 4.0766 4.8759 1.6307 8.4477 3.0643 10.713 4.299 6.5019 3.4594 11.402 7.5976 14.703 12.415 3.2995 4.818 4.9501 10.34 4.9501 16.566 0 9.6358-3.3481 17.95-10.044 24.942-6.6963 6.9931-14.738 10.488-24.126 10.488-3.2126 0-6.2887-0.49473-9.2283-1.4824-2.9403-0.98771-5.9666-2.4702-9.0795-4.4473z" stroke-width=".74281"/>
  </g>
  <g transform="matrix(.35619 0 0 .35619 -94.088 280.34)" stroke-width="2.8075">
   <path d="m438.64 241.78v21.875h10.227v62.783h-10.227v22.159h42.898v-22.159h-6.5342v-16.148l31.604 38.308h23.226v-22.159h-10.171l-13.275-16.179c6.2583-3.0804 11.16-7.5027 14.706-13.297 3.5448-5.7941 5.3178-12.374 5.3178-19.759 0-6.0625-1.3206-11.731-3.9604-17.012-2.6405-5.2809-6.234-9.4599-10.782-12.54-3.0324-2.1017-6.5161-3.6084-10.452-4.5138-3.9374-0.90399-10.501-1.3594-19.693-1.3594zm36.364 24.148h6.5198c6.7476 0 11.453 0.91191 14.119 2.8187 2.6642 1.9068 3.9973 5.1234 3.9973 9.6215 0 4.4006-1.5402 7.6413-4.6201 9.6952-3.0805 2.0537-7.9945 3.1489-14.742 3.1489h-5.2735z" fill="#f7941d" stroke-width="2.8075"/>
   <path d="m574.51 265.06c-11.687 0-21.342 4.0224-28.97 12.065-7.6276 8.0438-11.441 18.202-11.441 30.474 0 12.273 3.8475 22.42 11.542 30.438 7.6937 8.0195 17.348 12.029 28.962 12.029 5.2922 0 9.9024-0.85656 13.945-2.5674 4.0434-1.7108 7.4915-4.3021 10.048-7.7742v9.1896h32.67v-21.875h-8.8071v-38.92h8.8071v-21.591h-31.534v10.121c-2.8408-3.9605-6.5236-6.8818-10.631-8.7646-4.1071-1.8818-8.9712-2.8237-14.594-2.8237zm4.4023 21.93c5.769 0 10.513 1.9322 14.229 5.7944 3.7152 3.8633 5.5743 8.8008 5.5743 14.815 0 5.9662-1.8704 10.88-5.6111 14.742-3.7401 3.8634-8.4713 5.7945-14.192 5.7945-5.7697 0-10.525-1.9311-14.265-5.7945-3.7401-3.8619-5.6111-8.7765-5.6111-14.742 0-5.9647 1.871-10.891 5.6111-14.778 3.7408-3.8875 8.495-5.8311 14.265-5.8311z" fill="#f7941d" stroke-width="2.8075"/>
   <path d="m692.33 241.78v21.023h8.8071v13.53c-2.8408-3.9605-6.483-6.8818-10.59-8.7646-4.1071-1.8819-8.9512-2.8237-14.574-2.8237-11.687 0-21.332 4.0224-28.959 12.065-7.6276 8.0438-11.436 18.202-11.436 30.474 0 12.273 3.85 22.42 11.544 30.438 7.6937 8.0195 17.349 12.029 28.964 12.029 5.2923 0 10.005-0.85655 14.048-2.5674 4.0429-1.7108 7.3106-4.3021 10.151-7.7742v9.1896h32.386v-21.875h-8.8071v-84.944zm-11.934 44.894c5.769 0 10.512 1.9322 14.228 5.7944 3.7151 3.8633 5.5743 8.8008 5.5743 14.815 0 5.9662-1.8704 10.88-5.6112 14.742-3.7401 3.8633-8.4713 5.7945-14.192 5.7945-5.7703 0-10.525-1.9312-14.265-5.7945-3.7402-3.8619-5.6106-8.7765-5.6106-14.742 0-5.9648 1.8704-10.891 5.6106-14.778 3.7407-3.8876 8.4956-5.8311 14.265-5.8311z" fill="#f7941d" stroke-width="2.8075"/>
   <path d="m750.87 241.78h23.295v19.886h-23.295z"/>
   <path transform="matrix(.28409 0 0 .28409 91.216 215.63)" d="m2440 391h-36v-213h-118v76h36v137h-37v77h155z" stroke-width=".44984"/>
   <path d="m830.69 263.87c-5.9663 0-11.674 1.1001-17.126 3.2981s-10.22 5.313-14.302 9.3432c-4.0828 4.0306-7.2001 8.6479-9.3519 13.85-2.1519 5.2029-3.2272 10.833-3.2272 16.891 0 5.9605 1.0878 11.591 3.264 16.892 2.1755 5.3014 5.329 9.9541 9.4611 13.96 4.1321 4.0065 8.8501 7.0721 14.156 9.1971 5.3053 2.1236 11.014 3.1871 17.126 3.1871 3.0811 0 6.0149-0.26961 8.802-0.8057 2.7872-0.53858 5.5244-1.3192 8.2142-2.3459 5.3784-2.198 10.146-5.3119 14.303-9.3425 4.1545-4.0304 7.2849-8.6479 9.3869-13.85 2.1019-5.2029 3.1541-10.834 3.1541-16.891 0-6.0579-1.089-11.712-3.264-16.964-2.1762-5.252-5.3059-9.8936-9.3875-13.924-4.0833-4.0303-8.7896-7.1202-14.119-9.2702-5.3303-2.1497-11.027-3.2249-17.089-3.2249zm0 22.81c5.329 0 9.8524 2.0022 13.569 6.0042 3.7152 4.0017 5.5743 8.8582 5.5743 14.569 0 5.6133-1.8828 10.409-5.6479 14.387-3.7657 3.9776-8.2629 5.9659-13.495 5.9659-5.281 0-9.8044-2.0011-13.569-6.0031-3.7663-4.0018-5.6473-8.7846-5.6473-14.35 0-5.7105 1.8941-10.568 5.6835-14.569 3.7895-4.0017 8.2997-6.0042 13.532-6.0042z" fill="#f7941d" stroke-width="2.8075"/>
  </g>
  <path d="m158.15 472.01c-3.1307 11.849-8.8051 20.975-17.023 27.377-8.2183 6.4028-18.307 9.6039-30.264 9.6039-6.9584 0-13.393-1.2501-19.305-3.7478-5.9147-2.4979-11.24-6.246-15.979-11.244-4.3932-4.6489-7.7624-9.9502-10.11-15.904-1.131-2.999-1.9789-6.0617-2.5438-9.1909-0.56606-3.1283-0.8479-6.4955-0.8479-10.101 0-6.6063 1.2275-12.809 3.6851-18.61 2.4566-5.8006 6.0336-11.027 10.73-15.675 4.696-4.6494 9.9783-8.137 15.849-10.462 5.8703-2.3247 12.132-3.4869 18.784-3.4869 5.0871 0 9.8263 0.68481 14.219 2.0545 4.3905 1.3692 8.6527 3.4892 12.784 6.3589v-6.6529h17.218v31.372h-24.328c-2.523-3.2167-5.4035-5.6623-8.6417-7.3374-3.2404-1.673-6.8158-2.5112-10.73-2.5112-7.1312 0-13.186 2.4652-18.164 7.3939-4.979 4.9297-7.468 10.998-7.468 18.206 0 6.9918 2.4884 13.072 7.468 18.24 4.9778 5.1679 10.772 7.751 17.382 7.751 4.5205 0 8.6746-1.157 12.458-3.4732 3.7828-2.3147 6.9349-5.6361 9.4572-9.9625h25.372z"/>
  <path d="m172.3 487.91v-56.355h-8.936v-19.24h29.611v75.596h9.262v19.371h-39.133v-19.371z"/>
  <path d="m240.05 432.74c-10.392 0-18.98 3.5771-25.763 10.73-6.7835 7.1536-10.174 16.187-10.174 27.1 0 10.914 3.4208 19.936 10.264 27.067 6.8416 7.1318 15.427 10.696 25.755 10.696 4.7063 0 8.8587-0.76138 12.453-2.2826 3.5964-1.5206 6.5915-3.8263 8.9887-6.914v8.1535h28.959v-19.371h-7.9572v-34.699h7.9572v-19.241h-28.046v9.0652c-2.6535-3.5223-5.805-6.1192-9.458-7.7937-3.6522-1.674-7.979-2.5114-12.979-2.5114zm3.9139 19.501c5.1298 0 9.3473 1.7179 12.653 5.1528 3.304 3.4362 4.9565 7.8272 4.9565 13.175 0 5.3054-1.6629 9.6751-4.9888 13.11-3.3265 3.4362-7.5338 5.1528-12.62 5.1528-5.132 0-9.3605-1.7166-12.686-5.1528-3.3265-3.4348-4.9899-7.8047-4.9899-13.11 0-5.3032 1.6635-9.6856 4.9899-13.142 3.3265-3.4566 7.554-5.1855 12.686-5.1855z"/>
  <path d="m294.63 484.73h19.762c0 1.3051 0.18649 2.4358 0.55446 3.3915 0.36752 0.95749 0.94668 1.8263 1.7288 2.6088 1.4776 1.3488 3.5218 2.0223 6.1308 2.0223 2.478 0 4.391-0.55423 5.7397-1.6635 1.347-1.1086 2.0222-2.7062 2.0222-4.7937 0-3.0003-3.2716-5.2833-9.8131-6.8482l-6.0436-1.5655c-6.8904-1.9566-11.958-4.7612-15.208-8.4141-3.2492-3.6521-4.8737-8.4134-4.8737-14.284 0-6.9134 2.3184-12.49 6.9568-16.73 4.6367-4.2399 10.748-6.36 18.333-6.36 1.4727 0 2.8926 0.0877 4.2583 0.26107 1.3646 0.17441 2.6546 0.45632 3.8672 0.84765 2.427 0.74 4.724 1.9362 6.8915 3.5878v-3.0657h15.263v20.806h-19.37c-0.38941-2.3474-1.109-4.0432-2.1528-5.0868-1.0432-1.0439-2.5882-1.5655-4.6302-1.5655-2.0875 0-3.7735 0.51117-5.0552 1.5322-1.2834 1.0231-1.924 2.3381-1.924 3.9463 0 2.0008 0.70535 3.5668 2.1193 4.6963 1.4128 1.1307 4.9022 2.4133 10.469 3.8481 9.1311 2.3479 15.413 5.2398 18.849 8.6746 3.4345 3.4364 5.1529 8.2835 5.1529 14.546 0 7.1312-2.4906 12.926-7.4685 17.382-4.9784 4.4568-11.426 6.6847-19.338 6.6847-3.1751 0-6.0891-0.45633-8.7404-1.3699-2.6529-0.91258-5.132-2.3254-7.435-4.2392v3.7178h-16.045v-22.568z"/>
  <path d="m358.52 484.73h19.762c0 1.3051 0.1864 2.4358 0.55446 3.3915 0.36744 0.95749 0.94615 1.8263 1.7288 2.6088 1.4781 1.3488 3.5218 2.0223 6.1302 2.0223 2.4785 0 4.3916-0.55423 5.7398-1.6635 1.3475-1.1086 2.0227-2.7062 2.0227-4.7937 0-3.0003-3.2716-5.2833-9.8131-6.8482l-6.0442-1.5655c-6.8903-1.9566-11.958-4.7612-15.207-8.4141-3.2497-3.6521-4.8731-8.4134-4.8731-14.284 0-6.9134 2.3172-12.49 6.9568-16.73 4.6367-4.2399 10.749-6.36 18.333-6.36 1.4727 0 2.8921 0.0877 4.2578 0.26107 1.3646 0.17441 2.6546 0.45632 3.8678 0.84765 2.4265 0.74 4.724 1.9362 6.8916 3.5878v-3.0657h15.263v20.806h-19.371c-0.38941-2.3474-1.1084-4.0432-2.1516-5.0868-1.0443-1.0439-2.5883-1.5655-4.6313-1.5655-2.0875 0-3.7729 0.51117-5.0547 1.5322-1.284 1.0231-1.9246 2.3381-1.9246 3.9463 0 2.0008 0.70588 3.5668 2.1198 4.6963 1.4128 1.1307 4.9022 2.4133 10.469 3.8481 9.1311 2.3479 15.413 5.2398 18.849 8.6746 3.435 3.4364 5.1523 8.2835 5.1523 14.546 0 7.1312-2.49 12.926-7.4679 17.382-4.9784 4.4568-11.426 6.6847-19.338 6.6847-3.1757 0-6.0886-0.45633-8.7405-1.3699-2.6523-0.91258-5.1314-2.3254-7.4356-4.2392v3.7178h-16.044v-22.568z"/>
  <path d="m429.97 487.91v-34.698h-8.9351v-19.241h29.611v53.939h9.2612v19.371h-39.134v-19.371z"/>
  <path d="m429.97 429.94v-17.611h20.676v17.611z"/>
  <path d="m537.89 480.57c-2.3474 8.8938-6.8597 15.856-13.533 20.889-6.6748 5.0318-14.73 7.548-24.165 7.548-5.5658 0-10.697-0.92374-15.393-2.769-4.696-1.8464-8.8701-4.6049-12.523-8.2758-3.6517-3.6709-6.4566-7.8096-8.4134-12.414-0.91267-2.3041-1.6098-4.6817-2.087-7.1372-0.47712-2.4537-0.71792-5.0715-0.71792-7.8529 0-5.3432 0.91372-10.284 2.7401-14.826 1.8264-4.5392 4.6516-8.7212 8.4787-12.544 3.4779-3.606 7.3912-6.3436 11.74-8.2122 2.1725-0.95442 4.402-1.6722 6.6852-2.1496 2.2828-0.47717 4.6631-0.71734 7.1421-0.71734 3.9989 0 7.6841 0.69682 11.054 2.087 3.3692 1.3917 6.4028 3.5007 9.0977 6.3266v-6.5218h16.568v26.937h-19.762c-1.4353-2.7401-3.3715-4.8478-5.805-6.3271-1.1743-0.69535-2.4583-1.2393-3.8486-1.6306-1.392-0.39106-2.8915-0.58697-4.5002-0.58697-4.9566 0-9.1206 1.7479-12.49 5.241-3.3709 3.4938-5.0546 7.8009-5.0546 12.923 0 5.1227 1.641 9.4185 4.9246 12.891 3.282 3.4736 7.3374 5.2078 12.164 5.2078 3.0429 0 5.7495-0.6898 8.1195-2.0697 2.3693-1.3794 4.25-3.3862 5.6415-6.0178z"/>
 </g>
 <g transform="matrix(1.6812 0 0 1.6812 -104.36 -161.21)" fill="#fff">
  <path d="m285.18 262.32h-30.595l-23.474-36.385v36.385h-24.57v-94.523h38.263c5.2426 0 11.033 0.78248 14.945 2.3474 3.9124 1.565 7.1988 3.6776 9.7027 6.338 2.5822 2.6604 4.4601 5.7903 5.7903 9.3114s1.9562 7.277 1.9562 11.268c0 7.1988-1.7214 13.693-5.1643 18.232-3.4429 4.4601-8.842 7.9812-15.571 9.5462zm-53.991-52.269h5.0861c4.8514 0 8.529-1.0172 11.189-2.9734 2.5822-2.0344 3.9124-4.8513 3.9124-8.6855 0-3.7559-1.3302-6.651-3.9124-8.6855-2.5822-2.0344-6.338-2.9734-11.189-2.9734h-5.0861z" stroke-width=".26458"/>
  <path transform="matrix(.78248 0 0 .78248 83.143 95.886)" d="m293.1 104.9h-29v25.3h-12.6v20.9h12.6v61.6h29v-61.6h13.7l27.9 61.6h23.1l38.1-82.5h-30.7l-18.4 47.7-18.5-47.7h-35.2z" stroke-width=".33813"/>
 </g>
</svg>
