<svg width="800" height="790.94" version="1.1" viewBox="0 0 800 790.94" xmlns="http://www.w3.org/2000/svg">
 <path d="m786.31 63.396c-12.679-26.969-39.849-59.774-97.409-63.396h-573.99c-14.088 1.2075-41.459 5.6352-66.415 21.937-31.799 20.931-48.503 54.943-48.503 98.616v549.43c0 1.2075 0.20126 30.39 15.094 59.975 14.088 27.774 43.874 60.981 106.87 60.981h556.28c1.2076 0 30.591-0.20126 60.377-14.893 27.975-13.887 61.384-43.472 61.384-106.06v-549.43c0-1.2075-0.20126-28.579-13.686-57.157z" fill="#fff" stroke-width="2.0126"/>
 <path d="m775.45 72.654c-12.478-26.164-38.843-57.962-94.591-61.585h-557.89c-13.686 1.2075-40.453 5.434-64.604 21.333-30.792 20.528-47.094 53.535-47.094 96v533.74c0 1.2076 0.20126 29.585 14.692 58.365 13.686 26.969 42.667 59.17 103.85 59.17h540.58c1.2075 0 29.786-0.20126 58.767-14.491 27.17-13.484 59.774-42.264 59.774-103.04v-533.74c-0.20126-1.2076-0.40252-27.975-13.484-55.748z" fill="#005cb9" stroke-width="2.0126"/>
 <path d="m167.85 398.89c0 28.78 19.723 45.484 39.044 61.585 16.503 13.887 32.201 27.17 32.201 46.893 0 13.887-7.4465 27.975-24.151 27.975-16.302 0-20.73-19.925-24.755-37.635-3.0189-13.283-5.2327-23.748-12.88-23.748-9.8616 0-10.868 9.0566-11.472 23.748l-0.20126 3.2201c-0.20126 6.239-0.60377 14.893-0.60377 29.987 0 16.906 30.189 19.321 48.101 19.321 37.836 0 66.214-28.981 66.214-67.22 0-33.409-21.937-50.516-41.057-65.61-16.101-12.679-29.987-23.547-29.987-41.459 0-12.88 6.239-20.528 16.704-20.528 13.082 0 19.321 16.906 24.352 30.591 4.0252 10.868 7.2453 19.522 13.686 19.522 9.0566 0 9.0566-7.044 9.0566-16.101l0.20126-30.792c0-6.6415-3.8239-8.4528-7.2453-10.264l-1.0063-0.40251c-8.8553-4.2264-23.95-7.4465-35.22-7.4465-29.987-0.20126-60.981 21.736-60.981 58.365" fill="#ffd040" stroke-width="2.0126"/>
 <path d="m329.66 509.99v-72.252c0-4.8302 5.8365-8.0503 10.868-8.0503 13.887 0 21.736 16.906 21.736 46.491 0 24.151-3.2201 53.132-18.516 53.132-6.8428 0-14.088-6.8428-14.088-19.321m9.2579-96.403-5.2327 3.8239c-1.6101 1.2076-3.4214 2.6164-4.6289 3.2201-0.20125-1.8113-0.20125-5.434-0.20125-7.4466 0-3.0189 0-7.849-4.4277-7.849-1.4088 0-3.2201 1.0063-8.2516 4.0252-6.239 3.8239-15.698 9.4591-25.358 12.478-13.484 4.2264-19.321 6.6415-19.321 11.069 0 5.0314 4.4277 5.8365 7.4465 6.239 4.4277 0.80503 8.8553 1.4088 8.8553 11.472v130.21c0 8.0503-4.4277 9.4591-11.27 11.069-3.8239 0.80504-8.6541 1.8113-8.6541 6.4403 0 3.6226 3.2201 6.6415 7.044 6.6415l27.975-1.2076 40.453 1.2076c8.8554 0 9.6604-4.8302 9.6604-6.4403 0-6.8428-7.4465-7.044-12.277-7.4465-7.044-0.20125-10.868-6.0377-10.868-16.503v-34.415c0-1.2075 0.60377-1.4088 1.0063-1.4088 0.60378 0 3.2201 1.0063 5.434 1.6101 5.434 1.8113 12.88 4.4277 18.516 4.4277 32.403 0 54.943-35.623 54.943-67.623 0-33.208-12.679-72.05-48.704-72.05-9.0566 0.20126-16.906 4.8302-22.138 8.4528" fill="#ffd041" stroke-width="2.0126"/>
 <path d="m450.01 410.57c-9.2579 4.8302-21.736 11.472-33.006 14.289-4.8302 1.2076-7.6478 3.8239-7.6478 7.044 0 4.6289 4.6289 5.6352 8.0503 6.239 5.434 1.2076 7.849 2.2138 7.849 6.4402v77.887c0 3.0189-1.8113 3.8239-6.0377 4.8302-3.4214 0.80503-8.0503 2.0126-8.0503 7.044 0 4.2264 3.6226 6.8428 9.2579 6.8428l6.0377-0.20125c5.0314-0.20126 12.478-0.80504 21.535-0.80504l24.755 1.0063c10.063 0 11.673-4.2264 11.673-6.8428 0-5.6352-4.8302-6.4403-8.4528-7.044-4.8302-1.0063-8.6541-1.6101-8.6541-9.0566v-101.03c0-6.8428 0-11.874-5.2327-11.874-2.0126 0-5.0314 1.4088-12.075 5.2327m-27.17-34.616c0 13.283 9.8616 23.145 23.547 23.145 13.686 0 23.547-9.6604 23.547-23.145 0-13.283-9.8616-22.943-23.547-22.943-13.686 0-23.547 9.6604-23.547 22.943m122.16 41.862-3.6226 3.2201c-1.0063 0.80503-2.0126 1.8113-2.4151 2.0126v-11.673c0-5.434-3.0189-6.0377-4.4277-6.0377s-2.8176 0.80503-8.0503 4.0252c-8.0503 4.6289-21.333 12.679-33.811 15.497-4.2264 1.0063-6.6415 3.6226-6.6415 7.044 0 4.4277 4.0252 5.6352 7.044 6.239 4.2264 1.0063 6.6415 1.8113 6.6415 6.4402v77.887c0 3.6226-1.8113 4.2264-5.434 5.0314-3.0189 0.80503-7.4465 1.8113-7.4465 6.8428 0 4.6289 3.2201 7.044 9.2579 7.044l6.8428-0.40251c4.6289-0.40252 11.069-0.80504 17.107-0.80504l12.881 0.60378 11.069 0.60377c2.2138 0 9.0566 0 9.0566-6.0377 0-5.0314-3.6226-6.239-6.0377-6.8428-3.0189-0.80503-5.2327-1.6101-5.2327-8.4528v-76.277c0-9.4591 4.8302-14.692 13.686-14.692 8.6541 0 13.082 5.2327 13.082 14.692v78.692c0 4.4277-1.6101 4.8302-4.2264 5.434-2.4151 0.60378-6.239 1.4088-6.239 6.4403 0 4.6289 3.0189 7.044 9.2579 7.044l8.2516-0.40251c4.0252-0.20126 8.4528-0.60378 14.088-0.60378l13.484 0.60378 14.692 0.60377c6.4402 0 8.8553-3.6226 8.8553-7.044 0-4.8302-4.0252-5.6352-7.044-6.239-1.6101-0.40252-3.2201-0.60377-4.8302-1.4088-1.8113-0.80504-4.0252-7.4466-4.0252-14.491v-64.604c0-26.566-13.686-42.465-36.629-42.465-12.478 0-22.742 6.8428-29.182 12.478m-286.19-165.23c0 1.6101 0.60377 2.0126 5.8365 2.0126 7.2453 0 9.6604-2.6164 11.472-6.8428 1.8113-4.6289 1.8113-7.8491 5.2327-7.8491 1.6101 0 2.6164 1.0063 2.6164 3.6226 0 4.2264-0.60377 9.6604-0.60377 16.101 0 7.044 0.60377 11.069 0.60377 15.094 0 2.6164-0.60377 4.0252-3.2201 4.0252-3.2201 0-3.6226-3.0189-5.8365-8.6541-1.6101-4.4277-3.6226-7.4465-10.667-7.4465-4.0252 0-5.6352 0.40252-5.6352 1.6101v42.063c0 6.0377 2.0126 7.044 8.2516 7.044 24.956 0 17.912-27.572 27.975-27.572 3.0189 0 3.6226-2.8176 3.6226 19.119 0 15.698-0.40252 16.302-5.8365 16.302s-15.094-0.80503-33.006-0.80503c-23.145 0-29.585 0.80503-33.208 0.80503-2.8176 0-4.4277-0.60377-4.4277-2.6164 0-2.6164 1.2076-4.0252 4.6289-4.4277 4.4277-0.80504 6.0377-3.4214 6.0377-10.063v-85.736c0-13.082-10.465-6.0377-10.465-13.082 0-2.6164 3.6226-2.6164 7.8491-2.6164 8.4528 0 19.925 0.80503 29.987 0.80503 6.4402 0 20.126-0.80503 30.189-0.80503 3.6226 0 4.6289 1.4088 4.6289 4.2264v19.723c0 4.2264-1.4088 6.0377-4.2264 6.0377-5.434 0-7.6478-21.937-25.962-21.937-4.2264 0-6.239 1.2076-6.239 2.8176zm182.54 5.8365c-0.60377 0-1.6101-0.40252-1.6101-1.0063v-40.252c0-7.044 1.8113-8.6541 5.2327-8.6541 9.0566 0 15.296 11.472 15.296 24.553 0.20126 14.893-7.044 25.358-18.918 25.358m45.887 47.296-11.673-33.006c-2.2138-7.4465-4.2264-12.277-6.239-15.094 8.0503-2.8176 17.107-9.4591 17.107-25.56 0-19.723-13.484-29.384-31.597-29.384-10.868 0-20.931 0.80503-27.774 0.80503-10.667 0-15.899-0.80503-19.321-0.80503-2.8176 0-4.4277 0.60377-4.4277 2.6164 0 2.2138 2.8176 2.8176 5.434 3.4214 2.6164 0.60377 5.434 2.6164 5.434 8.2516v90.164c0 5.6352-2.6164 6.6415-5.434 7.044-2.6164 0.60377-4.6289 1.2075-4.6289 4.4277 0 2.0126 1.6101 2.6164 3.6226 2.6164 3.6226 0 8.6541-0.80503 19.321-0.80503 10.667 0 15.698 0.80503 18.717 0.80503 3.0189 0 4.6289-0.60377 4.6289-2.6164 0-3.6226-2.8176-3.0189-6.0377-4.4277-4.0252-1.8113-4.2264-6.4403-4.2264-12.075v-35.019c0-0.80504 0.40252-1.4088 1.6101-1.4088 4.8302 0 6.6415 4.2264 8.8553 10.868l11.874 36.226c2.6164 8.0503 3.2201 8.8554 10.465 8.8554h22.742c1.6101 0 3.0189-0.80503 3.0189-2.8176-0.20126-5.6352-6.4402 0.40251-11.472-13.082m55.95-99.22c-11.069 0-16.906 23.346-16.906 42.868 0 36.025 7.849 68.226 21.535 68.226 10.063 0 15.899-18.314 15.899-46.692 0-29.786-7.044-64.403-20.528-64.403m2.0126 117.13c-29.987 0-46.893-33.409-46.893-61.585 0-32 16.302-61.585 46.893-61.585 29.987 0 46.893 33.409 46.893 61.585 0 32-16.503 61.585-46.893 61.585m-192.6 0c-21.937 0-39.245-10.063-39.245-34.415v-72.252c0-3.4214-1.0063-6.6415-3.0189-7.044-3.6226-0.80503-7.044-1.8113-7.044-4.4277 0-1.4088 0.80503-2.6164 3.2201-2.6164 4.0252 0 9.2579 0.80503 19.925 0.80503 5.6352 0 10.465-0.80503 17.711-0.80503 2.4151 0 4.6289 1.0063 4.4277 3.4214-0.60378 4.8302-9.0566 0.20126-9.0566 8.4528v81.509c0 13.686 5.2327 19.925 14.893 19.925h-3.2201c9.6604 0 14.893-6.239 14.893-19.925v-81.509c0-8.2516-8.6541-3.6226-9.0566-8.4528-0.20126-2.4151 2.0126-3.4214 4.4277-3.4214 7.2453 0 12.075 0.80503 17.711 0.80503 10.667 0 15.899-0.80503 19.925-0.80503 2.4151 0 3.2201 1.2076 3.2201 2.6164 0 2.6164-3.4214 3.8239-7.044 4.4277-2.0126 0.40252-3.0189 3.8239-3.0189 7.044v72.252c0 24.352-17.308 34.415-39.245 34.415z" fill="#fff" stroke-width="2.0126"/>
 <path d="m8.8553 669.99s0 112.1 112.91 112.1h556.28s112.91 0 112.91-112.1v-549.43s0-105.06-102.64-111.7h-572.58c-23.547 2.0126-106.87 15.698-106.87 111.7z" fill="none" stroke-width="2.0126"/>
 <path d="m428.88 81.509c0.60378-0.60378 1.2076-1.4088 1.2076-2.2138 0-1.6101-1.4088-3.0189-3.0189-3.0189h-20.73l-6.4402-19.522c-0.40251-1.2076-1.4088-2.0126-2.8176-2.0126s-2.4151 1.0063-2.8176 2.2138l-6.4402 19.522h-20.73c-1.6101 0-3.0189 1.4088-3.0189 3.0189 0 1.0063 0.60378 1.8113 1.4088 2.4151l16.906 12.075-6.239 19.119c-0.20125 0.40252-0.20125 0.80503-0.20125 1.2076 0 1.6101 1.4088 3.0189 3.0189 3.0189 0.60378 0 1.2076-0.20126 1.8113-0.60378l16.503-11.874 16.503 11.874v-0.20125c0.60378 0.40251 1.2076 0.60377 1.8113 0.60377 1.6101 0 3.0189-1.4088 3.0189-3.0189 0-0.40251 0-0.60377-0.20126-0.80503l-6.4402-19.522zm0 612.83c0.60378-0.60378 1.2076-1.4088 1.2076-2.2138 0-1.6101-1.4088-3.0189-3.0189-3.0189h-20.73l-6.4402-19.522c-0.40251-1.2076-1.4088-2.0126-2.8176-2.0126s-2.4151 1.0063-2.8176 2.2138l-6.4402 19.522h-20.73c-1.6101 0-3.0189 1.4088-3.0189 3.0189 0 1.0063 0.60378 1.8113 1.4088 2.4151l16.906 12.075-6.239 19.12c-0.20125 0.40252-0.20125 0.80503-0.20125 1.0063 0 1.6101 1.4088 3.0189 3.0189 3.0189 0.60378 0 1.2076-0.20126 1.8113-0.60378l16.503-11.874 16.503 11.874c0.60378 0.40252 1.2076 0.80504 1.8113 0.80504 1.6101 0 3.0189-1.4088 3.0189-3.0189 0-0.40252 0-0.60378-0.20126-1.0063l-6.4402-19.321zm155.37-47.497c0.60378-0.60377 1.2076-1.4088 1.2076-2.2138 0-1.6101-1.4088-3.0189-3.0189-3.0189h-20.73l-6.4402-19.522c-0.40252-1.2075-1.4088-2.0126-2.8176-2.0126s-2.4151 0.80503-2.8176 2.0126l-6.4402 19.522h-20.73c-1.6101 0-3.0189 1.4088-3.0189 3.0189 0 1.0063 0.60377 1.8113 1.4088 2.4151l16.704 12.075-6.239 19.12c-0.20125 0.40251-0.20125 0.80503-0.20125 1.0063 0 1.6101 1.4088 3.0189 3.0189 3.0189 0.60378 0 1.2076-0.20125 1.8113-0.60377l16.503-11.874 16.503 11.874c0.60378 0.40252 1.2076 0.80503 1.8113 0.80503 1.6101 0 3.0189-1.4088 3.0189-3.0189 0-0.40251 0-0.60377-0.20125-0.80503l-6.239-19.723zm118.94-108.28c0.60377-0.60377 1.2076-1.4088 1.2076-2.2138 0-1.6101-1.4088-3.0189-3.0189-3.0189h-20.73l-6.4402-19.522c-0.40252-1.2075-1.6101-2.0126-2.8176-2.0126-1.4088 0-2.4151 1.0063-2.8176 2.2138l-6.4403 19.522h-20.73c-1.6101 0-3.0189 1.4088-3.0189 3.0189 0 1.0063 0.60377 1.8113 1.4088 2.4151l16.704 12.075-6.239 19.12c-0.20126 0.40251-0.20126 0.80503-0.20126 1.0063 0 1.6101 1.4088 3.0189 3.0189 3.0189 0.60377 0 1.2076-0.20125 1.8113-0.60377l16.503-11.874 16.503 11.874c0.60377 0.40252 1.2076 0.80503 1.8113 0.80503 1.6101 0 3.0189-1.4088 3.0189-3.0189 0-0.40251 0-0.60377-0.20126-1.0063l-6.239-19.522zm33.208-157.38c0.60377-0.60377 1.2075-1.4088 1.2075-2.2138 0-1.6101-1.4088-3.0189-3.0189-3.0189h-20.73l-6.4403-19.522c-0.40251-1.2076-1.6101-2.0126-2.8176-2.0126-1.4088 0-2.4151 0.80503-2.8176 2.2138l-6.239 19.522h-20.73c-1.6101 0-3.0189 1.4088-3.0189 3.0189 0 1.0063 0.60378 1.8113 1.4088 2.4151l16.704 12.075-6.239 19.12c-0.20126 0.40251-0.20126 0.80503-0.20126 1.2076 0 1.6101 1.4088 3.0189 3.0189 3.0189 0.60377 0 1.2075-0.20125 1.8113-0.60377l16.503-11.874 16.503 11.874c0.60377 0.40252 1.2075 0.60377 1.8113 0.60377 1.6101 0 3.0189-1.4088 3.0189-3.0189 0-0.40252-0.20125-0.60378-0.20125-0.80504l-6.4402-19.522zm-38.038-150.74c0.60377-0.60378 1.2076-1.4088 1.2076-2.2138 0-1.6101-1.4088-3.0189-3.0189-3.0189h-20.73l-6.4402-19.522c-0.40252-1.2076-1.6101-2.0126-2.8176-2.0126-1.4088 0-2.4151 1.0063-2.8176 2.2138l-6.4402 19.522h-20.73c-1.6101 0-3.0189 1.4088-3.0189 3.0189 0 1.0063 0.60377 1.8113 1.4088 2.4151l16.704 12.075-6.239 19.12c-0.20126 0.40252-0.20126 0.80503-0.20126 1.0063 0 1.6101 1.4088 3.0189 3.0189 3.0189 0.60378 0 1.2076-0.20126 1.8113-0.60378l16.503-11.874 16.503 11.874c0.60378 0.40252 1.2076 0.80503 1.8113 0.80503 1.6101 0 3.0189-1.2075 3.0189-3.0189 0-0.40252 0-0.60378-0.20126-1.0063l-6.4402-19.522zm-107.47-117.94c0.60378-0.60378 1.2076-1.4088 1.2076-2.2138 0-1.6101-1.4088-3.0189-3.0189-3.0189h-20.73l-6.4402-19.522c-0.40252-1.2076-1.6101-2.0126-2.8176-2.0126-1.4088 0-2.4151 0.80503-2.8176 2.2138l-6.4402 19.522h-20.931c-1.6101 0-3.0189 1.4088-3.0189 3.0189 0 1.0063 0.60378 1.8113 1.4088 2.4151l16.704 12.075-6.239 19.119v0.20126c-0.20126 0.40252-0.20126 0.60377-0.20126 1.0063 0 1.6101 1.4088 3.0189 3.0189 3.0189 0.60377 0 1.2075-0.20126 1.8113-0.60378l16.503-11.874 16.503 11.874c0.60377 0.40252 1.2075 0.60378 1.8113 0.60378 1.6101 0 3.0189-1.4088 3.0189-3.0189 0-0.40252-0.20126-0.60377-0.20126-0.80503l-6.4402-19.522zm-381.38 534.34c-0.60377-0.60377-1.2075-1.4088-1.2075-2.2138 0-1.6101 1.4088-3.0189 3.0189-3.0189h20.73l6.4403-19.522c0.40251-1.2075 1.6101-2.0126 2.8176-2.0126 1.4088 0 2.4151 0.80503 2.8176 2.0126l6.4402 19.522h20.73c1.6101 0 3.0189 1.4088 3.0189 3.0189 0 1.0063-0.60378 1.8113-1.4088 2.4151l-16.704 12.075 6.239 19.12h-0.20126c0.20126 0.40251 0.20126 0.80503 0.20126 1.0063 0 1.6101-1.4088 3.0189-3.0189 3.0189-0.60377 0-1.2075-0.20125-1.8113-0.60377h-0.20125l-16.503-11.874-16.503 11.874c-0.60378 0.40252-1.2076 0.80503-1.8113 0.80503-1.6101 0-3.0189-1.4088-3.0189-3.0189 0-0.40251 0.20125-0.60377 0.20125-0.80503l6.4403-19.522zm-118.94-108.28c-0.60378-0.60377-1.2076-1.4088-1.2076-2.2138 0-1.6101 1.4088-3.0189 3.0189-3.0189h20.73l6.4402-19.522c0.40252-1.2075 1.6101-2.0126 2.8176-2.0126 1.4088 0 2.4151 1.0063 2.8176 2.2138l6.4402 19.522h20.73c1.6101 0 3.0189 1.4088 3.0189 3.0189 0 1.0063-0.60377 1.8113-1.4088 2.4151l-16.704 12.075 6.239 19.12h-0.20126c0.20126 0.40251 0.20126 0.80503 0.20126 1.0063 0 1.6101-1.4088 3.0189-3.0189 3.0189-0.60378 0-1.2076-0.20125-1.8113-0.60377h-0.20126l-16.503-11.874-16.503 11.874c-0.60377 0.40252-1.2076 0.80503-1.8113 0.80503-1.6101 0-3.0189-1.4088-3.0189-3.0189 0-0.40251 0.20126-0.60377 0.20126-1.0063l6.4402-19.522zm-33.006-157.38c-0.60378-0.60377-1.2076-1.4088-1.2076-2.2138 0-1.6101 1.4088-3.0189 3.0189-3.0189h20.73l6.4402-19.522c0.40252-1.2076 1.6101-2.0126 2.8176-2.0126 1.4088 0 2.4151 0.80503 2.8176 2.2138l6.4402 19.522h20.73c1.6101 0 3.0189 1.4088 3.0189 3.0189 0 1.0063-0.60377 1.8113-1.4088 2.4151l-16.704 12.075 6.239 19.12h-0.20126c0.20126 0.40251 0.20126 0.80503 0.20126 1.2076 0 1.6101-1.4088 3.0189-3.0189 3.0189-0.60378 0-1.2076-0.20125-1.8113-0.60377l-16.503-11.874-16.503 11.874h-0.20126c-0.40252 0.40252-1.2076 0.60377-1.8113 0.60377-1.6101 0-3.0189-1.4088-3.0189-3.0189 0-0.40252 0.20126-0.60378 0.20126-0.80504l6.4402-19.522zm37.836-150.74c-0.60378-0.60378-1.2076-1.4088-1.2076-2.2138 0-1.6101 1.4088-3.0189 3.0189-3.0189h20.73l6.4402-19.522c0.40251-1.2076 1.6101-2.0126 2.8176-2.0126 1.4088 0 2.4151 1.0063 2.8176 2.2138l6.4402 19.522h20.73c1.6101 0 3.0189 1.4088 3.0189 3.0189 0 1.0063-0.60378 1.8113-1.4088 2.4151l-16.704 12.075 6.239 19.12h-0.20125c0.20125 0.40252 0.20125 0.80503 0.20125 1.0063 0 1.6101-1.4088 3.0189-3.0189 3.0189-0.60378 0-1.2076-0.20126-1.8113-0.60378h-0.20126l-16.503-11.874-16.503 11.874c-0.60378 0.40252-1.2076 0.80503-1.8113 0.80503-1.6101 0-3.0189-1.2075-3.0189-3.0189 0-0.40252 0.20126-0.60378 0.20126-1.0063l6.4402-19.522zm107.47-117.94c-0.60377-0.60378-1.2075-1.4088-1.2075-2.2138 0-1.6101 1.4088-3.0189 3.0189-3.0189h20.73l6.4402-19.522c0.40251-1.2076 1.4088-2.0126 2.8176-2.0126s2.4151 0.80503 2.8176 2.2138l6.4402 19.522h20.73c1.6101 0 3.0189 1.4088 3.0189 3.0189 0 1.0063-0.60378 1.8113-1.4088 2.4151l-16.704 12.075 6.239 19.119-0.20126 0.20126c0.20126 0.40252 0.20126 0.60377 0.20126 1.0063 0 1.6101-1.4088 3.0189-3.0189 3.0189-0.60377 0-1.2075-0.20126-1.8113-0.60378h-0.20125l-16.503-11.874-16.503 11.874c-0.60378 0.40252-1.2076 0.60378-1.8113 0.60378-1.6101 0-3.0189-1.4088-3.0189-3.0189 0-0.40252 0.20126-0.60377 0.20126-0.80503l6.4402-19.522z" fill="#ffd040" stroke-width="2.0126"/>
 <path d="m786.31 63.396c-12.679-26.969-39.849-59.774-97.409-63.396h-573.99c-14.088 1.2075-41.459 5.6352-66.415 21.937-31.799 20.931-48.503 54.943-48.503 98.616v549.43c0 1.2075 0.20126 30.39 15.094 59.975 14.088 27.774 43.874 60.981 106.87 60.981h556.28c1.2076 0 30.591-0.20126 60.377-14.893 27.975-13.887 61.384-43.472 61.384-106.06v-549.43c0-1.2075-0.20126-28.579-13.686-57.157z" fill="#fff" stroke-width="2.0126"/>
 <path d="m775.45 72.654c-12.478-26.164-38.843-57.962-94.591-61.585h-557.89c-13.686 1.2075-40.453 5.434-64.604 21.333-30.792 20.528-47.094 53.535-47.094 96v533.74c0 1.2076 0.20126 29.585 14.692 58.365 13.686 26.969 42.667 59.17 103.85 59.17h540.58c1.2075 0 29.786-0.20126 58.767-14.491 27.17-13.484 59.774-42.264 59.774-103.04v-533.74c-0.20126-1.2076-0.40252-27.975-13.484-55.748z" fill="#005cb9" stroke-width="2.0126"/>
 <path d="m167.85 398.89c0 28.78 19.723 45.484 39.044 61.585 16.503 13.887 32.201 27.17 32.201 46.893 0 13.887-7.4465 27.975-24.151 27.975-16.302 0-20.73-19.925-24.755-37.635-3.0189-13.283-5.2327-23.748-12.88-23.748-9.8616 0-10.868 9.0566-11.472 23.748l-0.20126 3.2201c-0.20126 6.239-0.60377 14.893-0.60377 29.987 0 16.906 30.189 19.321 48.101 19.321 37.836 0 66.214-28.981 66.214-67.22 0-33.409-21.937-50.516-41.057-65.61-16.101-12.679-29.987-23.547-29.987-41.459 0-12.88 6.239-20.528 16.704-20.528 13.082 0 19.321 16.906 24.352 30.591 4.0252 10.868 7.2453 19.522 13.686 19.522 9.0566 0 9.0566-7.044 9.0566-16.101l0.20126-30.792c0-6.6415-3.8239-8.4528-7.2453-10.264l-1.0063-0.40251c-8.8553-4.2264-23.95-7.4465-35.22-7.4465-29.987-0.20126-60.981 21.736-60.981 58.365" fill="#ffd040" stroke-width="2.0126"/>
 <path d="m329.66 509.99v-72.252c0-4.8302 5.8365-8.0503 10.868-8.0503 13.887 0 21.736 16.906 21.736 46.491 0 24.151-3.2201 53.132-18.516 53.132-6.8428 0-14.088-6.8428-14.088-19.321m9.2579-96.403-5.2327 3.8239c-1.6101 1.2076-3.4214 2.6164-4.6289 3.2201-0.20125-1.8113-0.20125-5.434-0.20125-7.4466 0-3.0189 0-7.849-4.4277-7.849-1.4088 0-3.2201 1.0063-8.2516 4.0252-6.239 3.8239-15.698 9.4591-25.358 12.478-13.484 4.2264-19.321 6.6415-19.321 11.069 0 5.0314 4.4277 5.8365 7.4465 6.239 4.4277 0.80503 8.8553 1.4088 8.8553 11.472v130.21c0 8.0503-4.4277 9.4591-11.27 11.069-3.8239 0.80504-8.6541 1.8113-8.6541 6.4403 0 3.6226 3.2201 6.6415 7.044 6.6415l27.975-1.2076 40.453 1.2076c8.8554 0 9.6604-4.8302 9.6604-6.4403 0-6.8428-7.4465-7.044-12.277-7.4465-7.044-0.20125-10.868-6.0377-10.868-16.503v-34.415c0-1.2075 0.60377-1.4088 1.0063-1.4088 0.60378 0 3.2201 1.0063 5.434 1.6101 5.434 1.8113 12.88 4.4277 18.516 4.4277 32.403 0 54.943-35.623 54.943-67.623 0-33.208-12.679-72.05-48.704-72.05-9.0566 0.20126-16.906 4.8302-22.138 8.4528" fill="#ffd041" stroke-width="2.0126"/>
 <path d="m450.01 410.57c-9.2579 4.8302-21.736 11.472-33.006 14.289-4.8302 1.2076-7.6478 3.8239-7.6478 7.044 0 4.6289 4.6289 5.6352 8.0503 6.239 5.434 1.2076 7.849 2.2138 7.849 6.4402v77.887c0 3.0189-1.8113 3.8239-6.0377 4.8302-3.4214 0.80503-8.0503 2.0126-8.0503 7.044 0 4.2264 3.6226 6.8428 9.2579 6.8428l6.0377-0.20125c5.0314-0.20126 12.478-0.80504 21.535-0.80504l24.755 1.0063c10.063 0 11.673-4.2264 11.673-6.8428 0-5.6352-4.8302-6.4403-8.4528-7.044-4.8302-1.0063-8.6541-1.6101-8.6541-9.0566v-101.03c0-6.8428 0-11.874-5.2327-11.874-2.0126 0-5.0314 1.4088-12.075 5.2327m-27.17-34.616c0 13.283 9.8616 23.145 23.547 23.145 13.686 0 23.547-9.6604 23.547-23.145 0-13.283-9.8616-22.943-23.547-22.943-13.686 0-23.547 9.6604-23.547 22.943m122.16 41.862-3.6226 3.2201c-1.0063 0.80503-2.0126 1.8113-2.4151 2.0126v-11.673c0-5.434-3.0189-6.0377-4.4277-6.0377s-2.8176 0.80503-8.0503 4.0252c-8.0503 4.6289-21.333 12.679-33.811 15.497-4.2264 1.0063-6.6415 3.6226-6.6415 7.044 0 4.4277 4.0252 5.6352 7.044 6.239 4.2264 1.0063 6.6415 1.8113 6.6415 6.4402v77.887c0 3.6226-1.8113 4.2264-5.434 5.0314-3.0189 0.80503-7.4465 1.8113-7.4465 6.8428 0 4.6289 3.2201 7.044 9.2579 7.044l6.8428-0.40251c4.6289-0.40252 11.069-0.80504 17.107-0.80504l12.881 0.60378 11.069 0.60377c2.2138 0 9.0566 0 9.0566-6.0377 0-5.0314-3.6226-6.239-6.0377-6.8428-3.0189-0.80503-5.2327-1.6101-5.2327-8.4528v-76.277c0-9.4591 4.8302-14.692 13.686-14.692 8.6541 0 13.082 5.2327 13.082 14.692v78.692c0 4.4277-1.6101 4.8302-4.2264 5.434-2.4151 0.60378-6.239 1.4088-6.239 6.4403 0 4.6289 3.0189 7.044 9.2579 7.044l8.2516-0.40251c4.0252-0.20126 8.4528-0.60378 14.088-0.60378l13.484 0.60378 14.692 0.60377c6.4402 0 8.8553-3.6226 8.8553-7.044 0-4.8302-4.0252-5.6352-7.044-6.239-1.6101-0.40252-3.2201-0.60377-4.8302-1.4088-1.8113-0.80504-4.0252-7.4466-4.0252-14.491v-64.604c0-26.566-13.686-42.465-36.629-42.465-12.478 0-22.742 6.8428-29.182 12.478m-286.19-165.23c0 1.6101 0.60377 2.0126 5.8365 2.0126 7.2453 0 9.6604-2.6164 11.472-6.8428 1.8113-4.6289 1.8113-7.8491 5.2327-7.8491 1.6101 0 2.6164 1.0063 2.6164 3.6226 0 4.2264-0.60377 9.6604-0.60377 16.101 0 7.044 0.60377 11.069 0.60377 15.094 0 2.6164-0.60377 4.0252-3.2201 4.0252-3.2201 0-3.6226-3.0189-5.8365-8.6541-1.6101-4.4277-3.6226-7.4465-10.667-7.4465-4.0252 0-5.6352 0.40252-5.6352 1.6101v42.063c0 6.0377 2.0126 7.044 8.2516 7.044 24.956 0 17.912-27.572 27.975-27.572 3.0189 0 3.6226-2.8176 3.6226 19.119 0 15.698-0.40252 16.302-5.8365 16.302s-15.094-0.80503-33.006-0.80503c-23.145 0-29.585 0.80503-33.208 0.80503-2.8176 0-4.4277-0.60377-4.4277-2.6164 0-2.6164 1.2076-4.0252 4.6289-4.4277 4.4277-0.80504 6.0377-3.4214 6.0377-10.063v-85.736c0-13.082-10.465-6.0377-10.465-13.082 0-2.6164 3.6226-2.6164 7.8491-2.6164 8.4528 0 19.925 0.80503 29.987 0.80503 6.4402 0 20.126-0.80503 30.189-0.80503 3.6226 0 4.6289 1.4088 4.6289 4.2264v19.723c0 4.2264-1.4088 6.0377-4.2264 6.0377-5.434 0-7.6478-21.937-25.962-21.937-4.2264 0-6.239 1.2076-6.239 2.8176zm182.54 5.8365c-0.60377 0-1.6101-0.40252-1.6101-1.0063v-40.252c0-7.044 1.8113-8.6541 5.2327-8.6541 9.0566 0 15.296 11.472 15.296 24.553 0.20126 14.893-7.044 25.358-18.918 25.358m45.887 47.296-11.673-33.006c-2.2138-7.4465-4.2264-12.277-6.239-15.094 8.0503-2.8176 17.107-9.4591 17.107-25.56 0-19.723-13.484-29.384-31.597-29.384-10.868 0-20.931 0.80503-27.774 0.80503-10.667 0-15.899-0.80503-19.321-0.80503-2.8176 0-4.4277 0.60377-4.4277 2.6164 0 2.2138 2.8176 2.8176 5.434 3.4214 2.6164 0.60377 5.434 2.6164 5.434 8.2516v90.164c0 5.6352-2.6164 6.6415-5.434 7.044-2.6164 0.60377-4.6289 1.2075-4.6289 4.4277 0 2.0126 1.6101 2.6164 3.6226 2.6164 3.6226 0 8.6541-0.80503 19.321-0.80503 10.667 0 15.698 0.80503 18.717 0.80503 3.0189 0 4.6289-0.60377 4.6289-2.6164 0-3.6226-2.8176-3.0189-6.0377-4.4277-4.0252-1.8113-4.2264-6.4403-4.2264-12.075v-35.019c0-0.80504 0.40252-1.4088 1.6101-1.4088 4.8302 0 6.6415 4.2264 8.8553 10.868l11.874 36.226c2.6164 8.0503 3.2201 8.8554 10.465 8.8554h22.742c1.6101 0 3.0189-0.80503 3.0189-2.8176-0.20126-5.6352-6.4402 0.40251-11.472-13.082m55.95-99.22c-11.069 0-16.906 23.346-16.906 42.868 0 36.025 7.849 68.226 21.535 68.226 10.063 0 15.899-18.314 15.899-46.692 0-29.786-7.044-64.403-20.528-64.403m2.0126 117.13c-29.987 0-46.893-33.409-46.893-61.585 0-32 16.302-61.585 46.893-61.585 29.987 0 46.893 33.409 46.893 61.585 0 32-16.503 61.585-46.893 61.585m-192.6 0c-21.937 0-39.245-10.063-39.245-34.415v-72.252c0-3.4214-1.0063-6.6415-3.0189-7.044-3.6226-0.80503-7.044-1.8113-7.044-4.4277 0-1.4088 0.80503-2.6164 3.2201-2.6164 4.0252 0 9.2579 0.80503 19.925 0.80503 5.6352 0 10.465-0.80503 17.711-0.80503 2.4151 0 4.6289 1.0063 4.4277 3.4214-0.60378 4.8302-9.0566 0.20126-9.0566 8.4528v81.509c0 13.686 5.2327 19.925 14.893 19.925h-3.2201c9.6604 0 14.893-6.239 14.893-19.925v-81.509c0-8.2516-8.6541-3.6226-9.0566-8.4528-0.20126-2.4151 2.0126-3.4214 4.4277-3.4214 7.2453 0 12.075 0.80503 17.711 0.80503 10.667 0 15.899-0.80503 19.925-0.80503 2.4151 0 3.2201 1.2076 3.2201 2.6164 0 2.6164-3.4214 3.8239-7.044 4.4277-2.0126 0.40252-3.0189 3.8239-3.0189 7.044v72.252c0 24.352-17.308 34.415-39.245 34.415z" fill="#fff" stroke-width="2.0126"/>
 <path d="m8.8553 669.99s0 112.1 112.91 112.1h556.28s112.91 0 112.91-112.1v-549.43s0-105.06-102.64-111.7h-572.58c-23.547 2.0126-106.87 15.698-106.87 111.7z" fill="none" stroke-width="2.0126"/>
 <path d="m428.88 81.509c0.60378-0.60378 1.2076-1.4088 1.2076-2.2138 0-1.6101-1.4088-3.0189-3.0189-3.0189h-20.73l-6.4402-19.522c-0.40251-1.2076-1.4088-2.0126-2.8176-2.0126s-2.4151 1.0063-2.8176 2.2138l-6.4402 19.522h-20.73c-1.6101 0-3.0189 1.4088-3.0189 3.0189 0 1.0063 0.60378 1.8113 1.4088 2.4151l16.906 12.075-6.239 19.119c-0.20125 0.40252-0.20125 0.80503-0.20125 1.2076 0 1.6101 1.4088 3.0189 3.0189 3.0189 0.60378 0 1.2076-0.20126 1.8113-0.60378l16.503-11.874 16.503 11.874v-0.20125c0.60378 0.40251 1.2076 0.60377 1.8113 0.60377 1.6101 0 3.0189-1.4088 3.0189-3.0189 0-0.40251 0-0.60377-0.20126-0.80503l-6.4402-19.522zm0 612.83c0.60378-0.60378 1.2076-1.4088 1.2076-2.2138 0-1.6101-1.4088-3.0189-3.0189-3.0189h-20.73l-6.4402-19.522c-0.40251-1.2076-1.4088-2.0126-2.8176-2.0126s-2.4151 1.0063-2.8176 2.2138l-6.4402 19.522h-20.73c-1.6101 0-3.0189 1.4088-3.0189 3.0189 0 1.0063 0.60378 1.8113 1.4088 2.4151l16.906 12.075-6.239 19.12c-0.20125 0.40252-0.20125 0.80503-0.20125 1.0063 0 1.6101 1.4088 3.0189 3.0189 3.0189 0.60378 0 1.2076-0.20126 1.8113-0.60378l16.503-11.874 16.503 11.874c0.60378 0.40252 1.2076 0.80504 1.8113 0.80504 1.6101 0 3.0189-1.4088 3.0189-3.0189 0-0.40252 0-0.60378-0.20126-1.0063l-6.4402-19.321zm155.37-47.497c0.60378-0.60377 1.2076-1.4088 1.2076-2.2138 0-1.6101-1.4088-3.0189-3.0189-3.0189h-20.73l-6.4402-19.522c-0.40252-1.2075-1.4088-2.0126-2.8176-2.0126s-2.4151 0.80503-2.8176 2.0126l-6.4402 19.522h-20.73c-1.6101 0-3.0189 1.4088-3.0189 3.0189 0 1.0063 0.60377 1.8113 1.4088 2.4151l16.704 12.075-6.239 19.12c-0.20125 0.40251-0.20125 0.80503-0.20125 1.0063 0 1.6101 1.4088 3.0189 3.0189 3.0189 0.60378 0 1.2076-0.20125 1.8113-0.60377l16.503-11.874 16.503 11.874c0.60378 0.40252 1.2076 0.80503 1.8113 0.80503 1.6101 0 3.0189-1.4088 3.0189-3.0189 0-0.40251 0-0.60377-0.20125-0.80503l-6.239-19.723zm118.94-108.28c0.60377-0.60377 1.2076-1.4088 1.2076-2.2138 0-1.6101-1.4088-3.0189-3.0189-3.0189h-20.73l-6.4402-19.522c-0.40252-1.2075-1.6101-2.0126-2.8176-2.0126-1.4088 0-2.4151 1.0063-2.8176 2.2138l-6.4403 19.522h-20.73c-1.6101 0-3.0189 1.4088-3.0189 3.0189 0 1.0063 0.60377 1.8113 1.4088 2.4151l16.704 12.075-6.239 19.12c-0.20126 0.40251-0.20126 0.80503-0.20126 1.0063 0 1.6101 1.4088 3.0189 3.0189 3.0189 0.60377 0 1.2076-0.20125 1.8113-0.60377l16.503-11.874 16.503 11.874c0.60377 0.40252 1.2076 0.80503 1.8113 0.80503 1.6101 0 3.0189-1.4088 3.0189-3.0189 0-0.40251 0-0.60377-0.20126-1.0063l-6.239-19.522zm33.208-157.38c0.60377-0.60377 1.2075-1.4088 1.2075-2.2138 0-1.6101-1.4088-3.0189-3.0189-3.0189h-20.73l-6.4403-19.522c-0.40251-1.2076-1.6101-2.0126-2.8176-2.0126-1.4088 0-2.4151 0.80503-2.8176 2.2138l-6.239 19.522h-20.73c-1.6101 0-3.0189 1.4088-3.0189 3.0189 0 1.0063 0.60378 1.8113 1.4088 2.4151l16.704 12.075-6.239 19.12c-0.20126 0.40251-0.20126 0.80503-0.20126 1.2076 0 1.6101 1.4088 3.0189 3.0189 3.0189 0.60377 0 1.2075-0.20125 1.8113-0.60377l16.503-11.874 16.503 11.874c0.60377 0.40252 1.2075 0.60377 1.8113 0.60377 1.6101 0 3.0189-1.4088 3.0189-3.0189 0-0.40252-0.20125-0.60378-0.20125-0.80504l-6.4402-19.522zm-38.038-150.74c0.60377-0.60378 1.2076-1.4088 1.2076-2.2138 0-1.6101-1.4088-3.0189-3.0189-3.0189h-20.73l-6.4402-19.522c-0.40252-1.2076-1.6101-2.0126-2.8176-2.0126-1.4088 0-2.4151 1.0063-2.8176 2.2138l-6.4402 19.522h-20.73c-1.6101 0-3.0189 1.4088-3.0189 3.0189 0 1.0063 0.60377 1.8113 1.4088 2.4151l16.704 12.075-6.239 19.12c-0.20126 0.40252-0.20126 0.80503-0.20126 1.0063 0 1.6101 1.4088 3.0189 3.0189 3.0189 0.60378 0 1.2076-0.20126 1.8113-0.60378l16.503-11.874 16.503 11.874c0.60378 0.40252 1.2076 0.80503 1.8113 0.80503 1.6101 0 3.0189-1.2075 3.0189-3.0189 0-0.40252 0-0.60378-0.20126-1.0063l-6.4402-19.522zm-107.47-117.94c0.60378-0.60378 1.2076-1.4088 1.2076-2.2138 0-1.6101-1.4088-3.0189-3.0189-3.0189h-20.73l-6.4402-19.522c-0.40252-1.2076-1.6101-2.0126-2.8176-2.0126-1.4088 0-2.4151 0.80503-2.8176 2.2138l-6.4402 19.522h-20.931c-1.6101 0-3.0189 1.4088-3.0189 3.0189 0 1.0063 0.60378 1.8113 1.4088 2.4151l16.704 12.075-6.239 19.119v0.20126c-0.20126 0.40252-0.20126 0.60377-0.20126 1.0063 0 1.6101 1.4088 3.0189 3.0189 3.0189 0.60377 0 1.2075-0.20126 1.8113-0.60378l16.503-11.874 16.503 11.874c0.60377 0.40252 1.2075 0.60378 1.8113 0.60378 1.6101 0 3.0189-1.4088 3.0189-3.0189 0-0.40252-0.20126-0.60377-0.20126-0.80503l-6.4402-19.522zm-381.38 534.34c-0.60377-0.60377-1.2075-1.4088-1.2075-2.2138 0-1.6101 1.4088-3.0189 3.0189-3.0189h20.73l6.4403-19.522c0.40251-1.2075 1.6101-2.0126 2.8176-2.0126 1.4088 0 2.4151 0.80503 2.8176 2.0126l6.4402 19.522h20.73c1.6101 0 3.0189 1.4088 3.0189 3.0189 0 1.0063-0.60378 1.8113-1.4088 2.4151l-16.704 12.075 6.239 19.12h-0.20126c0.20126 0.40251 0.20126 0.80503 0.20126 1.0063 0 1.6101-1.4088 3.0189-3.0189 3.0189-0.60377 0-1.2075-0.20125-1.8113-0.60377h-0.20125l-16.503-11.874-16.503 11.874c-0.60378 0.40252-1.2076 0.80503-1.8113 0.80503-1.6101 0-3.0189-1.4088-3.0189-3.0189 0-0.40251 0.20125-0.60377 0.20125-0.80503l6.4403-19.522zm-118.94-108.28c-0.60378-0.60377-1.2076-1.4088-1.2076-2.2138 0-1.6101 1.4088-3.0189 3.0189-3.0189h20.73l6.4402-19.522c0.40252-1.2075 1.6101-2.0126 2.8176-2.0126 1.4088 0 2.4151 1.0063 2.8176 2.2138l6.4402 19.522h20.73c1.6101 0 3.0189 1.4088 3.0189 3.0189 0 1.0063-0.60377 1.8113-1.4088 2.4151l-16.704 12.075 6.239 19.12h-0.20126c0.20126 0.40251 0.20126 0.80503 0.20126 1.0063 0 1.6101-1.4088 3.0189-3.0189 3.0189-0.60378 0-1.2076-0.20125-1.8113-0.60377h-0.20126l-16.503-11.874-16.503 11.874c-0.60377 0.40252-1.2076 0.80503-1.8113 0.80503-1.6101 0-3.0189-1.4088-3.0189-3.0189 0-0.40251 0.20126-0.60377 0.20126-1.0063l6.4402-19.522zm-33.006-157.38c-0.60378-0.60377-1.2076-1.4088-1.2076-2.2138 0-1.6101 1.4088-3.0189 3.0189-3.0189h20.73l6.4402-19.522c0.40252-1.2076 1.6101-2.0126 2.8176-2.0126 1.4088 0 2.4151 0.80503 2.8176 2.2138l6.4402 19.522h20.73c1.6101 0 3.0189 1.4088 3.0189 3.0189 0 1.0063-0.60377 1.8113-1.4088 2.4151l-16.704 12.075 6.239 19.12h-0.20126c0.20126 0.40251 0.20126 0.80503 0.20126 1.2076 0 1.6101-1.4088 3.0189-3.0189 3.0189-0.60378 0-1.2076-0.20125-1.8113-0.60377l-16.503-11.874-16.503 11.874h-0.20126c-0.40252 0.40252-1.2076 0.60377-1.8113 0.60377-1.6101 0-3.0189-1.4088-3.0189-3.0189 0-0.40252 0.20126-0.60378 0.20126-0.80504l6.4402-19.522zm37.836-150.74c-0.60378-0.60378-1.2076-1.4088-1.2076-2.2138 0-1.6101 1.4088-3.0189 3.0189-3.0189h20.73l6.4402-19.522c0.40251-1.2076 1.6101-2.0126 2.8176-2.0126 1.4088 0 2.4151 1.0063 2.8176 2.2138l6.4402 19.522h20.73c1.6101 0 3.0189 1.4088 3.0189 3.0189 0 1.0063-0.60378 1.8113-1.4088 2.4151l-16.704 12.075 6.239 19.12h-0.20125c0.20125 0.40252 0.20125 0.80503 0.20125 1.0063 0 1.6101-1.4088 3.0189-3.0189 3.0189-0.60378 0-1.2076-0.20126-1.8113-0.60378h-0.20126l-16.503-11.874-16.503 11.874c-0.60378 0.40252-1.2076 0.80503-1.8113 0.80503-1.6101 0-3.0189-1.2075-3.0189-3.0189 0-0.40252 0.20126-0.60378 0.20126-1.0063l6.4402-19.522zm107.47-117.94c-0.60377-0.60378-1.2075-1.4088-1.2075-2.2138 0-1.6101 1.4088-3.0189 3.0189-3.0189h20.73l6.4402-19.522c0.40251-1.2076 1.4088-2.0126 2.8176-2.0126s2.4151 0.80503 2.8176 2.2138l6.4402 19.522h20.73c1.6101 0 3.0189 1.4088 3.0189 3.0189 0 1.0063-0.60378 1.8113-1.4088 2.4151l-16.704 12.075 6.239 19.119-0.20126 0.20126c0.20126 0.40252 0.20126 0.60377 0.20126 1.0063 0 1.6101-1.4088 3.0189-3.0189 3.0189-0.60377 0-1.2075-0.20126-1.8113-0.60378h-0.20125l-16.503-11.874-16.503 11.874c-0.60378 0.40252-1.2076 0.60378-1.8113 0.60378-1.6101 0-3.0189-1.4088-3.0189-3.0189 0-0.40252 0.20126-0.60377 0.20126-0.80503l6.4402-19.522z" fill="#ffd040" stroke-width="2.0126"/>
</svg>
