<svg enable-background="new 0 0 1267.6 500" space="preserve" version="1.1" viewBox="0 0 1267.6 500" xmlns="http://www.w3.org/2000/svg">
 <path d="m0 0v500h500v-500h-500zm417.6 138.2c14.7 0 26.5 11.8 26.5 26.5 0 13.2-11.7 26.5-26.5 26.5-14.7 0-26.5-11.8-26.5-26.5s11.8-26.5 26.5-26.5zm-360.2 14.701h76.5c38.2 0 67.6 19.099 67.6 60.299 0 26.5-14.7 50-42.6 55.9l61.799 80.9h-63.199v-1.5h-0.09961l-48.5-75v75h-51.5v-195.6zm51.4 38.299v48.5h4.3984c16.2 0 35.301-2.9 35.301-25 0-20.6-19.101-23.5-35.301-23.5h-4.3984zm169.1 20.5c14.7 0 30.899 5.9016 41.199 17.602v-13.201h48.5v132.4h-47.1v-14.699c-8.8 13.2-26.499 19.1-41.199 19.1-39.7 0-67.602-32.4-67.602-70.6s27.901-70.602 66.201-70.602zm116.2 3h47.1v133.8h-47.1v-133.8zm-102.9 36.801c-19.1 0-30.898 13.2-30.898 29.4s11.798 29.4 30.898 29.4 30.9-13.2 30.9-29.4c0-14.7-11.8-29.4-30.9-29.4z" fill="#009"/>
 <g fill="#009">
  <path d="m625 182.4v36.8h-70.6v-36.8h17.6v-104.5h-17.6v-35.3h70.6c20.6 0 36.8 0 50 10.3 14.7 10.3 25 29.4 25 48.5 0 25-11.8 45.6-33.8 54.4l22.1 26.5h16.2v36.8h-38.2l-51.5-63.2v26.5h10.2zm-2.9-58.9c22.1 0 32.4-5.9 32.4-20.6 0-16.2-8.8-20.6-30.9-20.6h-10.3v41.2z"/>
  <path d="m776.5 220.6c-38.2 0-67.6-29.4-67.6-70.6s27.9-70.6 67.6-70.6c19.1 0 32.4 5.9 41.2 19.1v-16.1h52.9v35.3h-14.7v64.7h14.7v36.8h-54.4v-14.7c-8.8 11.7-22.1 16.1-39.7 16.1zm7.3-35.3c19.1 0 32.4-14.7 32.4-33.8s-13.2-33.8-32.4-33.8c-19.1 0-32.4 14.7-32.4 33.8s13.3 33.8 32.4 33.8z"/>
  <path d="m942.6 220.6c-38.2 0-67.6-29.4-67.6-70.6s27.9-70.6 67.6-70.6c19.1 0 32.4 5.9 41.2 19.1v-22h-14.7v-33.9h52.9v141.2h14.7v36.8h-54.4v-14.7c-8.8 10.3-22 14.7-39.7 14.7zm7.4-35.3c19.1 0 32.4-14.7 32.4-33.8s-13.2-33.8-32.4-33.8c-19.1 0-32.4 14.7-32.4 33.8s13.3 33.8 32.4 33.8z"/>
  <path d="m1064.7 117.6h-16.2v-35.2h54.4v100h17.6v36.8h-73.5v-36.8h17.6c0.1 0 0.1-64.8 0.1-64.8zm0-75h38.2v32.4h-38.2z"/>
  <path d="m1144.1 100c13.2-13.2 32.4-20.6 51.5-20.6s38.2 7.4 51.5 20.6c13.2 13.2 20.6 30.9 20.6 51.5s-7.4 38.2-20.6 51.5c-13.2 13.2-32.4 20.6-51.5 20.6s-38.2-7.4-51.5-20.6-20.6-30.9-20.6-51.5 7.4-38.3 20.6-51.5zm51.5 83.8c17.6 0 32.4-14.7 32.4-33.8s-13.2-33.8-32.4-33.8c-17.6 0-32.4 14.7-32.4 33.8 1.5 19.1 14.7 33.8 32.4 33.8z"/>
 </g>
 <g fill="#009">
  <path d="m661.8 419.1v36.8h-76.5v-36.8h17.6v-104.4h-16.2v23.5h-32.4v-58.8h139.7v60.3h-32.4v-23.5h-16.2v104.4h16.2v-1.5z"/>
  <path d="m720.4 419.8v-64.4h-15.6v-35.7h52.1v19.7c3.6-7.2 8.4-12.6 14.4-16.2 3-1.8 6.4-3.2 10.1-4.2 3.8-1 7.8-1.5 12.2-1.5v37.9c-6.1 0-11.3 0.8-15.7 2.5s-8.2 4-11.1 7.1c-5.4 5.8-8.1 14.9-8.1 27.4v27.4h15.6v36h-71.1v-36z"/>
  <path d="m805.6 413.8h36.7c0 2.4 0.3 4.5 1 6.3s1.8 3.4 3.2 4.8c2.7 2.5 6.5 3.8 11.4 3.8 4.6 0 8.2-1 10.7-3.1s3.8-5 3.8-8.9c0-5.6-6.1-9.8-18.2-12.7l-11.2-2.9c-12.8-3.6-22.2-8.8-28.2-15.6s-9-15.6-9-26.5c0-12.8 4.3-23.2 12.9-31.1s20-11.8 34-11.8c2.7 0 5.4 0.2 7.9 0.5s4.9 0.8 7.2 1.6c4.5 1.4 8.8 3.6 12.8 6.7v-5.7h28.3v38.6h-36c-0.7-4.4-2.1-7.5-4-9.4s-4.8-2.9-8.6-2.9c-3.9 0-7 1-9.4 2.8-2.4 1.9-3.6 4.3-3.6 7.3 0 3.7 1.3 6.6 3.9 8.7s9.1 4.5 19.4 7.1c17 4.4 28.6 9.7 35 16.1s9.6 15.4 9.6 27c0 13.2-4.6 24-13.9 32.3-9.2 8.3-21.2 12.4-35.9 12.4-5.9 0-11.3-0.8-16.2-2.5s-9.5-4.3-13.8-7.9v6.9h-29.8z"/>
  <path d="m940.3 455.7v-100.4h-17.1v-35.7h17.1v-40.2h39.2v40.2h17.1v35.7h-17.1v64.4h13.1v36z"/>
  <path d="m1121.3 404.9-5 14.4h14.7v36.4h-76.4v-36.4h17.1l39.7-103.7h-17.1v-36.2h66.1l53.6 139.9h17.1v36.4h-76.4v-36.4h14.4l-4.5-14.4zm34.1-33.9-12.4-40-12.1 40z"/>
 </g>
</svg>
