<svg width="720.84mm" height="285.22mm" version="1.1" viewBox="0 0 720.84 285.22" xmlns="http://www.w3.org/2000/svg">
 <g transform="translate(377.43 -6.2229)">
  <g transform="matrix(.26458 0 0 .26458 -377.43 6.2229)" fill="#2dbbee">
   <path d="m0 0v1078h1078v-1078zm338.13 749-103.23-162h-0.903v162h-110v-421h163.91c83.142 0 146.2 39.833 146.2 129.67 0 58.032-32.364 108.28-92.07 118.88l132.25 172.45zm452.87 3h-102v-32h-1.409c-18.031 29-53.531 41.673-87.34 41.673-85.649 0-145.94-71.573-145.94-154.4 0-82.833 59.306-153.84 144.96-153.84 33.245 0 67.734 12.39 89.734 37.747v-28.177h102v289zm161-1h-102v-286h102zm-51.063-339.1c-31.248 0-56.916-25.668-56.916-56.916s25.668-56.916 56.916-56.916 56.916 25.668 56.916 56.916-25.668 56.916-56.916 56.916z"/>
   <path d="m244.39 412h-10.389v105h10.389c35.712 0 75.888-6.744 75.888-52.5s-40.176-52.5-75.888-52.5z"/>
   <path d="m626.17 542.45c-41.698 0-65.927 29.863-65.927 65.363 0 36.626 24.229 64.801 65.927 64.801s65.928-28.175 65.928-64.801c0-35.5-24.23-65.363-65.928-65.363z"/>
   <path d="m1318.5 390.21h22.461v77.709h-151.29v-77.709h36.401v-220.99h-36.401v-77.193h151.29c32.355 0 55.462 1.593 69.318 4.776 13.853 3.187 26.115 8.479 36.788 15.878 16.008 10.843 28.658 25.559 37.952 44.147s13.941 38.556 13.941 59.896c0 25.991-6.241 49.182-18.718 69.576-12.48 20.396-29.733 36.015-51.764 46.858l46.729 57.056h35.37v77.709h-81.324l-110.76-134.76v57.056zm0-124.7h18.071c23.752 0 41.05-3.614 51.893-10.843s16.264-18.588 16.264-34.078c0-15.833-4.69-27.108-14.069-33.82-9.383-6.712-25.946-10.069-49.697-10.069h-22.461v88.81z"/>
   <path d="m1753.4 436.65c-9.487 12.222-21.347 21.343-35.579 27.366-14.231 6.022-30.665 9.036-49.294 9.036-40.884 0-74.866-14.111-101.95-42.34-27.084-28.225-40.626-63.938-40.626-107.14 0-43.199 13.425-78.956 40.274-107.27 26.85-28.31 60.84-42.469 101.98-42.469 19.79 0 36.919 3.316 51.377 9.94 14.457 6.627 26.934 16.91 37.434 30.851v-35.885h111.01v76.16h-31.496v137.35h31.496v76.676h-114.63v-32.271zm-139.67-113.08c0 21 6.584 38.298 19.751 51.892 13.166 13.599 29.903 20.396 50.214 20.396 20.138 0 36.789-6.797 49.956-20.396 13.166-13.594 19.75-30.892 19.75-51.892 0-21.17-6.543-38.552-19.621-52.15-13.082-13.594-29.778-20.396-50.085-20.396-20.311 0-37.048 6.841-50.214 20.525-13.167 13.683-19.751 31.025-19.751 52.021z"/>
   <path d="m2110.7 435.65c-9.487 12.222-21.348 21.343-35.579 27.366s-30.666 9.036-49.294 9.036c-40.884 0-74.866-14.111-101.95-42.34-27.084-28.225-40.626-63.938-40.626-107.14 0-43.199 13.425-78.956 40.274-107.27 26.85-28.31 60.839-42.469 101.98-42.469 19.79 0 36.919 3.316 51.376 9.94 14.458 6.627 26.935 16.91 37.435 30.851v-48.02h-31.497v-73.578h111.01v299.22h31.496v76.676h-114.63v-32.27zm-139.67-113.08c0 21 6.584 38.298 19.751 51.892 13.166 13.599 29.903 20.396 50.214 20.396 20.137 0 36.789-6.797 49.956-20.396 13.166-13.594 19.75-30.892 19.75-51.892 0-21.17-6.544-38.552-19.621-52.15-13.082-13.594-29.778-20.396-50.085-20.396-20.311 0-37.048 6.841-50.214 20.525-13.167 13.683-19.751 31.025-19.751 52.021z"/>
   <path d="m2288.8 391.25v-137.35h-35.369v-76.16h117.21v213.51h36.659v76.676h-154.9v-76.676zm0-229.51v-69.706h81.841v69.706z"/>
   <path d="m2415.2 322.44c0-21.323 3.785-41.142 11.359-59.456 7.573-18.314 18.545-34.566 32.917-48.754 14.369-14.188 31.151-25.151 50.344-32.888 19.188-7.737 39.282-11.61 60.282-11.61 21.34 0 41.393 3.784 60.154 11.352 18.757 7.567 35.324 18.443 49.697 32.63 14.369 14.188 25.386 30.525 33.046 49.012 7.656 18.488 11.489 38.391 11.489 59.714s-3.704 41.146-11.102 59.46c-7.402 18.314-18.42 34.567-33.046 48.754-14.632 14.188-31.412 25.147-50.344 32.884-9.467 3.614-19.104 6.362-28.915 8.257-9.81 1.888-20.137 2.836-30.98 2.836-21.516 0-41.609-3.743-60.282-11.218-18.677-7.479-35.284-18.27-49.827-32.373-14.546-14.102-25.646-30.48-33.304-49.141-7.66-18.66-11.488-38.478-11.488-59.459zm87.263 0c0 19.589 6.623 36.427 19.879 50.513 13.251 14.087 29.173 21.13 47.761 21.13 18.416 0 34.248-6.999 47.503-21 13.253-14.002 19.88-30.884 19.88-50.642 0-20.101-6.543-37.197-19.621-51.283-13.082-14.086-29.004-21.134-47.762-21.134-18.418 0-34.296 7.047-47.633 21.134-13.339 14.085-20.007 31.181-20.007 51.282z"/>
  </g>
  <path d="m-28.086 245.91h9.3176v18.772h-43.368v-20.622h9.6599v-58.646h-9.6599v-20.485h43.368v18.909h-9.3176v26.034l26.103-26.034h-10.482v-18.909h43.231v20.485h-8.4272l-27.953 28.09 31.584 30.556h5.892v20.622h-43.368v-18.772h9.5229l-26.103-26.034v26.034z" fill="#fe0000" stroke-width=".26458"/>
  <path d="m47.912 244.33v-36.448h-9.3861v-20.211h31.104v56.659h9.7287v20.348h-41.107v-20.348h9.6599zm0-60.907v-18.498h21.718v18.498z" fill="#02ad45" stroke-width=".26458"/>
  <path d="m139.98 256.12c-2.5178 3.2438-5.665 5.6639-9.4419 7.2626-3.7764 1.5981-8.1378 2.3979-13.081 2.3979-10.85 0-19.867-3.7444-27.054-11.236-7.1877-7.4904-10.781-16.967-10.781-28.432 0-11.464 3.5626-20.953 10.688-28.467 7.1252-7.5128 16.145-11.27 27.062-11.27 5.252 0 9.7973 0.87974 13.634 2.6376 3.8367 1.7584 7.1474 4.4876 9.934 8.1867v-12.743h-8.3585v-19.526h29.46v79.405h8.3585v20.348h-30.419zm-37.065-30.008c0 5.5729 1.7473 10.163 5.2414 13.771 3.4938 3.6086 7.9354 5.4126 13.325 5.4126 5.3438 0 9.7626-1.8039 13.257-5.4126 3.4938-3.6076 5.2411-8.1978 5.2411-13.771 0-5.6182-1.7365-10.231-5.207-13.84-3.4716-3.6073-7.9026-5.412-13.291-5.412-5.3901 0-9.8316 1.8153-13.325 5.4467-3.4941 3.6309-5.2414 8.2328-5.2414 13.805z" fill="#f63683" stroke-width=".26458"/>
  <path d="m176.69 240.98h20.759c0 1.3705 0.19367 2.5588 0.58261 3.5626 0.38761 1.0054 0.99324 1.9185 1.8153 2.7406 1.552 1.4163 3.6994 2.1238 6.44 2.1238 2.6035 0 4.613-0.58261 6.0291-1.7473 1.4153-1.1647 2.1238-2.8432 2.1238-5.0356 0-3.1514-3.4364-5.5494-10.308-7.1935l-6.3492-1.6441c-7.2366-2.0558-12.561-5.0014-15.974-8.8381-3.4129-3.8367-5.1192-8.8381-5.1192-15.004 0-7.2623 2.4352-13.12 7.307-17.573 4.871-4.4532 11.291-6.6799 19.258-6.6799 1.5478 0 3.0379 0.0921 4.4725 0.27384 1.4343 0.1831 2.7884 0.47969 4.0632 0.89086 2.5487 0.77734 4.962 2.0328 7.2387 3.7679v-3.22h16.032v21.855h-20.348c-0.4109-2.4662-1.1644-4.2474-2.2606-5.3435-1.0964-1.0962-2.7178-1.6441-4.8646-1.6441-2.1923 0-3.9627 0.53683-5.3094 1.6097-1.348 1.0739-2.0212 2.4556-2.0212 4.1452 0 2.101 0.74189 3.7452 2.2265 4.9329 1.4835 1.188 5.1493 2.5347 10.996 4.042 9.5917 2.4662 16.191 5.5044 19.8 9.112 3.6076 3.6084 5.4126 8.7008 5.4126 15.278 0 7.4914-2.6154 13.577-7.8446 18.258-5.2305 4.6823-12.001 7.0228-20.314 7.0228-3.3348 0-6.3952-0.47969-9.1805-1.4388-2.7863-0.95912-5.3898-2.4429-7.8102-4.4535v3.9052h-16.854v-23.705z" fill="#ffb502" stroke-width=".26458"/>
 </g>
</svg>
