<svg version="1.1" viewBox="0 0 800 739.66" xml:space="preserve" xmlns="http://www.w3.org/2000/svg"><g transform="matrix(1.3333 0 0 -1.3333 -335.02 1706.6)"><g fill="#db1f26"><path d="m563.7 1266.9s0 2.3869-2.0764 3.5513l-15.932 8.9461s-2.0764 1.1644-4.1593 0l-15.919-8.9461s-2.0829-1.1644-2.0829-3.5513v-18.746s0-2.387 2.0829-3.5513l15.926-8.9462s2.0764-1.1643 4.1529 0l15.932 8.9462s2.0764 1.1643 2.0764 3.5513z"/><path d="m716.49 787.1s0.57571-0.53043-34.019 31.011c0 0-0.57571 0.53043 0.25875 0.53043 0.38165 0 17.439 0.0259 17.439 0.0259 2.5745 0 5.0908 0.31697 7.5424 0.95736 2.4516 0.63393 4.7286 1.6172 6.8244 2.9432 2.0894 1.3261 3.8359 3.0144 5.2202 5.0779 1.3908 2.057 2.2705 4.5604 2.6327 7.4972l3.2667 26.741c0.36225 2.9432 0.097 5.4401-0.78917 7.5036-0.88621 2.057-2.2123 3.7518-3.9782 5.0714-1.7659 1.3261-3.8036 2.3093-6.0999 2.9432-1.656 0.45928-3.3831 0.75037-5.1814 0.87327-0.0259 6e-3 -2.1217 0.0841-2.1217 0.0841h-83.536s-0.83445 0-0.93795-0.82798l-2.3934-19.529s-0.1035-0.82799 0.73096-0.82799h75.043c1.0738-0.097 1.7983-0.68568 2.1605-1.7659l-1.5589-12.698s-0.64687-2.5939-3.5319-2.5939h-74.208s-0.83446 0-0.93796-0.82799l-6.3652-51.891s-0.1035-0.82799 0.73096-0.82799h24.613s0.83446 0 0.93149 0.82799l3.8424 31.244h1.7207s0.83445 0 1.4231-0.52396l34.743-31.024s0.58864-0.52396 1.4231-0.52396h34.853s0.83446 0 0.25875 0.53043"/><path d="m460.58 818.67c2.5745 0 5.0908 0.31696 7.5424 0.95736 2.4516 0.63393 4.7286 1.6172 6.818 2.9432 2.0958 1.3196 3.8359 3.0144 5.2267 5.0714 1.3908 2.0635 2.2705 4.5604 2.6263 7.5036l3.2667 26.741c0.36225 2.9432 0.1035 5.4401-0.7827 7.4972-0.88621 2.0635-2.2123 3.7518-3.9782 5.0779-1.7724 1.3261-3.8036 2.3028-6.0999 2.9432-1.656 0.45928-3.3831 0.7439-5.1814 0.87327-0.0259 6e-3 -2.1282 0.0841-2.1282 0.0841h-83.53s-0.83445 0-0.93795-0.83445l-2.3999-19.522s-0.097-0.82799 0.73743-0.82799h75.043c1.0738-0.097 1.7918-0.68568 2.1605-1.7659l-1.5654-12.704s-0.17466-2.5939-3.5254-2.5939h-74.208s-0.83445 0-0.93795-0.82152l-6.3716-51.891s-0.097-0.82799 0.73743-0.82799h24.613s0.83446 0 0.93149 0.82799l3.8359 31.237z"/><path d="m772.38 856.52s0.0841 0.6598-0.57571 0.6598h-32.958s-0.6598 0-0.57571 0.65334l2.4387 19.865s0.0776 0.6598 0.73743 0.6598h94.002s0.65333 0 0.57571-0.6598l-2.4387-19.865s-0.0841-0.65334-0.73743-0.65334h-33.844s-0.65333 0-0.73742-0.6598l-8.5063-69.286s-0.0776-0.6598-0.73743-0.6598h-24.574s-0.6598 0-0.57571 0.6598z"/><path d="m606.98 861.88-7.2255-58.839c-0.36224-2.9432-1.2355-5.4401-2.6263-7.5036-1.3908-2.057-3.1373-3.7454-5.2267-5.0714-2.0958-1.3261-4.3663-2.3028-6.818-2.9432-1.2226-0.31696-3.396-0.95089-7.3549-0.95089h-67.073c-3.7712 0-6.7533 0.81505-7.2384 0.95089-2.277 0.6404-4.2887 1.6172-6.0352 2.9432-1.753 1.3261-3.0661 3.0144-3.9394 5.0714-0.87326 2.0635-1.132 4.5604-0.76977 7.5036l7.2255 58.839c0.36225 2.9432 1.229 5.4401 2.6133 7.5036 1.3778 2.057 3.105 3.7518 5.1814 5.0714 2.0764 1.3261 4.3275 2.3028 6.7597 2.9432 0.52396 0.13584 3.7971 0.95736 7.4713 0.95736h67.073c2.6586 0 5.977-0.6404 7.1155-0.95736 2.3028-0.6404 4.334-1.6172 6.0999-2.9432 1.7659-1.3196 3.0985-3.0144 3.9782-5.0714 0.88621-2.0635 1.1514-4.5604 0.78918-7.5036m-26.696-5.3625c0.0841 0.65333-0.57571 0.65333-0.57571 0.65333h-53.845c-0.65334 0-0.73743-0.65333-0.73743-0.65333l-5.9059-48.107c-0.0776-0.6598 0.5757-0.6598 0.5757-0.6598h53.845c0.6598 0 0.73743 0.6598 0.73743 0.6598z"/><path d="m366.88 857.78 2.4387 19.865c0.0776 0.6598-0.57571 0.6598-0.57571 0.6598s-88.258 0.0453-88.278 0.0453c-1.8306-0.12937-3.6289-0.41399-5.3948-0.87327-2.4581-0.64039-4.7286-1.6172-6.8244-2.9432-2.0894-1.3196-3.8359-3.0144-5.2202-5.0779-1.3067-1.9212-2.1605-4.444-2.5616-7.1414-6e-3 -0.0259-2.9303-24.135-2.9303-24.135-0.36225-2.9432-0.097-5.4466 0.78917-7.5036 0.88621-2.057 2.2123-3.7518 3.9782-5.0714 1.7659-1.3261 3.8036-2.3093 6.0999-2.9497 1.9535-0.5369 4.0235-0.80211 6.1776-0.87973h59.66c2.1799 0 2.2576-1.6883 2.2576-1.6883l-1.2161-9.9617c-0.0841-0.6598-0.65981-2.4257-2.9368-2.4257h-77.889c-0.6598 0-0.74389-0.6598-0.74389-0.6598l-2.4387-19.865c-0.0776-0.65333 0.57571-0.65333 0.57571-0.65333h86.803c1.8371 0 4.4698 0.39458 6.4234 0.89914 2.3158 0.60158 4.4698 1.5331 6.4492 2.7815 1.9794 1.2549 3.6354 2.8591 4.9485 4.8062s2.1411 4.3146 2.484 7.0961l3.092 25.305c0.34284 2.7815 0.097 5.149-0.74389 7.0961-0.83446 1.9471-2.0958 3.5513-3.7648 4.8062-1.6754 1.2484-3.5966 2.1799-5.77 2.7815-1.5654 0.4334-3.202 0.70508-4.9032 0.82799-0.0259 0-2.0958 0.0776-2.1476 0.0776h-57.985c-2.3546 0-2.5163 1.6236-2.5163 1.6236l1.3067 10.667c0.0841 0.65333 0.47221 1.8306 2.581 1.8306h78.038c0.65334 0 0.73743 0.6598 0.73743 0.6598"/></g><g fill="#231f20"><path d="m525.79 1217.6c-1.8242 0-1.8242-1.8306-1.8242-1.8306v-102.7c0-1.8241-1.8242-1.8241-1.8242-1.8241h-16.883c-1.8242 0-2.8203 1.5266-2.8203 1.5266l-36.658 56.161c-0.99617 1.533-0.0776 3.1114-0.0776 3.1114l5.783 9.91c0.91855 1.5783 2.7492 1.5783 2.7492 1.5783h28.371c1.8306 0 1.8306 1.8306 1.8306 1.8306v30.344c0 1.8241-1.8306 1.8241-1.8306 1.8241l-49.42 0.026c-1.8242 0-2.7492-1.5784-2.7492-1.5784l-25.596-43.579c-0.92501-1.5719 0.0518-3.1179 0.0518-3.1179l56.834-89.824c0.97677-1.5395 2.8009-1.5395 2.8009-1.5395h118.04c1.8242 0 2.8009 1.5395 2.8009 1.5395l57.008 90.141c0.97676 1.546 6e-3 3.0856 6e-3 3.0856l-27.311 43.327c-0.97677 1.546-2.8009 1.546-2.8009 1.546l-48.153-0.026c-1.8242 0-1.8242-1.8241-1.8242-1.8241v-30.713c0-1.8241 1.8242-1.8241 1.8242-1.8241h27.809c1.8242 0 2.7945-1.5461 2.7945-1.5461l6.3522-10.072c0.97677-1.546-0.0259-3.0726-0.0259-3.0726l-36.386-55.708c-0.99617-1.5266-2.8203-1.5266-2.8203-1.5266h-16.754c-1.8306 0-1.8306 1.8241-1.8306 1.8241v102.7c0 1.8306-1.8242 1.8306-1.8242 1.8306z"/><path d="m620.7 1050.9s-1.339 0-2.2058-1.1255l-69.286-89.429s-0.86679-1.1191-1.4619 0l-47.318 89.429s-0.59511 1.1255-1.9341 1.1255h-37.324s-1.339 0-1.5072-1.339l-17.912-145.9s-0.16172-1.339 1.1773-1.339h39.226s1.339 0 1.5072 1.339l8.3834 68.277s0.16172 1.339 0.75684 0.21993l36.761-68.716s0.60159-1.1191 1.9406-1.1191h19.704s1.339 0 2.2123 1.1191l53.632 68.716s0.87327 1.1191 0.71155-0.21993l-8.3834-68.277s-0.16819-1.339 1.1708-1.339h39.232s1.339 0 1.5007 1.339l17.912 145.9s0.16819 1.339-1.1708 1.339z"/><path d="m714.6 1050.9c-4.127 0-8.157-0.5175-12.096-1.546-3.9329-1.0415-7.5813-2.6198-10.938-4.7674-3.3637-2.1411-6.1582-4.8774-8.3898-8.2087-2.2382-3.3378-3.6483-7.3872-4.2305-12.148l-11.695-95.238c-0.58218-4.7609-0.16819-8.8103 1.2484-12.148 1.4166-3.3314 3.5384-6.0676 6.3716-8.2087 2.8333-2.1476 6.087-3.7324 9.7741-4.7674 3.6807-1.035 7.5813-1.546 11.715-1.546h135.48s1.339 0 1.5072 1.339l3.8747 31.606s0.16818 1.339-1.1708 1.339h-124.62s-1.339 0-1.1708 1.3455l9.4895 77.32s0.16819 1.339 1.5007 1.339h124.62s1.3325 0 1.5007 1.339l3.8812 31.612s6e-3 0.045 6e-3 0.1229v0.026c-6e-3 0.3493-0.1229 1.1902-1.1838 1.1902z"/><path d="m270.69 1050.9s-1.339 0-1.5007-1.339l-3.8812-31.612s-0.16819-1.3325 1.1708-1.3325h120.34c1.7207-0.1617 2.8785-1.1126 3.4542-2.8592l-2.5228-20.57s-0.86033-4.1917-5.6601-4.1917h-119s-1.339 0-1.5007-1.339l-10.317-83.995s-6e-3 -0.0453-6e-3 -0.11644v-0.0323c6e-3 -0.34931 0.1229-1.1902 1.1838-1.1902h39.465s1.339 0 1.5007 1.339l6.2164 50.572h2.7621s1.339 0 2.277-0.8474l55.656-50.216s0.93796-0.84739 2.277-0.84739h55.896s1.339 0 0.414 0.85386c-0.0259 0.0259-1.4037 1.2937-54.492 50.203 0 0-0.92502 0.85386 0.41399 0.85386 0.60805 0 27.964 0.0453 27.964 0.0453 4.1335 0 8.157 0.51749 12.096 1.546 3.9394 1.035 7.5877 2.6198 10.945 4.7674 3.3572 2.1411 6.1582 4.8774 8.3898 8.2152 2.2382 3.3314 3.6418 7.3807 4.224 12.142l5.2914 43.288c0.58217 4.761 0.16818 8.8103-1.2484 12.142-1.4102 3.3313-3.5384 6.0676-6.3716 8.2087-2.8333 2.1476-6.087 3.7389-9.7741 4.7674-2.6521 0.7439-5.4207 1.2096-8.3057 1.4166-0.0388 0.01-3.409 0.1294-3.409 0.1294zm148.22-147.72"/><path d="m674.82 771.25-8.0017-45.352h7.6265l2.3222 13.177h3.5254c1.6754 0 3.0467-0.0517 4.1076-0.14878 1.0609-0.1035 1.9341-0.27815 2.6392-0.5369 0.69214-0.25875 1.2614-0.6404 1.7012-1.1385 0.43987-0.49809 0.87327-1.1644 1.3002-2.0053l4.6768-9.3472h8.558l-5.0779 9.9423c-0.85386 1.6754-1.7465 3.0079-2.678 3.9847-0.93148 0.97676-2.264 1.6883-4.0106 2.1282 1.6301 0.55631 3.0338 1.2873 4.1982 2.1864 1.1644 0.89914 2.3481 2.0441 3.5513 3.4413l8.3704 9.9488h-8.2669l-8.0082-9.5283c-0.72448-0.83446-1.3649-1.4943-1.9276-1.9729-0.56278-0.47868-1.2032-0.84092-1.9147-1.0803-0.71802-0.23934-1.5719-0.38812-2.5616-0.44634-0.99617-0.0647-2.2317-0.097-3.7195-0.097h-3.5254l4.735 26.845zm-288.31-6.6174c-2.1088-1.6172-3.396-3.7453-3.8553-6.3846l-5.7053-32.35h8.4804l5.6407 31.994c0.12937 0.71802 0.47868 1.2873 1.0608 1.7013 0.57571 0.42046 1.339 0.63392 2.2964 0.63392 1.3908 0 2.2964-0.58217 2.7168-1.7401l9.6124-25.823c0.27168-1.1579 0.66627-2.1993 1.1773-3.1114 0.50455-0.91855 1.1708-1.7142 1.9923-2.3675 0.81505-0.6598 1.8242-1.1579 3.0403-1.5007 1.2096-0.33636 2.6521-0.50455 4.3275-0.50455 3.7389 0 6.6756 0.80858 8.8038 2.4257 2.1347 1.6172 3.4349 3.7648 3.9071 6.4363l5.6924 32.298h-8.5516l-5.6471-32c-0.11643-0.67274-0.46574-1.2226-1.0414-1.643-0.58218-0.42046-1.3261-0.62746-2.2317-0.62746-0.81505 0-1.436 0.15525-1.8565 0.47868-0.42693 0.31696-0.73743 0.71802-0.93796 1.1967l-9.6124 25.823c-0.60158 2.3158-1.656 4.1399-3.1696 5.479-1.5137 1.339-3.9459 2.0118-7.3031 2.0118-3.7842 0-6.7339-0.80858-8.8362-2.4258m108.41 0.38812-1.3196-7.4907h-5.1814l-1.0738-6.1129h5.1749l-2.5745-14.619c-0.36872-2.07-0.45928-3.81-0.27169-5.2073 0.18112-1.4037 0.65334-2.5228 1.4166-3.3572 0.7633-0.84092 1.8177-1.436 3.1696-1.7983 1.352-0.36225 3.0079-0.5369 4.9744-0.5369h6.8309l1.022 5.8088h-5.2461c-1.8177 0-3.0661 0.33637-3.7389 1.022-0.66627 0.67274-0.84739 1.9147-0.53043 3.713l2.6392 14.975h10.499l1.0803 6.1129h-10.499l1.3196 7.4907zm48.178-8.5063c-1.8694-1.0803-3.2796-2.678-4.224-4.7997l-8.778-19.167c-0.28462-0.56277-0.6598-0.9897-1.1191-1.2873-0.46575-0.30403-1.1256-0.45281-1.9859-0.45281-0.91208 0-1.5395 0.16819-1.8888 0.51103-0.34931 0.33637-0.51103 0.84739-0.48515 1.5266l0.9703 24.684h-8.2669l-0.45927-25.047c0-1.0738 0.13584-2.0635 0.40752-2.9626 0.27169-0.89914 0.75037-1.6689 1.4296-2.3093 0.6792-0.63393 1.5978-1.1385 2.7556-1.4943 1.1579-0.36225 2.6263-0.5369 4.3987-0.5369 3.0209 0 5.466 0.5369 7.3354 1.6172 1.863 1.0803 3.3055 2.7104 4.3146 4.9097l8.7844 19.231c0.46574 1.0414 1.4943 1.5589 3.0726 1.5589 0.72448 0 1.3131-0.1229 1.7724-0.36224 0.45927-0.23934 0.71802-0.63393 0.75683-1.1967l1.7142-19.231c0.18759-2.1993 1.0026-3.8294 2.4452-4.9097 1.436-1.0803 3.6418-1.6172 6.6174-1.6172 3.4478 0 6.1064 0.66627 7.9694 2.0053 1.8694 1.339 3.189 3.105 3.9588 5.2978l8.655 25.047h-8.2669l-8.3057-24.684c-0.21994-0.67921-0.54337-1.1902-0.98971-1.5266-0.44633-0.34284-1.0997-0.51103-1.96-0.51103-1.6301 0-2.484 0.58218-2.568 1.7401l-1.7207 19.167c-0.207 2.1217-1.0026 3.7195-2.3934 4.7997-1.3908 1.0738-3.5966 1.6172-6.6174 1.6172-3.0144 0-5.466-0.54336-7.329-1.6172m106.22 1.0156c-3.7389 0-6.5139-0.73743-8.3316-2.2188-1.8242-1.4748-3.0079-3.81-3.5772-7.0055l-3.9523-22.407h7.6201l3.7842 21.45c0.47868 2.7168 2.3481 4.0688 5.6083 4.0688h13.371l1.0803 6.1129zm-43.78 0c-5.0844 0-9.3278-1.2937-12.73-3.8941-3.409-2.6004-5.5824-6.5721-6.5269-11.922-0.94443-5.3496-0.16819-9.3278 2.3222-11.922 2.4904-2.5939 6.2746-3.8941 11.352-3.8941h7.9823c5.0326 0 9.2631 1.3002 12.691 3.8941 3.4284 2.5939 5.6212 6.5721 6.5592 11.922 0.93795 5.3108 0.14878 9.276-2.3546 11.889-2.5163 2.6198-6.2875 3.9265-11.32 3.9265zm-10.602-23.216c-1.2484 1.4943-1.5654 3.9653-0.96383 7.4001 0.60805 3.4349 1.8048 5.9124 3.5772 7.4325 1.7789 1.5137 4.3211 2.2705 7.6265 2.2705h6.5463c3.3055 0 5.5824-0.75684 6.818-2.2705 1.242-1.5201 1.5654-3.9976 0.95736-7.4325-0.60805-3.4348-1.7983-5.9059-3.5707-7.4001-1.7724-1.5007-4.3146-2.2446-7.6201-2.2446h-6.5398c-3.312 0-5.5824 0.74389-6.8309 2.2446m-137.14 23.216c-2.3999 0-4.4698-0.25875-6.2164-0.77624-1.7401-0.51749-3.2343-1.2484-4.4828-2.1864-1.242-0.93796-2.2187-2.0506-2.9238-3.3249-0.70508-1.2808-1.1838-2.6586-1.4425-4.1399l-1.9018-10.783c-0.27168-1.5137-0.27815-2.9044-0.0194-4.1593 0.25874-1.2614 0.84092-2.3611 1.7595-3.299 0.91208-0.93795 2.1476-1.6624 3.713-2.1864 1.559-0.51749 3.5384-0.77624 5.9318-0.77624h23.222l1.0932 6.1711h-23.222c-2.1088 0-3.5384 0.40753-4.2758 1.229-0.75036 0.81505-1.0026 1.863-0.77624 3.1438l0.40106 2.277h18.048c4.6445 0 8.0923 0.78918 10.337 2.3675 2.2382 1.5719 3.6224 3.823 4.1335 6.7339 0.54337 3.0791-0.0453 5.466-1.7595 7.1673-1.7077 1.6948-4.8192 2.5422-9.3278 2.5422zm-7.6718-10.486c0.21347 1.242 0.84092 2.277 1.8759 3.1179 1.035 0.83445 2.6069 1.2549 4.7156 1.2549h12.219c1.8694 0 3.1761-0.35578 3.9135-1.0738 0.73743-0.72449 0.99617-1.6818 0.78271-2.8786-0.20053-1.1579-0.78271-2.0764-1.7401-2.7556s-2.471-1.0156-4.528-1.0156h-17.834z"/></g></g></svg>
