<svg width="225pt" height="260.64pt" version="1.1" viewBox="0 0 225 260.64" xmlns="http://www.w3.org/2000/svg">
 <path d="m46.846 236.36c5.62-2.21 13.54-0.17 14.88 6.44l-2.8 0.81c-1.75-6.73-12.29-6.62-15.02-0.74-1.69 3.85-1.65 8.91 1.21 12.19 3.72 3.7 9.8 3.02 13.83 0.18v-4.645h-7.39v-3.005h10.405v9.24c-4.25 3.25-10.035 5.03-15.195 2.86-9.87-3.37-9.68-19.95 0.08-23.33z" fill="#c1011a"/>
 <path d="m67.556 235.59c4.64 0.14 9.32-0.31 13.94 0.23 5.1 0.64 6.99 7.63 3.75 11.26-1.26 1.49-3.19 1.98-4.98 2.55 4.01 2.6 5.82 7.22 8.54 10.96h-4.06c-2.14-3.2-3.97-6.65-6.55-9.52-1.9-2.27-5.09-1.29-7.64-1.49v11.01h-3v-25m3 3.01v7.98c3.55-0.2 7.27 0.56 10.71-0.56 3.44-1.27 2.69-6.66-0.8-7.3-3.29-0.32-6.61-0.07-9.91-0.12z" fill="#fff"/>
 <path d="m98.106 236.17c5.04-1.78 11.44 0.24 13.9 5.16 2.74 5.37 2.1 12.89-2.74 16.87-4.81 3.73-12.54 3.1-16.32-1.81-4.88-6.28-3.01-17.71 5.16-20.22m0.99 2.87c-5.4 1.71-6.29 8.43-4.92 13.16 1.55 4.93 8.1 7.04 12.32 4.14 4.06-2.64 4.49-8.36 3.1-12.59-1.39-4.15-6.5-6.31-10.5-4.71z" fill="#fff"/>
 <path d="m125.08 236.18c5.05-1.8 11.47 0.22 13.93 5.15 2.74 5.36 2.1 12.89-2.74 16.87-4.81 3.74-12.55 3.1-16.32-1.81-4.87-6.28-3.01-17.69 5.13-20.21m0.98 2.88c-5.38 1.73-6.24 8.43-4.87 13.15 1.55 4.93 8.11 7.03 12.31 4.12 4.06-2.64 4.48-8.34 3.1-12.56-1.38-4.18-6.52-6.34-10.54-4.71z" fill="#fff"/>
 <path d="m141.82 235.6h3.64l7.34 22.45 7.99-22.45h3.35l-9.63 24.945h-3.42z" fill="#fff"/>
 <path d="m167.42 235.59h17.54v3h-14.4v8h13.53v3h-13.53v8.005h15v2.995h-18.14z" fill="#fff"/>
 <g transform="translate(-138.63 -159.8)">
  <path d="m138.63 272.12c0-62.037 50.367-112.32 112.5-112.32 62.137 0 112.5 50.283 112.5 112.32s-50.358 112.32-112.5 112.32c-62.138 0-112.5-50.288-112.5-112.32" fill="#c1021b" stroke-width="1.4173"/>
  <path d="m160.38 205.82h181.56l-90.781 178.98z" stroke-width="1.4173"/>
  <g transform="matrix(1.4173 0 0 1.4173 107.56 67.782)" fill="#fff">
   <path d="m70.177 119.03h1.117c2.497 0 4.677 0.37 4.677 3.45 0 2.97-2.394 3.34-4.784 3.34h-1.01zm-16.188 29.08h14.248v-12.84h0.267l6.379 12.84h16.801l-8.72-13c-0.797-1.17-1.702-1.81-2.446-2.39v-0.32c5.422-1.8 7.764-4.35 7.764-10.4 0-10.09-7.657-13.91-16.696-13.91h-17.597z"/>
   <path d="m89.424 121.1 8.027-0.37v27.38h14.569v-27.38l8.03 0.37v-13.01h-30.626z"/>
   <path d="m122.89 148.11h26.8v-12.84h-12.23v-27.18h-14.57z"/>
   <path d="m80.193 160.93c2.635 0 3.149 2.99 3.149 4.98 0 1.86-0.676 5.32-3.149 5.32s-3.149-3.46-3.149-5.32c0-1.99 0.515-4.98 3.149-4.98m0-7.5c-7.324 0-11.566 5.39-11.566 12.25 0 7.25 4.08 12.7 11.566 12.7s11.566-5.45 11.566-12.7c0-6.86-4.242-12.25-11.566-12.25"/>
   <path d="m114.95 178v-7.44l-4.72 0.28-4.14 0.58v-0.25c4.27-1.32 8.51-4.33 8.51-9.21 0-5.61-5.33-8.53-10.38-8.53-7.29 0-10.439 3.18-11.081 10.23h8.611c0.06-1.48 0.29-3.05 2.15-3.05 1.09 0 1.99 0.84 1.99 1.93 0 2.15-3.82 5.55-5.33 6.89l-9.668 8.57z"/>
   <path d="m122.67 170.33c-2.34 0-4.78 1.51-4.78 4.08 0 2.53 2.44 3.97 4.78 3.97 2.35 0 4.79-1.44 4.79-3.97 0-2.57-2.44-4.08-4.79-4.08"/>
   <path d="m54.126 161.83 3.727-0.25v16.42h8.739v-24.19l-12.466 0.39z"/>
   <path d="m133.38 153.82-2.12 14.3c2.02-0.71 4.24-1.06 6.43-1.06 1.38 0 4.85 0.45 4.85 2.41 0 1.89-2.8 2.4-4.28 2.4-1.99 0-5.46-1.03-7.23-1.99l-0.96 6.55c2.28 1.12 7.13 1.95 9.67 1.95 5.14 0 11.6-2.79 11.6-8.72 0-4.62-3.85-7.57-8.29-7.57-1.22 0-3.31 0.22-4.11 1.28h-0.23c0.42-0.86 0.62-1.86 0.77-2.79h10.38v-6.76z"/>
  </g>
 </g>
</svg>
