<?xml version="1.0" encoding="UTF-8"?>
<svg id="svg41" width="184.25pt" height="103.17pt" version="1.1" viewBox="0 0 184.25 103.17" xmlns="http://www.w3.org/2000/svg" xmlns:cc="http://creativecommons.org/ns#" xmlns:dc="http://purl.org/dc/elements/1.1/" xmlns:rdf="http://www.w3.org/1999/02/22-rdf-syntax-ns#">
 <metadata id="metadata47">
  <rdf:RDF>
   <cc:Work rdf:about="">
    <dc:format>image/svg+xml</dc:format>
    <dc:type rdf:resource="http://purl.org/dc/dcmitype/StillImage"/>
    <dc:title/>
   </cc:Work>
  </rdf:RDF>
 </metadata>
 <path id="path2" d="m33.493 6.488c1.93-3.06 4.7-6.01 8.5-6.42 4.73-0.13 9.47-0.03 14.2-0.05 4.5-0.09 8.26 3.31 10 7.23 5.05-0.58 10.63 0.92 13.28 5.62 5.86-4.44 13.34-6.13 20.59-6.07 2.51 0.13 4.77 1.31 6.78 2.74 9.35-3.95 20.33-3.77 29.5 0.63 13.34-6.5 30.65-2.85 40.07 8.65 8.12 9.35 10.07 23.35 5.21 34.68-5.13 12.31-18.19 20.8-31.55 20.27-0.27-0.01-0.81-0.04-1.08-0.05-1.09-0.07-2.17-0.14-3.25-0.22-1.63 3.75-3.32 7.47-5.1 11.15-1.94 3.91-6.17 6.2-10.43 6.53-31 3.92-61.97 8.12-92.99 11.9-8.73 1.17-15.94-8.94-12.79-16.93 2-4.56 4.32-8.98 6.41-13.5-8.23-0.77-16.45-4.09-22.08-10.29-12.02-12.25-11.57-34.08 0.71-45.99 6.29-6.33 15.15-9.76 24.02-9.88" fill="#fff"/>
 <g id="#231f20ff" transform="translate(-26.877 -25.972)">
  <path id="path27" d="m62.72 35.78c0.85-3.32 3.61-6.39 7.19-6.53 4.66 0.03 9.33-0.09 13.99 0.07 3.64 0.44 6.08 3.79 6.61 7.23 2.82 0.03 5.71-0.37 8.48 0.32 3.51 0.95 5.86 4.5 5.82 8.08 4.73-6.14 12.61-8.66 20.11-8.87 3.12-0.43 6.15 1.03 8.2 3.31 9.27-4.85 20.88-4.78 30 0.39 9.73-5.27 22.34-4.68 31.47 1.6 4.3 3.05 8.03 7.05 10.28 11.85 4.62 9.52 3.8 21.5-2.31 30.17-6.81 10.11-19.99 15.13-31.83 12.37-1.97 4.32-3.92 8.65-5.96 12.94-1.36 2.96-4.47 4.82-7.65 5.09-31.03 3.97-62.03 8.1-93.07 11.94-6.73 1.12-12.12-6.89-9.48-12.88 2.71-5.86 5.61-11.63 8.38-17.47-9.58 0.66-19.65-2.93-25.87-10.41-8.94-10.29-9.23-26.93-0.77-37.58 6.1-8.04 16.45-12.19 26.41-11.62" fill="#231f20"/>
 </g>
 <g id="g4545" transform="translate(-26.877 -25.972)" fill="#fff">
  <path id="path4" d="m70.75 37c3.92 0 7.85-0.03 11.77 0.03-0.06 9.61 0.02 19.22-0.04 28.83-0.12605 4.9159-1.7193 10.026-5.0499 13.711-2.1934 2.4658-4.5408 4.3338-7.0742 5.6597-9.3032 4.6699-21.953 2.0142-28.086-6.5507-6.13-8.32-5.42-21.13 2.04-28.42 6.71-6.9 17.97-8.44 26.47-4.08-0.05-3.06-0.03-6.12-0.03-9.18m-13.36 18.49c-5.67 1.33-9.42 7.89-7.41 13.43 1.85 6.14 9.67 9.25 15.32 6.31 4.73-2.34 6.57-8.54 4.76-13.33-1.62-5.04-7.67-8.03-12.67-6.41z"/>
  <path id="path6" d="m110.65 50.61c3.29-5.3 10.09-6.65 15.89-6.58-0.06 3.61-0.05 7.22-0.01 10.83-3.08-0.17-6.36 1.73-6.39 5.1-0.46 8.05-0.89 17.68-7.93 23.01-3.98-0.27-7.97-0.52-11.96-0.77 0.01-2.25 0-4.5-0.04-6.75 2.88-0.19 5.71-1.75 6.58-4.64 2.14-6.56 0.04-14.11 3.86-20.2z"/>
  <path id="path8" d="m132.55 49.53c7.38-7.13 19.6-7.55 28.04-2.05-3.11 2.48-5.82 5.45-7.66 9-4.29-2.24-10.13-1.63-13.29 2.23-4.84 4.74-2.87 13.93 3.32 16.52 3.01 1.52 6.57 1.24 9.63 0.01 1.68 3.46 4.14 6.44 7.04 8.94-0.68 0.39-2.06 1.19-2.74 1.58-6.98-0.38-13.95-0.89-20.93-1.32-4.94-3.34-8.86-8.43-9.98-14.37-1.64-7.36 0.97-15.49 6.57-20.54z"/>
  <path id="path10" d="m156.16 59.98c2.52-8.97 11.25-15.66 20.56-15.82 0.06 3.88 0 7.76 0.06 11.65-4.79 0.57-8.94 4.3-9.62 9.14-1.2 7.07 6.49 13.76 13.33 11.37 6.28-1.63 9.44-9.38 6.35-15.03 3.37-2.07 6.73-4.13 10.11-6.19 3.69 6.68 3.96 15.28 0.16 21.97-3.24 6.03-9.49 10.3-16.26 11.23-6.39 0.98-13.11-1-18-5.2-6.44-5.55-9.21-14.98-6.69-23.12z"/>
  <path id="path12" d="m86 44.5c3.59 0 7.17-0.01 10.76 0.02-0.02 12.49-0.01 24.98 0 37.47-3.59-0.23-7.18-0.47-10.77-0.7 0.64-12.26 0.01-24.53 0.01-36.79z"/>
  <path id="path14" d="m184.21 45.04c1.78 0.69 3.51 1.46 5.2 2.34-1.92 3.46-4.15 6.74-6.27 10.07-0.68-0.3-2.04-0.89-2.72-1.19 1.31-3.73 2.49-7.49 3.79-11.22z"/>
  <path id="path16" d="m192.43 49.85c1.01 0.95 1.99 1.92 2.96 2.9-2.7 2.2-5.47 4.29-8.21 6.44-0.74 1.08-2.09 0.51-2.53-0.46 2.69-2.87 5.2-5.91 7.78-8.88z"/>
 </g>
 <g id="#ed1c24ff" transform="translate(-26.877 -25.972)">
  <path id="path32" d="m72.12 84.23c1.03-1.54 2.5-2.66 4.14-3.49l80.63 5.02c3.73 0.45 8.85-0.58 10.9 3.52 0.78899 1.8028 0.55993 3.5239-0.0603 5.1978l-6.077 12.41c-1.0415 1.5759-2.4135 2.7657-4.5627 2.8927l-91.09 6.98c-4.24 0.97-8.43-3.57-6.69-7.69l12.81-24.84" fill="#ed1c24"/>
 </g>
 <g id="g4551" transform="translate(-26.877 -25.972)" fill="#fff">
  <path id="path18" transform="scale(.75)" d="m127.87 116.7-12.654 27.354-6.9336-9.4922c5.6133-2.92 6.6538-11.173 1.8672-15.307-4.16-3-9.6535-2.1336-14.467-2.2402v29.332h6.6543l0.0117-8.8789 6.1875 8.8789h12.693l3.041-6.2656h9.9316l2.6016 6.2656h7.4668l-13.762-29.646zm-25.48 6.7012c1.406 0.22571 3.8533 0.50417 4.2988 2.0137 0.2264 0.84689 0.11868 1.4364-0.0176 1.9746-0.37625 1.5454-2.7498 1.8192-4.2812 2.0644zm27.021 2.4434 3.6973 9.5859h-7.3945z" stroke-width="1.3333"/>
  <path id="path20" d="m109.01 87.75c4.57 0.04 9.75-0.47 13.6 2.51 5.8 4.28 5.14 14.7-1.37 17.98-3.72 2.13-8.14 1.4-12.23 1.51v-22m5 4.89v12.46c2.07-0.39 4.41-0.55 5.98-2.13 2-1.99 1.96-5.33 0.62-7.66-1.5-2.1-4.26-2.34-6.6-2.67z"/>
  <path id="path22" d="m129.01 87.75h4.98v22h-4.98z"/>
  <path id="path24" d="m143.26 88.3c6.57-2.95 14.95 1.55 15.89 8.73 1.45 7.05-5.09 14.03-12.2 13.23-6.24-0.17-11.37-6.16-10.68-12.35 0.32-4.17 3.09-8.05 6.99-9.61m3.09 4.19c-4.49 0.74-6.76 6.63-3.83 10.13 2.58 3.92 9.3 3.45 11.09-0.97 2.67-4.57-2.27-10.65-7.26-9.16z"/>
 </g>
</svg>
