<?xml version="1.0" encoding="UTF-8"?>
<svg id="svg60" width="1057.2pt" height="434.86pt" version="1.1" viewBox="0 0 1057.2 434.86" xmlns="http://www.w3.org/2000/svg" xmlns:cc="http://creativecommons.org/ns#" xmlns:dc="http://purl.org/dc/elements/1.1/" xmlns:rdf="http://www.w3.org/1999/02/22-rdf-syntax-ns#">
 <metadata id="metadata66">
  <rdf:RDF>
   <cc:Work rdf:about="">
    <dc:format>image/svg+xml</dc:format>
    <dc:type rdf:resource="http://purl.org/dc/dcmitype/StillImage"/>
    <dc:title/>
   </cc:Work>
  </rdf:RDF>
 </metadata>
 <g id="#f8c400ff" transform="translate(-71.406 -32.29)" fill="#f8c400">
  <path id="path3" d="m207.47 33.66c10.94-4.67 24.8 3.16 26.37 14.96 2.59 10.92-6.66 22.57-17.78 22.94-5.56 0.7-11.27-1.43-15.17-5.41-8.15-7.47-7.84-22.45 1.1-29.19 1.65-1.36 3.51-2.46 5.48-3.3z"/>
  <path id="path5" d="m147.36 75.87c11.39-3.08 24.2 6.18 24.23 18.09 0.88 8.77-5.34 17.41-13.71 19.89-9.73 3.19-21.34-2.45-24.49-12.27-4-10.54 3.09-23.21 13.97-25.71z"/>
  <path id="path7" d="m87.55 120.97c11.63-2.68 24.19 8.08 22.99 20.05 0.04 11.07-10.67 20.46-21.64 19.01-8.23-0.59-15.35-7.26-17.17-15.19-0.48-3.97-0.64-8.22 1.07-11.94 2.61-6.03 8.24-10.76 14.75-11.93z"/>
 </g>
 <g id="#ea8a1cff" transform="translate(-71.406 -32.29)" fill="#ea8a1c">
  <path id="path10" d="m255.51 56.72c13.51-2.26 27.51 9.5 27.06 23.32 0.59 13.44-12.25 25.47-25.64 24-10.45-0.73-19.42-9.18-21.51-19.32-2.98-12.81 7.17-26.43 20.09-28z"/>
  <path id="path12" d="m187.39 105.66c5.08-0.85 10.47-0.35 15.09 2.04 7.99 3.75 13.49 12.41 13.16 21.29 0.33 8.16-4.19 16.21-11.12 20.45-7.6 4.83-18.03 4.49-25.48-0.47-6.65-4.19-10.93-12.05-10.65-19.93-0.46-11.02 8.4-21.17 19-23.38z"/>
  <path id="path14" d="m122.39 154.58c5.59-0.9 11.82-0.97 16.74 2.25 9.33 4.68 14.2 16.09 11.91 26.15-2.6 12.49-16.69 21.45-29.05 17.67-9.13-2.25-16.25-10.35-17.74-19.57-2.17-11.81 6.69-23.83 18.14-26.5z"/>
 </g>
 <g id="#143270ff" transform="translate(-71.406 -32.29)" fill="#fff">
  <path id="path17" d="m663.99 80.48c29.33 0.02 58.66 0 87.99 0.01 14.55 0.2 29.35-1.04 43.59 2.69 17.25 4.41 33.26 15.65 41.06 31.96 6.79 13.3 7.37 28.73 5.79 43.3-2 12.66-7.26 25.53-17.72 33.5-7.72 6.01-17.2 9.75-26.93 10.72 17.28 3.04 33.59 12.12 44.58 25.88 8.13 10.51 11.45 24.01 11.4 37.13-0.09 12.66-2.16 25.6-8.18 36.88-7.63 14.8-20.98 26.36-36.33 32.64-11.74 4.93-24.6 6.23-37.22 6.34-36.02-0.03-72.03 0-108.04-0.01 0-87.01-0.01-174.03 0.01-261.04m57.03 43.54c0.01 23.14 0 46.28 0.01 69.43 11.65 0.74 23.33 0.53 35 0.51 7.89-0.14 15.86-2.86 21.59-8.41 6.5-7.06 8.6-16.92 8.62-26.25-0.19-5.05-0.47-10.16-2.36-14.91-3.5-10.57-13.5-18.28-24.49-19.54-12.73-1.52-25.58-0.56-38.37-0.83m1.49 96.01c0.02 25.81 0 51.63 0.01 77.44 12.15 0.03 24.3 0 36.46 0.02 8.62 0.39 18.09-0.77 24.85-6.63 9.15-7.73 12.03-20.39 11.68-31.89 0.38-9.87-2.02-20.36-8.78-27.85-7.57-7.45-18.28-11-28.77-11.11-11.81 0.02-23.63 0-35.45 0.02z"/>
  <path id="path19" d="m864.48 80.49h52.54c0.02 55.85 0 111.7 0.01 167.55 0.1 12.86-1.11 26.37 4.35 38.42 4.71 10.41 13.51 18.06 22.42 24.84-12.05 10.6-24.56 20.72-36.34 31.62-11.74-7.29-23.93-14.86-31.92-26.45-7.12-9.6-10.61-21.56-11.06-33.42 0.01-67.52 0.01-135.04 0-202.56z"/>
  <path id="path21" d="m452.65 95.61c19.13-0.84 37.45 15.92 36.9 35.34 0.96 16.66-11.81 32.5-28.01 35.9-7.1 1.28-14.72 1.18-21.4-1.8-11.28-4.57-20.07-15.14-21.94-27.23-1.74-8.07 0.16-16.58 4-23.78 6.21-10.75 17.95-18.08 30.45-18.43z"/>
  <path id="path23" d="m950.98 158.98c17.51-0.02 35.02 0 52.54-0.01-0.02 37.02 0.01 74.05-0.02 111.08 0 9.04 4.68 18.52 13.03 22.57 7.04 3.54 15.21 3.3 22.87 2.7 11.91-1.17 22.14-8.14 31.08-15.61 0-40.24 0.01-80.48-0.01-120.73 17.51-0.02 35.03 0 52.55-0.01 0.02 60.85 0 121.71 0.01 182.56-17.52-0.03-35.04 0-52.56-0.01-0.01-6.76 0.06-13.51-0.04-20.26-10.66 5.69-20.47 13.06-31.92 17.15-10.92 4.3-22.81 6.37-34.51 5.19-13.37-0.65-26.88-5.69-36.26-15.45-11.63-11.48-16.52-28.15-16.77-44.16 0.02-41.67 0-83.34 0.01-125.01z"/>
  <path id="path25" d="m373.56 170.69c9.57-1.16 19.6 1.63 27.03 7.84 9.84 7.64 14.96 20.75 13.12 33.05-1.81 13.12-11.39 24.75-23.92 29.02-12.8 4.68-28.15 0.93-37.51-8.93-6.72-6.66-10.71-16.13-10.34-25.63-0.27-17.48 14.3-33.5 31.62-35.35z"/>
  <path id="path27" d="m566.1 180.18c13.73-5.92 29.24-7.72 43.97-5.2 16.11 2.7 30.48 14.21 36.34 29.49 3.53 8.39 3.67 17.57 4.12 26.51-0.02 36.18-0.02 72.36 0.01 108.54-16.03 0-32.05-0.01-48.08 0 0.07-31.84-0.01-63.68 0.04-95.53 1.11-10.18-4.98-21.12-15.13-23.93-9.65-2.68-20.2-1.85-29.46 1.89-5.93 2.85-11.36 6.71-16.39 10.93-0.01 35.55-0.01 71.1 0 106.65-16.02-0.02-32.03-0.02-48.05 0 0.02-52.81 0.04-105.63-0.01-158.44 16-1.33 32.05-2.1 48.07-3.19-0.03 5.21 0 10.42-0.02 15.63 8.17-4.49 16.27-9.14 24.59-13.35z"/>
  <path id="path29" d="m431.47 181.09c16.17-1.16 32.38-1.67 48.56-2.68-0.02 53.7 0 107.41-0.01 161.11-16.18-0.01-32.36 0-48.54 0-0.01-52.81 0.01-105.62-0.01-158.43z"/>
  <path id="path31" d="m298.65 235.62c7.2-1.3 14.95-1.04 21.7 2.03 10.64 4.48 18.96 14.35 21.28 25.7 2.35 9.45-0.03 19.73-5.38 27.74-5.3 8.03-14.06 13.56-23.48 15.29-9.39 1.83-19.35-0.72-27.18-6.07-7.59-5.4-13.05-13.78-14.73-22.96-1.21-8.03-0.33-16.53 3.77-23.67 4.94-9.08 13.94-15.8 24.02-18.06z"/>
  <path id="path33" d="m992.47 364.49c6.02-0.01 12.04-0.01 18.06-0.01-0.02 33.85-0.01 67.7-0.01 101.55-5.68-0.02-11.37-0.01-17.05 0-0.09-3.63 0.01-7.26 0.6-10.85-4.18 6.96-11.69 12.15-20.03 11.85-7.44 0.72-15.46-1.85-20.06-7.97-6.11-7.64-6.99-17.95-6.7-27.36 0.4-12.53 6.34-25.6 17.73-31.72 8.29-4.86 18.22-5 27.53-4.24-0.13-10.42-0.01-20.84-0.07-31.25m-20.54 49.36c-4.67 5.11-5.49 12.35-5.65 18.98 0.19 5.51 0.35 11.58 4.02 16.06 3.37 3.91 9.69 4.04 13.76 1.16 4.22-2.95 6.21-8.06 7.46-12.87 1.38-8.59 0.97-17.34 0.89-26-2.48-1.43-5.66-0.99-8.41-1.59-4.27 0.37-8.9 1.11-12.07 4.26z"/>
  <path id="path35" d="m1031.5 368.57c5.78-4.62 15.54-1.55 17.69 5.52 2.14 6.89-4.12 14.55-11.27 13.97-5.85 0.17-10.34-5.13-10.97-10.63 0.55-3.32 1.56-6.9 4.55-8.86z"/>
  <path id="path37" d="m801.98 372.08c8.6-1.2 17.32-0.34 25.98-0.6 9.7-0.35 20.35 1.02 27.91 7.66 10.17 10.04 9.34 28.84-1.63 38.01-4.07 3.92-9.59 5.53-14.83 7.18 10.63 13.49 20.13 27.82 30.23 41.71-7.69-0.04-15.37-0.02-23.05-0.03-8.8-12.87-17.27-25.98-26.15-38.81 0.17 12.94 0.04 25.89 0.08 38.83-6.19-0.02-12.37-0.01-18.55-0.01 0.01-31.31-0.01-62.62 0.01-93.94m18.49 15c0.12 8.79 0.01 17.59 0.06 26.39 6.2 0.09 13.23 0.68 18.31-3.64 6.1-4.57 6.33-14.81 0.79-19.86-5.41-4.05-12.79-3.99-19.16-2.89z"/>
  <path id="path39" d="m879.29 399.41c12.1-4.19 25.33-5.69 37.92-2.97 6.08 1.31 11.74 5.36 14 11.29 1.65 4.92 2.01 10.16 1.83 15.31 0.1 14.34-0.4 28.68 0.54 42.99-5.9-0.01-11.8-0.03-17.69-0.01 0.19-4.08 0.6-8.14 0.94-12.21-2.41 6.64-8.97 11.15-15.64 12.76-7.19 1.16-15.65 0.82-21.07-4.7-7.7-8.06-6.1-22.47 2.52-29.28 8.94-7.39 21.16-9.3 32.43-9.11-0.45-4.69-0.2-11.03-5.53-13.04-9.5-3.08-19.84-0.03-28.46 4.29-0.84-5.08-0.63-10.3-1.79-15.32m21.03 37.82c-3.26 1.04-6.66 3.14-7.56 6.67-1.05 3.25 0.55 7.22 3.77 8.55 4.63 1.53 10.13 0.22 13.34-3.55 3.79-3.4 4.7-8.59 5.11-13.41-4.94-0.11-9.92 0.33-14.66 1.74z"/>
  <path id="path41" d="m1093.5 395.14c8.57-0.5 17.82 1.09 24.63 6.68 6.23 5.23 9.42 13.27 10.25 21.22 0.47 7.89 0.58 16.15-2.85 23.49-4.45 10.71-14.79 18.73-26.29 20.29-8.89 0.75-18.58 0.34-26.07-5.07-6.3-4.49-10.1-11.8-11.32-19.33-2.02-11.1-0.76-23.33 5.84-32.75 5.79-8.5 15.6-13.8 25.81-14.53m-1.98 15.99c-7.15 1.46-10.92 8.89-11.4 15.62-0.2 6.62-0.61 14.07 3.71 19.6 5.04 6.87 16.73 6.88 21.86 0.12 3.73-5.4 4.6-12.22 4.3-18.63-0.51-5.53-1.81-11.71-6.65-15.1-3.5-2.02-7.92-2.91-11.82-1.61z"/>
  <path id="path43" d="m1029 396.48h18.56c-0.01 23.18-0.01 46.37 0 69.55-6.19 0-12.37-0.03-18.55 0 0-23.19 0.02-46.37-0.01-69.55z"/>
 </g>
 <g id="#bb2821ff" transform="translate(-71.406 -32.29)" fill="#bb2821">
  <path id="path46" d="m312.19 81.18c13.01-2.45 26.78 6.95 29.29 19.93 3.72 14.81-9.33 30.6-24.43 30.45-8.03 0.38-15.97-3.52-20.86-9.84-5.16-6.5-6.73-15.68-3.9-23.5 3.01-8.67 10.84-15.45 19.9-17.04z"/>
  <path id="path48" d="m237.42 138.54c7.52-2.29 16.28-1.36 22.71 3.39 8.35 5.59 12.56 16.51 10.43 26.29-2.75 12.85-16.66 22.39-29.66 19.36-12.7-2.07-22.29-15-20.75-27.74 1.01-9.68 8.23-18.03 17.27-21.3z"/>
  <path id="path50" d="m170.37 191.61c11.02-3.93 24.05 1.24 29.8 11.33 4.57 7.59 4.77 17.78 0.24 25.44-4.47 7.37-12.55 12.96-21.41 12.74-12.69 1.04-24.4-9.62-25.85-22.01-1.8-11.74 5.94-23.91 17.22-27.5z"/>
 </g>
 <g id="#893884ff" transform="translate(-71.406 -32.29)" fill="#893884">
  <path id="path53" d="m375.55 93.59c15.39-3.05 31.44 9.08 33.47 24.47 2.9 15.27-8.95 31.24-24.24 33.37-7.91 1.61-16.31-0.83-22.71-5.58-8.88-6.46-13.46-18.32-11.07-29.05 2.3-11.82 12.61-21.61 24.55-23.21z"/>
  <path id="path55" d="m302.26 158.21c10.46-1.46 21.54 3.31 27.66 11.91 4.01 5.42 6.1 12.22 5.64 18.97-0.45 13.42-11.37 25.56-24.66 27.47-10.26 1.81-21.23-2.59-27.68-10.71-9.07-10.74-8.37-28.17 1.37-38.26 4.58-5.04 10.93-8.38 17.67-9.38z"/>
  <path id="path57" d="m231.63 216.61c6.84-0.8 14.04 0.14 19.92 3.92 10.99 6.28 17.09 20.27 13.5 32.53-2.42 9.9-10.47 18-20.2 20.87-11.97 3.62-26.04-1.34-32.85-11.89-7.37-10.86-6.3-26.72 2.82-36.25 4.34-4.87 10.37-8.16 16.81-9.18z"/>
 </g>
</svg>
