<svg width="1131.7pt" height="339.65pt" version="1.1" viewBox="0 0 1131.7 339.65" xmlns="http://www.w3.org/2000/svg">
 <g transform="translate(-108.8 -74.7)">
  <path d="m269.95 361.1c0.07 0.08 0.2 0.25 0.26 0.33l-0.31-0.04z" fill="#fff"/>
 </g>
 <g transform="matrix(2.1559 0 0 2.1559 -66.339 -462.84)">
  <path d="m212.58 214.68c-5.7675 49.129-12.609 85.884-27.47 156.86h-154.34c40.7-5.22 80.61-21.22 111.47-48.64h-105.71c26.54-2.96 52.53-13.26 73.37-30.11 24.48-19.59 41.2-47.35 51.84-76.52-4.0006 35.516-8.3619 65.175-18.44 105.7 24.74-21.45 43.36-49.16 57.43-78.54 4.33-9.42 8.52-18.93 11.85-28.75z" fill="#6d8bc7"/>
 </g>
 <g transform="translate(-108.8 -74.7)" fill="#fff">
  <path d="m754.31 122.34c0.86-2.15 3.41-1.2 5.2-1.28 18.32 62.25 37.05 124.39 55.46 186.61-14.54 0.01-29.09 0.01-43.64 0.01-2.49-8.83-4.99-17.66-7.47-26.5-24.81 0-49.62-0.17-74.42 0.09-5.45 8.87-11.08 17.63-16.67 26.41-14.04-0.02-28.07 0.03-42.11-0.02 41.12-61.84 82.48-123.52 123.65-185.32m-16.17 83.82c-9.8 15.11-19.73 30.15-29.53 45.26 15.54 0.02 31.08 0.01 46.63 0.01-4.8-16.25-9.62-32.49-14.46-48.73-0.95 1.1-1.86 2.23-2.64 3.46z"/>
  <path d="m1140.5 121.67c22.28-2.99 46.35 0.61 64.85 14.05 15.72 11.26 27.03 28.36 31.39 47.19 8.05 35.04-1.33 74.12-25.96 100.61-14.1 15.66-33.81 26.05-54.68 28.97-15.78 2.2-32.23 1.18-47.24-4.4-16.28-6.05-30.13-17.98-39.12-32.77-8.85-14.42-12.63-31.5-12.69-48.3-0.71-28.78 10.09-57.83 30.25-78.51 13.9-14.8 33.14-24.17 53.2-26.84m1 40.07c-8.58 2.11-16.22 7.15-22.18 13.58-10.1 10.44-16.36 24.36-17.86 38.78-1.37 12.46-0.32 25.67 5.73 36.88 4.77 8.76 12.44 16.22 21.94 19.61 12.51 4.56 27.22 3.33 38.43-4.05 10.49-6.96 18.41-17.46 23.13-29.06 4.65-11.88 5.93-25.02 4.12-37.62-1.75-12.31-8.2-24.07-18.29-31.47-9.89-7.35-23.15-9.44-35.02-6.65z"/>
  <path d="m481.96 307.69c10.42-60.33 21.28-120.59 31.82-180.9 16.08 0.12 32.16-0.11 48.25 0.12 18.16 0.59 37.26 5.45 50.63 18.43 9.74 9.12 14.9 22.4 15.15 35.62 0.69 12.37-2.81 25.22-11.13 34.59-8.77 10.43-21.91 16.1-35.11 18.35 15.13 24.58 30.21 49.18 45.39 73.72-16.18 0.07-32.37 0.14-48.54-0.03-12.91-22.96-26.18-45.72-39.18-68.63-0.46-1.26-1.49-1.9-2.76-2.08-4.2 23.61-8.44 47.21-12.69 70.8-13.95 0-27.89-0.02-41.83 0.01m68.19-147.95c-3.29 17.46-6.29 34.97-9.52 52.45 9.83 0.34 20.12 0.87 29.35-3.16 7.59-3.21 13.88-9.92 15.5-18.14 1.9-8.57 0.4-18.89-6.87-24.61-7.99-6.33-18.73-6.57-28.46-6.54z"/>
  <path d="m852.29 126.84c24.54 0.39 49.33-1.47 73.64 2.74 16.56 2.76 32.66 9.88 44.59 21.9 11.89 11.54 19.6 27.11 22.04 43.46 2.72 18.3 0.48 37.49-7.31 54.34-6.37 13.95-16.43 26.13-28.71 35.28-14.33 10.97-31.73 17.36-49.43 20.22-23.14 3.93-46.69 2.68-70.04 2.9-5.59-0.02-11.16 0.04-16.74-0.04 10.75-60.25 21.28-120.54 31.96-180.8m35.38 38.4c-6 34.73-12.16 69.42-18.28 104.13 11.56 0.02 23.28 0.44 34.61-2.3 14.69-3.21 28.53-11.5 37.11-24.01 8.68-12.72 10.82-29.11 7.86-44.02-2.05-10.15-8.18-19.51-17.11-24.89-13.12-8.12-29.13-9.29-44.19-8.91z"/>
  <path d="m988.94 307.69c10.3-60.35 21.23-120.59 31.77-180.9 14.31 0.05 28.62 0.02 42.93 0.02-10.6 60.3-21.26 120.58-31.9 180.87-14.27 0-28.53-0.01-42.8 0.01z"/>
  <path d="m480.9 338.89c8.13-10.18 21.12-16.11 34.13-15.84 10.26-0.16 20.2 3.99 28.18 10.27-1.8 6.01-5.38 11.79-7.92 17.69-5.38-5.4-12.46-9.88-20.34-9.68-6.68-0.16-13.02 3.33-17.24 8.37-5.61 6.32-8.16 14.95-7.68 23.32-0.07 7.68 3.61 15.6 10.29 19.66 5.85 3.6 13.54 3.42 19.46 0.08 3.08-1.42 5.33-4.08 8.23-5.74 2.93 5.38 4.27 11.78 6.76 17.49-14.69 13.45-40.04 13.17-53.96-1.27-7.53-7.35-11.3-17.88-11.53-28.27-0.56-12.88 3.36-26.08 11.62-36.08z"/>
  <path d="m593.23 327.23c1.28-1.69 2.14-4.4 4.73-4.25 8.62 29.56 17.78 58.96 26.17 88.57-6.84-0.04-13.69-0.02-20.53 0-1.16-4.15-2.38-8.28-3.48-12.44-11.72-0.15-23.45 0-35.17-0.07-2.85 4.06-5.08 8.56-8.19 12.43-6.58 0.17-13.18 0.03-19.76 0.03 18.71-28.11 37.52-56.16 56.23-84.27m-19.25 57.61c7.29 0.04 14.58-0.09 21.87 0.07-2.02-7.75-4.49-15.37-6.71-23.06-5.24 7.54-10.07 15.35-15.16 22.99z"/>
  <path d="m741.5 323.78c8.71-1.4 17.94-0.96 26.11 2.6 9.35 4.02 16.75 12.14 20.15 21.71 7.73 22.36-1.72 50.28-23.15 61.35-10.21 5.26-22.46 6.25-33.48 3.16-11.31-3.21-20.52-12.3-24.45-23.31-7.14-20.64-0.07-45.84 17.99-58.57 5.01-3.52 10.83-5.81 16.83-6.94m3.72 18.44c-2.79 0.49-5.46 1.63-7.77 3.25-11.11 7.86-15.28 23.31-11.1 36.02 2.19 6.44 7.65 11.93 14.46 13.24 5.89 1.37 12.32-0.06 17.07-3.8 7.51-5.89 11.76-15.44 11.68-24.93 0.18-6.53-1.76-13.36-6.44-18.09-4.44-4.9-11.49-6.83-17.9-5.69z"/>
  <path d="m928.57 330.55c5.11-5.03 12.35-7.51 19.45-7.5 8.8-0.28 17.39 2.67 24.88 7.13-2.14 5.27-4.36 10.51-6.39 15.82-5.66-3.35-11.74-6.81-18.54-6.6-3.8-0.11-7.73 2.63-8.16 6.56-0.42 3.53 2 6.57 4.73 8.48 7.68 5.48 16.59 10 21.83 18.17 4.48 6.74 4.57 15.54 2.15 23.05-2.9 8.89-10.91 15.65-19.96 17.67-11.23 2.61-23.03-0.12-33.23-5.04 1.19-6.69 2.43-13.37 3.6-20.06 6.18 4.41 13.18 8.72 21.08 8.36 4.66 0.04 9.87-2.81 10.71-7.74 0.92-3.98-1.03-8.05-4.18-10.47-7.28-6.01-16.6-9.85-21.91-18-5.81-9.21-3.94-22.38 3.94-29.83z"/>
  <path d="m1211 324.95c0.61-1.23 1.74-1.89 3.08-2.13 8.86 29.55 17.63 59.13 26.45 88.71-6.92 0-13.83 0.01-20.73-0.01-1.23-4.14-2.18-8.36-3.61-12.43-11.71-0.13-23.43-0.05-35.13 0.02-2.57 4.17-5.23 8.28-7.83 12.43-6.69-0.03-13.37 0.01-20.05-0.02 19.29-28.85 38.55-57.71 57.82-86.57m-20.84 59.9c7.33-0.03 14.67 0.01 22-0.01-2.23-7.68-4.51-15.34-6.83-23-5.19 7.58-10.06 15.38-15.17 23.01z"/>
  <path d="m645.1 325.91c11.58 0.35 23.52-1.24 34.75 2.33 7.29 2.33 14.16 7.45 16.77 14.88 3.25 9.34 1.66 20.81-5.59 27.9-7.53 7.57-18.69 9.99-29.03 9.81-2.12 0.17-4.46-0.43-6.42 0.37-1.94 10.06-3.67 20.17-5.39 30.27-6.71 0.13-13.43 0.03-20.14 0.06 4.93-28.56 10.06-57.07 15.05-85.62m13.16 39.49c5.2 0.31 10.96 0.48 15.33-2.87 5.11-3.49 6.52-11.62 2.25-16.29-3.44-3.38-8.61-3.76-13.16-3.55-2.12 7.37-2.89 15.17-4.42 22.71z"/>
  <path d="m793.41 411.53c5.13-28.54 10.06-57.11 15.17-85.66 14.33 0.42 29.21-1.37 43 3.52 10.91 3.89 19.61 13.38 22.51 24.6 3.05 11.94 1.14 25.21-5.7 35.53-6.5 9.88-17.03 16.79-28.48 19.5-15.22 3.74-31 2.16-46.5 2.51m31.95-67.45c-2.9 16.44-5.75 32.89-8.69 49.32 7.12 0.12 14.48 0.1 21.2-2.61 8.13-3.04 14.87-10.17 16.44-18.83 1.43-7.5 0.51-16.4-5.56-21.7-6.35-5.6-15.31-6.29-23.39-6.18z"/>
  <path d="m878.61 411.51c5.15-28.53 10.06-57.1 15.18-85.63 6.78 0.06 13.57 0 20.36 0.03-4.84 27.18-9.65 54.36-14.4 81.56-0.43 1.27-0.13 3.02-1.1 3.98-6.68 0.23-13.37 0.01-20.04 0.06z"/>
  <path d="m983.36 326.2c8.48-0.71 17.13-0.08 25.68-0.29 16.58 0.08 33.17-0.18 49.75 0.13-1.06 5.82-1.98 11.67-3.02 17.49-9.15 0-18.3-0.05-27.44 0.02-4.01 22.66-8.05 45.32-12.05 67.98-6.71 0.01-13.41-0.02-20.11 0.01 3.95-22.68 8.08-45.33 12.03-68.01-9.33-0.01-18.65-0.03-27.98 0 1.07-5.77 1.93-11.58 3.14-17.33z"/>
  <path d="m1068.5 325.95c10 0.17 20.1-0.69 30.05 0.74 9.15 1.47 18.4 6.73 22.05 15.63 3.01 7.74 2.81 17.26-2.2 24.15-4.08 5.75-10.8 8.87-17.55 10.18 6.77 11.8 14.25 23.19 21.22 34.87-7.62 0.04-15.24-0.03-22.86 0.03-6.7-11.24-12.75-22.88-19.73-33.93-2.27 11.26-4.13 22.6-6.18 33.9-6.63 0.02-13.27 0.02-19.9 0.01 5.05-28.53 10.08-57.06 15.1-85.58m12.8 40.43c5.67 0.13 11.98 0.35 16.74-3.29 5.45-3.97 6.5-13 1.8-17.92-3.78-3.5-9.26-3.64-14.11-3.66-1.47 8.29-3.07 16.56-4.43 24.87z"/>
  <path d="m1142.4 326.29c6.58-0.86 13.6-0.26 20.35-0.26-5.07 28.49-10.06 57.01-15.12 85.51-6.78-0.03-13.57 0-20.34-0.01 5.06-28.41 9.93-56.86 15.11-85.24z"/>
 </g>
</svg>
