<svg width="939.96pt" height="397.03pt" version="1.1" viewBox="0 0 939.96 397.03" xmlns="http://www.w3.org/2000/svg">
 <path d="m709.03 34.394a15.204 15.263 0 0 1-15.204 15.263 15.204 15.263 0 0 1-15.204-15.263 15.204 15.263 0 0 1 15.204-15.263 15.204 15.263 0 0 1 15.204 15.263z" fill="#0193dc" style="paint-order:stroke fill markers"/>
 <path d="m746.04 56.362a9.588 9.6731 0 0 1-9.588 9.6731 9.588 9.6731 0 0 1-9.588-9.6731 9.588 9.6731 0 0 1 9.588-9.6731 9.588 9.6731 0 0 1 9.588 9.6731z" fill="#dc117a" style="paint-order:stroke fill markers"/>
 <path d="m719.65 112.26a23.088 23.051 0 0 1-23.088 23.051 23.088 23.051 0 0 1-23.088-23.051 23.088 23.051 0 0 1 23.088-23.051 23.088 23.051 0 0 1 23.088 23.051z" fill="#24246c" style="paint-order:stroke fill markers"/>
 <path d="m667.99 131.88a14.107 14.086 0 0 1-14.108 14.086 14.107 14.086 0 0 1-14.108-14.086 14.107 14.086 0 0 1 14.108-14.086 14.107 14.086 0 0 1 14.108 14.086z" fill="#58c7c1" style="paint-order:stroke fill markers"/>
 <path d="m644.65 169.85a29.062 29.09 0 0 1-29.062 29.09 29.062 29.09 0 0 1-29.062-29.09 29.062 29.09 0 0 1 29.062-29.09 29.062 29.09 0 0 1 29.062 29.09z" fill="#da2421" style="paint-order:stroke fill markers"/>
 <path d="m751.06 6.6521a6.6521 6.6521 0 0 1-6.6521 6.6521 6.6521 6.6521 0 0 1-6.6521-6.6521 6.6521 6.6521 0 0 1 6.6521-6.6521 6.6521 6.6521 0 0 1 6.6521 6.6521z" fill="#76c5f0" style="paint-order:stroke fill markers"/>
 <path d="m636.62 80.408a44.371 44.425 0 0 1-44.371 44.425 44.371 44.425 0 0 1-44.371-44.425 44.371 44.425 0 0 1 44.371-44.425 44.371 44.425 0 0 1 44.371 44.425z" fill="#e77a17" style="paint-order:stroke fill markers"/>
 <path d="m659.41 72.561c3.07-1.38 7.17-1.51 9.82 0.87 5.75 3.68 5.07 14.15-1.57 16.53-5.2 2.95-12.24-0.93-13.26-6.61-1.32-4.25 1.17-8.85 5.01-10.79z" fill="#fee801"/>
 <g transform="translate(-27.703 -35.579)">
  <path d="m528.42 88.56c2.48-1.12 5.08 0.43 6.53 2.45 4.19 5.56 6.27 12.35 8.58 18.84 5.48 16.68 11.11 33.35 18.52 49.29 15.62 34.76 37.5 66.51 63.36 94.43 5.6 6.74 12.24 13.06 15.47 21.36 1.76 3.33-1.18 6.71-4.41 7.33-8.29 1.64-16.76-0.47-24.66-2.96-32.03-10.62-58.93-34.12-76.32-62.76-10.63-17.56-17.78-37.23-20.73-57.55-2.41-18.92-1.88-38.62 4.39-56.79 2.14-5 4.16-10.95 9.27-13.64z" fill="#615d5c"/>
 </g>
 <g transform="translate(-27.703 -35.579)" fill="#24246c">
  <path d="m395.41 171.65c5.83-2.13 13.4-1.74 17.91 2.98 4.26 4.76 4.65 12.08 2.36 17.83-4.61 10.54-22.27 10.51-26.99 0.1-3.21-7.26-1.28-17.7 6.72-20.91z"/>
  <path d="m27.73 180.96c-0.31-2.96 2.06-6.08 5.2-5.77 26.71-0.05 53.42 0 80.12-0.02 12.37 0.16 25.54 3.25 34.63 12.16 6.27 5.74 9.55 14.23 9.5 22.67-0.16 7.36-1.53 15.11-6.21 21.03-4.7 5.91-11.75 9.22-18.68 11.77 5.91 3.12 11.31 7.47 15.04 13.06 5.4 8.98 10.7 18.01 16.03 27.02 2.15 3.68 4.57 7.23 6.12 11.23-0.84 2.36-2.7 4.53-5.45 4.26-13.01 0.03-26.01 0-39.01 0.01-2.63 0.36-4.61-1.73-5.66-3.89-6.11-11.49-12.32-22.93-18.45-34.41-1.24-2.25-3.06-4.74-5.88-4.84-7.55-0.83-15.17-0.31-22.75-0.38 0.09 12.72 0.06 25.45 0.02 38.18 0.26 2.91-2.32 5.55-5.24 5.31-11.37 0.06-22.75 0.05-34.12 0.01-2.91 0.2-5.4-2.48-5.19-5.33-0.04-37.36 0-74.72-0.02-112.07m43.59 22.38c0.02 7.76 0.04 15.52-0.01 23.28 7.92-0.01 15.85 0.15 23.77-0.11 4.84-0.25 9.85-0.94 14.12-3.38 5.71-3.43 5.94-13.01 0.41-16.73-3.65-2.5-8.23-2.97-12.54-3.06-8.58-0.06-17.16-0.01-25.75 0z"/>
  <path d="m334.65 179.98c-0.13-2.88 2.32-5.37 5.24-5.07 8.72-0.06 17.45-0.15 26.18 0.04 3.18-0.08 5.4 2.99 5.07 6.01 0 37.04-0.02 74.07 0.01 111.1 0.25 2.75-1.29 5.93-4.28 6.23-5.36 0.09-10.74 0.29-16.08-0.07-4.23-1.61-5.03-6.81-7.29-10.26-5.46 3.69-10.43 8.43-16.91 10.29-9.99 2.89-20.99 2.84-30.73-0.97-10.49-4.22-18.53-13.47-22.25-24.04-3.45-9.32-3.73-19.47-3.01-29.28 1.02-10.83 4.95-21.8 12.82-29.55 7.35-7.59 18.12-11.19 28.56-10.94 7.96-0.17 15.6 2.7 22.59 6.26 0.11-9.92-0.07-19.84 0.08-29.75m-27.66 61.15c-2.47 7.1-2.77 15.05-0.68 22.28 1.47 5.29 5.82 10.23 11.61 10.45 6.38 0.83 11.64-3.46 16.66-6.69 0.06-10.8-0.02-21.6 0.04-32.4-4.23-2.2-8.62-4.86-13.59-4.3-6.4 0.09-12.05 4.69-14.04 10.66z"/>
  <path d="m178.86 216.77c14.3-8.69 31.49-12.38 48.11-10.57 9.76 0.74 20.21 3.2 27.23 10.5 6.6 6.99 8.51 16.98 8.56 26.29 0.01 11.16 0.09 22.32-0.04 33.48 2.36 1.83 6.68 1.99 7.08 5.59 0.54 2.16-1.32 3.73-2.73 5.02-5.1 4.31-10.37 8.43-15.37 12.85-6.86 0.52-13.36-2.84-17.77-7.93-11.74 5.66-24.82 9.67-37.97 7.91-7.33-0.82-14.82-3.34-19.94-8.88-7.1-7.55-8.68-19.31-5.18-28.86 4.23-10.46 14.82-16.63 25.21-19.64 10.34-3.2 21.26-1.86 31.87-1.32-0.18-4.21-2.94-8.24-7.24-9.03-11.06-2.33-21.8 2.48-31.64 6.98-2.42 1.31-6.22 1.11-7.33-1.82-2.03-4.44-4.03-8.9-5.86-13.43-1.33-2.79 0.46-5.86 3.01-7.14m30.33 49.51c-2.31 0.75-4.68 2.22-5.41 4.69-0.62 2.07 1.25 3.7 3.07 4.18 7.36 1.64 14.96-0.39 21.53-3.79-0.05-2.4-0.06-4.79-0.05-7.18-6.41 0.05-12.98 0.07-19.14 2.1z"/>
  <path d="m388.1 205.91c7.59-0.65 15.25-0.14 22.87-0.26 3.41-0.02 8.26 2.2 7.64 6.3-0.02 27.02 0.01 54.04-0.01 81.05 0.26 2.64-1.55 5.83-4.57 5.37-8.02 0.01-16.05 0.06-24.06-0.02-2.86 0.31-4.53-2.84-4.33-5.32-0.06-27.01 0.01-54.02-0.03-81.03-0.13-2.28 0.35-4.86 2.49-6.09z"/>
  <path d="m461.6 206.83c15.07-2.51 31.7-0.84 44.43 8.2 9.27 6.37 15.25 16.84 17.02 27.86 1.86 12.49 0.74 26.12-6.3 36.94-6.11 9.74-16.52 16.32-27.66 18.75-12.12 2.72-25.05 2.27-36.81-1.84-12.76-4.59-23.22-15.47-26.57-28.7-3.42-13.21-2.59-27.99 4.15-40.04 6.49-11.58 18.86-18.98 31.74-21.17m4.95 28.97c-7.01 2.89-9.83 11.08-9.37 18.16-0.16 6.85 3.27 14.29 10.04 16.75 6.26 2.02 14.14 1.36 18.81-3.72 4.05-4.58 4.9-11.08 4.35-16.96-0.44-4.89-2.5-9.96-6.67-12.79-4.99-3.31-11.67-3.64-17.16-1.44z"/>
  <path d="m68.53 305.84c17.61-2.04 35.38 0.68 52.44 5.07 2.61 0.31 4.86 2.33 4.89 5.06 1.03 8.66 2.17 17.32 2.95 26.01 0.24 2.05 0.09 4.74-2.08 5.73-1.64 1.26-3.64 0.39-5.29-0.33-15.66-7.13-32.9-12.95-50.32-10.49-2.05 0.53-4.98 0.91-5.72 3.27-0.72 2.08 1.11 3.86 2.91 4.52 14.58 5.78 30.74 6.16 45.05 12.79 7.34 3.12 13.94 8.35 17.82 15.41 4.91 8.77 5.34 19.44 3.05 29.06-2.56 10.6-10.5 19.34-20.25 23.97-14.24 6.99-30.54 7.18-46.05 6.32-10.93-0.84-21.76-2.77-32.49-4.97-2.91-0.49-4.56-3.31-4.54-6.1-0.62-9.41-1.53-18.8-2.32-28.19-0.74-3.35 3.14-6.4 6.2-4.84 16.49 7.06 33.8 14.78 52.17 13.32 3.81-0.53 8.55-1.13 10.72-4.74 1.51-4.33-3.63-6.2-6.81-7.22-14.76-4.24-30.44-5.78-44.23-12.98-8.42-4.01-15.31-11.49-17.53-20.67-3.02-12.2-1.09-26.5 7.73-35.94 8.11-8.82 20.14-12.55 31.7-14.06z"/>
  <path d="m314.55 305.82c21.95-1.69 45.79-0.68 64.84 11.61 13.47 8.53 20.99 24.02 22.61 39.54 1.98 17.38 0.41 36.38-9.79 51.15-10.09 14.25-27.51 21.03-44.28 23.25-17.06 1.99-34.69 1.84-51.33-2.82-13.61-3.82-26.64-11.99-33.57-24.64-6.18-11.2-8.17-24.25-7.78-36.91 0-15.74 4.38-32.51 16.02-43.73 11.51-11.19 27.68-15.82 43.28-17.45m7.59 36.37c-8.41 0.9-17.15 5.16-20.7 13.25-3.45 8.07-3.48 17.54-0.55 25.77 2.7 7.33 9.74 12.2 17.19 13.8 9.65 2 20.27 1.76 29.2-2.79 6.8-3.45 10.93-10.74 11.66-18.18 1.24-9.16-0.49-19.85-8.08-25.95-8.01-6.29-18.96-7.02-28.72-5.9z"/>
  <path d="m491.99 307.52c12.19-0.01 25.04 2.85 34.41 11.08 6.71 5.76 10.84 14.56 10.43 23.47 0.24 7.77-1.5 16-6.64 22.05-4.68 5.45-11.38 8.63-18.05 10.94 6.16 3.51 12.05 7.99 15.68 14.21 6.74 11.49 13.67 22.88 20.33 34.41 2.17 2.96-0.42 7.49-4.07 7.05-13.05 0.09-26.11 0.03-39.16 0.03-2.31 0.21-4.35-1.29-5.33-3.29-6.35-11.65-12.56-23.37-18.86-35.05-1.28-2.2-3.08-4.71-5.86-4.89-7.54-0.58-15.12-0.24-22.68-0.35-0.02 11.94-0.04 23.88 0.02 35.81-0.07 2.19 0.12 4.83-1.68 6.44-1.42 1.49-3.63 1.29-5.5 1.36-10.69-0.07-21.38 0.04-32.07-0.04-3.1 0.29-5.74-2.67-5.35-5.7-0.02-37.36-0.02-74.72 0-112.07-0.33-3.02 2.36-5.9 5.44-5.45 26.32-0.07 52.63-0.03 78.94-0.01m-40.8 28.13c0.02 7.81-0.03 15.62 0.03 23.43 11.81-0.23 24.07 1.27 35.48-2.43 7.38-2.02 9.07-13.03 3.21-17.58-3.99-2.92-9.19-3.23-13.95-3.42-8.26-0.04-16.51-0.01-24.77 0z"/>
  <path d="m707.47 308.55c1.43-1.48 3.66-1.07 5.51-1.2 11.31 0.09 22.62-0.11 33.92 0.09 3.8 0.14 4.86 4.49 6.28 7.29 8.8 18.76 17.33 37.66 26.38 56.3 8.74-19.69 17.6-39.32 26.37-59 0.89-2.18 2.52-4.69 5.19-4.61 11.59-0.1 23.18-0.1 34.77 0 3.77-0.23 5.85 4.5 3.65 7.42-18.79 38.04-37.58 76.09-56.4 114.13-0.85 2.02-2.75 3.7-5.05 3.58-6.71 0.08-13.42 0.08-20.13 0-2.23 0.06-4.21-1.44-5.01-3.47-18.74-38.19-37.48-76.39-56.19-114.6-0.88-1.85-1.1-4.55 0.71-5.93z"/>
  <path d="m140.47 312.96c-0.42-3.06 2.46-5.87 5.51-5.44 18 0.01 36.01-0.15 54.01 0.13 12.97 0.81 26.68 2.22 37.78 9.61 8.53 5.59 13.51 15.6 13.87 25.68 0.53 8.73-0.46 17.88-5.02 25.52-4.43 7.57-12.23 12.59-20.49 15.09-13.76 4.47-28.41 3.02-42.63 3.09-0.07 13.11 0.09 26.23-0.07 39.35 0.11 2.82-2.7 5.02-5.42 4.76-10.67 0.05-21.35 0.03-32.03 0-3.07 0.31-5.96-2.58-5.52-5.67 0.03-37.37-0.01-74.75 0.01-112.12m42.9 23.36c0.01 7.44-0.03 14.87 0.03 22.3 7.33-0.09 15.33 1.54 22.06-2.19 6.84-3.75 6.28-14.99-0.46-18.56-6.6-3.78-14.46-1.92-21.63-1.55z"/>
  <path d="m541.61 312.99c-0.3-2.95 2.24-6.01 5.35-5.49 35.66-0.01 71.32 0 106.98 0 2.73-0.43 5.99 1.51 5.88 4.51 0.05 7.32 0.1 14.65-0.01 21.98 0.05 2.44-2.34 4.47-4.7 4.41-10.81 0.14-21.63-0.01-32.44 0.07-0.01 28.86 0 57.72 0 86.58 0.33 2.76-1.62 5.85-4.65 5.66-11.32 0.12-22.66 0.08-33.98 0.03-3.12 0.26-5.46-2.69-5.23-5.64-0.06-28.89 0.01-57.78-0.03-86.67-10.93-0.03-21.86 0.16-32.78-0.08-2.77 0.04-4.61-2.87-4.38-5.41-0.08-6.65-0.03-13.3-0.01-19.95z"/>
  <path d="m665.41 308.46c0.36-0.2 1.09-0.6 1.45-0.79 10.04-0.35 20.12-0.16 30.17-0.09 2.75-0.13 4.2 2.96 4.08 5.35 0.04 37.03-0.04 74.06 0.04 111.09-0.03 1.93-0.05 4.17-1.57 5.6-1.42 1.53-3.72 1.04-5.57 1.18-8.69-0.12-17.4 0.09-26.09-0.08-2.87 0.06-4.57-3.13-4.25-5.69v-112.05c-0.12-1.68 0.47-3.38 1.74-4.52z"/>
  <path d="m868.13 313.12c1.29-2.35 2.78-5.45 5.88-5.54 9.33-0.12 18.67-0.13 28-0.02 2.56-0.09 4.08 2.36 5.17 4.32 19.82 37.17 39.76 74.28 59.58 111.45 2.2 2.95 0.14 7.8-3.78 7.39-12 0.12-24.01 0.03-36.01 0.05-2.38 0.22-4.69-1.07-5.65-3.25-2.6-4.97-5.07-10.02-7.81-14.93-19.57 0.04-39.15 0.05-58.72 0-2.77 4.99-5.19 10.17-7.98 15.15-1.03 2.16-3.44 3.25-5.76 3.03-10.69-0.05-21.39 0.12-32.07-0.09-3.46 0.01-5.84-4.34-3.52-7.12 20.82-36.85 41.84-73.59 62.67-110.44m2.05 71.76c9.7-0.02 19.39 0.02 29.09-0.02-4.75-9.06-9.34-18.2-14.15-27.22-4.88 9.13-9.99 18.14-14.94 27.24z"/>
 </g>
</svg>
