<?xml version="1.0" encoding="UTF-8"?>
<svg id="svg29" width="1612pt" height="437.62pt" version="1.1" viewBox="0 0 1612 437.62" xmlns="http://www.w3.org/2000/svg" xmlns:cc="http://creativecommons.org/ns#" xmlns:dc="http://purl.org/dc/elements/1.1/" xmlns:rdf="http://www.w3.org/1999/02/22-rdf-syntax-ns#">
 <metadata id="metadata35">
  <rdf:RDF>
   <cc:Work rdf:about="">
    <dc:format>image/svg+xml</dc:format>
    <dc:type rdf:resource="http://purl.org/dc/dcmitype/StillImage"/>
    <dc:title/>
   </cc:Work>
  </rdf:RDF>
 </metadata>
 <g id="#19171cff" transform="translate(-192.75,-48.62)" fill="#19171c">
  <path id="path13" d="m192.75 49c48.78 0.03 97.56-0.07 146.34 0.05 30.88 0.24 62.44 7.89 87.88 25.94 17.53 12.35 30.38 31.15 35.17 52.09 5.41 23.79 4.13 49.6-6.13 71.93-10.95 24.02-31.97 42.43-55.86 53.04l78.57 152.43h-89.98l-63.87-129h-49.595v129h-82.525v-355.48m82.525 167.24c15.59 0.01 31.155 0.03 46.745-0.01 14.95-0.31 30.71-3.9 42.05-14.22 11.14-9.99 15.88-25.34 15.95-39.96 0.29-13.85-3.31-28.62-13.29-38.73-11.18-11.78-27.92-16.21-43.7-16.77-15.91-0.14-31.845 0.02-47.755-0.08z"/>
  <path id="path15" d="m925.76 49h73.49v355.49h-73.49v-25.13c-9.99 11.33-23.87 18.6-38.01 23.39-11.44 3.79-23.59 5.43-35.62 4.58-19.43-0.91-39-6.14-55.25-17.07-15.07-10.1-26.69-24.88-33.86-41.47-9.05-20.7-12.13-43.51-12.36-65.94-0.23-20.86 1.76-42 8.42-61.86 5.74-17.29 15.6-33.51 29.73-45.18 19.92-16.73 46.63-23.1 72.2-22.69 12.22 0.45 24.21 3.61 35.51 8.19 10.92 4.57 21.55 10.65 29.24 19.85v-132.16m-56.18 159.76c-10.85 1.59-20.97 7.48-27.59 16.24-10.35 13.58-13.5 31.09-14.39 47.75-0.52 16.69 0.28 33.83 6.15 49.63 4.01 10.81 11.46 20.79 22.09 25.77 12.04 5.5 26.2 5.61 38.67 1.47 12.49-4.21 21.98-15.06 25.91-27.47 4.6-12.89 3.45-26.75 3.58-40.18-0.08-12.02 0.6-24.19-2.04-36.02-2.37-11.6-7.88-23.26-17.83-30.19-9.9-7.11-22.75-8.61-34.55-7z"/>
  <path id="path17" d="m1039.2 49.01h76.26v68.74h-76.26z"/>
  <path id="path19" d="m563.02 158.09c22.97-6.78 47.35-7.27 71.02-4.74 19.66 2.34 39.94 8.13 54.79 21.86 10.37 9.34 17.15 22.08 20.82 35.43 3.59 13.09 4.84 26.75 4.6 40.29v72.07c0.03 6.32-0.22 12.69 0.58 18.98 0.49 3.47 2.05 7.07 5.13 8.98 3.7 2.4 8.27 2.57 12.54 2.88v50.66c-15.86-0.32-31.81 0.87-47.6-1.1-9.75-1.26-19.84-4.29-26.89-11.5-4.45-4.48-7.33-10.22-9.43-16.12-11.38 15.55-29.17 25.64-48.01 28.99-20.57 3.65-42.24 2.9-62.07-4.01-16.51-5.72-31.54-16.85-40.01-32.34-8.96-16.15-10.34-35.64-6.51-53.47 3.22-15.21 11.95-29.23 24.45-38.53 15.19-11.71 34.45-15.95 53.01-18.85 24.45-3.5 49.16-4.56 73.81-5.61-0.07-12.26 1.08-25.29-4.79-36.54-4-8.2-12.44-13.49-21.32-14.79-10.96-1.6-23.19-0.72-32.33 6.15-7.38 5.59-10.91 14.93-11.15 23.98h-73.47c0.73-15.88 6.38-31.65 16.62-43.89 11.77-14.3 28.64-23.57 46.21-28.78m47.95 135.93c-10.91 1.58-22.19 3.4-31.81 9.14-5.47 3.23-9.33 8.74-11.18 14.76-2.98 9.38-2.85 20.21 2.29 28.82 3.72 6.41 10.34 10.8 17.47 12.51 11.09 2.58 23.23 0.41 32.69-5.95 9.41-6.25 15.81-16.23 19.23-26.87 3.76-11.33 3.95-23.41 3.88-35.23-10.89 0.49-21.76 1.45-32.57 2.82z"/>
  <path id="path21" d="m1258 153.12c21.17-1.36 42.83 0.51 62.86 7.82 19.99 7.16 38.03 20.11 50.48 37.4 11.33 15.46 18.2 33.86 21.35 52.68 2.97 17.95 3.12 36.39 0.45 54.39-2.9 19.11-9.65 37.82-20.83 53.68-11.63 16.66-28.14 29.75-46.85 37.59-21.85 9.29-46.09 11.64-69.6 9.81-20.16-1.64-40.33-6.98-57.62-17.71-14.5-8.84-26.64-21.44-35.11-36.14-10.47-18.08-15.52-38.87-16.91-59.59-1.5-23.31 0.6-47.17 8.63-69.22 6.54-17.91 17.66-34.34 32.76-46.12 19.89-15.81 45.34-23.04 70.39-24.59m4.5 55.66c-8.23 1.19-16.31 4.6-22.25 10.53-6.52 6.08-10.58 14.31-13.23 22.71-4.36 14.23-5.09 29.27-4.76 44.06 0.46 11.98 1.9 24.07 6.05 35.39 3.18 8.67 8.22 16.95 15.67 22.59 7.13 5.47 16.13 8.08 25.04 8.37 9.19 0.2 18.74-1.62 26.43-6.9 6.43-4.25 11.22-10.59 14.58-17.45 5.61-11.9 7.63-25.13 8.35-38.16 0.73-16.81 0.07-34.06-5.28-50.16-3.2-9.35-8.48-18.38-16.72-24.13-9.72-6.89-22.3-8.49-33.88-6.85z"/>
  <path id="path23" d="m1039.2 160.01h76.26v244.5h-76.26z"/>
 </g>
 <g id="#0199aeff" transform="translate(-192.75,-48.62)">
  <path id="path26" d="m1479.7 60.7c19.28-10.29 41.84-13.58 63.42-10.89 15.76 2.03 30.82 8.22 43.97 17.06 13.65 9.02 25.66 20.72 34.25 34.7 13.25 21.35 17.87 47.7 13.49 72.37-4.17 23.55-15.77 45.02-29.79 64.12-20.02 28.74-40.13 57.4-60.1 86.18h118.34v-157.13l82.695-118.49v275.62h58.77v80.53h-58.77v81.475h-82.695v-81.475h-173.12l-67.042-46.92c40.19-57.71 80.56-115.28 120.81-172.95 4.65-6.4 9.34-13.09 11.08-20.95 2.47-8.74 0.34-18.57-5.67-25.39-7.33-8.66-20.53-11.84-30.84-6.92-5.3 2.62-9.36 7.11-12.57 11.98l-66.02-46.04c10.11-15.17 23.62-28.29 39.79-36.88z" fill="#0199ae"/>
 </g>
</svg>
