<?xml version="1.0" encoding="UTF-8"?>
<!-- Created with Inkscape (http://www.inkscape.org/) -->
<svg id="svg4575" width="29.269mm" height="30.816mm" version="1.1" viewBox="0 0 29.269 30.816" xmlns="http://www.w3.org/2000/svg" xmlns:cc="http://creativecommons.org/ns#" xmlns:dc="http://purl.org/dc/elements/1.1/" xmlns:rdf="http://www.w3.org/1999/02/22-rdf-syntax-ns#">
 <metadata id="metadata4572">
  <rdf:RDF>
   <cc:Work rdf:about="">
    <dc:format>image/svg+xml</dc:format>
    <dc:type rdf:resource="http://purl.org/dc/dcmitype/StillImage"/>
    <dc:title/>
   </cc:Work>
  </rdf:RDF>
 </metadata>
 <g id="layer1" transform="translate(31.643 -133.43)" stroke-width=".26458">
  <path id="path2" d="m-2.4419 141.16c-0.10583-0.87313-1.2144-2.495-1.9976-2.9104-0.28878-0.1944-0.60935-0.33677-0.94721-0.42069-1.0081-0.24606-2.0214-0.47889-3.0321-0.71437l-8.681-2.0082c-2.2225-0.51682-4.4459-1.0345-6.6701-1.5531-0.41651-0.11488-0.85068-0.15166-1.2806-0.10848l-2.0373 0.2831c-0.44403 0.04-0.87661 0.16295-1.2753 0.36248-0.93514 0.49937-1.5838 1.4064-1.7542 2.4527-0.17992 0.97102-0.26458 1.9606-0.40746 2.9395s-0.26458 1.9553-0.381 2.9316c-0.11994 0.92075-0.23989 1.8406-0.35983 2.7596-0.11377 0.87048-0.22225 1.7436-0.33867 2.6141-0.11725 0.73316 0.03199 1.4841 0.42069 2.1167 0.37571 0.60589 0.74348 1.2171 1.1165 1.8256 2.2102 3.623 4.4212 7.2452 6.6331 10.866 0.4433 0.74321 1.1559 1.2871 1.9897 1.5187 0.67611 0.22396 1.4155 0.15089 2.0346-0.20108l10.7-6.2071c0.48154-0.28046 0.97102-0.54769 1.434-0.8546 0.54504-0.36248 1.0583-0.7673 1.5875-1.1509 0.42569-0.29338 0.73327-0.72849 0.86783-1.2277 0.11642-0.43391 0.19844-0.87577 0.2884-1.3229 0.33514-1.6634 0.66852-3.3276 1.0001-4.9927 0.34396-1.7198 0.68527-3.4396 1.0345-5.162 0.14242-0.60203 0.16132-1.2267 0.05556-1.8362z"/>
  <path id="path4" d="m-5.5746 143.41c-0.26458 1.3044-0.50536 2.6114-0.75671 3.9185-0.27693 1.4358-0.55474 2.8716-0.83344 4.3074-0.20902 1.0795-0.41804 2.159-0.62442 3.2412-0.05714 0.36363-0.27476 0.68229-0.59267 0.86783l-10.134 6.0219c-0.46038 0.26458-0.9234 0.54504-1.3811 0.8202-0.58822 0.37381-1.344 0.35499-1.9129-0.0476-0.3157-0.19924-0.57886-0.47147-0.76729-0.79374l-5.0774-8.3397c-0.83608-1.3652-1.6589-2.7437-2.4977-4.1116-0.22013-0.3767-0.29361-0.82134-0.20638-1.2488 0.11642-0.79375 0.20902-1.569 0.31485-2.3522 0.09349-0.70556 0.18785-1.4164 0.2831-2.1325l0.30956-2.3283 0.2831-2.1564c0.07673-0.58737 0.15875-1.1774 0.23283-1.7648 0.05235-0.74239 0.46569-1.4118 1.106-1.7912 0.34644-0.19438 0.74105-0.28615 1.1377-0.26458 0.19844 0.0423 0.56092 0.11642 0.92075 0.20373l8.4058 2.0294 9.6785 2.331c1.1402 0.25419 2.009 1.1797 2.1908 2.3336 0.05197 0.42007 0.02595 0.84613-0.07673 1.2568z" fill="#fedc00"/>
  <path id="path6" d="m-23.873 148.93a10.374 10.374 0 0 1 0.85196-4.1698 4.3471 4.3471 0 0 1 0.92075-1.352 2.6458 2.6458 0 0 1 2.323-0.75141 3.6407 3.6407 0 0 1 2.3812 1.2779 4.3683 4.3683 0 0 1 0.87048 1.8521 8.3106 8.3106 0 0 1 0.15346 2.5321 10.612 10.612 0 0 1-0.65088 3.0083 4.9054 4.9054 0 0 1-1.1165 1.8071 2.6458 2.6458 0 0 1-2.3812 0.74348 3.7042 3.7042 0 0 1-2.0373-0.98425 4.0931 4.0931 0 0 1-1.0742-1.8918 7.2681 7.2681 0 0 1-0.24077-2.0717zm5.1726-1.7806c-0.01852-0.20108-0.0291-0.4445-0.0635-0.68527a1.6907 1.6907 0 0 0-0.46567-1.0425 0.94985 0.94985 0 0 0-1.3705 0.0159 2.4024 2.4024 0 0 0-0.45244 0.77788 8.6042 8.6042 0 0 0-0.43656 1.8362 7.4083 7.4083 0 0 0-0.08467 2.0796 1.7568 1.7568 0 0 0 0.38365 0.97367 0.94456 0.94456 0 0 0 1.4843 0 2.8284 2.8284 0 0 0 0.4154-0.72496 10.292 10.292 0 0 0 0.59002-3.2306z"/>
  <path id="path8" d="m-15.475 150.07 0.99219-5.7944 6.0854 1.5875-0.16933 0.37041c-0.2831 0.61384-0.56885 1.225-0.84667 1.8521a0.13494 0.13494 0 0 1-0.19314 0.0926c-0.90752-0.26459-1.8177-0.49477-2.7279-0.74348l-0.12435-0.0291-0.1561 0.92604 0.37835 0.0741a4.0825 4.0825 0 0 1 3.1459 3.2173 4.2148 4.2148 0 0 1-0.37571 2.7067 3.1353 3.1353 0 0 1-2.3336 1.7118 4.8736 4.8736 0 0 1-3.0374-0.47625 5.4928 5.4928 0 0 1-2.2754-1.9711c-0.0291-0.045-0.05556-0.09-0.08996-0.14552l2.0399-1.3229a6.6146 6.6146 0 0 0 0.43127 0.63765 2.2992 2.2992 0 0 0 1.4076 0.79375 1.3547 1.3547 0 0 0 1.4737-0.93398 1.6484 1.6484 0 0 0-0.67469-2.0002 3.2941 3.2941 0 0 0-1.4579-0.52917 5.5562 5.5562 0 0 0-1.3573-0.0291c-0.03704 8e-3 -0.07938 5e-3 -0.13494 5e-3z"/>
  <path id="path10" d="m-25.418 152.18-2.2225-0.42597 0.97896-6.9268-0.55827 0.12965c-0.34396 0.082-0.69056 0.1614-1.0319 0.24871a0.082021 0.082021 0 0 1-0.12435-0.045q-0.26458-0.79375-0.52917-1.606a0.19579 0.19579 0 0 1 0-0.0397l5.0456-1.9553z"/>
  <path id="path12" d="m-12.126 143.39c-0.97896 0-1.7462-0.7038-1.7568-1.5293a1.3414 1.3414 0 0 1 1.0425-1.4182 1.6722 1.6722 0 0 1 1.6775 0.68527 1.5081 1.5081 0 0 1 0.03969 1.6986 1.2171 1.2171 0 0 1-1.0028 0.56357zm0.39423-1.5293a2.2066 2.2066 0 0 0-0.08996-0.3466 0.67733 0.67733 0 0 0-0.67733-0.37835 0.59002 0.59002 0 0 0-0.49742 0.49741 1.4922 1.4922 0 0 0-0.02117 0.45244 0.63765 0.63765 0 0 0 0.61648 0.55563 0.58738 0.58738 0 0 0 0.62971-0.48948c0.01323-0.082 0.02117-0.16669 0.03969-0.29105z"/>
  <path id="path14" d="m-21.897 138.8a0.84138 0.84138 0 0 1-0.32544 0.71967 0.33867 0.33867 0 0 0-0.14817 0.47889c0.03704 0.11642 0.08467 0.23284 0.11642 0.3519a0.24606 0.24606 0 0 1-0.30956 0.34396 0.59267 0.59267 0 0 1-0.4736-0.37042l-0.17992-0.43392a0.82815 0.82815 0 0 0-0.05292-0.11112 0.23283 0.23283 0 0 0-0.23548-0.14817 0.21696 0.21696 0 0 0-0.1614 0.20902 2.4051 2.4051 0 0 1-0.06615 0.26459 0.29633 0.29633 0 0 1-0.34396 0.19843 0.42333 0.42333 0 0 1-0.40217-0.51064q0.13229-0.89165 0.26458-1.7833a0.34131 0.34131 0 0 1 0.46302-0.33867 9.7181 9.7181 0 0 1 1.2144 0.32544 0.88371 0.88371 0 0 1 0.64029 0.80433zm-1.3732-0.36777a0.18256 0.18256 0 0 0-0.17992 0.12964 0.26458 0.26458 0 0 0 0.05556 0.29898 0.51065 0.51065 0 0 0 0.42069 0.1323 0.18521 0.18521 0 0 0 0.19844-0.15082 0.38629 0.38629 0 0 0-0.06085-0.24606 0.52917 0.52917 0 0 0-0.43392-0.16404z"/>
  <path id="path16" d="m-17.169 142.02a4.6884 4.6884 0 0 1-1.1642-0.26458 0.34925 0.34925 0 0 1-0.26458-0.4154c0.02381-0.26458 0.06879-0.52917 0.11112-0.79375 0.05292-0.33867 0.10848-0.67469 0.16404-1.0134q0-0.0476 0.01852-0.0979a0.32015 0.32015 0 0 1 0.43127-0.30427 7.3475 7.3475 0 0 1 1.1033 0.30956c0.71438 0.28575 1.0028 0.96573 0.77788 1.7462-0.15346 0.56886-0.51329 0.83344-1.1774 0.83344zm-0.11906-0.67204a0.48154 0.48154 0 0 0 0.45773-0.26459 1.0134 1.0134 0 0 0 0.11112-0.38629 0.6641 0.6641 0 0 0-0.54769-0.73554 0.26458 0.26458 0 0 0-0.3466 0.20638 6.2944 6.2944 0 0 0-0.12435 0.65352 0.40217 0.40217 0 0 0 0.44715 0.52652z"/>
  <path id="path18" d="m-19.439 141.47a0.56092 0.56092 0 0 1-0.41275-0.1905 0.43656 0.43656 0 0 1-0.06879-0.0873 0.79375 0.79375 0 0 0-0.72231-0.39423 0.93133 0.93133 0 0 0-0.31221 0.0794 1.479 1.479 0 0 1-0.37042 0.10584 0.3519 0.3519 0 0 1-0.32015-0.58473c0.26458-0.45244 0.52917-0.90488 0.81227-1.3573 0.04498-0.0741 0.08996-0.14817 0.13229-0.22225a0.47625 0.47625 0 0 1 0.45244-0.27252 0.58473 0.58473 0 0 1 0.55298 0.33072 3.5904 3.5904 0 0 1 0.16933 0.59003c0.127 0.55033 0.24871 1.1007 0.37042 1.651a0.26458 0.26458 0 0 1-0.2831 0.35189zm-0.71702-1.4843a0.635 0.635 0 0 0-0.15346-0.15875c-0.05821-0.0265-0.13494 0.09-0.12965 0.18785a0.12965 0.12965 0 0 0 0.13494 0.14288c0.10054 3e-3 0.11377-0.0741 0.14817-0.17198z"/>
  <path id="path20" d="m-14.25 140.4c-0.04763 0.30162-0.09525 0.6006-0.14552 0.90223-0.05027 0.30162-0.11112 0.65616-0.16933 0.98425a0.41804 0.41804 0 0 1-0.46038 0.41275c-0.33602-0.0318-0.52917-0.21431-0.51329-0.51329 0.01588-0.29898 0.08202-0.62707 0.13229-0.93927 0.05027-0.31221 0.10583-0.61648 0.1614-0.9234 0-0.0291 0-0.0556 0.01587-0.0847 0.08996-0.43127 0.40217-0.52916 0.79375-0.29633a0.49477 0.49477 0 0 1 0.18521 0.45773z"/>
  <path id="path22" d="m-20.211 156.19 0.14023-0.30691a0.1905 0.1905 0 0 1 0.24606-0.12436 0.17992 0.17992 0 0 1 0.13758 0.24606c-0.12965 0.3175-0.26458 0.62707-0.4101 0.93927a0.17198 0.17198 0 0 1-0.19579 0.10055 0.26458 0.26458 0 0 1-0.24606-0.17727 2.9104 2.9104 0 0 1-0.05821-0.31486l-0.03704-0.19579c-0.04763 0.0662-0.07938 0.10319-0.10583 0.14552a1.5875 1.5875 0 0 0-0.06879 0.14552 0.22225 0.22225 0 0 1-0.23019 0.16669 0.26458 0.26458 0 0 1-0.25135-0.21961c-0.02117-0.11641-0.03175-0.23547-0.04233-0.35454-0.02117-0.22225-0.03969-0.4445-0.05556-0.66675 0-0.15875 0.03969-0.24606 0.13758-0.25135a0.24871 0.24871 0 0 1 0.24606 0.23019c0.01587 0.13493 0.03439 0.26458 0.05027 0.40745h0.04233c0.04498-0.09 0.09525-0.17727 0.13758-0.26458a0.20638 0.20638 0 0 1 0.22225-0.1561 0.23548 0.23548 0 0 1 0.2196 0.20108c0.01852 0.0926 0.02646 0.18785 0.04233 0.28046 0.01587 0.0926 0.02381 0.10848 0.03704 0.16139z"/>
  <path id="path24" d="m-16.391 158.02c0.05292-0.29104 0.11112-0.61648 0.17462-0.93927a0.17198 0.17198 0 0 1 0.18785-0.15875 0.24077 0.24077 0 0 1 0.24606 0.16933v0.0476c0.04233 0.20373 0.04233 0.20638 0.22225 0.082a0.40746 0.40746 0 0 1 0.46567 0 0.14023 0.14023 0 0 1 0.03175 0.24606 2.1616 2.1616 0 0 1-0.22754 0.16934 0.16404 0.16404 0 0 0-0.06615 0.21431q0.0926 0.26458 0.17462 0.51594a0.19844 0.19844 0 0 1-0.02646 0.24077 0.19579 0.19579 0 0 1-0.26458-0.0212 0.63765 0.63765 0 0 1-0.16669-0.20373c-0.05292-0.0979-0.08202-0.20638-0.127-0.30692a0.10054 0.10054 0 0 0-0.06879-0.0582 0.13229 0.13229 0 0 0-0.08202 0.0582 0.42333 0.42333 0 0 0-0.03704 0.11642 0.19579 0.19579 0 0 1-0.19579 0.18521 0.26458 0.26458 0 0 1-0.26458-0.21167 1.3229 1.3229 0 0 1 0.02381-0.14552z"/>
  <path id="path26" d="m-17.872 157.59c0.05292-0.29105 0.10583-0.61648 0.17198-0.93928a0.15081 0.15081 0 0 1 0.21696-0.13758 3.5692 3.5692 0 0 1 0.6059 0.20373 0.45773 0.45773 0 0 1 0.08996 0.79375 0.16404 0.16404 0 0 0-0.0635 0.20638 1.2515 1.2515 0 0 1 0.05556 0.26458 0.10848 0.10848 0 0 1-0.14817 0.12435 0.29633 0.29633 0 0 1-0.23812-0.20902 2.5294 2.5294 0 0 0-0.10583-0.26458 0.14288 0.14288 0 0 0-0.10319-0.0661 0.16933 0.16933 0 0 0-0.07144 0.082 0.26458 0.26458 0 0 0-0.01852 0.0714 0.16933 0.16933 0 0 1-0.20373 0.16669 0.24077 0.24077 0 0 1-0.18785-0.29634zm0.75935-0.39688a0.2831 0.2831 0 0 0 0.08202-0.10319 0.18785 0.18785 0 0 0-0.19579-0.17727 0.10319 0.10319 0 0 0-0.12171 0.10584c-0.0053 0.0953 0.07673 0.16933 0.23548 0.17462z"/>
  <path id="path28" d="m-19.46 156.76c0-0.52917 0.40746-0.83609 0.86519-0.62971a0.75142 0.75142 0 0 1 0.42333 0.55298 0.90752 0.90752 0 0 1 0 0.3175 0.56621 0.56621 0 0 1-0.4101 0.52916 0.65881 0.65881 0 0 1-0.67469-0.20373 0.76994 0.76994 0 0 1-0.20373-0.5662zm0.61912-0.34925a0.75142 0.75142 0 0 0-0.17992 0.1561 0.47625 0.47625 0 0 0-0.02646 0.4154 0.2831 0.2831 0 0 0 0.26458 0.18785 0.24342 0.24342 0 0 0 0.23019-0.20637 0.80962 0.80962 0 0 0 0-0.30163 0.34131 0.34131 0 0 0-0.2884-0.25135z"/>
  <path id="path30" d="m-24.664 154.72a1.741 1.741 0 0 1 0.0635-0.29105 0.26458 0.26458 0 0 1 0.13758-0.14816 0.26458 0.26458 0 0 1 0.15875 0.0873 0.13494 0.13494 0 0 1 0.02381 0.10319c-0.04233 0.32543-0.08202 0.65352-0.13758 0.97631a0.15081 0.15081 0 0 1-0.26458 0.10848 0.60854 0.60854 0 0 1-0.18521-0.23283c-0.06615-0.13494-0.10848-0.28046-0.1614-0.42069h-0.02117c-0.01587 0.045-0.0344 0.09-0.04763 0.13758-0.01323 0.0476-0.02381 0.12965-0.04498 0.19315a0.13494 0.13494 0 0 1-0.14287 0.12435 0.15875 0.15875 0 0 1-0.17198-0.14816 3.1089 3.1089 0 0 1 0.03175-0.39159c0.02381-0.19314 0.05556-0.38364 0.08731-0.57414a0.17727 0.17727 0 0 1 0.14023-0.1905 0.24342 0.24342 0 0 1 0.26458 0.13758c0.05027 0.0979 0.07937 0.20637 0.12171 0.30956 0.04233 0.10319 0.06615 0.15346 0.10054 0.23019h0.05556z"/>
  <path id="path32" d="m-24.08 155.68c0.05292-0.3519 0.0979-0.66146 0.15081-0.96838a0.15875 0.15875 0 0 1 0.22754-0.13758c0.18256 0.0503 0.36248 0.10583 0.52917 0.16669a0.24606 0.24606 0 0 1 0.12965 0.10318 0.20373 0.20373 0 0 1 0 0.15875 0.14817 0.14817 0 0 1-0.12435 0.0529c-0.08996 0-0.17462-0.0423-0.26458-0.0556a0.38365 0.38365 0 0 0-0.12965 0.0291 0.41804 0.41804 0 0 0 0.0926 0.0979c0.06879 0.037 0.14552 0.0556 0.21696 0.0873a0.17462 0.17462 0 0 1 0.11906 0.22755c-0.03704 0.10847-0.13229 0.09-0.2196 0.0661a0.88635 0.88635 0 0 0-0.1905-0.045 0.14288 0.14288 0 0 0-0.11642 0.0529 0.13494 0.13494 0 0 0 0.04233 0.12435 1.7224 1.7224 0 0 0 0.23548 0.10054 0.79375 0.79375 0 0 1 0.20638 0.10054 0.17992 0.17992 0 0 1 0.05027 0.15611 0.16933 0.16933 0 0 1-0.13758 0.0873 7.0459 7.0459 0 0 1-0.73554-0.23813 0.34131 0.34131 0 0 1-0.08202-0.16669z"/>
  <path id="path34" d="m-22.529 156.15c0.02646-0.17462 0.05292-0.37041 0.08996-0.56356a0.26458 0.26458 0 0 0-0.12965-0.34396 0.15875 0.15875 0 0 1-0.07937-0.2196 0.15081 0.15081 0 0 1 0.21431-0.0556c0.18256 0.0529 0.36248 0.10848 0.52917 0.16669a0.26458 0.26458 0 0 1 0.13494 0.0794 0.26458 0.26458 0 0 1 0.0344 0.17992 0.16404 0.16404 0 0 1-0.13229 0.0794 0.16404 0.16404 0 0 0-0.20108 0.17198c-0.02117 0.1905-0.06085 0.381-0.08996 0.5715-0.0291 0.1905-0.07937 0.21696-0.19315 0.20373a0.2249 0.2249 0 0 1-0.17727-0.26987z"/>
 </g>
</svg>
