<?xml version="1.0" encoding="UTF-8"?>
<svg id="svg80" width="448.33pt" height="538.64pt" version="1.1" viewBox="0 0 448.33 538.64" xmlns="http://www.w3.org/2000/svg" xmlns:cc="http://creativecommons.org/ns#" xmlns:dc="http://purl.org/dc/elements/1.1/" xmlns:rdf="http://www.w3.org/1999/02/22-rdf-syntax-ns#">
 <metadata id="metadata86">
  <rdf:RDF>
   <cc:Work rdf:about="">
    <dc:format>image/svg+xml</dc:format>
    <dc:type rdf:resource="http://purl.org/dc/dcmitype/StillImage"/>
    <dc:title/>
   </cc:Work>
  </rdf:RDF>
 </metadata>
 <g id="#00a3b5ff" transform="translate(-244.21 -144.82)">
  <path id="path33" transform="scale(.75)" d="m635.6 193.09c-26.813 21.56-46.507 51.706-56.254 84.652-5.8695 19.799-7.6956 41.323-2.6887 61.481 2.6347 9.7826 5.7025 19.593 9.759 28.309 10.203 21.91 23.982 41.89 37.33 61.97 13.56 20.88 28.375 41.921 34.055 66.561 3.6933 14.32 0.94586 30.146-7.4941 42.293-10.053 14.933-25.706 24.533-41.053 33.227 31.04-1.84 63.252-8.2926 88.879-26.893 14.36-10.52 24.76-27.014 26.094-44.961-0.42666-14.507-6.7192-28.173-14.893-39.92-14.107-20.587-32.867-37.24-49.641-55.533-14.08-14.533-27.986-29.585-38.199-47.172-6.7964-11.206-11.027-22.607-14.019-34.931-3.1299-12.922-4.8328-26.201-4.3286-39.511-0.25333-32.6 13.133-63.826 32.453-89.572z" fill="#00a3b5" stroke-width="1.3333"/>
 </g>
 <g id="#ed7320ff" transform="translate(-244.21 -144.82)" fill="#ed7320">
  <path id="path38" d="m488.07 233.66c2.6541-0.60781 6.6776-1.4656 12.23-2.08-7.3938 4.0322-13.96 6.27-20.56 10.18-5.312 3.1374-10.856 6.0109-15.831 9.6692-10.424 8.2334-19.825 16.935-28.558 25.388-6.0723 5.8976-10.683 13.223-15.521 20.143-10.95 17.25-19.46 37.27-18.34 58.09 0.69 14.3 8 28.25 19.84 36.44 12.24 8.46 27.23 11.7 41.85 12.85 5.35 0.3 11.368 0.54219 16.577 0.46-9.1104 10.855-20.48 18.175-31.528 22.787-5.823-0.26635-12.333-0.75799-17.755-1.3488-16.483-1.8118-33.074-6.9393-45.554-18.158-9.0646-7.9733-14.698-19.238-16.86-31.034-1.9631-9.0488-2.1946-15.661 0.57587-26.4 3.9281-20.064 13.852-38.692 26.254-54.836 9.6332-12.301 20.931-23.264 33.356-32.731 10.861-7.5677 21.643-14.454 32.666-19.508 8.772-4.0167 17.869-7.3331 27.158-9.911z"/>
  <path id="path40" d="m317.92 435.95c2.94 0.87 5.8 2.16 8.85 2.6 1.26-0.54 2.44-1.24 3.67-1.85 1.63 2.69 3.29 5.42 3.57 8.65 0.7-2.21 3.42-3.29 3.83-5.49 1.54-0.3 3.12-0.43 4.69-0.21 2.19 1.96 4.86 3.28 7.6 4.31 0.41 2.95 1.01 5.92 2.39 8.59 1.75 2.92 1.13 6.6-0.39 9.48-1.54 1.39-3.51 2.17-5.33 3.14-0.23 2.02-0.39 4.05-0.46 6.09-3.19 0.59-6.35 1.37-9.61 1.35-0.12 0.94-0.25 1.87-0.39 2.82-1.19-0.62-2.34-1.26-3.49-1.91 0.49 1.96 0.71 3.96 0.94 5.98-1.74-0.06-3.47-0.12-5.2-0.19 0.32 1.81 0.63 3.62 0.88 5.46-2.4-1.87-4-4.44-4.39-7.46-0.62 0.46-1.23 0.92-1.84 1.39 0.41 1.5 0.36 3.32 1.64 4.43 3.01 2.14 6.68 3.21 9.63 5.45 2.48 2.41 4.24 5.45 6.19 8.29 2.07-0.05 4.47-1.14 6.33 0.19 2.95 2.43 6.38 4.49 10.27 4.81 0.56 1.88 1.18 3.76 1.49 5.72 1.63-0.1 3.27-0.19 4.91-0.27-2.04 4.57-3 9.59-5.33 14.02-2.2 0.86-4.19-0.61-5.97-1.71-3.36-2.26-6.49-4.84-9.61-7.41-3.14-2.86-8.03-2.07-11.19-4.91-2.54-2.19-5.02-4.53-8.19-5.8-4.32-1.7-6.85-5.82-9.68-9.25-2.4-2.84-2.73-6.7-3.1-10.25 5.33-8.84 16.92-8.96 24.42-15.01 4.94-3.11 8.16-8.51 13.83-10.51-0.84 0.14-1.3-0.17-1.38-0.95-3.27-2.78-7.79-2.87-11.68-4.26-2.71 0.19-5.47 0.47-8.11-0.32-6.14-1.72-12.22 1-18.18 2.21-1.21 4.15-3.75 8.06-3.25 12.56 0.56 3.29-0.89 6.31-2.16 9.25 0.78 1.42 1.59 2.84 2.34 4.3-1.5 8.53-1.2 17.28 0.08 25.82 1 3.53-2.19 5.84-4.52 7.87-0.83 0.82-2.1 0.45-3.12 0.38-1.61-5.64-2.74-11.47-2.49-17.36 0.32-6.6-1.56-13-2.07-19.54-1.33-7.42-0.01-14.99-1.23-22.41 0.17-4.11 3.43-7.11 6.22-9.76 3.1-3.48 7.94-4.63 12.43-4.82 0.51-0.65 1.03-1.29 1.56-1.91 0.98 0.81 1.88 1.7 2.83 2.57 0.6-1.39 1.19-2.78 1.77-4.17z"/>
  <path id="path42" d="m588.71 443.78c4.57-2.88 8.97-6.17 14.18-7.83 2.94 3.98 8.22 2.25 12.42 2.28 0.33 1.58 0.67 3.15 1.04 4.73 1.8 0.19 3.62 0.33 5.44 0.49 0.87 2.36 1.6 4.8 2.92 6.97 2.66 3.54 7.06 6.12 7.87 10.81 0.8 4.09 1.67 8.18 3.15 12.1-1.61 0.53-3.21 1.05-4.8 1.59 1.19 0.49 2.38 0.94 3.58 1.45-0.13 0.98-0.25 1.97-0.37 2.96 0.61 0.05 1.85 0.13 2.46 0.18l0.2 2.32c-1.53-0.81-3.06-1.62-4.58-2.39 0.03 3.32 0.35 6.66 1.53 9.79-0.37 3.49-1 7.31-3.74 9.79-3.85 3.82-7.32 8-11.13 11.85-3.38 3.36-8.5 2.87-12.81 3.86 0.11-1.35 0.22-2.68 0.34-4.01-2.78 1.37-5.61 2.72-8.68 3.3 0.61 0.72 1.24 1.43 1.89 2.15-2.08 0.12-4.16 0.37-6.22 0.62-1.57-3.65-3.51-7.31-3.17-11.41-0.97 0.03-1.94 0.07-2.91 0.12 0.59 1.12 1.2 2.25 1.8 3.39-2.15 0.83-4.48 0.79-6.74 0.79-3.19-2.24-1.45-6.83-1.82-10.14-1.96-0.42-3.92-0.88-5.87-1.3-0.85-6.98-2.81-14.59 0.37-21.26-1.29-4.34 0.73-8.58 0.68-12.93 0.81 0.14 1.63 0.3 2.46 0.46 0.3-4.8 2.7-9.09 4.81-13.31 1.53-2.71 2.85-5.82 5.7-7.42m10.88 5.83c-4.32 8.96-9.59 18.06-9.28 28.36-0.23 3.84 2.97 8.1-0.65 11.2 4.15 6.15 9.07 12.79 16.57 14.87 1.96 0.46 4.52 0.91 5.95-0.9 2.6-3.74 3.67-8.28 5.7-12.32 1.37-1.16 3.06-1.84 4.63-2.68-0.08-1.52-0.16-3.03-0.24-4.54-1.4 1.45-2.72 2.96-4.1 4.42 0.78-3.36 1.27-6.77 2.01-10.13-0.67-0.51-1.34-1.01-2-1.51 0.44-2.06 0.93-4.11 1.43-6.16-1.54-2.52-3.14-5.07-3.94-7.93-0.68-3.13-0.25-6.34-0.04-9.49-1.46-0.21-2.94-0.35-4.37-0.68-4.19-0.95-6.65-5.18-7.37-9.14-1.38 2.25-3.06 4.3-4.3 6.63m23.93 14.34c0.05 1.61 0.09 3.23 0.13 4.84 1.78-0.46 3.56-0.91 5.36-1.3-1.96-0.97-3.85-2.09-5.49-3.54z"/>
  <path id="path44" d="m400.39 438.4c4.77 0.34 9.03 2.87 13.11 5.16-0.8 1.43-1.58 2.88-2.15 4.43 1.33 3.3 3.69 6.13 4.62 9.61 2.37 8.27 4.27 17.2 10.11 23.84-0.35 0.86-0.69 1.72-1.03 2.6 0.53 0.12 1.59 0.36 2.12 0.49 0.34 6.82 3.7 12.88 6.73 18.81 0.5 2.95 2.31 7.65-1.1 9.44-1.26 0.77-2.81 0.84-4.2 1.24-2.04-4.18-4.3-8.28-5.82-12.69-1.5-4.21-2.48-8.63-4.52-12.62-4.02-1.04-8.22-0.17-12.31-0.32-7.51-0.18-14.9 1.16-22.28 2.3-0.48 1.1-0.95 2.21-1.4 3.33-1.4-0.24-2.79-0.45-4.17-0.72 0.6 3.6 0.57 7.26 0.53 10.91-1.53 0.51-3.05 1.05-4.58 1.57l2.24 2.24c-1.14 1.08-2.26 2.18-3.46 3.18-1.64 0.17-3.26-0.2-4.87-0.37-0.23-1.7-0.48-3.4-0.58-5.11-0.39-3.47 2.75-6.04 2.91-9.44 0.47-2.31-0.26-5.38 2.13-6.78 3.11-2.4 3.45-6.42 4.14-9.98 0.86 0.06 1.73 0.12 2.6 0.19 0.86-3.07 1.73-6.28 3.73-8.83 1.67-1.51 3.66-2.59 5.47-3.91-0.63-1.71-1.39-3.37-2.17-5 4.03-4.37 6.93-9.61 9.6-14.88 1.48-2.92 0.79-7.52 4.6-8.69m3.15 18.72c0.12 2.2 0.1 4.42 0.2 6.63-1.19 1.63-3.14 1.77-4.98 1.67 1.49 1.74 1.86 3.9 1.37 6.13-1.58 0.67-3.15 1.34-4.68 2.11 0.61 1.9 1.32 3.78 2.31 5.53 5.76 1.15 11.65 1.53 17.51 1.06-3.63-7.39-8.67-14.22-10.28-22.48-0.36-0.16-1.09-0.49-1.45-0.65m-14.5 21.73c1.07-0.2 2.13-0.43 3.2-0.69 0.25-1.5 0.28-3.02 0.37-4.51-1.66 1.37-3.23 2.96-3.57 5.2z"/>
  <path id="path46" d="m441.48 440.48c2.62-0.36 5.21-0.88 7.81-1.34 1.26 2.25 2.52 4.5 3.7 6.81 1.18-2.14 2.28-4.35 3.76-6.31 4.78-1.25 9.48 1.26 14.2 1.75-0.53 1.65-1.07 3.3-1.61 4.96 1.53-1.29 3.03-2.61 4.56-3.89 4.16 1.61 8.54 2.6 12.55 4.61 0.52 3.12 1.28 6.21 2.36 9.2 0.7-1.68 1.4-3.35 2.14-5 5.52 4.88 6.27 12.42 8.96 18.87 1.27 0.14 2.54 0.26 3.81 0.53-0.36 5.62-0.79 11.5-3.66 16.49-2.08 4.18-5.83 7.14-8.26 11.07-1.62 2.2-3.03 4.59-4.92 6.57-3.93 3.66-9.54 4.09-14.46 5.6-2.08 0.81-4.24 0.36-6.32-0.14-2.09 1.74-4.65 3.27-7.44 2.15-4.76-4.12-0.86-10.48-1.08-15.64-1.34-10.91-1.84-22.07-0.22-32.97 0.25-3.08 0.04-6.16 0.24-9.23-5.06-0.36-10.81 0.48-14.84-3.38-3.86-2.2-1.44-7.24-1.28-10.71m41.75 7.91c-1.11 2.38-0.73 5.07-0.71 7.61 1.06-0.82 2.14-1.64 3.22-2.46-0.75-1.69 0.1-5.42-2.51-5.15m-17.69 9.31c1.09 1.85 2.21 3.72 2.86 5.79 0.81 4.75-1.84 9.42-0.54 14.17 1.63 7.57-0.07 15.54 1.49 23.03 3.68 0.21 6.96-1.76 10.32-2.97 7.29-2.69 13.93-8.73 14.98-16.76-0.36-2.43-1.9-4.47-2.99-6.61-2-3.27-3.44-7.09-6.68-9.38-4.42-3.41-8.86-7.24-14.24-8.94 0.3-1.5 0.6-3.01 0.87-4.5-1.98 2.09-3.93 4.23-6.07 6.17z"/>
  <path id="path48" d="m526.93 440.56c5.47-0.3 10.97-0.13 16.4-0.97 3.27-0.53 6.54-0.18 9.67 0.86-0.48 1.26-0.97 2.52-1.46 3.79 0.34-0.25 1.01-0.73 1.35-0.97 0.62-2.37 3.11-5.77 5.57-3.2 0.6 3.69-1.85 7.03-2.3 10.66-4.74-0.61-9.45 0.25-14.08 1.14 1.3 2.64 2.19 5.46 3.22 8.22 0.88 3.97 0.16 8.07-0.64 12-0.95 6.02 1.12 11.91 1.13 17.9-0.82 2.01-1.99 4.27-0.01 6.05 6.17 2.26 13 0.97 19.1 3.61-1.3 2.29-2.57 4.6-3.73 6.98-0.83-0.74-1.65-1.48-2.46-2.21-2.08 0.85-4.23 1.49-6.37 2.16 1.11 0.82 2.2 1.67 3.29 2.54-5.66 2.6-11.76 0.77-17.62 0.31-7.77 1-15.63 2.78-23.5 2-3.03-1.43-2.16-5.3-2.03-7.98 1.62-1.98 3.53-3.7 5.5-5.34 6.18 0.91 12.4 0.04 18.51-0.98-0.6-2.37-1.07-4.77-1.13-7.22-0.21-7.48-2.35-14.82-1.94-22.32 0.15-2.85 0.23-5.69 0.31-8.52 1.61-1.68 2.97-3.56 4.49-5.31-4.68-0.69-9.82 0.76-14.02-1.94-2.43-1.45-5.82-2.33-6.81-5.29 2.63-2.69 5.57-5.72 9.56-5.97z"/>
  <path id="path50" d="m297.29 596.23c2.65-0.39 5.47-0.81 7.86 0.74 1.75 1.74 1.75 4.46 2.5 6.7 0.49 0.05 1.47 0.14 1.96 0.18 0.04-2.85-1.49-7.28 2.45-8.15 4.65 0.76 9.38 1.29 14.11 0.81 0.04 1.35 0.11 2.71 0.28 4.06 2.04 2.86 4.27 5.61 5.88 8.76-3.08 0.57-6.16 1.16-9.29 1.21-6.94 0.26-13.55 2.77-20.47 3.15-0.02 2.77 0.2 5.55-0.11 8.32-0.38 2.74-2.11 5.18-2.08 7.99 0.62 2.65 1.9 5.14 2.32 7.86-0.73 1.18-1.55 2.31-2.46 3.39 1.16 0.97 2.32 1.94 3.51 2.9-1.81 2.59-3.18 5.44-4.2 8.44 0.87 1 1.73 2.02 2.59 3.06-1.2 1.45-2.48 2.84-3.49 4.43-0.49 2.83 0.1 5.68 0.6 8.47 0.91 3-1.84 5.3-2.92 7.87-2.56-0.9-5.21-1.52-7.72-2.54-0.2-9.62-0.38-19.29 0.33-28.89-0.19-1.97-0.86-3.92-0.53-5.9 0.16-2.55 2.01-4.69 2.08-7.24-0.52-2.71-2.23-5.07-2.69-7.8-0.25-2.28-0.19-4.58-0.24-6.86-4.85 0.22-9.71 0.36-14.56 0.58-4.45 0.43-9.42 2.2-13.14-1.14 0.84-1.35 2.24-2.41 2.7-3.95-0.72-3.25-2.24-6.33-2.11-9.72 4.12-2.65 9.23-1.48 13.75-0.8 2.66 0.35 4.87 1.87 7.23 3.01 1.07-0.72 2.02-1.6 3.12-2.26 4.99 1.35 10.31-1.92 15.02 1.19 0.27-2.89-0.13-5.76-2.28-7.87z"/>
  <path id="path52" d="m353.61 606.71c5.15-2.77 9.56-7.12 15.31-8.6 1.04 0.71 2.03 1.51 3 2.34 3.33 0.03 6.69-0.04 9.82-1.31 0.33 1.83 0.63 3.69 0.89 5.55 1.92 0.27 3.84 0.54 5.77 0.79 1.18 3.02 1.74 6.52 4.25 8.8 2.79 2.85 6.35 5.65 6.87 9.88 0.53 3.8 1.54 7.51 2.44 11.24-1.13 0.34-2.26 0.69-3.39 1.04 2.41 3.16-0.68 6.51-1.87 9.52 1.33 1.58 2.61 3.2 3.94 4.78-1.16 3.33-1.69 7-3.95 9.83-2.82 3.53-6.08 6.68-9.22 9.92-1.7 1.73-3.38 3.62-5.64 4.61-3.62 0.89-7.36 1.18-10.93 2.29 0.6-1.68 1.21-3.36 1.77-5.04-1.35 1.23-2.88 2.23-4.41 3.21-1.2-0.01-2.4-0.04-3.59-0.07-1.39 1.31-2.51 3.19-4.52 3.57-2.34-3.92-4.32-8.18-3.91-12.87-0.66 0.48-1.3 1-1.91 1.55-0.27 3.15-4.21 5.45-6.77 3.24-0.46-3.04-0.31-6.11-0.31-9.16-2.01-0.62-4.08-1.11-5.92-2.14-1.29-4.77-2.1-9.77-1.53-14.71 0.36-2.82 1.8-5.45 1.58-8.34-0.18-2.43 0.45-4.77 0.85-7.13 0.24-1.36 0.76-2.74 0.07-4.07 1.19 0.42 2.37 0.86 3.55 1.33-0.58-0.86-1.16-1.71-1.73-2.56 3.27-5.74 4.73-12.72 9.49-17.49m6.35 17.02c-1.98 3.54-1.94 7.74-2.98 11.59-1.03 3.53-0.2 7.16 0.86 10.57 0.93 2.41-0.95 5.03-0.26 7.37 3.63 5.34 8.26 10.65 14.67 12.56 1.96 0.59 4.37 1.02 6.12-0.35 2.97-4.11 3.99-9.23 6.42-13.62 2.64-1.67 5.82-1.88 8.67-0.59-1.52-1.08-2.91-2.35-4.14-3.74-0.01-0.84-0.02-1.68-0.04-2.51-1.16 0.75-2.33 1.48-3.51 2.2 0.01-4.07-1.28-8.1-0.45-12.14 0.94-3.44-1.66-6.25-2.75-9.29-1.77-3.48-1.07-7.47-0.85-11.19-5.91 1.88-9.75-4.48-11.87-8.99-3.99 5.65-6.53 12.12-9.89 18.13m29.46 6.81c2.11-0.32 4.22-0.68 6.35-0.92-1.83-1.07-3.61-2.22-5.34-3.42-0.33 1.44-0.68 2.88-1.01 4.34m-46.45 16.6c0.47 3.35 2.09 6.43 4.96 8.33-1.01-3.13-2.9-5.82-4.96-8.33z"/>
  <path id="path54" d="m436.1 598.03c3.03 0.61 5.9 1.76 8.85 2.65 1.3-0.72 2.46-1.66 3.7-2.47 1.46 2.85 3.19 5.56 4.31 8.58 1.21-1.72 2.3-3.55 3.72-5.11 4.31-0.87 7.92 2.36 11.42 4.34 1.37 3.45 1.66 7.37 4.25 10.27-0.55 2.84-0.94 5.71-1.19 8.6-1.81 0.69-3.64 1.31-5.46 1.92-0.38 1.85-0.61 3.77-1.33 5.55-1.03 0.79-2.22 1.34-3.33 2.01-0.65 1.19-1.31 2.39-1.95 3.59-0.63-1.42-1.27-2.83-1.94-4.21-2.01 2.46-4.03 4.93-5.74 7.62-1.35-0.01-2.69-0.02-4.03-0.03 0.37 2.47-0.67 5.91 2.27 7.08 4.22 2.31 6.71 6.52 9.27 10.41 1.87-0.19 3.76-0.6 5.66-0.39 3.8 3.33 8.5 5.21 13.45 6.02-0.86 0.91-1.71 1.84-2.55 2.78 1.86 1.44 4.05 2.28 6.41 2.46-1.87 4.36-3.69 8.84-3.73 13.67-3.35 0.47-6.32-0.89-9.14-2.51 0.21-1.11 0.43-2.2 0.66-3.29-0.86 0.49-1.72 0.98-2.58 1.48-2.65-2-5.05-4.31-7.82-6.13-2.87-1.17-6.16-1.39-8.71-3.28-2.56-1.91-4.81-4.28-7.74-5.64-5.66-2.28-9.17-7.63-12.4-12.51-1.14-3.44-2.33-8.38 1.12-10.92 4.04-3.33 8.94-5.53 13.9-7.1 4.61-2.1 8.94-4.87 12.59-8.4 2.77-2.4 5.11-5.82 9.05-6.25-3.53-3.66-8.69-3.97-13.14-5.85-2.4 0.5-4.9 0.88-7.29 0.11-6.32-2-12.65 0.91-18.81 2.11-1.24 2.9-2.52 5.78-3.69 8.71-1.12 2.26 0.48 4.64 0.43 6.98-0.4 2.08-1.64 3.9-1.99 5.99 0.55 1.72 1.41 3.34 1.91 5.1-0.28 3.59-1.25 7.15-0.8 10.78 1.03 5.35 0.53 10.84 1.52 16.22-0.85 3.65-4.52 6.58-8.33 6.73-0.45-3.44-1.14-6.83-1.78-10.22-1.3-6.22 0.18-12.66-1.33-18.85-1.54-7.13-1.45-14.43-1.4-21.68 0.1-3.25-1.06-6.41-0.83-9.66 0.76-5.17 5.4-8.3 8.97-11.59 3.08-1.29 6.34-2.54 9.76-2.1 0.54-0.86 1.08-1.72 1.63-2.56 0.67 1.13 1.36 2.28 2.07 3.42 0.73-1.47 1.44-2.94 2.11-4.43z"/>
  <path id="path56" d="m635.06 606.09c5.03-3.01 9.54-7.3 15.54-8.23 0.28 0.68 0.84 2.06 1.12 2.74 3.43-0.3 6.89-0.28 10.33-0.18 0.36 1.36 0.58 2.75 0.82 4.15 1.92 0.29 3.84 0.58 5.77 0.88 1.19 2.96 1.93 6.32 4.33 8.6 2.78 2.92 6.12 5.87 6.79 10.07 0.68 3.83 1.55 7.63 2.31 11.45-1.41 0.4-2.81 0.81-4.2 1.23 0.99 0.43 2 0.86 3.02 1.29-1.15 2.19-2.74 4.3-3.1 6.8 1.77 4 2.71 8.57 1.15 12.8-2.07 3.83-5.52 6.61-8.31 9.88-2.74 2.67-5.09 6.01-8.68 7.58-3.82 0.77-7.73 1.2-11.38 2.66 0.79-1.7 1.58-3.41 2.36-5.11-2.46 1.53-5.02 2.96-7.96 3.23 0.24 0.76 0.49 1.52 0.74 2.29-1.91 0.13-3.81 0.34-5.7 0.55-1.41-3.74-3.54-7.29-3.76-11.37-0.49-0.04-1.46-0.12-1.94-0.16 0.56 1.62 1.11 3.24 1.58 4.9-1.09-0.54-2.16-1.1-3.21-1.67-1.02 0.83-2.06 1.64-3.07 2.49-2.76-3.14-2.36-7.3-2.21-11.23-1.89-0.55-3.77-1.1-5.61-1.76-2.2-6.73-1.94-14.15-0.36-20.98 0.03-4.8-0.02-9.93 2.47-14.21 3.74-6.2 4.75-14.36 11.16-18.69m14.95-0.45c-3.81 5.67-6.43 12.01-9.47 18.1-2.09 4.21-2.71 8.93-3.61 13.5-0.82 3.43 0.93 6.69 1.39 10.03-0.19 1.83-0.69 3.61-0.83 5.45 3.16 4.63 7.05 9.03 11.93 11.89 2.88 1.24 6.99 3.12 9.59 0.43 2.52-3.82 3.74-8.3 5.63-12.42 1.68-1.2 3.51-2.17 5.29-3.21 1.08 0.81 2.17 1.63 3.27 2.44-1.43-2.06-2.9-4.1-4.15-6.28-0.81 0.09-1.6 0.18-2.39 0.29-0.73-3.59-1.41-7.22-1.1-10.89 0.57-4-2.11-7.27-3.3-10.86-1.25-3.03-0.54-6.35-0.46-9.5-1.69-0.19-3.59 0.67-5.05-0.48-3.19-1.94-5.01-5.33-6.74-8.49m20.31 20.48c0.03 1.53 0.06 3.07 0.1 4.61 1.82-0.42 3.64-0.85 5.48-1.21-1.93-1.02-3.79-2.16-5.58-3.4m-47.35 21.07c0.6 3.27 2.22 6.14 4.76 8.3 0.03-3.52-2.46-6.01-4.76-8.3z"/>
  <path id="path58" d="m527.02 606.25c1.4-2.41 3.12-4.6 5.09-6.57 0.77 1.45 1.5 2.93 2.21 4.43-1.24 3.07-3.09 5.97-2.92 9.43-4.38-1.89-9.07-0.56-13.53 0.18 0.7 2.59 1.5 5.15 2.33 7.71 1.89 6.58-1.66 13.19-0.36 19.81 0.83 3.99 1.42 8.02 1.83 12.08-0.69 0.27-2.07 0.81-2.76 1.08 0.8 1.35 1.71 2.63 2.65 3.91 6.05 1.88 12.65 0.54 18.5 3.36-1.23 2.05-2.49 4.09-3.53 6.26-3.05-1.35-6.19-0.52-9.3 0.05 1.1 1.04 2.18 2.08 3.28 3.13-5.73 2.14-12.41 2.01-17.71-1.23-1.77 1.16-3.41 3.06-5.74 2.62-5.72-0.46-11.29 1.76-17.01 1.06-3.63-0.91-2.73-5.28-2.55-8.08 1.38-1.86 3.04-3.55 4.99-4.82 5.91-0.89 12.5 0.55 17.69-1.78 2.13 1.24 0.6-2.59 0.55-3.62-0.82-11.38-3.37-22.71-1.94-34.18 1.07-1.38 2.35-2.56 3.62-3.75 0.02-0.42 0.06-1.27 0.08-1.7-4.19-0.45-8.81 0.79-12.56-1.57-2.31-1.25-4.63-2.48-6.88-3.83 1.87-2.87 3.13-6.95 7.07-7.42 5.38-0.83 10.87-0.42 16.3-0.49 3.28-0.21 6.67-1.84 9.9-0.57 0.33 1.48 0.54 2.98 0.7 4.5z"/>
  <path id="path60" d="m600.78 600.22c1.43-0.07 2.85 0.17 4.29 0.22 0.5 2.9 1.02 5.81 1.73 8.69 1.19-1.34 2.34-2.72 3.47-4.11 0.99 3.23 2.21 6.65 0.15 9.75 0.94 1.06 1.86 2.12 2.79 3.22-1.1 0.67-2.17 1.37-3.25 2.05 2.23 3.29 1.79 7.3 1.04 10.99-1.21 5.64 0.17 11.54-1.5 17.1-0.54 2.09-1.45 4.22-0.88 6.41 1.01 5.03 1.64 10.29 0.52 15.35-2.8 4.7-8.55 0.48-12.65 2.39-0.33-0.96-0.65-1.9-0.96-2.83-1.28-0.33-2.55-0.63-3.83-0.92-0.39-1.38 0.63-3.59-1.01-4.28-1.47-1.61-3.45-0.33-5.11 0.12 0.18-2.07-0.37-4.12-0.17-6.17-1.6 0.01-3.16 0.33-4.75 0.34-1.07-3.96-2.36-7.85-3.33-11.83-1.3 1.05-2.59 2.12-3.88 3.19 0.11-2.03 0.23-4.06 0.34-6.08-2.68-0.41-5.23-1.32-7.82-2.03-2.7 3.25-2.57 7.74-3.25 11.7-1.07 5.79 1.39 11.53 0.5 17.31-0.23 1.66-1.96 1.8-3.21 2.38-1.44 1.4-2.76 2.91-3.73 4.69-1.68-3.02-4.4-6.06-3.62-9.77 0.8-4.38-0.61-8.71-0.42-13.09 0.09-3.89 0.39-7.82-0.34-11.67-0.8-4.47-0.41-9.02-0.61-13.53-0.16-4.08-2.86-7.62-2.81-11.72 0.36-2.91 1.45-5.67 2.57-8.36 2.5-0.18 5.02-0.53 7.53-0.28 4.35 5.61 7.87 11.95 13.18 16.79 3.44 2.99 5.31 7.32 8.69 10.39 4.5 5.33 7.1 12.3 13.1 16.32 0.02-1.21 0.06-2.41 0.1-3.61 0.84-1.28 1.63-2.59 2.38-3.93 0.92-6.56-0.82-13.4 1.27-19.82 0.95-2.54-0.13-5.1-0.9-7.51 1.28-1.84 3.26-3.6 2.96-6.06-0.13-4 0.56-7.92 1.42-11.8z"/>
 </g>
 <g id="#31a7e9ff" transform="translate(-244.21 -144.82)" fill="#31a7e9">
  <path id="path63" d="m339.67 525.94c-0.06-2.94 2.13-5.1 4.28-6.77 2.55 1.12 5.07 2.37 7.43 3.88 0.1 1.72-0.06 3.44-0.2 5.17-1.14-0.62-2.27-1.25-3.39-1.89 0.93 3.58 0.7 7.3-0.01 10.9-0.45 7.87-4.4 14.85-6.85 22.19-1.4 3.38-2.15 7.08-4.19 10.16-1.91 1.02-3.97 1.72-5.97 2.56 2 1.51 4.25 1.27 6.5 0.43-1.35 2.56-2.97 4.97-4.85 7.17-1.55 6.49-7.5 10.71-13.68 12.36-0.52-3.85-0.52-7.93-2.42-11.42-4.39-8.63-8.49-17.42-11.76-26.53-1.54-4.28-4.25-7.98-6.49-11.89 4.84 0.4 9.62 1.71 14.51 1.18-0.46 7.02 3.14 13.21 5.53 19.55 1.56 3.76 3.92 7.09 5.79 10.69 0.91-3.94 2.65-7.59 4.06-11.35 1.32-0.1 2.64-0.21 3.97-0.29-1.41-1.54-2.72-3.18-3.94-4.86 2.21-0.76 3.52-2.77 5.13-4.33 0.6-1.65 0.63-3.43 1.14-5.09 0.45-2.83 4.21-3.69 4.58-6.52-0.9-1.3-2.14-2.28-3.22-3.39 2.47-3.51 3.84-7.63 4.05-11.91z"/>
  <path id="path65" d="m496.4 530.45c5.17 0.89 10.38-0.41 15.16-2.36 1.97 4.5 4.33 9.82 2.17 14.66-5.64 0.23-11.13-2.31-16.78-1.16-6.91 0.69-12.28 5.98-19.25 6.42-0.01 1.43-0.08 2.86-0.32 4.28-1.5 1.08-3.11 1.98-4.7 2.91-0.06 3.83-0.35 7.65-0.41 11.49 4.41 2.84 8.57 6.04 12.61 9.39 4.71-1.35 9.39 0.99 14.12 1.14 5.58 0.91 11.03-1.2 16.62-0.71 0.59-0.84 1.19-1.67 1.8-2.49-1.04-1.49-2.06-2.98-3.05-4.49-6.63 0.21-12.93-1.69-18.9-4.41-0.69-2.04-1.39-4.08-2.17-6.08 1.66-1.27 3.18-2.78 5.06-3.72 4.89 0.21 10.1 1.14 14.65-1.18 2.83 0.71 5.69 1.6 8.64 1.38 1.62-0.46 2.85-1.76 4.29-2.61 3.35 1.75 6.92 3.13 10.61 3.96 0.31 2.03-0.14 4.07-0.2 6.12-4.12 0.23-8.04 1.76-11.64 3.69-3.41 2.79-2.75 7.37-2.38 11.24 0.24 4.73-4.22 6.95-7.28 9.63-1.37-1.04-2.68-2.16-4.09-3.12-3.21 0.43-6.17 1.95-9.39 2.36-2.79 0.74-5.56-0.32-8.28-0.84-3.26-0.79-6.69-0.1-9.93-0.96-4.49-2.5-8.69-5.5-12.7-8.71-2.04-1.82-5.08-1.96-7-3.94-2.78-4.34-6.07-8.81-5.58-14.26 1.18 0.59 2.37 1.2 3.57 1.82-0.69-2.47-2-4.85-2.05-7.43 2.41-3.83 6.73-5.69 10.45-7.96 0.72-2.89 2.57-5.38 5.07-6.99 1.83 0.25 3.64 0.65 5.45 1.05-0.11-0.76-0.21-1.51-0.3-2.26 4.28-1.79 8.44-3.86 12.79-5.52 0.54 1.28 1.09 2.55 1.67 3.83 0.55-1.4 1.1-2.79 1.67-4.17z"/>
  <path id="path67" d="m666.33 529.33c2.78 2.45 6.41 2.54 9.93 2.14 0.18 1.23 0.36 2.48 0.55 3.73 1.34 0.15 2.68 0.29 4.03 0.45 1.47 3.75 3.95 6.92 6.62 9.9 4.57 5.41 2.7 13.07 5.08 19.31-1.1-0.53-2.21-1.04-3.31-1.51 0.16 3.81 0.91 7.74-0.11 11.49-1.43 2.57-3.56 4.65-5.46 6.87-2.7 2.95-5.51 6.31-9.69 7-2.86 1.01-5.84 0.79-8.78 0.44-1.97 0.08-3.9 0.75-5.29 2.18-0.82-1.94-1.65-3.86-2.51-5.76-2.26-0.06-4.5-0.12-6.74-0.34-0.58-2.73-0.16-6.32-2.95-7.91-2.81-1.72-3.03-5.37-3.13-8.33 1.02-6.64 0.57-13.7 3.57-19.89 2.12-4.58 3.48-10.03 7.9-13.02 3.42-2.26 6.83-4.54 10.29-6.75m-8.75 30.77c0.21 4.04 0.68 8.09 1.21 12.1 3.02 4.7 8 9.6 14.02 9.03 3.12-3.36 4.15-8.14 6.42-12.08-0.68-4.36-0.59-8.77-0.78-13.16-1.14-4.32-2.75-8.54-2.99-13.05-3.96-0.27-6.43-3.44-8.69-6.3-3.91 7.41-8.5 14.92-9.19 23.46z"/>
  <path id="path69" d="m599.82 530.82c3.46-3.69 8.53-1.93 12.26 0.33 1.57 2.35-0.31 4.82-1.62 6.77 1.33 4.27 1.05 8.77 0.21 13.11-0.36 3.81-2.42 7.57-1.37 11.43 1.06 4.45 1.6 8.98 2.2 13.51 5.13-0.29 10.28-0.01 15.41-0.49 3.7-0.39 7.56 0.04 10.98 1.56 3.26 3.2 2.6 7.77 2.61 11.9-2.32-1.89-5.06-3.09-7.9-3.96-3.95 5.7-10.66 0.58-15.87 0.3-5.42 0.3-11.14 2.65-16.26-0.3 0.08-6.34-0.17-12.69-0.06-19.03 0.08-4.02-1.17-7.93-1.01-11.95-0.06-3.7 1.67-7.23 1.11-10.94-0.52-4.02-2.11-8.25-0.69-12.24z"/>
  <path id="path71" d="m447.4 533.23c0.24-1.47 1.87-1.72 2.95-2.38 0.51 1.95 1.01 3.92 1.45 5.9 1.31-0.14 2.63-0.26 3.95-0.37-0.28 2.2-0.38 4.41-0.38 6.63 0.35 0.39 0.71 0.78 1.08 1.18-1.04 4.29-0.57 8.74-1.2 13.08-0.71 4.54-0.8 9.15-1.56 13.68 0.15 4.92 1.35 9.86-0.13 14.72-3.71-0.3-8.13 0.8-11.06-2.11-1.14-0.99-1.8-2.37-2.6-3.61-0.79-0.44-1.58-0.86-2.36-1.28-3.58-2.71-5.99-6.6-7.79-10.63-1.61-3.41-5.6-4-8.78-5.17-2.45 7.77-1.34 15.92-1.46 23.9-2.07 0.94-4.08 2.02-5.98 3.26-3.56-7.08-1.51-15.21-2.35-22.8-1.03-6.24-0.15-12.71-2.24-18.77-1.26-3.24 0.23-6.58 0.84-9.78 2.14-0.04 4.29-0.15 6.44-0.24 5.46 9.37 13.79 16.59 19.66 25.67 1.7 2.67 4.04 4.82 6.17 7.14 0.64-2.71 1.58-5.39 1.55-8.2-0.18-5.97 1.34-11.82 1.08-17.79 1.95-3.76 1.49-8.09 2.72-12.03z"/>
  <path id="path73" d="m580.06 533.27c2.16-0.23 4.2-1.12 6.37-1.31 2.84 0.18 5.67 0.64 8.5 0.98-1.34 2.3-2.33 5.17-5.05 6.21-6.39 3.12-13.81 1.69-20.58 3.34-6.66 1.62-13.53 1.01-20.3 1.69 1.49 1.9 3.3 3.69 3.97 6.09 0.99 2.76 0.03 5.67-0.39 8.45 6.78-0.73 13.61-0.06 20.41-0.24-1.33 1.83-2.4 3.93-4.14 5.41-3.94 1.54-8.2 2.14-12.1 3.83-2.45 0.7-2.74 3.68-3.9 5.59 2.83 1.29 5.7 2.54 8.56 3.8 2.25-1.05 4.29-0.8 6.42 0.35 1.88-0.95 3.64-2.51 5.83-2.9 2.93-0.93 5.73 0.94 8.66 0.89 4.31 0.15 8.34-1.66 12.51-2.47 0.18 4.79-5.42 5.76-7.09 9.61-0.92 1.6-1.72 3.28-2.52 4.95-4.2-0.21-8.57 0.17-12.47-1.71-8.64 2.12-17.45-1.46-26.05 0.73-2.2-5.64-0.86-11.68-0.97-17.53 0.29-2.44-1.93-3.94-3.12-5.75 0.6-3.41 2.53-6.6 2.1-10.16-0.62-4.54-0.74-9.13-0.16-13.68 0.75 0.65 1.5 1.3 2.28 1.96-0.01-1.05 0.02-2.08 0.04-3.11 1.24-1.59 2.57-3.1 3.96-4.56 5.97-0.28 12.1 0.7 17.94-0.94 3.73-1.06 7.54 0.27 11.29 0.48z"/>
  <path id="path75" d="m270.93 532.9c4.33-1.6 8.85 1.03 13.26 0.06 3.97-0.92 8.05-0.49 12.08-0.27-0.5 1.65-1.11 3.26-1.68 4.89-4.41 3.49-10.23 3.49-15.56 3.99-5.67 0.07-11.13 2.06-16.81 2.07-3.71-0.02-7.42 0.34-11.12 0.58 1.61 2.03 3.6 3.97 4.16 6.6 0.47 2.62-0.03 5.27-0.39 7.87 6.6-0.73 13.23 0.12 19.83-0.38-1.22 1.91-2.06 4.18-3.77 5.72-4.81 1.38-9.65 2.69-14.31 4.54-0.48 1.7-0.98 3.4-1.46 5.11 2.75 1.14 5.52 2.26 8.31 3.32 2.32-1.09 4.48-0.62 6.54 0.76 2.78-2.52 6.68-4.31 10.45-3.03 5.53 1.9 11.04-0.68 16.45-1.68-0.19 3.76-3.63 5.49-5.94 7.9-1.53 2.03-2.53 4.4-3.7 6.65-4.43-0.46-8.79-1.32-13.25-1.26-5.91-2.31-12.4 2.06-18.18-1.32-2.3 0.68-4.62 1.65-7.06 1.33-2.31-5.53-1-11.59-0.6-17.34 0.29-2.63-2.09-4.11-3.97-5.35 1.47-3.08 2.59-6.36 3.05-9.73-0.38-2.94-1.11-5.82-1.46-8.75 0.77-2.75 3.93-3.21 6.15-4.27-1.03-0.64-2.05-1.29-3.06-1.93 1.18-1.47 2.37-2.93 3.64-4.33 5.98-2.15 12.47 0.45 18.4-1.75z"/>
  <path id="path77" d="m373.99 532.43c3.52-0.2 7.35-0.12 10.2 2.27 1.03 0.56 1.02 1.75 1.16 2.78 0.36 4.64 2.75 8.76 3.92 13.21 1.96 6.98 5.8 13.21 7.85 20.16 1.49 5.11 5.19 9.6 5.25 15.09-1.05 1.76-3.23 2.12-4.82 3.21-3.64-6.12-5.32-13.1-8.25-19.52-8.5-0.83-17.01 0.53-25.46 1.25-0.24 6.08-4.4 10.84-7.9 15.43-1.48 0.16-2.97 0.26-4.46 0.3-0.52-13.09 8.83-23.36 13.6-34.82 2.67-6.61 8.26-11.97 8.91-19.36m2.94 20.24c-1.4 3.11-3.11 6.27-3.22 9.76 4.46 0.67 8.95 1.17 13.47 0.9-2.17-4.52-4.71-8.83-7.01-13.27-1.09 0.86-2.17 1.73-3.24 2.61z"/>
 </g>
</svg>
