<?xml version="1.0" encoding="UTF-8"?>
<svg id="svg44" width="448.26pt" height="303.67pt" version="1.1" viewBox="0 0 448.26 303.67" xmlns="http://www.w3.org/2000/svg" xmlns:cc="http://creativecommons.org/ns#" xmlns:dc="http://purl.org/dc/elements/1.1/" xmlns:rdf="http://www.w3.org/1999/02/22-rdf-syntax-ns#">
 <metadata id="metadata50">
  <rdf:RDF>
   <cc:Work rdf:about="">
    <dc:format>image/svg+xml</dc:format>
    <dc:type rdf:resource="http://purl.org/dc/dcmitype/StillImage"/>
    <dc:title/>
   </cc:Work>
  </rdf:RDF>
 </metadata>
 <path id="path4528-0" d="m376.65 151.84a151.7 151.84 0 0 1-151.7 151.84 151.7 151.84 0 0 1-151.7-151.84 151.7 151.84 0 0 1 151.7-151.84 151.7 151.84 0 0 1 151.7 151.84z" fill="#fff" style="paint-order:normal"/>
 <path id="path4528-0-1" d="m366.32 151.84a141.37 141.5 0 0 1-141.37 141.5 141.37 141.5 0 0 1-141.37-141.5 141.37 141.5 0 0 1 141.37-141.5 141.37 141.5 0 0 1 141.37 141.5z" style="paint-order:normal"/>
 <path id="path25" d="m125.77 113.67c14.853-6.5559 32.793-5.5862 46.854 2.5541l-4.9852 23.54-3.3872 0.0205c-3.0184-4.2272-7.1022-7.9013-12.128-9.4924-7.1979-2.2946-15.721-1.3044-21.512 3.797-7.2047 6.2691-10.401 16.042-10.674 25.37-0.17756 5.716 0.34828 12.108 4.4184 16.526 3.6536 3.954 9.4515 4.7121 14.56 4.3843 7.8398-0.40974 14.553-5.2516 20.057-10.469l3.3941 0.0615-4.9989 23.615c-5.8662 2.8546-11.951 5.5998-18.52 6.2486-9.8271 1.0107-20.412 0.29365-28.962-5.115-8.2086-4.9648-13.016-14.211-14.218-23.533-1.557-12.777 0.81266-26.162 7.4505-37.273 5.1423-8.9393 13.187-16.13 22.652-20.235z" fill="#fff" stroke-width=".68291"/>
 <path id="path4528" d="m217.18 82.466a19.477 19.477 0 0 1-19.478 19.478 19.477 19.477 0 0 1-19.477-19.478 19.477 19.477 0 0 1 19.477-19.478 19.477 19.477 0 0 1 19.478 19.478z" fill="#e20a16" style="paint-order:normal"/>
 <path id="path37" d="m267.32 87.153c24.21-0.12 48.43-0.03 72.65-0.04-1.18 5.92-2.33 11.84-3.57 17.74-24.17-0.02-48.35 0.02-72.52-0.02 1.16-5.89 2.38-11.77 3.44-17.68" fill="#e20a16"/>
 <path id="path9" d="m222.81 111.86 4.88-24.51h23.74l-4.86 24.49 44.47-0.03 6.37 56.25 27.98-56.22h25.04l-64.32 117.52-25.92-0.02 18.83-33.57-11.32-79.7-2.59 13.78-22.11-0.01c-2.51 13.24-5.44 26.41-7.78 39.68-0.57 3.67-0.79 8.95 3.29 10.7 5.68 2.5 11.48-0.52 16.99-1.87l-3.71 18.78c-8.39 2.17-17.13 2.79-25.74 1.91-5.02-0.7-10.46-2.56-13.2-7.14-3.81-6.02-3.01-13.57-1.81-20.25 2.64-13.96 5.52-27.86 8.21-41.81l-9.76 0.02 3.59-18.01z" fill="#fff"/>
 <path id="path11" d="m316.84 90.059h2.02l-2.3313 12.1h-2.0886z" fill="#fff"/>
 <path id="path13" d="m269.22 90.059h6.082c4.6432 0 7.0464 0.50665 7.0256 3.6714-0.0786 2.1442-2.0154 4.1749-4.0976 4.9026l2.6905 3.5257h-3.0707l-2.5998-3.3555h-4.66l0.37372-2.1218 5.6714 4e-5c1.6373 0 3.1829-0.70376 3.5073-2.4634 0.2066-2.013-2.2283-1.8768-3.574-1.9242-1.702-0.0546-3.3566-0.035-5.7584 1e-4l-1.8789 9.8647h-2.0911l2.38-12.1z" fill="#fff"/>
 <path id="path15" d="m282.33 102.16 9.2493-12.456h1.5325l5.013 12.456h-3.0123l-1.3622-3.3107h-5.2688l1.6797-2.275h2.8736l-1.5124-3.5935-6.8028 9.1792z" fill="#fff"/>
 <path id="path17" d="m302.08 90.059h3.9949c1.1879 0 2.3723 0.0303 3.5278 0.22282 1.556 0.20654 2.8157 0.99369 3.454 1.965 1.4022 2.3666 0.42929 5.9172-1.6067 7.7161-1.7781 1.8597-4.151 2.1957-6.5975 2.1957h-5.1725c0.79-4.01 1.59-8.0997 2.4-12.1m1.6 2.2349c-0.52 2.62-1.05 5.2591-1.54 7.8791 3.6 0.19 9.25 0.16 9.53-4.69-0.0178-2.5682-1.8438-3.1174-3.9089-3.189-1.4167-0.0491-2.7701-0.0782-4.0811 3e-5z" fill="#fff"/>
 <path id="path19" d="m324.32 90.833c1.6079-0.65644 3.106-0.8018 4.7194-0.81464 1.6571-0.0132 3.7535 0.28034 4.7906 0.98464 4.14 3.18 0.72 9.95-3.74 10.87-1.2967 0.23554-2.8087 0.34309-4.2328 0.3212-1.5056-0.0231-2.7449 0.0459-4.2072-1.1912-3.24-3-1.05-8.64 2.67-10.17m0.0594 2.2206c-2.1 1.33-3.3694 4.7094-0.97938 6.4694 0.55822 0.52158 2.4597 0.64877 3.7421 0.66085 1.5736 0.0148 3.494-0.40646 4.3687-1.1503 1.3385-1.0832 2.331-2.9333 1.9438-4.5636-0.53847-1.6849-1.8262-2.1034-3.2474-2.203-0.96511-0.03-1.8732-0.0339-2.8322 0-1.0234 0.0361-2.1715 0.32939-2.9956 0.78663z" fill="#fff"/>
 <path id="path23" d="m182.39 111.85 23.78-0.04-17.05 86.04h-23.73z" fill="#fff"/>
 <g id="g4684" transform="translate(-31.851 -101.4)" fill="#646466" fill-opacity=".94118">
  <path id="path26" d="m129.38 123.44c1.58-0.7 3.26-1.1 4.94-1.48-3.94 3.58-8.69 6.1-12.85 9.41-27.45 20.18-51.3 46.81-63.16 79.16-9.55 25.6-10.38 54.32-2.18 80.4 9.86 32.15 31.62 59.54 57.62 80.34 3.19 2.66 6.77 4.86 9.59 7.94-3.94-0.72-7.43-2.74-10.95-4.53-27.69-14.51-52.48-36.09-67.21-63.98-17.41-32.89-17.49-73.8-1.85-107.37 12.24-26.61 33.6-48.13 57.79-64.19 8.97-6 18.43-11.26 28.26-15.7z"/>
  <path id="path28" d="m377.64 121.88c5.28 1.35 9.92 4.33 14.76 6.71 23.78 13.04 45.85 29.95 62.46 51.55 13.13 17.07 22.31 37.46 24.6 58.99 1.83 17.83-0.18 36.09-6.22 53-11.22 31.83-35.5 57.53-63.42 75.72-6.82 4.12-13.5 8.82-21.15 11.29 3.97-4.2 8.74-7.52 12.91-11.5 23.98-21.75 44.97-48.21 54.63-79.52 7.99-25.25 7.05-53.11-2.44-77.82-11.62-30.73-34.04-56.23-59.75-76.15-5.22-4.41-11.31-7.68-16.38-12.27z"/>
  <path id="path30" d="m141.27 131.16c4.37-2.63 8.68-5.48 13.49-7.25-1.2 1.48-2.61 2.77-4.19 3.83-25.82 18.66-46.31 45.04-56.48 75.35-9.61 28.11-10.28 59.02-2.76 87.69 8.07 31.47 25.82 60.33 50.11 81.88 3.23 2.97 6.84 5.5 9.97 8.57-1.92-0.41-3.79-1.04-5.46-2.09-20.36-11.87-38.24-28.03-52.11-47.08-15.08-20.91-24.5-46.17-25.18-72.05-1.56-29.67 7.24-59.69 24.54-83.86 12.73-18.08 29.4-33.22 48.07-44.99z"/>
  <path id="path32" d="m357.81 124.86c1.83 0.4 3.64 0.96 5.23 1.97 22.87 13.23 43.3 31.09 58.16 53.03 13.38 19.75 21.45 43.28 21.83 67.19 0.53 23.31-3.75 46.96-14 68-12.31 25.71-33.17 47.17-58.38 60.43-1.11 0.63-2.36 0.93-3.62 1.09 7.29-6.87 14.91-13.45 21.36-21.17 17.84-20.53 30.57-45.63 35.64-72.41 5.6-28.5 2.44-58.56-8.48-85.44-10.51-26.18-28.32-49.2-50.31-66.78-2.49-1.96-5.08-3.78-7.43-5.91z"/>
 </g>
</svg>
