<svg width="640.69pt" height="596pt" version="1.1" viewBox="0 0 640.69 596" xmlns="http://www.w3.org/2000/svg">
 <g transform="matrix(6.2218 0 0 6.2218 422.7 -654.46)" stroke-width=".35278">
  <path d="m-20.31 105.45c3.6301-0.58561 7.4436-0.22578 10.813 1.2876 5.6303 2.4165 9.906 7.7611 10.929 13.815 0.98425 5.1153-0.37747 10.601-3.5454 14.721-3.1609 4.1522-8.1209 6.8933-13.331 7.2743-4.5932 0.40569-9.3133-0.9525-12.965-3.7747-3.8735-2.9316-6.5405-7.4366-7.1614-12.263-0.8255-5.4081 0.93486-11.141 4.6355-15.166 2.7552-3.0798 6.5652-5.1682 10.626-5.8949" fill="#f27330"/>
  <path d="m-30.696 120c1.6157-1.9226 2.7693-4.191 4.378-6.1207 0.66675 0.69144 1.0583 1.6545 1.9332 2.1343 0.93133 0.59267 1.6933 1.4217 2.2931 2.3424 0.40922 0.64559 0.07056 1.4288 0.0635 2.1308-0.17992 1.2171 0.04939 2.6564 0.9137 3.5595 1.7039 0.63147 3.5772 0.37394 5.3552 0.42333 0.46567-1.905 2.4306-2.861 3.0021-4.7096 0.43039-1.4111 1.4323-2.5506 2.6352-3.3726 0.27517 0.74437 0.53975 1.4887 0.80081 2.2366 0.40217-1.3159 0.6985-2.8328 1.9156-3.6654 1.4605 0.27869 3.1679 0.21519 4.3004 1.337 0.26458 0.58561 0.22578 1.2524 0.32456 1.8768 0.8008 1.5804 0.91369 3.4008 1.6722 4.9953 0.53975 1.2312 1.464 2.3812 1.33 3.8065-0.64205 0.0776-1.2735 0.18697-1.9121 0.28222-2.3954 0.29633-4.8013-0.52564-7.1896-0.0459 2.6917 0.38453 5.394 0.79022 8.1139 0.89605 0.14111 0.254 0.28575 0.508 0.42686 0.762-0.55033 0.20461-1.1889 0.35278-1.3511 1.009-0.60325 0.13405-1.2065 0.26458-1.8133 0.39511-0.16933-0.0988-0.51505-0.29633-0.68792-0.39511-0.15875 0.06-0.47978 0.18344-0.64205 0.24341-0.52564-0.0847-1.1324-0.47272-1.591 7e-3 1.0866 0.27517 2.2719 0.2152 3.2597 0.80787-0.35983 0.34925-0.65264 0.75141-0.87136 1.2065-1.9121 0.49389-3.7924 1.2347-5.782 1.3194-0.9137-0.06-1.143-1.0619-1.4076-1.7639-1.1218 0.0353-2.2401-0.0882-3.3584-0.15169 0.09878-0.67733 0.21519-1.3511 0.32808-2.0285 0.81844-0.127 1.6369-0.29281 2.3989-0.62795-1.1324-0.2293-2.3424-0.0811-3.4255-0.50447 0.09525-0.61383 0.2928-1.2065 0.49742-1.7921 2.4589 0.0318 4.9107-0.27869 7.3695-0.31044 1.9438-0.0776 3.8947 0.0282 5.8279-0.22225-0.56444-0.74084-1.1536-1.4958-1.3829-2.4165-0.60678-2.1484-1.3335-4.2827-1.651-6.5017-0.56445-0.32102-1.1254-0.64558-1.6828-0.97366-0.64911 0.15522-1.5275 0.17991-1.5275 1.0619-0.15522 1.9614-0.50094 4.4838 1.2947 5.8314-0.23989 0.8008-0.57503 1.5699-0.94545 2.3142-0.5715-0.067-1.1501-0.0988-1.711-0.2152-0.09525-2.1272-0.07761-4.5508-1.7921-6.1066-0.83608 1.3794-1.21 3.0656-2.5118 4.1169-0.64205 0.45861-0.55739 1.3053-0.87136 1.9473-0.34219 0.34925-0.73025 0.64558-1.1077 0.95603-2.159-0.0635-4.318-0.0952-6.477-0.20814-0.19403 0.35278-0.38805 0.70555-0.58561 1.0583-1.016 0.0706-2.032 0.19403-2.9986 0.51506 1.711 0.11289 3.4749-0.21167 5.1294 0.38805-0.39864 0.56798-0.80786 1.1289-1.2171 1.6898-1.8168 0.11994-3.5489 0.75142-5.3658 0.88194 0.03175 0.19756 0.09878 0.59267 0.13053 0.79023-1.5169 0.1658-3.0162 0.49036-4.4379 1.0583-0.47978-0.14111-0.96308-0.28222-1.4429-0.42686 0.45156-1.1748 1.6616-1.5593 2.7517-1.905-1.3194-0.254-2.6564-0.41628-4.0005-0.32809 0.10231-0.76905-0.59972-2.166 0.55033-2.3283 1.1642-0.34219 2.3777-0.508 3.5207-0.93133-1.4711-0.2152-2.9598-0.24695-4.445-0.22225 0.56797-1.7992 0.75847-3.6936 1.3406-5.4822 0.39511-0.89958 1.5769-0.39158 2.3283-0.62442m4.1028-4.0252c-0.75142 1.0301-1.6122 1.972-2.473 2.9139-0.46567 0.4692-0.69144 1.1994-1.3547 1.4393-0.55033 0.2928-1.1783 0.44803-1.6898 0.81491-0.53975 1.1218-0.73025 2.3707-1.0583 3.5631 3.0868-0.0776 6.1701 0.11994 9.2322 0.51153 0.84314 0.26811 1.3511-0.4692 1.905-0.94192-0.35631-0.3563-0.71261-0.70908-1.0724-1.0548-0.08467-0.43392-0.16933-0.86431-0.25047-1.2982 0.19756-0.87841 0.38453-1.845-0.0141-2.6988-0.43745-0.87489-1.0971-1.6087-1.6863-2.3812-0.5468-0.2293-1.0583-0.52564-1.5381-0.86783z" fill="#fff"/>
 </g>
 <g transform="translate(-36.109 .00025323)">
  <path d="m292.92 57.93c1.01-1.39 2.4-2.42 3.72-3.5 3.23 2.42 6.97 4.21 9.66 7.3 5.81 6.85 13.41 11.96 18.94 19.07 2.03 3.88-0.36 8.2-0.65 12.23-0.84 7.94 0.21 17.33 6.63 22.86 3.88 0.75 7.9 0.12 11.84 0.57 5.93 0.6 11.96 0.65 17.86-0.34 3.07-2.06 4.7-5.62 6.79-8.58 7.71-12.6 14.03-26.62 25.64-36.26 1.35-1.29 3.2-1.65 4.94-2.13 0.23 1.8 0.44 3.61 0.65 5.41 6.18-1.56 7.24-8.57 10.68-12.97 1.38-2.09 4.09-2.21 6.35-2.09 4.93 0.3 9.73 1.61 14.44 3 3.91 1.29 8.1 3.03 10.46 6.6 2.05 3.22 1.46 7.18 1.77 10.79 0.15 4.46 2.24 8.48 3.94 12.5 5.63 12.85 10.94 26.11 12.6 40.15-4.37-0.58-8.39 1.15-12.2 3.04-6.06-0.17-12.14-1.37-18.17-0.07 7.43 4.34 16.31 0.82 24.13 3.44 2.99 0.91 3.86 4.12 4.01 6.9-2.55 0.65-8.37-0.18-7.11 4.11-4.45 1.7-9.13 2.58-13.8 3.4 1.62 1.52 3.49 2.95 4.08 5.21-0.8 0.1-2.39 0.32-3.19 0.43-0.64 1.97-1.14 4.01-2.03 5.89-3.46 1.59-7.36 1.65-11.04 2.37-5.42 0.82-10.33 3.6-15.78 4.25-3.66 0.63-7.28-1.74-10.85-0.1-0.07-0.86-0.2-2.57-0.26-3.43-2.01-0.07-4.02-0.18-6.02-0.23-0.6-2.01-1.29-3.99-2.02-5.95-6.63 1.44-13.18-1.58-19.81-0.49-1-4.74 0.39-9.42 1.42-14.01 3.62-0.95 7.25-1.9 10.91-2.71-4.92-0.92-9.9-2.11-14.93-1.29-2.12-4.6-1.31-9.89 0.73-14.37 3.56 0.44 7.01 1.97 10.65 1.41 5.34-0.43 10.68 0.67 16.02 0.09 3.27-0.16 5.8-2.91 9.14-2.77 4.95 0.15 9.98-0.25 14.86 0.81 5.9 1.2 11.99 1.23 17.93 0.32 4.16-0.53 7.87-3.23 12.22-2.48-3.2-5-5.48-10.52-8.81-15.43-4-11.66-8.52-23.41-9.18-35.86-4.1-4.58-10.88-6.35-16.84-5.36-2.42 10.78-4.77 22.9 1.1 33.03 1.18 2.84 4.69 4.86 4.08 8.22-0.4 4.81-3.68 8.6-5.42 12.95-3.17-0.24-6.35-0.23-9.52-0.05-3.22-9.28-2.73-19.33-5.66-28.66-0.95-3.34-3.04-6.17-5.42-8.64-5.77 5.83-6.49 14.82-12.18 20.73-1.72 1.93-4.15 2.95-6.48 3.94-0.03 3.74-0.25 7.79-2.59 10.91-3.04 4.15-8.36 5.66-13.25 6.16-7.36 0.54-14.81 0.21-22.01-1.48-2.6-0.44-5.24-1.43-7.89-0.94-3.35 1.05-4.95 4.56-7.77 6.41-2.3 1.35-5.07 1.15-7.63 1.39 6.94 2.97 15.44-1.09 21.51 4.39-1.5 2.74-2.92 5.8-5.78 7.36-2.91 1.92-6.53 1.88-9.85 2.34-4.2 0.32-7.51 3.26-11.54 4.22-3.49 1.45-7.27 0.78-10.92 1.01 0.31 1.49 0.65 2.98 0.99 4.47-9.02 3.42-18.78 3.93-28.16 5.88-3.08 0.81-6.24-0.01-9.22-0.85-0.49-1.58-1.2-3.45-0.07-4.93 2.11-3.78 6.72-4.68 10.05-7.03-1.53-0.11-3.06-0.28-4.57-0.52-1.82-0.74-2.85-3.05-5.02-2.94-3.15 0.04-6.3 0.29-9.45 0.35-2.53-3.49-2.51-7.94-1.08-11.87 5.97-4.17 13.29-4.58 20.28-5.34-1.83-2.34-5.07-2.37-7.77-2.58-4.65 0.17-9.3 0.39-13.95 0.3 2.82-8.36 2.38-17.32 4.29-25.87 0.93-3.94 2.64-8.07 6.18-10.35 3.84-2.38 8.74-1.42 12.71-3.45 2.01-1.26 3.31-3.31 4.65-5.2 5.63-8.4 11.29-16.78 17.04-25.09m-15.53 31.45c-3.96 4.15-9.43 6.24-14.86 7.67-1.19 4.41-2.54 8.84-4.51 12.96-2.04 2.6-2.79 5.83-3.35 9.02 2.4 0.88 5.23 1.84 7.29-0.3 5.4-0.08 10.58 2.09 16 1.6 4.08 0.09 7.88-2.07 11.98-1.56 6.77 0.23 13.35 2.1 20.1 2.55 4.75 0.36 9.8-1.2 12.98-4.87-2.29-1.5-4.69-3.14-5.74-5.78-2.9-6.55-1.79-13.93-0.87-20.78 0.65-2.34-1.34-3.99-2.69-5.56-3.64-3.94-6.92-8.2-9.88-12.68-3.61 0.77-5.93-2.36-8.28-4.47-6.49 7.04-10.9 15.83-18.17 22.2z" fill="#fff"/>
 </g>
 <path d="m111.74 425.98 72.995-167.08 73.075 167.08h-16.9l-21.53-54.855h-69.39l-22.42 54.855h-15.83m43.49-67.98h59.01l-29.505-68.945z" fill="#074570"/>
 <path d="m543.58 259.82c16.42-2.18 33.56-0.22 48.7 6.69 18.66 8.41 33.88 24.09 41.89 42.91 7.15 16.8 8.41 36 3.83 53.65-4.56 17.55-15.29 33.31-29.64 44.34-25.4 20.07-62.55 23.24-91.16 8.28-16.42-8.52-29.93-22.56-37.72-39.34-8.27-17.7-9.59-38.36-4.39-57.12 5.04-18.12 16.67-34.18 31.92-45.1 10.76-7.7 23.47-12.53 36.57-14.31m2.85 12.9c-19.99 2.65-38.22 14.97-48.71 32.12-10.78 17.05-13.18 38.82-7.4 58.04 4.46 14.83 14.12 27.94 26.71 36.91 21.96 15.81 53.51 16.15 76.15 1.52 14.71-9.25 25.55-24.29 29.93-41.07 4.06-15.61 2.84-32.64-3.81-47.37-7.06-15.63-19.95-28.68-35.79-35.37-11.61-4.97-24.59-6.49-37.08-4.78z" fill="#074570"/>
 <path d="m8.2913 260.03c10.21-0.07 20.41-0.02 30.62-0.03 12.39 0.16 25.59 2.32 35.51 10.29 8.34 6.62 12.43 17.23 13.31 27.6 1.21 12.62-0.65 26.63-9.68 36.23-7.66 8.6-19.51 12-30.73 11.95 18.78 26.29 37.52 52.605 56.26 78.925h-17.46l-53.43-77.85h-10.025v77.85h-14.375v-164.96m14.375 13.03v60.94c11.72-0.22 23.855 0.96 35.125-2.94 5.39-1.74 9.99-5.79 12.06-11.1 3.16-7.92 3.14-16.77 1.86-25.08-1.11-7.26-5.03-14.55-11.96-17.71-11.56-5.46-24.695-3.83-37.085-4.11z" fill="#074570"/>
 <path d="m278.97 262.02c20.97 0.24 42.07-0.82 62.92 1.99 13.05 1.72 25.71 7.45 34.82 17.08 13.7 13.97 19.93 33.67 20.96 52.87 1.18 20.38-1.98 41.9-13.58 59.14-9.47 14.27-25.39 23.72-42.29 25.99-20.82 2.91-41.89 1.54-62.83 1.9v-158.97m14.04 12.05v134.96c12.65-0.02 25.3 0.13 37.93-0.59 10.54-0.58 21.61-2.57 29.96-9.5 13.46-11.22 19.86-28.76 21.47-45.8 1.53-17.71 0.12-36.41-8.28-52.4-6.15-11.8-17.05-21.49-30.31-24.22-16.7-3.28-33.85-2.27-50.77-2.45z" fill="#074570"/>
 <path d="m427.38 263.04h15.82v157.92h-15.82z" fill="#074570"/>
 <path d="m24.971 450.12c15.73-14.75 37.51-22.43 58.97-22.1 17.94-0.04 35.545 5.54 49.565 16.91v16.12c-11.1-9.79-24.345-17.25-39.145-19.29-17.66-2.33-36.65 0.83-51.27 11.44-14.04 9.96-23.55 25.73-26.34 42.66-2.59 15.91-1.66 32.79 4.79 47.71 8.1 18.61 25.61 32.66 45.45 36.81 23.07 5.03 48.095-2.03 66.515-16.36v16.3c-16.72 11.08-37.505 17.03-57.595 15.42-16.18-1.2-32.12-6.94-45.03-16.82-13.65-10.45-23.47-25.61-27.77-42.23-3.77-14.56-4.09-30.01-1.09-44.75 3.28-15.79 11.09-30.78 22.95-41.82z" fill="#074570"/>
 <path d="m161.79 592.96 72.02-165.04 72.17 165.04h-16.76l-21.32-53.855h-68.5l-21.95 53.855h-15.66m72.02-135.2-29.12 68.25h58.24z" fill="#074570"/>
 <path d="m341.77 429c14.72 0.19 29.475-0.44 44.195 0.46 9.6 0.52 19.61 2.95 26.94 9.53 8.94 8.05 12.95 20.31 13.35 32.08 0.31 10.58-1.21 21.85-7.55 30.64-4.94 6.94-12.78 11.22-20.86 13.41-13.49 3.8-27.66 2.76-41.52 2.95v71.93h-14.555c0-53.67-0.01-107.33 0-161m14.555 13.07v62.9c13.31-0.06 27.04 0.54 39.81-3.83 6.59-2.14 11.54-7.9 13.21-14.55 2.95-11.5 1.88-24.78-5.64-34.38-3.91-5.32-10.34-8.15-16.74-9-10.14-1.46-20.42-1.1-30.64-1.14z" fill="#074570"/>
 <path d="m596.83 430h15.375v161h-15.375z" fill="#074570"/>
 <path d="m466.64 428.04c10.21-0.07 20.41-0.02 30.62-0.03 12.39 0.16 25.59 2.32 35.51 10.29 8.34 6.62 12.43 17.23 13.31 27.6 1.21 12.62-0.65 26.63-9.68 36.23-7.66 8.6-19.51 12-30.73 11.95 18.78 26.29 37.52 52.605 56.26 78.925h-17.46l-53.43-77.85h-10.025v77.85h-14.375v-164.96m14.375 13.03v60.94c11.72-0.22 23.855 0.96 35.125-2.94 5.39-1.74 9.99-5.79 12.06-11.1 3.16-7.92 3.14-16.77 1.86-25.08-1.11-7.26-5.03-14.55-11.96-17.71-11.56-5.46-24.695-3.83-37.085-4.11z" fill="#074570"/>
</svg>
