<?xml version="1.0" encoding="UTF-8"?>
<!-- Created with Inkscape (http://www.inkscape.org/) -->
<svg id="svg4533" width="495.68mm" height="140.63mm" version="1.1" viewBox="0 0 495.68 140.63" xmlns="http://www.w3.org/2000/svg" xmlns:cc="http://creativecommons.org/ns#" xmlns:dc="http://purl.org/dc/elements/1.1/" xmlns:rdf="http://www.w3.org/1999/02/22-rdf-syntax-ns#">
 <metadata id="metadata4530">
  <rdf:RDF>
   <cc:Work rdf:about="">
    <dc:format>image/svg+xml</dc:format>
    <dc:type rdf:resource="http://purl.org/dc/dcmitype/StillImage"/>
    <dc:title/>
   </cc:Work>
  </rdf:RDF>
 </metadata>
 <g id="layer1" transform="translate(264.85 -78.518)">
  <path id="path2" d="m230.83 148.83a69.821 70.316 0 0 1-69.821 70.316 69.821 70.316 0 0 1-69.821-70.316 69.821 70.316 0 0 1 69.821-70.316 69.821 70.316 0 0 1 69.821 70.316z" fill="#f00" stroke-width=".35278"/>
  <g id="g22" transform="matrix(.35278 0 0 .35278 -264.85 78.518)" stroke-width="5.2393">
   <path id="path4" d="m300 24.502c28.61 0 55.87-0.33098 82.729 0.52393 21.796 0.7859 39.138 22.058 37.514 43.486-0.31436 25.254-19.071 45.635-40.5 56.532l21.638 54.699-29.864 0.31436-20.853-51.765-43.015 0.10479-8.8545 51.45-26.039 0.15718zm21.272 26.04-9.0117 51.345c18.233-0.20958 36.466 0.7859 54.646-0.47154 22.477-0.8383 38.457-36.466 15.351-48.307-6.4369-3.3771-40.064-2.5667-60.986-2.5667z"/>
   <path id="path6" d="m421.14 179.95 104.58-155.61 50.036 155.61-29.078-0.20958-8.2258-25.725h-70.312l-17.657 25.673zm64.234-51.974 44.534 0.10479-14.408-45.058z"/>
   <path id="path8" d="m595.76 180.14 27.087-155.9h36.945c24.324 0 48.388 2.4711 64.541 22.8 31.384 37.828 8.4877 95.513-30.126 118.62-18.3 12.664-39.663 14.486-61.234 14.486zm30.598-26.379c19.333-0.20958 40.814 2.1481 57.371-10.112 24.415-15.299 39.138-51.45 20.433-76.494-13.622-19.228-39.295-16.609-59.938-16.347z"/>
   <path id="path10" d="m734.71 374.12 60.933-349.46 25.935-0.0524-60.933 349.36-25.935 0.15718z"/>
   <path id="path12" d="m902.84 29.217c17.447-6.0252 37.094-6.6016 54.437 0.15718 23.787 9.5356 39.871 34.946 38.614 60.567-0.89068 53.86-57.056 100.44-110.29 87.968-29.655-6.7064-50.507-37.828-46.63-67.849 2.6721-36.518 29.969-68.583 63.867-80.843m5.0298 24.677c-35.261 10.688-58.785 61.719-28.712 89.593 39.976 31.908 102.48-17.08 87.968-63.867-7.0731-24.52-36.728-34.789-59.257-25.725z"/>
   <path id="path14" d="m1011.8 166.94 322-120.77-64.641 342.45-59.624-202.92z" fill="#1d1d1c"/>
   <path id="path16" d="m27.611 218.2 102.69 0.15718-4.7678 26.459-76.913-0.15718-8.9069 51.084 108.93-0.0524 13.622-77.28c26.354 0.41915 52.655-0.47154 79.009 0.31436 21.167-0.68111 40.343 17.499 41.234 38.562 1.467 13.832-4.7678 26.668-10.898 38.614l49.878-0.31436 13.465-77.018 102.9-0.10478-4.401 26.249-76.966-0.0524-9.064 51.188 108.3-0.20957c9.7452-42.753 49.721-78.223 94.465-77.071 18.704-0.10478 35.366 9.6928 48.359 22.477l-21.376 18.442c-30.755-32.222-86.239-6.0252-94.046 33.898-6.5492 21.953 7.2303 48.778 30.545 52.97 18.023 4.5582 35.837-3.196 50.402-13.308l15.194 18.285c-24.206 19.333-58.471 30.126-88.021 16.609-18.966-8.121-30.388-26.511-35.994-45.582h-112.44l-4.6106 25.463 77.175 0.10479-4.8202 26.144-102.85 0.0524 9.064-51.817-73.351-0.0524 20.538 51.765-30.021 0.10479-20.276-50.612-44.01 0.20957-8.6973 50.35-25.935-0.0524 9.064-51.66-109.08 0.10479-8.8545 51.555h-26.144zm156.08 26.406-8.7497 49.826c18.652-0.10478 37.304 0.89069 55.904-0.15718 22.11-0.15718 35.785-35.575 14.356-46.892-7.7776-3.7328-41.129-2.7768-61.51-2.7768z"/>
   <path id="path18" d="m595.76 319.84c-7.3351-56.637 50.298-110.86 106.36-99.757 14.356 2.2005 26.039 11.369 36.413 20.957l-21.115 18.338c-29.602-30.388-81.943-8.3306-92.998 28.921-8.5925 21.796 2.2529 50.874 25.935 57.161 18.757 6.2348 38.195-1.467 53.598-12.208l15.299 18.128c-18.39 13.779-40.448 24.52-64.025 22.372-29.393-0.68111-56.008-24.625-59.466-53.913z"/>
   <path id="path20" d="m792.4 374.12 104.79-155.82 49.931 155.87-29.34-0.26197-7.8066-25.62-70.626-0.20957-17.761 25.882zm64.391-52.131h44.43l-14.565-44.692z"/>
  </g>
 </g>
</svg>
