<svg id="a" width="959.33pt" height="958.54pt" version="1.1" viewBox="0 0 959.33 958.54" xmlns="http://www.w3.org/2000/svg">
 <g id="b" transform="translate(-20.388 -20.25)" fill="#03508a">
  <path id="c" d="m504.75 20.25c5.4 0.02 10.78 1.03 16.19 0.5 4.77-0.48 9.63 0.56 13.91 2.68 22.27 0.22 43.96 6.16 66.06 8.21 1.81 0.46 5.07-0.09 4.97 2.67 5.86 0.03 11.38 2.27 17.16 2.97 5.02 0.41 9.04 3.9 13.95 4.7-0.39-0.65-1.17-1.94-1.56-2.59 11.99 4.93 24.58 8.1 36.83 12.31 7.58 2.29 13.98 7.91 22.17 8.09 0.02 1.14 0.05 2.29 0.1 3.43 7.75 1.67 15.29 4.31 22.22 8.21l-0.56-2.91c2.34 2.09 4.57 4.32 6.87 6.46-1.76-0.14-3.51-0.31-5.26-0.46 2.48 2.19 5.93 2.39 8.64 4.18s7.12 2.95 6.5 7.09c-2.81 0.34-5.45-0.61-7.2-2.86 0.79-0.12 2.38-0.36 3.17-0.48-7.8-5.04-17.57-4.86-25.9-8.61-1.83-0.8-3.2-2.36-4.3-3.98 2.88 0.8 4.63 3.63 7.59 4.28-3.93-6.06-11.82-6.53-17.7-9.79 0.01 0.48 0.04 1.43 0.05 1.91 1.53 0.9 3.07 1.78 4.58 2.71-7.53-0.84-13.53-6.3-20.94-7.67 0.05-0.2 0.17-0.61 0.22-0.81 3.49 0.76 6.97 1.65 10.52 2.16-11.35-6.1-24.33-8.03-36.96-9.59 0.47-0.56 1.42-1.67 1.9-2.22-2.01-0.32-4.03-0.37-6.04-0.22-4.15-2.09-8.18-4.75-12.85-5.45-4.75-0.94-9.6-0.23-14.39-0.42 0.9-0.5 2.7-1.49 3.6-1.99-6.08 0.31-11.52-2.64-17.4-3.53-1.32 2.67-4.46 0.88-6.67 0.8-0.96-2.42-3.23-3.34-5.7-2.93h-1.62c-0.4-0.46-1.18-1.38-1.57-1.84-3.21 0.28-6.59 0.37-9.34-1.58-7.3 2.24-14.74-0.64-22.11-0.14 1.88 3.01 5.88 3.07 9.04 2.78-1.19 0.43-2.39 0.88-3.37 1.67 2.14 0.79 4.33 1.42 6.58 1.85 0.59-0.99 1.47-1.55 2.65-1.68 3.88 2.27 8.23 3.49 12.64 4.21 0.02-0.58 0.07-1.73 0.09-2.31 3.3 1.54 6.71 2.7 10.42 2.4 4.17 2.4 8.52 5.14 13.62 4.27-2.46-1.54-5.47-1.87-7.83-3.6 3.86-0.54 7.26 1.89 10.73 3.21 3.69 1.81 8.25 1.93 11.27 5 2.22 1.77 3.36 4.9 6.25 5.74-0.51-2.18-1.59-4.16-2.6-6.13 0.68-0.38 2.03-1.15 2.71-1.53 3.97 2.44 8.49 3.71 12.95 4.88 3.55 0.65 7.16-0.04 10.74 0 0.1 1.18-0.42 2.06-1.55 2.64 4.7 2.48 9.8 4.82 15.07 5.5-0.65 0.28-1.94 0.84-2.58 1.12 10.19 3.16 20.9 5.13 30.35 10.35 1.6 1.14 2.44 2.96 2.88 4.82-2.51-0.04-5-0.18-7.48-0.36-0.96-2.87-3.29-5.57-6.41-5.93-9 0.19-17.2-4.19-26-5.33 0.83 0.69 1.68 1.38 2.53 2.07 11.33-0.34 19.21 9.07 29.42 12.28 0.7 0 2.09-0.02 2.78-0.03-0.09 0.37-0.28 1.09-0.37 1.46 3.01 0.37 4.19 3.63 7.14 4.16-0.02-0.7-0.06-2.11-0.07-2.81 1.96 0.26 3.82 0.8 3.13 3.24 3.19 1.44 6.74 1.18 10.15 1.57-0.07 0.76-0.22 2.26-0.3 3.02 6.48 2.33 12.97 4.8 18.76 8.63-2.11-0.01-4.22-0.06-6.31 0.07 2.05 3.71 6.35 2.72 9.82 3.1-0.67 0.4-2.03 1.22-2.7 1.63l1.67 0.45c-0.64 0.45-1.28 0.89-1.92 1.31-0.47-0.24-1.41-0.73-1.89-0.97-2.24-1.17-4.36-2.54-6.43-3.98-0.42 0.2-1.28 0.6-1.7 0.8-5.18-2.07-9.19-6.47-14.76-7.53-6.02-1.57-11.36-4.86-17.1-7.14 1.04-0.13 3.12-0.39 4.17-0.52-3.19-2.18-6.96-3.5-10.82-3.56-0.79-0.74-1.41-1.62-2.08-2.44-4.06-1.76-7.97-3.85-12.06-5.56 0.62 1.03 1.24 2.05 1.87 3.07-2.01 0.58-4.09 0.3-6.11 0-1.35-2.5-4.42-3.98-4.54-7.09-2.97 0.87-7.27 2.97-9.34-0.55-6.99-1.14-14-6.83-21.08-2.96-1.6-0.52-3.22-0.97-4.84-1.34l0.01-0.39c1.73-0.12 3.48-0.24 5.22-0.5-2.1-0.29-4.25-0.15-6.26-0.84-3.31-0.62-6.97 0.91-10.02-0.81-5.49-3.29-12.16-0.73-18.05-2.72 2.25-1.07 4.69-0.6 6.98 0.1 5.04-3.92 10.23 3.54 15.48 1.67-4.95-2.58-10.79-4.01-16.38-3.39-4.91-3.7-11.22-3.55-17.04-4.48-2.55-0.39-5.16-0.65-7.66 0.08-4.8 1.25-10.14-3.78-14.3 0.15-6.09-1.12-10.93-5.81-17.28-6.02-0.76 0.85-1.17 3-2.78 2.21-2.35-0.4-4.73-0.69-7.11-0.81-3.22-0.11-5.55-4.33-8.89-2.83-0.21 0.41-0.63 1.22-0.84 1.63-6.21-0.6-12.09-2.71-18.16-4l0.72 1.96c-6.06 1.07-11.77 3.68-18 3.89 0.57-0.55 1.71-1.67 2.28-2.22-5.04 0.58-10.09 1.76-15.18 1.14-0.21-0.39-0.62-1.17-0.82-1.56-1.76-0.35-3.48-1.05-5.29-1.03-2.56 0.69-4.54 2.62-7.05 3.43 0.52 0.43 1.04 0.85 1.57 1.27 1.98-1.01 6.06-0.53 5.57-3.85 1.18 0.29 3.53 0.87 4.71 1.16-3.73 2.22-7.83 3.94-12.23 4.12-0.09-0.58-0.28-1.74-0.37-2.32-2.09 0.64-4.15 0.55-3.52-2.15-2.08 0.42-4.15 0.88-6.26 1 0.52 0.55 2.1 0.64 1.58 1.7-1.31 0.62-2.63 1.2-3.96 1.76l2.08 1.72c-7.28 0.1-14.56 0.3-21.83 0.23-0.62 0.89-0.66 2.56-2.05 2.57-3.98 0.67-7.91 1.55-11.88 2.2 1.03-1.3 2.24-2.44 3.42-3.61-2.88 0.45-6.04 1.16-7.94 3.58-0.75 1.22-2.31 0.77-3.48 1-2.61 0-5.07 0.94-7.4 2.01-0.49 0.87-0.96 1.73-1.44 2.6-4.6 0.71-9.45 2.53-14.01 0.69-6.21 2.46-12.76 3.87-19.1 5.93-4.74 1.41-9.75 2.57-13.64 5.82-3.99 1.73-7.95 3.92-12.37 4.25-3.61 0.55-7.13 1.58-10.52 2.89-2.08 0.58-2.64 3.1-4.65 3.76-6.62 2.87-13.4 5.36-19.84 8.62-1.32 0.74-2.84 0.84-4.31 0.88 0.88-1.4 1.8-2.78 2.75-4.13-1.54 0.56-3.09 1.11-4.65 1.64 3.2-2.87 7.1-5.23 11.21-6.5-1.1 0.86-2.2 1.71-3.3 2.54 2.57 0.77 3.97-1.71 5.67-3.07 3.37-3.36 7.85-5.21 12.34-6.5l-0.02 1.5c0.64-0.36 1.3-0.7 1.94-1.08-3.92-2.37-7.86 0.63-11.73 1.53-2.6 0.54-4.71 2.18-6.89 3.59-9.8 5.88-20.89 9.59-30.04 16.55-2.03 1.15-1.96 3.3-1.46 5.32-3.13 0.72-6.43 1.3-8.85 3.59 2.1-0.38 4.17-0.91 6.26-1.34-2.67 2.22-5.91 3.52-8.81 5.38-6.48 4.09-12.69 8.59-19.17 12.68-5.84 3.35-8.78 10.23-15.2 12.82 1.21-2.44 4.33-3.1 5.32-5.68-3.83 1.23-7.18 5.31-11.45 3.89-2.35 1.4-4.48 3.2-6.28 5.25-1.31 1.89 1.78 2.55 2.38 4.09-1.72 2.01-3.86 3.59-5.75 5.41-0.51 0.01-1.53 0.04-2.03 0.05 1.24-1.31 2.49-2.61 3.75-3.91-1.21 0.33-3.64 1-4.85 1.33-2.09 4.7-7.53 7.01-8.67 12.2-3.24 2.5-6.86 4.46-10.19 6.82-2.11 2.42-3.89 5.13-6.11 7.46 0.05 2.71-2.81 3.52-4.49 5.08-2.69 2.07-4.05 5.31-6.49 7.62 0.87-2.52 2.51-4.64 3.88-6.88-3.93 0.55-4.99 5.1-6.49 8.13-1.87 0.42-4.6 2.33-1.93 3.93-1.2 1.53-2.38 3.08-3.46 4.71-0.34 0.52-1.01 1.54-1.35 2.06-1.59-0.14-3.16-0.41-4.75-0.51-1.44 1.24-2.4 2.9-3.48 4.44 0.35 0.53 1.04 1.6 1.38 2.14-1.05 1.06-2.1 2.11-3.2 3.13 0.06-0.99 0.17-2.96 0.22-3.95-1.31 1.95-1.11 4.95-3.5 6.04-2.65 1.73-4.91 3.97-7.47 5.83-0.5 1.42-1.11 2.86-1.18 4.39 0.98 1.02 2.31 1.59 3.39 2.49 0.96 1.52 0.02 3.43-0.56 4.92-2.19 4.14-6.12 6.95-8.52 10.95 0.8-2 1.59-4.01 2.3-6.04-4.49 1.24-5.69 6.32-6.96 10.19-0.95-0.7-2.6-1.77-1.57-3.13 1-2.45 2.68-4.53 4.38-6.53 1.62 0.48 2.56-1.05 3.71-1.8 0.59-0.09 1.76-0.26 2.35-0.35 0.56-2.88 3.4-5.86 1.58-8.74-1.76 1.68-3.43 3.46-4.87 5.42-1.15 0.98-2.38 1.85-3.66 2.64-0.59 2.48-1.49 4.94-3.77 6.35 0.06 5.39-4.54 9.21-5.91 14.2 0.5 3.33 0.37 6.73-0.51 9.99-0.43 1.36-0.89 2.72-1.5 4.01 0.06-1.12 0.2-3.35 0.27-4.47-2.81 2.93-5.57 5.97-7.68 9.45-2.53 5.6-0.14 12.12-3.15 17.61-0.53-0.36-1.59-1.07-2.12-1.43-1.83 5.31-2.97 10.88-5.29 16-0.4 0.12-1.2 0.35-1.61 0.46-4.84 10.81-6.95 22.62-11.95 33.37-2.5 0.14-3.92 2.09-5.16 4-0.55 0.15-1.65 0.45-2.2 0.61-0.08 1.99-0.11 3.98-0.1 5.98 0.91-0.05 2.72-0.14 3.63-0.18-2.06 3.49-5.37 6.24-6.2 10.4 1.07 1.41 2.13 2.84 3.18 4.27-2.46 4.4-4.44 9.09-5.49 14.04h-2.09c-0.43 2.81-0.92 5.62-1.36 8.44l1.47-0.13c-0.53 2.33-1.06 4.66-1.43 7.03-0.69-0.06-2.08-0.17-2.77-0.23 0.05 0.31 0.15 0.94 0.2 1.25-0.6-0.03-1.8-0.08-2.4-0.11 0.14 2.24 0.12 4.56 1.17 6.62-1.51 7.51-3.97 14.8-4.78 22.46 0.19 0.06 0.56 0.18 0.75 0.24 1.24-3.31 1.61-6.92 3.35-10.03-0.36 4.84-0.58 9.96-3.07 14.26 3.2 2.74 0.74 7.25-1.35 9.91 3.09 2.82 0.72 7.49-0.01 10.94-1.65 3.19-0.54 6.72-0.53 10.12 0.15 7.31-0.05 14.64-0.56 21.95-0.72 8.6-1.58 17.42 0.46 25.92 0.98 4.22-0.82 8.42-1.32 12.59 0.55-0.02 1.67-0.07 2.22-0.09-0.76 6.65 0.61 13.16 2.04 19.61-1.18 2.78-1.46 5.72-0.99 8.71 0.54-0.12 1.63-0.37 2.18-0.5-0.75 7.34 1.05 14.62 1.5 21.93 0 4.13 2.96 7.55 2.53 11.75-0.76-0.22-2.27-0.66-3.02-0.87 1.36 3.07 2.2 6.32 3.1 9.55 0.68-1.98 1.23-3.98 1.82-5.98 0.59 2.62 1.63 5.08 3.2 7.27-1.22-0.57-2.42-1.17-3.63-1.75 3.81 8.8 4.24 18.67 8.27 27.4-0.61 0.31-1.84 0.93-2.45 1.23 0.74 2.69 1.75 5.32 2.2 8.08 0.13-0.79 0.38-2.38 0.51-3.18 2.38 0.59 2.61 3.19 3.39 5.09 0.93 3.09 2.56 5.88 3.86 8.82 0.93 4.03 2.36 7.96 2.87 12.1 0.41-0.02 1.25-0.05 1.67-0.06-0.09 0.39-0.25 1.19-0.33 1.58 2.06 1.1 2.03 3.74 2.95 5.62 1.15 3.65 2.74 7.13 5.03 10.2 3.17 10.06 7.29 19.87 12.7 28.95 1.84 3.36 5.29 5.55 6.71 9.18-0.07 1.05-0.8 2.28-0.08 3.27 12.4 20.52 26.48 39.96 40.67 59.28 2.14-0.35 4.28-0.06 5.58 2.06l-2.85-0.12c1.6 3.98 5.64 5.98 8.01 9.4 2.05 2.9 4.08 5.95 7.22 7.8 0.94 3.25 4.31 4.9 5.34 8.08 1.14 3.35 4.82 4.48 7.6 6.12 0.44 5.13 5.12 8.35 9.36 10.45 2.41 1.41 5.6 2.48 6.62 5.35 0.45 2.44 2.61 3.88 4.3 5.48 4.37 3.6 8.71 7.29 13.55 10.26 4.49-0.41 6.49 4.57 8.44 7.8 2.58 1.41 5.38 2.8 6.47 5.76 3.19 2.85 7.65 3.73 10.9 6.54-0.57-1.14-1.11-2.31-1.64-3.45 0.5 0.07 1.51 0.22 2.01 0.29 1.39 1.81 2.93 3.51 4.59 5.09 0.6-0.01 1.79-0.04 2.39-0.06 1.07 4.45 4.1 8.08 7.82 10.64-1.01-2.03-2.13-4-2.84-6.14 5.9 3.93 11.62 8.17 16.78 13.05 1.38 1.18 2.74 2.8 4.81 2.49-0.42-0.67-1.26-2.01-1.68-2.68 5.71 2.42 10.61 6.74 16.84 7.88 3.53 0.75 5.75 4.02 9.08 5.21 4.91 0.98 10.17 2.19 14 5.59 4.36 1.58 8.83 2.82 13.2 4.35 0.29 0.42 0.88 1.25 1.17 1.67 2.39 0.62 4.84 0.59 7.19-0.19 3.81 2.45 6.74 5.9 9.9 9.08 2.16 1.98 4.68-0.05 6.59-1.27 3.67 0.86 7.16 2.42 10.92 2.99 2.6 0.51 6.22 0.8 6.92 3.97 1.31-0.49 2.64-0.96 3.98-1.38 2.14 1.67 4.84 2.23 7.37 3.03 10.2 3.08 20.85 4 31.29 5.94 4.12 0.71 8.18 1.87 12.39 2.06l-0.45-1.92c-3.65-1.8-7.78-2.03-11.6-3.26 5.17-1.03 10.44 0.36 15.09 2.62 3.63-0.89 7.6-3.24 11.24-1.24 5.79 2.08 12.1 2.11 18.17 2.87-0.05 0.5-0.15 1.49-0.2 1.99 5.38-2.02 11.17-1.08 16.76-1.45 3.05-0.11 6.12-1.09 9.16-0.32-1.53 1.28-3.29 2.22-5.04 3.17 2.19 0.05 4.68-1.59 6.46 0.24 2.78 2.71 6.82 1.87 10.32 2.19-1.41-0.35-2.59-0.95-2.47-2.6 0.04 0.43 0.13 1.3 0.18 1.74-1.23-0.11-3.67-0.32-4.89-0.43 1.17-1.55 2.57-2.99 4.36-3.79 2.66-0.38 5.36 0.2 8.03 0.39 4.95 0.59 9.92-0.36 14.78-1.24-0.27 0.98-0.53 1.98-0.78 2.98 2.23-0.96 4.46-2.51 7.01-1.83 1.77 0.47 3.05-1.62 4.79-1.32 5.3 1.33 10.65-0.89 16.01 0.11 7.29-1.15 14.45-3.76 21.95-3.21-0.14 0.42-0.43 1.28-0.57 1.7-3.41 0.65-7.5-0.1-10.36 2.14 2.99 0.38 5.99 0.68 8.98 1.07-0.17 0.5-0.5 1.51-0.66 2.01-1.42 0.09-2.82 0.18-4.22 0.28l-2-1.32c-1.2 0.09-2.4 0.19-3.58 0.3 0.25 1.1 0.33 2.23 0.25 3.37-0.71 0.18-2.12 0.55-2.83 0.73 1.09 0.18 2.25 0.71 3.31 0.07 2.9-1.08 5.86-1.96 8.86-2.72 0.81 0.37 2.43 1.1 3.24 1.47 1.47-1.6 2.76-3.35 4.29-4.9 4.22-0.86 8.41 0.7 12.64 0.83-4.85 0.94-9.88 0.99-14.53 2.77-0.15 0.63-0.44 1.89-0.59 2.52-3.26 0.52-6.56 0.68-9.81 1.2 0.1 0.71 0.3 2.12 0.4 2.82 4.91-1.15 9.95-2.24 14.22-5.07 3.98-1.18 8.41-2.34 12.5-0.96 0.56-0.11 1.69-0.32 2.25-0.42-0.09-1.29-0.18-2.56-0.26-3.82 2.06-0.9 4.18-1.67 6.32-2.4-0.3 0.44-0.89 1.31-1.19 1.75 1.91-0.05 3.83-0.06 5.76-0.02 1.29 0.51 2.77 1.73 3.97 0.32 0.18-0.68 0.55-2.04 0.74-2.72-1.33 0.4-2.65 0.79-3.98 1.15 3.27-3.43 8.22-3.96 12.64-4.79 0-0.73-0.01-2.2-0.02-2.94 5.69-0.88 12.26-0.06 16.56-4.79-0.52-0.51-1.55-1.52-2.06-2.03 9.06-4.11 18.96-6.18 27.68-11.08 1.22-1.05 2.54-1.97 3.91-2.81-0.1 0.42-0.31 1.27-0.41 1.69-1.95 0.78-3.72 1.92-5.22 3.38-5.82 1.64-10.6 5.76-16.6 6.87-4.71 0.64-6.97 5.26-9.46 8.73-3.06 1.28-6.79 0.99-9.34 3.35 4.02-0.36 8.84 0.49 12.11-2.42 3.33-2.79 7.65-3.78 11.43-5.74 0.63-2.28 3.01-2.93 4.85-3.93 7.86-3.72 14.18-9.82 21.22-14.8-0.69-0.44-1.36-0.87-2.02-1.29 2.31-0.31 4.6-0.75 6.88-1.27 2.08 2.45 4.84-0.93 6.85-1.89 2.33-0.56 4.57-1.41 6.8-2.29-1.5 2.64-4.31 3.97-6.92 5.26-0.15 0.42-0.46 1.26-0.62 1.69 3.47-3.23 9.35-3.05 11.72-7.71-0.38-0.46-1.15-1.37-1.53-1.83 3.23-1.47 5.85-4.39 9.53-4.76 2.93-2 5.67-4.63 9.32-5.19-2.93 3.47-7.93 4.76-10.14 8.84 4-1.77 7.14-4.97 11.14-6.75-2.32 4.57-7.48 6.36-11.11 9.66 5.44-2.12 10.09-5.71 15.14-8.57 0.22-2.69 3.33-3.39 5.03-4.99 1.68-1.26 3.45-2.97 5.74-2.72 1.66 0.19 3.25-0.07 4.63-1.09 0.98 1.13 1.84 2.37 2.92 3.45-2.42 1.67-5.76 2.95-6.58 6.07 5.62-2.79 10.7-6.53 15.23-10.85-0.9-1-1.44-2.21-1.73-3.49 0.64-0.75 1.93-2.24 2.57-2.98-1.1 0.34-3.29 1.03-4.39 1.37 1.93-2.79 4.79-4.68 7.26-6.93-1.29-0.64-2.57-1.26-3.86-1.85 3.3-0.99 5.41-4.68 9.01-4.62 0.02-0.32 0.06-0.97 0.08-1.3 1.33 2.26-2.59 2.96-2.2 5.29 2.46-0.96 4.91-1.99 7.31-3.13 0.8-2.31 2.68-4.06 3.46-6.36l-0.32-0.68c2.71-0.32 3.86-3.08 5.37-4.98 0.98 0.01 1.98 0.05 2.98 0.1-1.85 3.23-4.87 5.41-7.75 7.62 4.87-1.1 7.51-5.95 11.81-8.15 2.74-1.22 4.33-3.8 5.97-6.17-0.2-0.87-0.39-1.73-0.57-2.58 1.19 0.06 2.39 0.2 3.58 0.42-0.97 1.58-1.97 3.15-2.78 4.82 2.26-1.96 3.37-4.87 5.5-6.95 4.44-4.62 9.43-8.65 14.31-12.79-0.45 4.18-3.6 7.27-6.71 9.75 0.34 0.51 0.47 1.06 0.4 1.68-1.64 1.4-3.25 2.83-4.67 4.46 2.48-1.36 4.83-3.28 7.81-3.31 4.13-3.62 7.66-7.84 11.65-11.59-0.62 1.74-3.19 3.93-0.28 4.94-2.24-1.3-2.69 1.06-3.43 2.63 0.57 0.03 1.7 0.07 2.26 0.09-0.62 1.16-1.21 2.34-1.76 3.54 2.13-2.18 3.68-4.81 5.3-7.35-1.14-4.88 3.2-8.04 5.77-11.46-5.02 0.58-8.7 4.59-12.06 8-1.82 3.67-5.02 6.6-8.2 9-0.29-0.34-0.87-1.02-1.16-1.36 4.17-3.4 8.41-7.1 10.91-11.96l-1.44-1.6c2.06-1.67 4.38-3.09 6.02-5.22 3.1-4.15 8.44-6.29 10.47-11.28 1.67-1.17 3.18-2.55 4.56-4.05-0.6 2.03-1.03 4.13-1.07 6.27 0.91-0.63 2.71-1.89 3.62-2.52-0.03 0.61-0.09 1.81-0.12 2.42 1.9-3.01 5.6-4.51 7.08-7.75-2.17 1.33-4.15 2.93-6.36 4.18 1.43-2.86 3.66-5.3 4.45-8.45 0.8-3.18 2.39-6.12 4.89-8.26-0.53 1.77-1.14 3.51-1.68 5.29 1.96-2.42 4.1-4.9 4.62-8.08 1.39-1.54 3.03-2.73 5.23-2.32 2.2-2.73 3.01-6.95 6.74-8.06 1.65-2.51 3.36-5.01 5.72-6.91 1.47-2.4 1.82-5.37 3.38-7.76 0.52-0.09 1.55-0.27 2.07-0.36 1.65-3.64 3.39-7.28 5.89-10.42-1.61 1.05-3.24 2.05-4.88 3.05-0.42 0.98-0.84 1.97-1.26 2.96 0-0.77 0-1.54 0.03-2.29 1.58-2.05 3-4.22 4.23-6.49 0.6 0.24 1.81 0.74 2.42 0.98 1.17-2.07 2.35-4.13 3.58-6.17 4.57-0.86 1.39-5.86 3.35-8.66 0.51-1.54 1.66-2.3 3.31-1.79 2.02-3.73-0.01-8.54 2.85-11.91 0.45 0.04 1.36 0.11 1.81 0.14 1.55-3.05 2.76-6.28 4.64-9.15 0.22 0.82 0.67 2.45 0.89 3.26 1.68-3.06 2.72-6.42 2.76-9.93-0.15-2.56 1.3-5.86 4.4-5.42-1.54-4.1 2.11-7.71 2.84-11.66 3.84-4.92 5.82-11.22 5.77-17.39 2.89-5.33 4.23-11.23 5.83-17.02 0.17-1.68 1.61-2.25 3.14-2.22 0.81-2.27 1.37-4.67 0.99-7.09-0.82-6.01 0.6-12.69 4.66-17.3 0.9-7.5 1.07-15.05 1.43-22.57 0.56-0.23 1.68-0.68 2.24-0.91-0.16 3-0.47 5.99-0.57 9 1.64-1.89 3.36-4.99 1.11-7.09 1.91-3.17 0.77-7.01 1.3-10.5 0.48-0.34 1.43-1.04 1.9-1.39 1.02-5.49-0.38-11.92 3.64-16.39-1.36 0.07-2.46 0.72-2.8 2.07-1.65 3.6-2.52 7.49-3.9 11.2-0.1-3.44-0.9-7.89 2.34-10.19-0.18-1.68-0.47-3.35-0.53-5.02 0.75-1.23 1.74-2.28 2.67-3.37 0.61-0.07 1.83-0.22 2.44-0.29 0.79-1.57 2.95-2.98 2.02-4.92-1.37-3.69-1.99-7.56-2.11-11.47-1.15 3.65-1.06 7.55-2.08 11.24l-1.76 0.99c-0.25-12.07 2.22-23.96 3.1-35.95 0.22-1.21 0.48-2.41 0.77-3.6 0.39 3.49 0.74 7 1.46 10.45 0.91-4.93-0.1-9.9-0.22-14.84-0.85 0.21-2.54 0.64-3.38 0.86 0.6-7.12-0.05-14.24 0.22-21.35 0.46 1.43 0.88 2.89 1.3 4.35 0.22-1.82 1.15-2.94 2.79-3.34 0.22 1.86-0.31 3.98 0.69 5.71 0.42 0.89 0.88 1.77 1.36 2.64 0.67-1.84 0.65-3.8 0.31-5.71-0.63-3.59-0.18-7.48-2.08-10.73-0.08 2.63 0.14 5.27 0.51 7.88-3.73 1.04-1.99-5-5.61-5.29 1.43-3.28-1.88-6.14-1.12-9.57 0.41-0.08 1.24-0.26 1.66-0.35 0.85 2.05 1.83 4.08 3.3 5.79 0.23-4.61-2.58-8.47-3.62-12.79h1.66c-0.04-1.58-0.05-3.15-0.04-4.71 2.94 2.08 1.52 6.56 3.01 9.63 1.07-5.52-1.18-11.15-0.04-16.53-1.4 0.25-2.81 0.48-4.19 0.71-0.91 0.95-1.79 1.91-2.67 2.88-0.59 0.02-1.76 0.08-2.34 0.11 0.71-6.03 0.86-12.28-1.82-17.9 0.55-0.02 1.64-0.07 2.18-0.09-2.43-5.8-2.24-12.23-4.23-18.15 0.5 0.09 1.5 0.25 2 0.33 1.19 2.98 2.73 5.8 4.14 8.68 1.53 2.93 1.23 6.32 1.59 9.52 0.56-2.01 2.05-3.98 1.32-6.14-2.34-8.32-2.34-17.1-4.89-25.36h-0.03c-0.81 0.04-2.44 0.11-3.26 0.15 0.2-1.75 0.6-3.46 1.43-5.02-0.2-1.08-0.38-2.14-0.56-3.21-0.57-2.1-0.3-4.35-1.11-6.37-4.14-9.48-5.21-19.96-9.8-29.27 2.34 1.54 3.56 4.16 5.34 6.25 0.08-0.58 0.24-1.73 0.32-2.31 1.61 0.64 1.62 2.47 2.07 3.9 0.72-0.23 1.46-0.45 2.22-0.67 1.84 1.87 2.65 4.36 3.34 6.84l2.36-0.16c-0.81-3.1-2.06-6.05-3.49-8.91-3.03-0.77-3.83-3.92-5.01-6.38 0.52-0.66 1.06-1.32 1.62-1.96 0.83 1.58 1.72 3.18 2.59 4.76-0.59-3.39-0.99-6.83-1.93-10.15-0.09 0.85-0.29 2.54-0.39 3.39-1.57-2.4-3.3-4.79-5.87-6.18l1.66 2.26c-1.19-0.04-2.36-0.05-3.52-0.04-0.18 1.45-0.36 2.91-0.52 4.37 0.35-0.09 1.05-0.25 1.4-0.34 0.34 2.78 2.2 5.19 2.67 7.83-2.08-1.44-2.84-4-3.76-6.21-0.2 0.57-0.59 1.71-0.79 2.28-1.97-0.68-1.02-2.8-1.03-4.31-2.79-4.65-5.38-9.55-6.3-14.96 1.77 0.66 2.48 2.49 3.53 3.9-2.33-4.99-2.63-10.62-5.03-15.57-0.41 0.44-1.22 1.32-1.62 1.76-0.51-3.81-2.74-6.97-4.89-10.02 0.24-0.93 0.45-1.87 0.61-2.81-2.15-4.88-6.48-8.45-8.57-13.29l1.02-0.53 1.11-0.29c0.84 1.6 1.62 3.23 2.51 4.81 1.36 0.73 2.78 1.36 4.21 1.99 3.04 5.36 5.8 10.87 8.55 16.39-0.43 0.44-1.29 1.31-1.72 1.75 3.64 6.71 8.61 12.54 12.67 18.99-0.32 0.03-0.97 0.11-1.29 0.15 0.95 0.46 1.9 0.94 2.86 1.42-0.85-1.45-1.7-2.91-2.45-4.41-1.69-3-0.48-6.76-2.39-9.7-1.55-3.87-4.63-6.72-6.92-10.1-3.31-5.8-7.76-11.2-8.38-18.11-0.71-0.01-2.14-0.03-2.86-0.03l-0.73-1.29c-0.28-0.54-0.85-1.61-1.14-2.15l1.04-2c-0.01-0.06-0.04-0.18-0.05-0.24l-0.61-2.03c0.52 0.01 1.58 0.04 2.11 0.06-0.89-2.29-5.9-4.74-3.16-7.03-1.58-1.04-3.79-1.63-4.39-3.64-0.79-1.75 0.62-3.83-0.76-5.4-1.38-2.85-4.6-5.14-3.98-8.63-1.75-2.02-3.49-4.02-5.17-6.08-0.04 0.61-0.13 1.83-0.17 2.44-0.86-0.82-2.59-2.48-3.45-3.31 1.9 5.63 6.11 10.08 8.15 15.65-1.23-0.37-2.46-0.74-3.67-1.11 2.85 3.3 6 6.35 8.45 9.99 0.89 0.27 1.79 0.54 2.71 0.82 0.2 1.82 0.67 3.58 1.14 5.35-0.63-0.06-1.9-0.17-2.53-0.22 0.43 0.37 1.28 1.13 1.71 1.5-0.68 0.59-1.36 1.17-2.04 1.75-1.32-2.78-2.3-5.7-3.07-8.67-0.27 0.5-0.82 1.49-1.1 1.99-3.57-4.71-6.82-9.66-10.07-14.59-2.91-4.53-5.65-9.45-5.91-14.96-3.4-2.82-4.94-7.72-9.21-9.4-1.51-1.91-3.01-3.83-4.18-5.97 2.32 1.23 4.1 3.2 6.02 4.97 0.17-0.56 0.51-1.67 0.68-2.23 0.75 1.92 1.35 3.9 2.16 5.8 1.46 1.76 3.16 3.27 4.72 4.96-0.12-1.21-0.37-3.64-0.49-4.85 2.15 0.93 2.69 3.29 3.46 5.28 0.03-0.84 0.09-2.53 0.12-3.38 3.21 1.83 5.5 4.81 8.36 7.1-1.85-5.04-4.15-11.21-9.85-12.92 1.04-0.5 2.09-0.97 3.19-1.38-0.41-0.88-0.8-1.76-1.17-2.64-1.65-0.89-3.31-1.77-4.98-2.56 0.39 1.87 1.49 3.18 3.28 3.91-2.93 2.97-6.75-2.37-6-5.41 1.82 0.07 3.65 0.28 5.49 0.43 3.15 3.57 6.52 6.95 10.02 10.19-0.94-2.17-2.13-4.19-3.36-6.18 1.06 0.64 2.13 1.28 3.23 1.9 1.98 4.61 5.63 8.23 7.62 12.82 0.25-1.33 0.64-2.63 1-3.94-3.54-5.67-7.58-11.1-12.52-15.64 2.54 0 3.97 2.33 5.79 3.74 5.09 3.72 6.36 10.45 10.8 14.75-0.04 0.37-0.11 1.11-0.15 1.48l0.88 0.2c1.62 5.04 5.41 8.98 7.76 13.66-1.43 0.66-2.82 1.33-4.23 2.01-0.78-3.09-2.23-5.93-3.82-8.66-0.49-0.01-1.46-0.05-1.95-0.07 2.37 3.81 3.77 8.4 7.19 11.44 1.02 1.16 2.49-0.18 3.66-0.32 1.67 2.05 3.13 4.28 4.62 6.48-3.16-10.96-9.58-20.54-13.76-31.09-0.19 0.83-0.58 2.5-0.77 3.33-3.68-4.95-5.37-11.01-8.48-16.29-0.02-0.43-0.04-1.31-0.05-1.75-0.17 0.42-0.52 1.25-0.69 1.66-3.49-3.22-5.73-7.49-8.5-11.3-2.77-4.39-6.13-8.4-8.61-12.97 4.04 1.33 5.39 5.78 8.25 8.52-1.67-4.16-5.33-7.04-7.29-11.04-0.69 0.09-2.08 0.27-2.77 0.36-0.42-0.99-1.5-1.82-1.43-2.94 0.57-0.54 1.17-1.06 1.79-1.55 0.81 1.02 1.66 2.04 2.51 3.05-0.23-2.23-1.49-4.02-3.03-5.54-1.33-0.35-2.62-0.7-3.91-1.07-1.07-1.28-2.15-2.53-3.26-3.76l0.65-0.63c0.74 0.47 2.23 1.4 2.98 1.87-2.26-2.88-5.27-4.97-8.39-6.8-1.25-0.59-1.56-1.97-2.06-3.11 1.36 0.5 2.73 1.03 4.09 1.58-2.12-5.08-6.08-9.21-11.02-11.6-0.78-1.7-1.6-3.37-2.56-4.96 0.09 1.71 0.21 3.42 0.35 5.13-1.38-1.19-2.7-2.4-3.99-3.66 0.24-2.99-2.25-4.96-3.97-7.01 1.36-1.75 2.96-3.49 5.34-3.69 3.71 0.69 4.1 5.28 6.84 7.36-0.74-2.03-1.89-3.99-1.86-6.21 3.19 2.53 5.65 5.8 8.56 8.63 1.5 1.46 2.06 3.55 2.19 5.59-2.45-1.99-4.13-4.83-7-6.29 0.6 1.8 2.12 2.97 3.54 4.13 0.32 3.58 3.83 5.58 6.13 7.93 0.02 0.13 0.08 0.39 0.1 0.52l-1.7 0.41c3.5 3.57 6.83 7.37 10.77 10.48 1.46 1.24 3.36 1.45 5.21 1.25-2.28-3.5-6.63-5.24-8.07-9.29-0.94-1.5-1.75-3.15-0.61-4.78l-0.54 1.9c1.81 0.27 2.89 1.76 3.99 3.05 3.83 4.57 6.74 9.82 10.38 14.54-1.86-0.63-3.73-1.25-5.61-1.72 0.14 2.84 1.17 5.69 3.06 7.84 0.3-0.57 0.89-1.7 1.19-2.27 3.68 3.02 5.92 7.33 9.44 10.52 0.56-0.61 1.11-1.23 1.68-1.85 3.55 3.74 7.89 7.76 8.15 13.25 0.81-0.11 1.64-0.21 2.49-0.31 0.53 1.84 1.07 3.67 1.66 5.51l-2.15-0.5c1.56 3.04 3.58 8.45 7.95 6.91 1.7 3.27 5.21 6.28 4.81 10.15-2.75 0.56-3.12-3.07-4.44-4.69-0.47-0.16-1.41-0.49-1.88-0.66 4.16 3.01 3.2 8.93 6.07 12.85-0.27-1.32-0.6-2.63-0.89-3.94 2.14 0.13 3-1.09 2.91-3.08 0.64 0.96 1.3 1.91 2 2.86 0.04 1.91-0.02 3.83 0.15 5.74 1.32 4.54 6.36 6.63 7.6 11.19 1.45 4.42 4.88 8.32 4.52 13.2 0.83 1.17 1.62 2.39 2.17 3.74 0.42 0.14 1.28 0.42 1.7 0.56-0.02-0.82-0.06-2.45-0.08-3.27 2.22 6.38 4.98 12.57 7.83 18.7-0.3 3.04-0.65 7.51 2.25 9.34-0.01-1.77-0.02-3.54-0.03-5.3 2.65 5.34 4.51 11.21 4.91 17.17 0.48-0.14 1.45-0.43 1.93-0.58 0.73 6.68 2.67 13.33 6.32 19.02 1.4 2.24 1.49 4.98 2.08 7.5 2.84 13.64 7.5 26.81 10.81 40.32-1.91-1.09-2.12-3.41-3.1-5.15 0.62 4.77 3.24 9.06 3.33 13.94 3.91 7.34 3.25 15.97 3.56 24 2.19 8.8 5.46 17.82 3.96 27.02 3.68 31.62 3.41 63.96-2.9 95.24 0.69 0.84 1.4 1.69 2.12 2.54-0.43 2.26-0.84 4.54-1.16 6.83l-1.92-0.36c-0.57 2.63-1.13 5.27-1.78 7.88-0.18-1.5-0.38-3-0.58-4.47-1.91 2.13-4.5 7.53-0.17 8.3-0.76 1.76-1.41 3.65-2.76 5.07-2.76-2.64-2.04-7.06-3.28-10.47-0.62-0.02-1.86-0.05-2.48-0.07 0.7-2.79 1.51-5.55 2.56-8.22-0.87 0.58-1.74 1.14-2.61 1.7-1.63 3.92 0.93 8.02-0.1 12.02-0.77 1.23-1.82 2.26-2.66 3.44-0.97 2.9-0.78 6.03-1.42 9-0.95 1.56-2.42 2.74-3.26 4.38-0.49 3-0.79 6.04-1.4 9.04 1.6-1.64 3.27-3.22 5.09-4.62-1.04 2.7-1.54 6.07-4.17 7.72 1.23 7.12-3.65 13.19-4.22 20.07 0.84 1.52 2.4 2.49 3.55 3.78-3.74 2.95-6.78 6.78-11.08 8.97-1.04 4.72-2.06 9.48-2.09 14.33-0.92 3.95-3.52 7.27-5.64 10.65-0.49-0.67-0.97-1.33-1.44-1.98-0.42 1.14-0.18 2.05 0.74 2.72-3.48 14.31-10.15 27.52-15.28 41.24-1.29-0.1-2.56-0.2-3.83-0.31-1.06 3.12-2.27 6.22-2.88 9.48-0.52 3.85-4.13 6.12-5.55 9.59-2.18 3.63-2.85 9.14-7.63 10.26 0.21 0.71 0.44 1.44 0.68 2.18-2.85 3.27-4.77 7.25-7.79 10.37-0.67 0.09-2.01 0.27-2.68 0.35-1.05 2.7-1.5 6.16-4.74 7.07-0.35 1.2-0.68 2.41-0.99 3.63 2.02-1.6 3.81-3.66 6.38-4.38-2.74 3.25-5.27 6.64-7.78 10.07-0.56-0.42-1.7-1.26-2.27-1.69-0.63 1.24-1.9 2.32-1.69 3.83 0.79 0.37 1.61 0.73 2.45 1.1-2.37 2.2-4.81 4.49-5.96 7.59-0.75 2.63-3.25 3.96-5 5.84-3.51 3.8-6.4 8.14-10.01 11.85-2.15 2.24-4.93 3.82-6.83 6.29-1.5 1.75-0.97 4.63-2.94 6.02-6.85 5.38-12.89 11.92-17.39 19.39-0.95-0.73-1.87-1.45-2.8-2.16-0.56 1.59-1.1 3.21-1.61 4.83-3.7 0.29-4.86 4.56-7.65 6.44-4.36 3.26-8.26 7.02-11.92 11.03-1.63 0.34-3.25 0.72-4.85 1.12-0.45 0.98-0.88 1.98-1.31 2.98-3.95 2.93-9.04 5-11.17 9.74-3.21 2-7.14 3-10.08 5.63 0.3 1.36 0.62 2.74 0.96 4.13-2.25 1.59-4.18 3.78-6.77 4.8-0.79-0.63-1.56-1.24-2.31-1.85-1.28 0.77-2.11 2.02-2.99 3.18 1.97 0.16 4.21 0.51 4.79 2.78 1.09-1.12 2.21-2.21 3.36-3.27 2.42 0.46 2.96-1.65 3.35-3.49-0.55-2.06 3.7-1.92 3.04-0.11-1.16 3.7-4.78 5.77-7.65 8.05 0.5 0.03 1.49 0.09 1.99 0.11 2.7-1.96 5.37-3.99 8.3-5.61 1.59 0 3.17-0.12 4.78-0.23-1.86 1.39-3.84 2.62-6.04 3.37-4.34 1.49-8.13 4.19-11.67 7.04 0.53-1.1 1.06-2.2 1.6-3.29-3.17-0.42-5.99 1.1-8.55 2.76-0.74 0.06-1.48 0.13-2.2 0.22l2.12-1.12c1.36-1.75 2.81-3.44 4.36-5.03-4.61 0.75-9.12 4.7-13.77 2.24-0.41 0.69-0.81 1.39-1.2 2.1 0.81 0.76 1.61 1.55 2.39 2.37-3.68 0.04-6.64 2.21-9.56 4.13l0.59-2.63c-5.92 2.43-10.47 7.06-15.62 10.69 4.04-0.83 8.14-2.11 10.98-5.29-0.13 1.25-1.39 2.95 0.3 3.65-2.25-0.34-2.77 2.66-4.83 3.03-3.11 1.14-5.79 3.14-8.85 4.37 0.31-1.9 1.16-3.65 2.28-5.19-1.4 0.65-2.78 1.34-4.15 2.04 0.94 2.49-2.14 3.45-3.41 4.97-1.93 0.9-1.56 3.75-3.59 4.38-4.76 1.88-8.54 5.69-13.59 6.92 0.49 1.1 0.94 2.23 1.38 3.38-6.33-1.02-10.06 4.84-14.88 7.65 0.6-1.33 1.27-2.62 1.92-3.91 2.29-1.31 4.58-2.61 6.77-4.09 0.01-0.24 0.03-0.71 0.04-0.94-5.36 0.32-9.01 5.59-13.89 7.47-3.03 0.75-5.81 2.19-8.57 3.6 0.07 0.62 0.23 1.85 0.3 2.47 4.18-0.71 8.26-2.29 12.56-2.12 0.49 2.98-4.63 4.97-7.27 5.15 0.43-0.67 1.29-2.02 1.72-2.69-2.37 1.45-4.73 2.91-7 4.51-0.4-0.33-1.19-1-1.58-1.34-1.17 0.14-2.33 0.29-3.48 0.45v0.92c-0.95-0.07-2.84-0.2-3.78-0.27 0.97 0.92 2.18 1.32 3.63 1.2-1.93 0.73-3.89 1.35-5.82 2.07 3.21 0.82 6.09-2.34 9.22-0.6-2.25 1.28-6.35 0.72-7.02 3.7-0.08-0.47-0.25-1.4-0.34-1.87-1.75 1.41-3.43 3.17-5.83 3.33 1.11-1.41 2.29-2.75 3.44-4.12-4.99 0.94-9.71 2.92-14.08 5.47-0.18-2.29-2.47-1.88-4.01-2.14-2.76-0.63-5.11 1.18-7.52 2.17-5.05 2.46-10.62 3.47-15.84 5.46 3.29 1.72 7.04-0.12 10.17-1.44 3.51-2.55 8.08-3.5 12.32-2.49-8.01 3.21-16.09 6.25-24.18 9.24-4.16-1.37-8.45 0.29-12.5 1.31 0.05-0.61 0.16-1.82 0.21-2.43-3.03 0.77-5.49 2.55-7.57 4.82-3.4 0.44-6.86 0.83-10.29 0.57-4.59 2.75-9.57 4.85-14.84 5.85-4.36 1.46-9.35-3.83-13 0.49 0.35 1.13 0.71 2.29 1.08 3.44-3.1-0.69-5.76 1.28-8.61 2.09 0.12-0.69 0.35-2.08 0.46-2.78-4.25 0.14-8.49 0.61-12.74 0.75-3.31-1.79-7.19-0.94-10.77-1.12 0.93 1.01 1.87 2.03 2.82 3.06-1.44 0.15-2.87 0.3-4.29 0.47-0.12 0.59-0.35 1.76-0.47 2.35-2.88 1.43-6.21 2.15-9.4 1.54 0.08-2.3 3.44-1.39 4.83-2.26 0.39-0.08 1.17-0.23 1.55-0.31-2.08-0.51-4.23-0.75-6.35-1-0.96-1.31-2.55-1.55-4.01-1.77-2.96 0.04-5.41 1.95-8.14 2.83-5.05 2.09-10.63 1.68-15.96 1.65-3.29 0-6.74-1.07-9.06-3.47-3.28 1.3-6.95 2.58-10.31 0.71 1.42-0.24 2.85-0.43 4.3-0.58-0.02-0.31-0.04-0.94-0.06-1.25-3.3 0.04-6.6 0.13-9.89 0.31 0.7 1.19 1.48 2.34 2.14 3.58-1.23 0.02-3.71 0.06-4.95 0.07 0.65-0.62 1.32-1.21 2-1.79-1.26-0.4-2.18-0.02-2.78 1.15-0.87-2.28-2.66-4.58-5.4-4.02-6.37 0.63-12.64-0.84-18.97-1.1-3.27 1.06-6.59 1.84-9.96 0.6-1.25-0.63-2.23-1.65-3.06-2.73-3.18-0.14-6.39 0.02-9.58 0.24l0.5 0.47c0.11 0.54 0.31 1.62 0.41 2.16 4.61 0.99 8.93 3.19 13.71 3.41 2.4 0.6 6.16-0.4 6.74 2.87-3.5 0.22-6.69-1.43-10.02-2.2-5.14-1.55-10.47-2.22-15.72-3.22 0.93-0.36 1.88-0.65 2.86-0.88 0.03-0.86 0.06-1.72 0.08-2.56-4.19-0.49-8.8-0.27-12.26-3.09-2.91-0.71-7.3-3.11-8.8 0.93-4.51-0.42-8.74-2.42-11.57-5.99-3-0.37-6.26-0.37-8.39 2.13-3.13-0.73-4.69-3.65-6.96-5.59-2.23-1.4-4.85-1.98-7.33-2.76l0.34 2.1c-1.63-0.93-3.25-1.78-4.89-2.65 0.16 0.59 0.5 1.77 0.67 2.36-3.28-0.99-6.54-2.01-9.78-3.08 1.22-0.58 2.33-1.34 3.27-2.31-6.79 0.83-12.92-2.43-19.18-4.4 0.86 1.89 1.51 4.03 3.07 5.53 2.15 1.99 4.97 3.05 7.18 4.98-3.74-0.36-7-2.32-10.24-4.02-2.72-1.44-5.68-2.34-8.42-3.73 2.43-0.84 4.98-0.69 7.48-0.29-2.21-1.41-4.18-3.14-6.3-4.66-4.46-2.15-9.73-3.25-13.03-7.22-5.55-1.65-10.95-3.89-16.73-4.63-1.87-0.23-3.45-1.31-5.05-2.22-12.37-7.51-26.2-12.42-38.16-20.66-2.42-1.88-5.62-1.69-8.42-2.57-4.07-1.19-7.54-3.71-11.11-5.89l0.32-2.32c-4.53-2.08-8.34-6.06-13.57-6.24-2.58-3.58-4.71-8.01-9.03-9.75-6.84-3.39-11.82-9.82-19.15-12.24-8.22-6.16-14.23-14.78-22.5-20.9-2.51-2.11-5.85-3.27-7.68-6.1-4.43-5.96-9.74-11.24-13.63-17.59-0.74-1.42-2.09-2.32-3.5-2.97 0.87 2.13 2.64 3.73 3.5 5.88-4.74-3.14-6.29-9.07-10.13-13.09l1.99-0.12c-1.06-2.72-2.5-5.32-4.92-7.04-1.29 1.45-2.49 1.49-3.62 0.11-1.89-2.4-3.59-5.28-3.1-8.45-3.68-3.29-4.96-8.3-7.9-12.16 0.61 3.13 2.24 5.94 2.9 9.06-0.66 2.99-2.86 0.61-3.61-0.85-2.06-3.38-5.29-6.13-6.53-9.94l0.61-0.94c0.81 0.35 2.45 1.05 3.26 1.4-1.93-2.94-4.15-6.42-8.01-6.74-1.2-1.25-2.74-2.02-4.28-2.75-0.93-2.58-0.61-5.44 0.3-7.96-2.68 0.76-4.8-1.98-5.67-4.19-1.43-3.85-5.38-5.61-8.03-8.45-3.01-2.76-4.79-6.48-6.91-9.89 0.36-0.37 1.07-1.11 1.43-1.48-2.77-3.78-5.37-7.71-7.26-12.01 0.95-1.69-1.64-6.42-1.76-1.64-0.47-0.08-1.41-0.22-1.87-0.29-0.87-2.73-1.52-5.54-2.82-8.1 3.25-0.02 4.95 2.82 6.72 5.08 0.21-5.03-2.9-9.3-3.51-14.09-0.15 0.58-0.3 1.17-0.45 1.77 0.41 1.4 0.53 2.85 0.55 4.32-0.94 0.05-2.8 0.16-3.73 0.21-2.23-6.11-8.09-9.93-9.95-16.23 1.3 0.49 2.61 1 3.91 1.5 1.28 2.22 1.32 6.12 4.51 6.43-0.53-1.22-1.12-2.4-1.73-3.57 0.13-0.36 0.38-1.09 0.51-1.45-0.91-1.67-1.86-3.31-3.01-4.81l-0.86 1.95c-2.56-2.75-3.98-6.3-6.18-9.31-2.29-3.7-5.49-7.39-5.23-12.02 0.34-3.74-3.75-5.6-4.56-8.94-2.37-10.06-7.71-19.09-10.2-29.12 0.99 1.21 1.95 2.45 3.05 3.58-0.86-4.68-4.22-8.29-6.36-12.41 0.09-2.1 0.01-4.21 0.36-6.28 0.39-0.14 1.18-0.42 1.57-0.56-1.35-3.97-3.28-7.8-3.68-12.03-3.54-5.04-3.03-11.59-5.64-17.04 2.27-0.3 3.62 1.1 4.71 2.83-1.72-5.34-4.91-10.21-5.29-15.94l-1.39 0.59c-1.41-4.96-1.22-10.16-1.1-15.26-0.59 0.02-1.77 0.05-2.35 0.06-0.16-2.94-0.4-5.89-1.01-8.77-3.6 1.17-1.69-2.93-1.99-4.75 0.46-0.36 1.38-1.08 1.83-1.44-0.89-2.81-0.04-6.68-2.93-8.43-0.67-1.55-1.2-3.16-1.49-4.82 1.08 0.54 2.14 1.12 3.22 1.69 0.23-2.71-0.01-5.42-0.8-8.02 2.54-2.98 1.97-7.26 1.52-10.85-0.47-0.18-1.43-0.54-1.91-0.72-0.31-11.72 1.09-23.54-0.68-35.18 0.5 0.18 1.52 0.54 2.02 0.72-0.56-3.7-0.41-7.44-0.26-11.16-0.22-0.04-0.65-0.11-0.87-0.14-0.38-2.9-0.84-5.78-1.05-8.68 0.58 0.47 1.72 1.41 2.3 1.88-0.08-2.62-0.21-5.23-0.32-7.83 1.38-0.89 1.3-2.62 1.59-4.02 0.37-5.01 0.21-10.05 0.73-15.05 0.79-0.99 2.7-2.21 1.12-3.44 0.24-1.02 0.49-2.03 0.74-3.03-1.39-0.92-2.85-1.73-4.41-2.3 2.07-5.73 3.52-11.86 7.04-16.92-0.02-2.13 1.15-4.7-0.74-6.36 0.81-1.34 1.77-2.59 2.84-3.72-0.02-0.35-0.08-1.05-0.1-1.4-0.65-0.85-1.26-1.72-1.83-2.61 0.7-5.02 2.41-9.94 5.4-14.07 1.45-1.77 1.78-4.03 2.02-6.22-3.95 1.49-4.44 6.75-6.51 10.06-0.26 0-0.78-0.01-1.04-0.02 0.72-2.85 1.59-5.76 0.89-8.71l1.09-0.09c0.02 0.81 0.07 2.44 0.09 3.26 2.09-3.88 1.26-9.14 5.08-12.02-0.05-0.86-0.12-1.72-0.22-2.57-1.3-0.08-2.61-0.12-3.91-0.09 0.92-3.63 2.3-7.12 3.73-10.57 0.27 3.32 0.85 6.64 2.49 9.59 0.95 0.04 1.89 0.08 2.83 0.13 1.28-2.67 2.51-5.37 3.47-8.18-0.68 0.09-2.03 0.25-2.71 0.34 3.41-8.32 7.21-16.72 7.87-25.8-1.54 0.73-3.13 1.37-4.82 1.72 0.25-1.85 0.27-4.12 2.68-3.31l-1.39-0.5c2.07-5.72 1.62-12.33 5.06-17.49 0.6 3.4 0.24 6.86-0.98 10.08 0.19 0.02 0.55 0.06 0.74 0.08 1.08-2.42 2-4.91 2.66-7.47 0.35 0.03 1.05 0.09 1.39 0.12 2.34-4.96 5.04-9.81 6.78-15.01l-2.39 0.6c1.19-2.15 2.39-4.37 4.37-5.9 1.26-3.12 2.13-6.36 3.27-9.52 0.62-2.12 2.95-2.92 4.09-4.69 5.75-8.66 10.21-18.08 15.62-26.94 2.88-4.26 4.12-9.27 5.65-14.1 1.53-3.81 2.58-8.36 6.1-10.86-0.12 2.41-0.82 4.73-1.45 7.05 4.22-6.17 7.73-12.8 11.54-19.22-0.77-0.22-2.3-0.67-3.07-0.89-0.92 1.34-1.82 2.69-2.7 4.05 3.49 1.87-0.09 4.07-1.86 5.48-0.52-0.17-1.56-0.51-2.09-0.68-0.71 1.77-1.76 3.4-3.37 4.47 1.07-2.71 3.27-4.73 4.7-7.24 1.75-3.07 3.27-6.27 5.1-9.3 1.48-0.9 2.97-1.83 4.61-2.43 0.04 1.9 0.14 3.8 0.37 5.69 4.65-6.59 7.75-14.3 13.49-20.07 0.9 2.81-1.89 4.75-2.99 7.05 2.83-2.79 5.75-6.86 4.22-11.01-0.88-1.63-2.69-1.25-4.23-1.3 1.67-2.29 2.92-4.85 3.81-7.54 2.69 1.41 4.31 4.05 5.32 6.83l-1.92-0.36c0.6 0.32 1.2 0.64 1.81 0.97 4.27-4.56 5.9-10.8 9.93-15.53 1.77-0.32 3.77-0.35 5.13-1.72 2.07-2.49 2.74-5.75 3.88-8.71 1.43-0.43 2.85-0.88 4.26-1.38-0.55-1.03-1.11-2.06-1.68-3.08 1.27-1.19 2.53-2.39 3.79-3.58 0.86 0.46 1.72 0.92 2.58 1.37 2.89-4.36 6.86-7.85 10.05-11.99 2.01-0.15 4.2-0.46 5.45-2.26 12.73-14.46 28.58-25.58 43.51-37.59 2.65-2.05 4.31-5.28 7.46-6.68 3.32-1.62 6.7-3.14 9.91-4.99 0.06-0.62 0.18-1.86 0.23-2.48 1.37-0.89 2.72-1.79 4.09-2.68 0.01 0.7 0.03 2.11 0.04 2.82 3.06-3.64 5.7-8.44 10.9-9.18-1.85 2.54-4.9 3.84-6.75 6.39 3.15-1.41 5.26-4.39 8.48-5.72 2.01 3.41 3.79-2.63 0.44-2.65 2.64-1.74 5.64-2.81 8.41-4.31 1.36-2.72 4.62-3.43 6.82-5.28 0.48 0.31 1.43 0.95 1.9 1.26 1.45-1.37 2.67-3.73 5.06-3.07 7.82-5.42 16.34-9.8 25.09-13.5 4.6-1.9 9.84-2.51 13.82-5.74 1.34-1.04 2.23-2.9 4.05-3.15 7.94-1.23 14.66-5.92 22.11-8.61 3.26 1 6.2-0.99 9-2.37 0.46 0.18 1.39 0.54 1.85 0.72 8.61-4.68 18.47-6.15 28.04-7.6 2.3-0.49 4.86-0.83 6.63-2.55-0.98-0.02-2.95-0.05-3.94-0.07 2.47-1.29 5.08-2.27 7.71-3.18 0.34-0.49 1.03-1.46 1.37-1.95 0.92 0.1 1.85 0.21 2.78 0.31-0.09 1.34-0.17 2.68-0.25 4.02 1.45-0.1 2.91-0.21 4.36-0.32 0.03-0.61 0.07-1.82 0.09-2.43 1.61-0.55 3.21-1.1 4.82-1.67l0.11 1.33c5.38-1.74 10.63-4.09 16.27-4.81 8.81 1.73 17.27-3.32 26.12-2.19 3.95 0.38 7.17-2.49 10.92-2.95 16.8 0.74 33.53-1.54 50.33-1.1-1.19-0.43-2.36-0.89-3.52-1.36m-55.09 11.54c0.63 0.59 1.89 1.76 2.51 2.34-0.73 0.26-2.21 0.79-2.95 1.05 0.19 0.73 0.39 1.45 0.59 2.18-2.06 0.53-4.16 1.02-5.92 2.27-1.8-0.29-4.35 0.18-4.98-2.07 3.03-0.58 6.09-0.91 9.16-1.26-0.82-1.84-2.95-2.13-4.53-3-1.53 0.27-3.05 0.53-4.56 0.81-5.78 0.32-11.58-0.34-17.34 0.36-0.48 1.17-0.97 2.33-1.42 3.5-1.34 2.23-3 4.41-5.69 5.02 0.47-1.69 0.92-3.38 1.32-5.09-4.15 1.46-8.55 1.55-12.89 1.55-0.17 0.41-0.51 1.25-0.68 1.67-4.7 1.61-9.73 2.35-14.69 2.47 1.94-1.71 4.82-1.6 6.69-3.41-4.46 0.59-9.21 1.84-12.48 5.11 2.1 0.14 4.22 0.16 6.33 0.28-2.97 2.01-6.56 2.85-10.06 3.35-1.83 0.39-3.67-1.17-5.41-0.18-3.14 1.67-6.21 3.46-9.41 5.01 0.57 0.8 1.29 1.45 2.15 1.92 0.03 0.37 0.07 1.12 0.09 1.49 3.14-1.01 6.29-2.03 9.56-2.49 2.1-0.38 4.54-0.37 6.1-2.07-3.09 0.04-6.21 0.72-9.23-0.2 3.59-0.89 7.56-3.35 11.08-0.95 3.39-0.17 6.82-0.45 10.13-1.3 0.21-0.59 0.61-1.77 0.82-2.36 3.52-1.21 7.3-1.07 10.94-1.64 7-1.04 13.9-2.62 20.91-3.6-0.25-0.64-0.49-1.28-0.73-1.92 2.4-0.49 4.77-1.14 6.99-2.2 0.64 0.87 1.2 1.79 1.76 2.72 7.37-0.95 14.79-2.07 22.25-1.62-0.7-1.66-2.5-1.93-4.02-2.41 1.27-0.22 2.57-0.34 3.87-0.09 6.02 0.92 12.08-0.2 18.12-0.2 1.72-0.07 3.57 0.18 5.17-0.66 6.12-2.91 12.99-0.86 19.35-0.04 0-0.47-0.01-1.39-0.01-1.86 5.64 0.72 11.25 1.69 16.92 2.3-0.03-0.51-0.1-1.51-0.13-2.01-3.35-0.15-6.7-0.09-10.04 0.08l-0.1-1.45c3.26-0.74 7.68 0.81 10.19-1.81-4.82-0.09-9.65 0.08-14.44-0.56-5.79 1.34-11.82 0.91-17.72 0.71-5.91-1.88-12.1-0.78-18.07 0.01-5.14-1.12-10.35-0.29-15.5 0.25m71.31 2.88c4.93 0.89 10.09 3.56 14.97 1.06 3.11 1.68 6.64 0.75 9.98 1.05 2.65 0.76 5.4 0.91 8.15 0.79-1.83-2.5-4.64-4.91-7.97-4.08-8.25 2.15-16.8-0.18-25.13 1.18m-90.54 5.47c-1.34-0.19-4.89 1.93-1.68 1.96 1.51 0.65 4.75-2.12 1.68-1.96m26.43 0.73c1.31 0.7 2.58 1.42 3.95 2.02-0.42 1.17-1.51 1.86-2.77 1.48-3.26-0.45-6.52-0.95-9.82-1.05 0.43 0.44 1.27 1.3 1.69 1.74-4.55 1.84-9.3 3.23-14.15 3.99 1.09-0.64 2.19-1.28 3.29-1.91-1.79 0.04-3.55 0.12-5.33 0.2l-0.16 1.59c-2.58 1.5-5.58 2.13-8.53 2.25-1.56 0.19-3.58-0.36-4.4 1.39 9.13 0.89 17.84-2.18 26.36-5.01 5.31-1.89 11.22-1.68 16.37 0.65-0.63-0.57-1.88-1.72-2.51-2.29 1.73-1.55 3.52-3.03 5.27-4.55-2.56 0.04-5.11 0.17-7.66 0.23 0.18-0.39 0.52-1.17 0.69-1.56l-2.29 0.83m63.31 2.28c5.68-0.28 11.33 0.68 17.01 0.42-3.07-0.54-6.02-1.61-9.1-2.07-2.77-0.51-5.32 0.93-7.91 1.65m-170.1 8.75c-2.31 0.67-5.66 2.31-4.16 5.29 5.98-0.81 11.2-4.57 16.62-7.12-0.02-0.09-0.05-0.27-0.07-0.36-4.02 1.37-8.44 0.48-12.39 2.19m61.35-0.26 1.3 2.2c-2.46-1.19-4.73 0.21-6.95 1-2.32 0.63-4.7 0.89-7.09 1-2.76 1.45-5.72 2.45-8.58 3.68 5.25-1.04 11.2-0.33 15.67-3.84 1.28-0.69 2.59-1.33 3.91-1.98 0.67 0.38 1.35 0.77 2.03 1.17-0.71 0.52-2.12 1.56-2.82 2.08 3.42-0.24 6.9-1.78 8.67-4.87-1.72-0.11-3.22 0.38-4.52 1.47-0.56-0.62-1.1-1.26-1.62-1.91m-50.48 3.1c-2.61 1.87-5.53 3.22-8.31 4.8-0.06-0.17-0.18-0.52-0.24-0.7 1.75-1.08 4.16-1.58 4.89-3.8-6.51 1.09-10.9 6.78-17.31 7.95 1.32-1.32 2.7-2.58 4.06-3.87-2.64 0.69-5.19 2.13-7.99 1.84-2.43-0.36-4.8 0.27-7.11 0.92 0.45 0.42 1.36 1.26 1.82 1.68-2.34 0.86-4.8 1.75-6.1 4.04-6.8 2.62-13.6 5.4-19.64 9.54l-0.23-0.25c-1.54 1.98-6.09 3.86-3.34 6.68 2.48-0.44 4.49-1.93 6.28-3.6 2.33-1.84 4.82-3.99 8.02-3.59 3.83-2.28 7.45-4.92 10.73-7.94 2.82-2.44 5.78-6.22 9.94-5.45-3.82 2.33-8.04 4.16-11.13 7.5 0.02 0.55 0.08 1.64 0.1 2.19 7.01-4.19 14.86-6.69 22.81-8.35 2.33-2.97 6.02-3.32 9.46-3.98 2.55-0.3 2.5-3.81 4.91-4.5l-1.62-1.11m319.93 4.2c3.23 1.37 6.61 2.32 10.09 2.84-1.02-2.97-4.81-2.45-6.94-4.28-0.79 0.36-2.36 1.08-3.15 1.44m-314.04 5.99c-0.39 0.46-1.16 1.39-1.54 1.85 4.89-0.28 9.91-2.2 13.69-5.35-4.32-0.18-8.17 2.19-12.15 3.5m-32.61 12.18c-0.49 2.32-2.97 1.37-4.3 0.53-2.41 1.96-5.54 2.44-8.17 3.95 6.43 0.51 14.69-1.28 18.11-7.28-2.12 0.24-5.14 0.07-5.64 2.8m-52.54 8.63c-2.24 4.26-6.9 6.31-11.13 8.04-0.04 0.6-0.13 1.78-0.18 2.38-0.88 1.51-3 3.19-1.68 5.09 1.59 0.8 2.82-0.79 4.13-1.37 3.87-2.41 7.73-5.14 10.07-9.15-0.74-0.42-2.24-1.26-2.99-1.68 3.41-1.9 6.94-3.6 10.17-5.8-2.05 0.55-4.09 1.23-6.1 1.83 0.75-0.8 2.26-2.41 3.01-3.21-2.05 0.85-4.39 1.62-5.3 3.87m-27.2 14.76c-1.13 0.87-1.42 2.21-1.2 3.56 3.2-2.34 6.08-5.12 8.63-8.16 0.86-0.73 0.29-1.85 0.28-2.78-2.6 2.43-5.22 4.85-7.71 7.38m6.21 0.47c-0.06 1.32-0.13 2.65-0.22 3.97 1.94-1.7 4.09-3.14 6.28-4.5-1.85-1.88-4.11-0.32-6.06 0.53m-4.46 5.08c-2.52 0.11-5.32 0.08-7.16 2.08-2.19 2.36-5.39 2.69-8.35 3.37-2.12 3.45-5.56 6.65-5.21 11.04 2.95-0.53 7.18-0.23 8.58-3.52 1.21-1.89 3.81-1.9 5.7-2.74l-0.15-0.89c-2.59 0.67-2.27-1.45-2.03-2.86 2.46-0.04 4.96 0.28 7.34-0.56-0.21-0.86-0.42-1.73-0.62-2.59 1.05-0.88 2.09-1.77 3.15-2.65 1.52 0.1 2.08-0.51 1.67-1.81-1.43-0.63-2.4-0.25-2.92 1.13m-38.16 24.12c-2.17-0.46-3.71 1.15-5.23 2.4-0.57-0.05-1.72-0.16-2.29-0.21-2.85 3.57-7.6 4.53-10.77 7.62 1.83-0.53 3.57-1.32 5.35-2-1.87 3.53-6.41 2.59-8.84 5.32-5.33 5.09-9.36 11.43-15.12 16.07 0.11 0.44 0.33 1.31 0.44 1.75-2.31 3.5-4.86 6.83-7.07 10.4-0.76 1.66-3.03 1.64-3.65 3.38 3.88-0.3 6.43-3.28 8.93-5.9-0.13-0.67-0.25-1.33-0.38-1.99 1.28-1.28 2.48-2.61 3.69-3.94 0.16 0.96 0.48 2.88 0.65 3.85 4.39-2.72 7.99-6.51 11.42-10.32-0.15-0.27-0.46-0.82-0.62-1.1 0.15-0.49 0.44-1.47 0.59-1.97 1.27-1.14 2.31-2.51 3.24-3.93 1.03 0.34 2.03 0.75 3.08 1.03 1.45-1.3 2.72-2.78 4.02-4.23 1.93-0.21 3.89-0.24 5.79 0.29 0.96-2.04 2.39-3.79 3.91-5.45-1.48 0.87-2.96 1.73-4.43 2.59-0.11-0.56-0.32-1.69-0.43-2.26l-1.62-0.33c0.11 2.13-1.27 3.29-2.73 1.53-1.08 2.4-3.05 4.19-4.51 6.33-1.06 0.07-2.11 0.14-3.17 0.21 2.05-4.46 5.06-9.36 10.04-10.83l-0.87 2.8c0.5-0.12 1.49-0.35 1.99-0.47 0.92-1.31 2.1-2.53 2.33-4.2 3.86-3 7.39-6.44 11.46-9.18-0.53 0.98-1.58 2.94-2.11 3.92 1.62-0.55 2.6-1.74 2.8-3.44 1.91-1.61 3.76-3.35 4.93-5.58-3.62 2.58-7.9 4.38-10.82 7.84m-62.15 57.32c-0.71 0.31-2.14 0.93-2.86 1.24 0.47 0.03 1.4 0.08 1.87 0.11-4.21 5.76-11.53 8.45-14.92 14.86 5.29-5.37 12.73-9.07 15.91-16.21m731.18 42.21c0.42 1.54 0.89 3.06 1.4 4.58 5.03 2.91 5.43 9.65 9.24 13.76-1.08-2.71-1.85-5.52-2.62-8.33-1.92-3.85-5.21-6.81-8.02-10.01m3.46 2.41c1.57 1.7 2.69 4.08 5.05 4.84-1.23-2.11-2.54-4.17-3.68-6.33-0.47 0.49-0.93 0.98-1.37 1.49m-776.48 38.74c-4.71 3.42-6.49 9.24-8.92 14.29-1.19 3.06-3.42 5.68-3.99 8.97 1.38-1.2 2.3-2.81 3.1-4.43 0.44-0.14 1.32-0.43 1.77-0.57 3.4-6.04 6.48-12.26 9.79-18.35 0.5-0.12 1.51-0.35 2.01-0.47 2.66-2.86 4.81-6.41 5.94-10.11-0.33-0.13-0.99-0.4-1.32-0.53-4.36 2.4-6.09 7.11-8.38 11.2m-15.92 4.21c-2.06 6.17-3.93 12.42-5.57 18.72-0.3-0.75-0.9-2.26-1.2-3.02-1.65 2.74-3.7 5.49-4.1 8.75 0.29 0.34 0.88 1.02 1.17 1.36-0.19 1.06-2.22 2.7-0.49 3.48 2.24-0.09 1.7-2.2 1.74-3.74 2.33-4.45 6.96-8.15 6.78-13.54 0.07-5.44 5.22-9.68 3.86-15.35-0.97 0.94-1.84 2.01-2.19 3.34m833.24 26.57c2.58 1.17 1.93 4.43 3.02 6.65 0.15-2.09 0.09-4.19 0.06-6.27-1.04-0.12-2.07-0.25-3.08-0.38m-857.91 30.34c1.05-2.02 1.9-4.13 2.65-6.27 0.48-0.16 1.43-0.47 1.91-0.62 1.01-3.33 1.77-6.73 2.27-10.17-3.1 5.27-6 10.92-6.83 17.06m847.83-14.63c1.1 1.61 2.26 3.22 3.83 4.44 1.54 3.67 3.49 7.16 5.78 10.42 3.16 3.8 2.95 9.45 6.77 12.85-1.72-6.69-5.36-12.64-8.03-18.96-1.66-2.13-3.06-4.9-5.75-5.82-0.16-0.62-0.48-1.86-0.63-2.48-0.68-0.15-1.33-0.3-1.97-0.45m-849.77 19.65c-0.42 1.41-0.83 2.82-1.23 4.24-0.63 0.15-1.88 0.46-2.5 0.61-0.24 4.23-1.84 8.1-3.32 12.01 0.65 0.92 1.28 1.87 1.88 2.82 1.12-3.53 2.78-6.91 2.42-10.72 1.15-2.94 3.32-5.53 2.75-8.96m2.27 17.47c-2.23 7.41-5.34 14.59-6.54 22.27 0.52-0.41 1.56-1.23 2.09-1.64-0.62-7.31 4.35-13.49 5.23-20.6-0.2 0-0.58-0.02-0.78-0.03m-19.21 18.03c-0.08 1.92-0.15 3.85-0.16 5.79 0.99-2.48 0.85-5.61 2.96-7.47 0.65 4.42 0.12 8.93-0.79 13.28-3.27 2.18-3.09 6.71-4.34 10.09-0.6 0.75-1.19 1.51-1.78 2.28 0.68-0.14 2.02-0.42 2.69-0.55l-1.79 2.41c3.19-1.84 2.12-6.03 3.72-8.94 0.28 0.01 0.83 0.04 1.11 0.06 0.62-2.93 2.99-5.5 2.36-8.6 1.4-1.98 3.39-3.88 3.2-6.51l0.09 0.82c0.49-3.38 0.42-6.8 0.3-10.2l1.35-0.69c0.75-1.43 1.25-2.96 1.3-4.57-3.76 3.97-6.91 8.46-10.22 12.8m4.85 30.6c-0.23 8.5-3.38 16.55-4.98 24.83 0.44 1.05 1.03 2.04 1.58 3.05 0.21-1.71 0.38-3.42 0.56-5.12 0.77-0.08 2.32-0.23 3.09-0.3 1.25-1.53 0.75-3.83 1.18-5.66-0.67 1.5-1.36 2.98-2.16 4.42-0.94-4.97 0.58-9.86 0.95-14.79 0.51-0.06 1.54-0.19 2.06-0.25 1.83-3.82 2.94-8.05 2.88-12.31-1.24 2.95-2.2 6.01-3.53 8.93 0.06-4.8 2.24-9.23 2.64-13.98-0.93 3.91-2.86 7.46-4.27 11.18m-7.95 43.94c-0.19 4.02-1.46 8.25 0.11 12.14 3.23-7.77 4.65-16.45 3.53-24.83-2.74 3.6-2.91 8.38-3.64 12.69m884.31 3.78c0.25 0 0.76-0.02 1.02-0.02 1.1-3.94-1.45-8.06-2.51-11.88 0.23 3.99 0.8 7.96 1.49 11.9m-5.88-10.89c-0.99 2.25 0.77 4.78 1.13 7.07 1.43-2.41 1.99-5.15 1.55-7.91l-2.68 0.84m-879.23 25.17c-0.07 1.63-0.18 3.27-0.34 4.92-0.4 0.7-0.78 1.42-1.11 2.17 1.25 1.17 1.86 3.26 3.59 3.81 1.61-1.36 1.47-3.98 2.1-5.9-1.58-1.52-3-3.19-4.24-5m-21.45 15.68c2.21 3.38 1.67 7.63 2.86 11.37 0.26-2.48 0.02-4.96-0.63-7.35 0.74-0.58 1.48-1.18 2.19-1.79-1.39-1.51-2.74-3.08-3.78-4.86-0.22 0.87-0.43 1.73-0.64 2.63m21.19 3.31c-0.51 0.41-1.52 1.23-2.02 1.65 1.22 3.54 0.81 7.26 0.06 10.85l2.55-0.24c0.28-3.31 1.18-6.52 1.63-9.81h-1.19c-0.21-1.56-0.44-3.12-0.7-4.67-0.09 0.56-0.25 1.66-0.33 2.22m0.38 50.05c1.78 9.52 0.07 19.61 3.62 28.82-0.73-3.98-1.03-8-0.19-12-0.65-8.3-2.57-16.72-1.04-25.05 0.48-4.09-0.61-8.23-2.08-12.02-1.59 6.61-0.78 13.54-0.31 20.25m885.64-8.27c-0.66 3.34-1.25 6.7-1.99 10.03 2.71-0.08 1.88-3.16 2.56-4.85 0.02-1.74 1.54-4.22-0.57-5.18m-907.13 1.11c0.42 2.78 1.58 5.37 2.15 8.12 0.54 3.16 0.22 6.39-0.02 9.57 0.31 0.04 0.94 0.11 1.25 0.15 0.12-4.7 0.07-9.39-0.25-14.08-1.03-1.27-2.04-2.54-3.13-3.76m6.23 53.18c1.86 5.45-0.08 11.35 1.86 16.77-1.22-4.96 2.56-9.37 0.92-14.35-0.93-0.81-1.86-1.62-2.78-2.42m7.9 18.76c0.43 2.86 1.04 5.69 1.28 8.58 0.79-0.01 2.37-0.03 3.15-0.04-1.16-2.94-1.71-6.57-4.43-8.54m4.92-0.01c1.01 4.52 1.4 9.1-0.07 13.58 1.12-0.27 2.23-0.52 3.34-0.78-0.64-4.36-1.29-8.81-3.27-12.8m17.08 14.15c0.67 3.76 1.79 7.43 2.25 11.24 0.58 0.04 1.72 0.1 2.29 0.14 0.41 0.61 1.22 1.83 1.63 2.44-0.7-2.23-1.52-4.53-0.79-6.86-1.52-2.53-3.37-4.82-5.38-6.96m-26.8-0.1-0.07 1.94c1.75 2.75 4 5.27 5.91 7.97-0.82-3.84-2.75-7.44-5.84-9.91m12.7 11.99c0.04 4.08 1.68 7.89 3.3 11.56l-1.39 0.12c0.83 2.62 1.74 5.25 3.3 7.53-0.56-6.63-2.43-13.18-5.21-19.21m4.82 20.21c1.58 4.64 4.53 8.69 7.36 12.64-1.18-3.47-1.62-7.1-2.16-10.7-0.06-1.12-1.19-1.59-1.9-2.25 0.78 1.68 0.88 3.48 0.76 5.33-2.14-0.86-2.77-3.31-4.06-5.02m8.91 22.55c1.11 3.79 2.23 7.59 3.39 11.36-0.05-0.86-0.17-2.59-0.23-3.45 0.62-0.04 1.84-0.11 2.46-0.15-1.66-2.72-3.17-5.65-5.62-7.76m9.23 36.11c0.94 3.69 4 6.19 6.24 9.1-0.48-3.28-2.87-5.79-3.8-8.91-2.24-6.59-3.26-13.51-5.29-20.16-0.33 6.76 0.88 13.52 2.85 19.97m9.91 5.38c1.47 4.96 4.26 9.48 7.08 13.78-0.4 0.47-0.8 0.95-1.2 1.44-0.76-1.95-2.07-3.62-4.02-4.43 1.78 3.73 3.68 7.41 5.72 11.01 0.03-1.81-0.08-3.6-0.35-5.37 0.35-0.92 0.72-1.83 1.09-2.72-1.68-5.15-4.84-9.62-8.32-13.71m1.79 18.43c0.2 3.1 1.42 6.04 1.44 9.17 0.21-2.01 1.62-3.29 3.49-3.84-1.7-1.73-3.27-3.58-4.93-5.33m15.86 16.35c2.12 3.09 3.95 6.39 4.65 10.12 0.01-0.9 0.05-2.69 0.07-3.59 3.42 3.2 4.71 8.41 9.14 10.59-2.12-4.33-5.31-8-7.73-12.15-1.19-2.52-3.98-3.47-6.13-4.97m-4.26 2.01c-0.9 4.29 0.38 8.75 3.16 12.1-0.36-3.18-1.37-6.24-1.93-9.36 2.77 2.93 4.78 6.54 7.91 9.16-0.77-2.07-2.22-3.74-3.72-5.29-1.98-2.07-3.21-4.76-5.42-6.61m37.74 5c-0.19 0.5-0.59 1.5-0.79 2 0.99 0.98 1.96 1.97 2.92 3 0.03 0.6 0.1 1.82 0.13 2.42 2.58 2.8 5.77 4.94 8.72 7.33 0.34 0.52 1.02 1.56 1.36 2.08-1.01-3.02-2.86-5.67-4.01-8.63-0.37-1.84-2.83-0.54-2.69 0.93-2.74-2.45-3.3-6.35-5.64-9.13m-27.41 16.13c0.47-3.48-1.59-6.09-3.89-8.26 0.47 3.07 2.18 5.72 3.89 8.26m0.97-8.08c1.82 3.73 3.61 7.76 6.95 10.4 0.18-0.65 0.52-1.96 0.69-2.62 1.52 2.3 4.01 4.16 4.3 7.09 2.92 3.31 7.4 5.04 9.52 9.07 2.65 4.33 5.6 8.52 9.42 11.91-1.01-4.14-5.01-6.32-7.17-9.7-1.48-5.77-7.15-8.68-10.3-13.42 0.13-0.4 0.37-1.22 0.49-1.63-1.72-1.95-3.4-3.92-5.01-5.94-0.47 0.2-1.4 0.62-1.86 0.83-2.37-1.98-4.66-4.04-7.03-5.99m5.35 15.41c0.69-0.03 2.05-0.1 2.74-0.13 1.1 2.19 2.33 4.31 3.63 6.4 0.65-0.31 1.31-0.62 1.97-0.91-2.31-2.88-4.6-5.8-7.18-8.45-1.85-0.27-0.9 1.99-1.16 3.09m715.76 16.99c-2.29 3.6-6.18 5.73-9.86 7.64 0.8-1.05 2.39-3.13 3.19-4.17-3.44 2.33-7.84 4.79-9.08 9 2.26-1.28 4.46-2.66 6.6-4.13 1.86-0.85 3.79-1.85 5.9-1.25 1.44-1.89 2.92-3.74 4.54-5.48-0.44-0.55-0.87-1.09-1.29-1.61m-654.88 11.07c1.89 1.12 3.87 2.22 5.27 3.98 3.98 4.7 7.81 9.67 12.81 13.37-0.6-1.61-1.21-3.2-1.84-4.78 1.33 0.8 2.65 1.66 3.94 2.54 0.51 0.79 1.03 1.58 1.57 2.37-0.78-2.9-3.3-4.8-5.33-6.82-0.27 0.4-0.83 1.2-1.11 1.6-4.83-4.57-9.49-9.3-13.87-14.31-1.32-0.39-1.08 1.24-1.44 2.05m624.26 22.88c-0.31 3.64-4.75 4.72-6.85 7.28 0.52 3.33-1.47 6.21-2.23 9.33 1.24-0.98 2.21-2.24 3.22-3.46 3.06-3.68 8.32-5.21 10.6-9.57-4.26 0.96-5.83 5.94-10.05 6.87 2.23-3.34 4.46-6.83 7.65-9.34-0.44-0.15-1.31-0.43-1.74-0.58-0.15-0.13-0.45-0.4-0.6-0.53m-9.7 3.23c-2.56 4.53-6.12 8.32-9.4 12.33 2.18-0.29 4.54-0.15 6.42-1.5-0.7-0.06-2.09-0.16-2.78-0.22 2.02-4.25 5.85-7.21 8.16-11.27-0.6 0.16-1.8 0.5-2.4 0.66m-582.42 2.68c1.42 2.81 2.93 6.12 6.37 6.83 0.98 0.95 1.95 1.89 2.93 2.86 0.03 1.09 0.08 3.27 0.11 4.37l-2.6-1.08c2.58 1.7 4.99 3.64 7.19 5.82 0.21 1.75 1.5 2.53 3.16 2.84-0.01-0.68-0.05-2.03-0.07-2.71 2.25 2.25 4.85 4.1 7.2 6.26h-2.39c3.49 1.62 6.09 5.51 10.27 5.13 1.94 1.6 3.6 3.52 5.43 5.25-0.85-1.43-1.81-2.87-1.81-4.58 0.6 0.03 1.82 0.1 2.42 0.13 4.66 4.39 10.84 8.58 17.52 7.66-2.37-0.66-4.45-1.96-6.37-3.46 0.52-0.86 1.03-1.71 1.55-2.56-1.62-0.59-3.26-1.11-4.89-1.64 0.1 0.42 0.3 1.25 0.4 1.67 1.31 1.39 2.48 2.9 3.18 4.71-2.6-0.9-4.83-2.51-6.55-4.63 0.94-3.43-1.11-6.13-3.39-8.4-0.47 0-1.4-0.01-1.87-0.02l1.84 0.92-0.96 1.63c-5.13 1.65-8.91-2.92-11.98-6.27-1.84-2.46-5.02-2.94-7.35-4.74-4.68-3.71-10.07-6.59-13.78-11.41l1.88-0.73c-2.16-1.83-4.63-3.33-7.44-3.85m563.3 19.43c-1.81 2.23-3.75 4.38-6.4 5.62 0.27 0.46 0.81 1.38 1.07 1.84 1.87-1.09 3.2-2.79 4.42-4.53 1.89-2.69 4.93-4.16 7.37-6.26-2.34 0.66-4.92 1.27-6.46 3.33m-571.16 1.26c1.16 3.57 4.1 6.03 6.74 8.52 3.22 2.61 6.39 5.69 10.62 6.47 4.69 2.42 7.77 6.92 11.97 10.01-2.48-1.1-4.72-2.98-7.56-2.98 3.22 3.86 8.46 5.04 12.06 8.5 0.45-0.32 1.34-0.97 1.79-1.29 2.59 1.99 4.48 4.69 6.82 6.95 1.04 0.65 2.21 2.41 3.58 1.32 2.89 0.61 5.84 4.05 8.65 1.88-2.19-1.61-4.65-2.84-7.45-2.61l-0.25-1.11 2.76-0.16c-1.02-0.81-2.05-1.59-3.1-2.32-4.07-1.22-6.56-5-10.55-6.32-4.04-3.48-8.22-6.79-12.47-9.98-6.41-1.63-11.41-6.13-17.26-8.95-1.05-3.39-3.51-5.94-6.35-7.93m550.28 16.28c0.32-0.9 0.98-2.69 1.31-3.59-3.64 3.45-7.47 6.69-11.03 10.21-4 2.82-8.4 4.99-12.54 7.58 1.77 0.25 3.75 0.67 5.09-0.85 4.72-4.14 10.87-6.06 15.84-9.8 0.06-0.76 0.2-2.28 0.26-3.04 1.04-0.31 3.13-0.93 4.17-1.24l-0.24 2.54c2.52-1.73 4.56-4.02 5.3-7.06-2.75 1.72-5.27 3.78-8.16 5.25m-502.75-2.25c2.88 6.53 11.82 7.73 14.64 14.25 4.26 3.94 10.73 3.77 14.85 7.92-1.06 0.36-2.11 0.74-3.17 1.12 3.72 1.55 7.62 2.98 11.68 1.87 4.22 3.92 9.84 5.87 13.91 9.98 3.22 0.12 6.06 1.81 9.18 2.38-1.54-1.49-3.5-2.46-5.62-2.78-1.53-0.55-3.81-0.06-4.38-2.09 0.5-0.14 1.51-0.41 2.01-0.55-1.6-3.52-5.17-5.31-8.08-7.57-5.04 1.09-6.52-4.4-9.66-6.95-0.45-0.07-1.35-0.2-1.79-0.27l0.44 2.23c-3.38-2.15-6.84-4.16-10.48-5.83-0.34-0.9-0.68-1.79-1.02-2.66 0.68-0.22 2.04-0.66 2.72-0.87-1.91-1.71-4.64-2.89-6.35-0.29-1.33-0.24-2.65-0.47-3.98-0.68l0.82-1.76c0.56-0.06 1.67-0.18 2.23-0.24-3.5-0.7-6.85-1.97-10.23-3.08 1.57 2.79 5.52 2.8 6.85 5.75-6.32-0.73-9.69-6.64-14.57-9.88m483.44 1.87c-0.94 0.06-3.32 1.86-1.54 2.46 1.7 0.57 4.69-2.99 1.54-2.46m-17.44 18.02c5.74-1.23 10.15-5.55 13.91-9.79-5 2.7-9.45 6.29-13.91 9.79m-5.99 4.42c-2.72 2.14-5.37 4.45-8.49 6.01-2.05 1.02-4.39 1.54-6.18 3.05-1.25 0.09-2.5 0.18-3.74 0.29 0.06 0.33 0.16 1 0.22 1.33-3.35 2.38-7.13 4.22-10.06 7.15 5.51-1.32 9.74-5.62 15.38-6.69l0.43 0.3c0.06-0.34 0.19-1.03 0.25-1.37l-2.12 0.01c0.55-2.09 2.9-1.82 4.54-2.02 4.37 0.4 8.56-1.62 11.92-4.27 1.74-1.37 3.94-2.45 4.29-4.91-2.15 0.41-4.24 1.14-6.44 1.12m-464.76 0.91c3.33 1.51 5.36 4.62 7.35 7.55-0.12-1.41-0.21-2.8-0.28-4.19 2.83 0.42 5.83 0.51 8.47 1.78 1.73 0.8 2.13 2.86 2.93 4.41 0.62-0.12 1.86-0.37 2.47-0.49 0.5 0.36 1.49 1.09 1.98 1.46 0.17-0.49 0.5-1.48 0.67-1.97 2.39 2.26 4.89 4.9 8.42 5.06-0.74-1.74-2.4-2.42-4.1-2.86-1.07-2.07-2.68-3.76-4.59-5.06-0.03 0.85-0.08 2.55-0.11 3.4-3.87-3.79-8.85-6.75-14.34-7.19-3.03-0.27-6-0.94-8.87-1.9m423.88 9.36c1.18-0.26 2.36-0.51 3.56-0.75 0.26 0.87 0.54 1.75 0.82 2.66 0.46-0.33 1.37-0.97 1.83-1.29 1.11-1.99 2.26-4.01 2.69-6.28-3.01 1.83-5.54 4.39-8.9 5.66m-355.99-3.07c3.98 1.89 8.43 4.71 12.98 3.4-4.09-1.9-8.54-2.8-12.98-3.4m409.03 10.12c3.96 0.08 6.82-3.19 9.84-5.26-0.99 0.14-2.97 0.43-3.96 0.57 0.57-1.13 1.13-2.25 1.69-3.36-3.74 1.36-6.35 4.3-7.57 8.05m-404.86-5.24c0.4 0.34 1.21 1.04 1.61 1.38-0.06 0.65-0.18 1.93-0.23 2.58 1.16 0.41 2.33 0.86 3.49 1.33 5.06 3.62 11.52 4.04 16.93 6.92-0.6-1.4-1.42-2.73-1.6-4.25 0.82-0.61 1.68-1.14 2.6-1.58-0.52-1.3-1.15-2.55-1.83-3.74-0.39 0.42-1.16 1.26-1.55 1.68-4.68-0.74-8.9-3.37-13.69-3.59 3.39 1.93 7.73 2.84 9.99 6.31-2.38-0.32-4.73-0.8-7.05-1.36 0.23-0.51 0.68-1.52 0.91-2.02-2.69-0.93-5.35-1.92-8.03-2.82-0.39-0.21-1.17-0.63-1.55-0.84m-27.72 0.81c-0.06 0.49-0.2 1.48-0.26 1.97 3.79 1.39 7.25 3.48 10.48 5.88 1.62 0.94 3.34 2.65 5.37 2.07-3.29-2.17-6.63-4.25-10.09-6.13-1.9-1.17-3.72-2.45-5.5-3.79m-15.54 3.1c6.9 3.77 12.48 9.36 18.88 13.82 5.24-0.16 8.07 5.26 13.07 5.82-1.31-1.31-2.66-2.58-3.96-3.88 4.91 1.64 9.82 3.74 13.59 7.41 1.99 1.97 4.61 3.1 7.4 3.29-1.66-0.99-3.97-1.38-4.81-3.33 3.15 1.29 8.03 1.45 9.5 5.01 17.45 4.84 34.62 10.63 52.11 15.31-0.73-0.65-2.19-1.96-2.92-2.61 0.53 0.05 1.59 0.14 2.11 0.18l-0.13-1.07c-3.34-0.01-6.72 0.15-10.01-0.45l-1.06-1.4c1.13 0.04 3.37 0.13 4.5 0.17-4.65-2.28-10.77-1.82-14.42-5.87 0.77-0.16 2.32-0.49 3.1-0.66-3.38-2.06-7.02-0.69-10.65-0.48 0.07-0.73 0.21-2.19 0.28-2.92-5.06-1.16-9.8-5.5-15.12-2.97-1.8-1.74-3.62-3.45-5.42-5.17l1.43-1.33c0.7 0.54 1.41 1.09 2.12 1.64l0.63-0.74 0.47-0.48c-8.55-2.78-16.32-7.45-24.91-10.1 3.64 2.97 9.1 2.89 12.32 6.6-2.22-0.49-4.38-1.2-6.54-1.88l-0.14 1.67c-4.21-0.82-6.64-4.64-10.01-6.9-0.34 1.57-0.67 3.16-0.92 4.77-3.28-1.58-6.59-3.07-9.77-4.83 0.77 1.66 2.14 2.89 3.38 4.22-1.78-0.73-3.54-1.51-5.3-2.27 0.82-3.1-2.55-3.78-3.64-6.07-0.66-0.77-1.33-1.48-2.01-2.2-4.37-0.87-8.86-1.06-13.15-2.3m438.98 4.38c2.37-0.74 4.63-1.84 7.11-2.26-2.23 2.92-5.85 4.32-9.06 5.9-4.21-1.3-8.23 1.21-12.08 2.61 1.61 0.21 3.27 0.47 4.89 0.71 1.91-1.76 4.31-1.08 6.28 0.2 3.81-1.7 6.79-5.07 10.86-6.4 1.57-0.87 4.19-0.69 4.68-2.84-2.02 0.29-4.03 0.67-6.06 0.66 0.8-0.71 1.61-1.39 2.45-2.04-1.54 0.27-3.02 0.2-4.39-0.55-1.69 1.17-3.4 2.38-4.68 4.01m-369.49 2.94c1.05 2.92 3.97 4.54 6.01 6.71-0.41-1.8-0.01-3.32 1.19-4.56-0.67-0.35-2.03-1.06-2.71-1.41 2.11-0.06 4.24 0.05 6.3-0.51-3.33-0.71-7.95-3.09-10.79-0.23m311.42 1.88c-0.29-0.2-0.88-0.6-1.17-0.79-5.36 1.78-10.83 3.58-15.99 5.96-1.07-0.94-2.23-2.14-3.78-1.99-4.69-0.32-9.35 0.44-13.98 1-0.31 0.2-0.91 0.6-1.21 0.8 3.49 0.38 6.99-0.02 10.49-0.05-1.11 1.48-3.06 1.53-4.69 2.02-3.62 0.8-7.2 1.76-10.81 2.59l-0.63-0.92c-1.45 0.83-2.9 1.68-4.34 2.53 0.67 0.05 2.01 0.16 2.68 0.21-0.01 0.5-0.01 1.51-0.02 2.01 2.24-0.47 4.47-1.04 6.64-1.79l-0.94-0.01c3.56-0.2 8.29-3.69 11.08-0.46 0.57-1.22 1.13-2.44 1.7-3.64 1.97-0.92 3.91-1.86 5.89-2.75l-0.63 2.8c8.16-4.39 18.16-4 25.76-9.69-2.11 0.43-4.1 1.28-6.05 2.17m-290.82-0.75c0.34 0.75 1.02 2.26 1.36 3.01-1.67-0.48-3.32-1.01-4.86-1.8-0.08 0.34-0.25 1.03-0.33 1.37-2.3-0.31-4.79-0.42-7.21 0.23 5.05 1.29 10.4 2.31 14.47 5.85 3.81 0.77 7.61 1.71 11.5 2.08-1.2-0.57-2.47-1.13-3.81-1.1-0.21-0.5-0.62-1.5-0.83-2 0.95 0.04 2.83 0.12 3.77 0.15-1.4-1.14-3.34-1.09-4.99-1.5 0.09-0.37 0.25-1.1 0.34-1.47-3.61-0.59-6.23-3.28-9.41-4.82m82.87 9.1c1.54 0.9 3.12 2.04 5.02 1.67 6.45-0.82 12.51 2.84 18.97 1.77 0.33-0.9 0.97-2.71 1.29-3.61-3.87 1.14-7.92 0.94-11.91 0.91 0.13-0.52 0.39-1.54 0.52-2.06-4.68-0.78-9.36 0.22-13.89 1.32m-50.99 3.31c0.48 0.37 1.43 1.1 1.9 1.47-2.22 1.25-4.72 0-7.05-0.07 1.69 1.15 3.43 2.23 5.19 3.29 7.3-2.34 13.88 4.28 21.16 2.43-1.85-1.25-3.98-2.12-6.25-1.91-1.93-0.27-4.65 0.88-5.51-1.74 1.22 0 3.68 0 4.9-0.01-1.67-0.81-3.49-1.23-5.28-1.61-3.01-0.69-6.02-1.34-9.06-1.85m204.93 3.16c-5.13 1.38-10.16-1.65-15.32-0.29 3.03 4.23 9.1 1.94 13.3 4.18-0.18-0.61-0.55-1.84-0.73-2.46 2.86-0.2 5.73-0.51 8.53-1.17 0.42-0.77 0.85-1.52 1.29-2.26-2.31 0.84-4.64 1.63-7.07 2m63.19-0.45c-0.64 1.43-1.79 2.41-3.16 3.14 0.67 0.3 1.41 0.54 2.16 0.23 3.66-0.92 7.13-2.41 10.66-3.74-0.13-0.5-0.39-1.51-0.52-2.01-3.14 0.4-6.23 1.14-9.14 2.38m-116.54-0.44c-0.32 0.3-0.95 0.9-1.26 1.2l1.59-0.73-0.33 1.63c2.87 0 5.75-0.08 8.62-0.29 0.72-0.29 2.15-0.86 2.87-1.15-3.83-0.35-7.66-0.65-11.49-0.66m-127.51 4.04c1.28 0.88 2.52 1.86 3.38 3.21 2.5 0.78 5.15 0.91 7.65 1.73l1.52-1.12-1.6 0.46 0.12-2.33c0.42 0 1.27-0.02 1.69-0.03-1.32-0.52-2.64-1.06-3.94-1.61-2.94-0.2-5.88-0.29-8.82-0.31m150.31 3.05c0.79 0.61 1.58 1.25 2.37 1.92 1.15 0.13 2.3 0.26 3.47 0.41 0.8-2.47 3.92-2.42 5.91-3.52-3.94 0.27-7.8 1.2-11.75 1.19m-120.31 3.75c4.93 1.05 10.35 2.33 15.1 0.13 1.57 0.42 1.93 2.28 2.77 3.47 1.48-0.6 2.94-1.25 4.43-1.81-0.06-0.54-0.19-1.6-0.25-2.14-1.07 0.31-2.07 0.79-2.83 1.64-2.42-0.58-4.64-2.12-7.21-1.94-4 0.17-8.07-0.25-12.01 0.65m25.37 0.47c0.01 0.14 0.01 0.41 0.02 0.55 4.79-0.64 7.78 3.93 12.46 3.82-0.11-0.68-0.34-2.05-0.45-2.73-3.73-1.95-7.93-2.11-12.03-1.64m13.72 2.5c2.99-0.11 5.85 0.7 8.23 2.54 1.06-1.28 1.53-2.78 1.44-4.42-3.17-0.84-7.63-1.28-9.67 1.88m135.28-1.97c-0.27 0.42-0.81 1.27-1.08 1.7-1.8 1.12-3.52 2.36-5.38 3.38-1.71 0.17-3.43 0-5.13 0.04 0.92 1.71 3.03 0.89 4.56 0.82 4.51-0.92 8.27-3.77 12.74-4.92-1.76 0.23-3.48 0.73-5.15 1.27-0.17-0.78-0.36-1.54-0.56-2.29m-234.19 7.7c0.53 0.61 1.59 1.83 2.12 2.44-1.15 0.06-3.44 0.19-4.59 0.25 3.1 1.77 6.69 2.1 9.94 0.53-0.06-0.37-0.19-1.11-0.25-1.48-1.58 0-3.16-0.01-4.73-0.04-0.77-0.69-1.63-1.19-2.49-1.7z"/>
  <path id="d" d="m425.83 35.62c4.28 0.2 8.56 0.33 12.85 0.28l-0.19 0.95c-1.46 1.09-3.05 2-4.6 2.94l-0.2-2.24c-2.95 0.52-5.95 0.31-8.81-0.57z"/>
  <path id="e" d="m407.32 41.01c2.69-0.34 5.32-1 7.95-1.63-1.61 1.68-4.03 2.07-6.04 3.07-0.64-0.47-1.28-0.95-1.91-1.44z"/>
  <path id="f" d="m599.82 40.99c3.89 0.8 7.83 1.66 11.43 3.41-0.78 0.29-2.33 0.87-3.11 1.16-2.64-1.76-5.61-2.94-8.32-4.57z"/>
  <path id="g" d="m395.2 44.47c4-1.21 9.34-3.86 12.79-0.11-0.78 0.28-2.33 0.85-3.11 1.13-3.1-1.6-6.29 0.45-9.32 1.14l-0.36-2.16z"/>
  <path id="h" d="m634.44 52.04c-0.66-3.79 3.13-2.22 5.24-1.57-0.02 0.6-0.05 1.79-0.07 2.39-1.72-0.27-3.45-0.56-5.17-0.82z"/>
  <path id="i" d="m693.09 56.15c3.3 1.16 5.43 3.98 8.01 6.16 1.93 0.99 4.09 1.42 6.09 2.28-4.11 0.27-7.75-2.05-11.45-3.48-0.22-1.96-1.61-3.4-2.65-4.96z"/>
  <path id="j" d="m506.75 59.36c3.99-2.27 8.96-0.75 13.33-0.95-1.14 0.35-2.27 0.69-3.4 1.04-0.18 0.28-0.54 0.83-0.72 1.11-3.07-0.44-6.12-0.95-9.21-1.2z"/>
  <path id="k" d="m423.64 65.82c1.26-0.49 2.13 0.81 3.11 1.37-4.62 0.43-9.38 1.8-13.92 0.18 3.44-1.45 7.32-0.19 10.81-1.55z"/>
  <path id="l" d="m394.61 72.56c1.18-0.4 2.38-0.78 3.58-1.17 0.01 1.54 0.79 2.82 1.63 4.03-2.73 0.49-5.37 1.35-8.03 2.09-2.28 0.02-4.56-0.15-6.83 0.02-0.23-0.97-0.45-1.93-0.66-2.9 2.49-0.7 5.01-1.26 7.56-1.68-0.44 0.64-1.34 1.9-1.79 2.53 1.83-0.21 4.81-0.31 4.54-2.92z"/>
  <path id="m" d="m383.93 80.58c0.45-3.19 4.03-2.03 6.29-2.05-1.16 2.52-4.15 1.64-6.29 2.05z"/>
  <path id="n" d="m697.55 79.43c7.14 2.08 13.89 5.32 20.34 9 1.75 0.89 2.98 2.46 4.26 3.92 2.73-0.45 5.47-0.25 7.92 1.17-2.77 0.29-5.82-0.46-8.25 1.22 5.45 2.28 11.22 3.67 16.64 6.01-0.02-0.62-0.07-1.87-0.09-2.49 2.93 1.4 5.39 3.55 8.03 5.42 2.34 1.7 5.06 2.86 7.13 4.93-0.68 0.32-2.06 0.95-2.74 1.27 0.72 0.93 1.47 1.85 2.26 2.75 2.75-3.81 5.92 2.08 8.54 2.85-0.61-1.11-1.83-3.34-2.44-4.46 3.41 2.32 6.48 5.18 10.36 6.75 2.22 1.55 5.58 2.95 5.15 6.22 1.89 2.88 4.6 5.01 7.29 7.1-1.66-0.18-3.28-0.5-4.67-1.42-7.41-4.21-13.25-11.16-21.7-13.46-8.21-7.12-17.41-13.36-27.7-17.08-8.26-2.18-14.14-8.93-21.77-12.44-1.81-1.23-4.88-1.46-5.12-4.1-1.19-0.82-2.43-1.57-3.65-2.31 0.05-0.22 0.16-0.64 0.21-0.85z"/>
  <path id="o" d="m737.94 82.11c4.89 0.11 8.37 4.12 12.28 6.57-1.58-0.13-3.13-0.34-4.67-0.6 0.25 0.43 0.73 1.28 0.98 1.71-2.63-0.85-5.13-2.03-7.75-2.88 1.56 1.1 3.19 2.1 4.75 3.22 0.04 0.31 0.12 0.92 0.16 1.23-2.19-0.6-4.99-0.57-6.27-2.8-0.8-1.76-1.33-3.62-2.13-5.37 2.25 0.83 4.55 1.56 6.96 1.84-1.35-1.1-2.84-2.01-4.31-2.92z"/>
  <path id="p" d="m735.01 105.17c3.23 1.05 6.15 3.08 8 5.96 0.86 1.5 2.85 1.37 4.27 1.98-0.61 0.24-1.84 0.72-2.46 0.96 4.59 2.39 9.2 4.74 13.76 7.18-0.74 0.55-1.46 1.1-2.17 1.67 2.76 0.87 5.4 2.11 8.05 3.28 0-0.56-0.01-1.66-0.02-2.21 3.22 2.18 5.95 6.17 9.9 6.65 0.6 2.22 3.34 2.84 4.92 4.32-4.56 0.16-7.44-3.95-10.95-6.16-0.93 3.27 2 4.27 3.9 6-8.15-2.02-13.59-8.83-20.2-13.47 0.71 0.1 2.12 0.32 2.83 0.43l-0.2-1.75c-2.49-0.68-4.96-1.84-7.59-1.32-5.65-3.71-11.84-6.4-17.89-9.35 0.71-0.65 1.46-1.27 2.24-1.86 1.9 0.76 3.79 1.56 5.68 2.37 0.42-0.67 1.25-1.99 1.67-2.65-1.43-0.38-2.73-0.96-3.74-2.03m20.37 16.21c0.26 0.26 0.26 0.26 0 0z"/>
  <path id="q" d="m785.38 133.01c0.42-0.49 1.24-1.46 1.66-1.94 1.64 1.28 3.21 2.66 4.71 4.12-3.68 1.7 1.06 4.02 2.31 5.72-2.11-0.95-4.23-1.84-6.39-2.65 0.08-1.05 0.17-2.09 0.28-3.13-0.96-0.47-1.92-0.94-2.85-1.42-2.77 0.75-5.97 0.53-7.61-2.18 2.74-0.26 5.57-0.27 7.89 1.48z"/>
  <path id="r" d="m780.6 139.59c3.32 1.96 6.59 4.01 9.72 6.27-0.12 0.73-0.23 1.46-0.33 2.19 1.95 2.05 4.31 3.69 6.2 5.82-4.2-0.33-6.81-4.2-10.43-5.91-0.88-3.35-5.16-4.72-5.16-8.37z"/>
  <path id="s" d="m793.71 142.32c5.47 2.43 10.19 6.96 16.34 7.56 2.36 2.26 4.18 5.1 4.66 8.38-0.57 0.08-1.7 0.23-2.26 0.31-3.94-4.06-8.01-8.05-12.7-11.25-2.11-1.54-4.66-2.67-6.04-5z"/>
  <path id="t" d="m187.1 157.79c0.51-4.3 4.86-5.98 8.11-7.91-0.98 1.18-2.05 2.28-3.1 3.39 0.83 0.97 1.66 1.94 2.47 2.93-2.31 0.72-5.12 3.7-7.48 1.59z"/>
  <path id="u" d="m183.82 162.18c-0.53-1.69 2.41-3.19 3.69-2.14 0.33 1.67-2.38 2.75-3.69 2.14z"/>
  <path id="v" d="m818.44 162.83c0.11-0.86 0.32-2.57 0.43-3.43 1.31 0.96 2.65 1.94 3.99 2.89l-2.09 0.07c1 1.84 2.08 3.67 3.01 5.56-2.95-1.19-4.74-4.05-7.54-5.5 0.55 0.1 1.65 0.3 2.2 0.41z"/>
  <path id="w" d="m818.37 201.86c-0.83-1.75-3.81-5.22-0.58-5.99 3.49 3.46 5.72 8.06 9.92 10.84-1.04 1.87-2.74-0.64-3.93-0.63 0.61 1.35 1.23 2.71 1.86 4.07-3.14-1.05-3.92-4.34-3.51-7.31-1.08-0.99-2.17-1.97-3.24-2.95z"/>
  <path id="x" d="m84.76 259.36c0.59-5.8 4.45-10.81 8.87-14.38 0 0.53-0.01 1.58-0.01 2.1-3.45 1.57-1.75 6.09-4.14 8.42-1.3 1.59-2.94 2.86-4.72 3.86z"/>
  <path id="y" d="m63.79 301.32c1.26-1.6 2.58-3.25 4.6-3.89-2.09 4.32-4.14 8.66-6.25 12.97-0.55 0.06-1.64 0.19-2.18 0.25 0.72 1.16 1.56 2.23 3.22 1.74-1.37 1.71-2.17 3.97-3.93 5.33-0.69-0.24-2.09-0.73-2.78-0.97 1.09-2.75 1.94-5.58 2.5-8.48 0.89 1.43 3.36 2.43 3.43-0.25 0.76-2.16 1.2-4.42 1.39-6.7z"/>
  <path id="z" d="m908.49 352.92c4.76 3.63 5.4 9.75 7.21 15.02 2.42 1.49 2.53 4.53 3.3 6.99-0.4 0.48-1.2 1.43-1.6 1.91 0.46 1.04 0.91 2.09 1.36 3.15-1.65-2.16-2.19-4.84-3.18-7.3l-1.44-0.48 1.45 0.06c-2.36-6.46-4.27-13.08-7.1-19.35z"/>
  <path id="aa" d="m925.1 367.92c-2.9-3.36-6.61-9.45-3.2-13.58 0.62 1.16 1.87 3.5 2.5 4.67l-2.26-0.36c1.17 3.03 2.42 6.04 2.96 9.27z"/>
  <path id="ab" d="m77.76 387.78c0.01-1.51-1.45-4.42 1.04-4.6 0.75 0.07 2.24 0.19 2.98 0.26-1.31 1.47-2.63 2.94-4.02 4.34z"/>
  <path id="ac" d="m916.26 385.6c1.4-1.23 3.73-3.59 5.49-1.7 0.9 2.89-2.77 4.32-2.6 7.06-0.11 1.57 0.32 3.1 0.93 4.54 3.58-2.89 6.03 1.68 6.63 4.71-0.84 0.75-1.7 1.48-2.57 2.18l-0.97-0.38c-0.53-0.23-1.59-0.68-2.12-0.91-0.78-1.22-1.57-2.43-2.36-3.63 0.1-4.1-0.75-8.13-2.43-11.87z"/>
  <path id="ad" d="m935.94 453.2c1.26 0.18 1.34 3.78 0.05 3.99-0.63-1.33-0.65-2.66-0.05-3.99z"/>
  <path id="ae" d="m20.59 507.86c1.6 3.68 1.05 7.84 1.91 11.72 0.65 2.46-0.77 4.7-1.37 7.01-0.18-0.01-0.53-0.03-0.71-0.04 0.28-2.87 1.33-5.74 0.71-8.63-0.59-3.32-1.01-6.7-0.54-10.06z"/>
  <path id="af" d="m925.68 578.63c0.6-0.85 1.23-1.69 1.86-2.52 0.06 2.58 0.35 5.17 0.98 7.69-1.38 1.29-2.62 2.72-3.59 4.35 0.24-3.18 2.54-6.45 0.75-9.52z"/>
  <path id="ag" d="m965.2 604.04c0.75-0.62 1.51-1.21 2.31-1.78-0.34 2.58 0.1 5.35-0.8 7.84-1.21 0.92-4.18 1.06-4.2-1.07-0.81-2.29 2.53-2.84 2.69-4.99z"/>
  <path id="ah" d="m39.46 627.25c1.45-0.95 2.7 1.52 1.56 2.51-1.37 0.68-2.55-1.57-1.56-2.51z"/>
  <path id="ai" d="m823.01 837.17c1.21-2.13 2.61-4.44 5.04-5.33-0.78 1.66-1.7 3.26-2.55 4.9-0.62 0.11-1.87 0.32-2.49 0.43z"/>
  <path id="aj" d="m832.63 832.05c-0.13 0.66-0.24 1.33-0.35 2.01-1.67 1.48-3.25 3.05-4.72 4.73-0.69-0.59-1.38-1.16-2.04-1.74 1.75-1.03 3.34-2.53 5.45-2.79 0.42-0.55 1.24-1.66 1.66-2.21z"/>
  <path id="ak" d="m822.55 837.54c0.53 0.2 1.59 0.58 2.13 0.78 0.09 0.44 0.28 1.34 0.37 1.78-1.68-0.15-2.86 1.05-4.19 1.77 0.54-1.45 1.11-2.9 1.69-4.33z"/>
  <path id="al" d="m735.05 863.37c4.43-2.95 7.13-7.89 11.98-10.28 0.77 2.56-2.04 3.82-3.55 5.33 0.07 0.36 0.22 1.08 0.3 1.44-2.17 1.2-4.24 2.6-6.05 4.3-5.66-0.7-10.3 2.74-14.78 5.58-0.56-0.14-1.67-0.43-2.23-0.57-0.48 0.42-1.46 1.25-1.94 1.67 3.72-4.92 10.51-6.32 16.27-7.47z"/>
  <path id="am" d="m788.59 869.02c4.17-4.39 6.25-10.56 11.37-14.09-0.76 3.34-2.89 6.11-5.49 8.26 0.21 0.62 0.42 1.26 0.64 1.91-2.11 1.53-6.02 2.59-5.79 5.75-0.26-0.63-0.5-1.23-0.73-1.83z"/>
  <path id="an" d="m795.54 863.14c2.84-1.1 5.15-3.1 7.61-4.83-1.23 2.75-4.32 3.75-6.19 5.95-0.49-0.39-0.96-0.76-1.42-1.12z"/>
  <path id="ao" d="m738.44 865.05c2.38-1.2 4.68-2.52 7.02-3.81 0.62 1.61-0.36 3.21-1.17 4.57-1.48-0.42-3.05-0.99-4.23 0.57-0.55-0.45-1.09-0.9-1.62-1.33z"/>
  <path id="ap" d="m799.32 865.32c1.25-1.05 2.5-2.1 3.78-3.13-1.52 2.7-3.4 5.18-5.62 7.35-1.56-0.01-4.09 0.59-4.37-1.66 1.37-2.17 3.69-3.21 6.21-2.56z"/>
  <path id="aq" d="m668.95 892.63c1.13-1.15 2.35-2.21 3.63-3.19 0.7 0.48 1.4 0.98 2.1 1.5-1.93 0.51-3.8 1.19-5.73 1.69z"/>
  <path id="ar" d="m742.91 899.79c0.95-0.61 1.93-1.19 2.91-1.76-0.08 0.6-0.25 1.81-0.33 2.41-2.16 1.11-4.34 2.2-6.5 3.3 0.42 0.77 1.25 2.31 1.67 3.08 2.54-2.28 5.24-4.41 8.31-5.96-0.48 1.2-0.97 2.4-1.46 3.61-6.78 2.19-12.73 6.33-19.52 8.43 6.05-3.19 8.88-9.96 14.92-13.11z"/>
  <path id="as" d="m316.69 904.84c1.09-0.36 3.13 0.63 2.9 1.92-1.13 0.43-3.28-0.55-2.9-1.92z"/>
  <path id="at" d="m615.37 908.19c1.74 0.38 4.29 0.11 5.09 2.12-0.67 2.18-1.3 4.92-3.2 6.31-6.03-0.46-11.65 2-17.44 3.17 0.74-1.15 1.59-2.21 2.49-3.23 4.13 0.38 8-1.42 12.05-1.84-0.47-2.27 0.14-4.46 1.01-6.53z"/>
  <path id="au" d="m358.8 917.82c4.15 1.14 8.42 3.26 12.88 4.03-0.62 0.51-1.25 1.03-1.88 1.54-3.5-2.05-8.37-2.87-11-5.57z"/>
  <path id="av" d="m273.39 923.82c1.04-0.07 2.07-0.11 3.11-0.15 3.92 2.84 8.3 4.91 12.56 7.16-3.25-0.54-5.92-3-9.33-2.73-1.82-1.24-3.73-2.35-5.73-3.24-0.15-0.26-0.46-0.78-0.61-1.04z"/>
  <path id="aw" d="m425.31 936.21c3.15-1.49 0.3 3.24 0 0z"/>
  <path id="ax" d="m368.56 955.66c1.37-0.42 4.13 1.05 3.5 2.64-1.37 0.11-3.8-1.07-3.5-2.64z"/>
  <path id="ay" d="m397.74 969.77c3.23-1.01 6.61-2.62 10.05-1.87-0.03 0.73-0.09 2.18-0.12 2.91-3.25-1.05-6.69-0.38-9.93-1.04z"/>
  <path id="az" d="m523.42 974.85c-2.86 1.99-2.04-3.2 0.18-0.71z"/>
  <path id="ba" d="m459.43 975.26c0.75 0.34 1.5 0.69 2.25 1.06 4.6 0.11 9.46-0.42 13.73 1.68-1.65 1.16-3.66 0.74-5.5 0.59-3.59-0.48-7.38-0.43-10.63-2.25 0.04-0.27 0.12-0.81 0.15-1.08z"/>
 </g>
 <path id="bb" d="m314.43 71.12c0.53 0.1 1.58 0.31 2.1 0.42-2.38 2.08-5.04 3.85-7.98 5.05-4.18 1.68-8.49 3.95-13.13 3.49 5.54-1.81 11.28-3.21 16.42-6.04 1.16-0.66 2.02-1.72 2.59-2.92z"/>
 <path id="bc" d="m807.86 192.17c2.07-0.94 2.97 1.61 4.33 2.62-0.03-0.83-0.08-2.48-0.11-3.3 0.84 1.56 1.66 3.13 2.68 4.59l0.97 1.41c-1.66-0.71-3.33-1.29-5.07-1.72-1.06-1.1-3.16-1.74-2.8-3.6z"/>
 <g id="bd" transform="translate(-20.388 -20.25)" fill="#141414">
  <path id="be" d="m571.57 205.6c7.48-9.14 20.1-12.58 31.5-11.16 6.7 0.72 12.74 6.36 12.98 13.27-0.0597 15.743 0.0951 31.084-2.46 45.49-0.9 5.09-4.07 9.4-7.71 12.92-2.18 1.67-4.55 3.06-7.09 4.11-1.52 0.64-3.04 1.29-4.52 1.98-8.3 2-18.15 2.63-25.1-3.2-4.49-4.23-4.99-10.73-4.5-16.52 0.89821-13.041 1.22-25.69 3.23-38.4 0.41-3.14 2.16-5.8 3.67-8.49m17.21 4.33-3.2877 43.359c-0.88467 6.1266 5.7377 7.5007 6.3891-0.0237l2.6785-43.795c0.24578-4.2496-5.5342-3.379-5.78 0.45942z"/>
  <path id="bf" d="m539.49 203.97 20.99-2.87-5.13 74.65-21.09 2.8z"/>
  <path id="bg" d="m484.52 212.15c11.8-1.51 23.55-4.33 35.52-3.88 3.88-0.03 7.25 2.35 9.29 5.53 0.28 1.03 0.55 2.07 0.82 3.12 0.27 4.04 0.13 8.09-0.25 12.12-0.85 10.99-1.55 21.99-2.48 32.96-0.58 4.82-0.98 10.19-4.6 13.83-4.79 4.54-11.66 5.58-17.92 6.52-8.91 1.14-17.82 2.21-26.71 3.5l6.33-73.7m19.17 9.32c-0.97486 15.609-2.7028 35.308-4.0309 49.278l1.7009-0.4785c1.51-0.65 3.27-1.2 4.23-2.64 1.13-2.37 1.15-5.07 1.53-7.63 0.8-9.68 1.51-19.37 2.27-29.05 4e-3 -3.2217 0.65453-7.7814-0.35292-8.7735-0.90766-0.74875-4.1423-0.68861-5.3471-0.70654z"/>
  <path id="bh" d="m441.27 218.51 28.87-4.08 4.65 71.83-20.58 2.7886 0.19034-13.419-7.56 1.13-2.28 13.64-20.72 2.4 17.43-74.29m13.21 14.38-6.42 30.82 6.82-1z"/>
  <path id="bi" d="m384.67 227.15c10.77-1.68 21.57-3.96 32.51-3.87 6.1719 0.14437 9.2418 6.2649 9.283 11.823-0.066 6.4565-0.33431 8.1303-1.0706 11.748-1.1617 5.5255-3.8163 7.6267-11.342 9.3584 5.5998 1.2324 9.8898 3.8546 9.24 9.74l-2.8 27.39-18.23 2.34 2.68-25.67c0.58789-6.3843 0.77295-6.603-5.13-6.64l-3.74 32.87-19.52 2.77 8.12-71.86m18.06 9.11-1.3097 16.4c3.0389 0.078 4.8422-0.79093 5.2409-2.2702 1.111-3.3418 1.3339-6.6293 1.3179-10.159 0.033-1.3586-0.0843-2.7741-1.0966-3.4053-1.0381-0.66107-2.6431-0.53508-4.1524-0.56588z"/>
  <path id="bj" d="m657.85 267.63 80.79-10.49 31.81 202.09-61.62 4.6-2.13-37.76-20.94 2.14-4.46 38.02-59.59 4.76 36.14-203.36m41.19 38.33-12.75 85.47 19.52-2.07z"/>
  <path id="bk" d="m545.79 281.9c6.66-0.69 13.33-1.25 19.97-2.1 8.11-1.22 16.26 0.28 24.39-0.43 6.16 0.41 12.37 1.95 17.64 5.28 4.67 2.77 7.88 7.43 10.1 12.28 2.99 9 2.35 18.67 2.3 28.01-0.91 23.02-2.1 46.02-3.08 69.03-0.84 14.62-1.02 29.31-3.14 43.82-1.1 8.17-3.8 16.44-9.55 22.55-7.49 8.01-18.33 11.8-28.91 13.52-21.81 3.42-43.95 3.73-65.85 6.3-7.67 0.4-15.32 1.17-22.99 1.54l15.348-194.03c4.37-0.58 9.2716-1.0902 13.622-1.8402 10.03-1.49 20.09-2.73 30.15-3.93m5.71 30.95-8.83 129.65c5.09-0.72 11.45-1.26 14.66-5.8 0.72-1.19 1.28-2.45 1.67-3.77 2.3-9.15 2.47-18.61 3.19-27.96 0.67-13.02 1.58-26.02 2.33-39.04 0.69-15.7 2.69-31.37 1.96-47.1-0.14045-4.112-3.8112-5.9701-7.3624-6.132-2.5371-0.11125-5.0826 0.0725-7.6176 0.15197z"/>
  <path id="bl" d="m482.26 290.24-16.62 193.23-45.29 3.52-17.24-86.2-9.28 88.44-41.66 3.37 21.47-188.27 40.247-5.2129 19.003 79.893 7.87-83.28z"/>
  <path id="bm" d="m298.95 310.3c11.11-2.07 22.97-2.3 33.58 2.08 6.77 2.88 12.2 8.43 15.23 15.11 2.24 5.23 3.22 10.91 2.97 16.59-0.41 15.02-2.52 29.92-4.18 44.84-2.66 20.85-4.57 41.82-8.48 62.49-2.86 16-12.37 30.8-26.03 39.68-13.14 8.8-29.35 12.33-45.02 11.46-6.15-0.45-12.28-1.87-17.89-4.47-7.34-3.65-13.04-10.3-15.77-18-3.23-8-2.17-16.82-1.59-25.19 2.71-23.72 6.51-47.3 10.06-70.91 2.89-15.64 3.85-32.53 13.12-46.05 9.74-15.1 26.53-24.59 44-27.63m-0.44 29.43c-2.48 0.78-4.77 2.62-5.59 5.16-2.32 6.47-2.87 13.39-3.85 20.16-4.04 29.96-8.23 59.9-12.19 89.87-0.33 4.15-1.02 8.4-0.15 12.52 1.2 2.61 4.46 2.6 6.87 2.11 3.04-0.82 5.01-3.61 5.81-6.53 1.85-6.55 2.62-13.33 3.61-20.05 3.77-28.95 7.68-57.89 11.45-86.85 0.26-4.7 1.79-9.59 0.26-14.2-0.74-2.74-3.98-2.87-6.22-2.19z"/>
  <path id="bn" d="m759.21 467.64 28.98 188.08-53.79 1.96-2.11-35.27-18.55 0.98-3.53 34.94-52.52 1.48 30.38-186.29m36.71 37.57-10.85 78.41 17.63-0.89z"/>
  <path id="bo" d="m552.7 483.82c24.45-1.65 48.89-4.57 73.44-3.93 1.87 0.23 3.75 0.49 5.61 0.86 8.73 1.41 15.69 8.24 19.38 16 4.04 11.89 3.98 24.7 2.68 37.06-0.9 6.85-1.84 14.2-6.14 19.87-5.22 6.35-13.75 8.46-21.54 9.5 8.05 1.65 17.1 3.99 21.69 11.51 1.07 1.7 2.07 3.46 2.94 5.29 1.49 6.91 0.82 14.04 0.9 21.06l-2.07 59.28-45.66 1.46c0.5-5.77 0.46-11.56 0.8-17.33 1.15-15.51 1.48-31.07 2.39-46.6 0.33-5.85-0.04-11.77-1.57-17.44-3.53-2.13-7.72-2.78-11.78-2.58l-4.34 84.66-48.02 1.25 11.29-179.92m44.04 26.39-2.06 39.48c5.09-0.07 12.38-0.64 13.87-6.65 2.05-6.82 1.63-14.07 1.99-21.1 0.25-3.59-0.49-7.19-2.48-10.22-3.57-1.62-7.48-1.64-11.32-1.51z"/>
  <path id="bp" d="m536.88 485.14-2.29 34.38-29.95 2.14-2.43 33.12 28.34-1.74-2.35 34.11-28.35 1.68-3.15 39.62 33.94-1.64-2.58 37.32-79.69 2.64 15.33-176.06z"/>
  <path id="bq" d="m400.56 495.61c7.5491-0.25681 15.078 0.0419 22.456 1.9612 5.4727 1.3985 9.7795 5.1389 12.964 9.6736 2.1745 2.9052 3.3328 5.7124 3.906 8.9564 2.07 10.54 1.33 21.37-0.36 31.91-1.05 5.31-2.6 10.88-6.48 14.86-4.97 4.75-11.51 7.51-18.13 9.08 5.67 1.38 11.74 2.7 16.14 6.83 4.06 3.45 5.86 8.83 6.47 13.98 1.08 11.06-0.7 22.1-1.53 33.11-1.25 10.57-2.63 21.91-9.3 30.62-4.39 5.96-11.61 9.07-18.76 10.08-5.6592 0.91269-11.348 1.4816-17.053 1.8591l-59.787 2.1909 19.57-171.13m38.11 25.12-3.68 37.92c4.74-0.46 11.24-0.2 13.19-5.62 2.0673-7.889 3.2236-16.096 3.214-24.27-0.12-2.1755-0.60452-4.6049-1.641-6.3014-0.59377-0.92485-1.3048-1.1177-2.1825-1.3096-2.9272-0.58669-5.9216-0.60421-8.9004-0.41859m-6.43 64.53-5.19 49.4c4.25-0.61 9.32-0.74 12.4-4.16 2.85-4.45 2.91-9.99 3.62-15.07 0.68597-7.8082 2.0389-15.667 1.6476-23.514 0.16581-3.658-1.0296-5.0555-4.2822-5.9374-2.6384-0.70129-5.4606-0.74468-8.1954-0.71826z"/>
  <path id="br" d="m334.62 500.59-20.48 170.63-41.712 1.5225 22.362-168.79z"/>
  <path id="bs" d="m222.74 509.5 38.61-3.07-18.2 132.85 24.45-1.09-4.9 34.64-64.38 2.05z"/>
 </g>
 <path id="bt" d="m816.71 813c0.01 0.55-0.02 1.06 0.02 1.65-3.1 2.63-5.49 5.96-8.61 8.56 0.86-1.72 2.22-3.31 1.99-5.35 2.24-1.54 5.72-2.01 6.6-4.86z"/>
 <path id="bu" d="m763.65 848.61c0.9-1.84 2.25-3.37 3.51-4.95-0.02 0.75-0.04 2.25-0.05 3-1.15 0.66-2.29 1.33-3.46 1.95z"/>
</svg>
