<svg width="304.97" height="304.97" version="1.1" viewBox="-171 126.3 304.97 304.97" xml:space="preserve" xmlns="http://www.w3.org/2000/svg"><style type="text/css">
	.st0{fill:#020202;}
	.st1{fill:#FFFFFF;}
</style><path class="st0" d="m-132.58 323.19h5.1c1.4 0 2.6 0.4 3.3 1.1 0.6 0.6 0.9 1.5 0.9 2.5 0 1.9-1.1 3-2.7 3.5l3.1 4.3h-2.4l-2.8-4h-2.5v4h-2zm4.9 5.7c1.4 0 2.4-0.8 2.4-1.9 0-1.2-0.9-1.9-2.4-1.9h-2.9v3.8z" fill="#ec1d24"/><path class="st0" d="m-116.28 323.09h1.9l5 11.5h-2.1l-1.2-2.8h-5.4l-1.2 2.8h-2.1zm2.9 7-2-4.6-2 4.6z" fill="#ec1d24"/><path class="st0" d="m-106.98 323.19h4.3c3.6 0 6.1 2.5 6.1 5.7s-2.5 5.7-6.1 5.7h-4.3zm2.1 1.8v7.8h2.3c2.4 0 4-1.6 4-3.9 0-2.2-1.6-3.9-4-3.9z" fill="#ec1d24"/><path class="st0" d="m-93.577 323.19h2v11.4h-2z" fill="#ec1d24"/><path class="st0" d="m-88.577 328.99c0-3.3 2.5-5.9 6-5.9s6 2.7 6 5.9-2.5 5.9-6 5.9c-3.5-0.1-6-2.7-6-5.9zm9.9 0c0-2.3-1.6-4.1-3.9-4.1s-3.9 1.8-3.9 4 1.6 4.1 3.9 4.1 3.9-1.8 3.9-4z" fill="#ec1d24"/><path d="m-63.877 323.09h1.2l5.2 11.5h-1.4l-1.3-3h-6.2l-1.4 3h-1.3zm3.1 7.3-2.6-5.8-2.6 5.8z"/><path d="m-54.677 323.19h1.3v10.2h6.4v1.2h-7.7z"/><path d="m-43.977 323.19h1.3v10.2h6.4v1.2h-7.7z"/><path d="m-28.577 334.79c-0.9 0-1.7-0.2-2.4-0.5s-1.3-0.7-1.8-1.3-0.9-1.2-1.2-1.9-0.4-1.5-0.4-2.2c0-0.8 0.1-1.5 0.4-2.3 0.3-0.7 0.7-1.3 1.2-1.9 0.5-0.5 1.1-1 1.8-1.3s1.5-0.5 2.4-0.5 1.7 0.2 2.4 0.5 1.3 0.7 1.8 1.3c0.5 0.5 0.9 1.2 1.2 1.9s0.4 1.5 0.4 2.2c0 0.8-0.1 1.5-0.4 2.3-0.3 0.7-0.7 1.3-1.2 1.9-0.5 0.5-1.1 1-1.8 1.3-0.8 0.4-1.5 0.5-2.4 0.5zm0-1.2c0.7 0 1.3-0.1 1.8-0.4 0.5-0.2 1-0.6 1.4-1s0.7-0.9 0.9-1.5 0.3-1.2 0.3-1.8c0-0.7-0.1-1.3-0.3-1.8-0.2-0.6-0.5-1.1-0.9-1.5s-0.9-0.8-1.4-1c-0.6-0.3-1.2-0.4-1.8-0.4s-1.3 0.1-1.8 0.4c-0.6 0.2-1 0.6-1.4 1s-0.7 0.9-0.9 1.5-0.3 1.2-0.3 1.8c0 0.7 0.1 1.3 0.3 1.8 0.2 0.6 0.5 1.1 0.9 1.5s0.9 0.8 1.4 1c0.6 0.3 1.2 0.4 1.8 0.4z"/><path d="m-9.977 334.79c-0.9 0-1.8-0.1-2.5-0.4-0.8-0.3-1.5-0.8-2.2-1.4l0.8-0.9c0.6 0.5 1.2 1 1.8 1.2 0.6 0.3 1.3 0.4 2.1 0.4s1.4-0.2 1.9-0.5c0.5-0.4 0.7-0.8 0.7-1.4 0-0.3 0-0.5-0.1-0.7s-0.2-0.4-0.5-0.6c-0.2-0.2-0.5-0.3-0.9-0.5-0.4-0.1-0.9-0.3-1.5-0.4-0.7-0.1-1.2-0.3-1.7-0.5s-0.9-0.4-1.2-0.7-0.5-0.6-0.7-0.9-0.2-0.8-0.2-1.2 0.1-0.9 0.3-1.2c0.2-0.4 0.4-0.7 0.8-1 0.3-0.3 0.7-0.5 1.2-0.7s1-0.2 1.5-0.2c0.8 0 1.6 0.1 2.2 0.4 0.6 0.2 1.2 0.6 1.8 1.1l-0.8 1c-0.5-0.4-1.1-0.8-1.6-0.9-0.5-0.2-1.1-0.3-1.7-0.3-0.8 0-1.3 0.2-1.8 0.5-0.4 0.4-0.7 0.8-0.7 1.3 0 0.3 0 0.5 0.1 0.7s0.2 0.4 0.5 0.6c0.2 0.2 0.5 0.3 0.9 0.5 0.4 0.1 0.9 0.3 1.5 0.4 1.3 0.3 2.2 0.7 2.8 1.2s0.9 1.2 0.9 2.1c0 0.5-0.1 0.9-0.3 1.3s-0.5 0.7-0.8 1-0.7 0.5-1.2 0.7c-0.4-0.1-0.9 0-1.4 0z"/><path d="m-0.076997 324.39h-3.9v-1.2h9v1.2h-3.8v10.2h-1.3z"/><path d="m12.223 323.09h1.2l5.2 11.5h-1.4l-1.3-3h-6.2l-1.4 3h-1.3zm3.2 7.3-2.6-5.8-2.6 5.8z"/><path d="m24.523 324.39h-3.8v-1.2h9v1.2h-3.8v10.2h-1.3v-10.2z"/><path d="m37.223 334.79c-0.9 0-1.7-0.2-2.4-0.5s-1.3-0.7-1.8-1.3c-0.5-0.5-0.9-1.2-1.2-1.9s-0.4-1.5-0.4-2.2c0-0.8 0.1-1.5 0.4-2.3 0.3-0.7 0.7-1.3 1.2-1.9 0.5-0.5 1.1-1 1.8-1.3s1.5-0.5 2.4-0.5 1.7 0.2 2.4 0.5 1.3 0.7 1.8 1.3c0.5 0.5 0.9 1.2 1.2 1.9s0.4 1.5 0.4 2.2c0 0.8-0.1 1.5-0.4 2.3-0.3 0.7-0.7 1.3-1.2 1.9-0.5 0.5-1.1 1-1.8 1.3-0.7 0.4-1.5 0.5-2.4 0.5zm0-1.2c0.7 0 1.3-0.1 1.8-0.4 0.5-0.2 1-0.6 1.4-1s0.7-0.9 0.9-1.5 0.3-1.2 0.3-1.8c0-0.7-0.1-1.3-0.3-1.8-0.2-0.6-0.5-1.1-0.9-1.5s-0.9-0.8-1.4-1c-0.6-0.3-1.2-0.4-1.8-0.4-0.7 0-1.3 0.1-1.8 0.4-0.5 0.2-1 0.6-1.4 1s-0.7 0.9-0.9 1.5-0.3 1.2-0.3 1.8c0 0.7 0.1 1.3 0.3 1.8 0.2 0.6 0.5 1.1 0.9 1.5s0.9 0.8 1.4 1c0.6 0.3 1.2 0.4 1.8 0.4z"/><path d="m51.923 323.19h4.3c0.6 0 1.2 0.1 1.8 0.3 0.5 0.2 1 0.4 1.4 0.7s0.7 0.7 0.9 1.1 0.3 1 0.3 1.5c0 0.6-0.1 1.2-0.4 1.6-0.2 0.5-0.6 0.9-1 1.2s-0.9 0.6-1.4 0.7c-0.5 0.2-1.1 0.2-1.7 0.2h-2.8v4h-1.3v-11.3zm4.1 6.2c0.5 0 0.9-0.1 1.3-0.2s0.7-0.3 1-0.5 0.5-0.5 0.6-0.8 0.2-0.6 0.2-1c0-0.8-0.3-1.4-0.8-1.9-0.6-0.4-1.3-0.6-2.2-0.6h-2.9v5z"/><path d="m67.923 334.79c-0.7 0-1.4-0.1-1.9-0.3-0.6-0.2-1.1-0.5-1.5-0.9s-0.7-0.9-1-1.6c-0.2-0.6-0.3-1.3-0.3-2.1v-6.6h1.3v6.6c0 1.2 0.3 2.2 0.9 2.9s1.5 1 2.6 1 1.9-0.3 2.5-0.9 0.9-1.6 0.9-2.8v-6.6h1.3v6.6c0 0.8-0.1 1.6-0.3 2.2s-0.6 1.2-1 1.6-0.9 0.7-1.5 1c-0.6-0.2-1.2-0.1-2-0.1z"/><path d="m76.323 323.19h4.9c0.7 0 1.3 0.1 1.9 0.3 0.5 0.2 1 0.5 1.4 0.8 0.3 0.3 0.5 0.6 0.7 1s0.2 0.8 0.2 1.3-0.1 0.9-0.2 1.3c-0.2 0.4-0.4 0.7-0.6 1-0.3 0.3-0.6 0.5-1 0.7s-0.8 0.3-1.2 0.4l3.5 4.7h-1.6l-3.3-4.4h-3.3v4.4h-1.3v-11.5zm4.8 5.8c0.4 0 0.8-0.1 1.2-0.2s0.7-0.3 0.9-0.5c0.3-0.2 0.5-0.4 0.6-0.7s0.2-0.6 0.2-1c0-0.7-0.3-1.3-0.8-1.7s-1.2-0.6-2.2-0.6h-3.5v4.6h3.6z"/><path d="m94.123 334.79c-0.9 0-1.7-0.2-2.4-0.5s-1.3-0.7-1.8-1.3c-0.5-0.5-0.9-1.2-1.2-1.9s-0.4-1.5-0.4-2.2c0-0.8 0.1-1.5 0.4-2.3 0.3-0.7 0.7-1.3 1.2-1.9 0.5-0.5 1.1-1 1.8-1.3s1.5-0.5 2.4-0.5 1.7 0.2 2.4 0.5 1.3 0.7 1.8 1.3c0.5 0.5 0.9 1.2 1.2 1.9s0.4 1.5 0.4 2.2c0 0.8-0.1 1.5-0.4 2.3-0.3 0.7-0.7 1.3-1.2 1.9-0.5 0.5-1.1 1-1.8 1.3-0.8 0.4-1.6 0.5-2.4 0.5zm0-1.2c0.7 0 1.3-0.1 1.8-0.4 0.5-0.2 1-0.6 1.4-1s0.7-0.9 0.9-1.5 0.3-1.2 0.3-1.8c0-0.7-0.1-1.3-0.3-1.8-0.2-0.6-0.5-1.1-0.9-1.5s-0.9-0.8-1.4-1c-0.6-0.3-1.2-0.4-1.8-0.4-0.7 0-1.3 0.1-1.8 0.4-0.5 0.2-1 0.6-1.4 1s-0.7 0.9-0.9 1.5-0.3 1.2-0.3 1.8c0 0.7 0.1 1.3 0.3 1.8 0.2 0.6 0.5 1.1 0.9 1.5s0.9 0.8 1.4 1c0.5 0.3 1.1 0.4 1.8 0.4z"/><g transform="translate(-91.977 -22.006)"><path d="m103.3 431.3c-46.4 10.4-96.9-4.4-130.2-42.9s-40.7-90.6-23.8-135l-14.3-16.6c-24.3 52.7-17.3 117 23.2 163.8 40.5 46.7 103.1 62.9 158.7 46.4z"/><path d="m28 155.2 14 16.2c47.2-11.6 99 3 133 42.3 34 39.2 41 92.7 22.7 137.7l13.3 15.4c25.4-53.1 18.7-118.4-22.2-165.7-40.9-47.4-104.7-63.4-160.8-45.9z"/></g><g transform="translate(-91.977 -22.006)"><path d="m-39.9 263.7h17.4v9.1c4-5.4 9.3-10.3 18.1-10.3 8 0 14.1 3.7 17.3 10.2 5.4-6.6 11.8-10.2 20.1-10.2 12.9 0 20.7 8.2 20.7 23.7v42h-17.4v-36c0-8.7-3.7-13.1-10.2-13.1s-10.5 4.5-10.5 13.1v36h-17.4v-36c0-8.7-3.7-13.1-10.2-13.1s-10.5 4.5-10.5 13.1v36h-17.4z"/></g><path d="m28.923 306.39h-60.3c0.7-6.3 2.8-12.2 6.3-17.8s10.1-12.1 19.7-19.7c5.9-4.6 9.7-8.2 11.3-10.6s2.5-4.7 2.5-6.8c0-2.3-0.8-4.3-2.4-6s-3.7-2.5-6.1-2.5c-2.6 0-4.7 0.9-6.3 2.6s-2.7 4.7-3.3 9l-20.1-1.7c0.8-6 2.2-10.7 4.3-14 2.1-3.4 5.1-5.9 8.9-7.7s9.1-2.7 15.9-2.7c7.1 0 12.6 0.9 16.5 2.6s7 4.3 9.3 7.9c2.3 3.5 3.4 7.5 3.4 11.9 0 4.7-1.3 9.1-3.9 13.4s-7.3 8.9-14.1 14c-4 3-6.8 5-8.1 6.2-1.4 1.2-3 2.7-4.8 4.7h31.4v17.2z"/><path d="m67.323 240.49c-18.6 0-33.6 15-33.6 33.6s15 33.6 33.6 33.6 33.6-15 33.6-33.6-15.1-33.6-33.6-33.6zm-0.2 48.4c-7.9 0-14.4-6.4-14.4-14.4s6.4-14.4 14.4-14.4c7.9 0 14.4 6.4 14.4 14.4s-6.5 14.4-14.4 14.4z"/></svg>
