<svg id="a" width="604.32pt" height="345.84pt" version="1.1" viewBox="0 0 604.32 345.84" xmlns="http://www.w3.org/2000/svg">
 <g id="b" transform="translate(-35.56 -130.27)" fill="#007dbe">
  <path id="c" d="m35.56 130.42c18.88-1.09 38.35 3.935 53.28 15.735 11.26 8.8 19.76 21.44 22.4 35.6 2.96 15.04-1.05 31.09-10.23 43.29-14.88 20.14-40.84 30.1-65.45 28.53z"/>
  <path id="d" d="m158.46 130.42c12.85-0.25 25.72 0.08 38.58 0 16.52 12.97 30.33 31.245 33.62 52.435 3.71 24.94-7.61 50.44-26.35 66.76 31.84 53.18 63.67 106.39 95.5 159.58h-12.139c-1.7354 0-3.3589-0.85708-4.8609-1.9448-26.66-16.54-49.44-39.06-67.27-64.81-9.65-13.67-18.34-28.04-28.87-41.09-13.46-17-31.69-30.26-52.1-37.61-2.04-0.93-5.41-0.84-5.24-3.88 18.58-4.23 37.28-9.7 53.46-20.08 10.64-6.81 20.15-16.09 25.13-27.87 6.39-14.96 4.93-32.75-3.03-46.84-8.95-16.08-25.16-27.41-42.79-32.1-1.36-0.45-3.07-0.965-3.64-2.555z"/>
  <path id="e" d="m255.17 130.42h79.87c4.17-0.34 7.72 2.435 11.11 4.495 13.25 8.6 21.8 23.45 23.69 39.02 2.22 17.62-0.66 35.41-4.45 52.61-7.11 30.52-18.04 60.05-30.81 88.62z"/>
  <path id="f" d="m388.1 183.18c13.1-21.46 31.56-39.66 53.2-52.44 29.42-0.54 58.93-0.12 88.38-0.21 15.78 14.07 27.65 32.07 36.16 51.32 10.55-4.71 20.5-10.88 29.02-18.73 4.98 4.07 9.97 8.13 14.95 12.2-10.7 10.42-23.52 18.47-37.16 24.46 6.3 19.48 9.75 39.84 10.58 60.28h56.65v19.25h-56.68c-0.93 20.42-4.43 40.75-10.82 60.18 12.65 5.54 24.59 12.81 34.83 22.11-4.47 4.56-8.93 9.13-13.4 13.7-8.38-7.47-18.06-13.35-28.3-17.91-8.78 19.49-20.82 37.855-37.18 51.805h-210.44c17.82-33.96 35.69-67.905 53.49-101.88-3.39-10.81-5.62-22.02-6.09-33.35-0.97-31.56 6.2-63.74 22.81-90.79m35.8-13.77c6.9 5.11 14.43 9.32 22.29 12.78 7.85-17.89 18.55-34.68 32.62-48.32-20.82 7.19-39.74 19.59-54.91 35.54m40.32 19.1c10.32 2.81 20.92 4.48 31.58 5.18v-49.31c-13.87 11.93-24.12 27.54-31.58 44.13m52.17-44.11-0.01 49.24c10.63-0.75 21.19-2.48 31.46-5.34-7.44-16.5-17.66-32.01-31.45-43.9m-131.73 115.66h44.26c0.84-20.32 4.24-40.56 10.48-59.93-9.81-4.25-19.19-9.52-27.72-15.98-15.93 22.09-25.36 48.73-27.02 75.91m63.47 0h47.68v-47.13c-12.99-0.75-25.91-2.8-38.42-6.37-5.49 17.31-8.46 35.37-9.26 53.5m68.24-47.18 0.01 47.18h47.65c-0.8-18.21-3.82-36.35-9.32-53.74-12.48 3.62-25.37 5.76-38.34 6.56m-131.65 66.44c1.83 27.11 11.38 53.64 27.4 75.6 8.49-6.37 17.79-11.59 27.53-15.79-6.31-19.32-9.78-39.53-10.69-59.83l-44.24 0.02m63.45-0.01c0.86 18.13 3.94 36.17 9.48 53.45 12.43-3.52 25.26-5.57 38.16-6.28v-47.17h-47.64m68.21 0-0.01 47.21c12.88 0.79 25.67 2.9 38.07 6.47 5.58-17.36 8.68-35.48 9.55-53.68h-47.61m-51.78 71.47c7.41 16.29 17.57 31.57 31.2 43.31l0.01-48.37c-10.54 0.66-21.01 2.32-31.21 5.06m51.79 43.29c13.56-11.68 23.68-26.88 31.07-43.08-10.15-2.79-20.58-4.5-31.08-5.23l0.01 48.31m-91.97-24.5c15.04 15.77 33.85 27.88 54.42 35.07-13.87-13.46-24.5-29.96-32.31-47.57-7.79 3.37-15.23 7.52-22.11 12.5z"/>
  <path id="g" d="m35.56 270.81c27.42 5.75 53.37 20.79 71.21 42.44 14.16 18.48 19.29 41.67 28.63 62.58 6.14 12.13 14.54 22.985 23.26 33.365h-123.1z"/>
  <path id="h" d="m206.49 414.08c4.27-1.09 9.46 2.88 8.04 7.48-1.61 5.26-9.71 6.06-12.45 1.33-2.35-3.51 0.55-8.15 4.41-8.81z"/>
  <path id="i" d="m428.48 414.08c4.27-1.1 9.47 2.88 8.05 7.48-1.61 5.24-9.65 6.06-12.42 1.38-2.4-3.5 0.49-8.19 4.37-8.86z"/>
  <path id="j" d="m36.6 415c12 0.19 24.04-0.41 36.02 0.31 4.99 0.37 10.37 1.31 14.03 5.04 6.04 5.5 6.54 16.08 0.71 21.9-2.42 2.5-5.73 3.77-8.94 4.9 4.98 6.89 9.81 13.89 14.81 20.76 1.9 2.99 4.9 4.87 8.24 5.9-0.37 0.26-1.11 0.79-1.48 1.06-5.98 0.35-11.98 0.02-17.96 0.13-6.36-9.03-12.8-18-19.2-27.01-1.32 0-2.64 0-3.96 0.02 0.2 7.31-0.48 14.68 0.43 21.96 1.07 3.2 5.26 2.87 7.98 3.18 0 0.46-0.01 1.39-0.01 1.85h-30.67c-0.01-0.46-0.02-1.38-0.02-1.84 2.32-0.3 4.99-0.05 6.93-1.6 1.62-1.34 1.23-3.68 1.37-5.53-0.04-14.37 0.02-28.74-0.02-43.11-0.17-1.5 0.13-3.42-1.27-4.42-1.95-1.61-4.66-1.37-7.01-1.66 0-0.46 0.01-1.38 0.02-1.84m22.27 3c0 9-0.01 18.01 0 27.02 4.21-0.02 8.63 0.24 12.57-1.52 3.85-1.92 5.6-6.33 5.67-10.43 0.21-4.54-0.41-9.93-4.42-12.78-4.01-2.87-9.18-2.25-13.82-2.29z"/>
  <path id="k" d="m169.54 415c6.19-0.01 12.39 0 18.59 0-0.01 16.68 0.02 33.36-0.02 50.04-0.03 1.71 0.3 3.4 0.68 5.07 1.57 0.39 3.14 0.81 4.7 1.24-0.18 0.36-0.54 1.07-0.72 1.42-5.58 1.68-11.51 1.96-17.19 3.28 0.01-2.18 0.03-4.35 0.08-6.51-2.32 2.49-4.7 5.34-8.18 6.14-5.41 1.34-11.36-1.07-14.57-5.56-4.35-6-5.13-13.94-3.82-21.06 1.05-5.59 3.9-11.33 9.08-14.12 3.34-1.71 7.44-2.77 11.05-1.3 2.74 0.96 4.61 3.31 6.5 5.39-0.41-6.44 0.26-12.93-0.36-19.35-0.51-2.71-3.78-2.57-5.86-2.92l0.04-1.76m-6.95 26.36c-1.62 6.41-1.31 13.15-0.73 19.68 0.64 3.62 1.48 8.43 5.39 9.9 3.82 0.85 6.33-2.79 8.38-5.38-0.15-6.81 0.15-13.64-0.13-20.45-0.98-3.63-3.02-7.71-6.79-9.06-3.38-0.86-5.42 2.54-6.12 5.31z"/>
  <path id="l" d="m285.66 415.97c1.34-0.75 2.77-1.09 4.3-0.99 8.43 0.03 16.87 0.01 25.31 0.02 0 0.47 0.01 1.4 0.01 1.87-2.47 0.31-5.8-0.3-7.31 2.22-0.01 1.62 0.66 3.14 1.24 4.63 4.76 11.07 9.48 22.16 14.25 33.23 4.45-10.28 9.14-20.45 13.59-30.72 0.72-2.19 2.12-4.74 0.67-6.92-1.64-2.26-4.78-2.06-7.22-2.53 0.01-0.44 0.02-1.33 0.03-1.77 6.62 0.01 13.24-0.07 19.86 0.05-0.53 2.49-3.45 2.73-5.08 4.28-2.57 2.3-3.89 5.61-5.44 8.62-7.36 16.02-14.47 32.16-21.86 48.15-0.31-0.1-0.93-0.32-1.24-0.43-8.19-18.1-15.46-36.62-23.93-54.59-1.09-3.15-4.54-3.82-7.18-5.12z"/>
  <path id="m" d="m403.07 422.01c0.87-1.33 1.71-2.78 3.23-3.5 0.2 5.16 0.06 10.32 0.1 15.49 3.24-0.01 6.48 0 9.73 0v4c-3.25-0.01-6.49 0-9.73 0 0.03 9-0.05 18 0.02 27-0.07 1.97 0.43 4.43 2.64 5.01 2.85 0.26 4.38-2.66 6.24-4.27 1.13 3.11-1.68 5.79-3.7 7.78-5.47 5.02-15.98 2.2-17.26-5.37-0.75-10.01-0.15-20.08-0.34-30.12-1.97-0.03-3.94-0.08-5.9-0.17 1.49-2.42 4.01-3.83 6.1-5.65 3.45-2.92 6.43-6.39 8.87-10.2z"/>
  <path id="n" d="m111.01 436.1c4.71-2.54 10.23-3.58 15.54-2.97 4.47 0.52 8.8 3.17 10.68 7.34 2.05 9.81-0.59 20.08 1.59 29.84 1.47-0.45 2.95-0.89 4.44-1.28-1.64 5.65-8.98 8.87-14.16 5.92-2.15-1.16-2.86-3.63-3.61-5.77-3.52 3.18-7.56 6.23-12.41 6.82-3.95 0.54-8.21-2.22-8.86-6.26-0.99-4.21 1.46-8.4 4.76-10.87 5.07-3.82 10.89-6.49 16.64-9.11-0.1-3.42 0.24-6.88-0.3-10.27-1.5-4.3-7.55-4.48-10.51-1.66-1.39 1.71 0.57 3.49 1.32 4.98 2.01 2.38 0.87 6.31-1.88 7.57-3.53 1.83-8.67-0.19-9.37-4.28-0.44-4.25 2.62-8 6.13-10m5.2 26.86c-0.72 2.57 1.08 4.67 2.8 6.29 2.43-0.14 4.82-1.03 6.41-2.94 0.45-4.5 0.08-9.06 0.16-13.58-3.81 2.57-8.21 5.47-9.37 10.23z"/>
  <path id="o" d="m239.51 433.14c7.93-1.21 16.57 2.99 19.92 10.4 4.24 9.3 3.05 21.95-5.22 28.67-6.79 5.25-17.46 5.24-23.96-0.49-9.41-8.81-9.35-25.63 0.13-34.37 2.46-2.41 5.78-3.66 9.13-4.21m0.98 3.28c-3.32 1.39-3.57 5.45-3.95 8.54-0.4 7.64-0.97 15.42 0.44 23 0.47 3.69 5.03 6.63 8.32 4.23 3.22-2.27 3-6.69 3.32-10.18 0.15-7.01 0.8-14.15-0.58-21.07-0.61-3.33-4.21-6.28-7.55-4.52z"/>
  <path id="p" d="m353.06 436.07c4.69-2.51 10.19-3.55 15.48-2.94 4.47 0.51 8.82 3.17 10.7 7.35 2.04 9.81-0.61 20.08 1.59 29.84 1.45-0.46 2.91-0.9 4.38-1.3-1.54 5.68-8.96 8.87-14.11 5.93-2.16-1.16-2.86-3.63-3.61-5.77-3.49 3.16-7.49 6.18-12.3 6.81-3.98 0.6-8.3-2.16-8.96-6.23-1.01-4.22 1.46-8.44 4.77-10.9 5.07-3.82 10.88-6.48 16.62-9.1-0.1-3.41 0.23-6.84-0.29-10.22-1.45-4.35-7.6-4.56-10.55-1.68-1.4 1.97 0.95 3.8 1.68 5.53 1.79 2.6-0.05 6.49-2.97 7.29-3.46 1.28-7.95-0.8-8.61-4.57-0.45-4.28 2.65-8.04 6.18-10.04m5.14 26.95c-0.69 2.56 1.11 4.62 2.83 6.23 2.83-0.18 7.14-1.61 6.58-5.17 0.04-3.78-0.02-7.57-0.03-11.35-3.83 2.58-8.25 5.5-9.38 10.29z"/>
  <path id="q" d="m455.24 436.19c5.76-4.05 14.16-4.47 20.05-0.49 3.06 2.16 5.3 6.02 4.18 9.83-1.25 3.91-7.02 4.7-9.58 1.66-2.39-2.74-1.51-6.74-3.12-9.81-1.02-1.69-3.63-1.89-4.98-0.48-2.82 2.52-3.34 6.62-3.47 10.2-0.15 5.53 0.82 11.24 3.54 16.12 1.81 3.3 5.23 6.05 9.18 5.82 3.68 0.09 6.37-2.8 9.01-4.94 1.35 2.16-1.08 4-2.2 5.65-5.71 7.05-17.18 8.5-24.18 2.56-10.39-9.15-9.54-27.9 1.57-36.12z"/>
  <path id="r" d="m494.06 436.06c4.69-2.49 10.17-3.53 15.45-2.93 4.51 0.5 8.91 3.19 10.76 7.44 1.93 9.74-0.54 19.88 1.49 29.58 1.66-0.33 3.33-0.61 5.01-0.86-2.54 4.31-7.39 7.93-12.63 6.49-3.25-0.6-4.89-3.69-5.65-6.6-3.51 3.17-7.53 6.21-12.37 6.82-3.98 0.56-8.27-2.22-8.9-6.28-0.99-4.22 1.49-8.41 4.79-10.87 5.07-3.81 10.87-6.47 16.61-9.09-0.1-3.4 0.22-6.84-0.29-10.21-1.44-4.36-7.59-4.57-10.54-1.7-1.34 1.7 0.58 3.45 1.32 4.93 2.03 2.39 0.89 6.37-1.9 7.61-3.53 1.82-8.67-0.23-9.33-4.32-0.43-4.27 2.67-8.01 6.18-10.01m5.16 26.88c-0.74 2.58 1.07 4.69 2.8 6.31 2.83-0.18 7.16-1.6 6.59-5.17 0.04-3.78-0.02-7.57-0.03-11.35-3.81 2.57-8.2 5.46-9.36 10.21z"/>
  <path id="s" d="m547.84 440.01c3.1-3.54 7.1-7.03 12.09-7.05 4.71-0.25 9.35 3.07 10.34 7.75 1.93 10.28-0.56 20.93 1.54 31.17 1.52 0.66 3.02 1.36 4.51 2.14-3.14 1.76-6.85 0.73-10.27 0.98-4.11-0.24-8.39 0.67-12.35-0.75 1.6-1.47 4.61-2.25 4.7-4.82 0.46-7.15 0.07-14.33 0.21-21.48-0.17-3.07 0.54-7.16-2.67-8.93-4.16-0.63-6.75 3.72-7.94 7.06-0.36 5.63-0.01 11.28-0.15 16.92 0.1 2.77-0.27 5.72 0.85 8.34 1.32 1.12 3.22 1.73 3.71 3.6-7.27 0.11-14.54 0.09-21.81 0 0.37-2.01 2.51-2.31 3.95-3.32 1.01-1.66 0.89-3.7 0.99-5.56 0.01-7.36-0.03-14.71 0.01-22.06-0.08-2.22 0.09-4.57-0.92-6.6-1.46-1.03-3.7-1.27-4.01-3.35 5.75-0.11 11.5-0.03 17.25-0.05-0.01 2-0.02 4-0.03 6.01z"/>
  <path id="t" d="m597.37 433.31c5.56-0.97 12.14-0.22 16.02 4.33 3.43 3.53 2.3 8.87 2.62 13.32 0.35 6.41-0.86 13 0.77 19.27 1.61-0.37 3.21-0.78 4.82-1.15-2.15 4.87-7.85 8.37-13.14 6.49-2.93-0.79-4.2-3.75-4.97-6.39-3.5 3.16-7.51 6.19-12.33 6.82-4 0.57-8.31-2.21-8.95-6.29-0.97-4.2 1.48-8.39 4.77-10.84 5.07-3.82 10.89-6.49 16.64-9.11-0.1-3.42 0.23-6.86-0.29-10.24-1.49-4.53-8.53-4.68-10.91-1.01-0.44 3.08 3.79 5.1 2.58 8.37-0.88 4.25-6.65 5.34-9.78 2.86-2.85-1.85-2.93-5.88-1.3-8.57 2.64-4.88 8.26-7 13.45-7.86m-3.16 29.64c-0.73 2.58 1.08 4.68 2.8 6.3 2.82-0.18 7.15-1.59 6.6-5.15 0.04-3.79-0.02-7.58-0.03-11.37-3.82 2.57-8.21 5.47-9.37 10.22z"/>
  <path id="u" d="m196.88 434.1c5.7-0.27 11.41-0.02 17.12-0.1 0 10.33 0 20.66-0.01 30.99 0.13 2.27-0.07 4.76 1.14 6.79 1.18 0.76 2.56 1.08 3.87 1.55 0 0.42 0.01 1.25 0.01 1.67-7.56-0.04-15.11 0.08-22.66-0.07 0.52-2.33 3.42-2.15 4.7-3.78 0.73-1.6 0.53-3.44 0.67-5.13 0.04-7.34 0-14.68 0.02-22.02-0.11-2.23 0.07-4.63-1.03-6.65-1.12-1.14-4.94-1.11-3.83-3.25z"/>
  <path id="v" d="m418.35 434.07c5.88-0.15 11.76-0.04 17.65-0.07 0 10.34 0 20.68-0.01 31.02 0.12 2.26-0.06 4.73 1.14 6.76 1.17 0.76 2.55 1.08 3.87 1.55 0 0.42 0.01 1.25 0.01 1.67-7.55-0.03-15.11 0.07-22.65-0.06 0.52-2.81 4.93-2.05 5.09-5.06 0.62-7.59 0.12-15.24 0.3-22.85-0.15-3.22 0.41-6.69-1.04-9.68-1.51-1.05-3.87-1.21-4.36-3.28z"/>
 </g>
</svg>
