<svg width="120.27mm" height="95.554mm" version="1.1" viewBox="0 0 120.27 95.554" xmlns="http://www.w3.org/2000/svg">
 <g transform="translate(77.142 -101.06)">
  <path d="m16.961 163.35c1.792 14.916-8.2579 28.993-23.231 31.931-14.974 2.9374-29.597-6.3003-33.573-20.788l-25.158 4.935-11.357-56.797 105.99-20.792 11.356 56.797" fill="#fff" stroke-width=".26458"/>
  <path d="m10.949 183.41c4.0786-5.606 6.1061-12.685 5.2311-19.97-0.04286-0.36063 0.27305-0.79296 0.62997-0.86307l23.257-4.5625-11.048-55.255-104.45 20.49 11.048 55.255 24.39-4.7845c0.35719-0.0701 0.81306 0.21484 0.90937 0.56542 1.9415 7.0744 6.4916 12.862 12.383 16.51 5.8486 3.6216 13.022 5.1364 20.28 3.7126 7.2559-1.4235 13.323-5.5356 17.37-11.098m6.8699-19.429c0.70882 7.4322-1.429 14.621-5.5978 20.351-4.273 5.8738-10.68 10.216-18.341 11.719-7.6584 1.5023-15.229-0.0976-21.405-3.9214-6.0264-3.7317-10.723-9.5798-12.875-16.728l-24.452 4.7966c-0.38444 0.0754-0.84508-0.23415-0.92181-0.61754l-11.357-56.796c-0.07726-0.38655 0.23363-0.84878 0.62071-0.92472l105.99-20.792c0.38444-0.0754 0.84508 0.23389 0.92155 0.61754l11.357 56.796c0.0773 0.38656-0.23363 0.84905-0.62098 0.92472z" stroke-width=".26458"/>
  <g transform="matrix(.26458 0 0 .26458 -91.698 92.89)" fill="#0069b4">
   <path d="m223.03 288.97-3.48-18.061 6.244-1.203-0.611-70.167 37.341-7.195 25.386 65.394 5.848-1.127 3.48 18.062-27.838 5.364-6.695-20.393-13.83 2.664 1.539 21.387m-2.888-37.421 10.768-2.075-12.012-33.63z"/>
   <path d="m133.92 216.74 3.456 17.938-6.658 1.283 9.602 49.831 6.658-1.283 3.48 18.061-36.531 7.039-3.48-18.061 6.657-1.281-9.601-49.832-6.658 1.282-3.456-17.939"/>
   <path d="m458.94 121.65c1.033 5.274 0.354 9.772-2.061 13.499-2.39 3.743-6.101 6.096-11.087 7.074l-27.567 5.408c-5.068 0.994-9.414 0.221-13.031-2.301-3.6-2.525-5.932-6.454-6.975-11.77l-10.039-51.18c-1.027-5.233-0.344-9.711 2.066-13.458 2.395-3.722 6.126-6.08 11.152-7.066l27.567-5.408c5.027-0.986 9.354-0.208 12.972 2.313 3.598 2.525 5.926 6.433 6.961 11.708m-26.424 57.586 11.991-2.353-9.769-49.799-11.991 2.352zm-50.663-60.393 3.516 17.925-6.943 1.362 9.77 49.799 6.943-1.362 3.541 18.049-38.097 7.473-3.541-18.049 6.942-1.362-9.767-49.798-6.943 1.362-3.517-17.926zm-72.203 84.494 12.979-2.546-9.769-49.799-12.98 2.546zm-27.488 24.136-3.541-18.049 6.943-1.362-9.769-49.799-6.943 1.362-3.516-17.926 51.303-10.063c5.049-0.99 9.354-0.208 12.971 2.312 3.599 2.525 5.928 6.434 6.963 11.708l10.039 51.18c1.033 5.274 0.354 9.773-2.019 13.491-2.391 3.743-6.079 6.092-11.128 7.083zm-91.401 17.93-3.541-18.049 6.511-1.277-0.305-70.271 38.941-7.639 26.142 65.203 6.099-1.197 3.541 18.049-29.031 5.695-6.88-20.347-14.422 2.83 1.502 21.401zm25.726-43.048 11.229-2.203-12.357-33.544zm-78.281-35.717c5.089-0.999 9.43-0.245 13.028 2.28 3.594 2.504 5.902 6.417 6.945 11.732l2.606 13.289c0.679 3.461 0.195 6.338-1.465 8.675s-4.549 4.188-8.681 5.597c4.744 0.075 8.237 0.866 10.487 2.415 2.251 1.548 3.732 4.082 4.428 7.626l2.522 12.856 6.819-1.337 3.541 18.048-20.315 3.985c-3.152 0.618-5.626 0.44-7.418-0.513-1.795-0.975-2.955-2.737-3.459-5.312l-5.388-27.465-13.825 2.712 6.891 35.13-31.153 6.111-3.541-18.049 6.943-1.362-9.769-49.799-6.943 1.362-3.517-17.925zm-13.323 38.538 12.856-2.522-3.27-16.668-12.857 2.522z"/>
   <path d="m208.05 272.74 3.48 18.061-36.116 6.959-3.48-18.061 6.362-1.224-9.602-49.832-7.804 1.503 2.733 14.184-16.853 3.247-6.189-32.121 72.707-14.01 6.189 32.12-16.853 3.248-2.733-14.183-7.804 1.504 9.602 49.831"/>
  </g>
  <path d="m-0.80296 179.4c0.58367-0.0863 0.98213-0.36512 1.2002-0.84984 0.21881-0.4781 0.32332-1.437 0.30718-2.8766l-0.18468-16.754c-0.01587-1.4264-0.14102-2.3828-0.37015-2.862-0.22886-0.47942-0.63368-0.74956-1.2184-0.81015l-0.02752-2.4511c2.8133 0.23019 5.0252 1.6118 6.6254 4.1466 1.605 2.5334 2.4289 5.9536 2.4762 10.252 0.04736 4.3058-0.71252 7.7499-2.2722 10.346-1.5661 2.5961-3.7306 4.0322-6.5093 4.3108m-1.0713-2.44 0.02725 2.4514c-2.8014-0.2167-5.0139-1.6052-6.631-4.1659-1.6171-2.5609-2.453-5.9872-2.4998-10.293-0.04789-4.2987 0.70591-7.7356 2.255-10.304 1.5491-2.5688 3.7367-3.9992 6.5551-4.2916l0.02699 2.431c-0.57891 0.0865-0.9824 0.37226-1.2007 0.85698-0.21775 0.48419-0.31644 1.4433-0.3011 2.8699l0.18441 16.754c0.01641 1.4396 0.136 2.3963 0.35851 2.8694 0.22357 0.47889 0.63341 0.74851 1.2253 0.82232zm-19.441 2.6252c-2.8133-0.24368-5.026-1.6322-6.6365-4.1659-1.6058-2.5276-2.4347-5.9473-2.4823-10.253-0.04736-4.299 0.70564-7.7428 2.2553-10.318 1.5544-2.5823 3.7359-4.0193 6.5431-4.3119l0.01005 2.4514c-0.5842 0.073-0.98266 0.35269-1.2009 0.83714-0.21881 0.48472-0.32253 1.443-0.30665 2.8697l0.18468 16.747c0.01587 1.4396 0.14076 2.3966 0.36989 2.8697 0.22886 0.47943 0.63341 0.7493 1.2192 0.82339zm1.0274 0.0291-0.02937-2.6649 0.06879-8e-4c0.45323-5e-3 0.76068-0.16219 0.92392-0.47201 0.15743-0.3101 0.22807-1.1345 0.21352-2.467l-0.06165-5.5917c-0.01058-0.95039-0.12118-1.6526-0.33258-2.0921-0.2114-0.44662-0.53499-0.66384-0.97076-0.65882-0.30401 3e-3 -0.56727 0.073-0.78396 0.20294-0.21643 0.13652-0.45482 0.36698-0.72099 0.69771l-0.02883-2.6112c0.64241-0.54319 1.2748-0.93822 1.8857-1.1859 0.61145-0.24791 1.252-0.37544 1.9119-0.38232 1.8815-0.0212 3.4152 0.68554 4.6014 2.1254 1.1861 1.4401 1.792 3.3621 1.8187 5.7661 0.02884 2.6183-0.74983 4.7966-2.3368 6.5487-1.5872 1.751-3.642 2.6778-6.159 2.7858zm-0.32041-29.048 0.16616-2e-3c2.0476-0.0228 3.7232 0.54822 5.0329 1.719 1.3033 1.171 1.968 2.63 1.9873 4.3844 0.0127 1.1724-0.29766 2.1402-0.9316 2.9041-0.64029 0.75697-1.4618 1.1409-2.4662 1.152-1.0091 0.0108-1.8269-0.28787-2.4535-0.8972-0.63156-0.60246-0.95038-1.4097-0.9615-2.4003-0.0077-0.703 0.19182-1.3885 0.59743-2.0357 0.40561-0.65457 0.60748-1.0642 0.6059-1.2322-0.0037-0.32808-0.12674-0.58817-0.37544-0.7792-0.24897-0.19838-0.64082-0.34099-1.1753-0.44286z" fill="#e30613" stroke-width=".26458"/>
  <path d="m12.261 171.77c-0.93689 4.808-3.3052 9.2107-6.7209 12.639-3.3176 3.329-7.6211 5.7388-12.558 6.7074-6.5987 1.2949-13.119-0.22225-18.312-3.7121-5.1956-3.4914-9.0641-8.9567-10.359-15.556-0.37782-1.9259-0.51726-3.8388-0.43868-5.7079 0.08096-1.9312 0.39344-3.8261 0.91493-5.6512l2.1704 0.61754c-0.47069 1.647-0.75327 3.3647-0.82682 5.1218-0.0717 1.7105 0.05345 3.4491 0.39449 5.1874 1.1753 5.9918 4.6847 10.952 9.3969 14.118 4.7141 3.1681 10.634 4.5442 16.627 3.3684 4.4828-0.87921 8.3865-3.0641 11.393-6.0809 3.1022-3.1131 5.253-7.1107 6.1029-11.474m-44.691-12.595c1.4523-3.941 3.9029-7.4642 7.1022-10.198 3.088-2.6392 6.8707-4.5429 11.123-5.3771 6.5987-1.2946 13.118 0.22225 18.312 3.7126 5.1956 3.4914 9.0641 8.9564 10.358 15.556 0.26432 1.3475 0.41196 2.686 0.44953 4.0055 0.03836 1.3428-0.03836 2.6845-0.22225 4.0121l-2.2326-0.30877c0.16351-1.1816 0.23098-2.3984 0.19553-3.642-0.0344-1.2073-0.16775-2.4225-0.40508-3.6343-1.1753-5.9918-4.6847-10.952-9.3972-14.118-4.7141-3.1679-10.634-4.5442-16.627-3.3682-3.8616 0.75751-7.2927 2.4831-10.091 4.8744-2.9043 2.4823-5.1297 5.6827-6.4492 9.2631z" fill="#e30613" stroke-width=".26458"/>
  <path d="m11.882 137.21 0.91466 4.7458-1.7613 0.33946 2.5405 13.185 1.7616-0.33946 0.92049 4.7781-9.6652 1.8624-0.92075-4.7781 1.7616-0.33919-2.5408-13.185-1.7613 0.33946-0.91466-4.7458" fill="#0069b4" stroke-width=".26458"/>
  <path d="m17.774 159.62-0.92049-4.7786 1.6515-0.3183-0.16166-18.565 9.8801-1.9037 6.717 17.302 1.5478-0.29819 0.92048 4.7789-7.3655 1.4192-1.7714-5.3956-3.6592 0.70485 0.40719 5.6586m-0.76438-9.901 2.849-0.54901-3.1784-8.8979z" fill="#0069b4" stroke-width=".26458"/>
  <path d="m-11.477 165.26-0.92022-4.7786 1.7613-0.3392-2.5405-13.185-1.7616 0.33946-0.9144-4.7458 9.634-1.8566 0.91414 4.7461-1.7926 0.34528 2.5411 13.185 2.9268-0.56409-0.78793-4.0915 5.6346-1.0856 1.7089 8.8699" fill="#0069b4" stroke-width=".26458"/>
  <path d="m-4.4891 162.77-0.95462 0.18732-0.0725-0.36988-2.6524 0.5207 0.07223 0.36962-0.96176 0.18865-0.3982-2.0294 0.96176-0.18865 0.07223 0.36963 2.6527-0.5207-0.07223-0.36963 0.95488-0.18706m-0.14499-0.74004-0.95488 0.18706-0.07117-0.36327-3.6145 0.70908-0.23627-1.2028 2.0489-1.6933-2.2929 0.44952-0.30903-1.5761 0.9615-0.18865 0.0725 0.36962 2.6524-0.52043-0.07223-0.36989 0.95462-0.18706 0.3093 1.5761-2.0458 1.6925 2.2897-0.44873zm-1.0057-5.1263-0.95435 0.18706-0.0717-0.36327-3.6145 0.70935-0.23601-1.2031 2.0487-1.6933-2.2929 0.4498-0.30903-1.5761 0.9615-0.18865 0.0725 0.36989 2.6527-0.52043-0.0725-0.36989 0.95462-0.18733 0.3093 1.5759-2.0452 1.6928 2.2892-0.449zm-6.3849-8.3587 0.9615-0.18865 0.06826 0.34687 3.7433-0.0164 0.40693 2.0743-3.474 1.393 0.06403 0.32517-0.96176 0.18892-0.30321-1.547 1.0837-0.36645-0.15055-0.76835-1.1401 0.0799zm2.2931 1.3703 0.11721 0.59823 1.787-0.65829z" fill="#fff" stroke-width=".26458"/>
  <path d="m-39.853 177.04-18.566 3.6423-0.32835-1.6833 18.347-3.5991c0.16722 0.55457 0.34978 1.1012 0.54689 1.6402" stroke-width=".26458"/>
  <path d="m20.101 165.28c1.7169 14.29-7.9105 27.776-22.255 30.59-2.0307 0.3982-4.0539 0.56224-6.0431 0.5125 0.69083-0.0857 1.3835-0.19579 2.077-0.33205 7.661-1.5031 14.068-5.8452 18.341-11.719 4.1688-5.7298 6.3066-12.919 5.5978-20.351l23.324-4.5754c0.38735-0.0757 0.69824-0.53816 0.62098-0.92472l-10.818-54.102 1.1298-0.22145 11.048 56.607" stroke-width=".26458"/>
 </g>
</svg>
