<svg id="a" width="1754pt" height="725pt" version="1.1" viewBox="0 0 1754 725" xmlns="http://www.w3.org/2000/svg">
 <g id="b">
  <path id="c" d="m1029.4 0h724.63v725h-724.63l-3e-4 -725" fill="#ba2028"/>
 </g>
 <g id="d" fill="#1c1c1a">
  <path id="e" d="m0 143c46.33 0 92.67 0.01 139 0 15.77 0.27 31.61 2.24 46.66 7.09 19.75 6.35 38.91 16.67 52.24 32.91 13.59 16.35 19.61 37.96 19.37 58.99 0.45 20.44-5.45 41.15-17.57 57.72-11.04 15.48-26.82 27-43.93 34.97l74.22 143.57h-84.98l-60.26-121.48h-46.99v121.48h-77.76v-335.25m77.76 54.265v103.49h41.27c14.07-0.06 28.94-2.565 40.27-11.485 10.3-7.83 15.88-20.52 17.09-33.17 1.49-14.46-0.92-30.33-10.78-41.59-10.27-11.81-26.36-16.605-41.54-17.245z"/>
  <path id="f" d="m692.76 143h69.24v335.24h-69.25l0.02-23.86c-11.5 12.99-27.98 20.66-44.61 24.69-18.61 4.09-38.28 2.09-56.27-3.81-17.54-5.84-33.21-17.29-43.67-32.58-12.64-18.04-18.3-40.01-20.3-61.7-1.78-20.81-1.1-41.98 3.39-62.42 4.52-20.39 13.93-40.36 29.85-54.3 20.19-18.04 48.43-24.44 74.93-22.84 16.29 1.83 32.29 7.38 45.9 16.58 4 2.79 7.75 5.97 10.77 9.82v-124.82m-54.19 150.8c-10.48 1.77-20.13 7.83-26.19 16.57-8.75 12.37-11.62 27.8-12.5 42.64-0.57 15.76 0.06 31.92 5.41 46.91 3.4 9.46 9.33 18.44 18.17 23.59 11.06 6.48 24.85 7.13 37.04 3.83 10.63-2.84 19.65-10.55 24.42-20.42 6.29-12.28 6.25-26.43 6.08-39.88-0.14-14.02 0.82-28.32-2.88-42-2.58-9.69-7.73-19.14-16.16-24.93-9.62-6.67-22.04-8.2-33.39-6.31z"/>
  <path id="g" d="m800 143h71.99v64.76h-71.99z"/>
  <path id="h" d="m361.84 242.87c17.46-3.36 35.4-3.49 53.05-1.74 18.36 2 37.29 6.93 51.71 19.03 12.54 10.28 19.97 25.57 23.2 41.23 2.37 11.01 3.14 22.32 2.95 33.57 0.01 26.33-0.01 52.67 0.01 79 0.15 4.37 0.56 9.23 3.69 12.6 3.62 3.41 8.835 3.7 13.535 4v47.95c-14.95-0.22-29.975 0.64-44.855-1.15-9.04-1.21-18.47-3.86-25.12-10.45-4.48-4.22-7.39-9.82-9.32-15.6-11.35 15.21-29.04 24.9-47.68 27.71-18.59 2.79-38.06 2.2-55.93-4.02-14.9-5.08-28.64-14.67-36.9-28.25-9.4-14.99-11.21-33.7-8.02-50.83 2.53-13.99 9.87-27.12 20.82-36.24 10.5-9.07 23.82-14.03 37.19-17.07 28.11-6.14 57-6.7 85.62-8.33-0.11-12.15 0.77-25.29-5.79-36.12-4.46-7.82-13.4-11.85-22.09-12.56-10-0.96-21.1 0.47-28.92 7.3-6.21 5.39-8.76 13.68-9.37 21.64h-69.2c0.51-17.18 7.71-34.04 19.86-46.22 13.81-13.88 32.57-21.76 51.56-25.45m22.15 133.09c-7.56 1.6-15.27 3.83-21.53 8.55-6.2 4.88-9.02 12.86-9.69 20.5-0.91 8.66 1.57 18.06 8.07 24.14 7.15 6.68 17.67 8.56 27.09 7.06 12.45-1.71 23.43-9.91 29.51-20.78 7.71-13.23 8.72-29 8.3-43.96-13.97 0.71-27.99 1.82-41.75 4.49z"/>
  <path id="i" d="m952.92 255.81c19.94-11.15 43.165-14.96 65.775-15.15v52.57c-11.71-0.43-23.825 3.94-31.435 13.06-8.68 10.25-12.03 23.8-13.54 36.85-1.65 15.89-1.36 32.13 2.13 47.76 2.84 12.25 8.69 24.68 19.49 31.8 6.86 4.66 15.165 6.42 23.355 6.62v51.43c-25.82 0.22-52.435-5.57-73.785-20.65-14.61-10.21-26.09-24.67-33.19-40.98-8.52-19.14-11.38-40.33-11.21-61.14 0.44-21.16 3.98-42.7 13.71-61.7 8.39-17.01 22.09-31.3 38.7-40.47z"/>
  <path id="j" d="m800 247.75h71.99v230.5h-71.99z"/>
 </g>
 <g id="k" fill="#fff">
  <g id="l">
   <path id="m" d="m1602.1 216.74h17.392v218.25h69.48v32.27h-69.485l0.01 84.815c6e-4 4.71 2.5 9.32 6.46 11.89 4.5 3.01 9.88 4.38 15.16 5.37 9.45 1.64 19.065 1.74 28.635 1.69v26.48c-25.27-0.54-50.545-0.95-75.815-1.25-26.83 0.19-53.655 0.7-80.475 1.27v-26.53c10.84 0.12 21.785-0.01 32.415-2.4 4.84-1.13 9.73-2.85 13.53-6.19 3.15-2.86 4.67-7.19 4.58-11.39l-0.02-83.755h-147.76v-19.985m149.42-134.55-97.58 122.26h97.58z"/>
   <path id="n" d="m1245.1 227.95c18.72-8.35 39.46-12.07 59.91-10.91 23.4 1.1 47.23 6.15 67.43 18.45 14.68 8.9 26.81 23.18 30.13 40.35 3.59 18.97-0.13 39.94-12.51 55.14-11.19 13.95-26.99 23.04-42.41 31.57-26.85 14.33-54.4 27.99-78.03 47.44 27.13 0.04 54.25-0.02 81.38 0.02 16.33-0.28 32.63-1.35 48.93-2.4-6.77 27.53-13.63 55.03-20.3 82.58-10.19 0.18-20.37 0.02-30.55 0.09 0.79-9.54 3.87-18.74 4.22-28.32-11.32-2.07-22.9-0.87-34.34-1.19-41.62 0.31-83.27-0.89-124.84 1.26 5.53-16.55 14.81-31.7 26.62-44.51 24-26.46 55.04-44.84 82.31-67.54 11.95-10.01 23.41-21.08 31.27-34.69 5.83-10.04 9.2-21.61 8.95-33.26 0.13-9.44-2.45-19.3-8.89-26.43-6.97-7.77-17.32-11.46-27.43-12.82-12.84-1.68-26.23-1.06-38.43 3.56-8.35 3.13-16.35 8.45-20.74 16.42-6.89 12.14-3.79 29.47 8.07 37.38 9.23 6.4 21.2 3.72 31.26 1.04-0.15 7.29-2.87 14.6-8.67 19.27-15.33 13.04-39.38 15.37-56.6 4.67-8.94-5.59-15.28-14.83-18.04-24.94-3.97-14.7-1.78-31.08 6.48-43.95 8.15-12.91 21.09-22.07 34.82-28.28z"/>
  </g>
  <g id="o" transform="translate(-.11073 .00076566)">
   <path id="p" transform="matrix(.75 0 0 .75 291.11 779.5)" d="m984.49-718.06v69.312c13.144 0.31947 26.512 4.6147 35.92 14.129 12.04 11.653 17.292 28.319 20.039 44.426 3.3067 21.84 3.2134 44.214-0.3066 66.014-2.9067 16.133-8.5605 32.773-20.867 44.199-9.337 8.726-22.1 13.045-34.785 12.986v68.414c28.813-0.57333 57.759-6.7061 82.785-21.439 22.08-12.773 40.321-31.973 52.055-54.6 12.893-24.32 18.478-51.96 19.092-79.32 0.52-30.88-4.8131-62.44-19.373-89.934-13.827-26.413-36.84-47.746-64.133-59.68-22.173-10-46.253-13.894-70.426-14.508z" fill="#fff" stroke-width="1.3333"/>
  </g>
 </g>
</svg>
