<svg width="1202.2pt" height="895.78pt" version="1.1" viewBox="0 0 1202.2 895.78" xmlns="http://www.w3.org/2000/svg" xmlns:xlink="http://www.w3.org/1999/xlink">
 <defs>
  <radialGradient id="radialGradient968" cx="655.44" cy="881.55" r="415.03" gradientTransform="matrix(0 -1.4369 1.3443 0 -525.95 1793.2)" gradientUnits="userSpaceOnUse">
   <stop stop-color="#abcbd3" offset="0"/>
   <stop stop-color="#abcbd3" offset=".43208"/>
   <stop stop-color="#87b6c1" offset="1"/>
  </radialGradient>
 </defs>
 <g transform="translate(-98.544 -252.63)">
  <g fill="url(#radialGradient968)">
   <path d="m633.26 252.81v345.23c-43.147 3.1765-76.758 13.961-110.13 29.96l-175.66-279.99c75.683-57.725 186.86-98.47 285.79-95.2z"/>
   <path d="m322.14 367.67 180.51 276.33c-30.87 27.513-53.028 62.909-64 98.608l-299.37-121.02c35.881-96.785 105.67-188.73 182.86-253.92z"/>
   <path d="m661.72 252.75c91.779 1.9412 189.18 33.461 266.89 87.25-16.046 17.496-35.147 41.023-44.97 61.66-4.23 8.54-7 17.73-8.76 27.08-1.95 8.95-1.95 18.15-2.89 27.23-8.66-5.51-18.56-8.96-28.75-10.18-27.56-3.05-56.92 8.39-73.42 31.04-6.81 9.68-10.63 21.27-11.81 32.99-11.75 0.99-22.82-3.9-33.23-8.68-8.02-4.42-16.09-8.76-24.39-12.61-6.93-3.12-14.79-3.61-22.23-2.52-6.63 1.11-11.27 6.37-16.44 10.16z"/>
   <path d="m661.72 505.05h0.85c1.91 16.32 7.26 32.03 13 47.35 4.81 14.79 9.14 29.95 9.67 45.61-8.4698-0.15129-15.756-0.13129-23.52-0.02z"/>
   <path d="m130.85 646.81 296.9 121.4c-8.3167 40.474-8.8548 89.366-5.12 130.15l-310.14 75.077c-21.759-108.91-19.795-225.12 18.364-326.63z"/>
  </g>
  <path d="m1154.4 876.43c6.1-5.95 11.89-12.23 18.42-17.72-2.06 3.85-5.71 6.38-8.64 9.5-6.08 6.26-12.24 12.43-18.47 18.53-3.58 3.47-6.81 7.38-11.06 10.07 6.14-7.21 13.14-13.61 19.75-20.38z" fill="#9ac2cb"/>
 </g>
 <path d="m852.88 91.794c10.11-7.76 20.54-15.13 31.38-21.85 19.14 17.37 37.78 35.42 54.31 55.33 9.08 11.3 18.32 22.95 23.44 36.68 4.52 13.96 5.74 28.84 4.74 43.43-0.87 6.62-2.18 13.55-6.26 19.02-4.23 5.56-12.56 6.92-18.62 3.68-12.02-5.78-18.57-19.21-31.26-23.99-13.14-4.29-27.8-2.63-40.26 3.08-9.66 4.44-18.83 9.86-28.12 15-13.16 7.09-28.72 10.97-43.47 6.93-10.46-19.49-13.56-43.32-5.76-64.3 5.44-16.19 15.2-30.66 26.96-42.95 9.79-11.22 21.25-20.85 32.92-30.06z" fill="#d55037"/>
 <path d="m1007 192.93c5.32-4.11 9.82-9.11 14.86-13.53 17.4 31.63 41.93 58.92 69.42 82.12 31 25.65 65.38 46.77 100.13 66.88 2.73 1.55 5.56 2.98 8.08 4.9-15.82 10.38-31.72 20.72-46.64 32.4-8 5.62-15.05 12.41-22.73 18.43-6.87 6.12-13.09 12.93-20.07 18.92-7.46 6.59-13.13 14.82-20.03 21.93-25.7 30.84-45.62 66.5-58.2 104.63-7.73 23.96-13.05 48.71-15.68 73.75-4.64-4.54-10.06-8.33-16.19-10.53-13.58-4.97-28.24-5.02-42.51-4.81-25.77 0.97-51.29 5.15-77.02 6.75-12.6 0.45-25.47 0.67-37.67-2.98-7.75-2.48-15.14-7.66-18.22-15.44-2.17-6.03-3.29-12.83-1.02-18.99 3.5-9.82 11.49-17.11 19.6-23.23 22.27-16.19 48.22-25.98 73.35-36.71 37.99-16.68 73.5-39.05 104.92-66.14 7.37-5.9 13.86-12.79 20.56-19.42 13.46-12.93 25.61-27.14 37.32-41.67 5.36-7.17 11.23-14.01 15.88-21.68-14.32-11.16-27.73-23.45-40.17-36.65-13.71-15.07-26.97-30.57-39.03-47-10.44-14.21-20.45-28.73-29.95-43.58 3.11-11.79 11.78-20.89 21.01-28.35z" fill="#d55037"/>
 <path d="m721.97 205.6c14.03-2.61 29.01 1.24 40.21 10.04 5.39 4.48 10.37 9.66 13.9 15.75-0.49 1.28-1.95 1.84-2.93 2.68-17.62 11.5-29.99 29.85-36.42 49.68-10.15 32.38-6.96 68.73 8.51 98.92 6.52 12.44 15.19 23.91 26.14 32.79 13.1 10.84 29.5 17.43 46.35 19.35 12.37 0.93 24.83 0.4 37.01-2.04-0.12 12.35 2.26 24.71 6.99 36.13 3.44 8.81 8.34 16.95 13.21 25.02 0.96 1.67 1.99 3.34 2.45 5.24-8.83 7-18.43 13.18-29 17.22-7.36 2.63-15.02 4.99-22.92 4.72-14.1 0.78-27.65-4.44-39.98-10.77-28.15-15.42-51.63-38.1-80.29-52.67-12.07-5.7-25.03-10.63-38.53-10.72 12-9.27 16.8-24.94 17.64-39.54 0.8-6.65 0.8-13.36 0.06-20.01-0.87-18.59-4.66-36.86-7.62-55.18-3.12-17.15-5.66-34.43-6.74-51.84-0.4-15.94 1.07-32.85 9.78-46.67 8.83-15.14 25.11-25.12 42.18-28.1z" fill="#d55037"/>
 <path d="m854.2 239.66c10.75-7.91 23.59-14.45 37.32-13.57 13.32 0.69 24.92 9.09 32.68 19.5 9.34 12.87 14.8 28.31 16.73 44.03 1.73 11.86 0.74 24.13-2.69 35.61-3.71 12.28-12 23.95-24.34 28.62-11.72 4.89-24.88 3.16-36.7-0.38 7.1-25.98 6.74-54.22-2.32-79.68-4.48-12.65-11.69-24.2-20.68-34.13z" fill="#d55037"/>
 <path d="m961.34 247.29c5.68-3.43 12.51-4.98 19.12-4.28 1.72-0.02 2.78 1.44 3.79 2.62 23.7 30.84 47.19 61.89 72.7 91.27 2.66 3.01 5.26 6.08 7.71 9.27-14.57 10.87-25.79 25.4-36.34 40.03-10.78 15.26-20.83 31.03-32.08 45.96-11.27 14.82-23.54 29.48-39.45 39.51-14.19 9.07-31.61 13.16-48.31 10.64-11.96-2.18-22.31-10.65-27.49-21.54-3.73-8.22-4.78-17.5-3.86-26.43 1.43-10.49 6.34-20.24 12.93-28.43 13.36-17.08 32.03-28.65 48.24-42.71 6.3-5.75 12.86-11.75 16.21-19.79 4.61-10.37 5.02-21.88 4.72-33.04 0.53-19.48-3.05-39.02-0.06-58.42 0.36-1.66 0.34-3.87 2.17-4.66z" fill="#d55037"/>
 <path d="m578.01 248.41c6.04-1.67 12.52-1.72 18.53 0.1 10.97 3.14 19.74 10.78 29.5 16.32 9.38 5.5 20.43 7.91 31.26 7.03 5.24 19.4 7.53 39.49 8.41 59.53 0.89 27.2-1.03 54.61-7.35 81.14-3.18 12.93-7.53 25.74-14.54 37.14-1.77 2.68-3.49 5.4-4.73 8.38 18.02 0.43 36.02 3.97 52.51 11.38 19.32 8.83 36.06 22.14 52.84 34.95 17.09 13.09 35.17 25.69 55.99 31.97 2.42 0.68 4.93 1.15 7.27 2.13-0.6 12.97-0.79 26.4 3.88 38.76 2.95 7.39 7.15 14.54 13.45 19.56 7.43 5.99 16.21 10.36 25.55 12.42 14.32 3.76 29.2 3.79 43.88 4.47 11.66-0.26 23.31-0.98 34.99-1.01 24.11-1.21 48.48-1.9 72.4 1.88 8.86 1.3 17.29 4.32 25.87 6.74 2.88-20.05 7.06-39.93 12.38-59.48 5.17-18.7 12-37.1 22.09-53.75 7.69-12.82 17.67-24.32 29.65-33.29 1.64-1.18 3.52-1.97 5.38-2.77 10.96 10.98 25.52 17.14 39.72 22.76 13.92 5.43 28.02 10.94 40.17 19.83-10.17 14.82-24.46 26.16-39.01 36.43-15.21 10.93-31.04 21.33-44.1 34.88-6.24 7.03-13.13 13.45-19.69 20.17-6.53 5.49-12.32 11.77-18.42 17.72-6.61 6.77-13.61 13.17-19.75 20.38-14.71 13.92-28.04 29.22-41.62 44.24-11.12 12.35-21.84 25.05-32.83 37.52-31.66-23.07-63.23-47.4-99.99-61.89-9.5-3.89-19.26-7.17-29.29-9.41-20.01-4.75-40.7-4.01-61-6.49-10.81-0.84-21.53-2.86-31.97-5.75-13.1-3.71-25.72-11.03-33.31-22.6-8.57-13.66-11.24-30.24-11.05-46.13-11.88 0.28-23.87-0.63-35.44-3.46-13.52-3.44-26.49-10.89-34.46-22.59-10.39-14.96-13.78-33.45-15.1-51.28-0.12-8.67-1.63-17.29-0.72-25.97 1.05-8.24 0.24-16.59 1.18-24.84 0.81-7.03 0.22-14.14 1.17-21.16 1.06-16.48-0.25-33.03-2.96-49.28-4.04-24.6-12.1-48.26-19.18-72.09-5.42-17.78-10.87-35.89-11.56-54.59z" fill="#d55037"/>
 <path d="m777.8 264.63c15.57-8.51 34.38-11.6 51.66-7.05 7.95 1.9 15.09 6.06 21.95 10.38-16.33 2.35-32.69 10.51-41.49 24.93-11.91 17.06-13.05 39.09-9.87 59.03 29.61 9.59 60.4 16.39 88.23 30.75-7.92 10.4-18.29 19.18-30.57 23.92-14.26 5.87-30.32 6.96-45.33 3.57-15.89-3.25-30.55-11.32-42.43-22.27-19.83-18.8-29.71-47.45-25.99-74.49 0.68-5.76 1.58-11.56 3.42-17.07 5.97-13.72 17.03-25.06 30.42-31.7z" fill="#d55037"/>
 <path d="m836.77 292.59c7.64-1.92 16.16 1.36 20.9 7.58 4.91 6.27 6.91 14.38 7.23 22.21 0.05 8.88-2.17 18.37-8.51 24.92-5.07 5.55-13.4 7.8-20.57 5.6-5.94-1.56-10.64-6.16-13.34-11.54-5.55-10.99-5.71-24.41-0.67-35.62 2.79-6.26 8.03-11.75 14.96-13.15z" fill="#d55037"/>
 <path d="m518.67 377.56c14.41-3.93 29.51-2.37 43.88 0.87 9.94 2.2 19.76 4.96 29.67 7.3-3.49 38.05-8.35 76.31-5.19 114.57 1.84 18.48 5.73 37.5 16.33 53.11 7.4 11.43 18.86 20.07 31.73 24.44 13.71 4.72 28.45 5.76 42.85 4.78-0.88 16.74 2.84 34.41 13.67 47.61 10.9 12.99 26.66 20.66 42.58 25.66 29.35 9.52 60.57 12.64 89.12 24.74-2.62 15.49-14.44 27.71-28.11 34.52-19.02 9.17-40.68 11.94-61.57 10.2-19.99-1.51-40.1-6.44-57.38-16.87-3.33-2.26-7.59-4.29-8.42-8.65-4.94-16.4-14.74-30.94-26.47-43.25-16.27-15.14-36.14-25.83-56.98-33.26-24.59-8.74-50.22-14.1-75.88-18.59 1.87-6.09 4.57-11.9 6.45-17.98 9.62-28.88 14.85-59.11 16.96-89.44 0.27-12.98 1.77-25.99 0.35-38.97-0.75-27.38-5.13-54.71-13.59-80.79z" fill="#d55037"/>
 <path d="m391.89 780.13c5.79-0.63 11.66-0.52 17.47-0.14 12.99 1.66 25.48 8.66 32.85 19.63 9.09 13.26 11.85 29.99 10.38 45.78-1.02 10.31-4.13 20.52-9.88 29.2-7.54 11.48-20.43 19.48-34.2 20.55-6.97 1.21-14.07 0.21-20.95-1.08-14.65-3.29-26.82-14.6-32.4-28.39-7.52-18.09-7.38-39.3 0.34-57.29 6.22-14.86 20.37-26.08 36.39-28.26m3.02 28.94c-9.11 2.32-14.91 11.13-16.65 19.94-1.42 10.13-0.89 21.42 5.84 29.71 7.54 9.96 23.91 10.72 32.61 1.91 6.7-6.45 8.58-16.3 8.24-25.24-0.26-9.05-3.68-18.86-11.77-23.76-5.34-3.62-12.15-3.49-18.27-2.56z" fill="#d55037"/>
 <path d="m860.6 794.5c12.35-13.28 32.03-17.34 49.37-13.94 8 1.45 15.655 4.34 23.235 7.22v30.08c-7.03-4.15-13.475-9.96-21.815-11.23-9.84-2.19-20.69 0.67-27.88 7.8-10.52 10.2-12.26 27.59-5.17 40.19 3.77 7.05 10.71 12.38 18.53 14.11 6.97 1.12 14.26 0.41 20.81-2.3 5.84-2.06 10.885-5.82 16.015-9.19v28.34c-7.76 5.29-16.825 8.61-26.175 9.52-13.54 1.93-28.28-0.15-39.64-8.16-12.64-8.92-19.56-24-21.23-39.08-2.3-18.53 0.64-39.31 13.95-53.36z" fill="#d55037"/>
 <path d="m49.456 781.07c7.81-0.31 15.91 2.19 21.47 7.82 6.24 5.82 9.43 14.17 10.6 22.48 1.03 8.97-0.48 18.65-6.12 25.94-2.25 2.81-5.27 4.84-8.09 7.03 8.71 6.81 11.74 17.78 15.59 27.63 2.12 5.3 3.72 10.83 6.31 15.94l38.37-106.88h30.75l39.98 113.02h-28.39l-7.3304-22.455-39.62 0.08-7.39 22.375h-54.28c-3.45-9.66-6.67-19.485-10.57-28.975-2.08-4.61-4.28-9.46-8.31-12.71-3.41-2.46-7.895-2.4-11.915-2.36v44.045h-27.755v-112.98zm-18.945 49.04c5.93-0.11 12.215 0.45 17.805-1.95 4.09-1.81 5.15-6.74 5.43-10.76 0.03-4.44-1.08-9.64-5.17-12.1-5.4-3.28-12.035-2.48-18.065-2.63zm99.365 21.44 26.19-0.03-13.105-40.3z" fill="#d55037"/>
 <path d="m239.46 781.03c12.23-0.39 25.14 0.99 35.74 7.6 11.87 7.66 18.98 20.89 21.78 34.47 2.71 13.75 2.41 28.4-2.27 41.7-4.82 11.31-12.61 22.72-24.71 26.94-5.9 2.31-12.3 2.4-18.54 2.33h-46.305v-113.04zm-6.745 22.65v66.85c7.38 0.22 15.075 0.81 22.155-1.77 6.2-2.23 11.75-6.96 13.59-13.47 2.9-9.96 2.97-20.68 0.89-30.81-1.86-8.28-7.28-16.49-15.64-19.23-6.72-2.54-14.005-1.23-20.995-1.57z" fill="#d55037"/>
 <path d="m310.37 781.03h27.425v113.04h-27.425z" fill="#d55037"/>
 <path d="m976.47 781.03h30.15l40 113.02h-28l-7.45-22.395h-39.56l-7.49 22.395h-28.44m42.8-42.715h25.98l-12.915-40.35z" fill="#d55037"/>
 <path d="m1053.3 781.03h27.62v86.085h41.99v26.93h-69.61z" fill="#d55037"/>
 <path d="m1133.4 781.03h67.79v22.585h-40.005v20.555h38.08v22.875h-38.08v24.17h41.075v22.83h-68.86z" fill="#d55037"/>
 <path d="m546.31 781.07c7.81-0.31 15.91 2.19 21.47 7.82 6.24 5.82 9.43 14.17 10.6 22.48 1.03 8.97-0.48 18.65-6.12 25.94-2.25 2.81-5.27 4.84-8.09 7.03 8.71 6.81 11.74 17.78 15.59 27.63 2.12 5.3 3.72 10.83 6.31 15.94l38.37-106.88h30.75l39.98 113.02h-28.39l-7.3304-22.455-39.62 0.08-7.39 22.375-54.28-2e-4c-3.45-9.66-6.67-19.485-10.57-28.975-2.08-4.61-4.28-9.46-8.31-12.71-3.41-2.46-7.895-2.4-11.915-2.36v44.045h-27.755v-112.98zm-18.945 49.04c5.93-0.11 12.215 0.45 17.805-1.95 4.09-1.81 5.15-6.74 5.43-10.76 0.03-4.44-1.08-9.64-5.17-12.1-5.4-3.28-12.035-2.48-18.065-2.63zm99.365 21.44 26.19-0.03-13.105-40.3z" fill="#d55037"/>
 <path d="m736.31 781.03c12.23-0.39 25.14 0.99 35.74 7.6 11.87 7.66 18.98 20.89 21.78 34.47 2.71 13.75 2.41 28.4-2.27 41.7-4.82 11.31-12.61 22.72-24.71 26.94-5.9 2.31-12.3 2.4-18.54 2.33h-46.305v-113.04zm-6.745 22.65v66.85c7.38 0.22 15.075 0.81 22.155-1.77 6.2-2.23 11.75-6.96 13.59-13.47 2.9-9.96 2.97-20.68 0.89-30.81-1.86-8.28-7.28-16.49-15.64-19.23-6.72-2.54-14.005-1.23-20.995-1.57z" fill="#d55037"/>
 <path d="m807.23 781.03h27.425v113.04h-27.425z" fill="#d55037"/>
</svg>
