<svg id="a" width="972.32pt" height="305.39pt" version="1.1" viewBox="0 0 972.32 305.39" xmlns="http://www.w3.org/2000/svg">
 <path id="b" d="M 0,0.01 274.74,0 274.73,274.84 0,274.81 V 0.01" fill="#fff"/>
 <g id="c" transform="translate(-16.63,-319.17)">
  <path id="d" d="m19.95 322.41 268.23 0.09-0.04 268.2h-268.24l0.05-268.29" fill="#fdf21e"/>
 </g>
 <path id="e" d="m609.08 8.22c7.35 0 14.7-0.01 22.06 0.01-0.02 7.02 0.07 14.04-0.05 21.05-7.33-0.08-14.66-0.02-21.99-0.03-0.01-7.01 0.02-14.02-0.02-21.03z" fill="#fff"/>
 <path id="f" d="m65.741 7.9355c-0.07861 6.975e-4 -0.15722 0.0045-0.23584 6e-3 -0.28191 0.00225-0.56338 0.013725-0.84521 0.020475-0.35494 0.0102-0.71 0.023775-1.0649 0.041025-0.71438 0.030375-1.4274 0.072075-2.1401 0.1289-7.3571 0.50732-14.559 2.5285-21.151 5.7964-0.02587 0.01275-0.05178 0.02528-0.07764 0.0381-0.68541 0.34107-1.3616 0.69877-2.0332 1.0664-0.25609 0.13956-0.51219 0.27837-0.76611 0.42188-0.03733 0.02107-0.07405 0.04327-0.11133 0.06442-0.52235 0.29761-1.0397 0.60499-1.5527 0.91846-0.29725 0.18169-0.59384 0.36356-0.8877 0.55078-0.60894 0.3871-1.2089 0.78754-1.8032 1.1968-0.18977 0.13156-0.38022 0.26156-0.56836 0.3955-0.25487 0.17997-0.50683 0.36386-0.75879 0.54785-0.05346 0.03945-0.10781 0.07754-0.16113 0.11719-1.1791 0.8672-2.3261 1.7773-3.4365 2.7305-0.05207 0.04455-0.10337 0.09004-0.15527 0.13477-0.30755 0.2659-0.61219 0.53481-0.91406 0.80713-0.13362 0.12029-0.26598 0.24172-0.39844 0.36328-0.22336 0.2053-0.44642 0.41083-0.6665 0.61963-0.17148 0.16252-0.34032 0.32756-0.50977 0.49219-0.19354 0.18822-0.38775 0.37597-0.57861 0.5669-0.19093 0.19086-0.37868 0.38507-0.56689 0.57862-0.16464 0.16944-0.32967 0.33828-0.49219 0.50977-0.2088 0.22008-0.41433 0.44314-0.61963 0.6665-0.12156 0.13246-0.24299 0.26482-0.36328 0.39844-0.25989 0.2881-0.51645 0.5783-0.77051 0.87158-0.06562 0.07598-0.13108 0.15218-0.19629 0.22851-0.9493 1.1074-1.8564 2.2507-2.7202 3.4263-0.0275 0.03705-0.05462 0.07425-0.08203 0.11133-0.19109 0.26134-0.38161 0.52361-0.56836 0.78808-0.13395 0.18814-0.26395 0.37859-0.39551 0.56836-0.40923 0.59429-0.80968 1.1943-1.1968 1.8032-0.18722 0.29386-0.3691 0.59044-0.55078 0.8877-0.31348 0.51301-0.62085 1.0304-0.91846 1.5527-0.02122 0.0372-0.04332 0.07402-0.06445 0.11133-0.1435 0.25392-0.28231 0.51002-0.42188 0.76611-0.36764 0.67162-0.72534 1.3478-1.0664 2.0332-0.01249 0.02528-0.02417 0.05085-0.03662 0.07617-3.2684 6.592-5.2905 13.795-5.7979 21.152-0.056827 0.71275-0.098554 1.4258-0.12891 2.1401-0.01725 0.35494-0.030802 0.71-0.041017 1.0649-0.00675 0.28184-0.017918 0.5633-0.020505 0.84522-0.011392 0.86714 0.00232 1.7331 0.032228 2.5986 0.00127 0.03562 0.00157 0.07133 0.00292 0.10694 0.098725 2.7071 0.3972 5.4023 0.88477 8.0625 0.054105 0.30492 0.11218 0.60871 0.17139 0.91259 0.055245 0.27608 0.11501 0.55094 0.17432 0.82618 1.9008 9.0223 6.0348 17.538 11.862 24.68 0.10195 0.12503 0.20461 0.24936 0.30762 0.37354 0.65951 0.79475 1.3382 1.5721 2.0391 2.3306 2.0924 2.2643 4.3557 4.3722 6.7896 6.2695 4.4774-4.5075 8.9697-8.999 13.459-13.494 8.9539-8.9191 17.893-17.854 26.82-26.801 0.15374-0.15338 0.30769-0.30658 0.46142-0.45996 0.15339-0.15374 0.30658-0.30769 0.45996-0.46143 8.9471-8.9267 17.882-17.866 26.801-26.82 4.4951-4.4893 8.9866-8.9816 13.494-13.459-1.882-2.4141-3.9705-4.6614-6.2139-6.7397-0.10338-0.09594-0.20939-0.18902-0.31347-0.28418-0.66282-0.60512-1.3387-1.1943-2.0288-1.7681-0.15183-0.1262-0.30391-0.25184-0.45703-0.37646-0.7949-0.64743-1.6053-1.2745-2.4331-1.8794-6.6014-4.8237-14.205-8.2648-22.207-9.9507-0.27812-0.059925-0.55597-0.12-0.83496-0.17578-0.29035-0.05655-0.58028-0.11366-0.87158-0.16552-2.6793-0.49264-5.3942-0.79249-8.1211-0.89062-0.0088-3.15e-4 -0.01755-0.0015-0.0264-0.0015-0.0097-3.675e-4 -0.0195 3.6e-4 -0.02933 0-0.79538-0.027825-1.5909-0.045075-2.3877-0.0381z"/>
 <path id="g" d="m314.15 8.72h54.21c8.44 0.14 17.55 1.15 24.29 6.75 14.29 11.35 16.64 34.11 5.81 48.56-2.73 3.48-6.59 5.79-10.62 7.48 5.3 2.29 10.28 6.24 12.11 11.91 3.82 11.26 1.13 23.32 2.69 34.88 0.35 2.62 1.6 5.02 3.55 6.8 1.27 0.84 0.75 2.43 0.94 3.7-8.67 0.08-17.33-0.03-26 0.06-3.36-10.39-2.18-21.39-2.86-32.11-0.39-4.32-1.02-9.34-4.66-12.22-3.53-2.52-8.08-2.8-12.27-2.93-8.02-0.01-16.04 0.02-24.06-0.01 0 15.75-0.01 31.49 0.01 47.24h-23.14v-120.11m23.13 20.54c0 10.88 0.01 21.77-0.01 32.66 8.72 0 17.43 0.02 26.15 0 4.62-0.13 9.76-0.33 13.5-3.42 3.74-2.99 4.74-8.1 4.68-12.65-0.07-4.76-1.11-10.05-4.94-13.26-3.68-3.07-8.73-3.25-13.29-3.32-8.7-0.05-17.39-0.02-26.09-0.01z" fill="#fff"/>
 <path id="h" d="m567.28 9c7.38 0 14.76 0.01 22.14 0v119.82c-7.02 0.02-14.03 0.01-21.05 0.01 0.01-3.97 0.03-7.93-0.1-11.89-3.38 5.8-8.28 11.09-14.78 13.29-9.86 3.28-21.51 1.9-29.65-4.82-10.87-8.72-15.96-22.94-16.12-36.58-0.31-14.22 2.28-29.59 12.11-40.5 8.8-10.03 24.5-13.41 36.52-7.56 4.57 2.4 8.28 6.21 10.96 10.6-0.07-14.12 0-28.25-0.03-42.37m-24.59 50.3c-7.33 2.77-10.26 10.99-11.54 18.07-1.24 9.5-0.88 19.94 4.3 28.31 5.73 9.3 21.08 9.29 27.18 0.4 5-6.96 5.87-15.97 5.3-24.28-0.47-7.09-2.49-14.66-8.01-19.51-4.57-4.22-11.51-5.05-17.23-2.99z" fill="#fff"/>
 <path id="i" d="m682.88 37.56c10.08-1.09 20.84-0.16 29.75 5.06 8.08 4.64 13.33 12.91 16.69 21.38 4.49 12.05 4.75 25.58 1.18 37.89-3.17 10.2-9.29 20.16-18.99 25.26-9.43 4.94-20.56 5.55-30.93 4.04-9.24-1.38-18.12-6.13-23.57-13.83-8.63-11.45-11.44-26.45-9.72-40.49 1.22-10.49 5.57-20.68 12.67-28.54 5.92-6.37 14.38-9.84 22.92-10.77m1.67 19.48c-8.51 2-13.15 10.7-14.21 18.77-1.29 9.68-1.13 20.38 4.19 28.93 6.21 10.14 22.88 10.69 29.89 1.16 4.73-6.26 5.65-14.45 5.67-22.06-0.16-7.69-1.38-16.03-6.7-21.96-4.64-5.18-12.32-6.46-18.84-4.84z" fill="#fff"/>
 <path id="j" d="m432.89 45.27c7.64-6.18 17.93-7.49 27.45-7.28 8.72 0.17 17.61 2.18 25.05 6.88 5.87 3.91 8.38 11.15 8.67 17.93 0.37 18.35-0.31 36.71 0.38 55.05-0.11 3.24 1.56 6.23 4.52 7.65 0.02 1.09 0.05 2.19 0.09 3.3-8.01 0.08-16.02-0.02-24.02 0.06-1.21-3.33-1.78-6.82-2.01-10.33-5.22 5.77-11.7 10.91-19.46 12.6-9.25 2.06-19.89 0.26-26.71-6.7-6.74-6.58-7.85-16.84-6.37-25.71 1.1-7.32 5.6-14.05 12.11-17.63 7.58-4.18 16.42-4.91 24.84-6.08 4.26-0.69 8.93-0.94 12.46-3.72 2.84-2.25 2.8-6.47 1.56-9.56-1.42-3.65-5.68-4.64-9.14-5.11-4.72-0.45-10.01-0.55-13.97 2.44-2.88 2.32-3.82 6.11-4.59 9.55-7.09-0.01-14.17 0-21.25 0 0.53-8.63 3.4-17.77 10.39-23.34m14.89 48c-8 3.9-8.02 18.35 0.94 21.09 6.82 1.89 14.6-0.72 19.36-5.86 5.03-6.49 3.95-15.18 4.07-22.86-7.29 4.89-16.66 3.8-24.37 7.63z" fill="#fff"/>
 <path id="k" d="m609.09 40.01c7.35-0.01 14.71-0.01 22.07 0-0.02 29.6-0.01 59.21-0.01 88.81-7.35 0.01-14.7 0.01-22.05 0-0.01-29.6 0.02-59.21-0.01-88.81z" fill="#fff"/>
 <path id="l" d="m130.47 80.01c14.43-1.87 29.5 2.06 41.22 10.67 12.43 8.99 21.06 23.07 23.26 38.26 2.3 14.5-1.29 29.79-9.71 41.8-8.34 12.06-21.39 20.75-35.76 23.72-12.1 2.48-25.01 1.14-36.22-4.11-13.51-6.2-24.42-17.81-29.78-31.67-6.36-16.07-4.96-35 3.76-49.92 8.85-15.65 25.35-26.7 43.23-28.75z"/>
 <path id="m" d="m314.15 150.52c16.73-0.01 33.47-0.04 50.2 0.01 10 0.13 20.58 3.29 27.39 10.97 6.57 7.39 8.33 17.7 8.3 27.28-0.08 8.99-1.26 18.6-6.7 26.07-6.26 8.27-16.99 11.61-26.97 12.21-9.52 0.39-19.06 0.11-28.58 0.17-0.01 14.41-0.02 28.81 0 43.21-7.88-0.03-15.77 0.05-23.65-0.04 0.02-39.97 0.01-79.93 0.01-119.88m23.64 20.42c-0.01 11.91-0.02 23.82 0 35.73 7.19-0.02 14.37 0 21.56 0 4.28 0.04 8.76-0.99 12.04-3.89 3.41-2.96 4.68-7.62 4.91-11.98 0.21-4.6-0.02-9.52-2.51-13.54-2.89-4.39-8.38-6.21-13.43-6.28-7.53-0.1-15.05-0.01-22.57-0.04z" fill="#fff"/>
 <path id="n" d="m704.9 150.72c7.39 0.08 14.78-0.18 22.16 0.14-0.12 39.86-0.01 79.73-0.06 119.6-7.37-0.05-14.73 0-22.1-0.03 0.03-39.9 0.02-79.81 0-119.71z" fill="#fff"/>
 <path id="o" d="m267.21 209.52c-7e-4 0.0786-5e-3 0.15721-6e-3 0.23583-2e-3 0.28191-0.0137 0.56338-0.0205 0.84522-0.0102 0.35494-0.0238 0.70999-0.041 1.0649-0.0304 0.71438-0.0721 1.4274-0.1289 2.1401-0.50733 7.3571-2.5285 14.559-5.7964 21.151-0.0127 0.0259-0.0253 0.0518-0.0381 0.0776-0.34107 0.68541-0.69877 1.3616-1.0664 2.0332-0.13956 0.25608-0.27837 0.51219-0.42188 0.76611-0.0211 0.0373-0.0433 0.074-0.0644 0.11133-0.29761 0.52235-0.60499 1.0397-0.91846 1.5527-0.18169 0.29725-0.36356 0.59384-0.55079 0.8877-0.38709 0.60894-0.78754 1.2089-1.1968 1.8032-0.13156 0.18977-0.26156 0.38022-0.39551 0.56836-0.17997 0.25487-0.36385 0.50683-0.54785 0.75879-0.0394 0.0535-0.0775 0.10781-0.11719 0.16113-0.86719 1.1791-1.7773 2.3261-2.7305 3.4365-0.0446 0.0521-0.09 0.10337-0.13477 0.15527-0.2659 0.30755-0.53481 0.61219-0.80712 0.91406-0.1203 0.13362-0.24172 0.26598-0.36328 0.39844-0.20531 0.22336-0.41083 0.44642-0.61963 0.6665-0.16252 0.17149-0.32755 0.34033-0.49218 0.50977-0.18822 0.19354-0.37597 0.38775-0.5669 0.57861-0.19086 0.19093-0.38507 0.37868-0.57862 0.5669-0.16944 0.16463-0.33828 0.32967-0.50976 0.49218-0.22008 0.20881-0.44315 0.41433-0.66651 0.61963-0.13245 0.12156-0.26481 0.24299-0.39843 0.36328-0.2881 0.2599-0.57831 0.51645-0.87159 0.77051-0.076 0.0656-0.15217 0.13108-0.22851 0.19629-1.1074 0.9493-2.2507 1.8564-3.4263 2.7202-0.037 0.0275-0.0743 0.0546-0.11133 0.082-0.26134 0.19109-0.52361 0.3816-0.78808 0.56835-0.18815 0.13395-0.37859 0.26396-0.56836 0.39551-0.59429 0.40923-1.1943 0.80968-1.8032 1.1968-0.29386 0.18722-0.59045 0.3691-0.8877 0.55078-0.51301 0.31348-1.0304 0.62085-1.5527 0.91846-0.0372 0.0212-0.074 0.0433-0.11133 0.0645-0.25392 0.1435-0.51002 0.28231-0.76611 0.42187-0.67162 0.36764-1.3478 0.72534-2.0332 1.0664-0.0253 0.0125-0.0509 0.0242-0.0762 0.0366-6.592 3.2684-13.795 5.2905-21.152 5.7978-0.71275 0.0568-1.4258 0.0985-2.1401 0.12891-0.35495 0.0172-0.71 0.0308-1.0649 0.041-0.28184 7e-3 -0.5633 0.0179-0.84522 0.0205-0.86714 0.0114-1.7331-2e-3 -2.5986-0.0322-0.0356-1e-3 -0.0713-2e-3 -0.10694-3e-3 -2.7071-0.0987-5.4023-0.3972-8.0625-0.88477-0.30492-0.0541-0.6087-0.11218-0.91259-0.17138-0.27608-0.0552-0.55094-0.11502-0.82618-0.17432-9.0223-1.9008-17.538-6.0348-24.68-11.862-0.12503-0.10195-0.24936-0.20461-0.37353-0.30761-0.79476-0.65951-1.5721-1.3382-2.3306-2.0391-2.2643-2.0924-4.3722-4.3557-6.2695-6.7896 4.5075-4.4774 8.999-8.9697 13.494-13.459 8.9191-8.9539 17.854-17.893 26.801-26.82 0.15338-0.15375 0.30657-0.30769 0.45996-0.46143 0.15374-0.15339 0.30768-0.30657 0.46143-0.45996 8.9267-8.9471 17.866-17.882 26.82-26.801 4.4893-4.4951 8.9816-8.9866 13.459-13.494 2.4141 1.882 4.6614 3.9705 6.7397 6.2139 0.0959 0.10338 0.18903 0.20939 0.28419 0.31347 0.60512 0.66281 1.1942 1.3387 1.7681 2.0288 0.1262 0.15183 0.25184 0.30391 0.37646 0.45703 0.64743 0.79489 1.2745 1.6053 1.8794 2.4331 4.8237 6.6014 8.2648 14.205 9.9507 22.207 0.0599 0.27812 0.12 0.55597 0.17579 0.83496 0.0566 0.29035 0.11366 0.58028 0.16552 0.87158 0.49265 2.6793 0.79249 5.3942 0.89063 8.1211 3.1e-4 9e-3 2e-3 0.0175 2e-3 0.0264 3.7e-4 0.01-3.6e-4 0.0195 0 0.0293 0.0278 0.79538 0.0451 1.5909 0.0381 2.3877z"/>
 <path id="p" d="m444.93 179.63c11.44-1.79 23.99-0.94 33.94 5.5 9.11 6.14 14.64 16.45 17.31 26.89 3.42 15 1.66 31.69-6.95 44.7-4.38 7.07-11.34 12.45-19.33 14.77-8.61 2.52-17.85 2.68-26.62 0.94-8.61-1.68-16.66-6.54-21.68-13.81-8.35-11.29-11.07-25.95-9.47-39.72 1.11-10.33 5.3-20.34 12.08-28.23 5.3-6.02 12.88-9.71 20.72-11.04m5 18.95c-4.48 0.97-8.4 3.9-10.79 7.79-3.98 6.38-4.69 14.16-4.57 21.51 0.22 6.94 1.46 14.28 5.85 19.9 6.92 9.02 22.78 8.8 29.22-0.68 4.73-6.7 5.45-15.27 5.26-23.23-0.28-7.29-1.71-15.18-6.95-20.63-4.51-4.83-11.77-6.06-18.02-4.66z" fill="#fff"/>
 <path id="q" d="m636.84 179.62c10.89-1.69 22.72-0.99 32.45 4.63 7.56 4.34 12.67 11.88 16.08 19.73 5.17 12.44 5.54 26.69 1.84 39.59-3.19 10.18-9.28 20.19-19 25.26-9.14 4.76-19.88 5.46-29.94 4.17-9.46-1.23-18.69-5.86-24.34-13.7-9.9-13.03-12.3-30.57-8.96-46.32 1.95-8.65 6.04-16.91 12.11-23.4 5.25-5.41 12.37-8.72 19.76-9.96m5.09 18.94c-6.07 1.2-10.79 6.05-12.93 11.69-2.99 7.73-3.01 16.3-1.98 24.43 1.04 7.02 4.29 14.49 10.98 17.78 7.37 3.45 17.39 2.3 22.66-4.31 5.26-6.47 6.24-15.25 6.12-23.3-0.16-7.59-1.53-15.87-6.95-21.58-4.49-4.8-11.68-6.07-17.9-4.71z" fill="#fff"/>
 <path id="r" d="m548.08 181.65c10.74-3.94 23.53-1.23 31.86 6.58 8.18 7.13 11.92 17.96 12.87 28.51 0.9 11.09 0.38 22.55-3.44 33.1-3.64 9.98-11.53 18.88-21.95 21.87-7.95 2.21-17.05 1.96-24.2-2.49-3.89-2.38-6.58-6.16-9.13-9.83-0.01 15.33 0.01 30.66 0 45.99-7.35 0.02-14.7 0-22.05 0.01 0.01-41.25 0-82.5 0-123.75 7.09 0.04 14.19 0.02 21.28 0.02 0.01 4.42-0.07 8.84 0.13 13.27 3.34-5.79 8.24-10.95 14.63-13.28m-0.18 18.82c-8.25 1.3-12.84 9.64-13.96 17.24-1.36 9.56-1.81 20.35 3.69 28.78 5.35 8.22 18.33 9.93 25.38 3.02 4.82-4.88 6.61-11.92 7.15-18.57 0.7-8.64-0.5-17.94-5.71-25.11-3.75-5.03-10.65-6.46-16.55-5.36z" fill="#fff"/>
 <path id="s" d="m753.61 188.28c6.3-6.07 15.28-8.18 23.77-8.61 10.36-0.5 21.19 1.21 30.1 6.77 6.39 4.13 8.77 12.09 8.89 19.33 0.24 17.71-0.21 35.42 0.25 53.13-0.13 3.43 1.37 6.76 4.59 8.29 0 1.08 0.01 2.16 0.04 3.25-8 0-16-0.02-24 0.01-1.23-3.29-1.71-6.77-2.07-10.24-5.21 5.91-11.85 11.05-19.73 12.65-9.36 1.98-20.14-0.01-26.84-7.25-6.58-6.93-7.45-17.39-5.69-26.36 1.42-7.52 6.65-14.06 13.55-17.28 8.78-4.15 18.64-4.46 28.06-6.04 3.54-0.71 7.85-1.77 9.41-5.45 1.12-3.31 0.51-7.63-2.39-9.86-2.99-2-6.72-2.44-10.22-2.57-3.79-0.08-7.92 0.37-10.96 2.84-2.74 2.36-3.65 6.04-4.38 9.42-7.1 0.03-14.2 0.02-21.3 0.01 0.61-7.99 2.94-16.37 8.92-22.04m15.98 46.89c-7.62 4.18-7.42 18.21 1.39 20.86 6.91 1.9 14.81-0.79 19.51-6.1 4.84-6.46 3.71-14.99 3.92-22.55-7.44 4.98-17.06 3.6-24.82 7.79z" fill="#fff"/>
 <path id="t" d="m865.09 184.8c5.11-4.36 12.15-5.69 18.7-5.04-0.01 7.82-0.03 15.63 0.01 23.45-7.29-0.46-15.77-0.65-21.35 4.89-5.61 5.7-5.4 14.35-5.5 21.79 0 13.52-0.01 27.03 0.01 40.55-7.38 0-14.75-0.01-22.11 0.01 0.07-29.6-0.03-59.2 0.05-88.8 7 0.01 14 0.03 21.01-0.01 0.04 5.12-0.03 10.25 0.01 15.38 2.76-4.26 5.28-8.84 9.17-12.22z" fill="#fff"/>
 <path id="u" d="m903.07 189.61c7.55-7.06 18.07-10.29 28.29-10.01 9.86 0.1 20.12 2.97 27.43 9.85 7.31 6.89 11.65 16.55 12.89 26.45 0.67 5.54 0.65 11.14 0.64 16.72-20.37-0.04-40.73-0.01-61.09-0.01 0.33 5.65 1.52 11.64 5.46 15.96 5.66 6.36 15.42 7.72 23.18 4.92 4.19-1.51 6.98-5.15 9.12-8.87 7.42 0.13 14.84-0.07 22.26 0.11-1.34 8.14-6.57 15.08-12.75 20.28-10.12 8.26-24.23 9.95-36.72 7.54-11.89-2.65-23.47-10.11-28.37-21.62-4.43-10.42-4.85-22.1-3.65-33.22 1.15-10.48 5.32-20.96 13.31-28.1m19.79 10.56c-6.97 2.65-10.36 10.21-11.36 17.15 12.73 0.02 25.46 0.01 38.19 0.01-0.53-4.83-1.86-9.92-5.53-13.35-5.5-5.42-14.25-6.32-21.3-3.81z" fill="#fff"/>
</svg>
