<svg id="a" width="308.94mm" height="191.18mm" version="1.1" viewBox="0 0 308.94 191.18" xmlns="http://www.w3.org/2000/svg">
 <g id="b" transform="translate(171.48 -53.245)">
  <g id="c" transform="matrix(.35278 0 0 .35278 -171.48 53.245)" fill="#fff">
   <path id="d" d="m419.73 0c-6.06 7.94-11.09 16.62-16.66 24.91-2.79 3.94 1.2 7.9808 2.71 11.571 1.8 4.3 5.6502 7.9699 5.3702 12.92v73.771l-139 0.0776-18.65-60.349-24.489-7.3901 0.0103 0.03075-0.0103-0.0015 28.73 89.571h324.02l8.9297-28.492 19.8-61.08-0.0103 0.0015 0.0103-0.03075-24.491 7.3901-18.65 60.349-139-0.0776v-73.771c-0.28-4.95 3.5705-8.6214 5.3705-12.921 1.51-3.59 5.5-7.6293 2.71-11.569-5.57-8.29-10.601-16.97-16.661-24.91-6e-3 0.010275-0.0127 0.020475-0.019 0.03075-7e-3 -0.0105-0.014-0.020325-0.0205-0.03075z"/>
   <path id="e" d="m344.16 87.618a11.666 11.666 0 0 1-11.666 11.666 11.666 11.666 0 0 1-11.666-11.666 11.666 11.666 0 0 1 11.666-11.666 11.666 11.666 0 0 1 11.666 11.666z"/>
   <path id="f" d="m519.19 87.612a11.666 11.666 0 0 1-11.666 11.666 11.666 11.666 0 0 1-11.666-11.666 11.666 11.666 0 0 1 11.666-11.666 11.666 11.666 0 0 1 11.666 11.666z"/>
   <path id="g" d="m0 180h842.89v42.75h-22.79l-0.03-19.84-797.64 0.01-0.02 316.35 797.68 0.03 0.14-157.06 22.66-0.04v179.72h-842.89z"/>
   <path id="h" d="m92.32 265.88 88.42-0.14c5.86 0.14 11.84-0.43 17.56 1.15 12.71 1.64 24.99 6.93 34.63 15.41 10.96 9.5 18.05 23.01 20.74 37.17 0.95 8.64 0.93 17.42-0.01 26.06-2.59 14.37-10.21 28.04-21.93 36.93-12.66 9.83-29 13.8-44.82 13.73l73.9 80.54-21.69 0.15-71.92-79.7h-58.22l-0.01 79.67-16.65-0.07zm16.74 15.03 0.02 100.89c17.55-0.03 35.11 0 52.67-0.01 12.42-0.29 25.04 0.97 37.26-1.74 10.92-1.72 21.34-7.45 28.09-16.29 5.76-7.87 9.22-17.54 9.2-27.33 0.15-8.01 0.6-16.42-2.71-23.92-2.94-7.93-7.89-15.13-14.49-20.45-8.82-7.16-20.14-10.38-31.3-11.15z"/>
  </g>
  <path id="i" d="m111.46 139.27c2.547-1.4358 5.4328-2.3319 8.3714-2.3283 3.1327-0.0106 6.4064-0.29281 9.3768 0.91016 2.2401 0.83256 4.4591 2.0002 5.9408 3.9405 1.6404 2.0144 2.3954 4.639 2.2684 7.2214 0.14465 3.0903-0.82901 6.3218-3.0727 8.5231-2.4977 2.5188-6.1489 3.429-9.5885 3.6336-2.9739 0.12347-6.1101-0.11289-8.8688 1.2065-1.2665 0.64558-2.5294 1.7427-2.6599 3.2456l-0.0388 4.0605 24.278 0.0141v6.9391l-31.602 4e-3 3e-3 -11.748c-3e-3 -3.7112 2.6917-6.9462 5.9725-8.4102 3.2103-1.6898 6.9215-1.7921 10.463-1.9614 2.4659 0.0388 5.0659-0.7373 6.7698-2.5929 1.1465-1.2065 1.0054-3.0198 0.762-4.5332-0.70202-2.3213-3.1468-3.5948-5.3975-3.9441-3.1115-0.3563-6.5969-0.30339-9.1934 1.6898-1.1994 0.83608-1.7462 2.2401-2.2401 3.556l-7.0944 0.0282c-0.0811-3.8806 2.2825-7.4965 5.5492-9.4544z" fill="#c20051" stroke-width=".35278"/>
  <path id="j" d="m45.576 150.58c3.7252-2.1528 7.8418-3.5933 12.081-4.3212 3.753-0.59262 7.2809-0.63277 10.794-0.55837 2.1591 0.0489 4.3105 0.22547 6.409 0.77328 7.0556 1.6545 13.751 5.2493 18.74 10.537l-9.3345 8.8018c-1.8019-1.3463-3.6401-2.7349-5.6208-3.8344-3.3422-1.7596-7.1152-2.6204-10.6-2.8649-3.2537-0.21517-6.5461 0.12173-9.684 0.99493-6.2724 1.4993-11.758 5.9372-14.566 11.737-2.1061 3.9088-3.1221 8.3714-2.9528 12.802-0.14817 4.378 0.80433 8.7877 2.801 12.693 2.3319 4.8436 6.5793 8.696 11.564 10.682 8.3079 3.0374 18.129 2.5682 25.64-2.3319 1.475-0.92747 3.0529-2.0088 4.3286-2.981l9.4985 9.5055c-0.42913 0.4438-0.80137 0.77385-1.187 1.1307-4.2862 3.81-9.465 6.5617-14.922 8.2585-6.6393 1.905-13.691 1.9897-20.496 1.0336-5.4469-1.009-10.894-2.7023-15.49-5.8879-5.2776-3.5313-9.4756-8.6219-12.047-14.422-2.1625-5.0236-3.2773-10.46-3.6124-15.907-0.26458-4.5896 0.56797-9.1369 1.524-13.6 0.95956-2.9739 2.1378-5.8879 3.5807-8.6642 3.2068-5.6056 7.8528-10.481 13.554-13.578z" fill="#c20051" stroke-width=".35278"/>
  <path id="k" d="m-65.056 147.01v0.0103h-0.0279l-0.032 74.444v0.0279l13.995-0.0103v-4e-3h0.0599l0.0879-53.52 22.31 30.409c0.41981 0.5327 0.81855 1.1364 1.4288 1.4821 0.46803 0.0748 0.96296 0.13015 1.45 0.11317 0.48709 0.017 0.98202-0.0384 1.45-0.11317 0.61031-0.34571 1.0085-0.94938 1.4283-1.4821l22.31-30.409 0.0884 53.52h0.0599v4e-3l13.994 0.0103v-0.0279l-0.0315-74.444h-0.0284v-0.0103l-15.928 0.0279-5e-3 7e-3 -0.11834 2.6e-4 -23.22 31.984-23.22-31.984-0.11834-2.6e-4 -5e-3 -7e-3z" fill="#c20051" stroke-width=".35278"/>
 </g>
</svg>
