<svg width="1400.1pt" height="834.04pt" version="1.1" viewBox="0 0 1400.1 834.04" xmlns="http://www.w3.org/2000/svg">
 <path d="m156.69 0.99942c10.75-1.19 21.58-0.97 32.38-0.97 34.99-0.14 69.98 0.27 104.97 0.18 69.66 0 139.31-0.07 208.96 0.17 58.88 0.05 117.77-0.09 176.65 0.08 55.12 0.24 110.24 0.03 165.36 0.1 122.99 0.28 245.99 0.16 368.99 0.25 20.7-0.35 41.59 1.41 61.5 7.34 33.53 9.51 64.07 29.35 86.15 56.34 25.39 30.73 39.21 70.71 38.37 110.55 0.2 6-0.51 11.96-0.71 17.95-0.03 151.01 0.03 302.02-0.03 453.02-3.68 40.82-15.5 81.61-38.44 115.88-17.41 26.14-42.08 47.71-71.24 59.73-20.98 8.77-43.84 12.8-66.55 12.39h-175.97c-58.36-0.29-116.73-0.15-175.09-0.18-49.66 0.11-99.31-0.3-148.96-0.17-96.99 0.11-193.97-0.31-290.97-0.18-42 0.13-84-0.28-126.01-0.18h-129.03c-34.54 0.04-69.33-9.09-98.59-27.68-27.62-17.32-50.09-42.81-63.46-72.57-9.33-20.52-14.25-42.94-14.86-65.45-0.52-9.87 0.94-19.69 0.7-29.55 0-149.02-0.02-298.03 0.01-447.05 2.58-29.72 9.5-59.2 21.59-86.52 14.05-31.76 35.96-60.74 65.43-79.63 20.61-13.32 44.47-21.36 68.85-23.85" fill="#221e20"/>
 <path d="m166.14 15.159c22.93-0.65 45.89-0.12 68.84-0.29 76.37 0.43 152.76-0.08 229.13 0.27 57.96 0.17 115.92 0.02 173.88 0.07 99.36 0.37 198.73 0 298.08 0.37 66.98 0.06 133.95-0.16 200.93 0.18 29.01 0 58.02 0.01 87.04 0 37.87 0.02 75.99 12.75 105.17 37.13 29.86 24.51 49.76 60.65 54.61 98.96 1.91 12.96 1.77 26.12 0.68 39.15-0.08 151.35 0.01 302.7-0.05 454.05-3.73 40.27-15.7 80.71-39.64 113.75-11.88 16.32-26.86 30.52-44.31 40.77-16.93 9.99-36.02 16.17-55.53 18.42-10.92 1.59-21.97 1.11-32.97 1.18h-175.93c-52.32-0.32-104.65-0.09-156.97-0.16-61.04 0.07-122.07-0.32-183.11-0.18-60.98 0.14-121.96-0.23-182.94-0.19-111.03 0.1-222.04-0.33-333.07-0.17-19.72 0.06-39.55-2.55-58.3-8.84-35.32-11.52-66.56-35.75-85.42-67.88-17.24-28.81-23.94-63.32-20.55-96.6 0.13-151.71-0.04-303.42 0.09-455.13 3-30.94 10.87-61.65 24.96-89.46 13.68-26.96 34.05-51.05 60.35-66.38 19.69-11.58 42.28-17.76 65.03-19.02" fill="#fff"/>
 <path d="m952.57 156.06c9.75-1.42 19.62-0.66 29.43-0.79 48.34-0.01 96.68 0.31 145.02 0.37 12.03 0.1 24.11-0.46 36.1 0.97 19.41 2.51 38.2 10.48 53.1 23.24 21.84 18.35 34.71 46.68 34.59 75.17 0.29 11.42-1.7 22.71-2.42 34.07-5.29 53.97-10.21 107.97-15.49 161.93-4.19 32.27-22.61 61.91-48.49 81.35-16.79 12.65-36.74 21.2-57.61 23.99-8.54 1.38-17.2 1.07-25.82 1.09-43.98-0.13-87.96-0.23-131.94-0.2-13.34-0.89-26.73-0.26-40.09-0.44-28.68 0.4-57.53-11.59-76.7-33.08-18.22-19.99-27.14-47.69-25.26-74.55 5.48-57.75 10.92-115.49 16.47-173.23 0.87-13.21 2.75-26.49 7.47-38.94 15.53-42.9 56.23-75.65 101.64-80.95" fill="#d40000"/>
 <path d="m914.29 282.01 114.97-72.34h89.44l-25.13 289.32h-104.93l16.66-187.65-68.27 46.38z" fill="#fff"/>
 <path d="m1172.5 600.6c8.48-3.25 18.08-3.63 26.72-0.77 7.58 2.67 13.86 8.75 16.87 16.2 4.03 9.52 3 20.24 1.76 30.24-15.77-0.05-31.54-0.02-47.3-0.02-0.1 4.57 1.03 9.52 4.73 12.55 4.67 3.74 11.07 3.88 16.78 3.46 6.83-1.03 13.37-3.5 19.77-6.05-0.15 6.35-0.89 12.66-1.33 19-11.79 3.42-24.23 5.44-36.49 3.93-8.51-1.06-16.96-5.05-22.12-12.07-4.43-6.03-6-13.63-6.13-20.98-0.16-9.36 1.8-18.86 6.34-27.09 4.49-8.17 11.71-14.92 20.4-18.4m5.26 17.14c-3.89 3.79-5.5 9.25-6.19 14.5 7.65 0.03 15.31-0.02 22.98 0.03 0.5-5.15 1.69-11.39-2.09-15.61-4.27-3.29-10.89-2.64-14.7 1.08z" fill="#d40000"/>
 <path d="m1097.5 614.77c5.71-14.03 24.64-19.37 37.22-11.43 6.4 4.18 8.5 12.43 7.87 19.67-1.94 18.89-4.19 37.75-6.17 56.63-9.07 0.02-18.14 0.02-27.2 0 1.54-16.24 3.58-32.42 5.26-48.64 0.13-2.83-0.09-6.18-2.46-8.09-3.23-2.29-7.7-0.99-10.22 1.72-2.84 3.12-4.14 7.3-4.79 11.38-1.57 14.55-3.18 29.1-4.82 43.65-9.08-0.01-18.16 0-27.24-0.01 2.33-21.86 4.92-43.7 7.14-65.57 0.45-4.16 0.5-8.34 0.49-12.5 8.6 0.01 17.21-0.04 25.81 0.03-0.06 4.4-0.57 8.76-0.89 13.16z" fill="#d40000"/>
 <path d="m999.44 601.79c2.76-0.91 5.68-1.02 8.57-0.96 11.34 0.06 22.68-0.03 34.02 0.04 7.43-0.05 14.85 4.28 17.95 11.13 2.59 4.99 1.68 10.76 1.37 16.13-1.13 10.24-1.99 20.5-2.98 30.74-1.49 11.31-11.93 20.6-23.33 20.77-9.32 0-18.65 0.12-27.97-0.14-5.58-0.2-11.48 0.81-16.7-1.69-7.67-3.18-12.44-11.67-11.62-19.86 1.22-11.61 2.29-23.24 3.34-34.87 0.68-9.81 7.97-18.55 17.35-21.29m18.16 9.99c-3.46 1.14-5.51 4.65-5.57 8.19-1.03 12.68-2.21 25.36-3.45 38.02-0.08 2.43-0.68 5.31 1.25 7.25 2.38 3.31 6.82 2.26 10.31 2.39 3.96 0.35 7.64-2.94 8.23-6.77 1.18-14.28 2.72-28.53 3.79-42.82 0.3-3.33-2.59-6.68-5.99-6.58-2.86-0.08-5.78-0.32-8.57 0.32z" fill="#d40000"/>
 <path d="m648.59 168.59c18.89-9.68 40.51-12.45 61.51-11.89 21.57 1.08 43.69 6.06 61.56 18.71 15.56 10.82 26.82 27.11 32.83 44.98 6.47 18.06 7.01 37.53 6.01 56.49-1.46 17.36-2.99 34.71-4.55 52.05l-19.35 220.78h-132.98l20.73-234.78c0.53-12.37 0.4-25.56-5.75-36.68-3.56-6.62-10.15-11.33-17.48-12.86-11.22-2.31-23.59-0.12-32.82 6.86-11.53 8.45-18.71 21.47-23.28 34.75-3.36 10.06-5.54 20.52-6.5 31.08l-18.54 211.64h-132.81l26.93-307.6c2.11-25.44 2.66-50.93 2.28-76.45h124.84c0.16 6.81 0.15 13.65-0.08 20.46-0.82 12.6-0.99 25.28-2.34 37.86-0.2 2.08-0.24 4.17-0.17 6.26 2.11-1.62 2.83-4.35 4.2-6.54 4.91-8.53 9.65-17.27 16.11-24.76 10.78-12.87 24.43-23.26 39.65-30.35z" fill="#221e20"/>
 <path d="m399.13 157.74c13.03-1.49 26.42-1.97 39.28 1.12l-10.08 115.91c-13.17-3.07-26.75-4.32-40.26-4.27-13.96-0.06-28.02 4.05-39.44 12.15-16.17 11.38-27.73 28.6-33.91 47.25-6.83 19.96-6.38 41.32-8.76 62.04l-13.81 157.86h-132.82l19.76-225.68c4.53-52.73 9.93-105.48 9.51-158.47h124.68c0.83 21.64-1.47 43.23-2.5 64.8 2.19-2.19 3.18-5.19 4.68-7.83 6.32-11.67 12.67-23.57 21.94-33.21 15.87-17.52 38.28-28.88 61.73-31.67z" fill="#221e20"/>
 <path d="m332.3 566.17c9.08 0.07 18.16 0.01 27.24 0.03-2.62 23.61-5.17 47.23-7.86 70.83-1.28 13.8-3.4 27.52-3.99 41.38-8.65-0.03-17.31 0.03-25.96-0.03-0.09-3.88 0.12-7.75 0.39-11.61-2.36 2.12-4.01 4.89-6.44 6.95-7.16 6.68-18.49 7.59-27.19 3.58-7.61-3.82-11.92-11.99-13.14-20.15-1.21-8.59-0.98-17.44 0.8-25.93 2.37-10.62 7.27-21.38 16.33-27.89 6.66-5.04 15.84-5.93 23.67-3.45 5.44 2.02 9.18 6.99 11.55 12.09 0.85-15.33 3-30.54 4.6-45.8m-16.08 50.98c-4.31-0.43-7.74 2.93-9.21 6.68-3.73 8.89-4.36 18.81-3.56 28.34 0.2 4.05 3 8.73 7.59 8.38 5.04 0.36 8.38-4.4 10.04-8.56 3.17-8.13 4.31-17.16 3.08-25.8-0.58-4.13-2.96-9.5-7.94-9.04z" fill="#221e20"/>
 <path d="m772.4 566.21c9.08-0.01 18.17 0 27.25-0.01-1.84 15.14-2.95 30.37-5.47 45.42 3.77-4.96 8.29-9.83 14.38-11.82 6.15-1.73 13.05-1.87 18.91 0.95 7.04 3.67 11.04 11.24 12.71 18.75 2.6 10.83 0.95 22.17-1.99 32.76-2.66 9.03-7.53 18.01-15.72 23.12-6.9 4.37-15.95 5.65-23.64 2.76-5.49-2.02-9-7.17-11.09-12.4-0.79 4.22-1.3 8.49-2.28 12.67-8.68-0.02-17.35 0-26.02-0.01 2.49-13.37 3.37-26.97 5.04-40.45 2.62-23.92 5.27-47.83 7.92-71.74m27.9 51.98c-5.93 4.34-7.29 12.25-8.54 19.03-0.51 6.63-1.36 13.93 2.03 19.98 2.35 4.46 9.05 4.28 12.24 0.86 3.14-3.3 4.23-7.92 5.32-12.2 1.43-7.98 2.72-16.51 0.12-24.37-1.44-4.55-7.47-5.42-11.17-3.3z" fill="#221e20"/>
 <path d="m367.97 567.43c9.11-0.17 18.23-0.05 27.35-0.07-0.87 7.49-1.61 14.99-2.5 22.48-9.09-0.06-18.18-0.01-27.27-0.03 0.93-7.45 1.63-14.92 2.42-22.38z" fill="#221e20"/>
 <path d="m211.61 602.86c9.24-2.75 18.74-5.09 28.46-4.79 9.57-0.26 20.79 0.64 27.4 8.49 5.89 7.53 4.15 17.73 3.13 26.54-1.38 14.88-3.94 29.68-4.03 44.66-8.07 0.01-16.14-0.01-24.21 0.01-0.05-3.45-0.07-6.91 0.17-10.35-5.31 4.99-11.13 10.14-18.49 11.62-8.17 1.81-17.82-0.03-23.18-6.89-5.53-7.18-5.26-17.22-2.17-25.35 2.77-7.39 9.44-12.65 16.71-15.25 9.94-3.49 20.64-3.76 31.06-3.3 1.87-3.86 0.13-9.06-3.72-10.97-4.39-2.58-9.73-2.24-14.58-1.63-6.32 1.17-12.29 3.82-17.84 7.01 0.14-3.93 0.47-7.84 0.5-11.75l0.41-0.7c0.03-2.45 0.15-4.91 0.38-7.35m14.45 41.33c-4.58 3.15-5.88 9.64-4.15 14.67 3.43 5.14 11.35 4.33 15.77 0.95 6.05-4.54 7.2-12.56 7.92-19.55-6.65-0.18-13.81 0.11-19.54 3.93z" fill="#221e20"/>
 <path d="m862.65 604.71c9.2-6.55 21.37-8.24 32.22-5.5 9.3 2.35 16.9 9.87 19.81 18.96 3.11 9.01 2.17 18.75 0.99 28.03-15.76 0.09-31.51 0.02-47.26 0.04-0.06 3.45 0.28 7.07 2.34 9.97 2.8 4.45 8.37 5.94 13.32 6.17 8.98 0.63 17.36-3.21 25.65-6.09-0.23 2.95-0.44 5.91-0.52 8.87l-0.39 0.64c-0.1 3.12-0.28 6.25-0.49 9.38-11.71 3.44-24.06 5.43-36.24 4-9.21-1.11-18.51-5.61-23.47-13.7-5.22-8.31-5.64-18.61-4.66-28.09 1.65-12.75 7.95-25.28 18.7-32.68m12 13.94c-3.3 3.75-4.69 8.73-5.24 13.6 7.64 0.01 15.28 0 22.92 0.01 0.51-5.15 1.72-11.42-2.13-15.59-4.58-3.64-11.89-2.43-15.55 1.98z" fill="#221e20"/>
 <path d="m189.81 602.05c4.56-2.4 9.8-2.6 14.84-2.24-0.46 8.04-1.57 16.03-2.43 24.03-5.91-1.36-12.86-1.7-17.67 2.66-5.18 4.3-6.99 11.16-7.45 17.62-1.09 11.84-2.8 23.62-3.77 35.48-9.06 0.12-18.11 0.02-27.17 0.06 1.44-17.85 3.96-35.6 5.65-53.43 1-8.18 1.89-16.4 1.8-24.65 8.58 0 17.15-0.01 25.73 0.01 0.14 4.26-0.86 8.47-0.64 12.74 2.45-5.02 5.89-9.88 11.11-12.28z" fill="#221e20"/>
 <path d="m512.34 614.47c5.63-13.99 24.81-19.02 37.15-10.97 5.96 4.06 8.17 11.69 7.67 18.6-1.61 19.18-4.44 38.25-5.98 57.43-9.19 0.24-18.4 0.12-27.59 0.07 1.2-7.8 1.68-15.69 2.76-23.51 0.56-9.69 2.96-19.31 2.37-29.05-0.05-3.99-4.27-5.89-7.75-5.31-6.7 2.33-9.2 9.96-9.6 16.41-1.7 13.83-2.89 27.72-4.72 41.53-9.05-0.03-18.09-0.01-27.13-0.01 2.29-20.88 4.58-41.76 6.92-62.63 0.3-5.15 0.8-10.29 0.74-15.45 8.58 0 17.16-0.01 25.74 0.01-0.17 4.29-0.67 8.57-0.58 12.88z" fill="#221e20"/>
 <path d="m669.55 614.79c4.49-10.6 16.41-16.53 27.62-14.97 7.47 0.67 13.94 5.57 16.55 12.61 4.5-5.96 10.85-10.95 18.4-12.12 7.81-1.56 17.21-0.44 22.73 5.87 3.74 4.63 4.89 10.97 4.03 16.77-1.95 18.91-4.11 37.8-6.21 56.7-9.08 0.01-18.16-0.01-27.23 0.01 1.69-15.86 3.53-31.71 5.21-47.57 0.31-3.47 0.4-8.52-3.66-9.84-6.17-2.36-12.16 3.17-13.03 9.1-2.02 16.08-3.64 32.21-5.46 48.31-9.06-0.02-18.13 0-27.19-0.01 1.58-15.89 3.46-31.76 5.2-47.63 0.21-3.17 0.25-6.95-2.43-9.16-3.31-2.2-7.86-0.95-10.31 1.94-4.43 4.96-4.89 11.98-5.39 18.29-1.46 12.17-2.7 24.37-4.08 36.55-9.08 0.02-18.15 0.02-27.23 0 1.59-15.52 3.48-31 5.06-46.51 1.23-10.49 2.61-20.98 2.7-31.55 8.53 0.01 17.06-0.02 25.6 0.01-0.15 4.41-0.49 8.81-0.88 13.2z" fill="#221e20"/>
 <path d="m964.76 600.72c3.76-1.25 7.75-1.11 11.65-0.85-0.84 7.98-1.59 15.98-2.71 23.93-5.58-1.16-12.01-1.72-16.76 2.07-6.24 4.63-8.13 12.71-8.42 20.07-1.22 11.24-2.47 22.48-3.71 33.72-9.1-0.01-18.19-0.01-27.27 0 1.5-13.85 3.1-27.68 4.55-41.53 1.38-12.15 3.01-24.3 3.13-36.54 8.54-0.01 17.08-0.02 25.62 0-0.05 4.42-0.48 8.82-0.55 13.25 2.45-6.51 7.63-12.22 14.47-14.12z" fill="#221e20"/>
 <path d="m566.81 599.73c9.01-0.04 18.03 0.01 27.06-0.03-0.88 14.11-3.02 28.11-4.36 42.18-0.38 4.68-2.26 10.32 1.27 14.27 4.12 3.22 10.64 1.06 13-3.38 3.13-5.74 2.47-12.52 3.51-18.78 1.59-11.43 2.01-23.07 4.2-34.37 8.97 0.23 17.94 0.02 26.91 0.11-2.28 19.08-4.13 38.21-6.41 57.29-0.69 6.9-1.69 13.78-1.44 20.74-8.53 0.01-17.05 0-25.57 0 0.12-4.32 0.45-8.63 0.85-12.93-3.66 7.79-11.27 13.62-19.88 14.6-6.74 0.77-14.25-0.25-19.44-4.97-4.7-4.42-6.28-11.22-5.87-17.47 1.89-19.1 4.32-38.15 6.17-57.26z" fill="#221e20"/>
 <path d="m364.38 601.57c9.05 0.03 18.1-0.02 27.16 0.03-2.86 26.01-5.78 52.02-8.58 78.04-9.11 0.02-18.22 0.03-27.33 0 3.01-26.01 5.62-52.08 8.75-78.07z" fill="#221e20"/>
 <path d="m412.46 601.67c2.45-0.73 5.03-0.88 7.59-0.84 11.66 0.06 23.32-0.04 34.98 0.04 8.15 0.02 16.1 5.46 18.52 13.34 1.84 5.09 0.72 10.54 0.18 15.75-0.51 9.31-1.95 18.54-2.49 27.85-1.06 11.32-10.96 21.04-22.33 21.77-12.95 0.26-25.91-0.09-38.86-0.11-10.08-0.24-18.89-9.34-18.6-19.46 0.39-9.04 1.88-18 2.38-27.03 0.73-4.94 0.65-9.98 1.87-14.83 2.37-7.83 8.91-14.21 16.76-16.48m15 11.84c-3.03 2.58-2.6 6.87-3.01 10.44-1.24 12.36-2.04 24.82-3.57 37.13 0.54 2.64 1.78 5.52 4.66 6.28 2.8 0.48 5.67 0.31 8.51 0.22 3.76-0.19 6.69-3.64 7.15-7.23 1.04-14.14 2.69-28.22 3.72-42.36 0.3-3.36-2.59-6.42-5.91-6.53-3.87 0-8.46-0.9-11.55 2.05z" fill="#221e20"/>
</svg>
