<svg id="a" space="preserve" version="1.1" viewBox="0 0 3047.4 1080" xmlns="http://www.w3.org/2000/svg">
 <link id="b" href="" rel="stylesheet" type="text/css"/>
 <style id="c" type="text/css"/>
 <style id="d" type="text/css">.st0{fill:#E61B23;}</style>
 <g id="e" fill="#e61b23">
  <path id="f" class="st0" d="m0 0v1080h1080v-1080zm338.6 752.7-103.8-162.6h-1.1v162.7h-109.9v-423h164.4c83.6 0 146.9 39.8 146.9 130.1 0 58.3-32.5 108.8-92.5 119.5l132.9 173.3zm454.5 0h-102.1v-32h-1.1c-18 28.6-53.3 41.5-86.9 41.5-85.2 0-145.3-71.2-145.3-153.7s58.9-153.1 144.2-153.1c33.1 0 67.9 12.3 89.2 37.6v-28h102.1v287.7zm160.9 0h-102.1v-287.7h102.1zm-51-341h-2.2l-1.3-0.1h-0.6c-0.5 0-1-0.1-1.5-0.1s-1.2-0.1-1.8-0.2l-1.8-0.3c-0.6-0.1-1-0.2-1.5-0.3l-0.5-0.1c-1.1-0.2-2.2-0.5-3.2-0.8l-0.2-0.1c-0.5-0.1-1-0.3-1.6-0.5l-1.7-0.5c-0.6-0.2-1.1-0.4-1.7-0.6s-1.1-0.4-1.7-0.6-1.1-0.5-1.6-0.7c-1.1-0.5-2.2-1-3.2-1.5-0.5-0.3-1-0.5-1.6-0.8-0.5-0.3-0.9-0.5-1.3-0.8l-0.4-0.3c-0.9-0.5-1.8-1.1-2.7-1.7s-2-1.4-2.9-2.1c-0.4-0.3-0.8-0.6-1.2-1-0.6-0.5-1.1-0.9-1.7-1.4s-0.8-0.7-1.2-1.1l-1.3-1.3c-0.4-0.4-0.8-0.8-1.1-1.2l-0.1-0.1c-0.4-0.4-0.7-0.8-1.1-1.2-0.8-0.9-1.6-1.8-2.3-2.8-0.3-0.4-0.7-0.9-1-1.3l-0.1-0.2c-0.3-0.4-0.6-0.9-0.9-1.3s-0.7-1-1-1.5c-0.5-0.8-1-1.6-1.4-2.4-1.9-3.2-3.4-6.6-4.6-10.1-0.3-0.9-0.6-1.8-0.8-2.7s-0.5-1.8-0.7-2.7c-0.1-0.5-0.2-0.9-0.3-1.4s-0.2-0.9-0.3-1.4-0.2-0.9-0.2-1.4-0.1-0.9-0.2-1.4-0.1-1-0.2-1.4-0.1-1-0.1-1.4-0.1-1-0.1-1.5c0-1-0.1-2-0.1-2.9s0-2 0.1-2.9c0-0.5 0-1 0.1-1.5s0.1-1 0.1-1.4 0.1-1 0.2-1.4 0.1-1 0.2-1.4 0.2-0.9 0.2-1.4 0.2-0.9 0.3-1.4 0.2-0.9 0.3-1.4c0.2-0.9 0.5-1.8 0.7-2.7s0.5-1.8 0.8-2.7c0.2-0.4 0.3-0.9 0.5-1.3 0.3-0.9 0.7-1.7 1-2.6 0.9-2.1 1.9-4.2 3.1-6.2 0.5-0.8 0.9-1.6 1.4-2.4 1-1.6 2.1-3.1 3.3-4.6 0.2-0.3 0.5-0.6 0.8-0.9s0.6-0.7 0.9-1 0.6-0.7 0.9-1c0.6-0.7 1.3-1.4 1.9-2l1-1c1.3-1.3 2.7-2.5 4.2-3.6 0.4-0.3 0.7-0.6 1.1-0.8s0.7-0.5 1.1-0.8 0.8-0.5 1.1-0.8l1.2-0.8c0.8-0.5 1.5-1 2.3-1.4l1.2-0.7c1.2-0.7 2.5-1.3 3.7-1.9l1.3-0.6 1.3-0.5c11.6-4.6 24.5-5.2 36.5-1.8 0.9 0.2 1.8 0.5 2.7 0.8 8.3 2.9 15.9 7.6 22.1 13.8 1.3 1.3 2.5 2.7 3.7 4.1 0.6 0.7 1.2 1.4 1.7 2.2s1.1 1.5 1.6 2.2 1 1.5 1.5 2.3c5.4 8.9 8.3 19.1 8.3 29.6-0.4 31.5-26 57-57.4 57.1zm-582.4 55c0 46-40.4 52.7-76.3 52.7h-10.7v-105.5h10.6c36 0 76.4 6.8 76.4 52.8zm373.8 142.4c0 36.5-24.1 64.5-65.6 64.5s-65.6-28.1-65.6-64.5c0-35.3 24.1-65.1 65.6-65.1s65.6 29.8 65.6 65.1z"/>
  <g id="g">
   <path id="h" class="st0" d="m1339.7 375.9v76.3h-148.4v-76.3h35.8v-217h-35.8v-75.7h148.4c26.7 0 47.5 1.1 62.5 3.4 15.1 2.3 29.4 8 41.8 16.9 15.9 10.7 28.4 25.2 37.4 43.3 9 18.3 13.7 38.5 13.5 58.9 0 25.3-6.1 48-18.4 68.3-12 20-29.6 35.9-50.6 45.9l45.7 56.1h34.8v76.3h-79.9l-108.5-132.4v56.1h21.7zm-4.2-122.5c22.8 0 39.7-3.5 50.6-10.4s16.3-18.2 16.3-33.7c0-16.3-4.8-27.5-14.5-33.7s-25.8-9.3-48.3-9.4h-21.8v87.2z"/>
   <path id="i" class="st0" d="m1658.4 456.4c-18.9 0.2-37.6-3.5-55-10.6-16.8-7-32-17.4-44.6-30.6-12.9-13.5-23-29.5-29.6-47-6.9-18-10.4-37.5-10.4-58.6s3.5-40.6 10.4-58.7c6.6-17.5 16.5-33.4 29.3-47 12.5-13.3 27.8-23.7 44.6-30.6 17.5-7.2 36.3-10.8 55.3-10.6 19.4 0 36.1 3.2 50.3 9.6s26.5 16.5 36.8 30.4v-35.3h109v74.7h-31.2v135h31.2v75.3h-113.2v-31.7c-18.5 23.7-46.2 35.7-82.9 35.7zm-34-95.8c13 13.3 29.3 20 49 20s36-6.7 49-20 19.5-30.4 19.5-51.1-6.5-37.8-19.5-51.1-29.3-20-49-20-36 6.7-49 20-19.5 30.4-19.5 51.1 6.5 37.8 19.5 51.1z"/>
   <path id="j" class="st0" d="m2016 456.4c-18.9 0.2-37.6-3.5-55-10.6-16.8-7-32-17.4-44.6-30.6-12.9-13.5-23-29.5-29.6-47-6.9-18-10.4-37.5-10.4-58.6s3.5-40.6 10.4-58.7c6.6-17.4 16.5-33.4 29.3-47 12.5-13.3 27.8-23.7 44.6-30.6 17.5-7.2 36.3-10.8 55.3-10.6 19.4 0 36.2 3.2 50.3 9.6 14.2 6.4 26.5 16.5 36.9 30.4v-47.2h-31.1v-72.3h109v293.8h31.1v75.3h-113.1v-31.7c-18.7 23.8-46.4 35.8-83.1 35.8zm-34-95.8c13 13.3 29.3 20 49 20s36-6.7 49-20 19.5-30.4 19.5-51.1-6.5-37.8-19.5-51.1-29.3-20-49-20-36 6.7-49 20-19.5 30.4-19.5 51.1 6.5 37.8 19.5 51.1z"/>
   <path id="k" class="st0" d="m2272.4 242h-34.8v-74.7h115.2v209.7h35.8v75.3h-152.1v-75.3h35.8zm0-158.8h80.4v68.5h-80.4z"/>
   <path id="l" class="st0" d="m2444.2 203.1c14-14.1 30.8-25.1 49.3-32.4 18.8-7.5 38.9-11.2 59.2-11.1 20.2-0.1 40.2 3.7 58.9 11.1 18.4 7.4 35 18.4 49 32.4 29.1 28.4 43.6 63.8 43.6 106.4 0 42.2-14.5 77.7-43.6 106.4-14.1 13.8-30.7 24.6-49 31.9-18.7 7.5-38.7 11.3-58.9 11.1-20.3 0.1-40.3-3.7-59.2-11.2-18.4-7.2-35.2-18.1-49.3-31.9-29.1-28.7-43.6-64.2-43.6-106.4 0-42.5 14.6-78 43.6-106.3zm61.5 156.5c13 13.7 28.6 20.5 47 20.5s33.9-6.8 46.7-20.5 19.2-30.4 19.2-50.1c0-20.1-6.4-36.9-19.2-50.4s-28.4-20.2-46.8-20.2c-18.3 0-34 6.8-47 20.5s-19.5 30.4-19.5 50.1c0.2 19.7 6.7 36.4 19.6 50.1z"/>
   <path id="m" class="st0" d="m2791.5 452.2v-80.5c53.6-31.8 94.1-62.8 121.4-92.9s41-58.3 41-84.6c0-12.8-3.2-22.8-9.6-30.1s-15.3-10.9-26.7-10.9-20.6 4.7-27.5 14-10.4 22.3-10.4 38.9c0 0.4 0.2 1.7 0.5 4.1v4.1h-90.8v-2.5c0-20.4 3.1-38.9 9.3-55.5 5.9-16.1 15.1-30.8 27-43.1 11.8-12.1 26-21.6 41.8-27.8 16.1-6.4 33.8-9.6 53.2-9.6 38.8 0 69.6 10.2 92.4 30.6s34.3 47.4 34.3 81c0 55.7-45.7 118.9-137 189.5h61.2v-23.4h75.3v98.6h-255.4z"/>
   <path id="n" class="st0" d="m1354.2 875.9v76.3h-160.4v-76.3h36.3v-217h-36.3v-75.8h160.4v75.8h-33.7v217z"/>
   <path id="o" class="st0" d="m1413.9 742h-34.8v-74.7h111.1v37.9c9.3-14.2 20.7-24.8 34-31.9s29.3-10.6 48-10.6c31.5 0 55.8 9.3 72.9 28s25.7 45.7 25.7 81v105.3h36.3v75.3h-118.8v-156.9c0-20.8-3.3-35.7-9.9-44.9s-18.2-13.8-34.8-13.8c-14.9 0-26.9 5.2-36.1 15.6s-13.8 24.7-13.8 43.1v81.5h32.7v75.3h-149v-75.3h36.3z"/>
   <path id="p" class="st0" d="m1857.2 956.3c-18.9 0.2-37.6-3.5-55-10.6-16.8-7-32-17.4-44.6-30.6-12.9-13.5-23-29.5-29.6-47-6.9-18-10.4-37.6-10.4-58.7s3.5-40.6 10.4-58.6c6.6-17.4 16.5-33.4 29.3-47 12.5-13.3 27.8-23.7 44.6-30.6 17.5-7.2 36.3-10.8 55.3-10.6 19.4 0 36.2 3.2 50.3 9.6s26.5 16.5 36.8 30.4v-47.2h-31.1v-72.1h109v293.8h31.1v75.3h-113.2v-31.7c-18.5 23.7-46.2 35.6-82.9 35.6zm-34-95.7c13 13.3 29.3 20 49 20s36-6.7 49-20 19.5-30.4 19.5-51.1-6.5-37.8-19.5-51.1-29.3-20-49-20-36 6.7-49 20-19.5 30.4-19.5 51.1 6.5 37.8 19.5 51.1z"/>
   <path id="q" class="st0" d="m2113.6 742h-34.8v-74.7h115.2v209.7h35.8v75.3h-152.1v-75.3h35.8v-135zm0-158.8h80.5v68.5h-80.5z"/>
   <path id="r" class="st0" d="m2478.2 935.1c-24.7 15.9-52.9 23.8-84.3 23.8-43.6 0-79.8-14.4-108.5-43.1-29.1-28.7-43.6-64.2-43.6-106.4 0-42.6 14.5-78 43.6-106.4 14-14.1 30.8-25.1 49.3-32.5 18.8-7.5 38.9-11.2 59.2-11.2 25.2-0.2 50.1 5.9 72.4 17.6 22 11.5 40.8 28.3 54.7 48.8 16.3 23.9 24.4 51.7 24.4 83.6-0.1 10.8-1 21.5-2.6 32.2h-210.2c3.4 12.5 10.7 22.6 21.8 30.4s24.2 11.7 39.4 11.7c15.6 0 29.8-5.4 42.6-16.1h98.1c-12.8 29.2-31.5 51.7-56.3 67.6zm-20.5-154.2c-4.2-15.6-11.8-27.5-22.8-35.8-11.1-8.3-24.7-12.5-41-12.5-15.2 0-28.5 4.2-39.7 12.7s-19.1 20.3-23.6 35.6z"/>
  </g>
 </g>
</svg>
