<svg id="a" enable-background="new 0 0 3005.8 1080" space="preserve" version="1.1" viewBox="0 0 3005.8 1080" xmlns="http://www.w3.org/2000/svg">
 <link id="b" href="" rel="stylesheet" type="text/css"/>
 <path id="c" class="st0" d="m244.3 413.9h-10.7v105.5h10.7c35.9 0 76.3-6.7 76.3-52.7s-40.4-52.8-76.3-52.8zm-244.3-413.9v1080h1079.9v-1080h-1079.9zm338.6 752.7-103.8-162.6h-1.1v162.7h-109.9v-423h164.4c83.6 0 146.9 39.8 146.9 130.1 0 58.3-32.5 108.8-92.5 119.5l132.9 173.3h-136.9zm454.5 0h-102.1v-32h-1.1c-18 28.6-53.3 41.5-86.9 41.5-85.3 0-145.3-71.2-145.3-153.7s58.9-153.1 144.2-153.1c33.1 0 67.9 12.3 89.2 37.6v-28h102.1v287.7h-0.1zm160.9 0h-102.1v-287.7h102.1v287.7zm-51.1-341c-31.4 0-57.2-25.8-57.2-57.2s25.8-57.2 57.2-57.2 57.2 25.8 57.2 57.2-25.7 57.2-57.2 57.2zm-274.1 132.4c-41.5 0-65.6 29.7-65.6 65.1 0 36.5 24.1 64.5 65.6 64.5s65.6-28.1 65.6-64.5c0-35.4-24.1-65.1-65.6-65.1z" fill="#4144c5"/>
 <g id="d" fill="#4144c5">
  <path id="e" class="st0" d="m1339.7 380v76.3h-148.4v-76.3h35.8v-217h-35.8v-75.8h148.4c26.6 0 47.5 1.1 62.5 3.4 15.1 2.3 29 7.9 41.8 16.9 15.9 10.7 28.4 25.2 37.4 43.3 9 18.2 13.5 37.8 13.5 58.9 0 25.3-6.1 48-18.4 68.3-12.3 20.2-29.2 35.6-50.6 45.9l45.7 56.1h34.8v76.3h-79.9l-108.5-132.4v56.1h21.7zm-4.1-122.5c22.8 0 39.7-3.5 50.6-10.4s16.3-18.2 16.3-33.7c0-16.3-4.8-27.5-14.5-33.7s-25.8-9.3-48.3-9.3h-21.8v87.2h17.7v-0.1z"/>
  <path id="f" class="st0" d="m1658.4 460.4c-19.7 0-38.1-3.6-55-10.6-17-7.1-31.8-17.3-44.6-30.6s-22.7-29-29.6-47-10.4-37.5-10.4-58.7c0-21.1 3.5-40.7 10.4-58.7s16.7-33.6 29.3-47c12.6-13.3 27.5-23.5 44.6-30.6s35.6-10.6 55.3-10.6c19.4 0 36.2 3.2 50.3 9.6 14.2 6.4 26.5 16.5 36.9 30.4v-35.3h109v74.7h-31.1v135h31.1v75.3h-113.2v-31.7c-18.6 23.9-46.3 35.8-83 35.8zm-34-95.7c13 13.3 29.3 20 49 20s36.1-6.7 49-20c13-13.3 19.5-30.4 19.5-51.1s-6.5-37.8-19.5-51.1-29.3-20-49-20-36.1 6.7-49 20c-13 13.3-19.5 30.4-19.5 51.1s6.5 37.7 19.5 51.1z"/>
  <path id="g" class="st0" d="m2016 460.4c-19.7 0-38.1-3.6-55-10.6-17-7.1-31.8-17.3-44.6-30.6s-22.7-29-29.6-47-10.4-37.5-10.4-58.7c0-21.1 3.5-40.7 10.4-58.7s16.7-33.6 29.3-47c12.6-13.3 27.5-23.5 44.6-30.6s35.6-10.6 55.3-10.6c19.4 0 36.2 3.2 50.3 9.6 14.2 6.4 26.5 16.5 36.9 30.4v-47.2h-31.1v-72.2h109v293.8h31.1v75.3h-113.2v-31.7c-18.6 23.9-46.3 35.8-83 35.8zm-34-95.7c13 13.3 29.3 20 49 20s36.1-6.7 49-20c13-13.3 19.5-30.4 19.5-51.1s-6.5-37.8-19.5-51.1-29.3-20-49-20-36.1 6.7-49 20c-13 13.3-19.5 30.4-19.5 51.1s6.5 37.7 19.5 51.1z"/>
  <path id="h" class="st0" d="m2272.4 246.1h-34.8v-74.7h115.2v209.6h35.8v75.3h-152.1v-75.3h35.8v-134.9h0.1zm0-158.9h80.5v68.5h-80.5v-68.5z"/>
  <path id="i" class="st0" d="m2444.2 207.1c14.2-14.2 30.6-25 49.3-32.4s38.4-11.2 59.2-11.2 40.4 3.7 58.9 11.2c18.5 7.4 34.9 18.3 49 32.4 29.1 28.4 43.6 63.8 43.6 106.4 0 42.2-14.5 77.7-43.6 106.4-14.2 13.8-30.5 24.5-49 31.9s-38.1 11.2-58.9 11.2-40.5-3.7-59.2-11.2c-18.7-7.4-35.1-18.1-49.3-31.9-29.1-28.7-43.6-64.2-43.6-106.4 0-42.5 14.6-78 43.6-106.4zm61.5 156.5c13 13.7 28.6 20.5 47 20.5 18.3 0 33.9-6.8 46.7-20.5s19.2-30.4 19.2-50.1c0-20.1-6.4-36.9-19.2-50.3-12.8-13.5-28.4-20.2-46.7-20.2s-34 6.8-47 20.5-19.5 30.4-19.5 50.1 6.6 36.4 19.5 50z"/>
  <path id="j" class="st0" d="m3005.8 381.5v74.7h-163.5v-74.7h41v-225.8h-64.9v-68.5h151v294.3h36.4z"/>
  <path id="k" class="st0" d="m1266 955.2h-71.6v-120.9h84.1c1.7 17.6 5.5 30.5 11.4 38.7 5.9 8.1 14.4 12.2 25.4 12.2 10.4 0 19-3.3 26-9.9 6.9-6.6 10.4-14.7 10.4-24.4 0-12.5-5.4-22.1-16.1-29.1-6.9-4.2-18.9-9.3-35.8-15.6-11.4-4.2-20.1-7.4-26-9.9-53.3-22.8-79.9-57.3-79.9-103.3 0-15.6 2.9-30.3 8.6-44.1s13.8-26 24.1-36.3 22.6-18.4 36.6-24.1 29-8.6 44.9-8.6c21.1 0 40.3 6.6 57.6 19.7v-10.4h68v105.4h-76.8c-4.2-26-16.1-38.9-35.8-38.9-9 0-16.5 2.9-22.6 8.6s-9.1 12.7-9.1 21c0 13.8 5.4 23.5 16.1 29.1 7.3 3.8 19 8.5 35.3 14 16.9 5.5 29.4 10.6 37.4 15.1 45 23.9 67.5 56.9 67.5 99.1 0 16.3-3 31.8-9.1 46.5s-14.5 27.7-25.4 38.9-23.4 20-37.6 26.2-29.1 9.3-44.6 9.3c-21.1 0-42-6.7-62.8-20.2v11.9h-0.2z"/>
  <path id="l" class="st0" d="m1502.7 746.1h-31.1v-74.7h109v35.3c10.4-13.5 22.6-23.5 36.6-30.1s30.9-9.9 50.6-9.9 38.1 3.6 55 10.6c17 7.1 31.7 17.3 44.4 30.6 12.6 13.3 22.4 29 29.3 47s10.4 37.5 10.4 58.7c0 21.1-3.5 40.7-10.4 58.7s-16.7 33.7-29.3 47-27.4 23.5-44.4 30.6-35.3 10.6-55 10.6c-37 0-64.9-11.9-83.6-35.8v46.7h28v75.3h-140.7v-75.3h31.1l0.1-225.3zm100.4 118.6c13 13.3 29.3 20 49 20s36.1-6.7 49-20c13-13.3 19.5-30.4 19.5-51.1s-6.5-37.8-19.5-51.1-29.3-20-49-20-36.1 6.7-49 20c-13 13.3-19.5 30.4-19.5 51.1s6.5 37.7 19.5 51.1z"/>
  <path id="m" class="st0" d="m1865.5 707.1c14.2-14.2 30.6-25 49.3-32.4s38.4-11.2 59.2-11.2 40.4 3.7 58.9 11.2c18.5 7.4 34.9 18.3 49 32.4 29.1 28.4 43.6 63.8 43.6 106.4 0 42.2-14.5 77.7-43.6 106.4-14.2 13.8-30.5 24.5-49 31.9s-38.1 11.2-58.9 11.2-40.5-3.7-59.2-11.2c-18.7-7.4-35.1-18.1-49.3-31.9-29.1-28.7-43.6-64.2-43.6-106.4 0-42.5 14.5-78 43.6-106.4zm61.5 156.5c13 13.7 28.6 20.5 47 20.5 18.3 0 33.9-6.8 46.7-20.5s19.2-30.4 19.2-50.1c0-20.1-6.4-36.9-19.2-50.3-12.8-13.5-28.4-20.2-46.7-20.2s-34 6.8-47 20.5-19.5 30.4-19.5 50.1 6.5 36.4 19.5 50z"/>
  <path id="n" class="st0" d="m2177.4 746.1h-32.7v-74.7h109v41.5c8-15.6 18.2-27.1 30.6-34.5 12.5-7.4 27.8-11.3 46.2-11.7v79.4c-26.3 1.4-45.1 8-56.3 20-11.2 11.9-16.9 31.1-16.9 57.4v57.5h32.7v75.3h-149v-75.3h36.3l0.1-134.9z"/>
  <path id="o" class="st0" d="M2385,746.1h-35.8v-74.7h35.8v-84.1h82v84.1h35.8v74.7H2467v135h27.5v75.3H2385V746.1z"/>
 </g>
</svg>
