<svg width="800" height="248.14" space="preserve" version="1.1" viewBox="0 0 800 248.14" xmlns="http://www.w3.org/2000/svg">
 <link href="" rel="stylesheet" type="text/css"/>
 <style type="text/css"/>
 <style type="text/css">.st0{fill:#01B46E;}
	.st1{fill:#FFFFFF;}</style>
 <g transform="scale(1.2407)" fill="#01b46e">
  <path transform="scale(.806)" d="m0 0v248.14h248.14v-248.14h-248.14zm207.45 68.238c7.1961 0 13.15 5.9563 13.15 13.152 0 7.3201-5.9543 13.15-13.15 13.15s-13.152-5.9543-13.152-13.15 5.9563-13.152 13.152-13.152zm-179.03 7.5684h37.717c19.231 0 33.748 9.1807 33.748 29.9 0 13.4-7.445 25.063-21.217 27.42l30.521 39.826h-31.391l-23.82-37.344h-0.24805v37.344h-25.311v-97.146zm25.186 19.355v24.193h2.4824c8.1886 0 17.494-1.4882 17.494-12.158 0.12407-10.546-9.1815-12.035-17.494-12.035h-2.4824zm84.74 9.4297c7.5683 0 15.634 2.8523 20.473 8.6836v-6.4512h23.449v66.129h-23.449v-7.3203h-0.25c-4.0943 6.5757-12.282 9.5547-19.975 9.5547-19.603 0-33.375-16.379-33.375-35.361s13.524-35.234 33.127-35.234zm57.445 2.2324h23.449v66.129h-23.449v-66.129zm-51.365 18.238c-9.5534 0-15.137 6.8241-15.137 14.889 0 8.4368 5.5833 14.764 15.137 14.764s15.137-6.451 15.137-14.764c0-8.0646-5.5833-14.889-15.137-14.889z" stroke-width="1.2407"/>
  <path class="st0" d="m254.6 72.8v14.6h-28.4v-14.6h6.8v-41.4h-6.8v-14.5h28.4c8.2 0 14.6 0.1 19.9 3.9 6 4.2 9.7 11.5 9.7 19.6 0 9.7-5 17.9-13.2 21.9l8.7 10.7h6.7v14.6h-15.3l-20.7-25.2v10.7zm-0.8-23.4c8.6 0 12.8-2.4 12.8-8.4 0-6.3-3.6-8.3-12-8.3h-4.2v16.6z"/>
  <path class="st0" d="m314.9 88.2c-15.3 0-26.7-11.7-26.7-28.1s11.4-28.1 26.7-28.1c7.4 0 12.6 2.3 16.6 7.6v-6.6h20.8v14.2h-6v25.8h6v14.4h-21.6v-6c-3.6 4.6-8.8 6.8-15.8 6.8m2.8-14.5c7.6 0 13.1-5.7 13.1-13.6s-5.6-13.6-13.1-13.6c-7.6 0-13.1 5.7-13.1 13.6 0.1 8 5.6 13.6 13.1 13.6"/>
  <path class="st0" d="m381 88.2c-15.3 0-26.7-11.7-26.7-28.1s11.4-28.1 26.7-28.1c7.4 0 12.6 2.3 16.6 7.6v-9h-6v-13.7h20.8v56.1h6v14.4h-21.6v-6c-3.6 4.6-8.8 6.8-15.8 6.8m2.9-14.5c7.6 0 13.1-5.7 13.1-13.6s-5.6-13.6-13.1-13.6c-7.6 0-13.1 5.7-13.1 13.6 0 8 5.5 13.6 13.1 13.6"/>
  <path class="st0" d="m429.5 47.2h-6.7v-14.2h22v40h6.8v14.4h-29.1v-14.4h6.8v-25.8zm0-30.3h15.4v13.1h-15.4z"/>
  <path class="st0" d="m461.3 39.8c5.4-5.3 12.8-8.4 20.7-8.4s15.2 3 20.6 8.4c5.4 5.3 8.4 12.3 8.4 20.4 0 7.9-2.8 15-8.4 20.4-5.4 5.3-12.7 8.3-20.6 8.3s-15.3-2.8-20.7-8.3c-5.4-5.3-8.4-12.4-8.4-20.4s2.9-15 8.4-20.4m20.7 33.8c6.9 0 12.6-6 12.6-13.5 0-7.6-5.6-13.5-12.6-13.5-6.9 0-12.7 5.9-12.7 13.5 0 7.5 5.7 13.5 12.7 13.5"/>
  <path class="st0" d="m549.5 66v0.7c0 4.4 2.7 6.8 7.7 6.8 4.6 0 7.6-2.9 7.6-7.4 0-5.2-4-7.8-11.9-7.8-1.1 0-2.3 0-3.5 0.1v-13.2c0.6 0 1.2 0.1 1.8 0.1 7.4 0 10.9-2.8 10.9-8.5 0-4.4-2.2-6.9-5.7-6.9-3.4 0-5.3 2-5.3 5.9v1.1h-16.9v-0.2c0-12.9 8.7-21.2 22.5-21.2 12.9 0 21.2 8 21.2 19.5 0 6.6-3.3 11.9-10 14.3 9.1 2.6 13.8 8.4 13.8 16.4 0 13.7-10 23.2-24.6 23.2-15.9 0-24.8-8.3-25-22.6z"/>
  <path class="st0" d="m258 183.4c-10.4 0-19.4-3.8-26.3-11.2-6.7-7.1-10.1-15.9-10.1-26.3 0-9.9 3.8-18.8 10.8-25.7 7-6.8 15.9-10.4 25.8-10.4 7.4 0 14 2 20.2 6.3v-5h12.9v23.5h-18.2c-3.8-4.9-8.6-7.4-14.5-7.4-10.7 0-19.2 8.3-19.2 19.2 0 10.7 8.8 19.5 18.6 19.5 6.7 0 12.6-3.5 16.4-10.1h19c-4.8 17.9-17.6 27.6-35.4 27.6z"/>
  <path class="st0" d="m302.2 125.6h-6.7v-14.4h22.2v56.5h6.9v14.5h-29.2v-14.5h6.9z"/>
  <path class="st0" d="m353 182.9c-15.4 0-26.8-11.8-26.8-28.2 0-16.5 11.5-28.3 26.8-28.3 7.4 0 12.7 2.3 16.8 7.7v-6.8h21v14.4h-6v25.9h6v14.5h-21.8v-6.1c-3.8 4.7-8.9 6.9-16 6.9zm2.9-14.5c7.6 0 13.2-5.7 13.2-13.7s-5.6-13.7-13.2-13.7-13.2 5.7-13.2 13.7 5.6 13.7 13.2 13.7z"/>
  <path class="st0" d="m409.6 165.3c0.2 3.9 2.3 6 6.3 6 3.8 0 5.8-1.7 5.8-4.8 0-4.4-4.6-4.2-11.9-6.3-10.2-2.9-15.1-8.2-15.1-17 0-10.3 7.5-17.3 19-17.3 4.4 0 7.9 1 11.3 3.5v-2.3h11.4v15.6h-14.5c-0.6-3.6-2-5-5.1-5-3.3 0-5.2 1.9-5.2 4.1 0 4 3.3 4.9 9.4 6.4 12.1 3.1 18 6.9 18 17.4 0 10.7-8.2 18-20.1 18-4.7 0-8.6-1.3-12.1-4.2v2.8h-12v-16.9z"/>
  <path class="st0" d="m457.1 165.3c0.2 3.9 2.3 6 6.3 6 3.8 0 5.8-1.7 5.8-4.8 0-4.4-4.6-4.2-11.9-6.3-10.2-2.9-15.1-8.2-15.1-17 0-10.3 7.5-17.3 19-17.3 4.4 0 7.9 1 11.3 3.5v-2.3h11.4v15.6h-14.5c-0.6-3.6-2-5-5.1-5-3.3 0-5.2 1.9-5.2 4.1 0 4 3.3 4.9 9.4 6.4 12.1 3.1 18 6.9 18 17.4 0 10.7-8.2 18-20.1 18-4.7 0-8.6-1.3-12.1-4.2v2.8h-12v-16.9z"/>
  <path class="st0" d="m496.6 141.7h-6.7v-14.4h22.1v40.3h6.9v14.5h-29.2v-14.5h6.9zm0-30.5h15.4v13.2h-15.5v-13.2z"/>
  <path class="st0" d="m549.1 183.4c-8.3 0-15.3-2.7-20.9-8.3-5.6-5.5-8.4-12.5-8.4-20.5s2.7-14.7 8.4-20.5c5.3-5.5 12-8.3 19.1-8.3 6 0 11 2.1 15.1 6.3v-4.9h12.4v20.2h-14.8c-2.2-4.2-5.8-6.4-10.6-6.4-7.4 0-13.1 5.9-13.1 13.6s5.5 13.6 12.8 13.6c4.5 0 8.3-2.2 10.3-6.1h17.9c-3.7 13.5-14.1 21.3-28.2 21.3z"/>
  <path class="st0" d="m607 182.9c-15.4 0-26.8-11.8-26.8-28.2 0-16.5 11.5-28.3 26.8-28.3 7.4 0 12.7 2.3 16.8 7.7v-6.8h21v14.4h-6v25.9h6v14.5h-21.8v-6.1c-3.8 4.7-9 6.9-16 6.9zm2.8-14.5c7.6 0 13.2-5.7 13.2-13.7s-5.6-13.7-13.2-13.7-13.2 5.7-13.2 13.7c0.1 8 5.7 13.7 13.2 13.7z"/>
 </g>
</svg>
