<svg id="a" width="888.23mm" height="285.22mm" version="1.1" viewBox="0 0 888.23 285.22" xmlns="http://www.w3.org/2000/svg">
 <g id="b" transform="translate(461.12 -6.2229)">
  <g id="c" transform="matrix(.26458 0 0 .26458 -461.12 6.2229)" fill="#066855">
   <path id="d" d="m0 0v1078h1078v-1078zm338.13 749-103.23-162h-0.903v162h-110v-421h163.91c83.142 0 146.2 39.833 146.2 129.67 0 58.032-32.364 108.28-92.07 118.88l132.25 172.45zm452.87 3h-102v-32h-1.409c-18.031 29-53.531 41.673-87.34 41.673-85.649 0-145.94-71.573-145.94-154.4 0-82.833 59.306-153.84 144.96-153.84 33.245 0 67.734 12.39 89.734 37.747v-28.177h102v289zm161-1h-102v-286h102zm-51.063-339.1c-31.248 0-56.916-25.668-56.916-56.916s25.668-56.916 56.916-56.916 56.916 25.668 56.916 56.916-25.668 56.916-56.916 56.916z"/>
   <path id="e" d="m244.39 412h-10.389v105h10.389c35.712 0 75.888-6.744 75.888-52.5s-40.176-52.5-75.888-52.5z"/>
   <path id="f" d="m626.17 542.45c-41.698 0-65.927 29.863-65.927 65.363 0 36.626 24.229 64.801 65.927 64.801s65.928-28.175 65.928-64.801c0-35.5-24.23-65.363-65.928-65.363z"/>
   <path id="g" d="m1318.5 390.21h22.461v77.709h-151.29v-77.709h36.401v-220.99h-36.401v-77.193h151.29c32.355 0 55.462 1.593 69.318 4.776 13.853 3.187 26.115 8.479 36.788 15.878 16.008 10.843 28.658 25.559 37.952 44.147s13.941 38.556 13.941 59.896c0 25.991-6.241 49.182-18.718 69.576-12.48 20.396-29.733 36.015-51.764 46.858l46.729 57.056h35.37v77.709h-81.324l-110.76-134.76v57.056zm0-124.7h18.071c23.752 0 41.05-3.614 51.893-10.843s16.264-18.588 16.264-34.078c0-15.833-4.69-27.108-14.069-33.82-9.383-6.712-25.946-10.069-49.697-10.069h-22.461v88.81z"/>
   <path id="h" d="m1753.4 436.65c-9.487 12.222-21.347 21.343-35.579 27.366-14.231 6.022-30.665 9.036-49.294 9.036-40.884 0-74.866-14.111-101.95-42.34-27.084-28.225-40.626-63.938-40.626-107.14 0-43.199 13.425-78.956 40.274-107.27 26.85-28.31 60.84-42.469 101.98-42.469 19.79 0 36.919 3.316 51.377 9.94 14.457 6.627 26.934 16.91 37.434 30.851v-35.885h111.01v76.16h-31.496v137.35h31.496v76.676h-114.63v-32.271zm-139.67-113.08c0 21 6.584 38.298 19.751 51.892 13.166 13.599 29.903 20.396 50.214 20.396 20.138 0 36.789-6.797 49.956-20.396 13.166-13.594 19.75-30.892 19.75-51.892 0-21.17-6.543-38.552-19.621-52.15-13.082-13.594-29.778-20.396-50.085-20.396-20.311 0-37.048 6.841-50.214 20.525-13.167 13.683-19.751 31.025-19.751 52.021z"/>
   <path id="i" d="m2110.7 435.65c-9.487 12.222-21.348 21.343-35.579 27.366s-30.666 9.036-49.294 9.036c-40.884 0-74.866-14.111-101.95-42.34-27.084-28.225-40.626-63.938-40.626-107.14 0-43.199 13.425-78.956 40.274-107.27 26.85-28.31 60.839-42.469 101.98-42.469 19.79 0 36.919 3.316 51.376 9.94 14.458 6.627 26.935 16.91 37.435 30.851v-48.02h-31.497v-73.578h111.01v299.22h31.496v76.676h-114.63v-32.27zm-139.67-113.08c0 21 6.584 38.298 19.751 51.892 13.166 13.599 29.903 20.396 50.214 20.396 20.137 0 36.789-6.797 49.956-20.396 13.166-13.594 19.75-30.892 19.75-51.892 0-21.17-6.544-38.552-19.621-52.15-13.082-13.594-29.778-20.396-50.085-20.396-20.311 0-37.048 6.841-50.214 20.525-13.167 13.683-19.751 31.025-19.751 52.021z"/>
   <path id="j" d="m2288.8 391.25v-137.35h-35.369v-76.16h117.21v213.51h36.659v76.676h-154.9v-76.676zm0-229.51v-69.706h81.841v69.706z"/>
   <path id="k" d="m2415.2 322.44c0-21.323 3.785-41.142 11.359-59.456 7.573-18.314 18.545-34.566 32.917-48.754 14.369-14.188 31.151-25.151 50.344-32.888 19.188-7.737 39.282-11.61 60.282-11.61 21.34 0 41.393 3.784 60.154 11.352 18.757 7.567 35.324 18.443 49.697 32.63 14.369 14.188 25.386 30.525 33.046 49.012 7.656 18.488 11.489 38.391 11.489 59.714s-3.704 41.146-11.102 59.46c-7.402 18.314-18.42 34.567-33.046 48.754-14.632 14.188-31.412 25.147-50.344 32.884-9.467 3.614-19.104 6.362-28.915 8.257-9.81 1.888-20.137 2.836-30.98 2.836-21.516 0-41.609-3.743-60.282-11.218-18.677-7.479-35.284-18.27-49.827-32.373-14.546-14.102-25.646-30.48-33.304-49.141-7.66-18.66-11.488-38.478-11.488-59.459zm87.263 0c0 19.589 6.623 36.427 19.879 50.513 13.251 14.087 29.173 21.13 47.761 21.13 18.416 0 34.248-6.999 47.503-21 13.253-14.002 19.88-30.884 19.88-50.642 0-20.101-6.543-37.197-19.621-51.283-13.082-14.086-29.004-21.134-47.762-21.134-18.418 0-34.296 7.047-47.633 21.134-13.339 14.085-20.007 31.181-20.007 51.282z"/>
   <path id="l" d="m1384 902.96h35.376v78.292h-163.61v-78.292h35.115v-222.65h-35.115v51.762h-68.148v-129.54h299.91v129.53h-68.148v-51.762h-35.376v222.65z"/>
   <path id="m" d="m1771.5 894.38c-12.662 29.569-31.733 52.567-57.224 68.996-25.491 16.428-54.54 24.643-87.137 24.643-22.368 0-42.836-3.642-61.386-10.913-9.364-3.814-18.078-8.36-26.142-13.646-8.063-5.285-15.996-11.824-23.8-19.623-14.565-14.55-25.75-31.009-33.554-49.378-3.642-9.183-6.419-18.666-8.324-28.455-1.908-9.791-2.86-20.233-2.86-31.319 0-21.483 3.813-41.449 11.444-59.901 7.628-18.452 18.681-34.824 33.165-49.119 14.477-14.297 31.384-25.341 50.72-33.139 19.332-7.793 39.579-11.695 60.736-11.695 26.354 0 51.111 5.983 74.261 17.947 23.15 11.966 41.919 28.701 56.313 50.202 8.324 12.143 14.568 25.319 18.729 39.536 4.16 14.224 6.242 29.652 6.242 46.3l-0.78 15.606c0 2.082-0.13 4.553-0.389 7.414-0.261 2.86-0.74 6.2-1.432 10.014h-215.63c3.465 12.928 10.925 23.311 22.369 31.155 11.445 7.846 24.883 11.762 40.317 11.762 8.147 0 15.82-1.278 23.019-3.839 7.195-2.56 14.089-6.743 20.681-12.547h100.66zm-209.13-88.958h130.32c-4.162-15.951-11.924-28.175-23.28-36.674-11.361-8.496-25.449-12.746-42.268-12.746-15.783 0-29.351 4.338-40.707 13.005-11.36 8.672-19.377 20.807-24.06 36.415z"/>
   <path id="n" d="m2106 874.61c-9.364 35.469-27.357 63.232-53.973 83.304-26.619 20.07-58.743 30.104-96.371 30.104-22.197 0-42.658-3.684-61.386-11.044s-35.373-18.364-49.94-33.003-25.752-31.145-33.556-49.509c-3.64-9.188-6.419-18.671-8.321-28.46-1.91-9.787-2.862-20.228-2.862-31.319 0-21.308 3.642-41.014 10.925-59.121 7.283-18.104 18.551-34.783 33.814-50.03 13.869-14.379 29.476-25.298 46.819-32.747 8.667-3.809 17.558-6.669 26.661-8.574 9.104-1.903 18.598-2.86 28.482-2.86 15.95 0 30.646 2.777 44.088 8.323 13.438 5.551 25.531 13.963 36.285 25.23v-26.011h66.067v107.42h-78.813c-5.722-10.925-13.442-19.331-23.149-25.23-4.683-2.772-9.801-4.941-15.347-6.503-5.55-1.561-11.533-2.341-17.947-2.341-19.769 0-36.374 6.972-49.812 20.902-13.441 13.931-20.157 31.109-20.157 51.537 0 20.43 6.544 37.561 19.638 51.409 13.088 13.854 29.262 20.772 48.51 20.772 12.137 0 22.931-2.753 32.384-8.257 9.446-5.504 16.949-13.504 22.499-23.998h95.462z"/>
   <path id="o" d="m2151 904v-224.74h-35.634v-76.731h117.57v120.95c9.706-13.35 21.328-23.28 34.854-29.783 13.525-6.503 28.956-9.753 46.3-9.753 32.075 0 56.875 9.67 74.391 29.002 17.512 19.336 26.271 46.948 26.271 82.843v108.21h37.193v77.251h-121.99v-160.75c0-21.85-3.47-37.366-10.405-46.561-6.939-9.187-18.728-13.784-35.374-13.784-15.607 0-28.05 5.42-37.325 16.257-9.281 10.841-13.916 25.537-13.916 44.088v83.495h33.554v77.251h-152.68v-77.251z"/>
   <path id="p" d="m2758.7 894.38c-12.663 29.569-31.734 52.567-57.226 68.996-25.489 16.428-54.539 24.643-87.135 24.643-22.369 0-42.836-3.642-61.387-10.913-9.364-3.814-18.078-8.36-26.142-13.646-8.063-5.285-15.995-11.824-23.8-19.623-14.565-14.55-25.75-31.009-33.554-49.378-3.642-9.183-6.419-18.666-8.323-28.455-1.908-9.791-2.861-20.233-2.861-31.319 0-21.483 3.813-41.449 11.445-59.901 7.625-18.452 18.68-34.824 33.164-49.119 14.478-14.297 31.384-25.341 50.72-33.139 19.332-7.793 39.579-11.695 60.737-11.695 26.354 0 51.111 5.983 74.261 17.947 23.149 11.966 41.919 28.701 56.313 50.202 8.323 12.143 14.566 25.319 18.729 39.536 4.161 14.224 6.243 29.652 6.243 46.3l-0.781 15.606c0 2.082-0.13 4.553-0.389 7.414-0.26 2.86-0.74 6.2-1.432 10.014h-215.63c3.465 12.928 10.926 23.311 22.37 31.155 11.444 7.846 24.882 11.762 40.317 11.762 8.146 0 15.818-1.278 23.019-3.839 7.194-2.56 14.087-6.743 20.68-12.547h100.66zm-209.13-88.958h130.31c-4.162-15.951-11.924-28.175-23.279-36.674-11.361-8.496-25.449-12.746-42.268-12.746-15.785 0-29.352 4.338-40.708 13.005-11.361 8.672-19.377 20.807-24.059 36.415z"/>
   <path id="q" d="m2812.8 981.25v-215.63h-36.676v-76.731h36.676v-86.356h84.275v86.356h36.675v76.731h-36.675v138.38h28.091v77.251z"/>
   <path id="r" d="m3245.2 894.38c-12.663 29.569-31.734 52.567-57.224 68.996-25.49 16.428-54.54 24.643-87.138 24.643-22.37 0-42.834-3.642-61.386-10.913-9.363-3.814-18.078-8.36-26.141-13.646-8.063-5.285-15.996-11.824-23.801-19.623-14.565-14.55-25.75-31.009-33.554-49.378-3.642-9.183-6.42-18.666-8.323-28.455-1.909-9.791-2.861-20.233-2.861-31.319 0-21.483 3.813-41.449 11.444-59.901 7.627-18.452 18.683-34.824 33.164-49.119 14.479-14.297 31.386-25.341 50.723-33.139 19.33-7.793 39.577-11.695 60.734-11.695 26.355 0 51.111 5.983 74.263 17.947 23.148 11.966 41.918 28.701 56.312 50.202 8.325 12.143 14.566 25.319 18.729 39.536 4.161 14.224 6.242 29.652 6.242 46.3l-0.779 15.606c0 2.082-0.132 4.553-0.392 7.414-0.26 2.86-0.739 6.2-1.431 10.014h-215.63c3.465 12.928 10.926 23.311 22.369 31.155 11.445 7.846 24.883 11.762 40.317 11.762 8.146 0 15.819-1.278 23.021-3.839 7.193-2.56 14.088-6.743 20.678-12.547h100.66zm-209.13-88.958h130.32c-4.164-15.951-11.925-28.175-23.28-36.674-11.361-8.496-25.449-12.746-42.269-12.746-15.783 0-29.351 4.338-40.706 13.005-11.362 8.672-19.377 20.807-24.06 36.415z"/>
   <path id="s" d="m3272.8 776.55v-42.917l3.642 0.521h3.902c10.403 0 17.77-2.514 22.108-7.544 4.333-5.025 6.503-13.697 6.503-26.011v-10.664h-36.155v-87.397h84.274v100.66c0 24.798-5.811 43.356-17.427 55.664-11.622 12.313-29.481 18.468-53.582 18.468h-8.064z"/>
  </g>
 </g>
</svg>
