<svg id="a" width="812.74pt" height="472.91pt" version="1.1" viewBox="0 0 812.74 472.91" xmlns="http://www.w3.org/2000/svg">
 <g id="b" transform="translate(-6.86,-14.52)" fill="#ff1500">
  <path id="c" d="m135.81 14.52h517.74l-9.9 55.14h175.95l-73.83 417.77h-393.23l5.94-32.61-351.62-0.02 68-385.14 50.46 2.52e-4 10.49-55.14"/>
  <path id="d" d="m181.14 98.38c9.81 0.58 20.38-1.81 29.49 2.89 7.9 3.95 12.75 12.11 14.6 20.52 2.9 12.98 2.93 26.54 1 39.66-1.72 9.9-5.38 20.85-14.64 26.11-9.28 5.25-20.31 3.11-30.46 3.57 0-30.92-0.02-61.83 0.01-92.75z"/>
 </g>
 <g id="e" transform="translate(-6.86,-14.52)" fill="#fff">
  <path id="f" d="m532.09 54.19c13.41-9.7 30.71-13.35 47-11.12 12.03 1.41 24.12 5.45 33.41 13.46 10.35 9.02 18.91 20.27 24.03 33.06 3.57 9.02 6.98 18.17 9.03 27.68l-42.54 22.05c-3.11-12.26-6.33-26.36-17.47-33.93-6.9-5.16-16.47-5.39-24.2-2.05-6.3 2.9-9.91 9.49-11.99 15.8-2.59 10.2-3.1 21.49 1.18 31.31 4.17 8.55 12.53 13.87 20.39 18.67 9.64 5.86 19.62 11.12 29.53 16.48 8.15 4.89 16.01 10.41 22.91 16.97 12.21 12.65 20.83 28.9 23.84 46.27 3.92 22.08 3.12 45.08-2.76 66.74-5.12 18.07-14.79 35.47-29.81 47.12-14.28 11.15-32.76 15.76-50.66 15.56-15.37-0.51-31.37-3.9-43.78-13.48-12.28-9.85-21.8-23.16-26.94-38.05-4.14-11.86-7.53-24.04-9.11-36.52l45.38-18.64c2.73 13.18 5.6 27.02 13.87 37.99 8.31 10.94 24.79 12.64 36.46 6.47 7.07-4.42 11.38-12.42 12.85-20.47 1.95-8.54 1.29-17.58-1.46-25.86-2.73-8.06-9.27-14.14-16.09-18.85-15.6-8.78-31.13-17.8-45.62-28.34-13.64-9.97-23.7-24.44-28.95-40.45-9.37-28.27-8.46-59.75 2.04-87.58 5.91-15.76 15.85-30.24 29.46-40.29z"/>
  <path id="g" d="m129.61 46.818h69.37c11.47-0.06 23.03 0.5025 34.27 2.9725 8.95 1.99 17.24 6.68 23.68 13.19 6.61 7.01 12.1 15.09 16.26 23.78 9.65 20.96 11.98 44.48 10.68 67.3-0.74 16.53-3.18 33.3-10.43 48.34-5.22 12.05-14.55 21.94-25.32 29.26l41.86 141.28h-59.98c-10.36-42.66-20.76-85.27-31.13-127.93-5.92-0.02-11.83 0-17.74-0.02v127.95h-55.81v-303.28l4.2902-22.843m51.52 51.562v92.75c10.15-0.46 21.18 1.68 30.46-3.57 9.26-5.26 12.92-16.21 14.64-26.11 1.93-13.12 1.9-26.68-1-39.66-1.85-8.41-6.7-16.57-14.6-20.52-9.11-4.7-19.69-2.31-29.5-2.89z"/>
  <path id="h" d="m308.14 46.818h51.85c16.71-0.18 33.66 0.2425 49.88 4.6125 20.55 6.05 37.26 21.49 47.59 39.95 6.37 11.04 10.24 23.27 13.57 35.5 3.62 13.46 5.93 27.25 7.04 41.14 2.39 24.93 2.29 50.07 0.31 75.04-1.72 19.72-4.89 39.41-10.83 58.34-5.2 16.33-12.99 31.97-23.89 45.26-9.34 12.11-23.45 19.91-38.1 23.64-13.61 3.38-27.71 2.52-41.59 2.64h-55.82c-0.05-108.72-0.03-217.41-0.01-326.12m55.72 56.802-0.02 211.94c10.23-0.27 20.8 1.4 30.66-2.14 9.45-2.28 15.17-11.3 18.05-19.97 3.37-12.52 4.37-25.52 5.39-38.4 1.92-27.99 1.96-56.09 0.42-84.1-1.03-15.52-2.42-31.24-7.48-46.05-2.44-7-6.22-14.22-13.12-17.7-6.4316-3.6637-13.612-3.7388-20.839-3.6822z"/>
  <path id="i" d="m256.31 397.84c0.44-4.34 3.47-8.41 7.78-9.48 4.26-1.06 9.6-0.67 12.53 3.01 2.58 3.26 2.77 7.64 2.69 11.62-2.83 0.02-5.66 0.02-8.49 0.01-0.26-2.41 0.28-5.45-1.83-7.18-2.73-1.2-4.19 2.01-4.07 4.23-0.35 7.28-0.65 14.67 0.31 21.92 0.2 2.42 3.71 2.99 4.87 0.94 1.17-2.33 0.85-5.03 0.92-7.54-0.88 0-2.64 0.01-3.52 0.01 0-2.51 0-5.01 0.01-7.51h12.11c0.02 7.71-0.01 15.42 0.02 23.13-2.27-0.46-6.93 1.51-6.55-2.25-2.14 2.12-5.12 3.54-8.2 2.84-5.06-0.69-8.28-5.69-8.72-10.47-0.81-7.72-0.87-15.58 0.14-23.28z"/>
  <path id="j" d="m437.34 389.26c4.71-2.45 11.55-1.92 14.92 2.54 2.06 2.73 2.13 6.29 2.19 9.57-2.66 0.01-5.3 0.01-7.95 0.01-0.41-2.1-0.09-5.33-2.62-6.15-2.89-0.52-4.13 3.49-2.65 5.48 3.53 5.12 11.16 6.74 12.88 13.24 1.51 5.86 0.72 13.86-5.3 16.89-4.41 1.8-10.23 1.62-13.83-1.8-3.15-3.28-3.3-8.14-3.18-12.42 2.74 0 5.5 0 8.25 0.02 0.18 2.08-0.08 4.34 0.89 6.28 0.91 1.79 3.93 1.62 4.72-0.21 1.4-2.53 0.05-5.6-2.09-7.23-3.88-3.45-9.51-5.98-10.74-11.5-1.2-5.14-0.47-11.81 4.51-14.72z"/>
  <path id="k" d="m491.56 393.53c3.24-6.22 12.12-7.18 17.73-3.81 4.51 3.01 5.2 8.92 5.28 13.9-2.87 0-5.74 0-8.61-0.01-0.31-2.33-0.03-4.96-1.53-6.93-1.87-1.9-5.18-0.38-5.22 2.19-0.86 7.27-0.81 14.69 0.01 21.97-0.01 2.57 3.11 4.09 5.11 2.44 1.9-2.48 1.22-5.87 1.46-8.78 2.95-0.01 5.89-0.01 8.84 0.03 0.07 5.52-0.13 12.46-5.37 15.74-5.64 3.04-14.26 2.23-17.59-3.83-2.46-5.1-1.93-10.99-2.06-16.49 0.12-5.49-0.38-11.3 1.95-16.42z"/>
  <path id="l" d="m527.85 388.57c4.61-1.39 10.47-0.98 13.8 2.89 2.87 3.33 3.25 7.95 3.27 12.15-2.85 0.01-5.71 0.01-8.55 0.03-0.33-2.38 0.06-5.24-1.72-7.12-1.81-1.55-4.73-0.32-4.96 2-0.91 5.11-0.47 10.34-0.56 15.51 0.15 2.87-0.09 5.93 1.11 8.63 1.11 1.91 4.49 1.66 5.2-0.47 0.92-2.45 0.63-5.13 0.71-7.69 2.94 0 5.89 0 8.83-0.02 0.11 4.61 0.06 9.67-2.8 13.54-3.16 4.11-9.06 4.5-13.73 3.4-4.34-1.1-7.36-5.18-7.83-9.53-0.91-7.62-0.83-15.38-0.15-23.02 0.33-4.44 2.94-8.95 7.38-10.3z"/>
  <path id="m" d="m578.26 393.19c3.67-7.57 16.8-7.13 19.78 0.8 0.94 2.34 0.89 4.91 1.03 7.38-2.69 0.01-5.37 0.01-8.06 0-0.36-2.06 0.02-5.2-2.42-6.08-3.09-0.73-4.33 3.71-2.6 5.72 3.42 4.57 9.91 6.24 12.28 11.72 1.67 4.66 1.52 10.22-0.97 14.57-3.21 5.24-10.77 5.74-15.84 3.19-4.83-2.74-5.29-8.9-5.1-13.85 2.72-0.02 5.45-0.02 8.18-0.04 0.17 2.02 0.07 4.14 0.82 6.07 0.75 1.88 3.61 1.99 4.71 0.34 1.21-1.92 0.84-4.6-0.66-6.26-3.4-3.66-8.41-5.72-11.02-10.11-1.95-4.16-2.11-9.28-0.13-13.45z"/>
  <path id="n" d="m607.34 390.28c3.85-3.22 9.84-3.13 14.06-0.67 3.87 2.48 4.65 7.53 4.42 11.77-2.66-0.01-5.31 0-7.95-0.01-0.34-2.13-0.07-5.91-3.02-6.16-2.88 0-3.5 3.99-1.97 5.87 3.31 4.35 9.32 6.01 11.94 10.99 1.86 4.33 1.79 9.5 0.03 13.86-3.32 8.21-17.44 8.14-20.56-0.18-1.19-2.89-1.05-6.07-1.07-9.13h8.2c0.15 2.05 0 4.21 0.83 6.14 0.8 1.89 3.88 1.86 4.77 0.06 1.41-2.4 0.29-5.46-1.76-7.1-3.83-3.49-9.38-5.9-10.9-11.28-1.24-4.76-0.91-10.67 2.98-14.16z"/>
  <path id="o" d="m131.69 388.63c1.93-0.02 3.87-0.02 5.8-0.02 0.02 14.13 0 28.26 0.01 42.39-2.88 0.01-5.75 0-8.63-0.02 0-9.66 0.01-19.32 0-28.98-2.5 0-5-0.01-7.5-0.02 0.01-2.16 0.01-4.32 0-6.47 4.57 0.23 9.22-2.18 10.32-6.88z"/>
  <path id="p" d="m151.39 389.44c4.82-1.84 11.28-0.73 14.07 3.96 2.07 3.83 1.89 8.37 2.04 12.6-0.12 6.51 0.45 13.18-1.21 19.54-2.97 7.73-15.22 8.48-19.62 1.69-1.75-2.77-1.74-6.19-1.98-9.34-0.21-6.66-0.37-13.37 0.44-19.99 0.32-3.7 2.72-7.18 6.26-8.46m3.99 6.86c-2.43 1.11-1.8 4.49-2.1 6.68 0.15 6.42-0.53 12.93 0.51 19.29 0.34 2.68 4.47 2.56 4.55-0.21 0.95-6.99 0.52-14.11 0.37-21.14-0.02-1.96-0.58-5.38-3.33-4.62z"/>
  <path id="q" d="m179.22 389.29c5.08-1.79 11.88-0.18 14.15 5.12 2.19 5.92 1.31 12.38 1.51 18.56-0.14 4.42 0.1 9.02-1.47 13.23-3.38 7.01-14.64 7.6-19.08 1.38-2.3-3.37-2.07-7.68-2.3-11.58 0.01-6.17-0.33-12.39 0.55-18.52 0.45-3.71 3.03-7.07 6.64-8.19m3.18 7.15c-1.26 0.71-1.33 2.32-1.53 3.58-0.47 4.99-0.16 10.01-0.25 15.01 0.11 2.78-0.16 5.75 1.03 8.35 1.24 1.89 4.06 0.59 4.11-1.44 0.93-6.9 0.43-13.92 0.38-20.86 0.08-2.12-0.82-5.93-3.74-4.64z"/>
  <path id="r" d="m203.31 389.46c3.93-1.7 10.23-1.18 11.68 3.59 1.27 4.41 1.32 9.36-0.24 13.71-1.69 4.1-7.06 4.51-10.76 3.31-4.12-1.38-4.58-6.4-4.64-10.09 0.05-3.71 0.14-8.63 3.96-10.52m3.1 5.05c-1.26 1.47-0.93 3.67-1.05 5.49 0.11 1.97-0.11 5.23 2.65 5.39 2.68-1.86 1.73-5.76 1.69-8.54 0.17-1.66-1.72-4.04-3.29-2.34z"/>
  <path id="s" d="m206.66 431.74c6-14.38 12.03-28.75 18.07-43.12 1.64 0 3.29 0 4.95 0.01-6.03 14.36-12.01 28.75-18.04 43.11-1.66 0-3.33-0.01-4.98 0z"/>
  <path id="t" d="m285.75 388.87c5.75 0.18 11.56-0.44 17.27 0.5 3.18 0.55 5.5 3.35 6.24 6.39 1.19 4.93 0.44 10.87-3.82 14.16 6.69 5.18 1.88 14.65 5.95 21.12-3.47-0.05-6.95-0.03-10.42-0.07-1.02-4.62-0.04-9.37-0.78-14-0.27-2.83-3.4-2.91-5.55-2.95-0.03 5.65-0.02 11.3-0.01 16.96-2.96 0.02-5.93 0.03-8.89 0.01 0.01-14.04 0.01-28.08 0.01-42.12m8.88 7.29c-0.02 3.43-0.02 6.87 0.02 10.3 1.56-0.26 3.32-0.1 4.69-1.08 1.67-2.03 1.6-5.07 0.7-7.42-1.08-1.95-3.56-1.59-5.41-1.8z"/>
  <path id="u" d="m321.17 388.87c3.55 0 7.09 0.01 10.64 0 2.75 14.04 5.46 28.08 8.16 42.13-2.99 0.01-5.99 0.01-8.98 0-0.36-2.71-0.71-5.42-1.09-8.12-2.29-0.01-4.57-0.01-6.84-0.01-0.37 2.7-0.73 5.4-1.08 8.11-3.03 0.03-6.06 0.03-9.09 0.01 2.79-14.03 5.51-28.08 8.28-42.12m2.86 26.39c1.63-0.01 3.25-0.01 4.89-0.01-0.78-5.86-1.64-11.71-2.37-17.57-0.99 5.84-1.72 11.72-2.52 17.58z"/>
  <path id="v" d="m343.75 388.88c3.11-0.01 6.22-0.01 9.34 0 2.18 8.15 4.79 16.19 6.64 24.42 0.28-8.14-0.67-16.28-0.34-24.43h7.98c0.02 14.05 0.02 28.09 0 42.14-3.11 0-6.21 0-9.31-0.03-2.26-8.5-4.77-16.93-6.87-25.47 0.33 8.5 0.9 16.99 0.67 25.5-2.71 0-5.41-0.01-8.12-0.03 0.01-14.03 0-28.07 0.01-42.1z"/>
  <path id="w" d="m374.02 388.86c5.53 0.22 11.15-0.52 16.6 0.66 4.24 0.99 6.56 5.36 6.87 9.42 0.59 6.82 0.5 13.69 0.14 20.52-0.2 4.27-1.92 9.32-6.46 10.65-5.6 1.44-11.47 0.74-17.19 0.87 0.05-14.04-0.02-28.08 0.04-42.12m8.86 7.77c-0.01 8.91-0.01 17.83 0.01 26.74 2.29 0.07 5.39-0.58 5.57-3.39 0.51-6.62 0.54-13.31 0.06-19.93-0.13-2.91-3.33-3.42-5.64-3.42z"/>
  <path id="x" d="m403.75 388.88c2.96-0.02 5.92-0.02 8.88 0.03-0.01 14.02-0.02 28.04 0 42.07-2.96 0.03-5.93 0.03-8.89 0 0.01-14.03 0-28.07 0.01-42.1z"/>
  <path id="y" d="m459.87 388.88c3.03-0.01 6.07-0.01 9.11-0.01 0.08 9.73-0.08 19.47 0.07 29.2 0.22 2.16-0.17 5.84 2.95 5.92 3.1-0.1 2.76-3.79 2.97-5.97 0.09-9.71-0.01-19.43 0.04-29.14 2.94-0.01 5.89-0.01 8.85-0.01-0.01 10.07 0.08 20.14-0.04 30.22-0.05 4.05-1 8.68-4.6 11.09-3.5 2.12-7.94 2.03-11.83 1.26-4.58-1.08-6.84-5.93-7.12-10.26-0.75-10.75-0.26-21.54-0.4-32.3z"/>
  <path id="z" d="m551.13 388.88c6.91-0.02 13.82 0.01 20.73-0.02 0.01 2.76 0.01 5.51-0.01 8.27-3.95-0.01-7.9-0.01-11.85 0-0.01 2.54-0.01 5.07 0.01 7.61 3.66 0.01 7.32 0.01 10.99 0.02v8.49h-10.98c-0.03 3-0.04 6-0.03 9.01 3.95-0.02 7.91-0.02 11.87 0 0.01 2.91 0.01 5.82 0.01 8.74-6.92 0.01-13.83 0.01-20.75 0 0.01-14.04-0.01-28.08 0.01-42.12z"/>
  <path id="aa" d="m631.38 388.87c2.99 0 5.99 0 8.99 0.01 0.02 14.04 0 28.07 0.01 42.11-3.01 0.02-6.01 0.02-9.01-0.01 0.02-14.03 0-28.07 0.01-42.11z"/>
  <path id="ab" d="m225.18 410.24c3.21-0.91 7.39-0.91 9.76 1.81 2.06 2.85 2.06 6.58 2.03 9.95-0.2 3.03-0.51 6.78-3.35 8.58-4.37 2.48-11.89 1.26-12.65-4.56-0.69-5.23-1.73-13.24 4.21-15.78m2.32 5.22c-1.55 2.86-1.14 6.44-0.57 9.54 0.33 1.67 2.69 1.83 3.41 0.36 0.88-2.89 0.82-6.06 0.1-8.97-0.32-1.27-1.92-1.69-2.94-0.93z"/>
 </g>
</svg>
