<svg id="a" width="402.75pt" height="492.01pt" version="1.1" viewBox="0 0 402.75 492.01" xmlns="http://www.w3.org/2000/svg">
 <g id="b" transform="matrix(1.79 0 0 1.79 -248.15 -286.04)">
  <path id="c" d="m138.63 272.12c0-62.037 50.367-112.32 112.5-112.32 62.137 0 112.5 50.283 112.5 112.32s-50.358 112.32-112.5 112.32c-62.138 0-112.5-50.288-112.5-112.32" fill="#c1021b" stroke-width="1.4173"/>
  <path id="d" d="m160.38 205.82h181.56l-90.781 178.98z" stroke-width="1.4173"/>
  <g id="e" transform="matrix(1.4173 0 0 1.4173 107.56 67.782)" fill="#fff">
   <path id="f" d="m70.177 119.03h1.117c2.497 0 4.677 0.37 4.677 3.45 0 2.97-2.394 3.34-4.784 3.34h-1.01zm-16.188 29.08h14.248v-12.84h0.267l6.379 12.84h16.801l-8.72-13c-0.797-1.17-1.702-1.81-2.446-2.39v-0.32c5.422-1.8 7.764-4.35 7.764-10.4 0-10.09-7.657-13.91-16.696-13.91h-17.597z"/>
   <path id="g" d="m89.424 121.1 8.027-0.37v27.38h14.569v-27.38l8.03 0.37v-13.01h-30.626z"/>
   <path id="h" d="m122.89 148.11h26.8v-12.84h-12.23v-27.18h-14.57z"/>
   <path id="i" d="m80.193 160.93c2.635 0 3.149 2.99 3.149 4.98 0 1.86-0.676 5.32-3.149 5.32s-3.149-3.46-3.149-5.32c0-1.99 0.515-4.98 3.149-4.98m0-7.5c-7.324 0-11.566 5.39-11.566 12.25 0 7.25 4.08 12.7 11.566 12.7s11.566-5.45 11.566-12.7c0-6.86-4.242-12.25-11.566-12.25"/>
   <path id="j" d="m114.95 178v-7.44l-4.72 0.28-4.14 0.58v-0.25c4.27-1.32 8.51-4.33 8.51-9.21 0-5.61-5.33-8.53-10.38-8.53-7.29 0-10.439 3.18-11.081 10.23h8.611c0.06-1.48 0.29-3.05 2.15-3.05 1.09 0 1.99 0.84 1.99 1.93 0 2.15-3.82 5.55-5.33 6.89l-9.668 8.57z"/>
   <path id="k" d="m122.67 170.33c-2.34 0-4.78 1.51-4.78 4.08 0 2.53 2.44 3.97 4.78 3.97 2.35 0 4.79-1.44 4.79-3.97 0-2.57-2.44-4.08-4.79-4.08"/>
   <path id="l" d="m54.126 161.83 3.727-0.25v16.42h8.739v-24.19l-12.466 0.39z"/>
   <path id="m" d="m133.38 153.82-2.12 14.3c2.02-0.71 4.24-1.06 6.43-1.06 1.38 0 4.85 0.45 4.85 2.41 0 1.89-2.8 2.4-4.28 2.4-1.99 0-5.46-1.03-7.23-1.99l-0.96 6.55c2.28 1.12 7.13 1.95 9.67 1.95 5.14 0 11.6-2.79 11.6-8.72 0-4.62-3.85-7.57-8.29-7.57-1.22 0-3.31 0.22-4.11 1.28h-0.23c0.42-0.86 0.62-1.86 0.77-2.79h10.38v-6.76z"/>
  </g>
 </g>
 <g id="n" transform="matrix(.75413 0 0 .75413 109.6 402.03)">
  <path id="o" d="m30.66 28.66c10.12-0.11 20.25-0.29 30.36 0.15 6.71 0.26 13.87 2.56 17.85 8.3 4.88 6.9 5.94 16.49 2.48 24.22-1.77 4.16-5.71 6.64-9.52 8.71 5.38 1.67 10.49 4.92 12.91 10.2 4.88 10.44 2.58 24.52-6.73 31.79-5.07 3.97-11.75 4.52-17.95 4.78-9.79 0.3-19.59 0.12-29.38 0.13-0.2-29.42-0.17-58.85-0.02-88.28m14.11 12.01c-0.13 8.41-0.17 16.84 0.02 25.25 6.28-0.14 12.93 0.39 18.79-2.31 4.63-2.12 5.78-7.83 5.17-12.42-0.26-3.77-2.34-7.65-6.08-8.92-5.72-2.04-11.93-1.75-17.9-1.6m0.01 36.15c-0.16 9.37-0.17 18.74 0.01 28.1 6.76-0.22 13.83 0.57 20.29-1.82 9.57-4.2 9.64-20 0.22-24.42-6.44-2.8-13.69-1.76-20.52-1.86z" fill="#c1021b"/>
  <path id="p" d="m225.13 38.06c4.35-0.11 8.7-0.11 13.05-0.01 0.2 7.21-0.03 14.42 0.11 21.62 3.31-0.02 6.62 0.04 9.93 0.1 0.16 3.8 0.16 7.61-0.01 11.41-3.31 0.05-6.62 0.1-9.93 0.11-0.12 15.21 0.11 30.42-0.11 45.63-4.34 0.12-8.69 0.12-13.03-0.02-0.14-15.21 0.21-30.43-0.17-45.64-3.27 0.03-6.54-0.03-9.81-0.1-0.08-3.79-0.08-7.58-0.01-11.37 3.26-0.08 6.53-0.14 9.79-0.1 0.41-7.2 0.07-14.42 0.19-21.63z" fill="#fff"/>
  <path id="q" d="m101.91 69.96c4.89-7.27 13.37-11.71 22.06-12.16 8.66-0.61 18.13 1.45 24.27 7.98 6.29 6.37 7.86 15.79 7.61 24.4-15.26 0.34-30.54 0-45.81 0.16 0.42 6.19 3.14 12.9 9.18 15.52 7.22 2.87 16.71 1.43 21.62-4.98 1.24-1.5 2.31-3.12 3.41-4.72 3.71 1.88 7.34 3.91 10.91 6.03-4 7.82-11.21 14.18-19.9 16.13-8.43 1.84-17.79 1.28-25.35-3.19-6.62-3.89-11.16-10.84-12.63-18.32-1.77-9.07-0.87-19.16 4.63-26.85m15.45 1.37c-3.54 2.19-5.26 6.17-6.45 9.98 10.44 0.18 20.88 0.26 31.31-0.04-0.67-4.55-3.16-9.1-7.59-10.91-5.47-2.18-12.16-2.17-17.27 0.97z" fill="#fff"/>
  <path id="r" d="m170.55 63.56c5.61-5.41 13.99-6.59 21.45-5.7 5.79 0.63 11.51 3.7 14.19 9.05-2.87 2.25-5.87 4.33-9.03 6.17-3.24-4.87-9.99-7.31-15.24-4.16-3.26 1.76-3.85 6.71-0.76 8.94 6.72 5.24 16.03 5.77 22.5 11.48 7.88 6.35 6.59 20.16-1.69 25.62-6.58 4.55-15.14 4.9-22.81 3.83-7.02-1.03-13.66-5.63-16.19-12.39 3.39-1.88 6.85-3.64 10.22-5.56 2.17 3.09 4.16 6.87 8.17 7.77 4.8 1.38 12.02 1.29 14.16-4.19 1.63-3.57-1.16-7.14-4.32-8.59-7.05-3.57-15.22-5.35-21.1-10.93-5.94-5.52-5.38-15.95 0.45-21.34z" fill="#fff"/>
 </g>
</svg>
