<svg id="a" version="1.1" viewBox="0 0 639.75 242" xmlns="http://www.w3.org/2000/svg">
 <path id="b" d="m30.25 242h-30.25l121-242h30.25z" fill="#009246" stroke-width="1.21"/>
 <path id="c" d="m54.45 242h-30.25l121-242h30.25z" fill="#fff" stroke-width="1.21"/>
 <path id="d" d="m254.1 242h-205.7l121-242h205.7z" fill="#ce2b37" stroke-width="1.21"/>
 <circle id="e" cx="211.75" cy="121" r="72.6" fill="#fff" stroke-width="1.21"/>
 <path id="f" d="m211.75 62.557c-4.961 0-9.075 3.993-9.075 8.954 0 4.114 2.783 7.623 6.534 8.591v6.171h-18.15c-0.968-1.331-2.783-2.178-4.719-2.178-3.146 0-5.566 2.057-5.566 4.719 0 2.541 2.541 4.719 5.566 4.719 2.057 0 3.872-0.968 4.84-2.299h18.15v68.002c0 3.388-2.178 5.808-4.961 5.808-7.623 0-15.73-3.388-22.022-8.47-6.776-5.324-11.495-12.342-11.495-18.876 0-3.267 3.509-4.356 5.808-4.961-5.687-1.452-13.673-3.751-18.755-7.986 1.331 6.776-0.121 14.036-1.815 20.812 1.573-1.694 3.025-3.993 6.292-3.993s7.744 11.979 17.545 19.36c10.164 7.744 22.022 8.228 27.346 11.979 1.936 1.331 4.598 6.413 4.598 6.413s2.662-5.082 4.598-6.413c5.203-3.751 17.061-4.235 27.346-11.979 9.68-7.381 14.278-19.36 17.545-19.36s4.719 2.42 6.292 3.993c-1.694-6.776-3.025-14.036-1.815-20.812-5.082 4.235-12.947 6.534-18.755 7.986 2.299 0.605 5.808 1.694 5.808 4.961 0 6.534-4.719 13.552-11.495 18.876-6.292 4.961-14.52 8.47-22.022 8.47-2.783 0-4.961-2.42-4.961-5.808v-67.881h18.029c0.968 1.452 2.783 2.299 4.84 2.299 3.146 0 5.566-2.057 5.566-4.719 0-2.541-2.541-4.719-5.566-4.719-1.936 0-3.751 0.847-4.719 2.178h-18.15v-6.171c3.751-1.089 6.534-4.477 6.534-8.591-0.242-4.961-4.235-9.075-9.196-9.075zm0 4.598c2.42 0 4.356 1.936 4.356 4.477 0 2.42-1.936 4.356-4.477 4.356-2.42 0-4.477-1.936-4.477-4.356 0.121-2.42 2.178-4.477 4.598-4.477z" stroke-width="1.21"/>
 <path id="g" d="m272.25 242 121-242h246.5l-121 242z" fill="#fff" stroke-width="1.21"/>
 <g id="h" transform="matrix(.31 0 0 .31 297.36 105.18)">
  <path id="i" d="m211.73 50.555c0-165.44 134.32-299.52 300-299.52s300 134.08 300 299.52-134.32 299.52-300 299.52-300-134.08-300-299.52z" fill="#c1021b"/>
  <path id="j" d="m269.73-126.24h484.16l-242.08 477.28z"/>
  <path id="k" d="m394.13-44.485h4.16c9.4399 0 17.68 1.44 17.68 13.04 0 11.28-9.0399 12.64-18.08 12.64h-3.76zm-61.2 109.92h53.84v-48.56h1.04l24.08 48.56h63.52l-32.96-49.12c-3.04-4.4-6.48-6.8799-9.2799-9.0399v-1.2c20.48-6.7999 29.36-16.48 29.36-39.28 0-38.16-28.96-52.64-63.12-52.64h-66.48z" fill="#fff"/>
  <path id="l" d="m466.85-36.645 30.32-1.36v103.44h55.12v-103.44l30.32 1.36v-49.2h-115.76z" fill="#fff"/>
  <path id="m" d="m593.33 65.434h101.28v-48.56h-46.24v-102.72h-55.04z" fill="#fff"/>
  <path id="n" d="m431.97 113.91c9.9199 0 11.92 11.28 11.92 18.8 0 7.04-2.56 20.08-11.92 20.08s-11.92-13.04-11.92-20.08c0-7.5199 1.92-18.8 11.92-18.8zm0-28.4c-27.68 0-43.76 20.4-43.76 46.32 0 27.44 15.44 48 43.76 48s43.68-20.56 43.68-48c0-25.92-16-46.32-43.68-46.32z" fill="#fff"/>
  <path id="o" d="m563.33 178.39v-28.08l-17.84 1.04-15.68 2.16v-0.87999c16.16-5.04 32.16-16.4 32.16-34.88 0-21.2-20.08-32.24-39.2-32.24-27.52 0-39.44 12.08-41.84 38.72h32.48c0.23999-5.6 1.12-11.52 8.1599-11.52 4.08 0 7.52 3.12 7.52 7.28 0 8.0799-14.48 20.96-20.16 26l-36.56 32.4z" fill="#fff"/>
  <path id="p" d="m592.53 149.43c-8.8799 0-18.08 5.68-18.08 15.44 0 9.5199 9.1999 14.96 18.08 14.96s18.08-5.44 18.08-14.96c0-9.7599-9.1999-15.44-18.08-15.44z" fill="#fff"/>
  <path id="q" d="m333.41 117.27 14.08-0.96v62.08h33.04v-91.439l-47.12 1.52z" fill="#fff"/>
  <path id="r" d="m633.01 87.034-7.9999 54c7.5999-2.64 16-4 24.24-4 5.28 0 18.32 1.76 18.32 9.1199 0 7.2-10.56 9.1199-16.16 9.1199-7.5199 0-20.64-3.92-27.28-7.52l-3.68 24.72c8.6399 4.24 26.96 7.3599 36.56 7.3599 19.44 0 43.84-10.56 43.84-32.96 0-17.44-14.56-28.56-31.28-28.56-4.64 0-12.56 0.79999-15.6 4.8h-0.87999c1.6-3.28 2.4-7.0399 2.96-10.56h39.2v-25.52z" fill="#fff"/>
 </g>
</svg>
