<svg id="a" width="490.78pt" height="219.66pt" version="1.1" viewBox="0 0 490.78 219.66" xmlns="http://www.w3.org/2000/svg">
 <g id="b" transform="translate(-6.6799 -146.63)" fill="#fff">
  <path id="c" d="m363.56 222.3c7.46-0.86 15.04-0.82 22.5 0.09 5.54 0.7 11.29 3.26 14.1 8.33 2.76 5.66 3.21 12.09 3.4 18.29 0.15 8.02 0.09 16.27-2.71 23.88-1.89 5.31-6.58 9.43-11.99 10.89-7.74 2.23-15.89 1.99-23.86 1.93-5.5-0.02-10.95-0.79-16.35-1.75 0.3-3.75 0.69-7.49 1-11.23 7.13 0.06 14.26 0.12 21.4 0.06 3.5-0.09 7.26-0.43 10.21-2.49 3.17-2.75 3.83-7.19 4.3-11.11-7.46 5.24-17.15 5.11-25.79 3.84-6.84-1.03-13.28-6.07-14.18-13.22-0.51-6.51-0.86-13.66 2.78-19.41 3.29-5.09 9.42-7.36 15.19-8.1m-0.84 20.68c-0.14 2.84 0.16 6.83 3.4 7.82 6.5 1.72 13.54 0.81 19.61-1.99-0.3-4.52 0.54-10.77-4.15-13.35-4.62-1.47-9.78-1.32-14.48-0.26-3.51 0.74-4.33 4.73-4.38 7.78z"/>
  <path id="d" d="m424.66 223.81c6.83-2.36 14.2-2.14 21.33-2.04 6.5 0.29 13.78 0.72 18.79 5.41 3.76 3.21 4.83 8.31 5.58 12.96 0.97 8.94 1.16 18.04-0.41 26.92-0.84 4.46-2.36 9.02-5.79 12.17-4.38 4.62-11.06 5.54-17.06 6.21-10.3 0.62-20.71 0.52-30.87-1.45 0.15-3.77 0.46-7.53 0.94-11.27 7.3 0.08 14.6 0.14 21.9 0.05 3.43-0.14 7.2-0.5 9.96-2.74 2.92-2.76 3.48-6.98 4-10.76-7.17 4.9-16.28 4.96-24.58 3.98-5.78-0.85-11.91-3.76-14.2-9.49-2.17-5.58-1.71-11.81-0.75-17.61 1.05-5.81 5.6-10.56 11.16-12.34m5.57 20.24c-0.19 2.75 0.7 6.31 3.84 6.93 6.42 1.44 13.24 0.56 19.2-2.18-0.4-4.57 0.46-11.09-4.5-13.46-4.71-1.28-9.95-1.29-14.65 0.02-3.56 1.2-3.98 5.5-3.89 8.69z"/>
 </g>
 <g id="e" transform="translate(-6.6799 -146.63)">
  <path id="f" d="m158.39 155.63c25.92-4.82 52.17-7.99 78.53-8.95 4.48-0.05 8.98-0.18 13.45 0.29-31.62 2.83-62.93 9.64-92.79 20.44-20.13 7.54-39.72 17.1-56.71 30.4-14.55 11.45-27.44 26.43-31.96 44.77-2.91 13.27-1.62 27.62 4.61 39.79 9.38 19.09 26.48 32.96 44.3 43.82 33.01 19.5 70.5 30 108.08 36.23 8.34 1.52 16.84 1.87 25.15 3.57-8.58 0.67-17.18 0.11-25.7-0.93-45.63-2.95-91.29-10.86-134.16-27.12-23.33-9.26-46.48-20.81-64.39-38.77-11.25-11.14-20.02-26-20.1-42.21-0.45-14.92 6.72-29.01 16.44-39.93 14.1-15.68 32.54-26.7 51.47-35.58 26.64-12.26 55.07-20.16 83.78-25.82z" fill="#c2cf00"/>
 </g>
 <g id="g" transform="translate(-6.6799 -146.63)" fill="#ec7307">
  <path id="h" d="m275.31 155.17c18.23-1.11 36.53-0.74 54.73 0.72 35.52 3.2 71.06 10.57 103.57 25.62 17.96 8.46 35.25 19.35 48.22 34.6 7.21 8.54 12.77 18.69 14.8 29.76 2.09 12.76 0.31 26.28-6.07 37.63-8.51 15.6-22.45 27.42-37.3 36.77-36.36 22.09-78.79 31.91-120.76 35.98-45.49 3.86-91.84 0.61-135.84-11.92-20.88-6.23-41.37-14.45-59.62-26.5-14.77-9.9-28.54-22.56-35.85-39.09-7.03-16.1-6-35.5 2.8-50.72 7.83-14.01 20.17-24.93 33.4-33.72 18.05-11.85 38.27-20.01 58.9-26.15 25.71-7.4 52.32-11.53 79.02-12.98m-152.43 67.53c0.01 20.65 0 41.3 0.01 61.95 6.16 0.03 12.32 0.02 18.49 0.01-0.05-7.68 0.01-15.36-0.05-23.03 4.91 0.1 9.83-0.16 14.73 0.23 2.61 0.13 4.87 1.93 5.6 4.43 2.14 6.08 4.18 12.2 6.06 18.37 6.58 0.02 13.17 0 19.76 0.01-2.8-7.31-5.18-14.78-8.09-22.05-1.8-4.44-6.82-6.04-11.14-6.8 4.34-1.13 9.33-1.56 12.55-5.07 4.7-4.9 4.43-12.72 2.12-18.67-3.2-7.16-11.73-9.28-18.85-9.82-13.72-0.8-27.49-0.41-41.19 0.44m143.53-0.03c0 20.66 0.02 41.33-0.01 61.99 6.14 0.01 12.28 0.01 18.42 0-0.06-7.68-0.02-15.36-0.03-23.04 5.08 0.14 10.19-0.2 15.26 0.3 2.52 0.22 4.53 2.16 5.27 4.5 2.19 6.02 3.88 12.2 6.02 18.23 6.58 0.03 13.16 0.03 19.73 0-2.89-7.2-5.11-14.65-8.01-21.83-1.88-4.54-6.82-6.31-11.31-6.98 4.47-1.1 9.58-1.68 12.86-5.3 2.98-3.02 3.45-7.53 3.26-11.56-0.16-4.11-1.24-8.57-4.57-11.29-5.83-5.05-14-5.46-21.34-5.75-11.85-0.22-23.72-0.05-35.55 0.73m97.15-0.37c-5.77 0.74-11.9 3.01-15.19 8.1-3.64 5.75-3.29 12.9-2.78 19.41 0.9 7.15 7.34 12.19 14.18 13.22 8.64 1.27 18.33 1.4 25.79-3.84-0.47 3.92-1.13 8.36-4.3 11.11-2.95 2.06-6.71 2.4-10.21 2.49-7.14 0.06-14.27 0-21.4-0.06-0.31 3.74-0.7 7.48-1 11.23 5.4 0.96 10.85 1.73 16.35 1.75 7.97 0.06 16.12 0.3 23.86-1.93 5.41-1.46 10.1-5.58 11.99-10.89 2.8-7.61 2.86-15.86 2.71-23.88-0.19-6.2-0.64-12.63-3.4-18.29-2.81-5.07-8.56-7.63-14.1-8.33-7.46-0.91-15.04-0.95-22.5-0.09m61.1 1.51c-5.56 1.78-10.11 6.53-11.16 12.34-0.96 5.8-1.42 12.03 0.75 17.61 2.29 5.73 8.42 8.64 14.2 9.49 8.3 0.98 17.41 0.92 24.58-3.98-0.52 3.78-1.08 8-4 10.76-2.76 2.24-6.53 2.6-9.96 2.74-7.3 0.09-14.6 0.03-21.9-0.05-0.48 3.74-0.79 7.5-0.94 11.27 10.16 1.97 20.57 2.07 30.87 1.45 6-0.67 12.68-1.59 17.06-6.21 3.43-3.15 4.95-7.71 5.79-12.17 1.57-8.88 1.38-17.98 0.41-26.92-0.75-4.65-1.82-9.75-5.58-12.96-5.01-4.69-12.29-5.12-18.79-5.41-7.13-0.1-14.5-0.32-21.33 2.04m-233.37 12.74c8.04 0.01 16.08 0.01 24.12-0.01-0.03 16.04 0.01 32.08-0.03 48.12 6.25 0 12.49 0.02 18.74-0.01-0.02-16.03 0.05-32.05-0.04-48.08 7.95-0.04 15.9 0.01 23.84-0.03-0.05-4.61-0.04-9.23-0.01-13.85-22.2-0.02-44.4 0.02-66.59-0.01-0.01 4.62 0.01 9.24-0.03 13.87z"/>
  <path id="i" d="m141.37 234.85c6.75 0.22 13.63-0.79 20.27 0.75 4.39 1.04 4.96 6.74 3.19 10.16-1.61 2.22-4.63 2.56-7.17 2.8-5.43 0.24-10.88 0.05-16.32 0.12 0.02-4.61 0.01-9.22 0.03-13.83z"/>
  <path id="j" d="m284.8 234.86c6.89 0.24 13.96-0.88 20.72 0.85 3.82 0.99 4.28 5.86 3.25 9.04-0.63 2.57-3.63 3.32-5.91 3.65-5.97 0.57-11.98 0.09-17.97 0.34-0.2-4.63-0.07-9.26-0.09-13.88z"/>
  <path id="k" d="m362.72 242.98c0.05-3.05 0.87-7.04 4.38-7.78 4.7-1.06 9.86-1.21 14.48 0.26 4.69 2.58 3.85 8.83 4.15 13.35-6.07 2.8-13.11 3.71-19.61 1.99-3.24-0.99-3.54-4.98-3.4-7.82z"/>
  <path id="l" d="m430.23 244.05c-0.09-3.19 0.33-7.49 3.89-8.69 4.7-1.31 9.94-1.3 14.65-0.02 4.96 2.37 4.1 8.89 4.5 13.46-5.96 2.74-12.78 3.62-19.2 2.18-3.14-0.62-4.03-4.18-3.84-6.93z"/>
 </g>
 <g id="m" transform="translate(-6.6799 -146.63)" fill="#010000">
  <path id="n" d="m122.88 222.7c13.7-0.85 27.47-1.24 41.19-0.44 7.12 0.54 15.65 2.66 18.85 9.82 2.31 5.95 2.58 13.77-2.12 18.67-3.22 3.51-8.21 3.94-12.55 5.07 4.32 0.76 9.34 2.36 11.14 6.8 2.91 7.27 5.29 14.74 8.09 22.05-6.59-0.01-13.18 0.01-19.76-0.01-1.88-6.17-3.92-12.29-6.06-18.37-0.73-2.5-2.99-4.3-5.6-4.43-4.9-0.39-9.82-0.13-14.73-0.23 0.06 7.67 0 15.35 0.05 23.03-6.17 0.01-12.33 0.02-18.49-0.01-0.01-20.65 0-41.3-0.01-61.95m18.49 12.15c-0.02 4.61-0.01 9.22-0.03 13.83 5.44-0.07 10.89 0.12 16.32-0.12 2.54-0.24 5.56-0.58 7.17-2.8 1.77-3.42 1.2-9.12-3.19-10.16-6.64-1.54-13.52-0.53-20.27-0.75z"/>
  <path id="o" d="m266.41 222.67c11.83-0.78 23.7-0.95 35.55-0.73 7.34 0.29 15.51 0.7 21.34 5.75 3.33 2.72 4.41 7.18 4.57 11.29 0.19 4.03-0.28 8.54-3.26 11.56-3.28 3.62-8.39 4.2-12.86 5.3 4.49 0.67 9.43 2.44 11.31 6.98 2.9 7.18 5.12 14.63 8.01 21.83-6.57 0.03-13.15 0.03-19.73 0-2.14-6.03-3.83-12.21-6.02-18.23-0.74-2.34-2.75-4.28-5.27-4.5-5.07-0.5-10.18-0.16-15.26-0.3 0.01 7.68-0.03 15.36 0.03 23.04-6.14 0.01-12.28 0.01-18.42 0 0.03-20.66 0.01-41.33 0.01-61.99m18.39 12.19c0.02 4.62-0.11 9.25 0.09 13.88 5.99-0.25 12 0.23 17.97-0.34 2.28-0.33 5.28-1.08 5.91-3.65 1.03-3.18 0.57-8.05-3.25-9.04-6.76-1.73-13.83-0.61-20.72-0.85z"/>
  <path id="p" d="m191.29 236.55c0.04-4.63 0.02-9.25 0.03-13.87 22.19 0.03 44.39-0.01 66.59 0.01-0.03 4.62-0.04 9.24 0.01 13.85-7.94 0.04-15.89-0.01-23.84 0.03 0.09 16.03 0.02 32.05 0.04 48.08-6.25 0.03-12.49 0.01-18.74 0.01 0.04-16.04 0-32.08 0.03-48.12-8.04 0.02-16.08 0.02-24.12 0.01z"/>
 </g>
</svg>
