<svg width="464.17pt" height="453.13pt" version="1.1" viewBox="0 0 464.17 453.13" xmlns="http://www.w3.org/2000/svg">
 <g transform="matrix(3.3566 0 0 3.3566 -31.679 -104.05)">
  <path d="m22.57 58.008c16.9-21.716 47.086-31.506 73.693-25.047 21.866 4.9659 41.872 20.629 49.351 42.127-5.8735-9.7742-15.933-16.69-26.945-19.398-15.603-4.1182-33.006 1.0127-44.183 12.58-4.0957-7.0662-10.794-12.505-18.663-14.778-11.049-3.4881-23.547-1.8453-33.253 4.5158z" stroke-width=".75013"/>
  <path d="m35.997 75.958c1.7628-3.8707 6.6612-5.8435 10.652-4.5083 4.7408 1.4027 7.6213 6.5487 7.4338 11.32-0.21754 7.9964-4.7258 15.115-9.8492 20.951l-26.037 28.167c-7.5538-14.057-10.487-30.77-7.7564-46.501h24.552c-0.50259-3.1356-0.47258-6.5412 1.0052-9.4292z" stroke-width=".75013"/>
  <path d="m129.66 96.195a22.089 22.003 0 0 1-22.089 22.003 22.089 22.003 0 0 1-22.089-22.003 22.089 22.003 0 0 1 22.089-22.003 22.089 22.003 0 0 1 22.089 22.003z" style="paint-order:stroke markers fill"/>
  <path d="m50.677 123.36 15.363-14.553c1.8153 5.2209 4.3433 10.127 7.6664 14.553z" stroke-width=".75013"/>
  <path d="m139.33 125.3c3.6306-3.5331 5.9936-8.0414 8.394-12.437-3.6381 16.165-12.925 31.251-26.712 40.65-10.562 7.4263-23.299 11.417-36.119 12.265-21.641 1.6578-44.648-6.0873-58.885-22.935h52.813v-14.496c17.163 13.945 45.042 13.082 60.509-3.0455z" stroke-width=".75013"/>
 </g>
</svg>
