<svg width="569.75pt" height="564.66pt" version="1.1" viewBox="0 0 569.75 564.66" xmlns="http://www.w3.org/2000/svg">
 <g transform="translate(-90.805,-69.63)" fill="#dadada" stroke-width="1.3333">
  <path transform="scale(.75)" d="m622.12 268.21c-33.366-3.5254-64.617 0-96.926 0v156.04c7.3376 1.5061 9.893 9.9805 25.114 0 23.802-10.286 45.773-15.888 70.227-11.853 20.293 3.16 39.253 12.534 55.08 25.48 10.387 8.1467 18.853 18.44 26.359 29.227 2.3467 3.5333 4.4545 7.2253 6.5078 10.945l125.69-79.354c-0.65334-1.4267-1.6118-2.6585-2.3984-3.9785-26.973-40.747-64.507-74.388-107.92-96.814-21.467-10.693-44.094-19.16-67.561-24.24-11.296-2.804-22.655-4.461-34.174-5.4534z"/>
  <path transform="scale(.75)" d="m600.8 527.14v125.25h96.468c-25.706 34.909-76.322 54.703-114.19 47.313-22.56-4.1733-43.466-15.8-59.68-31.906-30.298-30.203-34.202-52.848-43.906-89.814-3.9959-15.935-67.923 0-101.89 0v185c5.5222-0.13689 11.646-3.8838 16.498 0 9.7035 7.5324 18.68 16.318 28.359 23.8 32.44 25.187 70.506 42.745 110.44 52.105 61.987 13.893 128.59 6.4 185.65-21.613 44.467-21.6 82.999-55.052 110.95-95.785 29.213-42.413 46.76-92.747 50.387-144.11 0.88-16.333 1.6269-32.881-0.75977-49.107l-0.15651-1.1397z"/>
 </g>
 <g transform="translate(-90.805,-69.63)">
  <path d="m90.805 69.63h436.08l-259.84 564.66h-161.07l200.04-422.06h-215.2z"/>
 </g>
</svg>
