<svg width="336.13pt" height="309.31pt" version="1.1" viewBox="0 0 336.13 309.31" xmlns="http://www.w3.org/2000/svg">
 <g transform="translate(-30.43 -43.812)" fill="#ed1b24">
  <path d="m191.73 55.06c11.92-13.6 34.82-15.05 48.52-3.35 4.91 4.06 8.26 9.63 10.69 15.45l-15.67 6.43c-1.52-4.56-3.92-9.05-7.96-11.84-6.83-4.98-17.29-3.72-22.78 2.69-4.26 4.79-5.44 11.42-5.68 17.62-0.15 7.23 1.66 14.94 6.84 20.26 4.28 4.49 11.14 6.48 17.08 4.4 6.37-2.08 10.72-8 12.49-14.27l15.77 6.18c-2.44 6.42-6.36 12.39-11.87 16.59-10.69 8.42-26.41 9.5-38.3 2.98-7.55-4.06-13.27-11.1-16.23-19.09-5.33-14.5-3.36-32.28 7.1-44.05z"/>
  <path d="m117.45 45.45h36.45c7.04 0.17 13.79 4.2 17.34 10.28 3.52 6.08 5.37 13.69 2.85 20.48-2.23 6.43-7.76 11.09-13.79 13.87l17.34 30.63h-17.55l-17.22-29.355h-9.72v29.355h-15.69l-0.01-75.26m15.7 14v17.67l16.875-0.03c4.75-0.1 9.795-3.93 9.405-9.05 0.16-4.99-4.775-8.58-9.405-8.61z"/>
  <path d="m42.37 120.68 24.68-75.18h19.92l25.21 75.18h-17.04l-4.05-13.195h-28.08l-3.87 13.195h-16.77m34.73-57.935-9.87 31.18h19.74z"/>
  <path d="m259.52 120.64v-74.74h15.295v28.355h29.68v-28.355h15.66v74.74h-15.66v-31.64h-29.68v31.64z"/>
  <path d="m334.58 45.995h15.51v74.68h-15.51z"/>
  <path d="m38.01 134.69h321.01c4.6663 0 7.5452 2.9474 7.5452 8.23v76.095c0 4.977-3.1988 7.5244-7.5452 7.55h-321.01c-4.0718 0-7.58-2.772-7.58-7.55v-76.095c0-6.2693 2.6846-8.23 7.58-8.23zm273.29 8.6c-7.47 2.8-13.27 9.62-14.55 17.53-1.41 8.26 2.45 17.39 9.87 21.53 7.68 4.39 16.93 4.06 25.14 6.87 3.67 1.52 5.64 6.37 3.46 9.85-2.55 4.54-8.28 5.79-13.1 5.64-7.78-0.57-14.75-4.88-20.51-9.9l-12.85 10.07c6.97 7.34 16 13.16 26.18 14.55 8.21 0.94 16.8 0.35 24.43-3.01 5.69-2.49 10.96-6.81 13.04-12.83 2.38-7.14 1.34-15.69-3.47-21.6-7.74-8.08-19.34-9.77-29.7-12.29-4.06-0.89-6.38-5.98-4.33-9.6 2.31-3.08 6.49-3.66 10.08-3.86 6.88-0.46 13.51 2.73 18.39 7.43l11.96-10.65c-11.23-11.3-29.1-15.28-44.04-9.73m-266.45-0.695v75.025h15.31v-49.75l33.34 49.75h17.285v-75.025h-15.52v49.735l-32.905-49.735h-17.51m146.75-0.09 17.5 75.23h19.41l10.41-49.785 10.42 49.785h19.61l17.08-75.23h-15.85l-10.919 50.16-11.481-49.595h-17.9l-10.72 49.595-11.72-50.16m-77.325 0.06v75.19h52.18v-14.575h-36.78v-16.39h30.435v-14.05h-30.435v-14.905h33.715v-15.27z"/>
  <path d="m54.04 247.02c7.91-9.09 20.32-12.63 31.98-13.21 10.78-0.3 22.13 1.59 31.09 7.96 7.46 5.15 11.66 13.79 13.6 22.43 2.72 13.27-0.71 27.35-7.68 38.79-8.68 11.95-21.37 19.93-33.44 28.06h39.29v22.075h-81.305v-21.855c14.4-9.7 29.905-18.06 43.005-29.63 4.29-3.7 8.98-7.07 12.34-11.71 4.1-5.67 5.22-13.06 4.36-19.89-0.79-5.61-5.26-10.04-10.45-11.89-7.51-2.93-17.14-2.39-22.92 3.75-4.89 5.07-5.64 12.53-5.52 19.24h-24.25c-0.03-11.91 2.09-24.7 9.9-34.12z"/>
  <path d="m141.69 310.93 56.19-75.125h30.675v75.03h15.035l0.05 22.02h-15.085v20.255h-23.872v-20.255h-62.972l-0.02-21.925m27.15-0.095h35.842v-47.495z"/>
  <path d="m280.49 288.79 39.97-40 39.82 40-39.82 39.79z"/>
  <path d="m298.45 261.35 1.86-7.15 7.4 2.35z"/>
  <path d="m333.14 255.88 7.35-1.26 3.08 11.85z"/>
  <path d="m285.36 268.85 13.36-3.79-10.65 10.41z"/>
  <path d="m347.29 267.18 7.21 1.5-1.97 6.9z"/>
  <path d="m287.77 301.55 5.35 8.45-7.1-1.54z"/>
  <path d="m342.56 311.7 10.48-10.26 1.18 7.41z"/>
  <path d="m296.9 310.89 10.4 10.33-7.44 1.23z"/>
  <path d="m333.25 320.91 8.6-5.45-1.69 7.32z"/>
 </g>
</svg>
