<svg width="1199.9pt" height="713.83pt" version="1.1" viewBox="0 0 1199.9 713.83" xmlns="http://www.w3.org/2000/svg">
 <defs>
  <filter id="a" x="-.06337" y="-.05697" width="1.1267" height="1.1139" color-interpolation-filters="sRGB">
   <feGaussianBlur stdDeviation="8.8330233"/>
  </filter>
 </defs>
 <path d="m611.87 288.88 284.8-2.5e-4v68.276h-84.455v212.78h-78.06v-212.78l-122.29-2.5e-4z" fill="#f7cc14"/>
 <path d="m654.24 327.12a327.12 327.12 0 0 1-327.12 327.12 327.12 327.12 0 0 1-327.12-327.12 327.12 327.12 0 0 1 327.12-327.12 327.12 327.12 0 0 1 327.12 327.12z" fill="#f7cc14"/>
 <path d="m292.44 219.37c58.25-0.24 116.51-0.03 174.77-0.1 12.73 0.1 25.49-0.38 38.19 0.75 20.11 1.68 40.32 6.21 58.19 15.85 12.47 6.58 23.41 15.96 31.89 27.22 8.61 12.71 14 27.72 14.59 43.11 1.05 18.09-1.65 37.01-11.31 52.66-10.21 17.36-27.31 29.25-45.21 37.7 3.9 2.12 8.15 3.45 12.29 5.03 7.08 2.8 13.92 6.2 20.45 10.11 10.74 6.38 20.04 15.08 27.21 25.31 8.58 13.43 12.78 29.28 13.32 45.14 0.93 18.32-2.37 37.16-11.54 53.21-8.47 14.96-21.62 26.96-36.57 35.31-18.22 10.21-38.76 15.71-59.4 18.26-21.25 2.9-42.72 1.96-64.1 2.1-48.67 0.02-97.34-0.04-146.01 0.04-5.57 0.12-11.15 0.53-16.71 0.1-0.06-123.94 0.04-247.87-0.05-371.8m100.74 82.72c-0.21 21.76-0.13001 43.54 0 65.31 6.04 0.3 12.1 0.15999 18.15-0.01 11.96 0.17 23.92-0.02 35.88 0.05 12.6-0.02 25.54 0.5 37.68-3.49 7.63-2.41 15.14-6.76 19.14-13.96 4.6-8.39 4.59-18.7 1.73-27.67-3.62-8.05-11.01-13.91-19.33-16.52-13.86-4.99-28.78-3.67-43.22-3.86-16.68 0.12-33.36-0.23-50.03 0.15m-0.03 137.87c-0.09 22.75-0.22001 45.51 0.1 68.26 7.82 0.41 15.65 0.03 23.47-0.1 20.18-0.14 40.37 0.05 60.55-0.13 13.82-0.31 29.07-3.22 38.83-13.85 6.1-6.5 7.51-15.74 7.15-24.32l-0.43 0.67c0.14-10.05-6.46-19.19-15.19-23.71-14.48-7.87-31.47-7.09-47.42-7.02-22.35 0.16-44.72-0.31-67.06 0.2z" filter="url(#a)" opacity=".6"/>
 <g transform="translate(-99.992 -142.96)">
  <path d="m371.23 341.13c58.25-0.24 116.51-0.03 174.77-0.1 12.73 0.1 25.49-0.38 38.19 0.75 20.11 1.68 40.32 6.21 58.19 15.85 12.47 6.58 23.41 15.96 31.89 27.22 8.61 12.71 14 27.72 14.59 43.11 1.05 18.09-1.65 37.01-11.31 52.66-10.21 17.36-27.31 29.25-45.21 37.7 3.9 2.12 8.15 3.45 12.29 5.03 7.08 2.8 13.92 6.2 20.45 10.11 10.74 6.38 20.04 15.08 27.21 25.31 8.58 13.43 12.78 29.28 13.32 45.14 0.93 18.32-2.37 37.16-11.54 53.21-8.47 14.96-21.62 26.96-36.57 35.31-18.22 10.21-38.76 15.71-59.4 18.26-21.25 2.9-42.72 1.96-64.1 2.1-48.67 0.02-97.34-0.04-146.01 0.04-5.57 0.12-11.15 0.53-16.71 0.1-0.06-123.94 0.04-247.87-0.05-371.8m100.74 82.72c-0.21 21.76-0.13 43.54 0 65.31 6.04 0.3 12.1 0.16 18.15-0.01 11.96 0.17 23.92-0.02 35.88 0.05 12.6-0.02 25.54 0.5 37.68-3.49 7.63-2.41 15.14-6.76 19.14-13.96 4.6-8.39 4.59-18.7 1.73-27.67-3.62-8.05-11.01-13.91-19.33-16.52-13.86-4.99-28.78-3.67-43.22-3.86-16.68 0.12-33.36-0.23-50.03 0.15m-0.03 137.87c-0.09 22.75-0.22 45.51 0.1 68.26 7.82 0.41 15.65 0.03 23.47-0.1 20.18-0.14 40.37 0.05 60.55-0.13 13.82-0.31 29.07-3.22 38.83-13.85 6.1-6.5 7.51-15.74 7.15-24.32l-0.43 0.67c0.14-10.05-6.46-19.19-15.19-23.71-14.48-7.87-31.47-7.09-47.42-7.02-22.35 0.16-44.72-0.31-67.06 0.2z" fill="#fff"/>
 </g>
 <path d="m899.9 288.88h87.03l63.729 176.48 63.728-176.48h85.553l-114.02 281.06h-72.51z" fill="#f7cc14"/>
 <path d="m297.91 615.33c8.72 0.16 17.44 0.03 26.16 0.07 4.25 0.02 8.67 0.88 12.18 3.39 5.87 4.14 5.77 14.23-0.25 18.19-4.67 3.12-10.54 3.46-16 3.47-7.44-0.08-14.88 0.1-22.32-0.1-0.01-8.34-0.48-16.71 0.23-25.02z" fill="#f7cc14"/>
 <g transform="translate(-99.992 -142.96)" fill="#030304">
  <path d="m706 767.01c9.07-19.08 28.97-32.19 49.94-33.7 8.7-0.18 17.54-0.44 26.04 1.8 10.14 2.16 19.25 7.59 27.2 14.1l-16.33 20.28c-5.86-4.12-11.66-8.69-18.76-10.45-11.83-3.48-25.66-1.45-34.73 7.31-15.94 14.33-16.22 42.25-0.6 56.9 13.03 12.49 34.535 11.87 49.155 2.53v-17.18h-26.52v-22.665h52.245v51.755c-20.15 17.79-50.05 24.06-75.45 14.93-15.54-5.52-28.43-18-34.28-33.44-6.32-16.69-5.86-36.09 2.09-52.17z"/>
  <path d="m1145.4 733.36c16.85-1.51 34.5 2.72 47.72 13.57 14.39 11.41 22.76 29.75 22.36 48.07 0.27 18.76-8.78 37.38-23.77 48.68-14.38 11.09-33.54 15.11-51.32 12.13-18.72-2.74-36.02-14.56-44.77-31.42-9.78-18.22-9.59-41.33 0.42-59.42 9.74-18 29.05-29.98 49.36-31.61m-2.95 25.28c-6.85 1.79-13.11 5.73-17.63 11.17-12.2 14.46-11.51 38.1 1.71 51.69 12.23 13.36 34.99 14.48 48.57 2.56 14.4-12.12 16.72-35.16 6.48-50.62-8.04-12.76-24.69-18.84-39.13-14.8z"/>
  <path d="m870.29 734.3h24.44l51.18 120.41h-27.66l-10.69-26.565h-50.51l-11.08 26.565h-26.88l51.2-120.41m-3.56 70.115h30.93l-15.465-37.44z"/>
  <path d="m371.76 734.8h56.245c11.77 0.32 24.64 3.24 32.49 12.7 6.67 7.66 7.61 18.76 5.1 28.25-2.01 7.17-7.7 12.4-13.73 16.34 3.26 1.62 6.58 3.14 9.65 5.11 5.74 4 10.15 10.11 11.29 17.1 1.43 8.48 0.7 17.91-4.4 25.12-5.21 7.39-13.78 11.64-22.44 13.5-8.17 1.97-16.62 1.855-24.97 1.815h-49.235v-119.94m25.905 23.525v25.035h22.32c5.46-0.01 11.33-0.3 16-3.42 6.02-3.96 6.12-14.05 0.25-18.19-3.51-2.51-7.93-3.405-12.18-3.425h-26.39m0 47.195v25.85h32.32c4.45-0.12 9.21-0.76 12.89-3.48 6.05-4.51 5.89-15.14-0.6-19.18-5.71-3.68-12.77-3.25-19.28-3.19z"/>
  <path d="m485.84 734.86h90.28v23.98h-63.91v23.83h55.965v23.49h-55.965v25.025h64.49v23.545h-90.86z"/>
  <path d="m590.8 734.74h31.895c14.86 0.45 30.38-1.535 44.56 3.975 10.93 4.03 19.88 13.59 22.15 25.15 2.37 11.45 1.4 24.29-5.45 34.11-4.44 6.61-11.37 11.14-18.68 14.04l28.84 42.69-30.85-0.02-25.64-38.275h-20.375v38.345l-26.45-0.02v-120m26.45 24.39v33.91h18.745c6.99 0 14.62 0.645 20.77-3.315 7.59-4.67 8.96-15.78 4.54-23.06-3.5-5.32-10.2-7.275-16.25-7.535z"/>
  <path d="m954.95 735.2h28.67l31.03 49.995 31.41-49.995h28.515v119.52h-26.485v-77.005l-33.44 50.27-33.82-49.38v76.115h-25.88z"/>
 </g>
</svg>
