<svg width="799.99" height="800" version="1.1" viewBox="0 0 799.99 800" xml:space="preserve" xmlns="http://www.w3.org/2000/svg"><defs><linearGradient id="linearGradient288" x2="1" gradientTransform="matrix(46.041,0,0,-46.041,40.767,49.719)" gradientUnits="userSpaceOnUse"><stop stop-color="#fff424" offset="0"/><stop stop-color="#fac308" offset=".13313"/><stop stop-color="#fac308" offset=".2809"/><stop stop-color="#f3812f" offset=".66854"/><stop stop-color="#ee5233" offset="1"/></linearGradient><clipPath id="clipPath298"><path d="m22.721 24.318h82.211v82.211h-82.211z"/></clipPath><linearGradient id="linearGradient336" x2="1" gradientTransform="matrix(9.1593,0,0,-9.1593,88.899,60.143)" gradientUnits="userSpaceOnUse"><stop stop-color="#fff424" offset="0"/><stop stop-color="#fac308" offset=".13313"/><stop stop-color="#fac308" offset=".2809"/><stop stop-color="#f3862c" offset=".55024"/><stop stop-color="#f3812f" offset=".66854"/><stop stop-color="#ee5233" offset="1"/></linearGradient></defs><g transform="matrix(9.7308 0 0 -9.7308 76.095 800)"><path d="m0 0c-4.312 0-7.82 3.509-7.82 7.821v66.57c0 4.313 3.508 7.821 7.82 7.821h66.57c4.313 0 7.821-3.508 7.821-7.821v-66.57c0-4.312-3.508-7.821-7.821-7.821z" fill="#2056ae"/></g><g transform="translate(0 18.372)"><g transform="matrix(9.7308 0 0 -9.7308 -221.1 997.53)"><path d="m40.792 48.288c-1.528-0.453-1.326-1.258 0.215-0.801 14.512 4.304 29.877 4.632 44.601 1.172 0.613-0.144 2.93 0.844 2.185 1.018-6.851 1.61-13.847 2.41-20.839 2.41-8.828 0-17.647-1.274-26.162-3.799" fill="url(#linearGradient288)"/></g><g transform="matrix(9.7308 0 0 -9.7308 -221.1 1036.6)"><g clip-path="url(#clipPath298)"><g transform="translate(71.948,67.986)"><path d="m0 0c0-2.094 0.399-4.072 1.2-5.932 0.563-1.313 1.274-2.503 2.127-3.576h9.506c-0.473 0.119-0.936 0.264-1.382 0.456-1.178 0.509-2.218 1.214-3.119 2.116-0.902 0.901-1.607 1.941-2.116 3.119s-0.763 2.45-0.763 3.817c0 1.337 0.254 2.602 0.763 3.795 0.509 1.192 1.214 2.24 2.116 3.141 0.901 0.901 1.941 1.607 3.119 2.116s2.449 0.763 3.817 0.763c1.396 0 2.69-0.262 3.883-0.785 1.192-0.524 2.239-1.251 3.14-2.181l3.839 3.882c-1.396 1.396-3.025 2.501-4.886 3.316-1.861 0.813-3.853 1.221-5.976 1.221-2.094 0-4.072-0.4-5.932-1.2-1.862-0.8-3.484-1.891-4.865-3.271-1.381-1.382-2.472-3.003-3.271-4.864-0.801-1.862-1.2-3.839-1.2-5.933" fill="#fff"/></g><g transform="translate(34.976,77.801)"><path d="m0 0h9.379c0.93 0 1.723-0.327 2.377-0.981 0.655-0.655 0.982-1.447 0.982-2.378s-0.327-1.723-0.982-2.378c-0.654-0.654-1.447-0.981-2.377-0.981h-9.379zm0-19.323v7.065h10.295c0.145 0 0.284-7e-3 0.414-0.022 0.131-0.015 0.269-0.037 0.415-0.065 0.814-0.204 1.49-0.633 2.028-1.287s0.807-1.418 0.807-2.29c0-1.019-0.356-1.884-1.069-2.596-0.359-0.359-0.757-0.627-1.193-0.805h7.208c0.42 1.041 0.638 2.144 0.638 3.313 0 1.484-0.313 2.836-0.938 4.057-0.626 1.222-1.476 2.254-2.552 3.098 0.523 0.755 0.93 1.57 1.222 2.443 0.29 0.872 0.436 1.802 0.436 2.791 0 1.25-0.24 2.428-0.72 3.534-0.48 1.105-1.127 2.065-1.941 2.879-0.815 0.814-1.775 1.461-2.879 1.941-1.106 0.48-2.284 0.72-3.534 0.72h-14.046v-24.776z" fill="#fff"/></g><g transform="translate(62.209,58.478)"><path d="m0 0v6.804h7.676c-0.126 0.886-0.192 1.788-0.192 2.704s0.066 1.818 0.192 2.705h-7.676v7.11h10.237c0.787 1.297 1.717 2.484 2.781 3.548 0.694 0.694 1.443 1.328 2.238 1.905h-20.709v-24.776z" fill="#fff"/></g></g></g><g transform="matrix(9.7308 0 0 -9.7308 -221.1 1036.6)"><path d="m90.729 59.087c-0.589-0.258-1.202-0.451-1.83-0.609h9.16l-3.331 3.33c-1.149-1.148-2.482-2.055-3.999-2.721" fill="url(#linearGradient336)"/></g></g></svg>
