<svg width="800pt" height="355.17pt" version="1.1" viewBox="0 0 800 355.17" xmlns="http://www.w3.org/2000/svg">
 <defs>
  <linearGradient id="linearGradient2951" x1="537.22" x2="785.33" y1="58.237" y2="58.237" gradientTransform="matrix(.79984 0 0 .79984 -79.904 -22.358)" gradientUnits="userSpaceOnUse">
   <stop stop-color="#ed6939" offset="0"/>
   <stop stop-color="#f7a501" offset="1"/>
  </linearGradient>
 </defs>
 <path d="m361.14 0.55742c3.1354-0.83983 6.4867-0.67187 9.6221 0.11198 16.333 4.3031 33.289 5.5829 50.118 5.9028 29.41 0.38392 58.66-3.1674 87.966-5.031 10.638-0.54389 21.428-1.1678 31.946 0.92781 2.5957 0.59573 5.3989 1.1998 7.0466 3.3993 1.0638 1.8636-0.21596 3.9272-1.6477 5.151-3.3193 2.8794-7.3985 4.7111-11.446 6.3427-9.3741 3.6313-19.277 6.3397-29.138 7.4785-11.662 1.3757-23.867 2.6635-33.961 9.2142-5.4149 3.2553-10.142 7.5745-15.797 10.43-5.8868 2.9514-12.152 3.9592-19.084 3.9592-8.0696 0-15.805-0.84783-23.307-3.2793-10.55-3.2394-19.7-10.71-31.034-11.342-7.6385-1.2158-15.445 2.3835-22.915-0.34393-5.9223-2.4219-8.9054-7.5454-9.6301-13.437-0.79984-7.9104 3.2633-16.989 11.262-19.484z" fill="url(#linearGradient2951)" stroke-width=".79984"/>
 <g fill="#004f9f" stroke-width=".79984">
  <path d="m54.245 47.228 65.027 8e-3c35.438-0.36735 68.654-0.54213 93.821 22.923 12.27 12.727 16.535 24.336 16.535 42.332 0 35.51-15.967 62.205-42.226 79.275 22.25 16.947 28.039 36.736 25.507 62.579-4.0583 31.697-12.92 53.85-34.856 73.045-22.981 19.698-53.46 27.743-84.367 27.743l-93.685 0.032zm74.425 114.23c16.318-4.9696 25.402-13.133 27.718-30.55 0.85647-8.1832-2.0577-16.47-10.209-19.528-7.1558-2.7365-20.802-2.5675-31.234-2.5675l-9.5501 54.389c7.7812 0 15.693 0.31994 23.275-1.7436zm-34.121 63.123-12.15 68.994c10.679 0 23.335 0.40952 31.586-2.6715 16.2-5.7667 24.993-17.824 27.662-36.713 1.1938-11.229-1.6911-21.056-13.8-26.09-10.542-4.3271-22.13-3.5193-33.297-3.5193z"/>
  <path d="m282.74 47.236h71.562l-54.309 307.9h-71.562z"/>
  <path d="m524.06 47.236h81.208l-103.78 127.26 54.909 180.64h-79.064l-34.137-114.51-17.173 20.351-16.62 94.165h-71.578l50.35-285.49h71.594l-13.741 78.044z"/>
  <path d="m631.24 47.236h168.76l-11.35 64.787h-97.253l-9.1262 51.982h74.105l-11.43 64.767h-74.073l-10.942 61.608h101.27l-11.374 64.755h-172.88z"/>
 </g>
</svg>
