<svg width="263.54" height="40.512" enable-background="new 0 0 671.753 104.667" viewBox="0 0 670.59 101.56" xmlns="http://www.w3.org/2000/svg">
 <g transform="translate(-.359 -1.5333)">
  <path d="m89.454 101.19 17.639-43.47h13.861l-11.52 30.06h41.759l-27.54-69.66h13.77l33.841 83.07z" fill="#ed1c24"/>
  <path d="m241.28 101.19-53.64-69.12v69.12h-13.32v-83.07h19.71l50.489 65.97v-65.97h13.051v83.07z" fill="#ed1c24"/>
  <path d="m260.81 101.19 17.641-43.47h13.859l-11.52 30.06h41.761l-27.54-69.66h13.77l33.84 83.07z" fill="#ed1c24"/>
  <path d="m345.23 101.19v-83.07h13.229v69.75h68.491v13.32z" fill="#ed1c24"/>
  <path d="m429.56 101.19v-49.59h84.51v13.14h-71.46v23.04h71.46v13.41z" fill="#ed1c24"/>
  <path d="m593.9 101.19 36.359-75.69h-54.09l-13.049-24.75h107.82l-48.42 100.44z" fill="#005baa"/>
  <path d="m581.67 33.744h34.33l-16.575 35.116z" fill="#72bf44"/>
 </g>
 <path d="m429.2 16.587h84.51v13.41h-84.51z" fill="#ed1c24"/>
 <path d="m45.064 88.225c-16.685 0-30.21-13.078-30.21-29.217 0-16.136 13.525-29.216 30.21-29.216 10.92 0 20.485 5.604 25.792 14h16.15c-6.34-16.542-22.799-28.333-42.108-28.333-24.797 0-44.898 19.44-44.898 43.42 0 23.982 20.102 43.422 44.898 43.422 20.429 0 37.66-13.199 43.099-31.26h-15.406c-4.743 10.131-15.28 17.184-27.527 17.184z" fill="#ed1c24"/>
</svg>
