<svg width="800" height="703.86" version="1.1" viewBox="0 0 61.682 54.27" xmlns="http://www.w3.org/2000/svg">
 <g transform="matrix(.37586 0 0 .37586 3.3979 -36.954)" clip-rule="evenodd" fill="#fff" fill-rule="evenodd">
  <path d="m135.97 164.35v9.637c0 16.976-12.307 30.737-27.484 30.737h-25.83c-15.178 0-27.484-13.762-27.484-30.737v-34.4c0-16.976 12.306-30.738 27.484-30.738h25.83c15.178 0 27.484 13.762 27.484 30.738v13.129c2.727 0.186 5.43-4e-3 8.066 9e-3v-16.177c0-20.272-14.693-36.705-32.818-36.705h-30.846c-18.124 0-32.819 16.433-32.819 36.705v41.075c0 20.272 14.695 36.705 32.819 36.705h30.846c18.125 0 32.818-16.433 32.818-36.705v-12.79c-2.75 0.472-5.609 0.378-8.066-0.483z"/>
  <path d="m96.443 169.31v-8.938c4.047-3.539 9.355-5.308 15.924-5.308 2.289 0 4.695 0.256 7.217 0.767 2.52 0.511 6.107 1.524 10.768 3.042 2.633 0.847 4.611 1.401 5.93 1.663 1.316 0.264 2.643 0.394 3.979 0.394 2.482 0 5.051-0.564 7.703-1.696 2.654-1.13 5.012-2.551 7.076-4.262v9.218c-2.445 1.765-4.918 3.043-7.418 3.838-2.502 0.794-5.318 1.189-8.447 1.189-2.293 0-4.479-0.203-6.559-0.612-2.084-0.409-5.387-1.387-9.91-2.933-4.525-1.547-8.297-2.321-11.312-2.321-2.443 0-4.746 0.402-6.9 1.205-2.163 0.803-4.844 2.389-8.051 4.754zm-92.035 66.644 2.372 0.613c-0.497 1.996-1.39 3.519-2.68 4.567-1.291 1.048-2.867 1.572-4.73 1.572-1.929 0-3.498-0.402-4.706-1.209-1.208-0.806-2.128-1.972-2.758-3.501-0.631-1.527-0.946-3.169-0.946-4.922 0-1.912 0.356-3.58 1.068-5.003 0.712-1.424 1.724-2.506 3.038-3.244 1.313-0.739 2.76-1.109 4.337-1.109 1.79 0 3.295 0.469 4.515 1.404 1.221 0.936 2.07 2.252 2.551 3.948l-2.346 0.562c-0.414-1.334-1.015-2.306-1.802-2.915-0.787-0.608-1.777-0.914-2.97-0.914-1.372 0-2.518 0.338-3.439 1.014s-1.568 1.584-1.941 2.723a11.213 11.213 0 0 0-0.56 3.522c0 1.56 0.221 2.922 0.664 4.086 0.443 1.163 1.132 2.033 2.066 2.608a5.693 5.693 0 0 0 3.036 0.863c1.325 0 2.447-0.392 3.366-1.177 0.918-0.781 1.54-1.945 1.865-3.488zm3.343 6.459 6.871-18.373h2.604l7.28 18.373h-2.699l-2.066-5.563h-7.537l-1.943 5.563zm5.152-7.542h6.095l-1.871-5.098c-0.56-1.549-0.985-2.828-1.275-3.835a23.55 23.55 0 0 1-1.003 3.525zm13.466 7.542v-18.373h2.427l9.405 14.425v-14.425h2.268v18.373h-2.426l-9.407-14.424v14.424zm16.14 0 6.87-18.373h2.605l7.281 18.373h-2.699l-2.066-5.563h-7.536l-1.944 5.563zm5.152-7.542h6.095l-1.87-5.098c-0.561-1.549-0.985-2.828-1.275-3.835a23.315 23.315 0 0 1-1.003 3.525zm13.388 7.542v-18.373h2.371v16.207h8.836v2.166zm14.071 0v-18.373h12.928v2.166h-10.555v5.616h9.877v2.166h-9.877v6.259h10.971v2.166zm16.637 0v-18.373h6.168c1.393 0 2.455 0.088 3.188 0.263 1.027 0.243 1.902 0.682 2.627 1.316 0.943 0.818 1.65 1.865 2.119 3.14s0.703 2.73 0.703 4.368c0 1.395-0.16 2.631-0.479 3.709-0.316 1.078-0.723 1.97-1.221 2.676-0.496 0.707-1.039 1.262-1.631 1.667-0.59 0.405-1.303 0.712-2.137 0.921-0.836 0.21-1.793 0.313-2.877 0.313zm2.371-2.166h3.82c1.18 0 2.105-0.113 2.775-0.339 0.672-0.226 1.207-0.543 1.605-0.953 0.561-0.576 0.998-1.351 1.311-2.325 0.314-0.974 0.471-2.153 0.471-3.541 0-1.923-0.307-3.4-0.92-4.432-0.615-1.032-1.361-1.724-2.24-2.075-0.635-0.25-1.656-0.376-3.062-0.376h-3.76zm16.115 2.166v-18.373h2.372v18.373zm6.586 0v-18.373h12.928v2.166h-10.555v5.616h9.877v2.166h-9.877v6.259h10.971v2.166zm29.409-6.459 2.371 0.613c-0.496 1.996-1.389 3.519-2.678 4.567-1.291 1.048-2.869 1.572-4.732 1.572-1.928 0-3.496-0.402-4.705-1.209-1.209-0.806-2.127-1.972-2.758-3.501-0.631-1.527-0.947-3.169-0.947-4.922 0-1.912 0.355-3.58 1.068-5.003 0.713-1.424 1.725-2.506 3.037-3.244 1.314-0.739 2.76-1.109 4.338-1.109 1.789 0 3.295 0.469 4.516 1.404 1.219 0.936 2.07 2.252 2.549 3.948l-2.346 0.562c-0.414-1.334-1.014-2.306-1.801-2.915-0.787-0.608-1.777-0.914-2.971-0.914-1.371 0-2.518 0.338-3.438 1.014-0.922 0.676-1.568 1.584-1.941 2.723a11.186 11.186 0 0 0-0.562 3.522c0 1.56 0.223 2.922 0.666 4.086 0.443 1.163 1.131 2.033 2.066 2.608s1.947 0.863 3.037 0.863c1.324 0 2.445-0.392 3.365-1.177 0.918-0.781 1.539-1.945 1.866-3.488zm5.716 6.459v-18.373h2.371v18.373zm-138.62-98.959s-7.039 6.426-13.465 11.935c-6.58 4.59-8.722-2.143-8.722-2.143v-36.262l22.34-18.667h38.863v112.15h-38.252v-66.558zm-13.312-21.726v21.421l22.339-19.585v79.563h20.962v-95.783h-26.929z"/>
  <path d="m96.474 156.39v-8.938c4.047-3.538 9.355-5.308 15.924-5.308 2.289 0 4.695 0.257 7.217 0.768 2.52 0.51 6.107 1.524 10.766 3.042 2.637 0.847 4.613 1.402 5.93 1.663 1.316 0.264 2.645 0.395 3.98 0.395 2.482 0 5.051-0.565 7.703-1.697 2.652-1.13 5.012-2.552 7.076-4.263v9.218c-2.445 1.765-4.918 3.043-7.418 3.838-2.502 0.794-5.318 1.19-8.447 1.19-2.293 0-4.479-0.204-6.561-0.612-2.082-0.41-5.385-1.387-9.908-2.933-4.527-1.547-8.297-2.321-11.312-2.321-2.443 0-4.746 0.402-6.902 1.205-2.159 0.802-4.841 2.387-8.048 4.753z"/>
 </g>
</svg>
