<svg width="99.852mm" height="87.29mm" version="1.1" viewBox="0 0 99.852 87.29" xmlns="http://www.w3.org/2000/svg">
 <g transform="translate(66.935 -105.19)">
  <g transform="matrix(.35278 0 0 .35278 -66.935 105.19)" fill="#f27330">
   <path d="m227.04 211.01a18.01 18.19 0 0 0-18.009 18.189 18.01 18.19 0 0 0 18.009 18.19 18.01 18.19 0 0 0 18.01-18.19 18.01 18.19 0 0 0-18.01-18.189zm0 6.0542a11.718 12.135 0 0 1 11.719 12.135 11.718 12.135 0 0 1-11.719 12.135 11.718 12.135 0 0 1-11.717-12.135 11.718 12.135 0 0 1 11.717-12.135z"/>
   <path d="m132.17 0.75447c10.29-1.66 21.1-0.64 30.65 3.65 15.96 6.85 28.08 22 30.98 39.16 2.79 14.5-1.07 30.05-10.05 41.73-8.96 11.77-23.02 19.54-37.79 20.62-13.02 1.15-26.4-2.7-36.75-10.7-10.98-8.31-18.54-21.08-20.3-34.76-2.34-15.33 2.65-31.58 13.14-42.99 7.81-8.73 18.61-14.65 30.12-16.71"/>
   <path d="m255.04 211.8h6.12l15.325 22.935v-22.935h6.565l-0.15 34.65h-6.14l-15.065-22.455v22.455h-6.595z"/>
  </g>
  <path d="m-30.696 120c1.6157-1.9226 2.7693-4.191 4.378-6.1207 0.66675 0.69144 1.0583 1.6545 1.9332 2.1343 0.93133 0.59267 1.6933 1.4217 2.2931 2.3424 0.40922 0.64559 0.07056 1.4288 0.0635 2.1308-0.17992 1.2171 0.04939 2.6564 0.9137 3.5595 1.7039 0.63147 3.5772 0.37394 5.3552 0.42333 0.46567-1.905 2.4306-2.861 3.0021-4.7096 0.43039-1.4111 1.4323-2.5506 2.6352-3.3726 0.27517 0.74437 0.53975 1.4887 0.80081 2.2366 0.40217-1.3159 0.6985-2.8328 1.9156-3.6654 1.4605 0.27869 3.1679 0.21519 4.3004 1.337 0.26458 0.58561 0.22578 1.2524 0.32456 1.8768 0.8008 1.5804 0.91369 3.4008 1.6722 4.9953 0.53975 1.2312 1.464 2.3812 1.33 3.8065-0.64205 0.0776-1.2735 0.18697-1.9121 0.28222-2.3954 0.29633-4.8013-0.52564-7.1896-0.0459 2.6917 0.38453 5.394 0.79022 8.1139 0.89605 0.14111 0.254 0.28575 0.508 0.42686 0.762-0.55033 0.20461-1.1889 0.35278-1.3511 1.009-0.60325 0.13405-1.2065 0.26458-1.8133 0.39511-0.16933-0.0988-0.51505-0.29633-0.68792-0.39511-0.15875 0.06-0.47978 0.18344-0.64205 0.24341-0.52564-0.0847-1.1324-0.47272-1.591 7e-3 1.0866 0.27517 2.2719 0.2152 3.2597 0.80787-0.35983 0.34925-0.65264 0.75141-0.87136 1.2065-1.9121 0.49389-3.7924 1.2347-5.782 1.3194-0.9137-0.06-1.143-1.0619-1.4076-1.7639-1.1218 0.0353-2.2401-0.0882-3.3584-0.15169 0.09878-0.67733 0.21519-1.3511 0.32808-2.0285 0.81844-0.127 1.6369-0.29281 2.3989-0.62795-1.1324-0.2293-2.3424-0.0811-3.4255-0.50447 0.09525-0.61383 0.2928-1.2065 0.49742-1.7921 2.4589 0.0318 4.9107-0.27869 7.3695-0.31044 1.9438-0.0776 3.8947 0.0282 5.8279-0.22225-0.56444-0.74084-1.1536-1.4958-1.3829-2.4165-0.60678-2.1484-1.3335-4.2827-1.651-6.5017-0.56445-0.32102-1.1254-0.64558-1.6828-0.97366-0.64911 0.15522-1.5275 0.17991-1.5275 1.0619-0.15522 1.9614-0.50094 4.4838 1.2947 5.8314-0.23989 0.8008-0.57503 1.5699-0.94545 2.3142-0.5715-0.067-1.1501-0.0988-1.711-0.2152-0.09525-2.1272-0.07761-4.5508-1.7921-6.1066-0.83608 1.3794-1.21 3.0656-2.5118 4.1169-0.64205 0.45861-0.55739 1.3053-0.87136 1.9473-0.34219 0.34925-0.73025 0.64558-1.1077 0.95603-2.159-0.0635-4.318-0.0952-6.477-0.20814-0.19403 0.35278-0.38805 0.70555-0.58561 1.0583-1.016 0.0706-2.032 0.19403-2.9986 0.51506 1.711 0.11289 3.4749-0.21167 5.1294 0.38805-0.39864 0.56798-0.80786 1.1289-1.2171 1.6898-1.8168 0.11994-3.5489 0.75142-5.3658 0.88194 0.03175 0.19756 0.09878 0.59267 0.13053 0.79023-1.5169 0.1658-3.0162 0.49036-4.4379 1.0583-0.47978-0.14111-0.96308-0.28222-1.4429-0.42686 0.45156-1.1748 1.6616-1.5593 2.7517-1.905-1.3194-0.254-2.6564-0.41628-4.0005-0.32809 0.10231-0.76905-0.59972-2.166 0.55033-2.3283 1.1642-0.34219 2.3777-0.508 3.5207-0.93133-1.4711-0.2152-2.9598-0.24695-4.445-0.22225 0.56797-1.7992 0.75847-3.6936 1.3406-5.4822 0.39511-0.89958 1.5769-0.39158 2.3283-0.62442m4.1028-4.0252c-0.75142 1.0301-1.6122 1.972-2.473 2.9139-0.46567 0.4692-0.69144 1.1994-1.3547 1.4393-0.55033 0.2928-1.1783 0.44803-1.6898 0.81491-0.53975 1.1218-0.73025 2.3707-1.0583 3.5631 3.0868-0.0776 6.1701 0.11994 9.2322 0.51153 0.84314 0.26811 1.3511-0.4692 1.905-0.94192-0.35631-0.3563-0.71261-0.70908-1.0724-1.0548-0.08467-0.43392-0.16933-0.86431-0.25047-1.2982 0.19756-0.87841 0.38453-1.845-0.0141-2.6988-0.43745-0.87489-1.0971-1.6087-1.6863-2.3812-0.5468-0.2293-1.0583-0.52564-1.5381-0.86783z" fill="#fff" stroke-width=".35278"/>
  <path d="m-28.531 147.75-12.074 27.806h3.2174l3.1647-7.5106h11.455l3.1647 7.5106h3.2169l-12.074-27.806-0.03514 0.0806zm0.03514 6.891 4.5455 10.716h-9.0909z" fill="#0a4b72" stroke-width=".35278"/>
  <path d="m-66.34 158.27c1.6298-5.6621 7.2072-9.9483 13.127-9.8919 2.921-0.13758 5.7926 0.86431 8.1492 2.5541v3.5313c-2.4624-2.3671-5.9161-3.7924-9.3592-3.3443-5.9725 0.60678-10.573 6.858-9.4686 12.735 0.72672 4.8613 4.9883 9.0241 9.9413 9.3486 3.3091 0.31044 6.4805-1.2171 8.8865-3.3867v3.5348c-3.0727 2.1378-7.0026 3.1044-10.689 2.2966-3.9229-0.76553-7.4507-3.3126-9.4192-6.791-1.8203-3.175-2.2684-7.0944-1.1677-10.587z" fill="#0a4b72" stroke-width=".35278"/>
  <path d="m8.7714 148.78v26.714h2.8856v-11.72h0.04444c0.27152 3e-3 0.54823 7e-3 0.82527 0.01l8.0538 11.71h3.5207c-2.786-3.9526-5.5895-7.8897-8.4098-11.815 1.6638-0.1775 3.2655-0.62964 4.579-1.7441 3.6336-3.0692 3.1922-9.7193-1.0552-12.041-1.6401-0.83175-3.4165-1.1147-5.226-1.1147zm2.8877 2.7554h2.7616c1.7371 0 3.4425 0.38588 4.6008 1.7777 1.4534 2.1555 1.0828 5.8318-1.4537 7.0383-1.0929 0.54541-2.2854 0.71003-3.4907 0.71003h-2.4076z" fill="#0a4b72" stroke-width=".35278"/>
  <path d="m29.79 148.74h2.9563v26.742h-2.9563z" fill="#0a4b72" stroke-width=".35278"/>
  <path d="m-11.231 148.78h5.2176c1.8095 0 3.5862 0.28292 5.2263 1.1147 4.2474 2.3213 4.6884 8.9711 1.0548 12.04-2.3742 2.0144-5.6885 1.8697-8.6131 1.838v11.721h-2.8857zm2.8875 2.7551 0.01058 9.5262h2.4075c1.2054 0 2.398-0.16489 3.491-0.7103 2.5365-1.2065 2.9069-4.8824 1.4534-7.0379-1.1583-1.3918-2.8635-1.778-4.6007-1.778z" fill="#0a4b72" stroke-width=".35278"/>
  <path d="m-5.9271 179.74c1.5734-0.48684 3.1362 0.49036 3.9617 1.7921l-0.76553 0.83255c-0.51585-0.49751-1.0336-1.1933-1.7222-1.4439-0.23908-0.087-0.48776-0.12085-0.77845-0.10362-0.31139 0.0184-0.59886 0.10668-0.83308 0.26096-0.7492 0.4935-1.0352 1.6663-0.43045 2.4295 1.0442 1.3088 2.6705 1.9967 3.7712 3.2632 0.88547 0.95603 1.4534 2.4306 0.80081 3.6654-0.68792 1.6157-2.6423 2.413-4.2862 1.8768-1.2171-0.32103-1.9262-1.4252-2.6352-2.3636l1.0125-0.59973c0.65264 1.0336 1.6192 2.2648 3.0057 1.9826 1.3864-0.14817 2.4377-1.8133 1.6439-3.0586-1.1459-1.8887-3.5632-2.717-4.6123-4.6321-0.87399-1.5461 0.56924-3.5872 1.8677-3.9016z" fill="#0a4b72" stroke-width=".35278"/>
  <path d="m-66.01 179.91h6.634v1.1695h-2.7217v11.049h-1.2065v-11.049h-2.7058z" fill="#0a4b72" stroke-width=".35278"/>
  <path d="m-56.233 179.91 6.9506-9e-5v1.1696h-5.7564v3.9264h5.7564v1.1342h-5.7564v4.916h5.7564l4.3e-5 1.0882-6.9506 8e-5z" fill="#0a4b72" stroke-width=".35278"/>
  <path d="m-45.738 179.91h1.1465l0.01411 11.146h4.7731l-0.02117 1.0882h-5.9055z" fill="#0a4b72" stroke-width=".35278"/>
  <path d="m-26.949 179.91h1.2347l4.1399 9.5039 4.1398-9.5039h1.2912l-5.4309 12.365-5.3747-12.365z" fill="#0a4b72" stroke-width=".35278"/>
  <path d="m2.1462 179.91c0.28928-4e-3 0.85725 0 1.143 0 0.0035 4.0781-0.0035 8.1509 0 12.233-0.28222-4e-3 -0.86078 0-1.143 0 0-4.0781 0.0071-8.158 0-12.233z" fill="#0a4b72" stroke-width=".35278"/>
  <path d="m-36.534 179.91 6.9506-9e-5v1.1696h-5.7564v3.9264h5.7564v1.1342h-5.7564v4.916h5.7564l4.7e-5 1.0882-6.9506 9e-5z" fill="#0a4b72" stroke-width=".35278"/>
  <path d="m-12.899 179.91c0.28928-4e-3 0.85725 0 1.143 0 0.0035 4.0781-0.0035 8.1509 0 12.233-0.28222-4e-3 -0.86078 0-1.143 0 0-4.0781 0.0071-8.158 0-12.233z" fill="#0a4b72" stroke-width=".35278"/>
 </g>
</svg>
