<svg width="655.93" height="800" version="1.0" xmlns="http://www.w3.org/2000/svg">
 <g transform="translate(-44.404 -192.75)">
  <g transform="matrix(38.775 0 0 -38.775 -22620 20918)" clip-path="url(#id1216)" fill="#fff">
   <g transform="translate(595.87 525.16)" fill="#fff">
    <path d="m0 0-0.128 0.308c-0.065 0.116-0.141 0.18-0.231 0.18h-1.028c-0.128 0-0.205-0.051-0.218-0.18l1.207-2.53v-1.644c0-0.103 0.039-0.193 0.116-0.27 0.064-0.089 0.141-0.128 0.218-0.128h0.63c0.089 0 0.166 0.039 0.244 0.115 0.051 0.052 0.077 0.116 0.077 0.18v1.747l1.232 2.543-0.038 0.129c-0.026 0.025-0.064 0.038-0.129 0.038h-1.091c-0.077 0-0.142-0.051-0.193-0.154l-0.385-1.002c-0.052 0.064-0.141 0.283-0.283 0.668m-2.838-0.938 0.218-1.091h-0.462zm0.911 0.964c-0.102 0.308-0.23 0.462-0.385 0.462h-1.13c-0.141 0-0.257-0.064-0.321-0.218l-1.092-4.303 0.013-0.103 0.077-0.128h0.989c0.116 0 0.193 0.064 0.231 0.167l0.283 1.027h0.886l0.129-0.68 0.115-0.36c0.051-0.103 0.116-0.154 0.205-0.154h0.99c0.115 0 0.167 0.064 0.167 0.205 0 0.09-0.026 0.257-0.103 0.488zm-3.172-0.129c0.039 0.398-0.051 0.591-0.257 0.591h-0.732c-0.141 0-0.218-0.09-0.257-0.282v-3.276c0-0.102-0.064-0.166-0.167-0.166-0.115 0-0.167 0.064-0.167 0.166v0.334c0 0.09-0.051 0.167-0.128 0.218-0.064 0.052-0.141 0.078-0.244 0.078h-0.385c-0.116 0-0.206-0.039-0.283-0.116s-0.115-0.154-0.115-0.244v-1.131c0-0.089 0.038-0.166 0.102-0.243 0.064-0.051 0.129-0.078 0.193-0.078l2.145-0.012c0.09 0 0.167 0.051 0.231 0.154 0.039 0.077 0.064 0.141 0.064 0.218zm7.129 5.883c-0.026 0.102-0.116 0.154-0.257 0.167h-2.184c-0.269 0-0.385-0.206-0.359-0.604l-0.013-3.866c0-0.09 0.038-0.154 0.115-0.231 0.078-0.064 0.167-0.116 0.257-0.116h2.209c0.154 0 0.245 0.064 0.27 0.193v0.411c0.013 0.167 0 0.282-0.064 0.347-0.039 0.038-0.103 0.064-0.218 0.064h-1.272v0.989l0.758-0.013c0.077 0 0.154 0.026 0.205 0.064 0.064 0.052 0.103 0.103 0.103 0.18v0.527c0 0.167-0.09 0.256-0.27 0.256l-0.796 0.013v0.758h1.297c0.103 0 0.167 0.039 0.206 0.103l0.038 0.321c0 0.244 0 0.385-0.025 0.437m-3.224 0c-0.026 0.102-0.116 0.154-0.257 0.167h-2.184c-0.269 0-0.385-0.193-0.359-0.591v-3.879c0-0.09 0.039-0.154 0.116-0.231 0.064-0.064 0.154-0.103 0.243-0.103l2.222-0.013c0.142 0 0.232 0.064 0.257 0.193v0.411c0.013 0.167 0 0.282-0.051 0.347-0.051 0.051-0.116 0.077-0.231 0.077h-1.272v0.976h0.771c0.077 0 0.141 0.013 0.193 0.051 0.064 0.052 0.102 0.103 0.102 0.18v0.527c0 0.179-0.09 0.269-0.27 0.269h-0.796v0.758h1.297c0.103 0 0.18 0.039 0.206 0.103s0.039 0.167 0.039 0.321c0 0.244 0 0.385-0.026 0.437m-5.356-0.887h0.462c0.347 0 0.527-0.385 0.527-1.169v-0.359c0.026-0.848-0.141-1.259-0.462-1.246h-0.527zm-1.195 0.951c-0.064-0.064-0.102-0.141-0.102-0.231v-4.162c0-0.09 0.038-0.167 0.128-0.231 0.064-0.051 0.129-0.077 0.206-0.077h1.965c0.668 0 1.079 0.604 1.233 1.824v1.027c-0.039 1.298-0.54 1.953-1.503 1.953h-1.695c-0.09 0-0.167-0.026-0.232-0.103m4.842 2.453c-4.075 0-7.436-3.361-7.436-7.436 0-4.076 3.361-7.437 7.436-7.437 4.673 0 8.194 4.335 7.28 8.918-0.096 0.482-0.239 0.952-0.43 1.411-1.181 2.731-3.86 4.544-6.85 4.544m7.793-4.138 2e-3 -7e-3c0.22-0.527 0.383-1.064 0.493-1.61 1.038-5.211-2.975-10.146-8.288-10.146-4.641 0-8.464 3.823-8.464 8.465 0 4.641 3.823 8.464 8.464 8.464 3.395 0 6.451-2.063 7.793-5.166m-3.323-8.025v0.141h0.09c0.064 0 0.103-0.025 0.103-0.064 0-0.051-0.039-0.077-0.116-0.077zm0.257 0.077c0 0.077-0.051 0.129-0.154 0.129h-0.18v-0.45h0.077v0.192h0.077l0.116-0.192h0.077l-0.129 0.192c0.078 0.014 0.116 0.052 0.116 0.129m-0.501-0.103c0 0.103 0.039 0.18 0.103 0.232 0.051 0.051 0.128 0.089 0.218 0.089s0.167-0.038 0.232-0.089c0.051-0.065 0.089-0.142 0.089-0.232s-0.038-0.167-0.089-0.231c-0.065-0.064-0.142-0.09-0.232-0.09s-0.167 0.026-0.218 0.09c-0.064 0.064-0.103 0.141-0.103 0.231m0.039 0.283c-0.077-0.077-0.116-0.167-0.116-0.283 0-0.103 0.039-0.205 0.116-0.282 0.077-0.065 0.179-0.103 0.282-0.103 0.116 0 0.206 0.038 0.283 0.103 0.077 0.077 0.116 0.179 0.116 0.282 0 0.116-0.039 0.206-0.116 0.283-0.077 0.064-0.167 0.102-0.283 0.102-0.103 0-0.205-0.038-0.282-0.102" fill="#fff" fill-rule="evenodd"/>
   </g>
  </g>
  <g transform="matrix(38.775 0 0 -38.775 -22620 20918)" clip-path="url(#id1217)">
   <g transform="translate(595.69 514.17)">
    <path d="m0 0v0.065h0.056c0.025 0 0.058 0 0.058-0.026 0-0.033-0.016-0.039-0.045-0.039zm0.098-0.039c0.045 3e-3 0.07 0.023 0.07 0.07 0 0.069-0.041 0.079-0.1 0.079h-0.126v-0.258h0.058v0.109h0.04l0.058-0.109h0.062zm-0.057-0.172c-0.108 0-0.189 0.079-0.189 0.189 0 0.112 0.081 0.191 0.189 0.191 0.107 0 0.19-0.079 0.19-0.191 0-0.11-0.083-0.189-0.19-0.189m0-0.059c0.138 0 0.249 0.111 0.249 0.248 0 0.139-0.111 0.249-0.249 0.249s-0.248-0.11-0.248-0.249c0-0.137 0.11-0.248 0.248-0.248m3.692 0.866 0.527 1.32h0.614l-0.928-2.173h-0.438l-0.914 2.173h0.614zm-1.583-0.853h-0.565v1.695h-0.467v0.478h1.499v-0.478h-0.467zm-4.064 2.173h0.677l0.407-0.591 0.406 0.591h0.678l-0.802-1.13v-1.043h-0.565v1.043zm-0.718-0.671h-6e-3l-0.233-0.692h0.47zm-0.395-1.125-0.15-0.377h-0.6l0.837 2.173h0.616l0.819-2.173h-0.602l-0.142 0.377zm-0.911 1.796v-1.467c0-0.458-0.239-0.764-0.721-0.764-0.242 0-0.429 0.121-0.559 0.32l0.326 0.343c0.063-0.086 0.153-0.184 0.228-0.184 0.167 0 0.161 0.198 0.161 0.319v1.433zm-2.072-0.478v-0.363h0.637v-0.479h-0.637v-0.375h0.671v-0.478h-1.236v2.173h1.236v-0.478zm-1.586 0v-0.363h0.637v-0.479h-0.637v-0.375h0.672v-0.478h-1.237v2.173h1.237v-0.478zm-2.168-1.217h0.127c0.337 0 0.626 0.185 0.626 0.609 0 0.389-0.257 0.608-0.62 0.608h-0.133zm-0.565 1.695h0.802c0.605 0 1.104-0.475 1.104-1.086 0-0.612-0.502-1.087-1.104-1.087h-0.802v2.173" fill="#ee1c23"/>
   </g>
  </g>
 </g>
</svg>
