<svg width="800pt" height="708.11pt" version="1.1" viewBox="0 0 800 708.11" xmlns="http://www.w3.org/2000/svg">
 <g transform="matrix(1.4804 0 0 1.4804 -98.03 -191.67)" fill="#cd3484">
  <path transform="matrix(.75 0 0 .75 0 1287.2)" d="m448.56-1543.7c-90.154 0-164.64 83.081-191.76 155.81h-133.53l-34.975 481.96h720.54l-34.975-481.96h-133.53c-27.121-72.73-101.61-155.81-191.76-155.81zm0 10.865c78.404 0 151.32 74.734 177.71 144.95h-355.41c26.388-70.211 99.303-144.95 177.71-144.95z" fill="#cd3484" stroke-width="1.3333"/>
 </g>
 <g transform="matrix(1.1276 0 0 1.1276 73.631 230.54)" fill="#fff">
  <path d="m561.6 123.8v-31.8c0-12-12.7-15.8-20.2-15.6-22.6-0.2-23 16-23.7 26.5v12.3h-16.4c-11.6 1.1-19.5 8.4-19.3 20.7 0.6 27.4 40.2 23 49.3 23.1l30.3 0.1zm-70.6 49.4c-11.5-4.7-21.1-11.9-27.2-22.7v19.4h-19.9v-35c0-32.8-0.3-35.4-4.1-42.2-11.1-20-38-19.2-51.7 1.4-4.8 7.2-4.9 8-5.4 41.5l-0.6 34.2h-19.6v-105.2h20.2v6.3s0.4-0.1 8.3-5.3c25.5-16.7 60.4-3.9 70.7 26 1.2 3.4 2.1 11 2.1 16.8v17.5c4.7-11.9 16.5-27.9 32-28.6h8.6c0.4-15.5 8.5-30.4 21.1-35.1 10.6-5.4 30.5-3.7 41 2.7 12.9 8 12.4 12 12.4 62.7v47.7c-37.3 0.2-72.9 1.6-87.9-2.1z"/>
  <path d="m74.2 152.9c23.2-9.7 28.5-45.2 9.7-64.1-13-13-29.2-14.5-45.3-4.3-19.8 12.5-24.3 36.7-10.5 55.7 9.7 13.4 30.7 19.1 46.1 12.7zm-26.1 22.4c-31-5.2-53-36.9-47.2-68.2 3.8-20.3 13.9-33.9 32.2-42.9 17.7-8.2 36.9-7.6 51.4-0.2l11 5.7v-68.7h20v168.9h-20v-8.1c-6.5 8-28.9 16.2-47.4 13.5z"/>
  <path d="m201.1 151.5c11.8-6 21.5-21.5 21.5-34.3 0-16.5-14.6-34.5-31.1-38.1-24.7-5.5-47 12.7-47 38.4 0 29.4 30.1 47.5 56.6 34zm-31.2 23.1c-12.6-2.7-21.3-8-31.5-19.4-9.9-11-13.9-22-13.9-38.3 0-23.9 12.8-44 34.5-53.9 28-12.8 63.9 0.4 77.5 28.5 6.7 13.9 7.1 36.7 0.8 49.6-6.5 13.3-15.7 22.7-28 28.6-13.3 6.3-25.7 7.9-39.4 4.9z"/>
  <path d="m249.9 117.2v-52.7h20.9v6.4s-0.1-0.2 7.8-5.4c25-16.4 60.3-4 70.4 24.7 1.9 5.5 2.6 16.7 2.6 43.5v36.1h-19.8l-0.6-36.8c-0.5-35.5-0.7-37-4.9-42.9-5.8-8.1-18.3-13.7-27.1-12.1-9.3 1.7-18.8 8.7-24 17.8-4.2 7.4-4.4 9.1-4.4 40.8v33.1h-20.8z"/>
 </g>
 <g fill="#fff" stroke-width="1.1465" aria-label="Shopping">
  <path d="m102.73 533.97q-4.4629-1.1157-7.3917-2.092-2.7893-0.97626-6.6944-2.6498-3.7656-1.8131-6.8338-4.4629-2.9288-2.6499-5.1602-6.276-6.1365-9.2048-6.1365-18.41 0-14.923 10.46-25.522 10.599-10.599 25.662-10.599 13.249 0 23.012 8.2285 9.9021 8.2285 12.273 20.92l-26.08 5.4392q-0.55786-3.4866-3.2077-5.5786-2.5104-2.092-5.997-2.092-3.6261 0-6.4154 2.6498-2.7893 2.6499-2.7893 6.5549 0 2.2315 1.5341 3.905 1.1157 1.2552 3.0683 2.092 1.9525 0.69733 8.368 2.5104 0.55786 0.13947 3.905 1.1157 3.4866 0.97626 4.3234 1.2552 0.8368 0.27893 3.7656 1.2552 2.9288 0.97626 4.0445 1.6736 1.2552 0.69733 3.6261 1.9525 2.3709 1.2552 3.6261 2.6499 1.3947 1.2552 3.0683 3.0682 1.6736 1.8131 2.9288 3.905 6.1365 8.9258 6.1365 20.78 0 15.481-11.715 26.638-11.715 11.018-27.475 11.018-14.365 0-25.522-9.6232t-12.97-23.43l26.917-4.6024q0 4.7418 2.9288 7.8101 3.0683 2.9288 8.6469 2.9288 5.1602 0 8.6469-3.0682 3.6261-3.0682 3.6261-7.6706 0-3.7656-2.3709-6.1365-3.7656-3.7656-13.807-6.1365z"/>
  <path d="m185.71 468.14v40.027q5.4392-2.3709 11.715-2.3709 16.039 0 27.335 11.436 11.436 11.297 11.436 27.335v35.145h-27.056v-35.145q0-4.7418-3.4866-8.2285-3.3472-3.4866-8.2285-3.4866t-8.368 3.4866q-3.3472 3.4866-3.3472 8.2285v35.145h-27.056v-111.57z"/>
  <path d="m259.21 517.23q11.436-11.436 27.614-11.436t27.614 11.436 11.436 27.614-11.436 27.614q-11.436 11.436-27.614 11.436t-27.614-11.436-11.436-27.614 11.436-27.614zm27.614 15.341q-5.0208 0-8.6469 3.6261-3.6261 3.4866-3.6261 8.6469t3.6261 8.7864q3.6261 3.4866 8.6469 3.4866 5.1602 0 8.6469-3.4866 3.6261-3.6261 3.6261-8.7864t-3.6261-8.6469q-3.4866-3.6261-8.6469-3.6261z"/>
  <path d="m338.42 509.98h22.454q6.9733-4.184 16.736-4.184 16.178 0 27.614 11.576 11.576 11.436 11.576 27.614t-11.576 27.614q-11.436 11.297-27.614 11.297-6.6944 0-12.273-2.2314v44.071h-26.917zm47.837 26.359q-3.4866-3.6261-8.6469-3.6261-5.1602 0-8.7864 3.6261-3.4866 3.6261-3.4866 8.6469 0 5.1602 3.4866 8.7864 3.6261 3.4866 8.7864 3.4866 5.1602 0 8.6469-3.4866 3.6261-3.6261 3.6261-8.7864 0-5.0208-3.6261-8.6469z"/>
  <path d="m429.77 509.98h22.454q6.9733-4.184 16.736-4.184 16.178 0 27.614 11.576 11.576 11.436 11.576 27.614t-11.576 27.614q-11.436 11.297-27.614 11.297-6.6944 0-12.273-2.2314v44.071h-26.917zm47.837 26.359q-3.4866-3.6261-8.6469-3.6261t-8.7864 3.6261q-3.4866 3.6261-3.4866 8.6469 0 5.1602 3.4866 8.7864 3.6261 3.4866 8.7864 3.4866t8.6469-3.4866q3.6261-3.6261 3.6261-8.7864 0-5.0208-3.6261-8.6469z"/>
  <path d="m548.74 488.22h-27.196v-20.083h27.196zm0 91.49h-27.196v-69.733h27.196z"/>
  <path d="m565.89 509.98h22.036q7.9496-4.184 16.736-4.184 16.178 0 27.475 10.042 11.436 10.042 11.436 26.499v37.377h-26.917v-37.377q0-4.8813-3.6261-8.368-3.4866-3.4866-8.368-3.4866t-8.368 3.4866-3.4866 8.368v37.377h-26.917z"/>
  <path d="m651.11 611.93 18.967-19.107q6.276 6.276 14.504 6.276 7.3917 0 13.11-5.0208 5.7181-5.0208 6.9733-12.273-5.2997 2.092-11.994 2.092-16.318 0-27.893-11.297-11.436-11.436-11.436-27.614 0-16.318 11.436-27.754 11.576-11.436 27.893-11.436 9.7626 0 16.875 4.184h22.315v68.478q0 19.525-13.947 33.332-13.807 13.947-33.332 13.947-19.665 0-33.472-13.807zm50.208-75.73q-3.4866-3.6261-8.6469-3.6261-5.1602 0-8.7864 3.6261-3.6261 3.6261-3.6261 8.7864 0 5.1602 3.6261 8.7864 3.6261 3.4866 8.7864 3.4866 5.1602 0 8.6469-3.4866 3.6261-3.6261 3.6261-8.7864 0-5.1602-3.6261-8.7864z"/>
 </g>
</svg>
