<svg width="1551.1pt" height="530.17pt" version="1.1" viewBox="0 0 1551.1 530.17" xmlns="http://www.w3.org/2000/svg">
 <g transform="translate(-24.9,-85.15)" fill="#089bd9">
  <path d="m186.03 145.09c35.94-36.21 85.78-58.43 136.88-59.94h872.16l-25.73 124.01h406.66v286.82h-458.27l-24.67 119.14h-796.04c-18.38-0.21-36.89 1.285-55.12-1.695-21.22-3.22-41.98-10.53-59.81-22.6-23.92-15.87-41.87-39.59-53.46-65.65-8.74-19.76-14.61-40.88-16.75-62.39l-86.98 0.73 46.76-217.8 51.48 0.08c14.22-37.14 34.31-72.7 62.89-100.71"/>
  <path d="m1031.1 277.17c9.67-0.82 20.54-0.08 28.28 6.45 6.97 6.28 7.99 16.5 6.91 25.3-1.65 13.04-5.91 26.53-15.55 35.91-8.65 8.26-21 11.32-32.7 10.81-8.22-0.2-17.36-2.23-22.72-8.99-5.49-6.87-5.51-16.24-4.52-24.55 1.78-12.17 5.83-24.65 14.66-33.57 6.73-6.88 16.18-10.46 25.64-11.36z"/>
  <path d="m933.32 429.25c3.07-1.05 6.44-1.18 9.63-0.59 3 0.41 5.63 3.21 5.46 6.32-0.08 4.23-1.62 8.67-4.88 11.5-3.44 2.88-8.22 3.35-12.51 2.74-2.76-0.4-5.6-2.2-5.93-5.17-0.62-5.89 2.39-12.69 8.23-14.8z"/>
  <path d="m692.19 448.2c1.48-6.21 3-12.4 4.49-18.61 4.1 0.08 8.22-0.2 12.31 0.2 2.55 0.19 5.44 1.57 6.11 4.24 0.78 5.25-1.94 11.38-7.22 13.14-5.04 1.74-10.48 0.76-15.69 1.03z"/>
  <path d="m992.09 429.61c4.9 0.19 9.9-0.51 14.75 0.45 2.51 1.59 0.48 5.43-1.88 6-4.78 0.74-9.65 0.16-14.46 0.33 0.54-2.26 1.09-4.52 1.59-6.78z"/>
 </g>
 <g transform="translate(-24.9,-85.15)" fill="#fff">
  <path d="m525.5 179.54c6.04-5.54 14.5-7.24 22.47-7.17 9.17 0.2 18.77 1.8 26.34 7.33 8.15 5.76 12.47 15.6 13.51 25.3 1.05 8.04 0.35 16.23-1.41 24.12-12.82 52.51-25.67 105.01-38.52 157.51-21.45-0.14-42.91 0.13-64.35-0.13 0.44-19.36 7.36-37.89 16.31-54.83 8.87-16.72 19.97-32.21 32.31-46.55 10.42-11.34 18.87-24.43 25.65-38.24 5.88-12.05 9.37-26.09 5.73-39.33-1.93-7.42-7.59-14.1-15.24-15.89-8.9-2.1-19.14-0.62-26.2 5.5-2.59 2.15-4.25 5.11-6 7.92 0.02-9.21 2.41-19.08 9.4-25.54z"/>
  <path d="m531.5 200.6c5.05-1.71 10.86-1.46 15.49 1.34 5.81 3.36 9.1 9.81 10.6 16.15 1.36 9.39-0.08 19.33-4.81 27.63-1.62 2.7-4.19 5.96-7.8 5-7.4-1.6-13.61-6.6-18.51-12.17-5.99-6.83-9.53-16.5-7.24-25.52 1.46-6 6.48-10.63 12.27-12.43z"/>
  <path d="m604.97 256.1c16.9-10.82 37.41-13.49 57.04-14.61 19.33-0.67 38.9-0.25 57.86 3.93 10.57 2.54 21.5 6.5 28.83 14.93 6.48 7.36 8.11 17.91 6.3 27.33-21.48-0.16-42.95-0.06-64.42-0.05 0.4-3.55-0.02-7.83-3.43-9.83-8.72-5.27-19.52-4.79-29.28-3.73-5.72 0.87-13.16 3.23-14.09 9.89-1.01 3.36 2.11 5.99 5.21 6.17 22.35 3.54 44.75 6.83 67.1 10.35 11.52 2.11 24.04 6.3 30.78 16.57 6.35 10 4.41 22.75 0.42 33.27-5.04 13.78-16.61 24.33-29.88 30.1-19.55 8.63-41.25 10.33-62.36 10.95-18.72 0.03-37.76-0.14-55.96-5.04-9.92-2.8-20.22-7.44-25.95-16.45-4.9-7.51-5.11-17-3.47-25.55 1.34-0.62 2.94-0.24 4.39-0.36 20.89 0.07 41.78 0.02 62.67 0.03-0.47 3.58 0.06 7.86 3.55 9.8 5.42 2.85 11.76 2.81 17.73 3.2 6.28-0.22 12.89-0.43 18.61-3.37 4.13-2.06 7.14-6.93 6.1-11.57-0.99-3.77-5.11-5.24-8.58-5.67-20.1-3.08-40.2-6.17-60.29-9.27-8.76-1.37-17.8-4.3-24.05-10.91-6.08-6.37-8-15.77-6.72-24.29 1.5-14.43 9.62-28 21.89-35.82z"/>
  <path d="m1025.6 241.76c17.46-0.93 35.1-1 52.41 1.72 14.64 2.48 29.91 8.08 39.22 20.26 8.82 11.26 10.35 26.37 8.97 40.17-2.49 22.66-10.7 45.74-27.58 61.68-10.98 10.65-25.2 17.47-39.92 21.19-18.5 4.72-37.75 4.8-56.71 4.51-16.13-0.64-32.83-2.26-47.36-9.87-10.67-5.51-19.22-15.34-22.3-27.04-4.42-15.92-1.63-32.8 2.81-48.4 5.34-18.2 16.03-35.16 31.7-46.14 17.06-12.13 38.18-16.82 58.76-18.08m5.44 35.41c-9.46 0.9-18.91 4.48-25.64 11.36-8.83 8.92-12.88 21.4-14.66 33.57-0.99 8.31-0.97 17.68 4.52 24.55 5.36 6.76 14.5 8.79 22.72 8.99 11.7 0.51 24.05-2.55 32.7-10.81 9.64-9.38 13.9-22.87 15.55-35.91 1.08-8.8 0.06-19.02-6.91-25.3-7.74-6.53-18.61-7.27-28.28-6.45z"/>
  <path d="m1155 281.28c3-13.54 5.69-27.13 8.72-40.66 60.8 0.07 121.59-0.01 182.39 0.04-2.68 13.56-5.76 27.03-8.49 40.58-21.82 0.26-43.64 0.05-65.46 0.1-12.4 59.23-24.8 118.46-37.26 177.67-16.25-0.06-32.5 0.08-48.75-0.07 12.59-59.16 24.83-118.4 37.31-177.59-22.82-0.04-45.64 0.11-68.46-0.07z"/>
  <path d="m1355.6 240.68c16.08-0.09 32.17 0.01 48.25-0.05 4.92 54.61 9.73 109.23 14.36 163.87 8.59-15.75 16.28-31.98 24.53-47.92 19.48-38.65 39.1-77.23 58.54-115.9 16.79-0.06 33.58-0.05 50.37 0-38.81 72.79-77.65 145.56-116.49 218.33-18.07-0.1-36.14 0.13-54.2-0.1-0.97-1.35-0.59-3.29-0.92-4.85-8.09-71.14-16.4-142.24-24.44-213.38z"/>
  <path d="m193.02 246.16c49.7 0.05 99.39 0.01 149.08 0.02-2.35 11.5-4.77 22.99-7.34 34.44-31.14-0.02-62.29-0.04-93.43 0.01-1.25 6.2-2.65 12.36-3.89 18.57 28.9-0.03 57.79-0.02 86.69-0.01-2.27 11.52-4.75 23-7.31 34.46-28.92-0.1-57.84-0.03-86.75-0.04-1.21 6.14-2.67 12.23-3.82 18.38 31.14 0.01 62.29 0.01 93.43 0.01-2.45 11.5-4.96 22.99-7.3 34.51-49.75 0.21-99.52 0.04-149.27 0.09 10.02-46.8 19.83-93.65 29.91-140.44z"/>
  <path d="m359.99 246.18c18.57 0.05 37.14-0.08 55.71 0.06-7.42 34.02-14.42 68.13-21.84 102.15 28.57 0 57.15 0.02 85.72-0.01-2.71 12.74-5.48 25.46-8.09 38.22-47.14-0.01-94.28 0.03-141.42-0.02 10.03-46.79 19.85-93.62 29.92-140.4z"/>
  <path d="m788.03 246.16c49.68 0.04 99.36 0.02 149.05 0.01-2.33 11.5-4.78 22.98-7.32 34.44-31.18 0.01-62.35-0.05-93.52 0.03-1.1 6.22-2.62 12.36-3.8 18.56 28.89-0.03 57.79-0.01 86.68-0.01-2.25 11.52-4.78 22.99-7.29 34.46-28.92-0.1-57.84-0.02-86.76-0.04-1.24 6.13-2.7 12.23-3.82 18.39 31.14 0 62.27 0.01 93.41-0.01-2.51 11.39-4.73 22.84-7.35 34.19-1.27 0.8-2.95 0.28-4.36 0.45-48.28-0.07-96.56 0-144.84-0.03 9.98-46.81 19.8-93.66 29.92-140.44z"/>
  <path d="m850.56 426.53c5.79-5.28 13.69-7.38 21.32-8.07 6.33-0.47 12.76-0.24 19.02 0.97 3.83 0.77 7.84 2.17 10.46 5.24 1.97 2.29 1.98 5.46 2.09 8.32-6.58-0.04-13.16 0.14-19.73-0.1-0.56-1.77-1.47-3.73-3.49-4.09-4.91-1.05-10.62-0.6-14.49 2.89-3.34 3.4-4.92 8.54-3.87 13.21 0.89 2.15 3.06 3.46 5.23 4.03 5.31 1.24 11.6 0.58 15.32-3.83-2.38-0.1-4.76-0.11-7.13-0.11 0.78-2.96 1.49-5.94 2.13-8.93 8.31-0.14 16.63-0.03 24.95-0.06-1.81 7.34-3.48 14.71-5.42 22.02-2.61-0.02-5.22-0.03-7.82-0.06-0.18-0.73-0.53-2.2-0.71-2.93-9.51 5.07-20.8 5.24-31.23 3.66-5.52-0.97-11.68-3.58-13.64-9.3-1.98-8.13 0.95-17.16 7.01-22.86z"/>
  <path d="m931.61 418.78c8.17-0.83 16.57-0.99 24.61 0.94 5.43 1.29 10.7 5.46 11.02 11.42 0.7 9.28-3.82 19.31-12.24 23.78-7.54 4.31-16.55 4.6-25.01 4.66-7.12-0.42-15.32-0.52-20.72-5.89-5.02-5.51-3.38-13.86-0.75-20.11 3.84-9.11 13.67-13.95 23.09-14.8m1.71 10.47c-5.84 2.11-8.85 8.91-8.23 14.8 0.33 2.97 3.17 4.77 5.93 5.17 4.29 0.61 9.07 0.14 12.51-2.74 3.26-2.83 4.8-7.27 4.88-11.5 0.17-3.11-2.46-5.91-5.46-6.32-3.19-0.59-6.56-0.46-9.63 0.59z"/>
  <path d="m148.27 458c3.11-12.8 6.17-25.61 9.36-38.39 125.53 0.09 251.07-0.01 376.61 0.05-2.88 12.83-6.1 25.59-9.29 38.35-125.56-0.03-251.12 0-376.68-0.01z"/>
  <path d="m558.43 419.71c8.15-0.15 16.31-0.01 24.47-0.09 0.91 7.21 1.15 14.48 1.88 21.71 4.13-7.2 8.15-14.46 12.24-21.68 8.18-0.03 16.36 0.04 24.55-0.05-2.81 12.82-6.29 25.48-9.08 38.3-5.39 0.2-10.78 0.05-16.17 0.11 2.11-8.71 4.23-17.41 6.3-26.12-4.97 8.67-10.06 17.28-14.93 26.01-4.53 0.17-9.07 0.08-13.6 0.1-0.88-8.8-1.67-17.61-2.42-26.41-2.22 8.78-4.27 17.61-6.44 26.4-5.35 0.01-10.7 0.01-16.05 0.01 3.06-12.77 6.25-25.51 9.25-38.29z"/>
  <path d="m620.29 458c3.25-12.74 5.93-25.65 9.48-38.31 15.46-0.11 30.93-0.03 46.4-0.03-0.67 3.26-1.47 6.5-2.31 9.72-9.65-0.06-19.31 0-28.96-0.03-0.41 1.54-0.81 3.08-1.2 4.63 9 0.04 18.01 0.01 27.01 0.02-0.79 3.29-1.59 6.57-2.44 9.85-8.99-0.08-17.97-0.02-26.95-0.03-0.36 1.52-0.7 3.05-1.03 4.59 9.61-0.02 19.23-0.02 28.86-0.01-0.58 3.24-1.36 6.44-2.24 9.61-15.54-0.02-31.08-0.01-46.62-0.01z"/>
  <path d="m681.37 419.74c11.89-0.21 23.78-0.05 35.67-0.09 5.43 0.25 12.01 0.92 15.3 5.89 2.74 4.62 1.73 10.4 0.34 15.31-1.76 6.28-5.99 12.08-12.1 14.69-3.94 1.77-8.28 2.47-12.57 2.47-11.95-0.02-23.9-0.01-35.85-0.01 3.04-12.76 6.28-25.48 9.21-38.26m10.82 28.46c5.21-0.27 10.65 0.71 15.69-1.03 5.28-1.76 8-7.89 7.22-13.14-0.67-2.67-3.56-4.05-6.11-4.24-4.09-0.4-8.21-0.12-12.31-0.2-1.49 6.21-3.01 12.4-4.49 18.61z"/>
  <path d="m767.22 419.7c5.84-0.13 11.69 0.01 17.54-0.11-1.62 7.84-3.7 15.58-5.54 23.37-1.17 5.58-4.06 11.3-9.52 13.72-7.02 3.12-15 3.18-22.52 2.57-4.43-0.44-9.64-1.07-12.36-5.08-2.42-3.74-1.33-8.44-0.56-12.52 5.88 0 11.76-0.04 17.64 0.03-0.27 2.5-2.29 6.09 0.61 7.69 3.16 1.08 7.39-0.11 8.29-3.68 2.41-8.58 4.26-17.33 6.42-25.99z"/>
  <path d="m791.14 419.62c5.83 0.06 11.67-0.01 17.51 0.06-1.8 7.81-3.85 15.56-5.64 23.38-0.7 2.12-0.09 4.85 2.36 5.42 4.95 1.53 12.59 1.16 14.53-4.65 2.23-8 3.9-16.14 5.98-24.18 5.87 0.02 11.74-0.09 17.61 0.08-2.12 8.41-4 16.88-6.18 25.27-1.56 6.46-7.13 11.33-13.5 12.8-9.12 2.16-18.67 2.22-27.91 0.87-3.96-0.75-8.62-2.16-10.38-6.18-1.69-3.7-0.56-7.77 0.33-11.51 1.8-7.11 3.4-14.27 5.29-21.36z"/>
  <path d="m976.95 419.65c12.02-0.02 24.03 0.02 36.05-0.02 3.57 0.09 7.43-0.13 10.71 1.54 4.13 2.32 4.49 8.08 2.48 11.96-1.27 3.06-4.2 4.82-7.09 6.1 2.03 1.2 3.22 3.43 2.66 5.82-0.3 4.32-2.26 8.76-0.37 12.98-6.46-0.1-12.92 0.07-19.36-0.12 0.09-3.53 2.14-7.25 0.76-10.66-4.58-1.89-9.83-0.46-14.66-0.91-1 3.82-2 7.65-2.72 11.54-5.93 0.24-11.86 0.07-17.78 0.12 3.12-12.78 6.15-25.58 9.32-38.35m15.14 9.96c-0.5 2.26-1.05 4.52-1.59 6.78 4.81-0.17 9.68 0.41 14.46-0.33 2.36-0.57 4.39-4.41 1.88-6-4.85-0.96-9.85-0.26-14.75-0.45z"/>
  <path d="m1059.2 419.69c5.86-0.09 11.73-0.04 17.61-0.04-1.96 8.12-3.88 16.25-5.91 24.35-1.1 4.52-3.3 9.1-7.39 11.6-6.07 3.79-13.57 4-20.5 3.93-5.26-0.46-11.34-0.34-15.41-4.24-3.37-3.75-2.29-9.18-1.38-13.65 5.88 0.02 11.76-0.03 17.64 0.04-0.27 2.5-2.28 6.07 0.6 7.68 3.13 1.09 7.4-0.07 8.27-3.66 2.47-8.58 4.23-17.36 6.47-26.01z"/>
  <path d="m1083.9 419.65c15.55 0 31.11-0.03 46.66 0.01-0.75 3.26-1.54 6.5-2.4 9.73-9.66-0.08-19.32 0-28.98-0.05-0.38 1.55-0.77 3.1-1.14 4.66 8.98 0.01 17.97-0.02 26.97 0.02-0.78 3.27-1.55 6.54-2.36 9.8-8.96-0.01-17.91 0.01-26.87-0.01-0.44 1.53-0.88 3.05-1.28 4.59 9.7 0 19.41-0.02 29.12 0.01-1.03 3.07-1.1 6.74-2.61 9.48-15.44 0.27-30.91 0.04-46.35 0.1 2.99-12.8 6.21-25.55 9.24-38.34z"/>
 </g>
</svg>
