<svg width="800" height="249.11" enable-background="new 0 0 736.7 500" space="preserve" version="1.1" viewBox="0 0 800 249.11" xmlns="http://www.w3.org/2000/svg">
 <g transform="matrix(3.7799 0 0 3.7799 289.27 702.91)">
  <path d="m-52.864-185.86c1.9721 0 2.9581 1.2005 2.9581 3.6015s-0.986 3.6015-2.9581 3.6015h-17.748v21.635h15.091c1.9721 0 2.9581 1.2005 2.9581 3.6015s-0.986 3.6015-2.9581 3.6015h-15.091v21.583h17.748c1.9721 0 2.9581 1.2005 2.9581 3.6015s-0.986 3.6015-2.9581 3.6015h-19.227c-2.9581 0-4.4371-1.8007-4.4371-5.4022v-54.023c0-3.6015 1.4791-5.4023 4.4371-5.4023z" stroke-width="1.6712"/>
  <path d="m-27.766-143.61h-6.99v18.969c0 2.5609-1.0702 3.8413-3.2105 3.8413s-3.2105-1.2777-3.2105-3.8385v-55.464c0-3.8413 1.6053-5.7617 4.8159-5.7617h8.5955c9.6314 0 16.001 7.0423 16.001 21.127s-6.3692 21.127-16.001 21.127zm9.5797-21.127c0-8.9633-4.2289-13.444-9.5797-13.444h-6.99v26.889h6.99c5.3508 0 9.5797-4.4815 9.5797-13.444z" stroke-width="1.798"/>
  <path d="m-1.1037-185.86q2.9581 0 2.9581 3.6015v57.623q0 3.6015-2.9581 3.6015t-2.9581-3.6015v-57.623q0-3.6015 2.9581-3.6015z" stroke-width="1.6712"/>
  <path d="m134.93-125.66q0.89988 3.4935-2.5918 4.4298-3.4557 0.90038-4.3916-2.557l-3.5637-13.469h-19.33l-3.9237 13.506q-1.0079 3.4214-4.4637 2.449-3.4197-1.0084-2.4477-4.4659l16.415-56.507q1.2598-3.6015 4.6436-3.6015 3.4558 0 4.6437 3.6015zm-12.491-18.8-7.2713-27.551-8.0273 27.551z" stroke-width="1.8435"/>
  <path transform="scale(.26458)" d="m140.18-702.84c-32.04 0-58.597 13.654-76.07 35.33s-26.242 50.775-26.242 82.27v13.311c0 31.496 8.7686 60.602 26.242 82.279 17.474 21.677 44.03 35.336 76.07 35.336h92.857c26.113 0 48.121-9.1946 64.285-24.395 2.4713 4.1147 5.4052 8.0942 8.7344 11.613l7.2363 8.9844c4.8247 5.989 10.318 5.8072 16.479-0.54492 6.0863-6.2616 6.7914-12.614 2.1152-19.057l-7.0156-9.5274c-3.9964-4.9818-7.6221-9.1427-10.906-12.586 11.928-20.333 17.525-45.378 17.525-72.104v-13.311c0-31.23-7.6143-60.179-24.08-81.975-16.466-21.795-42.333-35.625-74.373-35.625zm-9.3965 32.082h106.5c23.693 0 39.905 8.9118 51.482 23.865 11.578 14.953 18.062 36.729 18.062 61.705v13.502c0 24.976-6.4844 46.751-18.062 61.705-11.578 14.954-27.791 23.865-51.482 23.865h-106.49c-23.693 0-39.255-8.808-50.367-23.695-11.113-14.887-17.215-36.754-17.215-61.875v-13.502c0-25.122 6.0954-46.988 17.207-61.875 11.112-14.887 26.674-23.695 50.367-23.695z" color="#000000" opacity=".999" stroke-width="3.7795" style="-inkscape-stroke:none"/>
 </g>
</svg>
