<svg width="900mm" height="206.65mm" version="1.1" viewBox="0 0 900 206.65" xmlns="http://www.w3.org/2000/svg">
 <defs>
  <clipPath id="a">
   <path d="M 0,585.775 H 2551.482 V 0 H 0 Z"/>
  </clipPath>
 </defs>
 <g transform="translate(467.01 -45.509)">
  <g transform="matrix(.35278 0 0 -.35278 -467.12 252.16)" clip-path="url(#a)">
   <g transform="translate(2466 -1.3598)">
    <path d="m0 0h-2380.2c-47.227 0-85.512 38.285-85.512 85.511v416.11c0 47.227 38.285 85.511 85.512 85.511h2380.2c47.227 0 85.511-38.284 85.511-85.511v-416.11c0-47.226-38.284-85.511-85.511-85.511" fill="#006fe8"/>
   </g>
   <g transform="translate(499.35 336.6)">
    <path d="m0 0c0 7.788-6.31 14.104-14.104 14.104-7.789 0-14.099-6.316-14.099-14.104 0-7.789 6.31-14.099 14.099-14.099 7.794 0 14.104 6.31 14.104 14.099m-97.998 3.901v44.066c0 38.99 12.086 61.603 30.804 61.603 2.729 0 9.357-0.387 9.357-2.342 0-5.065-3.12-5.452-3.12-9.738 0-10.533 5.467-17.945 15.995-17.945 6.628 0 14.422 5.07 14.422 12.869 0 18.327-17.543 25.347-32.749 25.347-37.443 0-65.126-28.075-65.126-94.754v-19.106h-30.026v-8.97h30.026v-136.48h-30.026v-8.97h92.026v8.97h-31.583v136.48h31.583v8.97zm-258.88 18.981 245.55-245.56 245.55 245.56-118.75 118.66h-253.69zm245.55-285.35-285.36 285.35 146.79 146.8h277.02l146.9-146.79z" fill="#fff"/>
   </g>
   <g transform="translate(726.77 434.55)">
    <path d="m0 0h209.11v-44.953h-159.74v-76.661h141.68v-44.953h-141.68v-114.39h-49.368z" fill="#fff"/>
   </g>
   <g transform="translate(1067.7 388.79)">
    <path d="m0 0h-89.104v45.756h227.98v-45.756h-89.103v-235.2h-49.77z" fill="#fff"/>
   </g>
   <g transform="translate(1246.6 434.55)">
    <path d="m0 0h54.586l84.688-215.94 84.288 215.94h53.381l-116.8-282.96h-43.348z" fill="#fff"/>
   </g>
   <g transform="translate(1552.2 239.08)">
    <path d="m0 0c0 15.252 2.007 29.3 6.021 43.749l40.136 151.72h32.11l-42.545-160.15c-2.409-8.428-4.014-19.667-4.014-31.708 0-36.524 23.681-64.218 73.45-64.218 23.279 0 44.953 8.428 62.613 25.687 14.45 14.851 27.695 37.729 35.722 68.634l43.749 161.75h31.708l-44.953-167.37c-9.633-35.722-24.483-63.416-44.15-83.083-22.878-22.878-52.579-34.919-87.498-34.919-67.029 0-102.35 37.327-102.35 89.906" fill="#fff"/>
   </g>
   <g transform="translate(1914.4 434.55)">
    <path d="m0 0h31.708l-33.313-124.82h160.14l33.314 124.82h32.109l-75.457-280.96h-32.11l34.117 126.43h-160.15l-34.116-126.43h-31.708z" fill="#fff"/>
   </g>
   <g transform="translate(2248.8 182.89)">
    <path d="m0 0c46.96 0 87.498 15.653 116 44.15 22.477 22.477 35.32 52.981 35.32 87.498 0 26.491-8.428 47.362-23.68 62.212-18.463 18.463-48.164 28.497-85.491 28.497h-41.743l-59.803-222.36zm-23.681 251.66h67.831c46.559 0 85.09-13.245 109.57-37.327 20.068-20.068 30.504-46.559 30.504-80.675 0-42.946-15.654-80.675-44.151-109.57-33.715-33.715-84.287-53.382-144.09-53.382h-95.124z" fill="#fff"/>
   </g>
  </g>
 </g>
</svg>
