<svg width="800" height="780.1" version="1.1" viewBox="0 0 800 780.1" xml:space="preserve" xmlns="http://www.w3.org/2000/svg"><g transform="matrix(1.3333 0 0 -1.3333 -35.488 819.41)"><g transform="matrix(2.6061 0 0 2.6061 -42.748 -47.347)" fill="#006fe8"><path d="m42.672 194.76 99.057-99.057 99.057 99.056-47.905 47.867h-102.34zm99.057-115.11-115.11 115.11 59.219 59.219h111.75l59.263-59.217z"/><path d="m159.85 187.1v-3.618h-12.741v-55.055h12.741v-3.619h-37.123v3.619h12.112v55.055h-12.112v3.618h12.112v7.708c0 26.899 11.168 38.224 26.27 38.224 6.136 0 13.213-2.831 13.213-10.225 0-3.145-3.146-5.191-5.82-5.191-4.247 0-6.45 2.99-6.45 7.237 0 1.73 1.259 1.887 1.259 3.931 0 0.788-2.674 0.945-3.777 0.945-7.549 0-12.425-9.123-12.425-24.853v-17.776z"/><path d="m186.64 185.53c0-3.143-2.548-5.689-5.69-5.689-3.141 0-5.688 2.546-5.688 5.689 0 3.141 2.547 5.689 5.688 5.689 3.142 0 5.69-2.548 5.69-5.689"/><path d="m27.118 66.985h28.116v-7.385h-19.993v-7.86h17.619v-7.385h-17.619v-14.296h-8.123z"/><path d="m71.642 59.494h-11.235v7.491h30.595v-7.491h-11.236v-29.435h-8.124z"/><path d="m95.385 66.985h8.968l9.653-26.006 9.654 26.006h8.757l-14.93-37.19h-7.174z"/><path d="m139.86 41.296c0 2.004 0.264 3.851 0.791 5.75l5.276 19.94h4.22l-5.592-21.048c-0.317-1.107-0.528-2.585-0.528-4.167 0-4.8 3.113-8.44 9.654-8.44 3.059 0 5.909 1.107 8.229 3.376 1.899 1.952 3.64 4.958 4.695 9.02l5.75 21.259h4.167l-5.908-21.998c-1.266-4.694-3.218-8.334-5.802-10.919-3.007-3.007-6.911-4.589-11.5-4.589-8.809 0-13.452 4.906-13.452 11.816"/><path d="m187.81 66.985h4.167l-4.378-16.405h21.048l4.378 16.405h4.22l-9.917-36.926h-4.22l4.484 16.617h-21.048l-4.484-16.617h-4.167z"/><path d="m232.13 33.91c6.172 0 11.5 2.057 15.245 5.802 2.954 2.955 4.642 6.963 4.642 11.5 0 3.482-1.107 6.225-3.112 8.176-2.426 2.427-6.33 3.746-11.236 3.746h-5.486l-7.86-29.224zm-3.112 33.075h8.915c6.119 0 11.183-1.741 14.401-4.906 2.637-2.638 4.009-6.119 4.009-10.603 0-5.644-2.057-10.603-5.803-14.401-4.43-4.431-11.078-7.016-18.937-7.016h-12.502z"/></g></g></svg>
