<svg width="800" height="485.33" enable-background="new 0 0 258 159.3" version="1.1" viewBox="0 0 800 485.33" xml:space="preserve" xmlns="http://www.w3.org/2000/svg">
	<g transform="matrix(3.702 0 0 3.702 -81.444 -46.645)" fill="#fff"><polygon class="st0" points="171.5 61.1 96.7 12.6 22 61.1"/><polygon class="st0" points="58.8 85 58.8 65 77.7 65 77.7 121.7 58.8 121.7 58.8 101.3 41 101.3 41 121.7 22 121.7 22 65 41 65 41 85"/><path class="st0" d="m80.2 93.5v-0.2c0-16.9 13.4-29.6 31.3-29.6 9.7 0 18.1 3.2 24.3 8.6l-10.6 12.8c-3.7-3.2-7.9-4.4-12.5-4.4-7.4 0-12.2 5.1-12.2 12.8v0.2c0 8 5.9 13 13 13 3.2 0 5-0.8 6.5-1.6v-3.8h-9.7v-13.2h27.4v26.2c-6.2 5-15.3 8.5-25.6 8.5-17.8 0-31.9-11.8-31.9-29.3"/><polygon class="st0" points="137.6 65 137.6 80.9 152.7 80.9 152.7 121.7 171.6 121.7 171.6 80.9 180.4 80.9 196.9 121.7 215 121.7 238 65 217.1 65 206.1 96.8 195.1 65"/><path class="st0" d="m22 125.8h3.9v6.9h7.1v-6.9h3.9v17.5h-3.9v-7h-7.1v7h-3.9z"/><path class="st0" d="m48.9 143.6c-1.4 0-2.6-0.2-3.7-0.7s-2.1-1.1-2.9-1.9-1.5-1.8-1.9-2.8c-0.5-1.1-0.7-2.3-0.7-3.5s0.2-2.4 0.7-3.5 1.1-2 1.9-2.9c0.8-0.8 1.8-1.5 3-2 1.1-0.5 2.4-0.7 3.7-0.7s2.6 0.2 3.7 0.7 2.1 1.1 2.9 1.9 1.5 1.8 1.9 2.8 0.7 2.3 0.7 3.5-0.2 2.4-0.7 3.5-1.1 2-1.9 2.9c-0.8 0.8-1.8 1.5-3 2-1.1 0.5-2.4 0.7-3.7 0.7zm0-3.5c0.8 0 1.5-0.1 2.1-0.4s1.2-0.7 1.7-1.2 0.8-1.1 1.1-1.7c0.3-0.7 0.4-1.4 0.4-2.1 0-0.8-0.1-1.5-0.4-2.1-0.3-0.7-0.6-1.2-1.1-1.8s-1-0.9-1.7-1.2c-0.6-0.3-1.4-0.4-2.1-0.4-0.8 0-1.5 0.1-2.1 0.4s-1.2 0.7-1.6 1.2c-0.5 0.5-0.8 1.1-1.1 1.7s-0.4 1.4-0.4 2.1c0 0.8 0.1 1.5 0.4 2.1 0.3 0.7 0.6 1.2 1.1 1.8s1 0.9 1.7 1.2c0.5 0.3 1.2 0.4 2 0.4z"/><path class="st0" d="m61 125.8h4.1l4.6 7.4 4.6-7.4h4.1v17.5h-3.8v-11.4l-4.9 7.5h-0.1l-4.9-7.4v11.3h-3.7z"/><path class="st0" d="m82.1 125.8h13.2v3.4h-9.4v3.5h8.2v3.4h-8.2v3.7h9.5v3.4h-13.3z"/><path class="st0" d="m116.9 141.6c-0.7 0.6-1.5 1.1-2.3 1.4-0.8 0.4-1.8 0.5-2.8 0.5-0.8 0-1.6-0.1-2.3-0.3s-1.3-0.6-1.9-1-0.9-1-1.2-1.6-0.4-1.3-0.4-2.1c0-1.1 0.3-2.1 0.9-2.9s1.4-1.4 2.5-1.9c-0.4-0.6-0.7-1.2-0.9-1.8s-0.3-1.1-0.3-1.8c0-0.6 0.1-1.2 0.4-1.7s0.6-1 1-1.5c0.5-0.4 1-0.8 1.7-1 0.7-0.3 1.4-0.4 2.3-0.4 0.8 0 1.4 0.1 2 0.3s1.1 0.5 1.5 0.9 0.8 0.9 1 1.4 0.4 1.1 0.4 1.7v0.1c0 0.6-0.1 1.1-0.3 1.6s-0.4 0.9-0.8 1.3c-0.3 0.4-0.7 0.7-1.2 1s-1 0.5-1.5 0.8l2.3 2.3c0.3-0.5 0.6-0.9 0.9-1.4s0.6-1 0.9-1.6l2.8 1.5c-0.3 0.6-0.7 1.2-1.1 1.9l-1.2 1.8 2.6 2.6-2.8 2zm-4.7-1.2c0.4 0 0.9-0.1 1.3-0.3s0.8-0.4 1.2-0.7l-3.4-3.4c-0.6 0.3-1 0.6-1.2 1s-0.4 0.8-0.4 1.2c0 0.6 0.2 1.1 0.7 1.5 0.5 0.6 1.1 0.7 1.8 0.7zm0.4-7.9c0.8-0.3 1.3-0.6 1.7-1s0.6-0.8 0.6-1.4c0-0.5-0.2-0.9-0.5-1.2s-0.7-0.4-1.2-0.4-0.9 0.2-1.2 0.5-0.5 0.8-0.5 1.3v0.1c0 0.4 0.1 0.7 0.2 1.1 0.3 0.3 0.6 0.6 0.9 1z"/><path class="st0" d="m140.2 143.6c-1.4 0-2.6-0.2-3.7-0.7s-2.1-1.1-2.9-1.9-1.4-1.8-1.9-2.8c-0.5-1.1-0.7-2.3-0.7-3.6 0-1.2 0.2-2.4 0.7-3.5s1.1-2 1.9-2.9 1.8-1.5 2.9-2 2.3-0.7 3.7-0.7c0.8 0 1.5 0.1 2.1 0.2s1.2 0.3 1.8 0.5 1.1 0.5 1.5 0.8 1 0.6 1.4 1l-2.4 2.9c-0.3-0.3-0.7-0.5-1-0.8-0.3-0.2-0.7-0.4-1-0.6-0.4-0.1-0.7-0.3-1.2-0.3-0.4-0.1-0.9-0.1-1.4-0.1-0.7 0-1.4 0.1-2 0.4s-1.1 0.7-1.6 1.2-0.8 1.1-1.1 1.7c-0.3 0.7-0.4 1.4-0.4 2.1 0 0.8 0.1 1.5 0.4 2.2s0.6 1.3 1.1 1.8 1 0.9 1.7 1.2c0.6 0.3 1.4 0.4 2.1 0.4 1.4 0 2.6-0.4 3.6-1.1v-2.5h-3.8v-3.3h7.6v7.6c-0.9 0.8-2 1.4-3.2 2s-2.6 0.8-4.2 0.8z"/><path class="st0" d="m156.7 125.7h3.6l7.5 17.6h-4l-1.6-3.9h-7.4l-1.6 3.9h-3.9zm4.1 10.3-2.3-5.7-2.3 5.7z"/><path class="st0" d="m169.9 125.8h8c2.2 0 3.9 0.6 5.1 1.8 1 1 1.5 2.3 1.5 4 0 1.4-0.3 2.6-1 3.5s-1.6 1.5-2.7 2l4.3 6.2h-4.5l-3.8-5.6h-3v5.6h-3.9zm7.7 8.5c1 0 1.7-0.2 2.2-0.7s0.8-1 0.8-1.8v-0.1c0-0.8-0.3-1.5-0.8-1.9s-1.3-0.6-2.2-0.6h-3.8v5h3.8z"/><path class="st0" d="m187.4 125.8h6.8c1.4 0 2.6 0.2 3.8 0.7 1.1 0.4 2.1 1.1 3 1.8s1.5 1.7 1.9 2.8 0.7 2.2 0.7 3.4-0.2 2.4-0.7 3.5-1.1 2-1.9 2.8-1.8 1.4-3 1.9-2.4 0.7-3.8 0.7h-6.8zm6.8 14.1c0.8 0 1.5-0.1 2.2-0.4 0.6-0.2 1.2-0.6 1.7-1.1s0.8-1 1.1-1.7c0.3-0.6 0.4-1.3 0.4-2.1s-0.1-1.5-0.4-2.1c-0.3-0.7-0.6-1.2-1.1-1.7s-1-0.8-1.7-1.1-1.4-0.4-2.2-0.4h-3v10.6z"/><path class="st0" d="m206.3 125.8h13.2v3.4h-9.4v3.5h8.2v3.4h-8.2v3.7h9.5v3.4h-13.3z"/><path class="st0" d="m222.5 125.8h3.6l8.2 10.8v-10.8h3.8v17.5h-3.3l-8.5-11.1v11.1h-3.8z"/></g>
</svg>
