<svg width="181.51mm" height="60.771mm" version="1.1" viewBox="0 0 181.51 60.771" xmlns="http://www.w3.org/2000/svg">
 <defs>
  <linearGradient id="n" x1="70.535" x2="70.535" y1="31.237" y2=".1078" gradientUnits="userSpaceOnUse">
   <stop stop-color="#cfa10e" offset="0"/>
   <stop stop-color="#e6b713" offset=".041357"/>
   <stop stop-color="#e5db2c" offset=".37637"/>
   <stop stop-color="#e6bb21" offset=".60627"/>
   <stop stop-color="#edd43c" offset=".80356"/>
   <stop stop-color="#e2a82a" offset="1"/>
  </linearGradient>
  <linearGradient id="l" x1="179.28" x2="179.28" y1="31.71" gradientUnits="userSpaceOnUse">
   <stop stop-color="#c0960c" offset="0"/>
   <stop stop-color="#e3c01a" offset=".20954"/>
   <stop stop-color="#daa312" offset=".3792"/>
   <stop stop-color="#dfa817" offset=".67486"/>
   <stop stop-color="#e4d41d" offset=".87374"/>
   <stop stop-color="#e1c210" offset=".9477"/>
   <stop stop-color="#e3c00e" offset="1"/>
  </linearGradient>
  <linearGradient id="p" x1=".02401" x2=".02401" y1="31.097" y2=".096007" gradientUnits="userSpaceOnUse">
   <stop stop-color="#c39a0c" offset="0"/>
   <stop stop-color="#dca514" offset=".51913"/>
   <stop stop-color="#d4a00f" offset="1"/>
  </linearGradient>
  <linearGradient id="m" x1="118.99" x2="119.01" y1="31.137" y2=".11989" gradientUnits="userSpaceOnUse">
   <stop stop-color="#bf980c" offset="0"/>
   <stop stop-color="#c09417" offset=".018967"/>
   <stop stop-color="#d5a21b" offset=".55446"/>
   <stop stop-color="#e7ae1f" offset="1"/>
  </linearGradient>
  <linearGradient id="k" x1="56.592" x2="56.592" y1="60.78" y2="31.135" gradientUnits="userSpaceOnUse">
   <stop stop-color="#e3df26" offset="0"/>
   <stop stop-color="#e2de25" offset=".30845"/>
   <stop stop-color="#e4d41d" offset=".53522"/>
   <stop stop-color="#dfb01a" offset=".72625"/>
   <stop stop-color="#b88b0c" offset="1"/>
  </linearGradient>
  <linearGradient id="i" x1="167.32" x2="167.32" y1="60.666" y2="31.818" gradientUnits="userSpaceOnUse">
   <stop stop-color="#dcb71e" offset="0"/>
   <stop stop-color="#e0be27" offset=".41297"/>
   <stop stop-color="#d7b919" offset=".81988"/>
   <stop stop-color="#d4b414" offset=".93331"/>
   <stop stop-color="#ba9a0b" offset=".96295"/>
   <stop stop-color="#ba9a0b" offset=".97629"/>
   <stop stop-color="#c9a710" offset="1"/>
  </linearGradient>
  <linearGradient id="o" x1="-.000847" x2="-.000847" y1="60.669" y2="31.12" gradientUnits="userSpaceOnUse">
   <stop stop-color="#e7bd1d" offset="0"/>
   <stop stop-color="#eac737" offset=".44779"/>
   <stop stop-color="#aa810d" offset="1"/>
  </linearGradient>
  <linearGradient id="j" x1="119.02" x2="119.02" y1="60.643" y2="31.088" gradientUnits="userSpaceOnUse">
   <stop stop-color="#dbb41b" offset="0"/>
   <stop stop-color="#ddb518" offset=".35975"/>
   <stop stop-color="#caa010" offset=".72976"/>
   <stop stop-color="#a77d0d" offset="1"/>
  </linearGradient>
 </defs>
 <g transform="translate(107.76 -118.45)">
  <g transform="matrix(.99999 0 0 .99999 -107.76 118.45)" stroke-width="1.1433">
   <path d="m48.686 0.039996c3.0334 0.071915 6.0827-0.12001 9.0921 0.28011 5.8346 0.99244 11.109 5.5065 12.453 11.349 0.98444 3.9857 0.18409 8.4198-2.4011 11.645-2.8093 3.6336-7.1231 5.5705-11.237 7.3232 4.6501 9.9964 9.3882 19.945 13.942 29.989-2.7052-0.02401-5.4024-0.01589-8.0997 0.02401-4.6421-10.028-9.3242-20.041-13.99-30.061 4.4901-1.8889 9.2041-4.1138 11.965-8.3238 2.9773-4.3539 2.7132-10.533-0.49623-14.694-2.7452-3.7376-7.0991-5.7146-11.229-7.5313z" fill="url(#n)"/>
   <path d="m168.37 1.3766c3.3295-1.8569 7.2752-1.1605 10.917-1.3766-5.2344 2.4651-10.645 6.3628-11.637 12.477-1.3606 6.667 2.7212 12.645 6.5789 17.648 3.4575 4.6341 7.4514 9.6603 7.2752 15.776-8e-3 6.5709-5.1303 12.149-11.069 14.318-2.8733 0.76032-5.8906 0.40016-8.828 0.55224 4.8582-2.5051 9.9644-5.9467 11.333-11.597 1.6568-5.8506-1.3206-11.645-4.7702-16.2-3.9137-5.4585-9.1161-11.029-8.86-18.217-0.024-5.8106 4.0578-10.845 9.06-13.381z" fill="url(#l)"/>
   <path d="m0.02401 0.096007c2.6972 0.056023 5.3864 0.056023 8.0837 0.00915 0.02401 20.185 0.032013 40.37-0.0080033 60.555-2.6972-0.056023-5.4024-0.056023-8.0997 0.009147 0.040852-14.725 0.030637-29.445 0.025211-44.167-0.0020148-5.4675-0.003369-10.935-0.0012016-16.404z" fill="url(#p)"/>
   <path d="m110.91 0.079989c2.6972 0.071915 5.4024 0.088036 8.0997 0.039902-0.0161 20.169-0.032 40.346 0.0161 60.523-2.7132-0.05602-5.4184-0.04013-8.1237 0.04013-0.024-20.201-0.04-40.402 8e-3 -60.603z" fill="url(#m)"/>
   <path d="m48.7 31.138c4.581 9.8371 9.1767 19.667 13.734 29.513 2.6972-0.0399 5.3946-0.04777 8.0998-0.02376-4.4774-9.8762-9.1326-19.661-13.708-29.489z" fill="url(#k)"/>
   <path d="m167.32 31.818c0.28583 0.38652 0.57111 0.77249 0.84647 1.1565 3.4496 4.555 6.4271 10.349 4.7703 16.2-1.3687 5.6501-6.4745 9.0917-11.333 11.597 2.9373-0.15207 5.9547 0.2079 8.828-0.55243 5.9387-2.1689 11.061-7.7467 11.069-14.318 0.15497-5.3789-2.9158-9.9149-6.0106-14.083z" fill="url(#i)"/>
   <path d="m0.029128 31.137c0.0021414 10.196-0.0016811 19.333-0.029973 29.532 2.6972-0.065 5.4026-0.06479 8.0999-0.0088 0.020205-10.194 0.028067-19.329 0.027906-29.523z" fill="url(#o)"/>
   <path d="m110.87 31.137c8.3e-4 10.201 0.0111 19.344 0.0233 29.546 2.7052-0.0802 5.4104-0.09579 8.1236-0.03979-0.0172-7.2047-0.0262-13.88-0.0299-20.775-2e-3 -2.8552-2e-3 -5.7479-2e-3 -8.7312z" fill="url(#j)"/>
  </g>
 </g>
</svg>
