<svg width="69.723mm" height="14.132mm" version="1.1" viewBox="0 0 69.723 14.132" xmlns="http://www.w3.org/2000/svg">
 <g transform="translate(51.87 -141.77)">
  <g transform="matrix(.35278 0 0 .35278 -56.106 123.79)" fill="#020103">
   <path d="m12.005 50.945h197.64v40.06h-197.64z"/>
   <path d="m73.63 73.18c2.14-3.22 4.19-6.52 6.44-9.67-0.24 3.21-0.34 6.44-0.25 9.66-2.06 0.01-4.13 0.01-6.19 0.01z"/>
  </g>
  <g transform="matrix(.35278 0 0 .35278 -51.87 141.77)" fill="#fff">
   <path d="m13.975 5.27h8.93l-9.92 28.71h-8.79z"/>
   <path d="m27.235 5.325h26.72l-2.11 6.13h-8.82l-7.99 22.5h-8.71l7.72-22.5h-9.05z"/>
   <path d="m45.105 34.005 20.63-28.785h9.78l0.8 28.785h-9.13l0.02-4.83h-9.93l-3.12 4.83zm16.52-11.775h6.19l0.25-9.665z"/>
   <path d="m88.965 5.24h8.93l-7.45 21.81h13.67l-2.37 6.94h-22.56z"/>
   <path d="m115.9 5.295h8.93l-9.92 28.71h-8.79z"/>
   <path d="m118.2 34.055 20.63-28.785h9.78l0.8 28.785h-9.13l0.02-4.83h-9.93l-3.12 4.83zm16.52-11.775h6.19l0.25-9.665z"/>
   <path d="m175 5.3h9.015v9.965h10.4v9.365h-10.4v10.03h-9.015v-10.03h-10.275v-9.365h10.275z"/>
  </g>
 </g>
</svg>
