<svg width="800" height="166.36" version="1.1" viewBox="0 0 800 166.36" xml:space="preserve" xmlns="http://www.w3.org/2000/svg"><g transform="matrix(1.3333 0 0 -1.3333 0 166.36)"><g transform="scale(.16551)" fill="#156150"><path d="m0 733.33c0 6.473 4.793 10.801 12.004 10.801h133.18c7.207 0 12.007-4.328 12.007-10.801v-589.69c0-4.329 2.395-6.485 7.192-6.485h206.39c7.199 0 12-4.316 12-10.801v-105.84c0-6.4843-4.801-10.801-12-10.801h-358.78c-7.2109 0-12.004 4.3164-12.004 10.801v712.81"/><path d="m476.39 733.33c0 6.473 4.804 10.801 12.004 10.801h133.19c7.195 0 12.004-4.328 12.004-10.801v-712.81c0-6.4843-4.809-10.801-12.004-10.801h-133.19c-7.2 0-12.004 4.3164-12.004 10.801v712.81"/><path d="m758.38 733.33c0 6.473 4.805 10.801 12.004 10.801h356.39c7.19 0 11.99-4.328 11.99-10.801v-105.84c0-6.484-4.8-10.801-11.99-10.801h-204c-4.793 0-7.199-2.168-7.199-6.488v-166.32c0-4.324 2.406-6.485 7.199-6.485h176.4c7.2 0 11.99-4.316 11.99-10.8v-106.92c0-6.477-4.79-10.801-11.99-10.801h-176.4c-4.793 0-7.199-2.16-7.199-6.477v-281.88c0-6.4843-4.804-10.801-12-10.801h-133.19c-7.199 0-12.004 4.3164-12.004 10.801v712.81"/><path d="m1236 733.33c0 6.473 4.79 10.801 11.99 10.801h356.38c7.2 0 12.01-4.328 12.01-10.801v-105.84c0-6.484-4.81-10.801-12.01-10.801h-203.98c-4.8 0-7.21-2.168-7.21-6.488v-159.84c0-4.316 2.41-6.476 7.21-6.476h176.38c7.21 0 12.01-4.324 12.01-10.801v-105.84c0-6.484-4.8-10.801-12.01-10.801h-176.38c-4.8 0-7.21-2.168-7.21-6.484v-166.32c0-4.329 2.41-6.485 7.21-6.485h203.98c7.2 0 12.01-4.316 12.01-10.801v-105.84c0-6.4843-4.81-10.801-12.01-10.801h-356.38c-7.2 0-11.99 4.3164-11.99 10.801v712.81"/><path d="m1706.3 376.93c0 189 3.61 219.23 15.6 253.8 30 79.922 100.8 123.12 210 123.12 132 0 208.79-63.719 219.59-182.52 1.19-6.484-2.4-11.883-9.61-12.961l-127.18-19.441c-7.21-1.082-12.02 2.16-13.21 9.719-3.59 52.918-27.59 77.761-68.4 77.761-28.78 0-52.79-14.043-60-34.558-5.99-17.278-7.18-25.918-7.18-214.92 0-187.92 1.19-197.65 7.18-213.85 7.21-21.601 32.41-35.637 62.41-35.637s55.19 14.036 62.4 35.637c4.78 15.125 7.19 25.926 7.19 133.93 0 4.316-2.41 6.484-7.19 6.484h-51.6c-7.21 0-11.99 4.317-11.99 10.789v95.051c0 6.473 4.78 10.801 11.99 10.801h197.99c7.2 0 11.99-4.328 11.99-10.801v-32.402c0-189-3.6-219.25-16.8-252.73-30-81.004-100.78-124.2-207.58-124.2-109.2 0-180 43.195-210 123.12-11.99 34.559-15.6 64.805-15.6 253.81"/><path d="m2518.7 265.68-51.6 254.88h-3.6l-54-254.88zm-137.99 467.65c2.38 6.473 6 10.801 13.19 10.801h141.6c7.2 0 11.99-4.328 13.2-10.801l175.2-712.81c1.19-6.4843-2.41-10.801-9.61-10.801h-133.19c-8.4 0-12.01 4.3164-13.2 10.801l-26.41 132.84h-154.78l-27.6-132.84c-1.21-6.4843-4.8-10.801-13.2-10.801h-133.21c-7.18 0-10.8 4.3164-9.59 10.801l177.6 712.81"/><path d="m2865.6 9.7188c-7.21 0-12.02 4.3164-12.02 10.801v589.68c0 4.32-2.4 6.488-7.18 6.488h-128.4c-7.21 0-12.01 4.317-12.01 10.801v105.84c0 6.473 4.8 10.801 12.01 10.801h428.38c7.2 0 11.99-4.328 11.99-10.801v-105.84c0-6.484-4.79-10.801-11.99-10.801h-128.4c-4.81 0-7.19-2.168-7.19-6.488v-589.68c0-6.4843-4.8-10.801-12.01-10.801h-133.18"/><path d="m3244.8 733.33c0 6.473 4.8 10.801 11.99 10.801h356.38c7.21 0 12.02-4.328 12.02-10.801v-105.84c0-6.484-4.81-10.801-12.02-10.801h-203.98c-4.8 0-7.21-2.168-7.21-6.488v-159.84c0-4.316 2.41-6.476 7.21-6.476h176.39c7.2 0 12.01-4.324 12.01-10.801v-105.84c0-6.484-4.81-10.801-12.01-10.801h-176.39c-4.8 0-7.21-2.168-7.21-6.484v-166.32c0-4.329 2.41-6.485 7.21-6.485h203.98c7.21 0 12.02-4.316 12.02-10.801v-105.84c0-6.4843-4.81-10.801-12.02-10.801h-356.38c-7.19 0-11.99 4.3164-11.99 10.801v712.81"/></g></g></svg>
