<svg width="600pt" height="226.9pt" version="1.1" viewBox="0 0 600 226.9" xmlns="http://www.w3.org/2000/svg">
 <g transform="matrix(4.1023 0 0 4.1023 -236.91 2.2942)" fill="#28c8b4">
  <path d="m57.75 16.175v38.25h8.2025v-24.415l18.59 24.415h7.0063v-38.25h-8.2025v23.082l-17.394-23.082z" stroke-width=".92127"/>
  <path d="m175.05 16.175v38.25h28.96v-7.405h-20.732v-8.1184h17.978v-7.4051h-17.978v-7.9161h20.45v-7.405h-20.45z" stroke-width=".92127"/>
  <path d="m134.12 16.175 15.3 38.25h7.5068l15.376-38.25h-9.1078l-9.911 26.621-9.9266-26.621z" stroke-width=".92127"/>
  <path d="m115.6 15.382c-10.869-2.12e-4 -19.679 8.8815-19.679 19.838 0.0095 9.4347 6.6095 17.558 15.784 19.425l3.8746-7.4432c-6.5563-0.01189-11.865-5.3727-11.865-11.982 5e-5 -6.6176 5.3219-11.982 11.887-11.982 6.5649 2.8e-5 11.886 5.3647 11.887 11.982-2e-3 2.0448-0.5224 4.0551-1.5127 5.8398-2.1382 4.4636-4.6911 9.1785-7.0399 13.691 9.4356-1.6352 16.335-9.8788 16.345-19.531-4e-5 -10.956-8.8106-19.838-19.679-19.838z" stroke-width="29.397"/>
  <circle cx="115.6" cy="35.22" r="5.6722" stroke-width="8.4391"/>
 </g>
 <g transform="matrix(-4.8587 0 0 4.8587 -24.925 -3.4764)" fill="#28c8b4">
  <path d="m-15.38 0.71575h-3.6892c-1.1041 0-2.183 0.19619-3.1708 0.73975-3.49 2.01-3.18 8.17 0.69 9.59 0.94866 0.31622 1.9338 0.435 2.9287 0.435h3.2413v-10.765m-2.125 1.9395v6.8903h-1.097c-1.6379 0-3.29-0.81115-3.7214-2.3476-0.19805-0.88794-0.21315-1.7748 0.12718-2.5663 0.53189-1.2628 1.9439-1.9764 3.3896-1.9764z"/>
  <path d="m-5.13 0.7155h-2.175v4.325h-4.63v-4.325h-2.235v10.765h2.235v-4.425h4.63v4.425h2.175z"/>
 </g>
</svg>
