<svg width="906.44pt" height="335.24pt" version="1.1" viewBox="0 0 906.44 335.24" xmlns="http://www.w3.org/2000/svg">
 <g transform="translate(-136.18 -272.27)" fill="#fff">
  <path d="m949.32 275.03c10.02-3.3 20.75-3.07 31.15-2.22 6.66 0.77 13.83 3.53 17.33 9.63 2.43 3.65 2.09 8.33 1.62 12.48-2.55 7.61-9.22 12.66-15.78 16.71-7.08 4.22-14.8 7.37-22.82 9.25-25.99 7.04-52.04 13.8-77.98 21-20.01 5.93-39.22 16.08-53.5 31.52-8.18 8.78-13.45 20.52-13.21 32.63-0.24 7.4 2.01 14.53 4.4 21.43 1.31 4.03 3.9 7.44 6.19 10.96 9.25 11.78 24.04 17.46 38.49 19.46 17.64 2.41 35.6 0.32 52.75-4.14 24.4-6.43 48.76-13 73.12-19.56 10.19-3.6 21.19-3.39 31.83-2.61 7.96 0.58 16.04 4.75 19.38 12.32 0.28 3.64 0.8 7.47-0.56 10.98-4.77 10.3-15.09 16.31-25.15 20.51-7.56 3.47-15.79 4.87-23.71 7.2-32.63 8.73-65.23 17.58-97.88 26.24-17.35 4.34-35.06 7.36-52.93 8.45-22.51 0.89-45.55 0.18-67.17-6.77-9.84-2.88-19.32-7.02-27.91-12.64 2.36-2.26 4.65-4.59 6.73-7.12 14.89 9.21 32.19 13.79 49.42 16.02 24.57 3.03 49.5 1.06 73.75-3.57 15.36-3.15 30.46-7.43 45.6-11.49 25.77-6.88 51.51-13.88 77.29-20.73 10.61-2.95 21.75-6.62 29.47-14.9 2.05-1.96 3.05-4.66 4.25-7.16-1.08-1.95-1.82-4.35-3.94-5.41-4.45-2.32-9.59-2.64-14.51-2.89-10.87-0.7-21.33 2.92-31.71 5.56-18.52 4.98-37.02 9.99-55.56 14.88-15.55 4.34-31.56 7.72-47.78 7.43-16.19-0.14-33.13-2.6-46.93-11.63-10.48-6.16-18.01-16.47-22.24-27.74-6-15.72-6.08-34.19 2.11-49.16 7.31-13.86 20.02-23.77 32.88-32.2 10.08-6.09 20.96-10.86 32.18-14.45 20.13-5.52 40.35-10.72 60.51-16.17 13.12-3.74 26.84-6.18 38.85-12.96 5.72-3.18 11.63-7.44 13.28-14.15-1.06-1.76-1.72-3.94-3.58-5.03-4.21-2.61-9.3-2.7-14.07-3.15-7.65-0.66-15.25 0.95-22.62 2.85-17.49 4.72-35 9.4-52.5 14.07-22.78 6.36-45.8 11.89-68.43 18.77-19.55 6.91-38.71 15.33-56.03 26.82-5.08 3.25-9.75 7.07-14.75 10.41 1.18-3.61-1.71-6.38-3.75-8.9 16.9-13.47 36.16-23.78 56.23-31.69 16.71-7.18 34.53-11.15 52.01-15.97 28.71-7.76 57.48-15.34 86.18-23.17z"/>
  <path d="m165.47 321.43c24.61-13.12 52.55-19.99 80.46-19.28 46.01-0.03 92.03 0 138.04-0.02 13.07-0.11 26.21 0.73 38.94 3.82 11.73 2.25 22.9 6.64 33.89 11.21-0.02 0.31-0.06 0.92-0.09 1.23-3.05 1.66-6.48 2.72-8.84 5.44l-0.49-0.2c-19.4-8-40.37-12.18-61.36-12.04-47-0.02-94.01-0.01-141.01-0.01-18.14-0.09-36.36 2.74-53.45 8.91-10.36 3.62-20.47 8.22-29.38 14.7-9.53 7.35-16.59 18.57-16.56 30.89-0.08 27.28-0.01 54.56-0.03 81.85-0.09 6.56 1.11 13.28 4.41 19.03 6 11.15 17.1 18.2 28.16 23.63 21 9.13 43.9 13.74 66.79 13.72 43.34 0 86.68-0.01 130.02 0 8.01-0.06 16.03 0.22 24.01-0.54 12.76-0.8 25.31-3.52 37.55-7.14 1.73 0.88 3.43 1.85 5.03 2.98 0.43 1.25 0.69 2.57 1.01 3.87 0.29 0.18 0.85 0.54 1.14 0.73-18.86 6.49-38.83 9.77-58.78 9.45-47.65-0.03-95.29 0.01-142.93-0.02-20.68-0.03-41.28-4.06-60.62-11.32-9.44-3.96-18.91-8.34-26.67-15.16-11.06-8.54-18.72-21.99-18.48-36.16-0.06-28.69-0.07-57.39 0.01-86.08-0.09-13.43 6.85-26.15 16.96-34.7 3.88-3.21 8.01-6.11 12.27-8.79z"/>
  <path d="m470.93 316.47c18.57-8.01 38.76-12.47 59.01-12.26 17.7-0.24 35.42 0.05 53.13-0.09 17.63-0.35 35.27 0.23 52.92 0 13.52 0.2 27.2-0.61 40.57 1.97 15.48 2.66 30.58 7.63 44.57 14.76 5.0885 2.6851 9.9885 5.8793 14.32 9.6929 5.7067 5.4045 9.9878 11.213 14.728 16.901 1.4888 1.789 2.8755 3.5218 4.3817 5.5862-14.91 12.13-28.45 26.9-35.44 45.07-6.17 15.52-6.1 33.1-1.03 48.91 4.78 17.19 16.3 32.09 31.1 41.89-7.74 9.1-19.74 12.63-30.95 15.26-18.37 3.54-38.23 1.66-54.82-7.35-4.67-2.82-9.54-6.33-11.42-11.68-1.01-2.6-1.57-5.35-1.5-8.13-0.05-37.32 0.01-74.64-0.04-111.96-0.14-4.73-0.07-10.23-3.84-13.7-6.17-6.11-15.18-8.29-23.57-9.1-19.01-0.24-38.02-0.03-57.04-0.1-9.05-0.23-18.47 1.48-26.11 6.57-4.13 2.65-6.65 7.48-6.41 12.38-0.09 37.96 0.02 75.91-0.06 113.86 0.16 6.22-1.93 12.63-6.4 17.06-6.09 5.27-13.76 8.22-21.39 10.48-10.92 3.42-22.49 3.52-33.8 2.83-5.49-0.85-11.05-1.77-16.27-3.72-5.75-3.22-11.68-6.14-17.3-9.59-6.44-4.38-7.68-12.78-7.53-20 0.83-17.32 0.29-34.68 0.44-52.02 0.02-19.69-0.09-39.38 0.35-59.07 0.58-15.2 10.62-28.59 23.38-36.14 5.36-2.74 10.24-6.44 16.02-8.31z"/>
  <path d="m269.3 339.38c4.2-0.6 8.44-0.74 12.68-0.66 20.02-0.04 40.05-0.01 60.08-0.02 10.25 0.02 20.99-0.59 30.56 3.76 8.04 2.6 17.14 8.13 17.62 17.53 0.15 30.99 0.06 61.99 0.04 92.98 0.3 6.1-3.13 11.98-8.23 15.19-8.5 5.73-18.9 7.83-29.01 8.01-20.69-0.01-41.39 0-62.09 0-11.9-0.03-24.4 0.78-35.5-4.36-7.01-2.75-14.37-8.63-14.26-16.83 0-31.33-0.01-62.65-0.01-93.97-0.61-7.28 4.96-13.58 11.33-16.29 5.49-2.09 10.83-4.88 16.79-5.34m6.85 8.95c-7.24 0.2-14.45 2.21-20.68 5.92-2.83 1.55-5.23 4.32-4.98 7.73 0 30.36 0.01 60.71-0.01 91.07-0.13 5.01 4.69 7.99 8.67 9.89 5.69 2.15 11.73 3.7 17.86 3.62 25.34 0 50.68 0.01 76.02-0.01 6.95 0.08 13.88-1.52 20.2-4.38 3.51-1.81 7.67-4.65 7.42-9.11 0.08-30.02 0.03-60.05 0.02-90.08 0.31-3.57-1.77-7.12-4.94-8.73-7.33-3.73-15.46-6.2-23.74-5.99-25.28 0.06-50.56-0.08-75.84 0.07z"/>
  <path d="m974.68 351.95c8.96-2.06 18.25-1.86 27.35-0.99 6.66 0.77 13.77 3.65 17.2 9.76 2 2.63 1.58 6.13 1.64 9.25 0.19 4.73-3.09 8.47-5.97 11.84-4.16 5.13-10.3 7.91-15.86 11.19-5.46 2.53-11.11 4.75-17 6.03-29.02 7.79-58.04 15.54-87.06 23.32-9.67 2.92-19.9 3.71-29.95 3.08-6.23-0.53-12.82-2.36-17.22-7.07-4.12-4.14-4.84-10.68-3.31-16.09 3.59-9.24 12.71-14.06 20.59-19.13 6.87-3.68 14.47-5.6 21.99-7.51 29.19-7.95 58.48-15.51 87.6-23.68m12.4 8.02c-10.84 0.88-21.13 4.65-31.63 7.2-23.45 6.3-46.9 12.59-70.35 18.88-11.01 2.92-21.79 8.06-29.69 16.43-2.76 2.89-2.54 8.04 0.88 10.31 5.2 3.37 11.66 3.2 17.62 3.14 11.35 0.07 22.14-3.83 33.01-6.53 21-5.66 42.02-11.27 63.02-16.9 10.66-2.72 21.56-5.54 30.93-11.52 4.05-2.84 8.39-6.04 10.19-10.86 1.37-2.89-0.84-6.25-3.44-7.55-6.43-2.77-13.67-2.8-20.54-2.6z"/>
  <path d="m1025.4 487.31c3.3-1.52 7.68-1.84 10.47 0.88 2.4653 2.8798 3.2507 6.6276 3.3923 10.371 0.1774 2.4366-0.098 4.5774-0.6403 6.7456-2.6656 10.642-6.0344 21.129-8.412 31.833l-0.38 0.66c-3.77 13.06-7.1 26.24-10.92 39.29-0.86 2.28-2.48 4.16-3.74 6.23-1.3108 2.0471-3.2188 3.4424-5.3253 4.5491-2.363 1.3643-4.9953 3.2863-8.2825 1.5876-1.8474-0.78154-2.4383-2.0889-3.1577-3.683-5.764-12.768-12.309-25.175-18.094-37.944-3.1327-5.426-6.1323-10.252-7.2317-15.005-0.85073-5.5378-0.83324-11.059 0.64914-16.04 1.3394-4.4212 4.1664-8.3897 7.6711-11.427 2.1282-1.9934 4.9104-3.0749 7.423-3.978 1.8108-0.63907 3.595-0.90597 4.8813 0.24906 1.5155 1.7597 2.9264 3.9556 3.9067 5.7909 1.4083 2.6544 2.529 5.4728 3.6904 8.2396 2.06 5.52 4.86 10.72 6.78 16.29 2.88-11.04 6.18-21.96 9.13-32.98 1.18-4.69 3.69-9.43 8.19-11.66z"/>
  <path d="m958.73 505.91c3.6-0.58 7.03 1.46 9.61 3.8 0.93 1.38-0.07 2.88-0.47 4.25-1.75 4.33-1.25 9.1-1.58 13.67-5.62 5.25-13.53 6.29-20.61 8.37 0.09 17.68-0.15 35.35-0.01 53.03 0.2 7.15-4.82 13.34-10.6 16.97-2.27 0.56-4.63 0.7-6.83 1.51-0.3-0.34-0.88-1.02-1.18-1.36-1.32-0.94-3.38-1.35-3.82-3.13-2.42-5.35-1.52-11.31-1.9-16.98-1.16-10.65-0.47-21.39-1.19-32.06-0.43-3.27-0.45-6.57-0.48-9.85-6.15 1.8-12.07 4.65-18.51 5.24-1.19 0.1-2.31-0.53-3.42-0.79-2.72-3.65-2.77-8.37-2.93-12.72 0.13-6.92 5.45-13.15 12.11-14.76 17.4-4.68 34.27-10.96 51.81-15.19z"/>
 </g>
 <g transform="translate(-136.18 -272.27)" fill="#f39826">
  <path d="m950.36 284.69c7.37-1.9 14.97-3.51 22.62-2.85 4.77 0.45 9.86 0.54 14.07 3.15 1.86 1.09 2.52 3.27 3.58 5.03-1.65 6.71-7.56 10.97-13.28 14.15-12.01 6.78-25.73 9.22-38.85 12.96-20.16 5.45-40.38 10.65-60.51 16.17-11.22 3.59-22.1 8.36-32.18 14.45-12.86 8.43-25.57 18.34-32.88 32.2-8.19 14.97-8.11 33.44-2.11 49.16 4.23 11.27 11.76 21.58 22.24 27.74 13.8 9.03 30.74 11.49 46.93 11.63 16.22 0.29 32.23-3.09 47.78-7.43 18.54-4.89 37.04-9.9 55.56-14.88 10.38-2.64 20.84-6.26 31.71-5.56 4.92 0.25 10.06 0.57 14.51 2.89 2.12 1.06 2.86 3.46 3.94 5.41-1.2 2.5-2.2 5.2-4.25 7.16-7.72 8.28-18.86 11.95-29.47 14.9-25.78 6.85-51.52 13.85-77.29 20.73-15.14 4.06-30.24 8.34-45.6 11.49-24.25 4.63-49.18 6.6-73.75 3.57-17.23-2.23-34.53-6.81-49.42-16.02 0.75-6.82-7.45-8.17-10.78-12.75-21.62-19.25-29.15-52.23-18.79-79.13 7.17-17.2 20.06-31.32 34.6-42.67-0.02-0.35-0.07-1.07-0.09-1.43 5-3.34 9.67-7.16 14.75-10.41 17.32-11.49 36.48-19.91 56.03-26.82 22.63-6.88 45.65-12.41 68.43-18.77 17.5-4.67 35.01-9.35 52.5-14.07z"/>
  <path d="m191.56 320.49c17.09-6.17 35.31-9 53.45-8.91 47 0 94.01-0.01 141.01 0.01 20.416-0.13617 40.813 3.8146 59.765 11.392 0.53286 0.21306 1.5546 0.62898 2.0851 0.84776-2.6992 2.0089-4.0505 3.597-5.7805 5.2018-1.7149 1.5919-3.4048 3.2094-4.7895 5.1182-7.34 8.45-10.7 19.73-10.72 30.8-0.41 36.7 0.08 73.4-0.29 110.1-0.49 8.21 3 17.2 10.24 21.58-12.24 3.62-24.79 6.34-37.55 7.14-7.98 0.76-16 0.48-24.01 0.54-43.34-0.01-86.68 0-130.02 0-22.89 0.02-45.79-4.59-66.79-13.72-11.06-5.43-22.16-12.48-28.16-23.63-3.3-5.75-4.5-12.47-4.41-19.03 0.02-27.29-0.05-54.57 0.03-81.85-0.03-12.32 7.03-23.54 16.56-30.89 8.91-6.48 19.02-11.08 29.38-14.7m77.74 18.89c-5.96 0.46-11.3 3.25-16.79 5.34-6.37 2.71-11.94 9.01-11.33 16.29 0 31.32 0.01 62.64 0.01 93.97-0.11 8.2 7.25 14.08 14.26 16.83 11.1 5.14 23.6 4.33 35.5 4.36 20.7 0 41.4-0.01 62.09 0 10.11-0.18 20.51-2.28 29.01-8.01 5.1-3.21 8.53-9.09 8.23-15.19 0.02-30.99 0.11-61.99-0.04-92.98-0.48-9.4-9.58-14.93-17.62-17.53-9.57-4.35-20.31-3.74-30.56-3.76-20.03 0.01-40.06-0.02-60.08 0.02-4.24-0.08-8.48 0.06-12.68 0.66z"/>
  <path d="m987.08 359.97c6.87-0.2 14.11-0.17 20.54 2.6 2.6 1.3 4.81 4.66 3.44 7.55-1.8 4.82-6.14 8.02-10.19 10.86-9.37 5.98-20.27 8.8-30.93 11.52-21 5.63-42.02 11.24-63.02 16.9-10.87 2.7-21.66 6.6-33.01 6.53-5.96 0.06-12.42 0.23-17.62-3.14-3.42-2.27-3.64-7.42-0.88-10.31 7.9-8.37 18.68-13.51 29.69-16.43 23.45-6.29 46.9-12.58 70.35-18.88 10.5-2.55 20.79-6.32 31.63-7.2z"/>
 </g>
</svg>
