<svg width="242.66mm" height="158.75mm" version="1.1" viewBox="0 0 242.66 158.75" xmlns="http://www.w3.org/2000/svg" xmlns:xlink="http://www.w3.org/1999/xlink">
 <defs>
  <radialGradient id="e" cx="24.466" cy="18.549" r="31.849" gradientTransform="matrix(1.0837 0 0 1.3705 -2.047 -9.7844)" gradientUnits="userSpaceOnUse" xlink:href="#b"/>
  <linearGradient id="b">
   <stop stop-color="#fded3f" offset="0"/>
   <stop stop-color="#977930" offset="1"/>
  </linearGradient>
  <radialGradient id="d" cx="24.466" cy="18.549" r="31.849" gradientTransform="matrix(1.2324 0 0 1.0661 -5.6858 -4.1379)" gradientUnits="userSpaceOnUse" xlink:href="#b"/>
  <linearGradient id="c" x1=".26595" x2="63.527" y1="35.74" y2="35.74" gradientUnits="userSpaceOnUse">
   <stop stop-color="#977930" offset="0"/>
   <stop stop-color="#d1ab3c" offset=".38272"/>
   <stop stop-color="#cea53b" offset=".63824"/>
   <stop stop-color="#977930" offset="1"/>
  </linearGradient>
 </defs>
 <g transform="translate(138.34 -69.458)" stroke-width="1.3333">
  <g transform="matrix(3.8095 0 0 3.8095 -138.3 69.454)">
   <path d="m0.077956 15.196c0.60532 0.27466 1.2293 0.52265 1.8546 0.75731 0.62665 0.23466 1.2586 0.45332 1.8946 0.66132 1.272 0.41332 2.5599 0.77865 3.8572 1.0973 2.5959 0.64132 5.2332 1.104 7.8891 1.3746 2.6546 0.27066 5.3279 0.35332 7.9878 0.22533l1.0517-0.07391c-1.7639-0.18675-3.516-0.49829-5.2382-0.93806-1.9946-0.50932-3.9492-1.1893-5.8279-2.0453-0.93998-0.42666-1.86-0.89998-2.7586-1.412-0.44666-0.25999-0.89198-0.52265-1.3266-0.80398-0.43732-0.27599-0.86531-0.56665-1.2893-0.86264l-1.9466-1.3533 2.3946 0.01867 1.5186 0.012 1.516-8e-3c0.50399-0.0053 1.008-0.02133 1.5133-0.032 0.50266-0.01467 1.0053-0.04 1.5093-0.06 1.0026-0.06 2.004-0.128 2.9946-0.24399 0.99331-0.10666 1.976-0.25599 2.9386-0.45599s1.9066-0.45332 2.8039-0.79331c0.89864-0.33999 1.7466-0.76531 2.5413-1.2813 0.79331-0.51999 1.528-1.1373 2.2613-1.804 0.73332-0.66798 1.464-1.384 2.2319-2.0826 0.77465-0.69732 1.5733-1.3706 2.4253-2.0119l0.30666-0.22666 0.33332-0.23333c0.22266-0.16 0.44666-0.29999 0.67065-0.44799 0.45466-0.28666 0.91731-0.56132 1.4-0.81198 0.96531-0.50132 2.0013-0.91064 3.1079-1.1493 1.104-0.23599 2.2866-0.29333 3.4279-0.063998 0.56932 0.10933 1.1253 0.28266 1.6493 0.50399 0.26133 0.10933 0.51732 0.23066 0.76398 0.35999 0.23199 0.12266 0.49865 0.27599 0.72932 0.42399 0.94531 0.60798 1.816 1.388 2.4559 2.3639 0.64132 0.96931 1.028 2.1199 1.1093 3.2613 0.03029 0.39426 0.02931 0.78551 0.0019 1.1715l0.2048-0.16217c0.32666-0.23866 0.66132-0.46799 1.0053-0.68398s0.69465-0.42266 1.0573-0.61065c0.72398-0.37332 1.4853-0.69065 2.2813-0.91064 0.79465-0.21866 1.628-0.34399 2.4626-0.30266 0.41466 0.016 0.83598 0.081331 1.2306 0.17066 0.18666 0.035999 0.39599 0.094664 0.59598 0.148l0.29599 0.094664c0.09733 0.031999 0.19466 0.074665 0.29199 0.11066 0.38532 0.15866 0.76532 0.36399 1.0933 0.64265 0.32933 0.27866 0.59732 0.61998 0.80798 0.96531 0.216 0.34399 0.39066 0.68532 0.60665 0.98264 0.21199 0.29999 0.47599 0.55065 0.78131 0.75598 0.30799 0.2 0.65732 0.34932 1.02 0.46532 0.36399 0.11333 0.74265 0.192 1.124 0.25733l-0.024 0.19866c-0.39199-0.036-0.78531-0.08533-1.176-0.17333-0.38936-0.092-0.77735-0.22-1.1427-0.41732-0.36132-0.2-0.69198-0.47732-0.95331-0.79865-0.26533-0.31733-0.47066-0.66132-0.69198-0.96531-0.21733-0.30666-0.45866-0.56799-0.74265-0.77731-0.28399-0.20799-0.60665-0.36266-0.95064-0.47999-0.086665-0.026666-0.172-0.057332-0.26133-0.079998l-0.26666-0.069332c-0.18-0.035999-0.34799-0.074664-0.54799-0.10266-0.37066-0.061332-0.72932-0.077331-1.096-0.062665-0.36399 0.013333-0.72665 0.063998-1.0853 0.136-0.35866 0.074665-0.71198 0.17333-1.06 0.29866-0.69465 0.24666-1.3626 0.58132-1.9986 0.97198-0.63732 0.38932-1.2493 0.82665-1.828 1.3066-0.28933 0.23866-0.57198 0.48799-0.84398 0.74531-0.13733 0.128-0.27066 0.25866-0.40132 0.39066l-0.19333 0.2c-0.06133 0.064-0.12933 0.13733-0.17733 0.19333l-1.9946 2.2906 0.72932-3.0013c0.22399-0.91998 0.32932-1.8506 0.216-2.7373-0.10533-0.88664-0.43066-1.7133-0.94531-2.4199-0.50799-0.71065-1.1973-1.308-1.9773-1.7733-0.20133-0.12-0.37866-0.21599-0.60132-0.32533-0.20666-0.099998-0.41466-0.19066-0.62398-0.27066-0.41999-0.16133-0.84664-0.27866-1.2786-0.34799-0.86531-0.14-1.756-0.091998-2.6373 0.112-0.88398 0.20399-1.7493 0.56932-2.5906 1.0026-0.41999 0.21999-0.83198 0.46666-1.2386 0.72398-0.2 0.13466-0.40666 0.26533-0.59732 0.40266l-0.29199 0.20399-0.30799 0.22666c-0.78131 0.57599-1.548 1.2066-2.2919 1.8653-0.74931 0.65865-1.4906 1.3506-2.2759 2.0386-0.78798 0.68665-1.6373 1.3573-2.5653 1.9293-0.92931 0.56798-1.9253 1.0306-2.9426 1.3813-1.0186 0.35199-2.0533 0.60265-3.0879 0.79198-1.036 0.18933-2.0719 0.32132-3.1066 0.40799-1.0333 0.09733-2.0653 0.14133-3.0959 0.18-0.51465 0.0093-1.0293 0.02533-1.544 0.02933-0.51332 0-1.028 0.0067-1.54 0.0013l-0.55212 4.73e-4c0.1312 0.08129 0.26287 0.16187 0.39479 0.24219 0.85065 0.50799 1.7226 0.97864 2.6159 1.408 1.7866 0.85864 3.6559 1.552 5.5719 2.0826 1.9173 0.53065 3.8812 0.89864 5.8639 1.1053 0.99198 0.10266 1.9866 0.16533 2.9826 0.18266 0.49865 0.0093 0.99598 0.0067 1.4933-0.0093 0.24799-8e-3 0.49599-0.01867 0.74265-0.03333 0.24399-0.01467 0.49865-0.03333 0.72532-0.05867l0.16 0.95864c-0.66665 0.12133-1.3333 0.23599-2.004 0.33066-0.66932 0.1-1.3426 0.17866-2.0146 0.25199-0.67465 0.06667-1.348 0.128-2.0226 0.168-0.67598 0.044-1.3506 0.072-2.0266 0.08933-2.7039 0.06667-5.4079-0.08-8.0838-0.41466-1.3386-0.16666-2.6706-0.38532-3.9919-0.64532-1.3226-0.26399-2.6346-0.56931-3.9332-0.9253s-2.5853-0.75865-3.8532-1.2093c-0.63332-0.22533-1.2626-0.46266-1.8866-0.71598-0.62398-0.25333-1.2413-0.51732-1.8493-0.81331z" fill="url(#d)"/>
   <path d="m21.344 21.857s0.16933 0.06 0.48799 0.17333c0.31866 0.11066 0.78665 0.26799 1.38 0.46266 0.59332 0.19466 1.316 0.42266 2.1453 0.66665 0.83065 0.24133 1.7666 0.50132 2.7933 0.74798 1.024 0.24933 2.1386 0.48399 3.3186 0.67865 1.18 0.19333 2.4266 0.33999 3.7106 0.39999 0.64265 0.028 1.2933 0.03067 1.9493 0.01067 0.65465-0.02533 1.312-0.08533 1.9693-0.17333 0.65465-0.092 1.3066-0.22533 1.9493-0.39332l0.47866-0.13866c0.15733-0.052 0.31732-0.1 0.47332-0.156 0.31332-0.10933 0.62532-0.224 0.92931-0.35732l0.22933-0.09866 0.228-0.112 0.48132-0.23599c0.164-0.07866 0.31066-0.15733 0.46266-0.23599l0.45199-0.23466c0.60265-0.33199 1.1986-0.67332 1.7626-1.048 1.1413-0.73065 2.1746-1.5666 3.1133-2.4653 0.93864-0.89731 1.7893-1.8613 2.6506-2.7626 0.86131-0.89864 1.744-1.7173 2.6266-2.3719 0.87864-0.66132 1.7413-1.1786 2.5213-1.5893 0.77998-0.41732 1.4866-0.71598 2.0666-0.95998 0.29466-0.11333 0.55599-0.21333 0.78531-0.30133 0.22799-0.08666 0.42532-0.15066 0.58399-0.20666 0.31732-0.108 0.48799-0.16533 0.48799-0.16533s-0.15866 0.084-0.45599 0.24133c-0.148 0.08-0.33332 0.17066-0.54532 0.28799-0.212 0.11866-0.45466 0.25466-0.72798 0.40666-0.53599 0.31866-1.1893 0.69865-1.8973 1.1893-0.70932 0.48666-1.4786 1.0746-2.2519 1.78-0.19466 0.17466-0.38266 0.36532-0.57865 0.55332-0.188 0.19733-0.38532 0.39066-0.57465 0.60132-0.38399 0.41199-0.76131 0.85865-1.1453 1.3293-0.38532 0.46799-0.77465 0.96131-1.184 1.468s-0.84664 1.0186-1.3133 1.5266c-0.232 0.25599-0.47866 0.50399-0.72532 0.75598-0.25466 0.24399-0.51199 0.49065-0.78265 0.72532-0.53599 0.47466-1.1026 0.93198-1.6973 1.3546-0.59198 0.42932-1.212 0.81865-1.8426 1.2l-0.48399 0.27733c-0.16133 0.092-0.32532 0.188-0.48132 0.26799l-0.47332 0.24933-0.25066 0.13066-0.25599 0.128c-0.34266 0.172-0.69332 0.32533-1.048 0.46799-0.17733 0.07066-0.35732 0.132-0.53599 0.19733l-0.54265 0.176c-0.72665 0.22133-1.4666 0.37866-2.2026 0.48932-0.73598 0.11333-1.4706 0.168-2.1933 0.188-0.72398 0.02-1.436-0.0067-2.1306-0.06133-0.69598-0.052-1.3733-0.14266-2.0306-0.25199-0.65732-0.10666-1.2933-0.24666-1.9066-0.39466-1.2266-0.29999-2.3573-0.66932-3.3799-1.0533-1.0213-0.38932-1.9346-0.79465-2.7266-1.1853-0.79465-0.38932-1.4666-0.76398-2.0106-1.0866-0.54532-0.32266-0.95998-0.59732-1.2386-0.78931-0.14-0.096-0.24533-0.17066-0.31599-0.22399-0.07067-0.052-0.10666-0.07866-0.10666-0.07866" fill="url(#e)"/>
  </g>
  <g transform="matrix(3.8095 0 0 3.8095 -138.3 69.454)" fill="url(#c)">
   <path d="m0.31795 34.812c0-0.78398-0.026666-1.4106-0.051999-1.9986h0.58799l0.051999 1.188h0.026666c0.44399-0.83598 1.2146-1.332 2.3119-1.332 1.608 0 2.6919 1.332 2.6919 3.1746 0 2.2479-1.332 3.3852-2.8479 3.3852-0.90131 0-1.6986-0.40532-2.1306-1.164h-0.025333v3.6079h-0.61465zm0.61465 1.804c0 0.16933 0.025333 0.33866 0.051999 0.49599 0.26133 0.96664 1.0973 1.5946 2.0639 1.5946 1.4373 0 2.2613-1.164 2.2613-2.8359 0-1.4106-0.78398-2.6919-2.2079-2.6919-0.91464 0-1.804 0.63998-2.0786 1.672-0.038666 0.17066-0.090664 0.36666-0.090664 0.53599z"/>
   <path d="m11.424 37.595c0 0.49599 0.02667 1.0066 0.092 1.4893h-0.56265l-0.09066-0.90131h-0.04c-0.29999 0.48399-0.99331 1.0453-1.9986 1.0453-1.2546 0-1.8426-0.88798-1.8426-1.7253 0-1.4493 1.28-2.3253 3.8279-2.2999v-0.156c0-0.62798-0.11733-1.8693-1.6066-1.856-0.54932 0-1.124 0.144-1.568 0.47066l-0.196-0.45732c0.56132-0.37866 1.2666-0.53599 1.8293-0.53599 1.816 0 2.1559 1.3586 2.1559 2.4826zm-0.61465-1.8693c-1.372-0.03867-3.1746 0.17066-3.1746 1.6733 0 0.90131 0.60132 1.3066 1.2546 1.3066 1.0453 0 1.6333-0.63998 1.8546-1.2546 0.04-0.13066 0.06533-0.26133 0.06533-0.37866z"/>
   <path d="m13.464 34.694c0-0.62798-0.02667-1.2813-0.052-1.8813h0.57465l0.02667 1.2666h0.02533c0.27466-0.78398 0.92798-1.4106 1.7906-1.4106 0.07867 0 0.16933 0.01333 0.24799 0.02533v0.60132c-0.09066-0.02533-0.18266-0.02533-0.29999-0.02533-0.86264 0-1.4773 0.74398-1.6466 1.7506-0.02667 0.18266-0.052 0.39199-0.052 0.60132v3.4626h-0.61465z"/>
   <path d="m22.531 35.883c0 2.3519-1.6066 3.3452-3.0053 3.3452-1.62 0-2.8746-1.268-2.8746-3.2279 0-2.1559 1.4106-3.3319 2.9653-3.3319 1.7386 0 2.9146 1.2933 2.9146 3.2146m-5.2532 0.07866c0 1.568 1.0066 2.7439 2.2866 2.7439 1.3066 0 2.3399-1.176 2.3399-2.7839 0-1.1493-0.65332-2.7439-2.2999-2.7439-1.5946 0-2.3266 1.4373-2.3266 2.7839"/>
   <path d="m24.117 39.084h0.61465v-9.2771h-0.61465z"/>
   <path d="m26.984 35.883c0 2.012 1.0973 2.7959 2.3906 2.7959 0.91598 0 1.3853-0.18266 1.7386-0.35199l0.15733 0.49599c-0.23599 0.13066-0.87598 0.40532-1.9733 0.40532-1.804 0-2.9279-1.32-2.9279-3.1626 0-2.0906 1.2026-3.3972 2.8226-3.3972 2.0519 0 2.4439 1.9346 2.4439 2.8359 0 0.16933 0 0.27466-0.02667 0.37866zm3.9986-0.49599c0.01333-0.87598-0.35332-2.2093-1.8693-2.2093-1.384 0-1.9853 1.2413-2.0906 2.2093z"/>
   <path d="m38.224 29.807v7.8145c0 0.47066 0.02667 1.0186 0.052 1.4626h-0.56132l-0.04-1.188h-0.02533c-0.32666 0.69198-1.072 1.332-2.2346 1.332-1.5426 0-2.7053-1.2933-2.7053-3.1613-0.01333-2.0919 1.2813-3.3986 2.8226-3.3986 1.0853 0 1.764 0.56265 2.0519 1.0986h0.02533v-3.9599zm-0.61465 5.4879c0-0.16933-0.02533-0.40399-0.06533-0.57465-0.22133-0.83598-0.95331-1.5413-1.9733-1.5413-1.372 0-2.2333 1.188-2.2333 2.8226 0 1.4106 0.70532 2.7039 2.1946 2.7039 0.90131 0 1.7386-0.58798 2.012-1.6333 0.04-0.16933 0.06533-0.32666 0.06533-0.52265z"/>
   <path d="m41.144 31.022c0 0.28799-0.196 0.53599-0.52265 0.53599-0.28799 0-0.48399-0.24799-0.48399-0.53599s0.22266-0.54932 0.51065-0.54932c0.29999 0 0.49599 0.24933 0.49599 0.54932m-0.81065 1.7906h0.61465v6.2718h-0.61465z"/>
   <path d="m44.277 32.695 0.86264 2.9666c0.156 0.54932 0.26133 1.0453 0.36532 1.5546h0.04c0.104-0.52265 0.208-1.0053 0.35199-1.5546l0.82398-2.9666h2.0906l-2.3786 6.3905h-1.9866l-2.3253-6.3905z"/>
   <path d="m51.783 30.918c0 0.54932-0.40532 0.99331-1.072 0.99331-0.62665 0-1.032-0.44399-1.032-0.99331 0-0.56132 0.41866-0.99331 1.0586-0.99331s1.032 0.43199 1.0453 0.99331m-2.0519 1.7773h1.9866v6.3905h-1.9866z"/>
   <path d="m55.53 30.97v1.7253h1.424v1.4626h-1.424v2.3133c0 0.77065 0.196 1.124 0.78398 1.124 0.27466 0 0.40532-0.01333 0.58799-0.052l0.01333 1.5026c-0.24799 0.09066-0.73198 0.16933-1.2813 0.16933-0.63998 0-1.176-0.22133-1.5026-0.54799-0.36532-0.37999-0.54799-0.99331-0.54799-1.896v-2.6133h-0.84931v-1.4626h0.84931v-1.1893z"/>
   <path d="m63.423 37.543c0 0.60132 0.02667 1.1893 0.104 1.5413h-1.7893l-0.11733-0.63998h-0.04c-0.41732 0.50932-1.072 0.78398-1.8293 0.78398-1.2933 0-2.0653-0.93998-2.0653-1.96 0-1.66 1.4906-2.4426 3.7506-2.4426v-0.07867c0-0.35332-0.18266-0.83731-1.1626-0.83731-0.65332 0-1.3453 0.22266-1.764 0.48399l-0.36532-1.28c0.44399-0.24933 1.3186-0.57598 2.4826-0.57598 2.1293 0 2.7959 1.2546 2.7959 2.7706zm-1.9213-1.476c-1.0453 0-1.8546 0.24799-1.8546 1.0053 0 0.50932 0.33866 0.75865 0.78398 0.75865 0.48265 0 0.90131-0.32666 1.032-0.73198 0.02533-0.10533 0.03867-0.22266 0.03867-0.33999z"/>
  </g>
 </g>
</svg>
