<svg width="211.67mm" height="140.09mm" version="1.1" viewBox="0 0 211.67 140.09" xmlns="http://www.w3.org/2000/svg">
 <defs>
  <linearGradient id="a" x1="3.4839" x2="3.4839" y1="141.11" y2="21.884" gradientUnits="userSpaceOnUse">
   <stop stop-color="#d7490b" offset="0"/>
   <stop stop-color="#f9c205" offset=".24495"/>
   <stop stop-color="#bed31e" offset=".52775"/>
   <stop stop-color="#067b34" offset="1"/>
  </linearGradient>
 </defs>
 <g transform="translate(36.721 -21.857)" fill="url(#a)" stroke-width="1.4206">
  <path d="m27.717 21.857c-13.886 11.734-33.518 21.284-58.897 30.126l-5.5409 20.957 40.243-4.1702-2.5859 9.8415h29.644l15.094-56.754zm-35.365 89.428-8.038 30.587h29.655l8.0325-30.587z"/>
  <path d="m60.083 21.857-14.877 56.755h118.24c9e-3 -0.0077 0.0189-0.01452 0.0277-0.02219 7.653-6.6583 11.476-15.09 11.476-25.296 0-7.1494-1.9796-13.233-5.9432-18.254-3.894-5.0215-9.05-8.4608-15.471-10.316-6.3532-1.9113-15.268-2.8662-26.744-2.8662zm-23.44 89.428-8.0186 30.587h30.945l8.0103-30.587zm78.025 0c7.4393 13.761 12.501 24.004 15.091 30.587h33.201c-6.0098-12.159-11.617-22.33-16.836-30.587z"/>
 </g>
 <g transform="matrix(8.5515 0 0 8.5515 -1047 -1503.3)" fill="#fff">
  <path d="m123.59 185.73v-2.7817h0.90131q0.51233 0 0.66792 0.0417 0.23909 0.0626 0.40037 0.27324 0.16129 0.20873 0.16129 0.54079 0 0.25616-0.093 0.43073t-0.23718 0.27514q-0.14232 0.0987-0.29032 0.13092-0.20114 0.0399-0.58253 0.0399h-0.36622v1.0493zm0.56166-2.3111v0.78935h0.3074q0.33206 0 0.44401-0.0436t0.17457-0.13662q0.0645-0.093 0.0645-0.21631 0-0.1518-0.0892-0.25047-0.0892-0.0987-0.2258-0.12334-0.10057-0.019-0.40417-0.019z"/>
  <path d="m126.19 185.73v-2.7817h1.1821q0.44591 0 0.64705 0.0759 0.20303 0.074 0.32447 0.26565 0.12144 0.19164 0.12144 0.43832 0 0.31308-0.18406 0.51801-0.18406 0.20304-0.55027 0.25617 0.18216 0.10626 0.2998 0.23339 0.11954 0.12713 0.32068 0.4516l0.33965 0.54268h-0.67171l-0.40607-0.6053q-0.21631-0.32447-0.29601-0.40796-0.0797-0.0854-0.16887-0.11574-0.0892-0.0323-0.28273-0.0323h-0.11385v1.1613zm0.56166-1.6053h0.41555q0.40417 0 0.50474-0.0342 0.10056-0.0342 0.15749-0.11764 0.0569-0.0835 0.0569-0.20873 0-0.14041-0.0759-0.2258-0.074-0.0873-0.21062-0.11006-0.0683-9e-3 -0.40986-9e-3h-0.43832z"/>
  <path d="m128.98 185.73v-2.7817h0.56166v2.7817z"/>
  <path d="m130.06 185.73v-2.7817h0.84059l0.50474 1.8975 0.49904-1.8975h0.84248v2.7817h-0.52181v-2.1897l-0.55217 2.1897h-0.54078l-0.55028-2.1897v2.1897z"/>
  <path d="m135.82 185.73h-0.61099l-0.24288-0.63186h-1.1119l-0.2296 0.63186h-0.59581l1.0835-2.7817h0.59391zm-1.0341-1.1005-0.3833-1.0322-0.3757 1.0322z"/>
  <path d="m136.13 185.73v-2.7817h1.1821q0.44591 0 0.64705 0.0759 0.20303 0.074 0.32447 0.26565 0.12144 0.19164 0.12144 0.43832 0 0.31308-0.18406 0.51801-0.18406 0.20304-0.55027 0.25617 0.18216 0.10626 0.2998 0.23339 0.11954 0.12713 0.32068 0.4516l0.33965 0.54268h-0.67171l-0.40607-0.6053q-0.21631-0.32447-0.29601-0.40796-0.0797-0.0854-0.16887-0.11574-0.0892-0.0323-0.28273-0.0323h-0.11385v1.1613zm0.56166-1.6053h0.41555q0.40417 0 0.50473-0.0342 0.10057-0.0342 0.1575-0.11764 0.0569-0.0835 0.0569-0.20873 0-0.14041-0.0759-0.2258-0.074-0.0873-0.21062-0.11006-0.0683-9e-3 -0.40986-9e-3h-0.43832z"/>
  <path d="m138.94 185.73v-2.7817h2.0626v0.47058h-1.5009v0.61668h1.3966v0.46868h-1.3966v0.7571h1.554v0.46868z"/>
  <path d="m142.16 185.73v-2.3111h-0.82541v-0.47058h2.2106v0.47058h-0.82351v2.3111z"/>
  <path d="m143.9 185.73v-2.7817h2.0626v0.47058h-1.5009v0.61668h1.3966v0.46868h-1.3966v0.7571h1.554v0.46868z"/>
 </g>
 <g transform="matrix(5.3692 0 0 5.3692 -664.54 -851.85)" fill="#fff" stroke-width=".087626">
  <path d="m128.27 182.37h0.72199v1.7611h1.1268v0.57536h-1.8488z"/>
  <path d="m131.45 183.54q0-0.57217 0.31876-0.89092 0.31875-0.31876 0.88773-0.31876 0.58333 0 0.8989 0.31397 0.31557 0.31239 0.31557 0.87658 0 0.40961-0.13866 0.67258-0.13707 0.26138-0.39845 0.40801-0.25979 0.14503-0.64867 0.14503-0.39526 0-0.65504-0.12591-0.2582-0.1259-0.41917-0.39844t-0.16097-0.68214zm0.72198 3e-3q0 0.35382 0.13069 0.50841 0.13229 0.1546 0.3586 0.1546 0.2327 0 0.3602-0.15141t0.1275-0.54348q0-0.32991-0.13388-0.48132-0.13228-0.153-0.36019-0.153-0.21835 0-0.35063 0.15459-0.13229 0.1546-0.13229 0.51161z"/>
  <path d="m135.34 182.37h0.94989l0.36657 1.4217 0.36498-1.4217h0.9467v2.3365h-0.5897v-1.7818l-0.45741 1.7818h-0.53392l-0.45582-1.7818v1.7818h-0.59129z"/>
  <path d="m139.52 182.37h1.3515q0.33788 0 0.51798 0.16735 0.18169 0.16735 0.18169 0.41438 0 0.2072-0.12909 0.35542-0.0861 0.0988-0.25182 0.15619 0.25182 0.0606 0.36976 0.20878 0.11953 0.14663 0.11953 0.36976 0 0.18169-0.0845 0.32673-0.0845 0.14503-0.2311 0.2295-0.0908 0.0526-0.27413 0.0765-0.24385 0.0319-0.32354 0.0319h-1.2463zm0.72836 0.91643h0.31398q0.16894 0 0.23428-0.0574 0.0669-0.059 0.0669-0.16894 0-0.102-0.0669-0.15938-0.0653-0.0574-0.2295-0.0574h-0.31876zm0 0.91802h0.36817q0.18647 0 0.26297-0.0653 0.0765-0.0669 0.0765-0.1785 0-0.1036-0.0765-0.16575-0.0749-0.0638-0.26457-0.0638h-0.36657z"/>
  <path d="m144.58 184.32h-0.82239l-0.11316 0.3857h-0.73792l0.87818-2.3365h0.78732l0.87818 2.3365h-0.75545zm-0.15141-0.50523-0.25819-0.83992-0.2566 0.83992z"/>
  <path d="m146.78 184.71v-2.3365h1.2033q0.33469 0 0.5116 0.0574t0.28529 0.21357q0.10838 0.15459 0.10838 0.37772 0 0.19444-0.0829 0.33629-0.0829 0.14025-0.22791 0.22791-0.0924 0.0558-0.25341 0.0924 0.12909 0.043 0.18806 0.0861 0.0399 0.0287 0.11476 0.12272 0.0765 0.094 0.102 0.14503l0.34904 0.67736h-0.81602l-0.38569-0.71402q-0.0733-0.13865-0.13069-0.18009-0.0781-0.0542-0.17691-0.0542h-0.0638v0.9483zm0.72517-1.3898h0.30442q0.0494 0 0.19125-0.0319 0.0717-0.0143 0.11635-0.0733 0.0462-0.059 0.0462-0.13547 0-0.11316-0.0717-0.17372-0.0717-0.0606-0.26935-0.0606h-0.31717z"/>
  <path d="m150.41 182.37h1.0726q0.31716 0 0.5116 0.0861 0.19604 0.0861 0.32354 0.24703 0.1275 0.16098 0.18488 0.37454 0.0574 0.21357 0.0574 0.45264 0 0.37454-0.0861 0.58173-0.0845 0.2056-0.23588 0.34585-0.15141 0.13866-0.32513 0.18488-0.23747 0.0637-0.43032 0.0637h-1.0726zm0.72199 0.52914v1.2766h0.17691q0.22631 0 0.32194-0.0494 0.0956-0.051 0.14982-0.17531 0.0542-0.12591 0.0542-0.40642 0-0.37135-0.12113-0.50842-0.12113-0.13706-0.40164-0.13706z"/>
  <path d="m154.06 182.37h0.72358v2.3365h-0.72358z"/>
  <path d="m157.82 184.32h-0.82239l-0.11316 0.3857h-0.73792l0.87818-2.3365h0.78732l0.87818 2.3365h-0.75545zm-0.15141-0.50523-0.25819-0.83992-0.2566 0.83992z"/>
 </g>
 <text x="-308.82452" y="-115.50229" font-size="64.43px" stroke-width="1.4206">
  <tspan x="-664.53644" y="-851.84979" stroke-width="1.4206">
   <tspan dx="0" dy="0" stroke-width="1.4206"/>
  </tspan>
 </text>
</svg>
