<svg width="800" height="492.45" enable-background="new 0 0 2123.2 1307" version="1.1" viewBox="0 0 800 492.45" xml:space="preserve" xmlns="http://www.w3.org/2000/svg"><defs><radialGradient id="radialGradient910" cx="438.64" cy="-171.17" r="530.6" gradientTransform="matrix(-.30448 .87073 -1.2681 -.44342 310.61 -321.72)" gradientUnits="userSpaceOnUse"><stop stop-color="#fec000" offset="0"/><stop stop-color="#fe9000" offset=".39009"/><stop stop-color="#fec000" stop-opacity="0" offset="1"/></radialGradient><radialGradient id="radialGradient928" cx="368.24" cy="-149.13" r="530.6" gradientTransform="matrix(-.58285 1.2978 -1.2255 -.55035 419.92 -488.61)" gradientUnits="userSpaceOnUse"><stop stop-color="#fec000" offset="0"/><stop stop-color="#fec000" offset=".13102"/><stop stop-color="#fe9000" offset=".47422"/><stop stop-color="#fec000" stop-opacity="0" offset="1"/></radialGradient><radialGradient id="radialGradient920" cx="150.61" cy="841.79" r="530.6" gradientTransform="matrix(1.224 -.20844 .15677 .92059 968.06 147.29)" gradientUnits="userSpaceOnUse"><stop stop-color="#1b469d" offset="0"/><stop stop-color="#1b469d" offset=".055508"/><stop stop-color="#6a4b84" offset=".34482"/><stop stop-color="#924f78" offset=".49125"/><stop stop-color="#fd5800" stop-opacity="0" offset="1"/></radialGradient>
</defs>
<g transform="matrix(.37681 0 0 .37681 -.024569 .0022643)"><g transform="matrix(2.0007 0 0 2.0007 -188.34 -96.559)" fill="#fd5800"><path d="m423.54 51.61 675.28 218.63c36.81 12.666 64.364 36.741 54.55 73.28l-78.65 302.25c-8.946 34.213-30.732 55.73-72.78 55.73h-843.97c-50.539 0-76.601-52.176-57.56-91.07l238.69-522.33c14.747-31.533 51.542-47.185 84.44-36.49z" fill="#fd5800"/></g><g transform="matrix(2.0007 0 0 2.0007 -188.34 -96.559)" fill="url(#radialGradient910)"><path d="m423.54 51.61 675.28 218.63c36.81 12.666 64.364 36.741 54.55 73.28l-78.65 302.25c-8.946 34.213-30.732 55.73-72.78 55.73h-843.97c-50.539 0-76.601-52.176-57.56-91.07l238.69-522.33c14.747-31.533 51.542-47.185 84.44-36.49z" fill="url(#radialGradient928)"/></g><g transform="matrix(2.0007 0 0 2.0007 -2439.1 -562.08)" fill="#fd5800"><path d="m1548.5 284.3 675.28 218.63c36.81 12.666 64.364 36.741 54.55 73.28l-78.65 302.25c-8.946 34.213-30.732 55.73-72.78 55.73h-843.97c-50.539 0-76.601-52.176-57.56-91.07l238.69-522.33c14.747-31.533 51.542-47.185 84.44-36.49z" fill="url(#radialGradient920)"/></g></g><g transform="matrix(.37681 0 0 .37681 -.02455 .0022343)" fill="#fff">
		<path d="m492.2 533h151.1c14.4 0.2 28.6 2.7 42.2 7.4 20.9 7.5 39.4 23.4 46.9 44.7 6.7 19.3 8.3 40 4.9 60.1-4.2 20.8-15.7 40.8-34.5 51.6 4.5 9.6 44.2 80.5 44.2 80.5h-79.6l-32.8-63.2h-61.4v63.2h-81zm81.1 66.6c-0.5 17.8 0 35.9 0 53.8 14.6 0.8 29.3 0 43.9 0.4 9 0 18.5 0.7 26.9-3.2 6.2-2.3 10.9-7.5 12.7-13.8 2.5-9.5 2.6-21.2-4.8-28.5-6.3-5.9-14.7-9.1-23.3-8.8-18.6-0.2-37.1-0.2-55.4 0.1z"/>
		<path d="m830.2 533.9h127.7l81.2 223.3h-81.2l-10.9-32h-105.2l-10.7 32h-82.3zm31.8 131.8h65.1l-25.6-76h-14.6z"/>
		<path d="m1047.2 533.9s219.6-0.7 226.8 0c20.4 19.8 29.1 48.7 30.6 76.4 1.4 30.8-4.1 63.4-23 88.5-13.6 16.6-32 28.6-52.6 34.4-24.7 8-51 8-76.7 8.2h-105.1zm79.8 143.2h42.5c29.1 0 52.6-23.6 52.6-52.6v-5.9c0-29.1-23.6-52.6-52.6-52.6h-42.5z"/>
		<path d="m1318.5 533.2h79.5v205.7h-79.5z"/>
		<path d="m1685.7 577.5c-2.7-15.5-8.4-30.3-16.8-43.5-0.2-0.2-0.3-0.5-0.4-0.7h-236.7c-0.5 0.9-0.9 1.7-1.1 2.2-18.2 29.6-22.1 66-16.6 99.7 5.1 28.1 20.1 53.5 42.3 71.5 24.1 19.8 55.6 28.3 86.3 29.7 14.2 1.1 28.5-1.3 42.7-3.2 26.7-5.8 53-17.7 71.2-38.7 18.5-19.3 28.4-45.5 31.2-71.7 2-15.2 1.3-30.5-2.1-45.3zm-82.2 57.2c-5.9 15-19.9 25.7-35.2 30.2-12.4 4.2-25.7 2.5-38.2-0.5-9-3.4-17-8.7-23.6-15.7-7-8.2-11.7-18-13.8-28.5-1.1-12.9-2.1-26.8 3.3-39.2 7.1-19.1 24.3-32.7 44.6-35.1 15.1-2.4 30.5 0.5 43.6 8.2 6.6 5.5 13.6 11 17.4 18.9 9.8 19.2 10.5 41.9 1.9 61.7z"/>
		<path d="m1101.1 782.4h79.5l0.3 180h116.8v47h-196.6z"/>
		<path d="m589.9 868.4v-68.2l257.2 0.2v67.6l-88.2 0.2v141.4h-81.5v-141.3z"/>
		<path d="m1313.7 771.4h79.5v237.8h-79.5z"/>
		<path d="m1485.8 1009.1 11.5-32.5h105.7l11.5 32.5h83.2l-90.6-244.6h-113.5l-90.6 244.6zm57.3-169.3h14.4l25.7 77.4h-65.3z"/>
		<path d="m491.9 813.6h81.6v196.1h-81.6z"/>
		<path d="m890.4 1009.7v-0.1c0.4-1.4 0.9-2.7 1.3-4.1l2.5-7.6h104l4 11.9h79.2l-0.1-0.4h0.8c-15.2-40.3-29.8-80.9-44.9-121.3l-3.5-9.6c-5.9-16.6-14.4-39.9-20.9-57.4l-4.4-12.2h-0.1c-2.8-7.7-4.6-12.6-4.6-12.6h-113.3s-49 131.8-76.2 205.3l-3.3 8.1zm40.8-122.3c2.7-7.9 5.3-15.9 8-23.8h14.1l25 74.2c-21.2 0.3-42.4 0-63.6 0z"/>
	</g>
</svg>
