<svg width="800" height="492.41" space="preserve" version="1.1" viewBox="0 0 800 492.41" xmlns="http://www.w3.org/2000/svg">
 <defs>
  <linearGradient id="SVGID_1_" x1="360.3" x2="1565.3" y1="380.35" y2="867.21" gradientTransform="matrix(.37476 0 0 .37476 -.017962 .011642)" gradientUnits="userSpaceOnUse">
   <stop stop-color="#FFD208" offset=".1984"/>
   <stop stop-color="#EA5B1C" offset=".8"/>
  </linearGradient>
 </defs>
 <path d="m247.74 2.5225 523.77 169.54c20.724 6.7082 32.642 28.407 27.17 49.506l-59.587 228.9c-6.4459 24.734-28.744 41.936-54.265 41.936h-637.02c-34.778 0-57.863-35.977-43.435-67.607l180.34-394.55c10.906-23.872 38.038-35.827 63.035-27.732z" fill="#f9f9ff" stroke-width=".37476"/>
 <path class="st0" d="m396.1 162.66v79.037h45.983c17.651 0 30.468-4.0849 38.413-12.255 7.9449-8.1698 11.917-19.338 11.917-33.504 0-14.016-3.8975-25.109-11.693-33.279zm60.636 48.719c-3.5977 3.3354-8.4696 5.0218-14.653 5.0218h-15.702v-40.961h15.702c6.2585 0 11.168 1.649 14.691 4.9468 3.5602 3.2979 5.3216 8.4696 5.3216 15.515 0.0375 7.008-1.7614 12.142-5.3591 15.478zm-181.53 2.0237c2.361-4.4222 3.5228-9.5939 3.5228-15.478 0-11.842-3.3728-20.612-10.119-26.383-6.7457-5.7338-16.602-8.6195-29.531-8.6195h-52.392v91.554h30.168v-23.61h22.898l12.442 23.61h29.606l-16.34-30.056c4.1598-2.9231 7.3828-6.5583 9.7438-11.018zm-29.569-7.7201c-1.9488 1.7614-4.8344 2.6233-8.6195 2.6233h-20.162v-20.275h20.162c3.7851 0 6.6333 0.86195 8.6195 2.6233 1.9488 1.7614 2.9606 4.2348 2.9606 7.5327 0 3.2604-1.0119 5.7338-2.9606 7.4952zm383.08-43.023h-87.956c-0.52467 0.787-1.0493 1.6115-1.499 2.436-4.2348 7.3828-6.3709 15.89-6.3709 25.559 0 9.6688 2.1361 18.176 6.3709 25.559 4.2348 7.3828 10.306 13.079 18.138 17.164s16.977 6.1086 27.358 6.1086 19.488-2.0237 27.358-6.1086c7.8325-4.0849 13.904-9.7813 18.138-17.164 4.2348-7.3828 6.3709-15.89 6.3709-25.559 0-9.6688-2.1361-18.176-6.3709-25.559-0.48719-0.82448-1.0119-1.649-1.5365-2.436zm-24.997 40.174c-1.9488 3.4103-4.6096 6.0336-7.9075 7.8325-3.2979 1.7988-7.008 2.7358-11.055 2.7358-4.0849 0-7.7576-0.89942-11.055-2.7358-3.2979-1.7989-5.9212-4.4222-7.9075-7.8325-1.9488-3.4103-2.9231-7.4952-2.9231-12.217s0.97438-8.7694 2.9231-12.217c1.9488-3.4103 4.6096-6.0336 7.9075-7.8325 3.2979-1.7988 7.008-2.7358 11.055-2.7358 4.0849 0 7.7576 0.89943 11.055 2.7358 3.2979 1.7989 5.9212 4.4222 7.9075 7.8325 1.9488 3.4103 2.9231 7.4952 2.9231 12.217 0 4.7595-0.97438 8.8069-2.9231 12.217zm-289.65-40.174-31.143 84.696h31.18l4.0474-12.105h39.238l4.0474 12.105h31.18l-31.143-84.696zm11.43 50.255 9.5939-28.782h5.2466l9.5939 28.782zm171.6-50.255h30.168v77.913h-30.168zm-241.01 125.84h-32.904v-25.184h95.976v25.184h-32.867v54.003h-30.168v-54.003zm309.29 41.074h39.238l4.0474 12.105h31.18l-33.654-91.517h-42.273l-33.654 91.517h31.18zm17.014-51.08h5.2467l9.5939 28.782h-24.397zm-86.757 64.009v-90.093h30.168v90.093zm-79.824 0v-85.558h30.168v67.869h43.922v17.726h-74.09zm-79.712 0 1.6864-5.0218h39.238l1.6864 5.0218h30.918l-31.068-84.434h-42.311l-31.068 84.434zm18.701-56.102h5.2467l9.5939 28.782h-24.397zm-138.7 56.102h-30.168v-73.903h30.168z" fill="url(#SVGID_1_)" stroke-width=".37476"/>
 <g transform="matrix(.37476 0 0 .37476 -.017962 .011642)">
  <path class="st1" d="m872.3 1094.6c9.2-7 16.6-15.6 22.1-25.8 5.9-11.1 8.9-24 8.9-38.7 0-29.6-8.5-51.6-25.4-66s-41.5-21.5-73.9-21.5h-131.2v156.5zm-123.9-89.3h50.4c9.4 0 16.6 2.2 21.5 6.5 4.9 4.4 7.4 10.6 7.4 18.8s-2.5 14.4-7.4 18.8-12.1 6.5-21.5 6.5h-50.4z"/>
  <path class="st1" d="m1637.3 1077.3v-69.5h39.3c15.6 0 27.9 4.1 36.8 12.4s13.4 21.2 13.4 38.8c0 5.9-0.5 11.3-1.6 16.2l76.8-1.7c0.4-4.7 0.6-9.5 0.6-14.5 0-35.4-10-63.4-29.9-83.8s-51.9-30.7-96.1-30.7h-115v134.5z"/>
  <path class="st1" d="m1002.3 1005.1h275.9v-60.5h-351.4v148.8l75.5-1.7v-7.8h271v-49.6h-271z"/>
  <path class="st1" d="m412.9 944.6v63h82.4v95.6l75.5-1.8v-93.8h82.3v-63z"/>
  <path class="st1" d="m1542.5 944.6h-73.6v123.8h-6.8l-76.1-123.8h-86.7v140.4l73.6-1.7v-33.5h6.8l20.7 32.9 142.1-3.3z"/>
  <path class="st1" d="m1473.7 1174.6h84.8v-89.6l-139 3.6z"/>
  <path class="st1" d="m1315.3 1174.6h73.6v-85.2l-73.6 1.8z"/>
  <path class="st1" d="m1740.2 1079.4c-2.2 7.6-5.9 13.7-10.9 18.4-9 8.4-21.2 12.5-36.7 12.5h-39.3v-28.7l-75.8 1.9v90h115c44.2 0 76.2-10.2 96.1-30.7 16.3-16.8 26-38.6 28.9-65.5z"/>
  <path class="st1" d="m1017.3 1113.1v-15.3l-75.5 1.9v73.9h351.4v-60.5z"/>
  <path class="st1" d="m851.7 1172.6h74.1l-38.3-70.5-199.7 5.1v65.4h75.6v-59.2h57.2z"/>
  <path class="st1" d="m513.3 1174.6h75.5v-64.8l-75.5 1.9z"/>
 </g>
</svg>
