<svg enable-background="new 0 0 3573.143 1078.132" space="preserve" version="1.1" viewBox="0 0 3573.1 1078.1" xmlns="http://www.w3.org/2000/svg">
 <link href="" rel="stylesheet" type="text/css"/>
 <style type="text/css"/>
 <g fill="#fff">
  <path d="m0 0v1078.1h1078.1v-1078.1h-1078.1zm338.17 749.09-103.24-162.02h-0.903v162.02h-110.01v-421.05h163.93c83.152 0 146.21 39.838 146.21 129.69 0 58.039-32.368 108.29-92.081 118.89l132.26 172.47h-136.17zm452.92 3h-102.01v-32.004h-1.409c-18.033 29.004-53.537 41.678-87.351 41.678-85.66 0-145.96-71.582-145.96-154.42 0-82.844 59.313-153.86 144.97-153.86 33.249 0 67.743 12.392 89.745 37.752v-28.18h102.01v289.04zm161.02-1h-102.01v-286.04h102.01v286.04zm-51.07-339.14c-31.252 0-56.923-25.671-56.923-56.923 0-31.251 25.671-56.922 56.923-56.922s56.923 25.671 56.923 56.922c0 31.252-25.671 56.923-56.923 56.923z"/>
  <path d="m626.25 542.52c-41.703 0-65.935 29.867-65.935 65.371 0 36.63 24.232 64.809 65.935 64.809s65.936-28.178 65.936-64.809c0-35.504-24.233-65.371-65.936-65.371z"/>
  <path d="m244.42 412.05h-10.39v105.01h10.39c35.716 0 75.897-6.745 75.897-52.506s-40.181-52.507-75.897-52.507z"/>
 </g>
 <g fill="#fff">
  <path d="m1272.2 743.53v14.109h-84.957v-143.2h99.667c2.199 21.014 6.753 36.277 13.66 45.781 6.902 9.508 16.857 14.26 29.869 14.26 12.206 0 22.464-3.851 30.772-11.558 8.3-7.703 12.457-17.36 12.457-28.969 0-7.003-1.699-13.509-5.091-19.513-3.389-6.004-8.377-11.005-14.956-15.01-6.586-4.001-18.854-9.504-36.809-16.511-16.16-5.803-27.926-10.306-35.311-13.509-31.521-13.209-55.109-30.068-70.768-50.584-15.662-20.512-23.49-44.378-23.49-71.598 0-37.825 12.868-69.646 38.608-95.464 25.743-25.817 57.869-38.726 96.385-38.726 12.57 0 24.539 1.904 35.916 5.704 11.369 3.804 22.046 9.709 32.026 17.712v-12.308h80.454v124.88h-90.642c-2.391-14.809-7.279-26.216-14.658-34.223-7.377-8.003-16.552-12.008-27.518-12.008-10.371 0-19.195 3.354-26.474 10.057-7.279 6.707-10.92 15.061-10.92 25.067 0 8.007 1.642 14.963 4.934 20.864 3.295 5.905 8.28 10.558 14.964 13.959 6.679 3.405 20.493 8.907 41.44 16.511 19.749 6.604 34.215 12.411 43.391 17.412 26.333 14.011 46.177 30.771 59.547 50.284 13.363 19.513 20.047 41.878 20.047 67.095 0 39.026-13.56 72.7-40.676 101.02-27.123 28.321-59.694 42.478-97.716 42.478-13.011 0-25.471-2.003-37.374-6.004-11.912-4.002-24.169-10.006-36.777-18.013z"/>
  <path d="m1850.6 421.41v248.87h41.127v88.559h-131.49v-44.129c-10.807 16.412-24.316 28.772-40.527 37.075s-35.326 12.458-57.338 12.458c-37.427 0-66.247-11.107-86.458-33.322-20.216-22.215-30.32-53.933-30.32-95.163v-125.18h-42.328v-89.159h140.19v185.52c0 25.217 4.151 43.13 12.46 53.736 8.3 10.61 21.961 15.911 40.976 15.911 17.809 0 32.019-6.304 42.628-18.913 10.604-12.608 15.911-29.518 15.911-50.734v-96.364h-38.726v-89.159h133.89zm-236.86-59.14v-73.849h67.845v73.849h-67.845zm104.47 0v-73.849h67.845v73.849h-67.845z"/>
  <path d="m2174.1 721.31c-11.033 14.212-24.822 24.818-41.371 31.821s-35.657 10.507-57.32 10.507c-47.539 0-87.053-16.408-118.55-49.233-31.493-32.821-47.239-74.347-47.239-124.58 0-50.232 15.61-91.81 46.831-124.73 31.221-32.919 70.745-49.383 118.58-49.383 23.013 0 42.929 3.855 59.74 11.558 16.811 7.706 31.318 19.663 43.529 35.874v-55.837h-36.624v-85.557h129.09v347.93h36.625v89.159h-133.29v-37.525zm-162.41-131.49c0 24.419 7.654 44.532 22.967 60.34 15.308 15.812 34.769 23.716 58.388 23.716 23.416 0 42.777-7.904 58.09-23.716 15.308-15.808 22.964-35.921 22.964-60.34 0-24.616-7.608-44.829-22.815-60.64-15.213-15.808-34.626-23.716-58.239-23.716-23.618 0-43.08 7.955-58.388 23.866-15.313 15.91-22.967 36.075-22.967 60.49z"/>
  <path d="m2370.3 758.84v-248.86h-42.328v-88.559h42.328v-99.666h97.265v99.666h42.328v88.559h-42.328v159.71h32.422v89.159h-129.69z"/>
  <path d="m2592.4 669.68v-159.71h-41.127v-88.559h136.29v248.26h42.628v89.159h-180.12v-89.159h42.328zm0-266.88v-81.054h95.163v81.054h-95.163z"/>
  <path d="m2812.3 669.68v-159.71h-38.726v-88.559h129.09v48.933c9.006-17.811 20.911-31.221 35.724-40.227 7.402-4.4 15.762-7.853 25.065-10.357 9.309-2.5 19.364-3.753 30.171-3.753v93.963c-15.01 0-28.021 2.05-39.026 6.145-11.01 4.095-20.216 9.939-27.618 17.528-13.411 14.381-20.113 37.055-20.113 68.015v68.018h38.726v89.159h-176.22v-89.159h42.929z"/>
  <path d="m3009.1 589.68c0-24.795 4.4-47.84 13.209-69.135 8.803-21.296 21.563-40.195 38.274-56.692 16.708-16.497 36.222-29.246 58.542-38.242 22.312-8.997 45.677-13.5 70.095-13.5 24.814 0 48.13 4.4 69.947 13.2 21.812 8.799 41.076 21.445 57.787 37.942 16.708 16.497 29.52 35.494 38.426 56.992 8.904 21.496 13.36 44.64 13.36 69.435s-4.305 47.845-12.909 69.14c-8.608 21.296-21.417 40.195-38.426 56.692-17.014 16.497-36.527 29.241-58.539 38.237-11.01 4.203-22.215 7.397-33.622 9.603-11.408 2.195-23.416 3.297-36.024 3.297-25.019 0-48.384-4.353-70.095-13.045-21.719-8.697-41.03-21.244-57.941-37.642-16.914-16.399-29.822-35.443-38.723-57.142-8.91-21.7-13.361-44.745-13.361-69.14zm101.47 0c0 22.778 7.703 42.356 23.115 58.737 15.408 16.379 33.923 24.569 55.537 24.569 21.412 0 39.824-8.139 55.237-24.419 15.408-16.281 23.115-35.912 23.115-58.887 0-23.373-7.608-43.252-22.815-59.632-15.213-16.38-33.725-24.574-55.537-24.574-21.417 0-39.88 8.194-55.388 24.574-15.51 16.38-23.264 36.258-23.264 59.632z"/>
  <path d="m3435.4 669.68v-259.37h-41.127v-88.559h136.29v347.93h42.628v89.159h-180.12v-89.159h42.328z"/>
 </g>
</svg>
