<svg width="800" height="203.16" enable-background="new 0 0 1969 500" version="1.1" viewBox="0 0 800 203.16" xml:space="preserve" xmlns="http://www.w3.org/2000/svg">
<g transform="matrix(.40632 0 0 .40632 0 -6.3477e-6)" fill="#fff">
		<path transform="matrix(2.4611 0 0 2.4611 0 1.5622e-5)" d="m0 0v203.16h203.16v-203.16h-203.16zm169.8 56.193c5.8916 0 10.727 4.8349 10.727 10.727s-4.8349 10.727-10.727 10.727c-5.8916 0-10.727-4.8349-10.727-10.727 0-5.8916 4.835-10.727 10.727-10.727zm-146.44 5.6074h30.881c15.684 0 27.547 7.5175 27.547 24.461 0 10.93-6.0946 20.398-17.35 22.389l24.949 32.504h-25.639l-19.463-30.514h-0.20312v30.514h-20.723v-79.354zm20.723 15.846v19.789h1.9492c6.7449 0 14.303-1.2591 14.303-9.873s-7.5579-9.916-14.303-9.916h-1.9492zm68.871 7.8027c6.2573 0 12.758 2.3555 16.902 7.1094v-5.3223h19.219v54.488h-19.219v-6.0137h-0.24415c-3.3724 5.4447-10.076 7.8418-16.455 7.8418-16.131 0-27.508-13.491-27.508-29.094s11.174-29.01 27.305-29.01zm47.254 2.1934h19.219v53.879h-19.219v-53.879zm-42.217 14.588c-7.8419 0-12.434 5.6469-12.434 12.311 0 6.9074 4.551 12.23 12.434 12.23 7.8419 0 12.434-5.323 12.434-12.23 0-6.6636-4.551-12.311-12.434-12.311z" fill="#fff" stroke-width=".40632"/>
		<path d="m614 293.7-5.6 16.2h16.5v41h-86v-41h19.2l44.7-116.6h-19.2v-40.7h74.4l60.3 157.4h19.2v41h-85.9v-41h16.2l-5.1-16.2h-48.7zm38.4-38.2-13.9-44.9-13.6 44.9z"/>
		<path d="m769.8 310.4v-117.7h-18.6v-40.2h61.8v157.9h19.3v40.4h-81.8v-40.4z"/>
		<path d="m844.8 350.8v-112.9h-19.2v-40.2h19.2v-45.2h44.2v45.2h19.2v40.2h-19.2v72.5h14.7v40.4z"/>
		<path d="m916 274.1c0-11.3 2-21.7 6-31.4 4-9.6 9.8-18.2 17.4-25.7s16.4-13.3 26.6-17.3c10.1-4.1 20.7-6.1 31.8-6.1 11.3 0 21.8 2 31.7 6s18.6 9.7 26.2 17.2 13.4 16.1 17.4 25.9c4 9.7 6.1 20.3 6.1 31.5 0 11.3-1.9 21.7-5.8 31.4-3.9 9.6-9.7 18.2-17.4 25.7s-16.6 13.3-26.6 17.3c-5 1.9-10.1 3.3-15.3 4.4-5.2 1-10.6 1.5-16.3 1.5-11.4 0-21.9-2-31.8-5.9s-18.6-9.6-26.3-17.1c-7.7-7.4-13.5-16.1-17.6-25.9-4.1-10-6.1-20.4-6.1-31.5zm46 0c0 10.3 3.5 19.2 10.5 26.7 7 7.4 15.4 11.1 25.2 11.1 9.7 0 18.1-3.7 25-11.1 7-7.4 10.5-16.3 10.5-26.7 0-10.6-3.4-19.6-10.3-27.1-6.9-7.4-15.3-11.1-25.2-11.1-9.7 0-18.1 3.7-25.1 11.1-7.1 7.5-10.6 16.5-10.6 27.1z"/>
		<path d="m1210.9 293.7-5.6 16.2h16.5v41h-86v-41h19.2l44.7-116.6h-19.2v-40.7h74.4l60.3 157.4h19.2v41h-85.9v-41h16.2l-5.1-16.2h-48.7zm38.4-38.2-13.9-44.9-13.6 44.9z"/>
		<path d="m1459.7 333.8c-5 6.4-11.3 11.3-18.8 14.4-7.5 3.2-16.2 4.8-26 4.8-21.6 0-39.5-7.5-53.8-22.4s-21.4-33.8-21.4-56.5c0-22.8 7.1-41.6 21.2-56.6 14.2-14.9 32.1-22.4 53.8-22.4 10.4 0 19.5 1.8 27.1 5.2 7.7 3.5 14.2 8.9 19.8 16.3v-25.3h-16.6v-38.8h58.6v157.9h16.6v40.4h-60.5zm-73.7-59.7c0 11.1 3.5 20.2 10.4 27.4 7 7.2 15.8 10.8 26.5 10.8 10.6 0 19.4-3.6 26.3-10.8 7-7.2 10.4-16.3 10.4-27.4 0-11.2-3.4-20.4-10.3-27.5-6.9-7.2-15.7-10.8-26.4-10.8s-19.6 3.6-26.5 10.9c-6.9 7.2-10.4 16.4-10.4 27.4z"/>
		<path d="m1552 310.4v-72.5h-18.6v-40.2h61.9v112.7h19.3v40.4h-81.8v-40.4zm0-121.1v-36.8h43.2v36.8z"/>
		<path d="m1740.2 333.8c-5 6.4-11.3 11.3-18.8 14.4-7.5 3.2-16.2 4.8-26 4.8-21.6 0-39.5-7.5-53.8-22.4s-21.4-33.8-21.4-56.5c0-22.8 7.1-41.6 21.2-56.6 14.2-14.9 32.1-22.4 53.8-22.4 10.4 0 19.5 1.8 27.1 5.2 7.7 3.5 14.2 8.9 19.8 16.3v-18.9h58.6v40.2h-16.9v105.5c0 22.5-7 40-21.2 52.3-14.1 12.3-33.9 18.6-59.2 18.6-21.5 0-39.2-4.7-53.1-14.1s-22.1-22.1-24.5-38.1h51.2c1.6 4.4 4.8 7.7 9.4 9.9 4.6 2.3 10.6 3.4 17.8 3.4 11.7 0 20.7-2.8 26.9-8.4s9.2-14 9.2-25.1v-8.1zm-73.7-59.7c0 11.1 3.5 20.2 10.4 27.4 7 7.2 15.8 10.8 26.5 10.8 10.6 0 19.4-3.6 26.3-10.8 7-7.2 10.4-16.3 10.4-27.4 0-11.2-3.4-20.4-10.3-27.5-6.9-7.2-15.7-10.8-26.4-10.8s-19.6 3.6-26.5 10.9c-6.9 7.2-10.4 16.4-10.4 27.4z"/>
		<path d="m1963.1 305.4c-6.6 15.5-16.6 27.5-30 36.1s-28.6 12.9-45.6 12.9c-11.7 0-22.4-1.9-32.1-5.7-4.9-2-9.5-4.4-13.7-7.1-4.2-2.8-8.4-6.2-12.5-10.3-7.7-7.6-13.5-16.2-17.6-25.9-1.9-4.8-3.3-9.8-4.4-14.9-1-5.1-1.5-10.6-1.5-16.4 0-11.3 2-21.7 6-31.4 4-9.6 9.8-18.2 17.4-25.7s16.4-13.3 26.6-17.3c10.1-4.1 20.7-6.1 31.8-6.1 13.8 0 26.8 3.2 38.9 9.4 12.1 6.3 21.9 15 29.5 26.3 4.4 6.4 7.7 13.3 9.8 20.7 2.2 7.5 3.2 15.5 3.2 24.3l-0.4 8.2c0 1.1 0 2.4-0.2 3.9-0.1 1.5-0.4 3.2-0.7 5.2h-113c1.8 6.8 5.7 12.2 11.7 16.3s13 6.2 21.1 6.2c4.3 0 8.3-0.6 12.1-2 3.8-1.3 7.4-3.5 10.9-6.6zm-109.6-46.6h68.3c-2.2-8.3-6.3-14.7-12.2-19.2s-13.3-6.7-22.1-6.7c-8.3 0-15.4 2.3-21.3 6.8-6 4.5-10.2 10.9-12.7 19.1z"/>
</g>
</svg>
