<svg width="800" height="325" version="1.1" viewBox="0 0 800 325" xml:space="preserve" xmlns="http://www.w3.org/2000/svg">
<g transform="scale(1.5625)" fill="#fff">
		<path class="st0" d="m281.2 145.7h-22.6l-21-67.8h-6.7v-17.5h34.5v17.5h-6.7l11.1 39.6 11.1-39.6h-6.6v-17.5h34.6v17.5h-6.9z"/>
		<path class="st0" d="m365.1 138.4c-2.2 2.8-4.9 4.9-8 6.2-3.2 1.3-6.9 2-11.2 2-9.3 0-17-3.2-23.1-9.6s-9.2-14.5-9.2-24.3 3.1-18 9.2-24.4 13.8-9.6 23.1-9.6c4.5 0 8.4 0.8 11.7 2.3s6.1 3.8 8.5 7v-10.9h-7.1v-16.7h25.2v67.9h7.1v17.4h-26.1v-7.3zm-31.6-25.7c0 4.8 1.5 8.7 4.5 11.8s6.8 4.6 11.4 4.6 8.4-1.5 11.3-4.6c3-3.1 4.5-7 4.5-11.8s-1.5-8.7-4.5-11.8-6.8-4.7-11.3-4.7c-4.6 0-8.4 1.6-11.4 4.7s-4.5 7-4.5 11.8z"/>
		<path class="st0" d="m401.8 99.6v-9.7c0.2 0 0.5 0 0.8 0.1 0.4 0 0.7 0.1 0.8 0.1 2.4 0 4.1-0.6 5-1.7 1-1.1 1.4-3.1 1.4-5.9 0-0.2 0-0.6-0.1-1.2 0-0.5-0.1-1-0.1-1.2h-8v-19.7h19v22.7c0 5.6-1.3 9.8-4 12.5-2.6 2.8-6.7 4.2-12 4.2h-1.8c-0.2-0.1-0.6-0.1-1-0.2z"/>
		<path class="st0" d="m458.8 121.1-2.4 7h7.1v17.6h-37v-17.6h8.3l19.2-50.2h-8.3v-17.5h32l26 67.7h8.3v17.6h-37v-17.6h7l-2.2-7zm16.6-16.4-6-19.3-5.9 19.3z"/>
		<path class="st0" transform="scale(.64)" d="m0 0v325h325v-325h-325zm271.25 89.531c9.375 0 17.188 7.6562 17.188 17.188-0.15625 9.5312-7.8125 17.188-17.188 17.188s-17.188-7.6562-17.188-17.188c0-9.375 7.6562-17.188 17.188-17.188zm-234.06 9.0625h49.219c25 0 44.062 12.031 44.062 39.062 0 17.5-9.6875 32.656-27.656 35.781l39.725 51.875h0.11914v0.15625l-0.11914-0.15625h-40.818l-31.094-48.75h-0.3125v48.75h-33.125v-126.72zm33.125 25.312v31.562h3.125c10.781 0 22.812-2.0312 22.812-15.781s-12.031-15.781-22.812-15.781h-3.125zm110 12.344c10 0 20.469 3.75 27.031 11.406v-8.4375h30.781v87.031h-30.781v-9.6875h-0.46875c-5.3125 8.75-16.094 12.5-26.25 12.5-25.781 0-43.906-21.562-43.906-46.562 0-24.844 17.812-46.25 43.594-46.25zm75.469 3.5938h30.781v86.25h-30.781v-86.25zm-67.344 23.438c-12.5 0-19.844 9.0625-19.844 19.688 0 11.094 7.3438 19.531 19.844 19.531s19.844-8.4375 19.844-19.531c0-10.781-7.3438-19.688-19.844-19.688z" stroke-width="1.5625"/>
</g>
</svg>
