<svg width="804pt" height="828.63pt" version="1.1" viewBox="0 0 804 828.63" xmlns="http://www.w3.org/2000/svg">
 <g transform="translate(-50.227)" fill="#eb0104">
  <path d="m590.01 156.57c10.87-0.37 21.7-1.47 32.57-1.88 0.07 12.97-0.86 26.02 1.09 38.9 2.65 21.43 10.5 43.17 26.26 58.48 12.34 12.69 28.75 20.69 45.6 25.54 16.03 4.75 32.71 6.49 49.17 9.1-1.18 5-2.4 10.07-2.41 15.24-0.06 6.55-0.37 13.22 1.45 19.59 4.06 17.46 16.24 31.85 30.34 42.35 21.12 15.48 46.2 24.36 71.33 30.87 2.18 8.6 2.45 17.52 3.93 26.23 1.31 12.84 2.67 25.68 3.34 38.58 1.61 11.06 0.08 22.31 1.49 33.39 0.21 2.49-0.26 4.97-0.45 7.45-0.56 8.99 0.33 18.07-0.98 27.01-1.9 32.54-7.29 64.96-16.64 96.22-14.15 47.58-38.7 92.41-73.1 128.36-31.66 33-71.59 58.63-115.85 70.82-9.56 2.48-19.28 4.43-29.12 5.37-33.89 2.26-67.94-4.42-99.47-16.68-24.49-9.58-47.72-22.48-68.51-38.59-0.82-0.79-2.37-1.2-3.14-0.12-6.2 6.86-12.69 13.53-20.16 19.03-28.92 21.87-64.89 32.65-100.67 35.81-13.34 1.29-26.76 0.99-40.14 0.72-36.03-1.83-70.12-17.29-98.74-38.63-32.84-24.9-59.81-57.09-80.43-92.67-21.31-36.13-36.13-75.88-45.53-116.7-5.85-25.43-9.03-51.37-10.69-77.37-0.42-15.99-0.44-31.99 0-47.98 2.87-54.5 16.91-108.97 44.29-156.43 18.35-31.9 42.29-60.63 70.7-84.04 29.8-24.58 64.29-44.03 101.72-54.08 20.24-5.49 41.55-6.56 62.28-3.59 43.84 6.82 84.1 28.47 118.47 55.88 17.77-14.01 36.54-26.94 56.79-37.12 26.4-13.18 56.26-16.24 85.21-19.06"/>
  <path d="m620.34 439.7c8.55-0.43 17.15-0.07 25.72-0.17 6.93 0.1 14.85 2.27 18.55 8.66 3.84 6.18 3.31 13.76 2.73 20.7-1.24 5.25-3.66 10.94-8.79 13.43-5.74 2.76-12.29 3.2-18.56 3.03-6.34-0.11-12.68 0.17-19.01-0.1-0.38-0.28-1.13-0.84-1.5-1.12-0.03-14.74-0.03-29.49 0-44.23z"/>
  <path d="m232.47 439.55c9.86-0.02 19.72-0.16 29.58 0.07 6.43 0.66 13.7 1.94 17.94 7.34 4.86 6.17 5.02 14.47 4.37 21.94-1.38 6.9-5.46 14.26-12.65 16.33-4.5 1.25-9.02 2.59-13.67 3.09-8.52 0.18-17.04-0.05-25.56 0.08 0-16.28 0.03-32.57-0.01-48.85z"/>
  <path d="m619.46 531.89c1.37-0.76 3.02-0.41 4.53-0.52 9.97 0.15 19.95-0.21 29.92 0.21 6.14 0.73 12.78 2.74 16.54 8 5.33 7.54 5.68 17.57 3.06 26.17-1.85 5.38-5.86 10.23-11.26 12.29-4.19 1.71-8.75 2.28-13.24 2.26-9.85-0.02-19.69-0.01-29.53-0.02-0.03-16.13-0.02-32.26-0.02-48.39z"/>
 </g>
 <g transform="translate(-50.227)" fill="#fff">
  <path d="m174.42 390.49 80.58-0.1c14.39 0.06 28.9-0.51 43.12 2.12 7.4 1.53 14.88 3.66 21.09 8.16 11.89 8.75 18.92 22.72 21.67 36.99 2.13 8.96 1.72 18.19 1.64 27.32-0.5 15.68-6.03 31.23-16.22 43.24-7.03 8.87-17.44 14.31-28.13 17.46 7.01 3.17 14.17 7.02 18.5 13.65 4.77 7.26 9.71 14.54 13.1 22.58 9.31 23.48 18.93 46.865 28.06 70.415h-65.09c-11.12-26.24-21.82-52.555-33.02-78.765-2.74-5.87-5.46-12.41-11.26-15.93-4.67-3.19-10.455-3.63-15.945-3.26v97.955h-58.095m58.095-192.78v48.85c8.52-0.13 17.005 0.1 25.525-0.08 4.65-0.5 9.17-1.84 13.67-3.09 7.19-2.07 11.27-9.43 12.65-16.33 0.65-7.47 0.49-15.77-4.37-21.94-4.24-5.4-11.51-6.68-17.94-7.34-9.86-0.23-19.675-0.09-29.535-0.07z"/>
  <path d="m360.46 390.44h175.06v59.965h-58.78v181.92h-57.35v-181.92h-58.93z"/>
  <path d="m561.3 390.4h91.705c13.65 0.13 28.06-1.21 40.77 4.85 9.28 3.99 16.75 11.31 21.81 19.97 9.19 15.26 10.78 34.09 7.52 51.33-1.9833 9.1071-5.942 18.245-12.136 25.318-3.9878 4.5143-9.426 9.5092-15.624 11.742 7.45 3.06 15.05 6.42 20.79 12.26 11.02 10.2 15.99 25.43 16.63 40.12 0.66 4.65 0.88 9.39 0.08 14.05-0.68 16.15-6.53 32.29-17.36 44.42-14.7 15.431-41.083 17.698-59.48 17.92h-94.705v-241.98m58.185 49.13v45.72l20.51 0.1c6.27 0.17 12.82-0.27 18.56-3.03 5.13-2.49 7.55-8.18 8.79-13.43 0.58-6.94 1.11-14.52-2.73-20.7-3.7-6.39-11.62-8.56-18.55-8.66m-26.6 91.945 0.02 48.815h29.53c4.49 0.02 9.05-0.54 13.24-2.25 5.4-2.06 9.41-6.91 11.26-12.29 2.62-8.6 2.27-18.63-3.06-26.17-3.76-5.26-10.4-7.3751-16.54-8.1051z"/>
 </g>
 <g transform="translate(-50.227)">
  <path d="m507.24 0h4.96c7.47 7.68 8.39 18.83 9.25 28.94-0.08 8.79 0.53 17.64-0.7 26.37-1.47 18.49-4.14 37.19-11.31 54.43-4.34 11.07-8.79 22.12-14.24 32.7-4.73 9.74-10.21 19.21-17.25 27.47-4.74 5.21-10.3 10.18-17.23 12.12-3.85 0.91-8.73 1.07-11.31-2.49-5.17-6.67-4.04-15.62-4.2-23.52-0.19-10.54 1.71-20.93 3.32-31.3 3.35-15.97 6.97-31.94 12.41-47.34 7.42-17.84 15.67-35.35 24.77-52.4 5.23-9.68 11.27-19.95 21.53-24.98z" fill="#00ff01"/>
 </g>
</svg>
