<svg width="797.66pt" height="328.19pt" version="1.1" viewBox="0 0 797.66 328.19" xmlns="http://www.w3.org/2000/svg">
 <g transform="matrix(2.0674 0 0 2.0674 199.26 -143.61)">
  <path d="m-17.005 69.463c43.84 0 79.37 35.477 79.37 79.247s-35.53 79.25-79.37 79.25c-43.841 0-79.377-35.48-79.377-79.25s35.536-79.247 79.377-79.247z" fill="#ed1b24"/>
  <path d="m-81.035 101.93h128.1l-64.05 126.28z"/>
  <g transform="translate(-118.31,4.5358)" fill="#fff">
   <path d="m70.177 119.03h1.117c2.497 0 4.677 0.37 4.677 3.45 0 2.97-2.394 3.34-4.784 3.34h-1.01zm-16.188 29.08h14.248v-12.84h0.267l6.379 12.84h16.801l-8.72-13c-0.797-1.17-1.702-1.81-2.446-2.39v-0.32c5.422-1.8 7.764-4.35 7.764-10.4 0-10.09-7.657-13.91-16.696-13.91h-17.597z"/>
   <path d="m89.424 121.1 8.027-0.37v27.38h14.569v-27.38l8.03 0.37v-13.01h-30.626z"/>
   <path d="m122.89 148.11h26.8v-12.84h-12.23v-27.18h-14.57z"/>
   <path d="m80.193 160.93c2.635 0 3.149 2.99 3.149 4.98 0 1.86-0.676 5.32-3.149 5.32s-3.149-3.46-3.149-5.32c0-1.99 0.515-4.98 3.149-4.98m0-7.5c-7.324 0-11.566 5.39-11.566 12.25 0 7.25 4.08 12.7 11.566 12.7s11.566-5.45 11.566-12.7c0-6.86-4.242-12.25-11.566-12.25"/>
   <path d="m114.95 178v-7.44l-4.72 0.28-4.14 0.58v-0.25c4.27-1.32 8.51-4.33 8.51-9.21 0-5.61-5.33-8.53-10.38-8.53-7.29 0-10.439 3.18-11.081 10.23h8.611c0.06-1.48 0.29-3.05 2.15-3.05 1.09 0 1.99 0.84 1.99 1.93 0 2.15-3.82 5.55-5.33 6.89l-9.668 8.57z"/>
   <path d="m122.67 170.33c-2.34 0-4.78 1.51-4.78 4.08 0 2.53 2.44 3.97 4.78 3.97 2.35 0 4.79-1.44 4.79-3.97 0-2.57-2.44-4.08-4.79-4.08"/>
   <path d="m54.126 161.83 3.727-0.25v16.42h8.739v-24.19l-12.466 0.39z"/>
   <path d="m133.38 153.82-2.12 14.3c2.02-0.71 4.24-1.06 6.43-1.06 1.38 0 4.85 0.45 4.85 2.41 0 1.89-2.8 2.4-4.28 2.4-1.99 0-5.46-1.03-7.23-1.99l-0.96 6.55c2.28 1.12 7.13 1.95 9.67 1.95 5.14 0 11.6-2.79 11.6-8.72 0-4.62-3.85-7.57-8.29-7.57-1.22 0-3.31 0.22-4.11 1.28h-0.23c0.42-0.86 0.62-1.86 0.77-2.79h10.38v-6.76z"/>
  </g>
 </g>
 <g transform="translate(.0001468 .0021961)" stroke-width="3.9722">
  <path d="m367.08 220.57 15.361-118.08 61.989 71.066 6.0514 7.3704 5.0429 6.9048q0-2.2499 0-4.4998 0.23278-2.0171 0.31024-3.0257l1.1637-10.086 8.5341-63.23h16.68l-15.361 118-62.144-70.988q-3.5688-4.0343-3.8016-4.3446-1.3189-1.5517-2.9481-3.724-0.62066-0.8534-1.7068-2.4051-1.7844-2.5602-2.6378-3.9567 0 4.8877-1.5517 16.137l-0.23277 1.6292-8.0686 63.23z" style="white-space:pre"/>
  <path d="m493.07 220.57 14.896-113.58h63.695l-2.0172 16.06h-46.084l-3.6464 28.55h45.929l-2.0947 15.904h-46.084l-4.7326 36.697h46.084l-2.2499 16.37z" style="white-space:pre"/>
  <path d="m576.47 106.99h18.387l15.129 67.497 1.0862 6.129 0.62066 4.8101 2.7154-6.5945 1.9396-4.1895 36.231-72.152 19.551 73.083 0.62066 3.4912 0.93102 6.3618 2.0171-6.5945 1.6292-4.4998 29.093-67.342h20.016l-56.092 118-20.016-74.014-0.85339-4.4222-1.0862-5.8963-2.3275 6.8273q-0.62066 1.7068-0.93097 2.4051-0.54308 1.2413-0.85339 1.862l-37.938 73.238z" style="white-space:pre"/>
  <path d="m717.75 201.02 12.491-10.319q4.655 9.3099 10.008 13.499 5.4308 4.1119 12.568 4.1119 8.9996 0 14.586-5.2756 5.586-5.2756 5.586-13.732 0-5.9739-2.9482-10.086-2.8705-4.1119-10.396-8.5341l-4.5774-2.6378q-12.568-6.9049-17.146-11.948-3.0257-3.4136-4.8101-8.0686-0.77585-2.2499-1.1637-4.6549-0.38809-2.4051-0.38809-5.2756 0-14.818 9.6203-24.283 9.6202-9.5426 25.137-9.5426 10.474 0 18.387 4.267 7.9134 4.1894 12.956 12.724l-10.862 10.008q-3.6464-6.0514-8.3789-9.1547-4.7326-3.1033-10.474-3.1033-8.3014 0-13.577 4.9653-5.198 4.8877-5.198 12.568 0 9.2323 14.973 17.379 3.8016 1.9396 5.6635 3.1033 11.327 6.5945 16.137 13.81 4.8877 7.2152 4.8877 17.611 0 16.06-10.396 25.602-10.396 9.5426-28.24 9.5426-12.103 0-20.637-5.586t-13.81-16.991z" style="white-space:pre"/>
 </g>
</svg>
