<svg enable-background="new 0 0 250 250" version="1.1" viewBox="0 0 600 600" xml:space="preserve" xmlns="http://www.w3.org/2000/svg">
<path d="m0 0h600v600h-600z" fill="#00549f" stroke-width=".41666"/><g fill="#fff"><path d="m263.52 378.72h-75.6l-58.08-90v90h-60.72v-233.76h94.56c12.96 0 27.36 1.92 36.96 5.76s17.76 9.12 24 15.6c6.24 6.72 11.04 14.16 14.16 23.04 3.12 8.64 4.8 18 4.8 27.84 0 17.76-4.32 33.84-12.96 45.12-8.64 11.04-21.84 19.68-38.64 23.76zm-133.68-129.36h12.72c12 0 21.12-2.4 27.6-7.44s9.6-12 9.6-21.36-3.12-16.32-9.6-21.36-15.6-7.44-27.6-7.44h-12.72z"/><path transform="scale(2.4)" d="m114.6 157.8h23.3v-49.7h11l22.5 49.7h18.7l30.7-66.5h-24.7l-14.9 38.5-14.9-38.5h-28.4v-20.4h-23.3v20.4h-10.2v16.8h10.2z" stroke-width=".41667"/><path d="m98.4 418.8c-1.44-1.2-2.88-1.92-4.32-2.64-1.44-0.48-2.88-0.72-4.08-0.72-1.68 0-3.12 0.48-4.08 1.2s-1.68 1.92-1.68 3.12c0 0.96 0.24 1.68 0.72 2.16s1.2 1.2 2.16 1.44c0.96 0.48 1.92 0.72 2.88 1.2 1.2 0.24 2.16 0.72 3.12 0.96 4.32 1.44 7.44 3.36 9.36 5.76s2.88 5.52 2.88 9.36c0 2.64-0.48 5.04-1.2 6.96-0.96 2.16-2.16 3.84-3.84 5.28s-3.6 2.64-6.24 3.36c-2.4 0.72-5.28 1.2-8.16 1.2-6.48 0-12.24-1.92-17.76-5.76l5.52-10.56c1.92 1.68 3.84 3.12 5.76 3.84 1.92 0.96 3.84 1.2 5.76 1.2 2.16 0 3.84-0.48 4.8-1.44s1.68-2.16 1.68-3.36c0-0.72-0.24-1.44-0.48-1.92s-0.72-0.96-1.44-1.44-1.44-0.96-2.4-1.2c-0.96-0.48-2.16-0.96-3.6-1.44-1.68-0.48-3.36-1.2-5.04-1.68-1.68-0.72-3.12-1.44-4.32-2.64-1.2-0.96-2.4-2.4-3.12-4.08s-1.2-3.6-1.2-6.24c0-2.4 0.48-4.8 1.2-6.72s1.92-3.84 3.36-5.28 3.36-2.64 5.52-3.36 4.56-1.2 7.2-1.2c2.4 0 5.04 0.24 7.92 0.96 2.64 0.72 5.28 1.68 7.92 3.12z"/><path d="m140.4 447.6h-18.72l-3.12 8.64h-13.92l19.2-50.4h14.4l19.2 50.4h-13.92zm-3.6-10.08-5.76-16.8-5.76 16.8z"/><path d="m160.08 456.24v-50.4h13.2l24.24 30.96v-30.72h12.96v50.4h-12.96l-24.24-30.72v30.72h-13.2z"/><path d="m234.96 456.24 8.64-50.4h12.96l10.08 26.88 10.08-26.88h12.96l8.64 50.4h-12.96l-4.32-29.04-12 29.04h-5.28l-11.28-29.04-4.32 29.04z"/><path d="m334.8 447.6h-18.72l-3.12 8.64h-13.92l19.2-50.4h14.4l19.2 50.4h-13.92zm-3.36-10.08-5.76-16.8-5.76 16.8z"/><path d="m396 456.24h-16.32l-12.48-19.44v19.44h-13.2v-50.4h20.4c2.88 0 5.28 0.48 7.44 1.2s3.84 1.92 5.28 3.36 2.4 3.12 3.12 5.04 0.96 3.84 0.96 6c0 3.84-0.96 6.96-2.88 9.36s-4.56 4.08-8.16 4.8zm-28.8-27.84h2.4c2.64 0 4.56-0.48 6-1.68 1.44-0.96 2.16-2.64 2.16-4.56s-0.72-3.6-2.16-4.56-3.36-1.68-6-1.68h-2.4z"/><path d="m411.6 405.84v50.4h-13.2v-50.4z"/><path d="m419.04 456.24v-50.4h13.2l24.24 30.72v-30.72h12.96v50.4h-12.96l-24.48-30.72v30.72z"/><path d="m474.72 431.04c0-3.84 0.72-7.2 2.16-10.56 1.44-3.12 3.36-6 5.76-8.4s5.28-4.32 8.88-5.76c3.36-1.44 7.2-1.92 11.28-1.92s7.68 0.72 11.28 1.92c3.36 1.44 6.48 3.12 8.88 5.76 2.4 2.4 4.32 5.28 5.76 8.4s2.16 6.72 2.16 10.56-0.72 7.2-2.16 10.56c-1.44 3.12-3.36 6-5.76 8.4s-5.52 4.32-8.88 5.76-7.2 1.92-11.28 1.92-7.92-0.72-11.28-1.92c-3.36-1.44-6.24-3.12-8.88-5.76-2.4-2.4-4.32-5.28-5.76-8.4s-2.16-6.72-2.16-10.56zm13.68 0c0 1.92 0.48 3.84 1.2 5.52s1.68 3.12 3.12 4.32c1.2 1.2 2.88 2.16 4.56 2.88s3.6 0.96 5.52 0.96 3.84-0.24 5.52-0.96 3.12-1.68 4.56-2.88c1.2-1.2 2.4-2.64 3.12-4.32s1.2-3.6 1.2-5.52-0.48-3.84-1.2-5.52-1.68-3.12-3.12-4.32c-1.2-1.2-2.88-2.16-4.56-2.88s-3.6-0.96-5.52-0.96-3.84 0.24-5.52 0.96-3.12 1.68-4.56 2.88c-1.2 1.2-2.4 2.64-3.12 4.32s-1.2 3.6-1.2 5.52z"/></g>
</svg>
