<svg width="301.03" height="101.92" version="1.0" viewBox="0 0 282.22 95.55" xmlns="http://www.w3.org/2000/svg">
 <link href="" rel="stylesheet" type="text/css"/>
 <g transform="translate(-3.8901 -2.2247)" fill="#9c161c" font-family="'Palatino Linotype'" font-size="26.415px" font-weight="bold">
  <path d="m116.12 52.216c-0.0524-0.35422-0.14429-0.72586-0.27559-1.1149-0.13132-0.38904-0.33284-0.74732-0.60455-1.0748-0.27172-0.32748-0.63102-0.59734-1.0779-0.80957-0.44689-0.2122-1.021-0.3183-1.7222-0.31832-1.0692 1.6e-5 -1.8886 0.23882-2.4583 0.71642-0.56965 0.47763-0.85447 1.0615-0.85446 1.7516-1e-5 0.65501 0.24095 1.2302 0.72288 1.7256 0.48192 0.49545 1.0647 0.9466 1.7482 1.3535 0.68356 0.40689 1.3935 0.79162 2.1297 1.1542 0.73626 0.36261 1.3496 0.73857 1.8401 1.1279 0.6488 0.51353 1.1791 1.0798 1.591 1.6989 0.41184 0.6191 0.61777 1.3798 0.61778 2.2821-1e-5 0.93795-0.17091 1.7298-0.51268 2.3757-0.34179 0.64582-0.81503 1.1723-1.4197 1.5795-0.60469 0.40715-1.3277 0.7036-2.1691 0.88935-0.84136 0.18575-1.7616 0.27863-2.7608 0.27863-1.0516 0-1.9804-0.08856-2.7864-0.26567-0.80606-0.17711-1.437-0.3275-1.8927-0.45116l-0.15805-4.3795h0.7622c0.0701 0.33641 0.17957 0.72574 0.32854 1.168 0.14896 0.44225 0.37682 0.85804 0.68358 1.2474 0.30673 0.38933 0.72742 0.72115 1.262 0.99546 0.5346 0.27431 1.2314 0.41147 2.0904 0.41147 1.1569 1e-6 2.042-0.27431 2.6552-0.82294 0.61323-0.54862 0.91984-1.2298 0.91985-2.0436-1e-5 -0.655-0.1709-1.2168-0.51268-1.6856-0.34179-0.4687-0.78427-0.89326-1.3274-1.2737-0.54317-0.38041-1.139-0.73869-1.7875-1.0748-0.64854-0.33613-1.2707-0.69886-1.8666-1.0882-0.40331-0.26566-0.77585-0.54443-1.1176-0.8363-0.34179-0.29185-0.64412-0.61476-0.90701-0.96873-0.2629-0.35395-0.46882-0.74773-0.61778-1.1813-0.14897-0.43359-0.22345-0.9158-0.22345-1.4466 0-1.4331 0.52137-2.5433 1.5641-3.3306 1.0427-0.78728 2.5282-1.1809 4.4564-1.1809 0.89376 1.8e-5 1.7306 0.06198 2.5104 0.18589 0.77984 0.12394 1.3714 0.22128 1.7747 0.292l0.15805 4.1139z"/>
  <path d="m125.19 53.088c-1.7704 1.3e-5 -3.116 0.49544-4.0625 1.4688-0.94646 0.97333-1.4062 2.4519-1.4062 4.4688 0 2.2118 0.55703 3.9034 1.6875 5.0625 1.1304 1.1591 2.7169 1.75 4.75 1.75 0.87666 0 1.633-0.0955 2.2812-0.28125 0.64826-0.18576 1.0982-0.31769 1.3438-0.40625v-0.96875c-0.24552 0.08856-0.58815 0.17514-1 0.28125-0.41186 0.10611-0.89461 0.1875-1.4375 0.1875-0.92908 1e-6 -1.699-0.20921-2.3125-0.625-0.61351-0.41578-1.1008-0.94793-1.4688-1.5938-0.368-0.64582-0.63229-1.3553-0.78125-2.125-0.14896-0.76974-0.21876-1.4974-0.21875-2.1875h7.4375c-1e-5 -0.54862-0.0423-1.1261-0.15625-1.7188-0.11394-0.59262-0.34571-1.1296-0.6875-1.625-0.3418-0.49542-0.83787-0.90906-1.4688-1.2188-0.63089-0.30967-1.4661-0.46874-2.5-0.46875zm-0.0937 0.90625c0.45571 1.2e-5 0.83563 0.09072 1.125 0.25 0.28936 0.15931 0.51234 0.3507 0.6875 0.625 0.17517 0.27432 0.28222 0.60616 0.34375 0.96875 0.0615 0.36261 0.0937 0.76254 0.0937 1.1875h-4.7812c-1e-5 -0.26566 0.0461-0.56119 0.125-0.90625 0.0789-0.34504 0.22225-0.69031 0.40625-1 0.18399-0.30967 0.42586-0.56012 0.75-0.78125 0.32414-0.22111 0.74186-0.34374 1.25-0.34375z"/>
  <path d="m131.11 64.982c0.38564 0 0.7055-0.03537 0.95956-0.10611 0.25407-0.07074 0.45558-0.19021 0.60455-0.35841 0.14895-0.1682 0.25406-0.40269 0.3153-0.70346 0.0612-0.30077 0.0919-0.68118 0.0919-1.1413v-6.2368c0-0.47788-0.0526-0.85397-0.15766-1.1283-0.1051-0.2743-0.24965-0.48665-0.43365-0.63705-0.184-0.15037-0.39434-0.2477-0.63102-0.292-0.23668-0.04427-0.48633-0.06641-0.74895-0.06642v-0.58399l4.6269-0.63664v3.1322h0.0522c0.15779-0.26566 0.35061-0.5798 0.57846-0.9424 0.22786-0.36259 0.51709-0.70764 0.86771-1.0351 0.3506-0.32749 0.75818-0.6018 1.2227-0.82293 0.46452-0.22111 1.0121-0.33167 1.6427-0.33168 0.66645 1.3e-5 1.2099 0.08843 1.6303 0.26527 0.42041 0.17686 0.74454 0.42457 0.97241 0.74315 0.22785 0.3186 0.38122 0.6947 0.46013 1.1283 0.0789 0.43362 0.11833 0.898 0.11834 1.3932v6.0513c-1e-5 0.46007 0.0307 0.84048 0.0923 1.1413 0.0615 0.30077 0.16672 0.53526 0.3157 0.70346 0.14895 0.16821 0.35046 0.28768 0.60454 0.35841 0.25405 0.07074 0.57391 0.10611 0.95957 0.10611v0.58399h-6.599v-0.58399c0.38564 0 0.7055-0.03537 0.95957-0.10611 0.25406-0.07074 0.45557-0.19021 0.60454-0.35841 0.14895-0.1682 0.25419-0.40269 0.31571-0.70346 0.0615-0.30077 0.0923-0.68118 0.0923-1.1413v-3.9016c-1e-5 -0.79593-0.0264-1.4593-0.079-1.9901-0.0527-0.53079-0.1447-0.94658-0.276-1.2474-0.13132-0.30076-0.30663-0.51311-0.52591-0.63704-0.21932-0.12392-0.48648-0.18588-0.80151-0.18589-0.38566 1.1e-5 -0.76689 0.1504-1.1437 0.45116-0.37683 0.30078-0.71861 0.67674-1.0254 1.1279-0.30675 0.45116-0.55654 0.93337-0.74936 1.4466-0.19282 0.51326-0.28923 0.97319-0.28923 1.3798v3.5566c0 0.46007 0.0306 0.84048 0.0919 1.1413 0.0612 0.30077 0.16634 0.53526 0.31531 0.70346 0.14895 0.16821 0.3506 0.28768 0.60494 0.35841 0.25432 0.07074 0.57431 0.10611 0.95996 0.10611v0.58399h-6.599z"/>
  <path d="m151.61 53.088c-0.54344 1.3e-5 -1.0866 0.05016-1.6562 0.15625-0.56964 0.10612-1.0982 0.27889-1.5625 0.5-0.46427 0.22113-0.82681 0.49871-1.125 0.84375-0.2982 0.34506-0.46875 0.77212-0.46875 1.25 0 0.46008 0.15318 0.77889 0.46875 1 0.31557 0.22113 0.66325 0.34376 1.0312 0.34375 0.40329 9e-6 0.71342-0.0907 0.90625-0.25 0.19282-0.15929 0.31879-0.33273 0.40625-0.5625 0.0874-0.22975 0.16606-0.49802 0.21875-0.78125 0.0527-0.28321 0.14488-0.55121 0.25-0.78125 0.10509-0.23002 0.25828-0.40319 0.46875-0.5625 0.21047-0.15928 0.53069-0.24999 0.96875-0.25 0.45571 1.2e-5 0.786 0.12264 1.0312 0.34375 0.24523 0.22114 0.44857 0.49871 0.5625 0.84375 0.11392 0.34506 0.16985 0.71786 0.1875 1.125 0.0177 0.40716 0.0312 0.77132 0.0312 1.125v1.3438c-0.28029 0.01783-0.64659 0.03605-1.0938 0.0625-0.44716 0.02647-0.92055 0.09004-1.4375 0.1875-0.51695 0.09747-1.0592 0.23805-1.5938 0.40625-0.53461 0.16821-1.0083 0.38674-1.4375 0.6875-0.42925 0.30078-0.79079 0.66042-1.0625 1.0938-0.27171 0.43334-0.40625 0.97439-0.40625 1.5938 0 0.42497 0.0884 0.81599 0.28125 1.1875 0.19282 0.37151 0.46593 0.69444 0.78125 0.96875 0.31531 0.27431 0.68164 0.50586 1.0938 0.65625 0.41213 0.15039 0.82606 0.21875 1.2812 0.21875 0.49101 0 0.92686-0.08591 1.3125-0.21875 0.38563-0.13284 0.73331-0.283 1.0312-0.46875 0.29791-0.18575 0.54835-0.38154 0.75-0.59375s0.39111-0.38924 0.53125-0.53125c0.0524 0.21276 0.11742 0.43513 0.1875 0.65625 0.0701 0.22112 0.16353 0.42582 0.3125 0.59375 0.14895 0.16794 0.34823 0.29987 0.59375 0.40625 0.24549 0.10638 0.56599 0.15625 0.96875 0.15625 0.56108 0 1.0569-0.03644 1.4688-0.125 0.41184-0.08856 0.82551-0.20227 1.2812-0.34375v-0.6875c-0.17545 0.05292-0.33368 0.10307-0.5 0.15625-0.16636 0.05319-0.32458 0.09375-0.5 0.09375-0.43807 1e-6 -0.76207-0.1725-0.9375-0.5-0.17545-0.3275-0.25002-0.90499-0.25-1.7188v-5.2812c-1e-5 -0.76083-0.0786-1.3889-0.21875-1.9375-0.14014-0.54861-0.37698-1.0213-0.71875-1.375-0.34181-0.35368-0.78294-0.61303-1.3438-0.78125-0.56082-0.16819-1.2701-0.24999-2.0938-0.25zm1.7188 6.6562v1.5625c-1e-5 0.97359-0.2318 1.6969-0.6875 2.2188-0.45572 0.5219-1.0589 0.78125-1.8125 0.78125-0.5611 1e-6 -0.97855-0.15974-1.25-0.53125s-0.40624-0.83022-0.40625-1.3438c0-0.61936 0.15823-1.1151 0.5-1.4688 0.34178-0.35368 0.76329-0.60413 1.2188-0.78125 0.45544-0.17711 0.91045-0.29082 1.375-0.34375 0.46453-0.05291 0.817-0.09374 1.0625-0.09375z"/>
  <path d="m165.92 65.539c-0.49048 0.19493-0.98979 0.2924-1.4979 0.2924-0.57875 0-1.1266-0.03537-1.6435-0.10611-0.51696-0.07074-0.96826-0.22558-1.3539-0.46452s-0.69239-0.58845-0.92024-1.0485c-0.22787-0.46006-0.34179-1.0794-0.34179-1.8581v-7.9094h-2.1293v-0.74275c0.7713 1.3e-5 1.411-0.15483 1.9191-0.46452 0.50812-0.30967 0.91115-0.69454 1.2091-1.1546 0.29792-0.46005 0.51268-0.96872 0.64426-1.526 0.13157-0.55725 0.21475-1.0926 0.24951-1.6062h0.76301v4.4063h3.4178v1.0878h-3.4178v7.9094c-1e-5 0.8845 0.18399 1.486 0.55199 1.8046 0.36798 0.31859 0.89377 0.47789 1.5773 0.47789 0.33269 1e-6 0.65682-0.05292 0.9724-0.15876z"/>
  <path d="m172.62 53.088c-1.9106 1.3e-5 -3.3298 0.51846-4.25 1.5625-0.92025 1.0441-1.375 2.6542-1.375 4.8125 0 2.1589 0.45475 3.7684 1.375 4.8125s2.3394 1.5625 4.25 1.5625c1.91 0 3.3298-0.51844 4.25-1.5625 0.92025-1.0441 1.375-2.6536 1.375-4.8125-2e-5 -2.1583-0.45475-3.7684-1.375-4.8125-0.92025-1.044-2.34-1.5625-4.25-1.5625zm0 0.90625c0.57819 1.2e-5 1.0468 0.15908 1.4062 0.46875 0.35942 0.30969 0.64236 0.71442 0.84375 1.2188 0.20137 0.50435 0.33617 1.0953 0.40625 1.75 0.0701 0.65474 0.0937 1.3239 0.0937 2.0312-1e-5 0.70792-0.0237 1.3765-0.0937 2.0312-0.0701 0.65473-0.20488 1.2457-0.40625 1.75-0.20139 0.50434-0.48434 0.90907-0.84375 1.2188-0.35945 0.30968-0.82806 0.46875-1.4062 0.46875-0.57875 1e-6 -1.0471-0.15907-1.4062-0.46875-0.35918-0.30968-0.64212-0.7144-0.84375-1.2188-0.20165-0.50434-0.33619-1.0953-0.40625-1.75-0.0701-0.65472-0.0938-1.3233-0.0937-2.0312 0-0.70737 0.0237-1.3765 0.0937-2.0312 0.0701-0.65472 0.20459-1.2456 0.40625-1.75 0.20164-0.50433 0.48458-0.90906 0.84375-1.2188 0.35916-0.30967 0.8275-0.46874 1.4062-0.46875z"/>
  <path d="m116.69 73.712-4.6562 0.65625v0.5625c0.26315 1.7e-5 0.51331 0.01851 0.75 0.0625 0.23667 0.04403 0.47225 0.16213 0.65625 0.3125 0.184 0.1504 0.33239 0.3507 0.4375 0.625 0.10509 0.27433 0.15624 0.64713 0.15625 1.125v4.5312h-0.0625c-0.1225-0.19438-0.26235-0.40386-0.4375-0.625-0.17519-0.22111-0.39337-0.43032-0.65625-0.625-0.2629-0.19465-0.5869-0.34481-0.9375-0.46875-0.35062-0.12391-0.75899-0.18749-1.25-0.1875-0.91089 1.3e-5 -1.6814 0.17278-2.3125 0.5-0.63115 0.32724-1.1683 0.76868-1.5625 1.3438-0.3942 0.57509-0.66832 1.2615-0.84375 2.0312-0.17545 0.76975-0.25 1.5977-0.25 2.5 0 0.77866 0.0648 1.5517 0.1875 2.3125 0.12276 0.76084 0.32328 1.4297 0.65625 2.0312 0.33295 0.60154 0.79653 1.097 1.375 1.4688 0.57846 0.37178 1.325 0.5625 2.2188 0.5625 0.57818 0 1.0793-0.07701 1.5-0.21875 0.42068-0.14175 0.77311-0.31013 1.0625-0.53125 0.28935-0.22112 0.51737-0.46226 0.71875-0.71875 0.20137-0.25649 0.39111-0.50654 0.53125-0.71875h0.0625v2.1875l4.625-0.65625v-0.5625c-0.26264 1e-6 -0.51333-0.01849-0.75-0.0625-0.2367-0.04401-0.47227-0.16184-0.65625-0.3125-0.184-0.15066-0.30116-0.35095-0.40625-0.625-0.10511-0.27404-0.15626-0.64711-0.15625-1.125zm-5.3125 7.25c0.50865 1.1e-5 0.90821 0.11373 1.25 0.34375 0.34178 0.23004 0.61112 0.5664 0.8125 1 0.20137 0.43362 0.34977 0.96576 0.4375 1.5938 0.0877 0.62801 0.15624 1.3425 0.15625 2.1562-1e-5 0.63718-0.055 1.2598-0.125 1.8438-0.0701 0.584-0.18219 1.0801-0.375 1.5312-0.19284 0.45116-0.46189 0.82835-0.8125 1.0938s-0.80032 0.375-1.3438 0.375c-0.54291 1e-6 -1.0156-0.0959-1.375-0.34375s-0.63355-0.62025-0.84375-1.0625c-0.2102-0.44224-0.34977-0.94726-0.4375-1.5312-0.0877-0.58399-0.15626-1.2161-0.15625-1.9062-1e-5 -0.61935 0.0685-1.2333 0.15625-1.8438 0.0877-0.61044 0.2273-1.1474 0.4375-1.625s0.48432-0.88672 0.84375-1.1875c0.35943-0.30076 0.83209-0.43748 1.375-0.4375z"/>
  <path d="m125.25 79.681c-1.7704 1.3e-5 -3.116 0.49544-4.0625 1.4688-0.94646 0.97333-1.4375 2.4519-1.4375 4.4688 0 2.2118 0.55705 3.9034 1.6875 5.0625 1.1305 1.1591 2.7169 1.75 4.75 1.75 0.87665 0 1.633-0.09549 2.2812-0.28125 0.64827-0.18576 1.0982-0.31769 1.3438-0.40625v-0.96875c-0.24551 0.08856-0.5569 0.2064-0.96875 0.3125-0.41185 0.10611-0.89462 0.15625-1.4375 0.15625-0.92909 1e-6 -1.699-0.20921-2.3125-0.625-0.61351-0.41578-1.1008-0.94793-1.4688-1.5938-0.368-0.64582-0.63229-1.3553-0.78125-2.125-0.14898-0.76974-0.21875-1.4974-0.21875-2.1875h7.4375c-1e-5 -0.54861-0.0736-1.1261-0.1875-1.7188-0.11394-0.59262-0.31448-1.1296-0.65625-1.625-0.34179-0.49542-0.83788-0.90906-1.4688-1.2188-0.63089-0.30967-1.4661-0.46874-2.5-0.46875zm-0.0937 0.90625c0.45571 1.2e-5 0.80435 0.09071 1.0938 0.25 0.28936 0.15931 0.54356 0.38195 0.71875 0.65625 0.17515 0.27432 0.28223 0.57491 0.34375 0.9375 0.0615 0.36261 0.0937 0.76254 0.0937 1.1875h-4.7812c0-0.26566 0.0461-0.56119 0.125-0.90625 0.0789-0.34504 0.19099-0.69031 0.375-1 0.18399-0.30967 0.4571-0.56011 0.78125-0.78125 0.32412-0.22111 0.74186-0.34374 1.25-0.34375z"/>
  <path d="m130.93 91.578c0.38564 0 0.7055-0.03537 0.95957-0.10611 0.25406-0.07074 0.45557-0.19021 0.60454-0.35841 0.14896-0.1682 0.25406-0.40269 0.31531-0.70346 0.0612-0.30077 0.0919-0.68118 0.0919-1.1413v-12.209c0-0.47787-0.0525-0.85397-0.15765-1.1283-0.10511-0.27429-0.24966-0.48664-0.43365-0.63704-0.184-0.15037-0.39434-0.24757-0.63102-0.29159-0.23668-0.04399-0.48634-0.066-0.74896-0.06601v-0.584l4.6269-0.63745v15.553c-1e-5 0.46007 0.0306 0.84049 0.0919 1.1413 0.0612 0.30077 0.16634 0.53526 0.31531 0.70346 0.14896 0.16821 0.35061 0.28768 0.60495 0.35841 0.25432 0.07074 0.57431 0.10611 0.95997 0.10611v0.58399h-6.599z"/>
  <path d="m137.94 91.578c0.38564 0 0.7055-0.03537 0.95957-0.10611 0.25406-0.07074 0.45558-0.19021 0.60454-0.35841s0.25406-0.40269 0.31531-0.70346c0.0612-0.30077 0.0919-0.68118 0.0919-1.1413v-12.209c0-0.47787-0.0525-0.85397-0.15765-1.1283-0.10511-0.27429-0.24966-0.48664-0.43366-0.63704-0.18399-0.15037-0.39433-0.24757-0.63101-0.29159-0.23668-0.04399-0.48634-0.066-0.74896-0.06601v-0.584l4.6269-0.63745v15.553c-1e-5 0.46007 0.0306 0.84049 0.0919 1.1413 0.0612 0.30077 0.16634 0.53526 0.31531 0.70346 0.14896 0.16821 0.35061 0.28768 0.60495 0.35841 0.25431 0.07074 0.57431 0.10611 0.95996 0.10611v0.58399h-6.599z"/>
  <path d="m151.43 79.681c-0.54343 1.3e-5 -1.0866 0.05016-1.6562 0.15625-0.56964 0.10612-1.0982 0.27889-1.5625 0.5-0.46428 0.22113-0.82681 0.49872-1.125 0.84375-0.2982 0.34506-0.46876 0.77212-0.46875 1.25-1e-5 0.46007 0.15318 0.77888 0.46875 1 0.31557 0.22113 0.66325 0.34376 1.0312 0.34375 0.4033 9e-6 0.71342-0.0907 0.90625-0.25 0.19282-0.15929 0.31879-0.33273 0.40625-0.5625 0.0874-0.22975 0.16606-0.49802 0.21875-0.78125 0.0527-0.28321 0.14489-0.5512 0.25-0.78125 0.1051-0.23002 0.25827-0.4032 0.46875-0.5625 0.21046-0.15928 0.53068-0.24999 0.96875-0.25 0.45571 1.2e-5 0.81725 0.12264 1.0625 0.34375 0.24523 0.22114 0.41731 0.49871 0.53125 0.84375 0.11391 0.34506 0.16983 0.71786 0.1875 1.125 0.0176 0.40716 0.0312 0.80257 0.0312 1.1562v1.3125c-0.28028 0.01783-0.64662 0.03605-1.0938 0.0625-0.44717 0.02647-0.92055 0.09004-1.4375 0.1875-0.51696 0.09747-1.0592 0.23806-1.5938 0.40625-0.53461 0.16821-1.0083 0.38673-1.4375 0.6875-0.42925 0.30078-0.79079 0.69167-1.0625 1.125-0.27173 0.43334-0.40625 0.94314-0.40625 1.5625 0 0.42497 0.11968 0.81599 0.3125 1.1875s0.43468 0.69444 0.75 0.96875c0.31531 0.27431 0.68161 0.50586 1.0938 0.65625 0.41212 0.15038 0.85731 0.21875 1.3125 0.21875 0.49102 0 0.92686-0.05466 1.3125-0.1875s0.70207-0.31425 1-0.5c0.29792-0.18575 0.54835-0.38153 0.75-0.59375 0.20164-0.21221 0.39111-0.38923 0.53125-0.53125 0.0524 0.21276 0.11742 0.43513 0.1875 0.65625 0.0701 0.22112 0.16353 0.42581 0.3125 0.59375 0.14895 0.16794 0.34824 0.29988 0.59375 0.40625 0.2455 0.10638 0.56597 0.15625 0.96875 0.15625 0.56107 0 1.0569-0.03644 1.4688-0.125 0.41184-0.08856 0.85677-0.20228 1.3125-0.34375v-0.6875c-0.17545 0.05292-0.36492 0.10306-0.53125 0.15625-0.16635 0.05319-0.32457 0.09375-0.5 0.09375-0.43808 1e-6 -0.76208-0.1725-0.9375-0.5-0.17545-0.3275-0.25001-0.87374-0.25-1.6875v-5.2812c-1e-5 -0.76083-0.0786-1.4201-0.21875-1.9688-0.14014-0.54861-0.37697-1.0213-0.71875-1.375-0.34179-0.35368-0.78295-0.61303-1.3438-0.78125-0.56082-0.16819-1.27-0.24999-2.0938-0.25zm1.7188 6.6562v1.5625c-1e-5 0.97359-0.23179 1.6969-0.6875 2.2188-0.45572 0.5219-1.0589 0.78125-1.8125 0.78125-0.56109 1e-6 -0.97857-0.15974-1.25-0.53125-0.27146-0.37151-0.40625-0.83022-0.40625-1.3438 0-0.61936 0.15822-1.1151 0.5-1.4688 0.34179-0.35368 0.7633-0.60413 1.2188-0.78125 0.45543-0.17711 0.91046-0.29082 1.375-0.34375 0.46453-0.05291 0.81697-0.09374 1.0625-0.09375z"/>
  <path d="m166.05 74.494v0.65625c0.47336 1.7e-5 0.83589 0.03194 1.125 0.09375 0.28909 0.06185 0.52973 0.16692 0.6875 0.34375 0.15779 0.17686 0.25126 0.45376 0.3125 0.78125 0.0612 0.32752 0.0937 0.73703 0.0937 1.25v11.406c-1e-5 0.51353-0.0325 0.95402-0.0937 1.2812s-0.1547 0.57315-0.3125 0.75c-0.15778 0.17685-0.39841 0.28165-0.6875 0.34375-0.28911 0.0621-0.65164 0.09375-1.125 0.09375v0.65625h7.3438v-0.65625c-0.47338 0-0.86716-0.03165-1.1562-0.09375-0.28911-0.0621-0.49846-0.16691-0.65625-0.34375-0.1578-0.17684-0.25128-0.42277-0.3125-0.75-0.0613-0.32723-0.0937-0.76772-0.0937-1.2812v-5.0938h1.5938l4.625 8.2188h4.0312v-0.65625c-0.35036 0-0.64716-0.03645-0.875-0.125-0.22788-0.08856-0.4546-0.24284-0.65625-0.4375-0.20166-0.19466-0.37851-0.42688-0.5625-0.71875-0.184-0.29186-0.39716-0.63753-0.625-1.0625l-3.125-5.625c0.52578-0.10583 1.0181-0.22912 1.5-0.40625 0.48191-0.1771 0.9218-0.4451 1.2812-0.78125 0.35942-0.33613 0.6247-0.77278 0.84375-1.3125 0.21902-0.5397 0.34374-1.2449 0.34375-2.0938-1e-5 -0.88502-0.21317-1.6124-0.625-2.1875-0.41187-0.57507-0.92281-1.0076-1.5625-1.3438-0.63972-0.33612-1.3588-0.58617-2.1562-0.71875-0.79751-0.13255-1.5861-0.18749-2.375-0.1875zm6.7812 1.2188c0.52577 1.6e-5 1.013 0.05016 1.4688 0.15625 0.4557 0.10612 0.85454 0.2882 1.1875 0.5625 0.33295 0.27433 0.58842 0.6337 0.78125 1.0938 0.19281 0.46008 0.28124 1.0421 0.28125 1.75-2e-5 1.2209-0.33409 2.1255-1 2.6562-0.66593 0.53081-1.5896 0.78126-2.7812 0.78125h-1.5938v-5.0938c0-0.37149-4e-3 -0.6899 0.0312-0.9375 0.035-0.24757 0.1048-0.44308 0.21875-0.59375 0.11393-0.15064 0.28096-0.25956 0.5-0.3125 0.21903-0.0529 0.53825-0.06248 0.90625-0.0625z"/>
  <path d="m188.05 79.681c-1.7704 1.3e-5 -3.116 0.49544-4.0625 1.4688-0.94646 0.97333-1.4375 2.4519-1.4375 4.4688 0 2.2118 0.58829 3.9034 1.7188 5.0625 1.1304 1.1591 2.7169 1.75 4.75 1.75 0.87664 0 1.633-0.09549 2.2812-0.28125 0.64827-0.18576 1.0982-0.31769 1.3438-0.40625v-0.96875c-0.24552 0.08856-0.58817 0.2064-1 0.3125-0.41187 0.10611-0.89462 0.15625-1.4375 0.15625-0.9291 1e-6 -1.699-0.20921-2.3125-0.625-0.61351-0.41578-1.1008-0.94793-1.4688-1.5938-0.36799-0.64582-0.63228-1.3553-0.78125-2.125-0.14897-0.76974-0.21874-1.4974-0.21875-2.1875h7.4375c-2e-5 -0.54861-0.0423-1.1261-0.15625-1.7188-0.11393-0.59262-0.34573-1.1296-0.6875-1.625-0.34179-0.49542-0.83787-0.90906-1.4688-1.2188-0.63089-0.30967-1.4661-0.46874-2.5-0.46875zm-0.0937 0.90625c0.45571 1.2e-5 0.83564 0.09071 1.125 0.25 0.28936 0.15931 0.5123 0.38195 0.6875 0.65625 0.17515 0.27432 0.28223 0.57491 0.34375 0.9375 0.0615 0.36261 0.0937 0.76254 0.0937 1.1875h-4.7812c0-0.26566 0.0461-0.56119 0.125-0.90625 0.0789-0.34504 0.22226-0.69031 0.40625-1 0.18399-0.30967 0.42586-0.56011 0.75-0.78125 0.32412-0.22111 0.74188-0.34374 1.25-0.34375z"/>
  <path d="m198.17 79.681-4.6562 0.65625v0.5625c0.26315 1.1e-5 0.51358 0.01823 0.75 0.0625 0.23641 0.04429 0.47199 0.16212 0.65625 0.3125 0.18427 0.1504 0.3324 0.3507 0.4375 0.625 0.1051 0.27432 0.15625 0.64712 0.15625 1.125v11.812c0 0.46006-0.0322 0.85548-0.0937 1.1562-0.0615 0.30077-0.16353 0.5419-0.3125 0.71875-0.14896 0.17684-0.37093 0.30426-0.625 0.375-0.25407 0.07073-0.58311 0.09375-0.96875 0.09375v0.59375h6.625v-0.59375c-0.38565-5e-6 -0.71469-0.02302-0.96875-0.09375-0.25407-0.07074-0.4448-0.19816-0.59375-0.375-0.14897-0.17685-0.28224-0.41798-0.34375-0.71875-0.0615-0.30077-0.0625-0.69619-0.0625-1.1562v-4.2812h0.0312c0.15779 0.19494 0.31097 0.40388 0.46875 0.625 0.15779 0.22112 0.37977 0.408 0.625 0.59375 0.24524 0.18576 0.5468 0.34482 0.90625 0.46875 0.35943 0.12392 0.80085 0.1875 1.3438 0.1875 0.94672 0 1.7391-0.18208 2.3438-0.5625 0.60466-0.38042 1.0556-0.88064 1.4062-1.5 0.35059-0.61936 0.61866-1.3329 0.75-2.0938 0.1313-0.76083 0.18749-1.5026 0.1875-2.2812-1e-5 -0.77865-0.0698-1.5606-0.21875-2.3125-0.14897-0.75192-0.40823-1.4386-0.75-2.0312-0.34179-0.59262-0.79176-1.0434-1.3438-1.4062-0.552-0.36286-1.2388-0.56249-2.0625-0.5625-0.56108 1.3e-5 -1.043 0.06838-1.4375 0.21875-0.39448 0.1504-0.71974 0.34139-1 0.5625-0.28028 0.22114-0.51711 0.47091-0.71875 0.71875-0.20165 0.24786-0.37348 0.44844-0.53125 0.625zm2.4688 1.5312c0.57873 1.1e-5 1.0471 0.12331 1.4062 0.40625 0.35916 0.28296 0.65091 0.66494 0.84375 1.125 0.19281 0.46008 0.31376 0.96509 0.375 1.5312 0.0612 0.56618 0.0937 1.1523 0.0937 1.7188-1e-5 0.76084-0.0101 1.4568-0.0625 2.0938-0.0524 0.63691-0.191 1.1736-0.375 1.625-0.184 0.45143-0.45308 0.80601-0.8125 1.0625-0.35944 0.25649-0.85525 0.375-1.4688 0.375-0.96385 1e-6 -1.6182-0.46378-1.9688-1.375-0.35062-0.91122-0.50001-2.1532-0.5-3.7812-1e-5 -1.5038 0.16803-2.6908 0.5625-3.5312 0.39447-0.84047 1.0301-1.25 1.9062-1.25z"/>
  <path d="m216.65 89.296h-0.053c-0.14015 0.26568-0.31973 0.57981-0.53876 0.94241s-0.48634 0.70319-0.80191 1.0218c-0.31558 0.31859-0.6924 0.5929-1.1304 0.82294-0.43808 0.23003-0.94647 0.34505-1.5252 0.34505-0.73599 0-1.3318-0.08856-1.7876-0.26567-0.45572-0.17711-0.81061-0.42483-1.0647-0.74315-0.25407-0.31832-0.42497-0.68983-0.51268-1.1145-0.0877-0.42469-0.13158-0.89353-0.13158-1.4065v-5.8658c0-0.47788-0.0526-0.85397-0.15765-1.1283-0.10511-0.2743-0.24966-0.48665-0.43365-0.63704-0.184-0.15037-0.39434-0.2477-0.63102-0.292-0.23668-0.04427-0.48634-0.06641-0.74896-0.06642v-0.58399l4.6269-0.63664v7.0597c-1e-5 0.79648 0.0306 1.4601 0.0919 1.9909 0.0612 0.53081 0.17076 0.94659 0.32855 1.2474 0.15778 0.30077 0.3637 0.51312 0.61778 0.63704 0.25406 0.12393 0.57391 0.18589 0.95956 0.18589 0.33322 2e-6 0.67515-0.15038 1.0258-0.45116 0.3506-0.30077 0.66162-0.67673 0.93308-1.1279 0.27144-0.45115 0.49488-0.93336 0.67033-1.4466 0.17543-0.51325 0.26315-0.97345 0.26316-1.3806v-3.3703c-1e-5 -0.47788-0.0527-0.85397-0.15805-1.1283-0.10538-0.2743-0.25007-0.48665-0.43406-0.63704-0.184-0.15037-0.39421-0.2477-0.63061-0.292-0.23643-0.04427-0.48622-0.06641-0.74936-0.06642v-0.58399l4.6269-0.63664v9.3957c-2e-5 0.47789 0.057 0.85385 0.17088 1.1279 0.11392 0.27404 0.26288 0.48639 0.44689 0.63705 0.18399 0.15066 0.39433 0.24799 0.63102 0.292 0.23667 0.04401 0.47776 0.06601 0.72328 0.06601v0.58399l-4.6269 0.63745z"/>
  <path d="m225.87 73.712-4.625 0.65625v0.5625c0.26263 1.7e-5 0.51332 0.01851 0.75 0.0625 0.23669 0.04403 0.44101 0.16213 0.625 0.3125 0.184 0.1504 0.33213 0.3507 0.4375 0.625 0.10537 0.27433 0.15625 0.64713 0.15625 1.125v15.094h0.8125l1.6875-1.4688c0.15779 0.1593 0.3296 0.32768 0.53125 0.53125 0.20165 0.20358 0.44704 0.41691 0.71875 0.59375 0.27172 0.17684 0.55563 0.31357 0.90625 0.4375 0.3506 0.12392 0.74942 0.1875 1.1875 0.1875 0.91142 0 1.6766-0.1862 2.2812-0.53125 0.60467-0.34505 1.1007-0.79101 1.4688-1.375 0.36798-0.58399 0.63226-1.2838 0.78125-2.0625 0.14895-0.77865 0.21872-1.5886 0.21875-2.4375-2e-5 -0.76083-0.0875-1.5204-0.21875-2.2812-0.13133-0.76083-0.36815-1.4294-0.71875-2.0312-0.35062-0.6018-0.8104-1.0972-1.4062-1.4688-0.59586-0.3715-1.3658-0.56249-2.3125-0.5625-0.50814 1.3e-5 -0.95307 0.06359-1.3125 0.1875-0.35945 0.12394-0.66102 0.28301-0.90625 0.46875-0.24525 0.18577-0.45839 0.39498-0.625 0.625-0.16662 0.23004-0.30142 0.44404-0.40625 0.65625h-0.0312zm2.5 7.25c0.50812 1.1e-5 0.92557 0.13195 1.25 0.40625 0.32439 0.27432 0.58868 0.65631 0.78125 1.125 0.19255 0.46871 0.32734 1.0146 0.40625 1.625 0.0789 0.61046 0.12499 1.2334 0.125 1.9062-1e-5 0.76084-0.0461 1.461-0.125 2.0625-0.0789 0.60154-0.20487 1.1066-0.40625 1.5312-0.20138 0.4247-0.48433 0.74763-0.84375 0.96875-0.35944 0.22112-0.83158 0.3125-1.375 0.3125-0.43808 1e-6 -0.79582-0.10481-1.0938-0.34375-0.29794-0.23894-0.53476-0.56666-0.71875-1-0.184-0.43333-0.32737-0.96068-0.40625-1.5625-0.0789-0.60181-0.0937-1.2614-0.0937-1.9688 0-0.79647 0.0148-1.5056 0.0937-2.125 0.0789-0.61935 0.21342-1.1515 0.40625-1.5938 0.19282-0.44224 0.45713-0.76996 0.78125-1 0.32413-0.23002 0.72773-0.34374 1.2188-0.34375z"/>
  <path d="m239.36 73.712-4.625 0.65625v0.5625c0.26263 1.7e-5 0.51331 0.01851 0.75 0.0625 0.23668 0.04403 0.44102 0.16213 0.625 0.3125 0.18401 0.1504 0.33213 0.3507 0.4375 0.625 0.10537 0.27433 0.15625 0.64713 0.15625 1.125v15.094h0.8125l1.6875-1.4688c0.15779 0.1593 0.3296 0.32768 0.53125 0.53125 0.20165 0.20358 0.44703 0.41691 0.71875 0.59375s0.55563 0.31357 0.90625 0.4375c0.3506 0.12392 0.74943 0.1875 1.1875 0.1875 0.91142 0 1.6766-0.1862 2.2812-0.53125 0.60467-0.34505 1.1008-0.79101 1.4688-1.375 0.36798-0.58399 0.63227-1.2838 0.78125-2.0625 0.14895-0.77865 0.21874-1.5886 0.21875-2.4375-2e-5 -0.76083-0.0874-1.5204-0.21875-2.2812-0.13132-0.76083-0.36814-1.4294-0.71875-2.0312-0.35062-0.6018-0.81042-1.0972-1.4062-1.4688-0.59586-0.3715-1.3658-0.56249-2.3125-0.5625-0.50814 1.3e-5 -0.95308 0.06359-1.3125 0.1875-0.35945 0.12394-0.66102 0.28301-0.90625 0.46875-0.24524 0.18577-0.4584 0.39498-0.625 0.625-0.16662 0.23004-0.30143 0.44404-0.40625 0.65625h-0.0312zm2.5 7.25c0.50812 1.1e-5 0.92558 0.13195 1.25 0.40625 0.32439 0.27432 0.58868 0.65631 0.78125 1.125 0.19254 0.46871 0.32735 1.0146 0.40625 1.625 0.0789 0.61046 0.12499 1.2334 0.125 1.9062-1e-5 0.76084-0.0461 1.461-0.125 2.0625-0.0789 0.60154-0.20487 1.1066-0.40625 1.5312-0.20138 0.4247-0.48432 0.74763-0.84375 0.96875-0.35944 0.22112-0.80033 0.3125-1.3438 0.3125-0.43807 1e-6 -0.82707-0.10481-1.125-0.34375s-0.53476-0.56666-0.71875-1c-0.18401-0.43333-0.32735-0.96068-0.40625-1.5625-0.0789-0.60181-0.0937-1.2614-0.0937-1.9688 0-0.79647 0.0149-1.5056 0.0937-2.125 0.0789-0.61935 0.24468-1.1515 0.4375-1.5938 0.19282-0.44224 0.42586-0.76996 0.75-1 0.32412-0.23002 0.72773-0.34374 1.2188-0.34375z"/>
  <path d="m248.79 91.578c0.38564 0 0.7055-0.03537 0.95957-0.10611 0.25406-0.07074 0.45558-0.19021 0.60454-0.35841s0.25407-0.40269 0.31531-0.70346c0.0612-0.30077 0.0919-0.68118 0.0919-1.1413v-12.209c-1e-5 -0.47787-0.0526-0.85397-0.15766-1.1283-0.10511-0.27429-0.24965-0.48664-0.43365-0.63704-0.184-0.15037-0.39434-0.24757-0.63102-0.29159-0.23668-0.04399-0.48633-0.066-0.74896-0.06601v-0.584l4.6269-0.63745v15.553c0 0.46007 0.0306 0.84049 0.0919 1.1413 0.0612 0.30077 0.16635 0.53526 0.31531 0.70346 0.14896 0.16821 0.35061 0.28768 0.60495 0.35841 0.25433 0.07074 0.57431 0.10611 0.95996 0.10611v0.58399h-6.599z"/>
  <path d="m259.44 74.212c-0.45572 1.8e-5 -0.84067 0.1817-1.1562 0.5-0.31559 0.31834-0.46876 0.6962-0.46875 1.1562-1e-5 0.4779 0.15317 0.86892 0.46875 1.1875 0.31557 0.3186 0.70052 0.46876 1.1562 0.46875 0.45571 1.4e-5 0.86335-0.15015 1.1875-0.46875 0.32412-0.31858 0.46876-0.7096 0.46875-1.1875 0-0.46005-0.14463-0.83792-0.46875-1.1562-0.32415-0.3183-0.7318-0.49998-1.1875-0.5zm1.2812 5.4688-4.625 0.65625v0.5625c0.26262 1.1e-5 0.51331 0.01823 0.75 0.0625 0.23669 0.04429 0.441 0.16212 0.625 0.3125 0.18399 0.1504 0.3324 0.3507 0.4375 0.625 0.1051 0.27432 0.15625 0.64712 0.15625 1.125v6.25c0 0.46007-0.0325 0.82423-0.0937 1.125s-0.16355 0.55055-0.3125 0.71875c-0.14897 0.16821-0.33942 0.27302-0.59375 0.34375-0.25434 0.07074-0.58363 0.125-0.96875 0.125v0.5625h6.5938v-0.5625c-0.38565 0-0.68345-0.05426-0.9375-0.125-0.25407-0.07074-0.47605-0.17554-0.625-0.34375-0.14897-0.1682-0.25127-0.41798-0.3125-0.71875-0.0612-0.30077-0.0937-0.66493-0.0937-1.125z"/>
  <path d="m272.87 91.791c-0.33324 0.1593-0.78026 0.30536-1.3411 0.4382-0.56082 0.13284-1.2357 0.19925-2.0246 0.19925-2.1031 0-3.6585-0.60613-4.6662-1.8184-1.0077-1.2123-1.5116-2.9154-1.5116-5.1093 0-0.79593 0.0964-1.5434 0.28923-2.2424 0.19282-0.699 0.49957-1.3139 0.92026-1.8447 0.42067-0.53079 0.97267-0.95103 1.656-1.2607 0.6833-0.30967 1.5157-0.46451 2.4972-0.46452 0.50866 1.3e-5 1.0171 0.06198 1.5252 0.18589 0.50813 0.12394 0.96384 0.30537 1.3672 0.5443 0.40328 0.23896 0.73196 0.5265 0.98603 0.86262 0.25406 0.33615 0.38109 0.71643 0.3811 1.1408-1e-5 0.49571-0.16649 0.85858-0.49944 1.0886-0.33297 0.23004-0.7011 0.34506-1.1044 0.34505-0.4033 8e-6 -0.70564-0.09732-0.90702-0.292-0.20139-0.19466-0.34594-0.42469-0.43365-0.6901-0.0877-0.26539-0.14041-0.53079-0.15805-0.7962-0.0177-0.26539-0.0527-0.4691-0.10511-0.61113-0.14014-0.4066-0.31972-0.65418-0.53875-0.74275-0.21904-0.08855-0.46013-0.13282-0.72328-0.13284-0.82371 1.2e-5 -1.4107 0.38488-1.7611 1.1546-0.35036 0.76976-0.52552 1.8358-0.52552 3.1982 0 0.67229 0.0657 1.3756 0.19697 2.11 0.1313 0.73438 0.35903 1.4112 0.68317 2.0306 0.32412 0.61936 0.76673 1.1325 1.3278 1.5394 0.56108 0.40688 1.2709 0.61032 2.1293 0.61032 0.47335 1e-6 0.92479-0.0486 1.3543-0.1458 0.42949-0.09719 0.75816-0.18116 0.98604-0.2519z"/>
  <path d="m279.55 79.681c-0.54344 1.3e-5 -1.1178 0.05016-1.6875 0.15625-0.56964 0.10612-1.067 0.27889-1.5312 0.5-0.46427 0.22113-0.85806 0.49872-1.1562 0.84375-0.2982 0.34506-0.4375 0.77212-0.4375 1.25 0 0.46007 0.15319 0.77888 0.46875 1 0.31558 0.22113 0.66326 0.34376 1.0312 0.34375 0.40329 9e-6 0.68216-0.0907 0.875-0.25 0.19281-0.15929 0.35003-0.33273 0.4375-0.5625 0.0874-0.22975 0.13481-0.49802 0.1875-0.78125 0.0527-0.28321 0.1449-0.5512 0.25-0.78125 0.1051-0.23002 0.25829-0.4032 0.46875-0.5625 0.21047-0.15928 0.53069-0.24999 0.96875-0.25 0.45571 1.2e-5 0.81727 0.12264 1.0625 0.34375 0.24523 0.22114 0.41732 0.49871 0.53125 0.84375 0.11392 0.34506 0.16984 0.71786 0.1875 1.125 0.0176 0.40716 0.0313 0.80257 0.0312 1.1562v1.3125c-0.28028 0.01783-0.64661 0.03605-1.0938 0.0625-0.44716 0.02647-0.92056 0.09004-1.4375 0.1875-0.51696 0.09747-1.0279 0.23806-1.5625 0.40625-0.5346 0.16821-1.0395 0.38673-1.4688 0.6875-0.42924 0.30078-0.75953 0.69167-1.0312 1.125-0.27172 0.43334-0.40626 0.94314-0.40625 1.5625 0 0.42497 0.0884 0.81599 0.28125 1.1875 0.19282 0.37151 0.43469 0.69444 0.75 0.96875s0.68161 0.50586 1.0938 0.65625c0.41212 0.15038 0.85732 0.21875 1.3125 0.21875 0.49101 0 0.92684-0.05466 1.3125-0.1875 0.38563-0.13284 0.73333-0.31425 1.0312-0.5 0.29792-0.18575 0.54833-0.38153 0.75-0.59375 0.20163-0.21221 0.35985-0.38923 0.5-0.53125 0.0524 0.21276 0.11743 0.43513 0.1875 0.65625 0.0701 0.22112 0.19478 0.42581 0.34375 0.59375 0.14896 0.16794 0.34824 0.29988 0.59375 0.40625 0.24549 0.10638 0.56597 0.15625 0.96875 0.15625 0.56108 0 1.0256-0.03644 1.4375-0.125 0.41184-0.08856 0.85678-0.20228 1.3125-0.34375v-0.6875c-0.17545 0.05292-0.33366 0.10306-0.5 0.15625-0.16635 0.05319-0.35584 0.09375-0.53125 0.09375-0.43808 1e-6 -0.73083-0.1725-0.90625-0.5-0.17545-0.3275-0.28125-0.87374-0.28125-1.6875v-5.2812c-1e-5 -0.76083-0.0474-1.4201-0.1875-1.9688-0.14015-0.54861-0.40822-1.0213-0.75-1.375-0.34179-0.35368-0.78295-0.61303-1.3438-0.78125-0.56083-0.16819-1.2388-0.24999-2.0625-0.25zm1.6875 6.6562v1.5625c0 0.97359-0.2318 1.6969-0.6875 2.2188-0.45572 0.5219-1.0589 0.78125-1.8125 0.78125-0.56109 1e-6 -0.97857-0.15974-1.25-0.53125-0.27146-0.37151-0.40626-0.83022-0.40625-1.3438-1e-5 -0.61936 0.18945-1.1151 0.53125-1.4688 0.34177-0.35368 0.73206-0.60413 1.1875-0.78125 0.45544-0.17711 0.91046-0.29082 1.375-0.34375 0.46453-0.05291 0.817-0.09374 1.0625-0.09375z"/>
 </g>
 <g transform="translate(-3.8901 -2.2247)" fill="#9c161c" stroke-width=".60602">
  <path d="m34.925 20.705c2.4199 5.2397 6.8693 8.2565 12.039 10.544 9.5709 4.2361 20.126 7.139 28.951 12.93 5.4894 3.6016 9.5418 8.4989 10.816 15.029 0.44846 2.298-0.05151 4.67 0.27635 6.8566-0.0024-0.01636-2.6495-17.632-31.633-25.701-25.7-9.2255-20.651-20.853-21.417-21.747 0.47573 0.55572 0.66784 1.4393 0.96721 2.0884zm4.7985 7.488c-0.443 0-0.80298 0.35937-0.80298 0.80298 0 0.443 0.35998 0.80298 0.80298 0.80298 0.44361 0 0.80359-0.35998 0.80359-0.80298 0-0.44361-0.35998-0.80298-0.80359-0.80298zm-2.9059-2.7277c-0.31998 0-0.58057 0.25998-0.58057 0.57996 0 0.31938 0.26059 0.57996 0.58057 0.57996 0.31937 0 0.57936-0.26059 0.57936-0.57996 0-0.31998-0.25998-0.57996-0.57936-0.57996zm31.985 16.353c-0.63996 0-1.1587 0.51815-1.1587 1.1581s0.51876 1.1587 1.1587 1.1587 1.1581-0.51876 1.1581-1.1587-0.51815-1.1581-1.1581-1.1581zm13.428 10.709c-0.43816 0-0.79328 0.35513-0.79328 0.79328s0.35513 0.79328 0.79328 0.79328c0.43755 0 0.79268-0.35513 0.79268-0.79328s-0.35574-0.79328-0.79268-0.79328zm2.4708 4.3119c-0.31816 0-0.57633 0.25877-0.57633 0.57633 0 0.31877 0.25817 0.57693 0.57633 0.57693 0.31877 0 0.57693-0.25817 0.57693-0.57693 0-0.31816-0.25817-0.57633-0.57693-0.57633zm-41.005-26.27c-0.77268 0-1.4005 0.62663-1.4005 1.4005 0 0.77389 0.62723 1.4011 1.4005 1.4011 0.77329 0 1.4005-0.62724 1.4005-1.4011 0-0.77389-0.62723-1.4005-1.4005-1.4005zm4.0149 2.4429c-0.64057 0-1.1587 0.51815-1.1587 1.1587 0 0.63996 0.51815 1.1581 1.1587 1.1581 0.63996 0 1.1581-0.51815 1.1581-1.1581s-0.51876-1.1587-1.1581-1.1587zm4.8549 2.0696c-0.67632 0-1.2248 0.54845-1.2248 1.2254 0 0.67632 0.54845 1.2248 1.2248 1.2248 0.67693 0 1.2254-0.54845 1.2254-1.2248 6.06e-4 -0.67632-0.54784-1.2254-1.2254-1.2254zm5.4391 1.9423c-0.67693 0-1.2254 0.54845-1.2254 1.2254 0 0.67693 0.54845 1.2248 1.2254 1.2248 0.67632 0 1.2248-0.54785 1.2248-1.2248 0-0.67693-0.54845-1.2254-1.2248-1.2254zm5.5027 2.0078c-0.67632 0-1.2248 0.54845-1.2248 1.2248 0 0.67693 0.54845 1.2248 1.2248 1.2248 0.67693 0 1.2254-0.54785 1.2254-1.2248 0-0.67632-0.54845-1.2248-1.2254-1.2248zm10.424 5.5694c-0.64057 0-1.1587 0.51876-1.1587 1.1581 0 0.64057 0.51815 1.1587 1.1587 1.1587 0.63996 0 1.1575-0.51815 1.1575-1.1587 0-0.63875-0.51754-1.1581-1.1575-1.1581zm4.467 3.5483c-0.57572 0-1.0436 0.46724-1.0436 1.0424 0 0.57572 0.46724 1.043 1.0436 1.043 0.57512 0 1.043-0.46724 1.043-1.043 0-0.57572-0.46785-1.0424-1.043-1.0424z"/>
  <path d="m39.807 57.437s-6.7099 7.0153-6.7117 7.0178c-0.0085 0.0085-8.4601-4.2361-9.1182-4.5003-6.702-2.6804-15.003-5.7487-19.18 1.992-0.79086 1.466-1.0605 3.6155-0.82359 5.2718 0.42119 2.938 2.0987 5.4991 4.8161 6.6935 4.3113 1.8969 10.547 0.29998 14.655-1.4811 0.14666-0.06363 2.9113-1.6344 2.935-1.5878 6.06e-4 6.06e-4 2.8677 5.4809 1.6478 12.192 0.04969-0.27453-7.5286-0.34786-8.1801-0.28726-3.0247 0.28241-6.756 1.126-6.1748 4.9306 0.51088 3.3386 6.1808 1.5211 3.8961-2.2841 0.0709 0.14848-0.10302-0.1309 0 0 8.025-1.6344 18.684 2.8798 29.269 4.804 8.131 1.4775 6.8099 2.0981 16.769 2.6295 14.86 0.7945 23.908-10.028 28.181-22.809 1.5951-4.7706 2.0084-8.2625 1.1527-13.18-0.30301-1.7435-2.0635-5.699-2.9277-7.2505-1.7132-3.078-4.5331-5.4106-7.285-7.5286-5.1597-3.9713-10.724-6.9262-16.812-9.197-1.266-0.47149-2.538-0.97509-3.8349-1.3593l10.984-12.814c1.452 0.17029 2.9344 1.1593 4.5821 3.1362 11.053 13.265 16.449-0.94661 16.469-0.99994 0.6939-1.8326 0.67269-4.104 0.06485-5.9366-1.2733-3.8392-5.6263-6.745-9.6564-6.716-3.4434 0.024847-7.0226 2.5417-9.5134 4.7567 0.47452-0.42179-5.8342-5.4985-6.156-5.7197-11.273-7.745-34.051-7.4238-39.136 7.825-1.026 3.0768-1.6181 8.548-0.37816 11.643 2.7198 6.7893 9.3388 11.217 15.455 14.686 0.23756 0.13454 4.6209 2.6889 4.8409 2.3744-6.06e-4 6.06e-4 -1.369 1.949-1.369 1.949l2.9883 1.1024 1.4823-2.1423c36.246 13.674 30.644 31.302 30.644 31.302s-1.812 22.571-39.375 11.038c0-11.702-9.3909-20.099-9.3909-20.099l8.4813-7.6371zm-14.582 10.77c0.07454 0.15151-7.5159 2.7926-8.0565 2.9126-3.504 0.77692-8.1153 1.6387-10.065-2.2532-0.96721-1.9284-0.34604-5.5906 1.1284-6.9105 1.7956-1.6078 4.5931-2.0593 6.9196-1.8229 3.7701 0.3824 6.5135 3.1186 8.751 5.9621 0.5436 0.69026 0.94297 1.3442 1.323 2.112zm47.448-54.203c0 0.16484-1.4823 1.4823-1.4823 1.4823-6.9196-7.7426-10.709-7.2487-10.709-7.2487s5.7669 5.4372 7.9086 10.214l-1.6484 1.4829s-5.7663-11.532-14.003-13.674c-3.295-0.98721 11.862-1.812 19.935 7.7438zm-34.833 7.3662c9.3049 10.064 23.772 10.83 34.849 17.789 5.5366 3.4786 10.735 7.4105 14.206 13.085 4.2113 6.8844 3.4713 15.038-0.38301 21.894 0.49452-0.98842-0.16423-22.076-31.631-31.302 0 0-33.28-9.7206-20.593-29.325-1.4375 1.8514 2.455 6.6711 3.5531 7.8595zm-4.2125 63.312-2.801-0.65935s0-15.981-5.9305-21.088c18.122 8.7316 16.31 23.559 16.31 23.559l-2.4708-0.65875s0.4933-12.521-8.5674-17.134c4.7779 8.4025 3.4598 15.981 3.4598 15.981zm3.707-1.4823c0 0.77268-0.62724 1.4005-1.4005 1.4005s-1.4011-0.62724-1.4011-1.4005 0.62724-1.4005 1.4011-1.4005c0.77268 0 1.4005 0.62663 1.4005 1.4005zm-0.74177-4.284c0 0.54542-0.44179 0.98842-0.98842 0.98842s-0.98842-0.4424-0.98842-0.98842 0.44179-0.98903 0.98842-0.98903 0.98842 0.44361 0.98842 0.98903zm-1.6472-4.1191c0 0.27332-0.2212 0.49452-0.49452 0.49452-0.27271 0-0.4933-0.2212-0.4933-0.49452 0-0.27271 0.22059-0.49391 0.4933-0.49391 0.27332 0 0.49452 0.2212 0.49452 0.49391zm46.383-53.298c-0.12424-0.12545-0.24786-0.25089-0.37149-0.37452-1.8163-1.8229-3.8204-2.9416-5.8118-4.484 1.4823-1.6478 4.8603-3.5228 6.4251-4.2828 3.3525-0.77329 7.6874-0.94843 9.4885 2.5859 1.9926 3.9107-0.13696 9.1007-4.8518 9.2534-2.0884 0.06666-3.5125-1.3193-4.8785-2.698zm-11.785-5.8469c0 0.45512-0.36907 0.82359-0.82419 0.82359s-0.82359-0.36846-0.82359-0.82359c0-0.45512 0.36846-0.82298 0.82359-0.82298s0.82419 0.36786 0.82419 0.82298zm-2.3071-2.6362c0 0.36422-0.29453 0.65935-0.65935 0.65935-0.36301 0-0.65875-0.29513-0.65875-0.65935 0-0.36361 0.29574-0.65875 0.65875-0.65875 0.36483 0 0.65935 0.29574 0.65935 0.65875zm-2.6356 9.0613c0 0.0012-0.8248 2.3083-5.9305 7.7426-0.98661 1.0496-8.4589-3.3459-9.3867-3.844-4.4931-2.4108-9.7188-5.6572-11.728-10.645-0.47512-1.1811 0.51633-4.1288 1.1133-5.1821 0.82965-1.4629 2.1817-2.3362 3.7731-2.7998 3.0465-0.88843 6.6263-0.34543 9.4776 0.95206 4.7246 2.1496 8.3995 6.2996 10.993 10.69 0.23453 0.39998 1.8762 2.5629 1.6884 3.0871z"/>
  <path d="m78.77 15.816c0.60663 0.03636 2.1465-1.126 2.7665-1.3514 1.2327-0.44906 2.675-0.8951 4.0028-0.76904 4.6088 0.43876 5.1482 7.702 0.80844 7.8874-1.7611 0.07515-4.6131-2.6362-4.2828-3.624 2.6356 4.2828 5.2712 0.82298 4.2828-0.49452-1.4823-2.9659-4.7773-1.4829-7.5777-1.6484z"/>
  <path d="m39.559 57.662c-37.948-18.806-12.756-39.517-12.657-39.79-3.4604 19.111 21.044 27.394 21.367 27.543 0.32362 0.14908 2.6435 0.98903 3.175 1.1793 0.53209 0.19029 50.391 16.34 20.737 40.229 8.0722-14.003-28.575-27.276-29.174-27.529-0.85025-0.35937-3.4471-1.6326-3.4471-1.6326zm5.9312 6.06e-4s30.809 11.203 30.15 23.559c13.509-20.429-25.042-32.456-25.042-32.456s-24.878-7.5789-26.031-24.219c-13.509 19.441 20.924 33.115 20.924 33.115z"/>
  <path d="m51.914 52.226s27.678 8.4025 24.054 23.395c-0.32907-10.873-26.031-18.617-26.031-18.617s-31.796-12.686-25.371-27.184c3.9543 14.828 27.348 22.406 27.348 22.406zm21.912 15.388c-0.32725 0-0.5933 0.26544-0.5933 0.5933 0 0.32725 0.26544 0.5933 0.5933 0.5933s0.5933-0.26604 0.5933-0.5933c0-0.32846-0.26544-0.5933-0.5933-0.5933zm-3.0828-4.0549c-0.48724 0-0.88116 0.39513-0.88116 0.88176 0 0.48724 0.39392 0.88176 0.88116 0.88176s0.88176-0.39452 0.88176-0.88176c0-0.48603-0.39452-0.88176-0.88176-0.88176zm-4.0646-3.0822c-0.59693 0-1.0811 0.48421-1.0811 1.0811 0 0.59693 0.48421 1.0811 1.0811 1.0811s1.0811-0.48421 1.0811-1.0811c0-0.59693-0.48361-1.0811-1.0811-1.0811zm-10.109-4.967c-0.67632 0-1.2248 0.54845-1.2248 1.2248 0 0.67632 0.54845 1.2248 1.2248 1.2248 0.67693 0 1.2254-0.54845 1.2254-1.2248 0-0.67632-0.54845-1.2248-1.2254-1.2248zm-20.191-9.4837c-0.63996 0-1.1587 0.51815-1.1587 1.1581s0.51876 1.1587 1.1587 1.1587c0.63996 0 1.1581-0.51876 1.1581-1.1587s-0.51815-1.1581-1.1581-1.1581zm-7.6347-6.136c-0.44361 0-0.80298 0.35998-0.80298 0.80359 0 0.443 0.35937 0.80298 0.80298 0.80298 0.443 0 0.80238-0.35998 0.80238-0.80298 0-0.44361-0.35937-0.80359-0.80238-0.80359zm-2.7235-3.9004c-0.31816 0-0.57693 0.25817-0.57693 0.57694 0 0.31756 0.25877 0.57572 0.57693 0.57572 0.31756 0 0.57633-0.25817 0.57633-0.57572 0-0.31877-0.25877-0.57694-0.57633-0.57694zm6.0851 6.5578c-0.77268 0-1.4005 0.62663-1.4005 1.4005 0 0.77389 0.62724 1.4005 1.4005 1.4005s1.4011-0.62663 1.4011-1.4005c0-0.77389-0.62784-1.4005-1.4011-1.4005zm19.229 10.858c-0.67693 0-1.2254 0.54845-1.2254 1.2254 0 0.67632 0.54845 1.2248 1.2254 1.2248 0.67693 0 1.2248-0.54845 1.2248-1.2248 6.06e-4 -0.67693-0.54784-1.2254-1.2248-1.2254zm-5.5033-2.3956c-0.67632 0-1.2248 0.54845-1.2248 1.2254 0 0.67693 0.54845 1.2254 1.2248 1.2254 0.67693 0 1.2254-0.54845 1.2254-1.2254 0-0.67693-0.54845-1.2254-1.2254-1.2254zm-4.9203-2.3308c-0.67632 0-1.2248 0.54845-1.2248 1.2248 0 0.67693 0.54845 1.2254 1.2248 1.2254 0.67693 0 1.2248-0.54845 1.2248-1.2254 0-0.67632-0.54784-1.2248-1.2248-1.2248zm21.106 9.2079c-0.59693 0-1.0805 0.48361-1.0805 1.0811 0 0.59693 0.48361 1.0811 1.0805 1.0811 0.59754 0 1.0811-0.48421 1.0811-1.0811 0-0.59754-0.48361-1.0811-1.0811-1.0811z"/>
 </g>
</svg>
