<svg width="1050.7pt" height="875.89pt" version="1.1" viewBox="0 0 1050.7 875.89" xmlns="http://www.w3.org/2000/svg">
 <g transform="translate(-17.61 -33.043)" fill="#9aa1a9">
  <path d="m34.05 811.18c28.27-0.09 56.55-0.04 84.82-0.03-2.61 7.37-5.42 14.68-7.95 22.09-9.81 0.09-19.61-0.02-29.42 0.05-8.76 24.64-17.97 49.13-26.71 73.79-8.8 0.42-17.63 0.12-26.44 0.14 8.87-24.68 18.08-49.24 26.8-73.98-9.7 0.01-19.4 0.11-29.1-0.04 2.68-7.34 5.31-14.69 8-22.02z"/>
  <path d="m211.92 811.09c7.78 0.12 15.56-0.01 23.35 0.06-11.77 32.02-23.2 64.17-35.13 96.13-7.77-0.06-15.53 0.08-23.29-0.08 11.63-32.06 23.19-64.15 35.07-96.11z"/>
  <path d="m342.13 811.14c17.63-0.03 35.26 0.03 52.9-0.04 4.69-0.03 9.6 0.65 13.66 3.18 4.37 2.89 6.39 8.49 5.7 13.59-1.43 10.2-8.18 19.37-17.16 24.29-2.97 1.71-6.42 2.32-9.37 4.07 4.87 1.31 10.37 3.04 12.97 7.77 2.71 4.86 1.4 10.64-0.3 15.61-4.09 11.35-13.37 20.95-24.89 24.77-9.68 2.36-19.73 3.07-29.67 2.89h-38.78c11.56-32.08 23.31-64.08 34.94-96.13m20.05 17.82c-2.27 6.95-5.2 13.67-7.29 20.69 6.38-0.21 12.81 0.41 19.15-0.47 6.76-0.92 11.92-7.52 11.84-14.21 0.01-3.13-2.82-5.5-5.79-5.72-5.94-0.71-11.94-0.33-17.91-0.29m-13.68 37.27c-2.38 7.42-5.23 14.69-7.86 22.02 6.8-0.09 13.61 0.32 20.39-0.22 5.54-0.41 10.74-3.73 13.21-8.75 1.62-3.11 2.6-7.58-0.13-10.36-1.98-2.31-5.25-2.49-8.07-2.69-5.84-0.2-11.69-0.19-17.54 0z"/>
  <path d="m672.23 811.19c7.76-0.16 15.53 0.06 23.29-0.14-1.7 5.49-3.99 10.78-5.72 16.26-7.81 0.37-15.64 0.08-23.45 0.15 1.94-5.43 3.87-10.87 5.88-16.27z"/>
  <path d="m248.97 845.86c10.55-7.72 24.1-10.5 36.97-9.04 7.55 0.59 16.02 3.61 19.14 11.15 4.12 9.99 0.21 20.86-3.21 30.45-17.26 0.08-34.52 0.1-51.78-0.01-1.22 4.56-2.29 10.3 1.4 14.04 3.99 3.68 10.22 2.83 14.84 0.88 2.82-0.99 4.76-3.63 7.54-4.53 7.01 0.39 13.98 1.4 20.98 2.05-8.13 9.2-19.32 16.11-31.7 17.39-9.34 0.91-19.3 1.5-28.11-2.33-7.96-3.8-10.49-13.66-9.5-21.79 2.17-15.23 10.83-29.42 23.43-38.26m20.28 5.39c-7.47 2.43-12.28 9.32-15.23 16.25 9.31 0.12 18.62-0.13 27.92 0.15 1.26-4.18 2.45-8.97 0.45-13.09-2.64-4.45-8.7-4.7-13.14-3.31z"/>
  <path d="m119.69 845.73c9.3-6.71 20.94-9.72 32.33-9.18 6.59 0.28 13.73 1.1 19.04 5.39 4.75 3.79 6.57 10.15 6.35 16.03-0.37 7.09-2.51 13.95-5.12 20.51-17.25-0.03-34.51 0.04-51.76-0.04-0.9 4.29-2.17 9.42 0.85 13.2 3.04 3.87 8.57 3.86 12.9 2.63 3.74-0.84 6.69-3.4 9.66-5.64 7.05 0.73 14.09 1.45 21.15 2.08-3.68 5.09-9 8.81-14.3 12.06-9.92 5.57-21.7 6.56-32.86 5.94-5.9-0.45-12.42-1.46-16.66-5.98-4.99-5.31-6.16-13.2-4.97-20.16 2.57-14.71 11.12-28.31 23.39-36.84m16.24 7.27c-5.25 3.32-9.41 8.62-11.02 14.64 9.26-0.25 18.53-0.1 27.79-0.06 1.05-4.84 2.79-11.12-1.37-14.97-4.44-3.42-10.87-2.29-15.4 0.39z"/>
  <path d="m455.4 837.61c9.12-1.75 19.09-1.82 27.65 2.2 7.75 3.7 11.25 12.94 10.23 21.13-2.87 23.9-23.11 44.89-47.23 47.56-8.72 0.86-18.43 0.62-25.78-4.76-6.13-4.79-8.62-13.16-7.45-20.69 3.26-21.85 20.95-40.83 42.58-45.44m1.83 15.67c-9.61 1.93-15.41 11.08-18.34 19.75-1.79 5.29-3.7 12.05 0.25 16.84 3.74 4.02 10.15 3.17 14.56 0.78 7.38-3.94 11.21-11.95 13.74-19.55 1.51-4.63 2.67-10.12-0.04-14.54-2.2-3.3-6.53-4-10.17-3.28z"/>
  <path d="m532.02 838.83c10.78-2.85 22.12-2.76 33.14-1.59 5.09 0.54 10.88 2.22 13.36 7.15 2.14 5.02 1.14 10.79-0.4 15.84-2.92 8.33-5.99 16.61-9.04 24.9-2.5 7.16-5.96 14.32-5.28 22.13-7.35 0.02-14.7 0.03-22.05-0.01-0.22-3.45 0.5-6.83 1.18-10.17-5.85 4.43-12.11 8.7-19.38 10.35-7.11 1.64-14.85 2.37-21.84-0.1-5.07-1.66-8.11-7.21-7.36-12.39 1.5-10.58 9.43-19.82 19.62-23.01 13.36-4.34 27.75-4.98 40.8-10.41 1.4-2.65 2.31-6.25 0.65-8.95-3.39-3.01-8.44-2.03-12.54-1.52-4.84 0.56-8.61 3.96-11.35 7.76-7.19-0.46-14.31-1.57-21.46-2.39 4.85-8.3 12.57-15.04 21.95-17.59m-2.22 40.06c-4.73 1.48-9.42 4.93-10.22 10.14-0.66 2.77 1.13 5.98 3.99 6.56 5.84 1.21 11.86-0.96 16.57-4.36 6.01-4.29 8.6-11.68 10.5-18.5-6.86 2.35-13.95 3.94-20.84 6.16z"/>
  <path d="m623.93 849.68c4.42-5.2 9.23-10.92 16.15-12.66 4.75-1.32 9.84-0.13 13.9 2.55-4.78 5.72-9.08 11.84-13.91 17.53-3.13-1.29-6.67-2.22-9.96-0.91-6.06 2.08-9.85 7.78-12.76 13.17-6.34 12.11-9.71 25.47-15.06 37.99-7.73-0.2-15.46 0.01-23.19-0.12 8.24-23.05 16.83-45.98 25.02-69.04 7.28-0.12 14.56-0.08 21.85-0.04-1.16 3.45-2.77 6.75-3.62 10.29 0.4 0.31 1.18 0.93 1.58 1.24z"/>
  <path d="m728.44 837.65c9.58-1.78 20.26-2.07 29.03 2.81 7.15 4.01 10.03 12.87 9.06 20.68-2.85 23.24-22.11 43.67-45.41 47.1-8.47 1.15-17.65 1.13-25.36-3.03-7.64-4.35-11.01-13.82-9.66-22.25 3.33-21.73 20.84-40.58 42.34-45.31m0.09 16.1c-9.9 3.46-15 13.71-17.56 23.2-1.18 4.37-1.65 9.82 1.76 13.35 4.28 3.78 10.84 2.53 15.3-0.28 7.03-4.42 10.66-12.39 13.03-20.03 1.24-4.55 2.34-10.15-0.97-14.09-2.79-3.39-7.71-3.29-11.56-2.15z"/>
  <path d="m662.34 838.2c7.74-0.22 15.48 0.07 23.21-0.17-7.78 23.18-16.79 45.97-24.8 69.08-7.82 0.37-15.65 0.08-23.46 0.15 8.28-23.05 16.8-46 25.05-69.06z"/>
 </g>
 <g transform="translate(-5.6095 -20.803)" fill="#9aa1a9">
  <path d="m771.92 45.94c5.49-1.99 11.42-0.78 17.11-0.63 14.39 0.76 28.35 6.95 38.57 17.09 15.54 15.01 23.6 38.31 17.97 59.5-1.28 6.55-5.29 12.34-5.65 19.1-0.63 10.18 3.99 20.02 10.61 27.52 8.25 9.35 19.94 16.22 32.6 16.8 4.57 0.16 9.21 0.68 13.76 0.02 10.51-3.93 20.67-9.83 27.67-18.78 7.8-10.04 9.89-23.24 17.82-33.2 12.4-15.91 32.53-25.32 52.65-25.21 27.31-0.22 52.05 20.91 58.98 46.82 4.05 13.95 2.86 29.39-3.57 42.44-9.45 19.81-29.4 34.45-51.37 36.51-12.86 2.22-25.19-4.7-38.05-3.1-13.15 1.31-26.02 7.49-34.58 17.67-9.49 11.56-11.56 27.94-7.77 42.13 2.52 9.08 7.28 18.13 15.35 23.41 7.48 4.94 16.49 6.36 24.84 9.14 6.28 2.07 11.78 5.94 16.58 10.41 4.43 4.21 8.9 8.48 12.23 13.66 7.58 11.29 10.71 25.32 9.31 38.8-1.83 18.5-11.69 36.21-26.92 46.99-24.27 17.37-60.27 12.93-81.17-7.8-10.79-10.09-16.98-24.49-17.84-39.15-2-12.87 5.05-25.16 3.24-38.01-1.57-14.5-9.55-28.51-22.03-36.29-20.95-12.75-51.31-7.4-66.07 12.38-5.5 7.12-5.96 16.48-9.52 24.49-5.13 10.52-13.32 19.53-23.35 25.57-13.13 8.16-29.26 11.08-44.46 8.54-14.41-2.46-27.91-10.1-37.2-21.41-9.85-11.68-15.01-27.13-14.34-42.37 0.57-18.63 9.38-37.02 24.12-48.55 11.9-9.52 27.45-13.59 42.52-12.87 9.91 0.32 19.08 5.2 29.06 5.02 8.2201 0.10453 15.754-3.5929 22.747-7.565 1.3839-1.0125 1.5878-1.2953 3.8172-3.1359 7.5025-5.8638 12.991-14.194 16.136-23.139 7.3-21.06-2.59-46.53-22.16-57.18-7.96-4.49-17.25-6.11-24.9-11.19-14.57-9.84-24.66-26.01-27.18-43.4-4.28-25.66 9.57-52.9 32.57-64.88 5.59-3.02 11.86-4.25 17.87-6.15z"/>
  <path d="m38.95 381.16 39.54-116.55h596.71c-14.74 12.16-24.22 30.385-25.93 49.395-1.75 16.34 2.36 33.21 11.51 46.87-9.82-1.68-19.81-1.97-29.75-1.88-23.41 0.07-46.83-0.14-70.25 0.11l-35.23 104.05c25.81-0.03 51.62 0.04 77.43-0.04 18.69-0.3 38.21-2 54.89-11.19 14.96-8.34 25.96-22.77 31.59-38.81 3.18-8.35 4.61-17.39 3.6-26.29 6.04 3 12.84 3.52 19.23 5.31 15.92 7.41 34.79 7.53 51.19 1.56 14.86-5.29 27.57-16.19 35.3-29.92 5.25-8.64 4.79-19.74 11.26-27.76 8.84-11.44 23.6-16.94 37.77-16.93 1.52 0.63 3.21 1.59 3.8 3.23 5.28 15.7 4.82 32.82 1.09 48.81-7.49 32.65-26.28 62.24-51.57 84.05-14.13 12.7-30.81 22.26-48.28 29.56-12.52 5.32-25.61 9.06-38.6 13 18.96 4.58 38.34 9.39 54.96 20.04 11.79 7.36 21.91 17.98 26.97 31.08 6.76 16.52 6.37 35.03 2.82 52.26-6.97 33.28-23.71 64.25-46.97 88.96-20.68 22.18-45.92 40.13-73.78 52.12-17.31 6.97-35.78 10.51-54.2 13.09-20.99 2.66-42.02 5.05-63.1 6.8-8.64 0.71-17.3 1.0275-25.96 0.8975h-266.08l129.39-381.82h-41.38l-83.74 247.14-45.5 134.69h-153.13l129.45-381.82zm456.68 170.24-37.6 111.09c28.67 0.01 57.34 0 86.01 0 13.02 0.16 26.13-0.65 38.89-3.38 13.64-2.8 26.83-8.42 37.51-17.48 13.57-11.17 23.18-27.17 26.35-44.47 1.82-9.67 0.11-20.25-5.93-28.18-5.35-7.27-13.89-11.33-22.41-13.6-13.49-3.58-27.56-3.95-41.44-4.02-27.13 0.03-54.26-0.03-81.38 0.04z"/>
 </g>
 <g transform="translate(-26.05 -37.2)" fill="#fff">
  <path d="m34.05 811.18c28.27-0.09 56.55-0.04 84.82-0.03-2.61 7.37-5.42 14.68-7.95 22.09-9.81 0.09-19.61-0.02-29.42 0.05-8.76 24.64-17.97 49.13-26.71 73.79-8.8 0.42-17.63 0.12-26.44 0.14 8.87-24.68 18.08-49.24 26.8-73.98-9.7 0.01-19.4 0.11-29.1-0.04 2.68-7.34 5.31-14.69 8-22.02z"/>
  <path d="m211.92 811.09c7.78 0.12 15.56-0.01 23.35 0.06-11.77 32.02-23.2 64.17-35.13 96.13-7.77-0.06-15.53 0.08-23.29-0.08 11.63-32.06 23.19-64.15 35.07-96.11z"/>
  <path d="m342.13 811.14c17.63-0.03 35.26 0.03 52.9-0.04 4.69-0.03 9.6 0.65 13.66 3.18 4.37 2.89 6.39 8.49 5.7 13.59-1.43 10.2-8.18 19.37-17.16 24.29-2.97 1.71-6.42 2.32-9.37 4.07 4.87 1.31 10.37 3.04 12.97 7.77 2.71 4.86 1.4 10.64-0.3 15.61-4.09 11.35-13.37 20.95-24.89 24.77-9.68 2.36-19.73 3.07-29.67 2.89h-38.78c11.56-32.08 23.31-64.08 34.94-96.13m20.05 17.82c-2.27 6.95-5.2 13.67-7.29 20.69 6.38-0.21 12.81 0.41 19.15-0.47 6.76-0.92 11.92-7.52 11.84-14.21 0.01-3.13-2.82-5.5-5.79-5.72-5.94-0.71-11.94-0.33-17.91-0.29m-13.68 37.27c-2.38 7.42-5.23 14.69-7.86 22.02 6.8-0.09 13.61 0.32 20.39-0.22 5.54-0.41 10.74-3.73 13.21-8.75 1.62-3.11 2.6-7.58-0.13-10.36-1.98-2.31-5.25-2.49-8.07-2.69-5.84-0.2-11.69-0.19-17.54 0z"/>
  <path d="m672.23 811.19c7.76-0.16 15.53 0.06 23.29-0.14-1.7 5.49-3.99 10.78-5.72 16.26-7.81 0.37-15.64 0.08-23.45 0.15 1.94-5.43 3.87-10.87 5.88-16.27z"/>
  <path d="m248.97 845.86c10.55-7.72 24.1-10.5 36.97-9.04 7.55 0.59 16.02 3.61 19.14 11.15 4.12 9.99 0.21 20.86-3.21 30.45-17.26 0.08-34.52 0.1-51.78-0.01-1.22 4.56-2.29 10.3 1.4 14.04 3.99 3.68 10.22 2.83 14.84 0.88 2.82-0.99 4.76-3.63 7.54-4.53 7.01 0.39 13.98 1.4 20.98 2.05-8.13 9.2-19.32 16.11-31.7 17.39-9.34 0.91-19.3 1.5-28.11-2.33-7.96-3.8-10.49-13.66-9.5-21.79 2.17-15.23 10.83-29.42 23.43-38.26m20.28 5.39c-7.47 2.43-12.28 9.32-15.23 16.25 9.31 0.12 18.62-0.13 27.92 0.15 1.26-4.18 2.45-8.97 0.45-13.09-2.64-4.45-8.7-4.7-13.14-3.31z"/>
  <path d="m119.69 845.73c9.3-6.71 20.94-9.72 32.33-9.18 6.59 0.28 13.73 1.1 19.04 5.39 4.75 3.79 6.57 10.15 6.35 16.03-0.37 7.09-2.51 13.95-5.12 20.51-17.25-0.03-34.51 0.04-51.76-0.04-0.9 4.29-2.17 9.42 0.85 13.2 3.04 3.87 8.57 3.86 12.9 2.63 3.74-0.84 6.69-3.4 9.66-5.64 7.05 0.73 14.09 1.45 21.15 2.08-3.68 5.09-9 8.81-14.3 12.06-9.92 5.57-21.7 6.56-32.86 5.94-5.9-0.45-12.42-1.46-16.66-5.98-4.99-5.31-6.16-13.2-4.97-20.16 2.57-14.71 11.12-28.31 23.39-36.84m16.24 7.27c-5.25 3.32-9.41 8.62-11.02 14.64 9.26-0.25 18.53-0.1 27.79-0.06 1.05-4.84 2.79-11.12-1.37-14.97-4.44-3.42-10.87-2.29-15.4 0.39z"/>
  <path d="m455.4 837.61c9.12-1.75 19.09-1.82 27.65 2.2 7.75 3.7 11.25 12.94 10.23 21.13-2.87 23.9-23.11 44.89-47.23 47.56-8.72 0.86-18.43 0.62-25.78-4.76-6.13-4.79-8.62-13.16-7.45-20.69 3.26-21.85 20.95-40.83 42.58-45.44m1.83 15.67c-9.61 1.93-15.41 11.08-18.34 19.75-1.79 5.29-3.7 12.05 0.25 16.84 3.74 4.02 10.15 3.17 14.56 0.78 7.38-3.94 11.21-11.95 13.74-19.55 1.51-4.63 2.67-10.12-0.04-14.54-2.2-3.3-6.53-4-10.17-3.28z"/>
  <path d="m532.02 838.83c10.78-2.85 22.12-2.76 33.14-1.59 5.09 0.54 10.88 2.22 13.36 7.15 2.14 5.02 1.14 10.79-0.4 15.84-2.92 8.33-5.99 16.61-9.04 24.9-2.5 7.16-5.96 14.32-5.28 22.13-7.35 0.02-14.7 0.03-22.05-0.01-0.22-3.45 0.5-6.83 1.18-10.17-5.85 4.43-12.11 8.7-19.38 10.35-7.11 1.64-14.85 2.37-21.84-0.1-5.07-1.66-8.11-7.21-7.36-12.39 1.5-10.58 9.43-19.82 19.62-23.01 13.36-4.34 27.75-4.98 40.8-10.41 1.4-2.65 2.31-6.25 0.65-8.95-3.39-3.01-8.44-2.03-12.54-1.52-4.84 0.56-8.61 3.96-11.35 7.76-7.19-0.46-14.31-1.57-21.46-2.39 4.85-8.3 12.57-15.04 21.95-17.59m-2.22 40.06c-4.73 1.48-9.42 4.93-10.22 10.14-0.66 2.77 1.13 5.98 3.99 6.56 5.84 1.21 11.86-0.96 16.57-4.36 6.01-4.29 8.6-11.68 10.5-18.5-6.86 2.35-13.95 3.94-20.84 6.16z"/>
  <path d="m623.93 849.68c4.42-5.2 9.23-10.92 16.15-12.66 4.75-1.32 9.84-0.13 13.9 2.55-4.78 5.72-9.08 11.84-13.91 17.53-3.13-1.29-6.67-2.22-9.96-0.91-6.06 2.08-9.85 7.78-12.76 13.17-6.34 12.11-9.71 25.47-15.06 37.99-7.73-0.2-15.46 0.01-23.19-0.12 8.24-23.05 16.83-45.98 25.02-69.04 7.28-0.12 14.56-0.08 21.85-0.04-1.16 3.45-2.77 6.75-3.62 10.29 0.4 0.31 1.18 0.93 1.58 1.24z"/>
  <path d="m728.44 837.65c9.58-1.78 20.26-2.07 29.03 2.81 7.15 4.01 10.03 12.87 9.06 20.68-2.85 23.24-22.11 43.67-45.41 47.1-8.47 1.15-17.65 1.13-25.36-3.03-7.64-4.35-11.01-13.82-9.66-22.25 3.33-21.73 20.84-40.58 42.34-45.31m0.09 16.1c-9.9 3.46-15 13.71-17.56 23.2-1.18 4.37-1.65 9.82 1.76 13.35 4.28 3.78 10.84 2.53 15.3-0.28 7.03-4.42 10.66-12.39 13.03-20.03 1.24-4.55 2.34-10.15-0.97-14.09-2.79-3.39-7.71-3.29-11.56-2.15z"/>
  <path d="m662.34 838.2c7.74-0.22 15.48 0.07 23.21-0.17-7.78 23.18-16.79 45.97-24.8 69.08-7.82 0.37-15.65 0.08-23.46 0.15 8.28-23.05 16.8-46 25.05-69.06z"/>
 </g>
 <g transform="translate(-26.05 -37.2)" fill="#00a155" stroke="#fff" stroke-width="15">
  <path d="m771.92 45.94c5.49-1.99 11.42-0.78 17.11-0.63 14.39 0.76 28.35 6.95 38.57 17.09 15.54 15.01 23.6 38.31 17.97 59.5-1.28 6.55-5.29 12.34-5.65 19.1-0.63 10.18 3.99 20.02 10.61 27.52 8.25 9.35 19.94 16.22 32.6 16.8 4.57 0.16 9.21 0.68 13.76 0.02 10.51-3.93 20.67-9.83 27.67-18.78 7.8-10.04 9.89-23.24 17.82-33.2 12.4-15.91 32.53-25.32 52.65-25.21 27.31-0.22 52.05 20.91 58.98 46.82 4.05 13.95 2.86 29.39-3.57 42.44-9.45 19.81-29.4 34.45-51.37 36.51-12.86 2.22-25.19-4.7-38.05-3.1-13.15 1.31-26.02 7.49-34.58 17.67-9.49 11.56-11.56 27.94-7.77 42.13 2.52 9.08 7.28 18.13 15.35 23.41 7.48 4.94 16.49 6.36 24.84 9.14 6.28 2.07 11.78 5.94 16.58 10.41 4.43 4.21 8.9 8.48 12.23 13.66 7.58 11.29 10.71 25.32 9.31 38.8-1.83 18.5-11.69 36.21-26.92 46.99-24.27 17.37-60.27 12.93-81.17-7.8-10.79-10.09-16.98-24.49-17.84-39.15-2-12.87 5.05-25.16 3.24-38.01-1.57-14.5-9.55-28.51-22.03-36.29-20.95-12.75-51.31-7.4-66.07 12.38-5.5 7.12-5.96 16.48-9.52 24.49-5.13 10.52-13.32 19.53-23.35 25.57-13.13 8.16-29.26 11.08-44.46 8.54-14.41-2.46-27.91-10.1-37.2-21.41-9.85-11.68-15.01-27.13-14.34-42.37 0.57-18.63 9.38-37.02 24.12-48.55 11.9-9.52 27.45-13.59 42.52-12.87 9.91 0.32 19.08 5.2 29.06 5.02 8.2201 0.10453 15.754-3.5929 22.747-7.565 1.3839-1.0125 1.5878-1.2953 3.8172-3.1359 7.5025-5.8638 12.991-14.194 16.136-23.139 7.3-21.06-2.59-46.53-22.16-57.18-7.96-4.49-17.25-6.11-24.9-11.19-14.57-9.84-24.66-26.01-27.18-43.4-4.28-25.66 9.57-52.9 32.57-64.88 5.59-3.02 11.86-4.25 17.87-6.15z"/>
  <path d="m38.95 381.16 39.54-116.55h596.71c-14.74 12.16-24.22 30.385-25.93 49.395-1.75 16.34 2.36 33.21 11.51 46.87-9.82-1.68-19.81-1.97-29.75-1.88-23.41 0.07-46.83-0.14-70.25 0.11l-35.23 104.05c25.81-0.03 51.62 0.04 77.43-0.04 18.69-0.3 38.21-2 54.89-11.19 14.96-8.34 25.96-22.77 31.59-38.81 3.18-8.35 4.61-17.39 3.6-26.29 6.04 3 12.84 3.52 19.23 5.31 15.92 7.41 34.79 7.53 51.19 1.56 14.86-5.29 27.57-16.19 35.3-29.92 5.25-8.64 4.79-19.74 11.26-27.76 8.84-11.44 23.6-16.94 37.77-16.93 1.52 0.63 3.21 1.59 3.8 3.23 5.28 15.7 4.82 32.82 1.09 48.81-7.49 32.65-26.28 62.24-51.57 84.05-14.13 12.7-30.81 22.26-48.28 29.56-12.52 5.32-25.61 9.06-38.6 13 18.96 4.58 38.34 9.39 54.96 20.04 11.79 7.36 21.91 17.98 26.97 31.08 6.76 16.52 6.37 35.03 2.82 52.26-6.97 33.28-23.71 64.25-46.97 88.96-20.68 22.18-45.92 40.13-73.78 52.12-17.31 6.97-35.78 10.51-54.2 13.09-20.99 2.66-42.02 5.05-63.1 6.8-8.64 0.71-17.3 1.0275-25.96 0.8975h-266.08l129.39-381.82h-41.38l-83.74 247.14-45.5 134.69h-153.13l129.45-381.82zm456.68 170.24-37.6 111.09c28.67 0.01 57.34 0 86.01 0 13.02 0.16 26.13-0.65 38.89-3.38 13.64-2.8 26.83-8.42 37.51-17.48 13.57-11.17 23.18-27.17 26.35-44.47 1.82-9.67 0.11-20.25-5.93-28.18-5.35-7.27-13.89-11.33-22.41-13.6-13.49-3.58-27.56-3.95-41.44-4.02-27.13 0.03-54.26-0.03-81.38 0.04z" stroke-linecap="square"/>
 </g>
</svg>
