<svg width="800" height="166.32" version="1.1" viewBox="0 0 800 166.32" xmlns="http://www.w3.org/2000/svg" xmlns:xlink="http://www.w3.org/1999/xlink">
 <defs>
  <linearGradient id="linear-gradient" y1=".483" y2=".483">
   <stop stop-color="#2aac75" offset="0"/>
   <stop stop-color="#1b5a9c" offset="1"/>
  </linearGradient>
  <linearGradient id="linear-gradient-2" x1=".0036973" x2="48.273" y1="24.135" y2="24.135" gradientTransform="matrix(3.4242 0 0 3.37 -.012674 .23439)" gradientUnits="userSpaceOnUse" xlink:href="#linear-gradient"/>
  <linearGradient id="linearGradient856" x2="18.644" y1="9.005" y2="9.005" gradientTransform="matrix(2.4539 0 0 4.7025 61.583 -3e-6)" gradientUnits="userSpaceOnUse" xlink:href="#linear-gradient"/>
 </defs>
 <g stroke-width="3.397">
  <path d="m250.68 55.185h-27.468v-17.957h78.132v17.957h-27.468v83.954h-23.195z" fill="#1f599c" data-name="Fill 1"/>
  <path d="m333.49 142.54a39.701 39.701 0 0 1-27.917-10.072 37.306 37.306 0 0 1-11.02-27.992v-1.1448a42.99 42.99 0 0 1 2.9452-16.044 35.73 35.73 0 0 1 8.1087-12.273 38.465 38.465 0 0 1 27.309-10.606 36.613 36.613 0 0 1 25.406 8.9988 31.82 31.82 0 0 1 7.9898 11.828 46.879 46.879 0 0 1 2.9758 17.22v5.741h-53.768c0.5673 12.46 7.324 19.608 18.541 19.608a18.344 18.344 0 0 0 10.871-2.8637 11.89 11.89 0 0 0 4.6709-7.5856h19.54a26.691 26.691 0 0 1-11.088 18.657 41.991 41.991 0 0 1-24.564 6.5291zm-0.5741-63.824a15.966 15.966 0 0 0-11.445 4.4162 21.401 21.401 0 0 0-5.6697 12.328h33.376a19.112 19.112 0 0 0-4.7083-12.61 15.599 15.599 0 0 0-11.553-4.1342z" fill="#1f599c" data-name="Fill 2"/>
  <path d="m379.48 139.14h20.382v-105.31h-20.382z" fill="#1f599c" data-name="Fill 4"/>
  <path d="m449.26 142.64a38.947 38.947 0 0 1-27.489-9.9804 37.088 37.088 0 0 1-10.85-27.743v-1.1312a42.836 42.836 0 0 1 2.901-15.898 35.424 35.424 0 0 1 7.9694-12.161 37.747 37.747 0 0 1 26.904-10.51 35.923 35.923 0 0 1 25.019 8.9171 31.541 31.541 0 0 1 7.8641 11.72 46.692 46.692 0 0 1 2.9282 17.08v5.6696h-52.939c0.5605 12.345 7.2118 19.427 18.259 19.427a18.004 18.004 0 0 0 10.707-2.8365 11.818 11.818 0 0 0 4.5995-7.5142h19.237a26.476 26.476 0 0 1-10.918 18.486 41.155 41.155 0 0 1-24.193 6.4747zm-0.5639-63.245a15.657 15.657 0 0 0-11.278 4.3617 21.258 21.258 0 0 0-5.5847 12.229h32.866a19.023 19.023 0 0 0-4.6267-12.494 15.307 15.307 0 0 0-11.377-4.0968z" fill="#1f599c" data-name="Fill 5"/>
  <path d="m514.02 166.31h-20.365v-99.403h20.365v11.628a26.894 26.894 0 0 1 9.1889-9.3214 27.325 27.325 0 0 1 14.267-4.0051 31.782 31.782 0 0 1 12.569 2.4866 28.732 28.732 0 0 1 10.191 7.3137 41.474 41.474 0 0 1 9.2704 28.195v1.1312a42.147 42.147 0 0 1-9.1719 28.345 29.496 29.496 0 0 1-22.858 9.9498 28.834 28.834 0 0 1-14.57-3.7367 23.13 23.13 0 0 1-8.8832-9.1719v36.586zm17.274-85.363a16.384 16.384 0 0 0-12.99 5.6186 25.406 25.406 0 0 0-4.9868 16.785v1.1346a25.032 25.032 0 0 0 4.8985 16.645 16.526 16.526 0 0 0 13.218 5.476 15.579 15.579 0 0 0 12.909-5.6356 26.191 26.191 0 0 0 4.4942-16.482v-1.1346a25.705 25.705 0 0 0-4.9053-16.842 15.844 15.844 0 0 0-12.637-5.5643z" fill="#1f599c" data-name="Fill 7"/>
  <path d="m598.72 142.63a27.363 27.363 0 0 1-17.291-5.211 20.464 20.464 0 0 1-7.2866-16.914 19.821 19.821 0 0 1 10.673-18.398c6.3966-3.6008 15.657-5.4352 27.516-5.4352h8.2853v-2.9656a15.942 15.942 0 0 0-2.4934-10.103 11.281 11.281 0 0 0-9.4471-3.5057c-7.3579 0-11.563 3.5295-12.484 10.49h-19.241a24.577 24.577 0 0 1 10.235-19.285 39.263 39.263 0 0 1 22.767-6.0976 34.778 34.778 0 0 1 22.121 6.2029c5.7307 4.5927 8.6488 11.76 8.6488 21.313v48.35h-19.805v-8.9443a23.48 23.48 0 0 1-8.3566 7.4734 29.16 29.16 0 0 1-13.843 3.0301zm14.043-33.746a31.392 31.392 0 0 0-13.765 2.2692 8.4925 8.4925 0 0 0-4.9155 8.2207c0 5.8428 3.6925 8.9341 10.677 8.9341a18.126 18.126 0 0 0 11.305-3.5091 11.957 11.957 0 0 0 4.5622-9.6747v-6.2437z" fill="#1f599c" data-name="Fill 9"/>
  <path d="m649.43 104.92v-1.1312c0-23.966 16.985-38.573 37.921-38.573 16.985 0 32.717 7.5176 34.544 28.786h-19.237a13.561 13.561 0 0 0-14.886-12.623c-10.531 0-17.556 7.9388-17.556 22.125v1.1176c0 14.889 6.6004 22.546 17.974 22.546a14.947 14.947 0 0 0 15.732-14.322h18.395c-1.121 17.586-13.761 29.778-35.111 29.778-21.469 0.0136-37.775-13.456-37.775-37.703" fill="#1f599c" data-name="Fill 11"/>
  <path d="m726.41 65.212h73.589v77.421h-73.589z" fill="none" data-name="Clip 14"/>
  <path d="m764.74 142.64a38.947 38.947 0 0 1-27.489-9.9804 37.088 37.088 0 0 1-10.85-27.743v-1.1312a42.84 42.84 0 0 1 2.901-15.898 35.424 35.424 0 0 1 7.9694-12.161 37.747 37.747 0 0 1 26.904-10.51 35.923 35.923 0 0 1 25.019 8.9171 31.541 31.541 0 0 1 7.8641 11.72 46.692 46.692 0 0 1 2.9282 17.08v5.6696h-52.939c0.5605 12.345 7.2118 19.427 18.259 19.427a18.004 18.004 0 0 0 10.707-2.8365 11.828 11.828 0 0 0 4.6029-7.5142h19.237a26.497 26.497 0 0 1-10.918 18.486 41.151 41.151 0 0 1-24.197 6.4747zm-0.5639-63.245a15.66 15.66 0 0 0-11.278 4.3617 21.245 21.245 0 0 0-5.5813 12.229h32.866a19.023 19.023 0 0 0-4.6301-12.494 15.307 15.307 0 0 0-11.377-4.0968z" fill="#1f599c" data-name="Fill 13"/>
  <path d="m69.555 0.91379c1.2229 26.401 0.73715 63.915-7.9728 84.905a13.928 13.928 0 0 0 4.6471 1.6985c11.659 1.5524 26.432-8.642 41.104-23.28-2.8093-9.0632-1.9295-16.917-2.6429-18.5-0.46879-1.0191-1.549-0.37707-2.3779 0.27176-0.64883 0.50615-1.1346 1.0191-1.0497 0.71337 2.8297-9.6033 0.60806-11.078 0.60806-11.078-0.85265-0.85944-2.3168-0.17664-3.4412 0.51295-1.0191 0.61825-1.7529 1.2433-1.5015 0.70997 1.4981-4.0254 2.7176-13.153 0.20382-14.716-1.1618-0.71337-2.4356 0.02378-3.4276 0.75753-0.83566 0.62165-1.4709 1.2433-1.6611 0.98853 0.6794-12.015-3.4921-12.494-3.4921-12.494-1.6204-0.14267-2.7889 4.1002-3.0335 4.2802-4.1206-19.988-6.6106-13.034-6.6106-13.034s-2.0382 15.854-1.9703 14.176c-2.5511-14.193-4.8237-16.825-6.1418-16.825-0.77791 0-1.2365 0.91379-1.2365 0.91379" fill="none" data-name="Clip 18"/>
  <path d="m69.555 0.91379c1.2229 26.401 0.73715 63.915-7.9728 84.905a13.928 13.928 0 0 0 4.6471 1.6985c11.659 1.5524 26.432-8.642 41.104-23.28-2.8093-9.0632-1.9295-16.917-2.6429-18.5-0.46879-1.0191-1.549-0.37707-2.3779 0.27176-0.64883 0.50615-1.1346 1.0191-1.0497 0.71337 2.8297-9.6033 0.60806-11.078 0.60806-11.078-0.85265-0.85944-2.3168-0.17664-3.4412 0.51295-1.0191 0.61825-1.7529 1.2433-1.5015 0.70997 1.4981-4.0254 2.7176-13.153 0.20382-14.716-1.1618-0.71337-2.4356 0.02378-3.4276 0.75753-0.83566 0.62165-1.4709 1.2433-1.6611 0.98853 0.6794-12.015-3.4921-12.494-3.4921-12.494-1.6204-0.14267-2.7889 4.1002-3.0335 4.2802-4.1206-19.988-6.6106-13.034-6.6106-13.034s-2.0382 15.854-1.9703 14.176c-2.5511-14.193-4.8237-16.825-6.1418-16.825-0.77791 0-1.2365 0.91379-1.2365 0.91379" fill="url(#linearGradient856)" data-name="Fill 17"/>
  <path d="m23.692 22.865c-2.7652 5.0445-5.8055 11.669-6.794 13.676 2.3202-9.3859 1.8412-14.947 1.5354-30.828-12.148 20.073-5.1465 28.419-2.738 33.63-1.6985 3.9032-3.3019 8.8322-3.5635 9.6441-0.88322-6.7125-6.5222-13.907-10.531-28.98-5.5133 20.783 4.6403 31.181 8.9375 35.02-0.12909 0.5639-0.25817 1.1278-0.39066 1.6985-0.1121 0.58089-0.24798 1.2977-0.38046 2.1299 0 0.10191-0.030573 0.20042-0.047558 0.30573 0 0.1087-0.03397 0.2276-0.047558 0.3397-0.044161 0.30233-0.088322 0.60467-0.12909 0.907a56.003 56.003 0 0 0-0.27516 12.114 75.889 75.889 0 0 0-5.5643 6.6853 19.801 19.801 0 0 1 6.4747-0.80509 34.962 34.962 0 0 0 6.3694 13.928c0.21741 0.26836 0.42462 0.52314 0.61486 0.76093l0.07813 0.08832a23.694 23.694 0 0 0 1.7359 1.8276 1.1244 1.1244 0 0 0 0.14267 0.12909c0.3397 0.27176 0.5707 0.40764 0.64543 0.37707l0.02718-0.02378c0.02038-0.05096-0.02378-0.17325-0.16645-0.39066a48.577 48.577 0 0 1-6.1146-16.163c7.9694 2.4255 11.968 12.073 16.343 23.803 4.9155 13.177 10.31 28.963 22.366 40.085a41.005 41.005 0 0 0 5.1329 4.1342c21.493 14.746 54.692 9.1719 56.927 8.8322a62.736 62.736 0 0 0 26.439 7.1133h0.0306c4.107 0 6.4849-0.80509 6.58-1.6204 1.0361-1.6374-5.9889-4.9087-5.9889-4.9087s8.9783 2.3371 8.9783-0.1155c0-2.456-6.1146-4.3278-5.7545-4.6777a6.8959 6.8959 0 0 1 1.9193-0.0204c2.456 0.0951 6.3694 0.19023 6.3694-1.617 0.23439-3.6246-5.1804-4.7898-5.1804-4.7898s7.3681-0.231 7.4734-2.9214c0-3.6246-7.8131-2.9248-5.408-4.6777 8.8628-4.7932-0.462-6.0806-13.129-4.6743a82.754 82.754 0 0 1-23.871-1.6985c-3.2238-0.74734-4.5792-1.4777-2.3779-1.6985 4.0764-0.40764 17.664-8.4925 28.093-22.76q0.27516-0.37707 0.55032-0.76773c1.2467-1.7528 2.4424-3.594 3.5634-5.5201a99.563 99.563 0 0 0 6.5766-15.596c1.797-4.0594 5.9278-4.946 6.5902-8.2955 0.30573-2.1367-4.3855-1.172-3.6925-1.6374 9.3282-6.315 7.4734-9.3519 7.4734-9.3519-0.2242-1.7562-2.969-1.6985-4.4772-1.6679-0.8017 0.02378-1.2569 0.04756-0.81528-0.19703 3.9133-1.5219 10.819-11.57 10.13-14.947-0.6794-3.397-5.1838-1.8684-5.1838-2.6904 8.9851-10.989 5.4148-13.557 5.4148-13.557-0.92738-1.5185-5.4148 1.9906-5.7579 1.9906 10.249-21.279 2.9928-16.985 2.9928-16.985s-12.909 13.717-11.669 12.158c11.974-24.312 4.3006-20.26 4.3006-20.26a411.41 411.41 0 0 1-44.671 57.219c-14.899 15.253-29.866 25.844-41.61 24.139a13.867 13.867 0 0 1-4.6573-1.8276c-14.383-8.4381-27.934-40.662-51.42-19.196 0.03397-0.61825 0.1087-1.9906 0.19363-3.4581a64.37 64.37 0 0 1 0.47898-7.3341c0.15626-1.2739 0.3397-2.5715 0.58428-3.893 5.9821-0.76093 16.54-0.42123 26.096-23.558-13.979 9.8921-18.853 12.796-25.732 21.398a17.097 17.097 0 0 1 0.47218-2.1367c1.0531-4.3787 3.397-11.156 4.0968-13.16 0.02378-0.05096 0.04076-0.09512 0.06454-0.14607 5.1838-0.74055 17.311-3.9201 24.445-20.263a147.35 147.35 0 0 0-22.026 14.733c0.36348-0.83906 4.1104-8.0611 4.1104-8.0611 7.0963-2.7414 7.6636-8.411 15.715-23.619-16.034 10.588-16.768 19.023-16.897 22.631" fill="none" data-name="Clip 21"/>
  <path d="m23.692 22.865c-2.7652 5.0445-5.8055 11.669-6.794 13.676 2.3202-9.3859 1.8412-14.947 1.5354-30.828-12.148 20.073-5.1465 28.419-2.738 33.63-1.6985 3.9032-3.3019 8.8322-3.5635 9.6441-0.88322-6.7125-6.5222-13.907-10.531-28.98-5.5133 20.783 4.6403 31.181 8.9375 35.02-0.12909 0.5639-0.25817 1.1278-0.39066 1.6985-0.1121 0.58089-0.24798 1.2977-0.38046 2.1299 0 0.10191-0.030573 0.20042-0.047558 0.30573 0 0.1087-0.03397 0.2276-0.047558 0.3397-0.044161 0.30233-0.088322 0.60467-0.12909 0.907a56.003 56.003 0 0 0-0.27516 12.114 75.889 75.889 0 0 0-5.5643 6.6853 19.801 19.801 0 0 1 6.4747-0.80509 34.962 34.962 0 0 0 6.3694 13.928c0.21741 0.26836 0.42462 0.52314 0.61486 0.76093l0.07813 0.08832a23.694 23.694 0 0 0 1.7359 1.8276 1.1244 1.1244 0 0 0 0.14267 0.12909c0.3397 0.27176 0.5707 0.40764 0.64543 0.37707l0.02718-0.02378c0.02038-0.05096-0.02378-0.17325-0.16645-0.39066a48.577 48.577 0 0 1-6.1146-16.163c7.9694 2.4255 11.968 12.073 16.343 23.803 4.9155 13.177 10.31 28.963 22.366 40.085a41.005 41.005 0 0 0 5.1329 4.1342c21.493 14.746 54.692 9.1719 56.927 8.8322a62.736 62.736 0 0 0 26.439 7.1133h0.0306c4.107 0 6.4849-0.80509 6.58-1.6204 1.0361-1.6374-5.9889-4.9087-5.9889-4.9087s8.9783 2.3371 8.9783-0.1155c0-2.456-6.1146-4.3278-5.7545-4.6777a6.8959 6.8959 0 0 1 1.9193-0.0204c2.456 0.0951 6.3694 0.19023 6.3694-1.617 0.23439-3.6246-5.1804-4.7898-5.1804-4.7898s7.3681-0.231 7.4734-2.9214c0-3.6246-7.8131-2.9248-5.408-4.6777 8.8628-4.7932-0.462-6.0806-13.129-4.6743a82.754 82.754 0 0 1-23.871-1.6985c-3.2238-0.74734-4.5792-1.4777-2.3779-1.6985 4.0764-0.40764 17.664-8.4925 28.093-22.76q0.27516-0.37707 0.55032-0.76773c1.2467-1.7528 2.4424-3.594 3.5634-5.5201a99.563 99.563 0 0 0 6.5766-15.596c1.797-4.0594 5.9278-4.946 6.5902-8.2955 0.30573-2.1367-4.3855-1.172-3.6925-1.6374 9.3282-6.315 7.4734-9.3519 7.4734-9.3519-0.2242-1.7562-2.969-1.6985-4.4772-1.6679-0.8017 0.02378-1.2569 0.04756-0.81528-0.19703 3.9133-1.5219 10.819-11.57 10.13-14.947-0.6794-3.397-5.1838-1.8684-5.1838-2.6904 8.9851-10.989 5.4148-13.557 5.4148-13.557-0.92738-1.5185-5.4148 1.9906-5.7579 1.9906 10.249-21.279 2.9928-16.985 2.9928-16.985s-12.909 13.717-11.669 12.158c11.974-24.312 4.3006-20.26 4.3006-20.26a411.41 411.41 0 0 1-44.671 57.219c-14.899 15.253-29.866 25.844-41.61 24.139a13.867 13.867 0 0 1-4.6573-1.8276c-14.383-8.4381-27.934-40.662-51.42-19.196 0.03397-0.61825 0.1087-1.9906 0.19363-3.4581a64.37 64.37 0 0 1 0.47898-7.3341c0.15626-1.2739 0.3397-2.5715 0.58428-3.893 5.9821-0.76093 16.54-0.42123 26.096-23.558-13.979 9.8921-18.853 12.796-25.732 21.398a17.097 17.097 0 0 1 0.47218-2.1367c1.0531-4.3787 3.397-11.156 4.0968-13.16 0.02378-0.05096 0.04076-0.09512 0.06454-0.14607 5.1838-0.74055 17.311-3.9201 24.445-20.263a147.35 147.35 0 0 0-22.026 14.733c0.36348-0.83906 4.1104-8.0611 4.1104-8.0611 7.0963-2.7414 7.6636-8.411 15.715-23.619-16.034 10.588-16.768 19.023-16.897 22.631" fill="url(#linear-gradient-2)" data-name="Fill 20"/>
 </g>
</svg>
