<svg width="1561.5pt" height="222.49pt" version="1.1" viewBox="0 0 1561.5 222.49" xmlns="http://www.w3.org/2000/svg">
 <g transform="translate(-18.766 -10.339)" fill="#ffd300">
  <path d="m1469.5 11.71c13.87-2.52 28.21-1.31 41.93 1.55 17.47 3.75 33.82 13.23 45.1 27.19 13.39 16.26 19.92 37.09 22.31 57.76 0.8 10.96 2.17 21.98 0.75 32.95-1.12 21.92-6.54 44.16-18.84 62.59-13.49 21.19-37.01 35.21-61.92 37.75-4.88 1.12-9.9 1.28-14.88 1.23-20.37 0.61-41.61-4.88-57.29-18.39-14.43-12.48-23.69-30.05-28.58-48.3-2.29-8.82-4.23-17.8-4.63-26.92-2.43-20.76-0.93-42.15 5.47-62.11 5.58-16.92 15.06-32.74 28.06-45 11.69-10.87 26.66-18.24 42.52-20.3m7.02 33.08c-12.13 1.54-23.18 8.59-30.02 18.66-11.36 16.41-14.62 36.99-14.29 56.56-0.16 16.04 1.4 32.32 7.18 47.4 2.63 6.6 6.09 12.94 10.93 18.2 5.98 7.03 14.66 11.43 23.74 12.81 7.87 1.96 15.94 0.23 23.75-1.21 11.27-2.76 21.49-9.66 28.14-19.19 9.46-13.37 12.83-29.91 14.12-45.95 0.81-21.36 0.42-43.98-9.91-63.28-5.73-10.72-15.8-19.05-27.56-22.25-8.51-1.93-17.4-3.85-26.08-1.75z"/>
  <path d="m759.89 12.93c12.58-0.74 25.21-0.67 37.81-0.54 5.88-0.13 11.56 1.61 17.41 1.92 15.47 2.7 31.32 8.58 41.84 20.76 10.42 11.93 13.82 28.44 13.12 43.9-0.75 17.41-9.96 33.93-23.52 44.67-4.69 4.02-10.32 6.56-15.72 9.41 18.34 28.55 37.29 56.73 55.9 85.12 2.21 3.49 4.9 6.72 6.45 10.6-14.39 0.43-28.82 0.31-43.22 0.13-18.78-28.55-37.26-57.31-55.92-85.93-0.9-1.39-2.32-2.47-4.03-2.32-7.2-0.29-14.43-0.91-21.62-0.27-0.11 29.35-0.18 58.71 0.03 88.07-1.79 0.38-3.61 0.64-5.43 0.59-10-0.07-19.99-0.03-29.99-0.01-1.45 0.01-2.85-0.32-4.24-0.65 0.23-69.78 0.03-139.57 0.1-209.35 0.06-1.52 0.31-3.03 0.54-4.54 10.16-0.6 20.39-0.06 30.49-1.56m8.43 35.06c0.06 19.83-0.19 39.66 0.13 59.48 8.69 1.98 17.75 1 26.59 1.02 7.74-1.12 15.76-1.94 22.77-5.69 6.23-3.01 10.27-9.35 11.59-16 2.32-9.79 2.19-21.44-4.89-29.32-6.26-6.44-15.52-8.11-23.97-9.72-10.72-0.58-21.57-1.78-32.22 0.23z"/>
  <path d="m18.83 16.96c-0.11-1.27 0.66-3 2.2-2.78 57.31-0.08 114.63 0.05 171.94-0.06 1.11 0.24 3.42-0.44 3.67 1.14 0.42 5.23 0.67 10.51 0.33 15.76-0.16 5.43 0.73 11.11-0.67 16.38-4.06 0.67-8.22 0.07-12.31 0.24-19.45 0.18-38.91-0.33-58.35 0.27-0.23 59.38-0.06 118.76-0.08 178.14-0.08 1.02 0.24 3.05-1.46 2.79-7.67 0.54-15.36-0.04-23.04 0.16-4.51-0.06-9.09 0.47-13.54-0.51 0.06-60.14-0.01-120.28 0.03-180.42-1.84-0.23-3.69-0.43-5.54-0.44-20.32 0.03-40.64 0.02-60.96 0.02-2.04 0.34-2.39-2.16-2.26-3.65 0.04-9.01-0.05-18.03 0.04-27.04z"/>
  <path d="m221.71 14.66c1.41-0.24 2.83-0.48 4.27-0.51 43.04 0.02 86.07 0.01 129.11 0 1.27 0.2 3.93-0.28 3.65 1.8 0.08 10.49 0.18 21-0.08 31.5-32.78 0.64-65.6-0.29-98.37 0.46-0.19 16.41 0.1 32.83-0.15 49.24 1.59 0.23 3.19 0.41 4.81 0.4 18.7-0.08 37.41 0 56.11-0.04 3.23-0.03 6.48-0.17 9.67 0.48-0.1 10.47 0.24 20.95-0.18 31.42-23.33 0.37-46.67-0.09-70 0.23-0.21 1.79-0.36 3.58-0.35 5.38 0.11 19.64-0.06 39.29 0.08 58.93-0.31 1.62 1.62 1.43 2.62 1.54 31.44 0.23 62.9-0.25 94.33 0.24 0.14 10.89-0.07 21.79 0.12 32.68-1.43 0.27-2.87 0.55-4.33 0.57-38.67 0.08-77.34 0.02-116.01 0.02-5.11-0.13-10.32 0.6-15.34-0.59 0.21-71.24 0.13-142.5 0.04-213.75z"/>
  <path d="m392.41 14.65c8.49-1.09 17.11-0.21 25.65-0.49 4.08 0.3 8.35-0.7 12.3 0.51 0.44 1.38 0.3 2.85 0.36 4.28-0.14 58.57 0.11 117.14-0.13 175.71 1.39 0.6 2.87 0.98 4.4 0.9 29.35-0.07 58.7 0.02 88.05-0.05 1.53 0.01 3.05 0.21 4.58 0.41 0.03 10.88 0.09 21.76-0.03 32.65-3.18 0.52-6.4 0.54-9.6 0.45-41.78-0.14-83.57 0.18-125.34-0.15-0.4-71.4 0.08-142.82-0.24-214.22z"/>
  <path d="m558.58 14.62c2.35-0.83 4.94-0.36 7.39-0.48 41.66 0.04 83.32 0.02 124.98 0.01 1.47 0.03 2.95 0.29 4.42 0.55 0.02 10.86 0.06 21.73-0.03 32.59-3.41 0.5-6.86 0.4-10.29 0.36-27.34-0.01-54.68 0.02-82.01-0.02-2.18 0.01-4.34 0.13-6.49 0.28-0.15 16.4 0.01 32.81-0.09 49.21 3.48 0.66 7.02 0.38 10.54 0.39 16 0.01 32 0 48.01 0.01 4.07 0.01 8.16-0.23 12.21 0.4 0.19 10.46 0.25 20.93-0.03 31.39-22.42 0.55-44.86 0.06-67.28 0.24-1.23 0.07-2.39 0.4-3.48 0.99 0.16 21.53-0.03 43.07 0.1 64.61 3.46 0.49 6.97 0.42 10.46 0.39 27.33-0.02 54.67 0.01 82-0.02 1.57 0.02 3.14 0.17 4.71 0.34-0.06 10.92 0.03 21.85-0.05 32.78-6.52 0.62-13.07 0.33-19.6 0.32-31.03 0.12-62.06-0.03-93.09 0.06-7.53-0.2-15.07 0.3-22.58-0.26-0.07-57.58-0.01-115.16-0.03-172.74 0.17-13.79-0.32-27.64 0.23-41.4z"/>
  <path d="m913.38 14.34c12.45-0.28 24.94-0.35 37.4 0.04 0.7 4.18 0.36 8.42 0.42 12.63 0.01 67.13-0.01 134.26 0.01 201.4-2.36 0.53-4.78 0.73-7.18 0.66-10.23-0.14-20.46 0.13-30.68-0.24-0.85-3.9-0.53-7.91-0.55-11.86-0.02-66 0.02-131.99-0.02-197.99 0-1.56 0.31-3.1 0.6-4.64z"/>
  <path d="m976.5 14.6c3.44-0.75 6.97-0.41 10.47-0.44 52.68-0.01 105.36 0 158.04 0 3.11 0.06 6.34-0.43 9.37 0.62-0.04 10.8-0.03 21.61-0.01 32.41-4.05 0.95-8.23 0.29-12.33 0.45-19.6 0.18-39.21-0.33-58.79 0.27-0.85 12.01-0.17 24.09-0.39 36.12-0.07 48.24 0.16 96.49-0.11 144.73-11.91 0.57-23.85 0.11-35.76 0.22-1.67 0.28-2.35-1.55-2.2-2.88-0.07-59.39 0.05-118.77-0.06-178.16-18.91-0.67-37.85-0.1-56.77-0.3-3.75-0.25-7.65 0.65-11.29-0.45-0.47-10.84-0.08-21.73-0.17-32.59z"/>
  <path d="m1203.7 14.51c6.55-0.72 13.23-0.37 19.82-0.11 13.2 40.25 25.83 80.68 38.77 121.01 2.52 7.61 4.6 15.37 7.66 22.79 3.75-8.24 5.66-17.19 8.59-25.74 12.07-38.41 23.98-76.86 36.01-115.27 0.48-1.15 0.64-3 2.31-2.89 5.69-0.31 11.42-0.14 17.13-0.11 1.39-0.24 1.78 1.46 2.12 2.45 8.5 42.46 17.29 84.86 25.89 127.3 5.63 28.25 11.8 56.4 17.04 84.73-6.31 0.78-12.66 0.1-18.98 0.35-5.84-0.1-11.69 0.21-17.5-0.25-2.74-11.51-4.42-23.25-6.87-34.82-4.63-24.14-9.29-48.26-13.85-72.41-0.41-2.3-1.18-4.51-1.93-6.71-3.63 7.99-6.17 16.43-9.28 24.64-11.15 30.94-22.38 61.86-33.51 92.81-4.45 0.63-9.05 0.8-13.48 0.04-2.76-4.65-3.82-10.15-5.94-15.13-12.11-33.76-24.42-67.45-36.52-101.22-0.34-0.15-1.04-0.47-1.38-0.63-7.78 37.28-14.94 74.7-22.51 112.03-0.4 1.92-2.8 1.62-4.25 1.68-10.81-0.28-21.63 0.14-32.44-0.12 0.63-7.39 2.72-14.56 4-21.85 12.41-61.72 24.84-123.44 37.26-185.16 0.51-2.48 0.7-5.09 1.84-7.41z"/>
 </g>
</svg>
