<svg width="799.51pt" height="453.86pt" version="1.1" viewBox="0 0 799.51 453.86" xmlns="http://www.w3.org/2000/svg">
 <g transform="matrix(.70639 0 0 .70639 -289.68 -41.503)" fill="#d2d2d2">
  <path d="m1283.7 58.754 1.5235 2.0164c15.88 21.78 29.85 45.16 39.63 70.35 13.49 33.86 17.86 71.12 13.64 107.27-3.99 37.02-18.89 72.08-38.62 103.36-5.14 8.13-10.76 15.94-16.26 23.83h-35.36c10.35-17.52 20.49-35.26 28.4-54.04 15.3-36.97 21.54-77.53 18.94-117.42-1.82-24.25-5.89-48.87-16.96-70.78-4-7.54-9.35-15.12-17.55-18.42-7.67-3.06-16.02-1.05-23.7 0.86l-10.25-19.97z"/>
  <path d="m1167 112.13 45.57-21.12c18.53 31.32 31.73 66.41 34.13 102.95 1.95 24.85 0.08 50.13-6.39 74.24-9.39 35.52-27.71 68-49.45 97.38h-34.85c9.57-17.75 20.36-34.95 27.93-53.7 20.16-48.62 24.82-103.38 13.89-154.82-1.71-8.35-3.33-17.83-10.38-23.49-3.88-3.3-9.23-2.93-13.98-2.91z"/>
  <path d="m1099.6 141.78 35.85-15.81c17.44 41.04 21.72 87.39 12.76 131.03-8.09 39.77-28.14 76.05-51.86 108.58h-35.21c12.1-21.56 25.04-42.98 32.96-66.54 11.16-31.32 15.8-64.86 14.58-98.05-0.95-19.99-4.1-39.84-9.08-59.21z"/>
 </g>
 <g transform="translate(-50.49 -22.71)">
  <path d="m70.61 139.21 17-97.425h343.18l-16.93 97.425h-106.73l-41.74 237.68h-125.19l43.3-237.68z" fill="#0b9a30"/>
 </g>
 <g transform="translate(-50.49 -22.71)" fill="#fff">
  <path d="m698.24 417.8c13.24 0.02 26.47-0.01 39.71 0.01 6.45 0.03 13.27 3.21 15.86 9.43 4.03 9.34 4.76 19.98 2.87 29.94-1.09 5.51-2.76 11.49-7.33 15.17-4.27 3.45-10.08 3.79-15.34 3.66-11.93-0.03-23.85 0-35.78-0.01 0.01-19.4 0-38.8 0.01-58.2m16.03 16.08c-0.02 8.67-0.01 17.35 0 26.02 6.56-0.02 13.12-0.06 19.68-0.19 2.95-0.12 6.92-0.44 7.92-3.82 1.41-4.82 1.02-9.98 0.69-14.92-0.18-2.79-1.56-6.03-4.67-6.41-7.82-1.07-15.75-0.33-23.62-0.68z"/>
  <path d="m50.49 419.11c18.91-0.01 37.82-0.01 56.72 0-0.01 4.29-0.01 8.59 0 12.88-6.84 0.02-13.67 0-20.51 0.01 0.01 14.67 0 29.33 0.01 44h-15.68v-44h-20.53c0-4.3 0.01-8.6-0.01-12.89z"/>
  <path d="m116.42 419.3h49.79c-0.01 4.3 0 8.6-0.01 12.9-11.38-0.01-22.76 0-34.14 0-0.01 3.2 0 6.4 0.01 9.6 10.74 0 21.49 0 32.24 0.01-0.02 4.29-0.02 8.58-0.01 12.88-10.75 0.01-21.49 0.01-32.24 0.01v8.4c12 0.01 24 0 36 0v12.89c-17.22 0.01-34.43 0.01-51.65 0 0.01-18.9-0.01-37.79 0.01-56.69z"/>
  <path d="m179.52 419.31c5.22-0.02 10.44-0.01 15.66-0.01 0 14.6-0.01 29.2 0 43.8 9.17 0 18.33 0 27.5 0.01 0 4.29-0.01 8.59 0 12.88-14.39 0.01-28.77 0.01-43.15 0-0.01-18.89 0.01-37.78-0.01-56.68z"/>
  <path d="m231.84 419.31c16.6-0.02 33.2-0.01 49.8 0 0.01 4.3 0.01 8.6 0 12.9-11.37-0.03-22.74-0.01-34.11-0.01-0.01 3.2-0.01 6.39 0 9.6 10.74 0 21.48 0.02 32.22-0.01 0.03 4.3 0.01 8.6 0.01 12.91h-32.24c0 2.8 0 5.6 0.01 8.4h35.97c-0.01 4.3 0 8.6 0 12.9-17.22-0.01-34.43 0.01-51.65-0.01 0-18.89 0.01-37.78-0.01-56.68z"/>
  <path d="m292.67 419.3c5.23 0 10.46 0 15.69 0.01-0.02 14.59 0 29.19-0.01 43.79h27.5c-0.01 4.3 0 8.6 0 12.9-14.39 0-28.78 0.01-43.18-0.01 0.01-18.89 0-37.79 0-56.69z"/>
  <path d="m365.2 419.15c8.21-1.36 16.7-0.61 24.66 1.78 5.37 1.54 10.36 5.53 11.54 11.22 1.52 7.18 0.44 14.6 0.79 21.88 0.34 6.41-0.82 13.93-6.63 17.72-8.74 5.47-19.53 5-29.42 4.59-6.56-0.99-14.13-2.44-18.17-8.28-3.95-5.89-2.76-13.33-2.94-20.02 0.23-6.76-1.06-14.17 2.62-20.26 3.72-5.92 11.12-7.57 17.55-8.63m0.12 14.43c-2.95 0.58-4.44 3.58-4.4 6.38-0.2 5.98-0.59 12.07 0.41 17.99 1.22 4.61 6.94 4.4 10.74 4.6 4.3-0.22 9.67 0.68 12.94-2.74 2.39-4.5 1.16-9.91 1.5-14.8-0.14-4.01 0.54-10.12-4.48-11.38-5.45-1.22-11.25-1.15-16.71-0.05z"/>
  <path d="m408.65 418.7c5.4 0.24 10.9-0.53 16.24 0.42 7.74-1.32 16.06-0.71 22.92 3.41 7.56-4.46 17.01-5.09 25.35-2.66 4.77 1.58 9.68 4.31 11.96 9.02 1.56 3.46 1.77 7.34 1.85 11.08-0.01 12.01 0 24.02 0 36.03h-15.65c0-10.67-0.04-21.34-0.03-32-0.14-2.96 0.03-6.16-1.51-8.79-1.4-2.31-4.4-2.46-6.8-2.43-2.11 0.07-4.63 0.39-5.8 2.41-1.54 2.62-1.39 5.8-1.53 8.74 0.01 10.69-0.06 21.37-0.03 32.06-5.22 0.02-10.43 0.01-15.65 0.01-0.04-11.36 0.08-22.71-0.06-34.07-0.19-2.96-0.3-6.8-3.27-8.4-2.92-1.02-6.34-1.13-9.19 0.16-2.84 1.73-2.88 5.5-3.07 8.46-0.08 11.28 0 22.57 0 33.85-5.24 0-10.49 0-15.73-0.01 0-19.1-0.01-38.19 0-57.29z"/>
  <path d="m496.15 419.1c12.62 0.05 25.25-0.09 37.87 0.07 5.5 0.09 11.36 1.66 14.87 6.2 3.88 4.21 3.78 10.35 3.2 15.69-0.23 2.42-1.56 4.5-2.8 6.51 3.21 4.09 3.36 9.48 2.91 14.43-0.45 5.62-4.66 10.44-9.76 12.52-3.34 1.25-6.96 1.43-10.48 1.49-11.94-0.02-23.88 0-35.81-0.01v-56.9m15.67 13.11v8.8c6.99-0.14 14 0.26 20.98-0.21 2.48-0.06 4.21-2.44 3.64-4.84 0.1-2.84-3.07-3.68-5.32-3.68-6.43-0.2-12.87-0.04-19.3-0.07m0 21.89v8.8c6.99-0.13 14.01 0.27 21-0.21 2.39-0.09 4.16-2.32 3.63-4.69 0.23-2.93-3.09-3.87-5.4-3.85-6.41-0.14-12.82-0.01-19.23-0.05z"/>
  <path d="m571.27 423.23c6.92-3.66 14.97-4.63 22.7-4.72 7.32 0.44 15 1.38 21.4 5.21 5.16 3.2 6.87 9.53 6.91 15.26 0.11 12.33 0.01 24.67 0.04 37.01-5.34 0.01-10.69 0.01-16.03 0 0.06-6.23 0.02-12.46 0.04-18.68-8.96-0.01-17.93 0-26.89-0.01 0.01 6.23 0.04 12.46 0.03 18.7-5.32 0-10.63 0-15.94-0.01 0.06-12.64-0.13-25.28 0.09-37.92 0.04-5.78 2.28-12 7.65-14.84m11.63 11.34c-3.57 1.77-3.14 6.29-3.41 9.63 8.95-0.01 17.9 0 26.85 0-0.3-2.87 0.1-6.2-1.92-8.53-2.49-2.38-6.24-2.26-9.44-2.49-4.03 0.02-8.31-0.28-12.08 1.39z"/>
  <path d="m631.52 419.1c11.5 0.02 23-0.03 34.5 0.03 5.44 0.04 11.28 1.58 14.98 5.82 4.04 4.6 4.49 11.15 3.97 16.97-0.42 4.92-2.55 9.69-6.28 12.99 2.49 7.03 5.03 14.05 7.54 21.08-5.34 0.01-10.68 0.03-16.02-0.01-2.06-5.84-4.16-11.66-6.24-17.49-5.38 0.01-10.75 0-16.12 0.01v17.3c-5.44-0.01-10.88 0-16.32 0-0.01-18.9 0.01-37.8-0.01-56.7m16.34 12.79c-0.01 4.3-0.01 8.61-0.01 12.91 5.86-0.23 11.82 0.55 17.61-0.56 5.96-1.02 5.71-11.6-0.41-12-5.7-0.69-11.47-0.18-17.19-0.35z"/>
  <path d="m766.88 419.31c5.21-0.01 10.43-0.01 15.65-0.01 0 18.9 0 37.8-0.01 56.7-5.21 0-10.42 0-15.63-0.01-0.01-18.89 0.01-37.79-0.01-56.68z"/>
  <path d="m807.87 420.13c10.56-2.56 21.92-2.07 32.12 1.76 5.46 1.94 9.78 7.08 9.97 12.98 0.09 13.7 0 27.42 0.04 41.13-5.18 0-10.36 0.01-15.54-0.01 0.05-6.23 0.04-12.46 0.04-18.69-8.96 0.02-17.92-0.02-26.87 0.02 0.03 6.22 0 12.45 0.02 18.67-5.32 0.01-10.63 0.01-15.94 0.01 0.01-12-0.03-24.01 0.01-36 0.23-4.47 0.52-9.35 3.42-12.99 3.03-4.01 8.01-5.77 12.73-6.88m2.9 14.62c-3.27 1.93-2.78 6.21-3.08 9.45h26.84c-0.3-2.92 0.12-6.35-2.05-8.66-2.56-2.28-6.27-2.13-9.48-2.37-4.08 0.05-8.48-0.31-12.23 1.58z"/>
 </g>
</svg>
