<svg width="1950pt" height="1135.6pt" version="1.1" viewBox="0 0 1950 1135.6" xmlns="http://www.w3.org/2000/svg">
 <g transform="translate(56.67 596.06)">
  <path d="m906.98 104.99-10.07 56.87-77.85-34.03 2.16-14.64z" fill="#ec1d25"/>
 </g>
 <g transform="translate(56.67 596.06)" fill="#02a4da">
  <path d="m948.2 124.96h85.245c19.099 0 38.106 1.7018 56.885 5.6145 12.52 3.24 25.47 7.88 34.46 17.64 10.85 12.27 11.66 30.68 7.12 45.73-6.5465 17.769-23.484 27.826-40.994 33.196-6.1974 2.0612-12.051 3.7406-19.066 5.5335 15.52 3.36 31.2 10.62 40.59 23.93 8.16 11.31 8.07 26.51 4.62 39.47-7.16 21.93-26.69 37.57-47.81 45.28-28.75 10.45-60.14 9.15-90.25 9.62h-80.04l49.24-226.01m73.04 48.135-8.27 38.85c14.93 2.28 38.04-1.23 40.02-19.99 1.24-16.37-19.05-21.31-31.75-18.86m-17.04 80.95-10.23 49.9c8.99 0.01 18.69 1.27 27.03-2.93 12.13-6.36 17.01-22.52 11.97-34.97-4.91-10.6-18.45-12.15-28.77-12z"/>
  <path d="m1180.3 125.08h85.694l-36.07 169.9h62.81l-12.08 55.92h-148.66z"/>
  <path d="m1343.6 125.06h86.404l-33.36 153.62c-2.35 5.96 1.4 13.41 7.44 15.25 11.32 3.57 26.69 0.72 30.88-11.94l34.23-156.94h85.66l-37.41 167.22c-5.83 18.82-16.64 37.18-34.64 46.54-27.08 15.88-59.93 17.33-90.49 16.83-24.74-1.32-51.87-5.48-70.07-23.87-12.17-14.78-14.18-35.23-10.86-53.47z"/>
 </g>
 <g transform="translate(171.33 701.05)">
  <path d="m226.52 19.68h71.883c25.202 0 50.262 1.62 74.627 8.6795 16.84 4.77 32.74 15.92 39.22 32.68 6.34 21.02 4.02 44.83-6.96 63.91-11.73 20.26-33.28 32.53-55.29 38.68-22.86 5.97-46.88 8.54-70.43 6.51l-16.43 75.79h-84.84l48.22-226.25m75.01 50.38-11.16 49.87c13.24 0.93 28.4 0.57 38.17-9.74 4.4502-6.5288 7.6622-15.521 6.5017-23.546-1.4085-7.4189-5.0964-11.366-11.385-13.818-6.9705-2.6918-14.718-3.4378-22.127-2.7664z"/>
  <path d="m459.53 20.075h85.78l-49.16 225.84h-84.84z"/>
  <path d="m580.56 20.095h85.83l-33.48 154.56c-1.6 6.35 2.4 13.73 9.09 14.75 11.94 4.48 27.79-2.23 30.32-15.4l30.283-139.5 77.547 32.776-18.98 91.61c-4.65 21.79-10.43 44.49-25.05 61.91-15.97 16.29-38.46 24.42-60.67 27.42-26.55 3.35-53.9 4.4-80.04-2.25-18.5-3.74-37.34-14.03-44.67-32.3-9.94-25.74 0.49-52.58 5.08-78.27z"/>
  <path d="m238.74 293.59c24.45-1.26 49.84 2.64 71.63 14.36 21.15 10.02 36.9 32.25 36.04 56.06 0.79 18.97-9.21 37.59-24.34 48.7-23.25 17.62-53.73 21.84-82.11 21.81-26.43-0.64-53.79-7.58-74.66-24.46-16.36-13.5-25.47-35.95-20.83-56.97 2.8-17.72 14.83-32.84 29.85-42.11 19.09-12.34 42.04-16.55 64.42-17.39m-0.03 15.83c-22.38 1.84-48.68 8.35-60.26 29.67-8.1 16.23-8.19 36.73 1.44 52.33 13.43 18.54 36.83 25.89 58.75 27.32 21 0.49 43.42-2.69 60.54-15.88 25.2-18.01 24.38-61.07-1.12-78.53-17.01-12.14-38.78-16.31-59.35-14.91z"/>
  <path d="m2.7202 295.36c8.85-0.42 17.73 1.29 26.56-0.32 0.2 40.3-0.08 80.62 0.12 120.92 34.96 0.18 69.92-0.1 104.89 0.11 0.15 5.29 0.15 10.59 0 15.89-44.63 0.04-89.27 0.16-133.9-0.05-0.14-43.3 0.02-86.61-0.07-129.91-0.42-2.96-0.99-6.35 2.4-6.64z"/>
  <path d="m1489.7 296.55h31.24l86.39 135.58h-32.66l-24.61-40.655h-88.43l-22.72 40.655h-30.6l81.39-135.58m16.12 14.595-35.51 65.11h71.02z"/>
  <path d="m840.74 296.55h31.24l86.39 135.58h-32.66l-24.61-40.655h-88.43l-22.72 40.655h-30.6l81.39-135.58m16.12 14.595-35.51 65.11h71.02z"/>
  <path d="m966.6 295.24c38.77 1.92 77.65-0.09 116.44 1.06 16.55 1.2 34.55 5.01 46.01 18 8.56 10.01 9.73 26.77 0.09 36.51-12.93 14.57-33.63 16.79-51.82 19.36 32.25 10.36 52.45 39.54 76.22 61.75-11.72 0.13-23.42 0.2-35.11 0.03-18.96-16.56-34.76-36.88-55.39-51.63-19.97-13.9-46.07-6.51-68.65-8.23-0.23 19.95 0.13 39.9-0.11 59.85-9.31 0.06-18.61 0.3-27.89-0.02-0.3-45.22 0.36-91.57-0.38-136.21l0.59-0.47m27.8 15.83c-0.13 14.96-0.13 29.92 0 44.88 28.66-0.68 57.55 1.9 86.07-1.72 11.66-1.12 25.29-8.42 26.58-21.22-1.4-13.08-15.37-19.12-26.83-20.7-28.51-2.74-57.23-0.72-85.82-1.24z"/>
  <path d="m1371.7 295.36c8.46-0.05 17.11 1.43 25.6-0.26 0.11 45.62 0.12 91.24 0 136.86-9.65 0-19.29 0.31-28.91-0.05 1.37-43.57 1.58-87.31-0.04-130.89-3.45-5.17 1.07-4.82 3.35-5.66z"/>
  <path d="m367.4 296.13h42.69l58.265 115.93 63.205-115.93h37.73l-0.01 135.8h-26.89l-0.21-113.36-60.97 113.36h-25.71l-61.316-113.36 0.0562 113.36h-26.85z"/>
  <path d="m598.37 296.06c28.32-0.15 56.64 0.03 84.97-0.07 17.87-0.39 36.75 2.05 52 12.02 10.23 6.92 18.38 21.07 10.97 32.96-5.08 10.4-16.6 14.24-26 18.9 15.86 2.94 35.47 10.95 38.51 28.75 2.63 12.79-6.36 24.66-16.23 31.64-15.4 9.2-33.73 10.82-51.24 11.75-30.95-0.07-61.91 0.13-92.85-0.08 1.4-45.21 1.44-90.66-0.13-135.87m29.03 16c-0.14 13.62-0.13 27.25 0 40.89 22-0.28 44.1 0.94 66.05-0.68 10.71-0.73 24.84-4.5 27.57-16.57 1.55-10.53-7.5-19.28-17.35-21.05-25.08-4.92-50.9-1.76-76.27-2.59m0.01 57c-0.18 15.62-0.11 31.26-0.01 46.89 22.29-0.15 44.63 0.71 66.9-0.58 13.11-0.56 29.86-3.58 34.84-17.51 4.09-11.87-6.72-22.56-17.47-25.2-27.53-6.68-56.24-2.51-84.26-3.6z"/>
  <path d="m1164.4 296.06c31.64-0.05 63.29-0.17 94.95 0.06 23.67 1.05 49.19 6.87 65.79 25.1 24.81 27.37 19.17 76.18-12.77 95.82-28.14 17.7-63.33 14.66-95.02 14.97-17.33-0.09-34.65 0.15-51.95-0.07-0.57-45.29 0.99-90.67-1-135.88m29.05 16c-0.23 34.62-0.09 69.26-0.05 103.9 26.01-0.12 52.25 1.19 78.05-2.8 16.29-2.27 31.64-13.42 36.58-29.45 5.14-15.64 4.97-34.25-3.77-48.64-9.11-12.6-24.04-20.48-39.49-21.66-23.7-2.4-47.56-1.13-71.32-1.35z"/>
 </g>
 <g stroke-width="2.279">
  <path d="m768.42 12.899 113.93 481.76 114.43-479.67 0.79763 566.25h-51.438l0.27349-161.23-40.384 161.23h-47.358l-38.857-161.14-0.36464 161.14h-51.574z"/>
  <path d="m1809.2 366.51c28.1-6.5864 58.754-5.6976 85.532 5.652 24.408 10.392 42.071 32.864 49.592 57.956 6.7003 22.107 6.6545 45.717 3.988 68.485-3.0992 25.707-14.905 51.141-35.895 67.003-20.01 15.862-46.424 20.557-71.356 19.873-18.825-0.54696-37.9-3.692-54.72-12.535-7.3841-4.7176-14.312-10.142-20.602-16.249-7.4983-7.931-13.219-17.298-18.027-27.029-12.534-29.65-12.58-63.585-5.7658-94.648 2.2563-7.7715 5.31-15.27 8.5918-22.654 12.17-22.562 33.616-39.86 58.662-45.854m4.5808 59.278c-9.8224 11.167-11.874 26.733-12.58 41.023-0.433 14.723-0.091 29.924 5.2876 43.826 4.5808 12.079 15.543 22.084 28.556 23.77l-1.0939 0.38743c12.17 1.7776 25.685 0.79764 35.553-7.3385 9.0022-6.8371 13.196-18.004 14.95-28.83 2.9399-17.321 3.3276-35.302-0.4558-52.532l-0.5698 1.299c-0.1595-6.6548-3.5095-12.808-7.0422-18.278-13.742-20.055-46.88-21.947-62.605-3.3274z"/>
  <path d="m-4.2227e-6 365.88h192.97v53.614h-64.326v162.26h-63.391v-162.26h-65.249z"/>
  <path d="m206.54 365.74h170.48v46.435h-106.46v34.026h98.295v44.464h-98.295v41.74h109.59v49.352h-173.61z"/>
  <path d="m398.83 365.81h64.155v162.49h98.739v53.204h-162.89z"/>
  <path d="m575.11 365.94h170.48v46.435h-106.46v34.026h98.295v44.464h-98.295v41.74l109.59-2.7e-4v49.352h-173.61z"/>
  <path d="m1028.1 366.6h62.901v215.19h-62.901z"/>
  <path d="m1123.2 366.54h63.061l-0.2735 163.68h98.545v51.347l-161.88 5.7e-4z"/>
  <path d="m1369.2 365.72h69.328l77.578 215.85h-66.684l-11.486-35.12h-70.468l-9.8575 35.12h-65.306l76.894-215.85m12.375 133.48h44.373l-22.186-75.823z"/>
  <path d="m1522.1 366.38h59.072l77.168 118.44v-118.44h59.574v215.66h-59.588l-76.949-117.94v117.94h-59.278z"/>
 </g>
 <g transform="matrix(2.279 0 0 2.279 -25.525 -27.69)">
  <path d="m389.1 17.08c2.47-3.46 6.93-5.96 11.21-4.51 5.15 1.84 8 7.05 9.7 11.93 2.63 9.21 2.02 19.91-3.57 27.94-2.56 3.8-7.23 6.15-11.8 4.8-6.36-3.23-9.45-10.35-10.37-17.1-1.05-7.88 0.04-16.51 4.83-23.06z" fill="#f0cb32"/>
 </g>
</svg>
