<svg width="1465.8pt" height="200pt" version="1.1" viewBox="0 0 1465.8 200" xmlns="http://www.w3.org/2000/svg">
 <g transform="scale(2.7397)" fill="#0055a0">
  <path d="m338.07 0h196.93v73h-196.93v-73" fill="#0055a0"/>
 </g>
 <path d="m0 0h912.41v200h-912.41v-200" fill="#b2b3b5" stroke-width="2.7397"/>
 <g transform="scale(2.7397)" fill="#fbfdff">
  <path d="m19.515 13.215h26.95v28.795c0 9.3795 6.4766 11.173 14.202 11.173 6.8861 0 14.473-1.1578 14.203-11.173v-28.795h26.825v29.805c0 20.079-24.211 22.13-41.028 22.13-16.245 0-41.151-2.587-41.152-22.13z"/>
  <path d="m119.34 13.215 24.85-2.5e-4 31.365 26.905 2.5e-4 -26.905h25.405v51.45h-25.405l-31.365-26.915 2.5e-4 26.915h-24.85z"/>
  <path d="m244.36 13.36c10.52-1.1 21.291-1.347 31.75 0.4 7.9815 1.3331 16.088 4.3838 21.79 10.31 6.7684 7.0343 7.4903 18.929 2.11 26.94-4.6018 6.8519-12.638 10.444-20.43 12.38-10.32 2.5643-21.108 1.8955-31.64 1.38-8.4684-0.4145-16.75-3.3217-23.82-7.91-9.541-6.1922-12.609-20.429-6.15-29.92 5.8715-8.6287 16.59-11.98 26.39-13.58m7.03 12.23c-9.208 1.909-12.194 13.812-8.02 21.08 2.8291 4.9257 9.2562 6.0829 14.58 6.44 5.8567 0.39289 12.933-0.55386 16.55-5.59 2.5379-3.5341 2.146-8.3796 1.72-12.56-0.53397-5.2396-5.6026-8.71-10.4-9.59-4.7443-0.87029-9.6974-0.76115-14.43 0.22z"/>
 </g>
 <g transform="scale(2.7397)">
  <path transform="scale(.75)" d="m468.48 17.62v17.886h34.713v50.713h37.4v-50.713h35.593v-17.886z" fill="#fff" stroke-width="1.3333"/>
  <path d="m434.93 13.174 27.66 0.08259 18.75 35.014 18.75-35.014h25.95l-30.664 51.409h-28.198z" fill="#fbfdff"/>
 </g>
</svg>
