<svg width="800" height="244.96" version="1.1" viewBox="0 0 800 244.96" xml:space="preserve" xmlns="http://www.w3.org/2000/svg">
<style type="text/css">
	.st0{fill:#197AE9;}
	.st1{fill:#FFFFFF;}
</style>
<path class="st0" d="m0-1.1963e-6v244.96h244.88v-244.96z" stroke-width=".42337"/>
<g transform="matrix(.42337 0 0 .42337 0 -1.1963e-6)">
	<path class="st1" d="m367.1 155c-9.3-33.7-24.6-61.1-65.9-72-1.2-0.3-2.6-1.1-3.6-1.5-0.6-0.2-1-0.8-1-1.4v-10.6c0-0.8 0.7-1.5 1.5-1.5l9.2-0.1c0.8 0 1.5-0.7 1.5-1.5v-13.1c0-0.8-0.7-1.5-1.5-1.5h-9.2c-0.8 0-1.5-0.7-1.5-1.5v-8.1c0-0.8-0.7-1.5-1.5-1.5h-12.6c-0.8 0-1.5 0.7-1.5 1.5v8.1c0 0.8-0.7 1.5-1.5 1.5h-8.6c-0.8 0-1.5 0.7-1.5 1.5v13.2c0 0.8 0.7 1.5 1.5 1.5h8.7c0.8 0 1.5 0.7 1.5 1.5v10.6c0 0.6-0.4 1.2-0.9 1.4-0.9 0.4-2 1.1-2.7 1.3-34.5 9-62.7 37.6-67.3 72.5 53.1-11.1 104.8-10.1 156.9-0.3z"/>
	<path class="st1" d="m243.8 259.9c30 0.1 59.9 0.1 89.9 0 1.4 0 3.5-0.9 4-2 4.7-11.7 9.1-23.4 14-36.3-42.2-6.9-83.2-6.9-125.5 0 4.9 12.9 9.2 24.5 13.7 36.1 0.5 1.1 2.5 2.2 3.9 2.2z"/>
	<path class="st1" d="m478.8 266.6-10.2 10.2-12.2-12.2 10.2-10.2-10.6-10.5 12.8-12.8 10.5 10.5 10.2-10.2 12.2 12.2-10.2 10.2 23 23c9.7-9.8 19.6-19.8 23.7-23.9-21.6-21.4-43.3-42.8-65-64.3 2.3-2.5 4.1-4.6 5.8-6.4-5.1-5.3-9.9-10.2-15-15.5-3 2.8-5.9 5.5-9.3 8.8-4.3-8.3-10.1-14.1-17.9-17.7-24-11.3-55-4.2-71.4 16.6-1.9 2.4-3.5 2.6-6.3 2.2-24.1-4.2-48.5-8-73-6.8-22.6 1.1-45 4.5-67.5 6.7-1.5 0.1-3.8-0.2-4.6-1.2-11-14.3-25.8-21.5-43.4-22.4-19.1-1-36.2 3.4-46.4 21.9-0.2 0.3-0.8 0.5-1.3 0.8l-9.3-8.7c-5.3 5.2-10.2 9.9-15.3 14.9 2.2 2.5 4.1 4.7 6.7 7.7-21.6 21.4-64.4 63.9-64.4 63.9l22.7 23 22.5-22.5-10.2-10.2 12.2-12.2 10.2 10.2 10.5-10.5 12.8 12.8-10.5 10.5 10.2 10.2-12.2 12.2-10.2-10.2-22.6 22.5 23.8 24.1s42.8-43.2 64.5-65.1c1.7 1.6 3 2.9 4.7 4.6-4.9 5.5-9.5 10.8-14.2 15.9-13.3 14.6-25.5 30-32.6 48.7-12.7 33.8 0.4 63.7 33.7 77.4 0.9 0.4 1.8 1 3 1.7-47.3 16.3-61 66.5-43.3 101.3 18.5 36.6 62.5 50.8 98 32.3 35.6-18.6 52.9-66 25.9-106.3 16.6-16.7 33.1-33.3 49.4-49.6 16.4 16.3 32.9 32.8 49.6 49.3-26.1 38.4-10.9 85 22 104.5 31.9 18.9 74.5 10.4 95.7-20 13.9-20 17.3-41.9 9.6-65.1-7.6-23.1-24-37.8-47.5-46.5 11.3-3.6 20.3-8.6 27.4-16.4 17.6-19.2 19.5-41.1 10-64.5-7.2-17.7-18.9-32.4-31.6-46.4-4.9-5.4-9.6-10.9-14.6-16.5 1.7-1.6 2.9-2.7 4.1-3.9 0.7 0.6 1.3 0.9 1.7 1.4 19.5 19.6 39.1 39.1 58.6 58.7 2.4 2.4 4.7 4.6 4.7 4.6s2.3-2.1 4.5-4.4l8.1-8.1c1.1-1.2 5.3-5.4 10.7-10.9zm-104.7-83.5c6.4-10.2 16.6-13.8 26.1-10.8-3.9 5.4-9.1 10.6-11.9 16.8-5.2 11.6-3.9 24.1-2.3 36.4 0.1 1 1.7 6 2.1 6.8 5.5 10.9-11.8 24.3-13.8 25.9-8.1-24.9-15.2-51.2-0.2-75.1zm2.5 102.7c3.4 4.8 6.9 10 10.7 15 6.9 9.2 14.4 17.9 20.9 27.4 5.3 7.7 8.1 16.4 5.4 26-1.9 6.8-3.7 7.7-10.2 5.2-15.7-6.1-27.5-17.3-38.3-29.6-5-5.7-9.5-12-14.5-18.3 8.9-8.8 17.3-17.1 26-25.7zm-35 35c7.8 9 14.9 18.5 23.4 26.6 8.3 8 17.8 14.6 26.7 21.7-28.7 3-46.8-14.5-63.3-34.4 4.7-5.1 9.1-9.6 13.2-13.9zm-14.8-17c-3.8 3.9-7.6 7.8-12.2 12.5-5.4-9.1-10.4-17.5-15.7-26.5 7.2-1.3 13.6-2.5 19.9-3.3 1.2-0.2 3.2 0.9 3.9 2 2.5 3.9 4.5 8.1 6.8 12.2-1 1.1-1.8 2.2-2.7 3.1zm-112.8-40.8c8.5-20.1 12.9-40.9 9.9-63.8 43.6-6.7 86.8-6.7 130.6 0.1-2.9 22.7 1.4 43.1 9.7 62.9 0.5 1.3 0.2 3.7-0.7 4.7-7.8 8.4-15.8 16.7-24.5 25.8-3.3-6.3-6.2-11.1-8.4-16.1-1.4-3.2-2.8-4.5-6.7-3.6-7.9 1.8-16 2.8-24 4.3-14 2.6-27.4-1.3-41-3.3-1.6-0.2-3.3-0.4-4.9-1-3.1-1.2-4.4 0.3-5.6 2.9-2.6 5.4-5.4 10.6-8.5 16.6-1.9-1.8-3.4-3.2-4.9-4.7-6.5-6.5-13.1-12.8-19.3-19.5-1.3-1.2-2.3-4-1.7-5.3zm65.6 26.7c-5.3 9-10.4 17.6-16.1 27.3-3.9-4.2-6.6-7.9-10.1-10.6-4.8-3.7-4.2-7-1.3-11.6 5.5-8.9 5.3-9 15.5-7.3 3.6 0.8 7.4 1.4 12 2.2zm-43.6 31.2c4.7 4.7 9 9.1 13.4 13.5-8.5 20.2-42.2 38.6-64.1 33.9 21.8-11.1 36.9-28.6 50.7-47.4zm-62.4 39.2c-4.4 1.7-6.4 0.2-7.9-3.6-3.2-8.2-2-16.1 2-23.6 2.8-5.2 6.4-10.1 10-14.9 7.9-10.5 16-20.8 24.7-32 7.8 7.9 15.7 15.8 23.4 23.8 0.6 0.7 0.8 2.7 0.3 3.4-13.9 19.7-29.2 37.7-52.5 46.9zm31.2-176.7c8.3 12.2 9.5 25.9 7.5 39.8-1.5 10.4-5.1 20.6-7.8 30.8-0.2 0.6-0.8 1-2 2.6-4.2-4.7-8.4-9-12.1-13.6-0.9-1.2-1-3.7-0.5-5.3 3.3-11.5 4.5-23.2 3.6-35.1-0.9-12.2-5.1-22.7-17-29.7 11.4-3.7 21.3 0.3 28.3 10.5zm-66.7-7.8c4.4-5.5 12.2-9.3 22.4-10.1-10.9 7-16.4 16.5-19.8 27.5-8.6-6.8-8.9-9.4-2.6-17.4zm13.7 28.9c-0.6-0.6-0.9-2-0.7-2.7 2.3-6 4.6-12 7.4-17.7 0.7-1.4 3.9-2.6 5.7-2.3 6.7 0.9 11.8 4.5 14.4 10.8 5.1 12.6 3 25.2 0.3 39.5-9.8-10-18.5-18.8-27.1-27.6zm-6.9 169.8c-14.1-12.2-18.5-27.9-13.4-46 4.7-16.8 14.4-30.6 25.5-43.6 6.6-7.7 13.4-15.2 20.2-22.8 5 5.1 9.9 10.1 15.8 16.1-7.7 10.2-15.6 21-24 31.5-7.5 9.5-14.5 19.1-16.4 31.4-3.1 20.2 7.5 35.5 27.7 39.3 5.2 1 10.5 1.1 17 1.8-19.8 7.2-37.2 5.4-52.4-7.7zm35 140.2c-27-0.2-48.4-22.2-48.3-49.4 0.2-26.7 22.1-48.2 49-48.1 26.7 0.1 49.1 22.4 48.8 48.6-0.3 27.4-22.3 49.1-49.5 48.9zm42.4-108.4c-7.3-3.4-15.4-7.2-24.3-11.4 27.1-9.1 43.8-30.4 60.6-51.7 4.9 5.1 9.2 9.6 13.2 13.8-16.2 16.2-32.8 32.7-49.5 49.3zm66.2-65.5c-4.7-4.9-9.9-10.2-15.5-16 5.2-8.6 10.6-17.6 16.2-26.9 5.5 9.1 10.8 17.9 16.1 26.8-5.6 5.4-11.2 10.7-16.8 16.1zm16.7 16.3c4.5-4.1 9.3-8.6 14.5-13.4 3.2 3.6 7 7.5 10.3 11.8 12.9 17 28.2 30.9 48.4 38.7 0.5 0.2 1 0.6 1.3 0.9-8.5 4-16.8 7.8-25.1 11.7-16.2-16.4-32.7-32.9-49.4-49.7zm141.2 108.4c0.2 26.6-21.7 48.9-48.2 49.2-26.8 0.2-49.2-21.1-49.5-47.1-0.3-28.3 20.7-50.1 48.7-50.4 26.4-0.2 48.8 21.8 49 48.3zm-0.9-142c6.6 18.2 4.5 35-9.6 48.8-15 14.7-33.1 17.3-52.7 10.5-0.4-0.1-0.7-0.5-0.6-0.4 6.7-1.1 14-1.3 20.6-3.5 20-6.6 28.6-24.9 20.9-45.2-2.7-7.2-7.2-13.8-11.6-20.2-7.9-11.3-16.4-22.2-24.8-33.2-2.2-2.8-1.8-4.7 0.8-7.1 4.1-3.8 7.8-8.1 11.9-12.4 17.3 20.1 36.2 37.9 45.1 62.7zm-25.7-112.4c-6.4 6.5-12.6 13.2-18.8 19.8-0.6-0.3-1.1-0.7-1.7-1-2.6-11.7-3.6-23.5-0.2-35.2 0.9-3.1 3.1-6.6 5.7-8.4 10.5-7.2 14.3-6.8 18.9 4.2 5 11.6 5 11.5-3.9 20.6zm17.9-18.6c-3.8-10.7-9-20-18.3-26.5 9.2 0.9 17.2 3.9 22.3 11.9 4.6 7 4.3 7.7-4 14.6z"/>
</g>
<g transform="matrix(.42337 0 0 .42337 0 -1.1963e-6)">
	<path d="m644 45.1h15l68.8 184.6c1 2.8 2 5.7 3 8.8 1.1 3.1 2 6.1 2.9 8.8 1.1 3.3 2 6.5 2.9 9.7h0.8c0.8-3.2 1.8-6.4 2.9-9.7 0.8-2.8 1.8-5.7 2.8-8.8s2-6.1 3.1-8.8l69.1-184.6h15l-85.3 228.3h-15.4z"/>
	<path d="m961 194.4h-97l-29.3 79h-15l85.3-228.3h15.1l85.3 228.3h-15zm-48.7-132.9-2.9 10c-0.9 2.8-1.8 5.7-2.8 8.9s-1.9 6-2.8 8.4l-34.8 92.6h87l-34.5-92.5c-1-2.4-1.9-5.3-2.9-8.4s-1.9-6.2-2.7-8.9l-2.9-10h-0.7z"/>
	<path d="m1067 58.2h-85.2v-13.1h184.3v13.1h-85.2v215.2h-14v-215.2z"/>
	<path d="m1202.2 45.1h14v228.3h-14z"/>
	<path d="m1271.5 157.7c0-16.6 2.9-31.9 8.7-46.1s13.7-26.5 23.8-36.9c10.1-10.5 22-18.6 35.8-24.5s28.8-8.8 44.9-8.8c6.8 0 13.1 0.4 19 1.2s11.4 1.9 16.5 3.3 9.8 2.9 14 4.6 8.1 3.4 11.5 5.3c8 4.2 14.8 9 20.5 14.3l-8.6 10.5c-5.5-4.8-11.9-9.1-19.3-12.9-6.3-3.2-13.8-6.1-22.8-8.8s-19.1-4.1-30.6-4.1c-14 0-27.1 2.6-39.2 7.8s-22.6 12.4-31.4 21.6-15.7 20.1-20.8 32.6c-5 12.6-7.6 26.2-7.6 41 0 14.9 2.5 28.8 7.5 41.7s11.9 24.2 20.9 33.7 19.5 17.1 31.7 22.6 25.5 8.3 39.8 8.3c6 0 11.8-0.5 17.3-1.4s10.6-2.1 15.4-3.5 9.2-3.1 13.3-4.9c4.1-1.9 7.8-3.7 11.1-5.7 7.7-4.6 14.5-9.8 20.2-15.6l8.8 9.7c-6.4 6.5-13.8 12.3-22.3 17.4-3.7 2.2-7.8 4.4-12.3 6.4s-9.3 3.9-14.6 5.5-11 2.9-17.2 3.9-12.7 1.5-19.6 1.5c-11.1 0-21.7-1.4-31.6-4.3s-19.1-6.9-27.6-12-16.1-11.4-22.9-18.7-12.6-15.4-17.4-24.3-8.5-18.4-11.1-28.6-3.8-20.8-3.8-31.8z"/>
	<path d="m1632.1 194.4h-96.9l-29.3 79h-15l85.3-228.3h15.1l85.3 228.3h-15zm-48.7-132.9-2.9 10c-0.9 2.8-1.8 5.7-2.8 8.9s-1.9 6-2.8 8.4l-34.9 92.5h87.1l-34.5-92.5c-1-2.4-1.9-5.3-2.9-8.4s-1.9-6.2-2.7-8.9l-2.9-10z"/>
	<path d="m1715 45.1h13.1l130 179.1c1.8 2.7 3.8 5.6 6 8.8s4.2 6.3 6 9.3c2.1 3.5 4.3 7 6.5 10.5h0.6c-0.3-3.3-0.6-6.6-0.8-10-0.2-2.9-0.4-6-0.6-9.3s-0.2-6.4-0.2-9.3v-179.1h14v228.3h-13.1l-130-178.9c-1.9-2.7-4-5.6-6.1-8.9-2.2-3.3-4.2-6.4-6-9.4-2.1-3.5-4.3-7-6.5-10.5h-0.6c0.2 3.4 0.5 6.8 0.8 10.2 0.2 2.9 0.4 6 0.6 9.3s0.2 6.4 0.2 9.3v178.9h-14v-228.3z"/>
	<path d="m658.6 546.4 17.9-233.1h63.3l32.9 98.8 12.7 38.1h0.7c4.3-15.6 8.2-28.5 11.7-38.5l33.9-98.4h61.9l17.5 233.1h-55.6l-7.1-105c-0.5-5.2-0.7-11.1-0.7-17.6s0.1-11.7 0.4-15.6l0.3-5.9h-0.7c-5.5 16.2-10 29.1-13.7 38.8l-23.8 67.8-49.5 0.2-23.9-67.8-13.7-38.8c0.4 14.3 0.4 27.2 0 38.9l-7.3 105z"/>
	<path d="m950.4 546.4v-233.1h146v48.9h-89v42.4h71.1v48.9h-71.1v44h93.6v48.9z"/>
	<path d="m1132.3 546.4v-233.1h82.8c36.9 0 66.2 10.3 87.9 30.8 21.6 20.5 32.4 49 32.4 85.2 0 36.5-10.8 65.1-32.4 85.9s-50.9 31.1-87.9 31.1h-82.8zm57-48.9h23.5c20 0 35.6-5.9 46.8-17.6s16.8-28.6 16.8-50.5c0-21.7-5.7-38.4-17-49.9s-26.8-17.3-46.6-17.3h-23.5z"/>
	<path d="m1365.7 546.4v-233.1h57v233.1z"/>
	<path d="m1596.3 546.4-14.3-48.9h-72.6l-13.6 48.9h-56.8l77.4-233.1h61.8l76.6 233.1zm-47.6-180h-0.7c-3.5 17-6.7 30.3-9.6 40.1l-14.5 45.3h47.1l-12.8-45.4z"/>
</g>
</svg>
