<svg width="311.21pt" height="128.13pt" version="1.1" viewBox="0 0 311.21 128.13" xmlns="http://www.w3.org/2000/svg">
 <g transform="translate(-42.625 -36.218)" fill="#d31900">
  <path d="m42.625 36.235h247.38c16.54-0.4 33.02 6.435 44.67 18.135 12.38 12.05 19.54 29.34 19.15 46.63 0.17 14.14-4.85 28.18-13.46 39.35-10.22 13.11-25.71 22.48-42.38 24h-255.36v-128.12"/>
  <path d="m286.31 69.44c2.41-0.98 5.27-1 7.51 0.43 2.2 2.06 2.38 5.38 2.35 8.2-0.88 10.81-3.46 21.38-5.75 31.95-1.57 6.15-2.84 12.6-6.27 18.04-2.21 3.75-7.52 5.51-11.35 3.25-3.49-3-2.28-8.18-2.15-12.22 1.91-12.79 4.51-25.52 8.05-37.96 1.54-4.34 3.1-9.6 7.61-11.69z"/>
 </g>
 <g transform="translate(-42.625 -36.218)" fill="#fdfdfd">
  <path d="m283.63 55.9c7.76-1.07 16.18-1.49 23.44 1.93 5.11 2.37 8.33 7.6 9.13 13.07 1.37 9.08-0.57 18.22-2.24 27.13-2.17 10.26-4.22 20.74-9.03 30.16-3.56 7.02-9.54 13.05-17.11 15.58-6.32 2.36-13.2 2.26-19.83 1.84-6.12-0.51-12.63-3.27-15.51-9.01-2.37-4.79-2.78-10.37-2.47-15.62 0.76-10.8 3.08-21.42 5.7-31.9 2.51-8.96 5.61-18.27 12.27-25.07 4.17-4.31 9.8-6.98 15.65-8.11m2.68 13.54c-4.51 2.09-6.07 7.35-7.61 11.69-3.54 12.44-6.14 25.17-8.05 37.96-0.13 4.04-1.34 9.22 2.15 12.22 3.83 2.26 9.14 0.5 11.35-3.25 3.43-5.44 4.7-11.89 6.27-18.04 2.29-10.57 4.87-21.14 5.75-31.95 0.03-2.82-0.15-6.14-2.35-8.2-2.24-1.43-5.1-1.41-7.51-0.43z"/>
  <path d="m73.44 56.8h21.47l-3.27 67.83 24.23-67.83h21.66l-37.99 87.555h-26.1z"/>
  <path d="m141.23 56.81h49.433l-3.45 16.645h-29.49l-3.61 17.375h27.48l-3.29 16.79h-27.67l-4.21 19.975h30.61l-3.47 16.705-50.92 2.4e-4z"/>
  <path d="m198.03 56.81h35.03c5.25 0.15 11.02 1.4 14.54 5.64 3.52 3.89 3.57 9.5 3.12 14.43-0.77 6.32-2.97 12.71-7.31 17.49-3.23 3.52-7.71 5.55-12.29 6.62 4.21 0.72 9.25 2.4 10.38 7.08 1.79 11.2-3.64 21.98-3.11 33.17l2.31 3.0598h-22.31c-1.22-3.38-0.33-6.9198 0.11-10.35 0.98-6.99 3.33-13.88 2.9-21.01-0.05-2.01-1.41-4.25-3.52-4.52-3.4-0.4-6.84-0.13-10.25-0.18l-7.55 36.06h-20.1m35.44-73.01-4.85 22.29h5.1878l5.3122-0.53025c7.21-2.45 10.24-11.43 8.26-18.3-1.5612-2.6811-4.225-3.4597-7.0796-3.4597z"/>
 </g>
</svg>
