<svg id="b" width="195.27pt" height="98.6pt" version="1.1" viewBox="0 0 195.27 98.6" xmlns="http://www.w3.org/2000/svg" xmlns:xlink="http://www.w3.org/1999/xlink">
 <defs id="c">
  <linearGradient id="a" x1="104.39" x2="104.39" y1="116.94" y2="36.442" gradientUnits="userSpaceOnUse">
   <stop id="d" stop-color="#b0b0af" offset="0"/>
   <stop id="e" stop-color="#5c5c5a" offset="1"/>
  </linearGradient>
 </defs>
 <g id="f" transform="translate(-16.005 -27.901)" fill="url(#a)">
  <path id="g" d="m97.38 28.48c9.91-1.37 20.8-0.5 29.54 4.7l-6.11 37.53-4.09-22.89h-48.65v13.19l11.87-1e-6v54.06c-23.298-13.314-29.461-47.456-13.265-68.178 3.8844-4.9033 7.5639-8.0856 12.118-11.224 5.5415-3.7311 11.928-6.0813 18.587-7.1876z"/>
  <path id="h" d="m142.13 45.9c11.74 12.78 14.31 33.75 5.93 49.13-8.19 18.55-30.485 30.64-50.235 27.3v-61.32h4.845l6.58 45.875h24.6z"/>
 </g>
 <g id="i" transform="translate(-16.005 -27.901)" fill="#c1272d">
  <path id="j" d="m159.05 30.065h47.905v14.945h-27.885v15.23c5.5575-4.6774 12.877-6.2698 19.638-4.5424 7.1112 1.6481 9.389 6.1724 10.94 12.454 1.5606 5.0595 2.6416 37.78 0.15599 42.99-2.4068 7.4016-7.9952 10.978-12.484 12.979-10.968 4.6776-27.451 2.5373-34.531-7.0781-5.405-7.5059-5.0547-19.247-4.7591-27.983h21.869v12.864c0.24123 3.6907 0.36822 9.4113 4.7596 9.7748 4.4802-0.40549 4.1619-4.0547 4.1406-7.3675-0.0547-6.1017 0.39787-16.29 0-27.39 0-12.358-9.139-12.067-9.139-0.04631h-21.66z"/>
  <path id="k" d="m40.32 30.15h12.605v93.785h-21.88v-59.145c0-3.0325-1.0622-6.069-3.6456-7.4612-3.1856-1.6652-7.821-0.99824-11.394-1.5388v-10.52c9.29-2.82 18.045-7.51 24.315-15.12z"/>
 </g>
</svg>
