<?xml version="1.0" encoding="UTF-8"?>
<svg id="svg14" width="859.42pt" height="600.01pt" version="1.1" viewBox="0 0 859.42 600.01" xmlns="http://www.w3.org/2000/svg" xmlns:cc="http://creativecommons.org/ns#" xmlns:dc="http://purl.org/dc/elements/1.1/" xmlns:rdf="http://www.w3.org/1999/02/22-rdf-syntax-ns#">
 <metadata id="metadata20">
  <rdf:RDF>
   <cc:Work rdf:about="">
    <dc:format>image/svg+xml</dc:format>
    <dc:type rdf:resource="http://purl.org/dc/dcmitype/StillImage"/>
    <dc:title/>
   </cc:Work>
  </rdf:RDF>
 </metadata>
 <g id="g877" transform="matrix(3.3566 0 0 3.3566 -.0023004 -104.05)">
  <path id="path3" d="m22.57 58.008c16.9-21.716 47.086-31.506 73.693-25.047 21.866 4.9659 41.872 20.629 49.351 42.127-5.8735-9.7742-15.933-16.69-26.945-19.398-15.603-4.1182-33.006 1.0127-44.183 12.58-4.0957-7.0662-10.794-12.505-18.663-14.778-11.049-3.4881-23.547-1.8453-33.253 4.5158z" stroke-width=".75013"/>
  <path id="path5" d="m35.997 75.958c1.7628-3.8707 6.6612-5.8435 10.652-4.5083 4.7408 1.4027 7.6213 6.5487 7.4338 11.32-0.21754 7.9964-4.7258 15.115-9.8492 20.951l-26.037 28.167c-7.5538-14.057-10.487-30.77-7.7564-46.501h24.552c-0.50259-3.1356-0.47258-6.5412 1.0052-9.4292z" stroke-width=".75013"/>
  <path id="path864" d="m129.66 96.195a22.089 22.003 0 0 1-22.089 22.003 22.089 22.003 0 0 1-22.089-22.003 22.089 22.003 0 0 1 22.089-22.003 22.089 22.003 0 0 1 22.089 22.003z" style="paint-order:stroke markers fill"/>
  <path id="path9" d="m50.677 123.36 15.363-14.553c1.8153 5.2209 4.3433 10.127 7.6664 14.553z" stroke-width=".75013"/>
  <path id="path11" d="m139.33 125.3c3.6306-3.5331 5.9936-8.0414 8.394-12.437-3.6381 16.165-12.925 31.251-26.712 40.65-10.562 7.4263-23.299 11.417-36.119 12.265-21.641 1.6578-44.648-6.0873-58.885-22.935h52.813v-14.496c17.163 13.945 45.042 13.082 60.509-3.0455z" stroke-width=".75013"/>
 </g>
 <g id="g870" transform="matrix(6.3868 0 0 6.3868 159.04 676)">
  <path id="path17" d="m-12.455-25.902-3.971 8.6974-1.8984-8.6974h-2.7402l-3.8364 13.829h2.5258l2.6529-9.611h0.0318l2.073 9.611 1.2153-0.056 4.3682-9.3485 8e-3 0.0556 0.366 9.3489h2.414l-0.556-13.829z"/>
  <path id="path19" d="m0.46676-23.591h-4.853l-0.397 3.2645h4.265l-0.278 2.3113h-4.258l-0.436 3.6303h6.116l-0.278 2.311h-8.618l1.66-13.828h7.355z"/>
  <path id="path21" d="m7.3388-25.902c4.694 0 6.076 3.7331 6.076 6.7275 0 4.1223-2.423 7.1013-5.56 7.1013h-6.076l1.644-13.829zm-2.78 11.517h2.343c2.788 0 3.924-2.4382 3.924-4.829 0-2.4305-1.382-4.3765-3.972-4.3765h-1.207z"/>
  <path id="path23" d="m15.49-25.902-1.652 13.829h2.501l1.661-13.829z"/>
  <path id="path25" d="m27.815-12.076h-2.574l-0.357-3.019h-3.662l-1.144 3.019h-2.756l5.759-14.012h2.66zm-5.87-4.9886h2.724l-0.619-6.1239h-0.032z"/>
  <path id="path27" d="m36.675-22.557c-0.762-0.6513-2.025-1.2153-2.915-1.2153-0.913 0-1.66 0.6116-1.66 1.5171 0 1.9936 4.337 2.2557 4.337 6.1239 0 2.2324-1.35 4.2334-3.987 4.2334-1.716 0-2.955-0.5-4.003-1.31l0.373-2.415c0.953 0.81 2.351 1.422 3.336 1.422 1.017 0 1.692-0.612 1.692-1.525 0-2.2879-4.337-2.55-4.337-6.1798 0-2.3908 1.763-4.1779 4.146-4.1779 1.136-3.5e-5 2.343 0.38123 3.36 1.0961z"/>
  <path id="path29" d="m46.002-23.591h-4.853l-0.397 3.2645h4.265l-0.278 2.3113h-4.257l-0.437 3.6303h6.108l-0.27 2.311h-8.618l1.66-13.828h7.347z"/>
  <path id="path31" d="m57.417-23.591h-3.829l-1.382 11.517h-2.502l1.374-11.517h-3.725l0.278-2.3114h10.064z"/>
 </g>
 <path id="path2" d="m575.45 146.34-0.48586 3.8385-18.174 142.5h283.96l18.67-146.34zm38.006 16.207h17.737l-5.9337 46.917h59.241l5.971-46.917h17.753l-14.394 113.66h-17.753l6.2375-48.302h-59.399l-6.099 48.302h-17.758zm115.51 0h33.373c10.343 0 18.873 1.8127 25.377 5.1181h0.0585c6.7175 3.4119 12.102 7.8368 16.047 13.115 3.9983 5.331 6.8773 11.302 8.5829 17.806 1.7054 6.6108 2.559 13.115 2.559 19.246 0 8.53-1.28 16.474-3.6785 23.617-2.5058 7.2504-5.9175 13.381-10.236 18.5-4.265 5.1712-9.4364 9.1698-15.248 11.995-5.7575 2.8256-12.049 4.265-18.819 4.265h-52.299zm15.834 14.928-0.48001 3.8385-9.9693 79.967h24.044c6.4508 0 12.315-1.2273 17.273-3.8385 4.7446-2.5058 8.7964-5.9175 11.889-10.076 3.0389-4.1585 5.2781-8.9031 6.6639-14.128 1.44-5.2246 2.1858-10.503 2.1858-15.78 0-5.3844-0.8527-10.609-2.5056-15.46-1.6527-4.8514-4.1052-9.1166-7.3573-12.742v-0.0585c-3.3054-3.6252-7.4102-6.5039-12.155-8.5831-4.8512-2.1325-10.396-3.1454-16.474-3.1454z" color="#000000" color-rendering="auto" fill="#a7a5a5" image-rendering="auto" shape-rendering="auto" solid-color="#000000" stroke-width="5.3311" style="font-feature-settings:normal;font-variant-alternates:normal;font-variant-caps:normal;font-variant-ligatures:normal;font-variant-numeric:normal;font-variant-position:normal;isolation:auto;mix-blend-mode:normal;shape-padding:0;text-decoration-color:#000000;text-decoration-line:none;text-decoration-style:solid;text-indent:0;text-transform:none;white-space:normal"/>
</svg>
