<svg id="a" width="57.444mm" height="16.462mm" version="1.1" viewBox="0 0 57.444 16.462" xmlns="http://www.w3.org/2000/svg">
 <g id="b" transform="translate(45.731 -140.6)">
  <g id="c" transform="matrix(.35278 0 0 .35278 -45.731 140.6)" fill="#4eb8db">
   <path id="d" d="m8.4979 0.83339c4.57-1.05 9.62-1.25 14 0.66 3.67 1.57 5.86 5.54 5.93 9.44 0.32 7.16-1.48 14.91 2.29 21.47-2.67 1.62-7.01 2.34-8.1-1.5-3.33 1.84-6.89 3.82-10.84 3.48-4.76-0.03-9.86-2.76-11.3-7.53-1.4-4.14 0.37-8.98 4.08-11.27 5.35-3.63 12.11-3.23 18.26-2.91-0.18-2.49-0.46-5.44-2.99-6.7-4.15-1.8-9.77-1.49-12.99 1.99-1.31 1.96-3.85-0.08-3.86-1.91-0.28-3.1 3.1-4.46 5.52-5.22m-0.1 18.57c-2.78 2.05-2.73 6.92 0.41 8.62 4.49 2.37 10.01 0.74 13.72-2.37-0.08-2.76-0.08-5.51-0.05-8.27-4.68-0.04-10.13-1.14-14.08 2.02z"/>
   <path id="e" d="m32.078 17.923c0.23-11.94 13.89-20.7 24.95-17.11 2.56 0.94 1.57 3.97 1.36 5.96-0.99834-0.47072-3.2815-1.4672-5.9831-1.4727-3.9685-0.15671-8.4085 2.0161-10.557 4.6327-4.36 4.59-4.66 13.35 1.03 17.02 4.68 2.83 10.98 2.42 15.49-0.58 1.24 1.7 1.53 3.72 1.07 5.75-0.3329 0.61247-2.5284 1.8494-4.48 2.13-2.8006 0.43922-6.3459 0.52229-9.6081-0.18367-1.7344-0.37533-3.4412-0.87094-5.0419-1.7463-5.35-2.54-8.93-8.43-8.23-14.4z"/>
   <path id="f" d="m61.558 8.5734c2.99-4.45 8.02-7.25 13.26-8.07 6.29-1.07 12.56 0.87 18.87 0.65-0.83 10.93-1.6 21.91-0.6 32.85 0.16 4.28 0.45 8.6 1.96 12.66-2.78 0-5.57 0-8.35-0.23-0.13-5.69 0.19-11.39-0.12-17.08-5.71 6.86-17.26 6.54-23.26 0.24-5.57-5.37-5.95-14.72-1.76-21.02m7.75-0.23c-4.52 3.6-5.19 10.31-3.27 15.43 2.95 6.16 11.61 6.95 16.86 3.37 1.61-1.2 3.9-2.4 4.06-4.65 0.17-5.56 0.1-11.13 0.05-16.69-5.89-0.61-12.84-1.71-17.7 2.54z"/>
   <path id="g" d="m96.928 1.7634c2.75-1.14 7.67-2.58 8.13 1.8-0.01 6.74-1.31 13.54-0.27 20.28 0.39 1.96 1.24 4.19 3.32 4.88 5.03 1.86 11.5-0.81 13.8-5.58 0.35-7.11 0.94-14.54-1.71-21.33 2.49-0.67 6.02-2.65 7.84 0.22 1.38 10.23-1.5 20.88 1.63 30.95-1.65 0.36-3.3 0.77-4.93 1.24-1.75-0.69-2.57-2.23-2.94-3.99-0.12844-0.3878-0.65086-0.01702-0.89 0.29-6.04 6.31-19.12 5.36-21.98-3.69-2.21-8.2 1.45-17.05-2-25.07z"/>
   <path id="h" d="m140.61 0.83349c4.57-1.05 9.62-1.25 14 0.66 3.67 1.57 5.86 5.54 5.93 9.44 0.31999 7.16-1.48 14.91 2.29 21.47-2.67 1.62-7.01 2.34-8.1-1.5-3.33 1.84-6.89 3.82-10.84 3.48-4.76-0.03-9.86-2.76-11.3-7.53-1.4-4.14 0.37-8.98 4.08-11.27 5.35-3.63 12.11-3.23 18.26-2.91-0.18-2.49-0.46-5.44-2.99-6.7-4.15-1.8-9.77-1.49-12.99 1.99-1.31 1.96-3.85-0.08-3.86-1.91-0.28-3.1 3.1-4.46 5.52-5.22m-0.1 18.57c-2.78 2.05-2.73 6.92 0.41 8.62 4.49 2.37 10.01 0.74 13.72-2.37-0.08-2.76-0.08-5.51-0.05-8.27-4.68-0.04-10.13-1.14-14.08 2.02z"/>
  </g>
 </g>
</svg>
