<svg width="600pt" height="122.2pt" version="1.1" viewBox="0 0 600 122.2" xmlns="http://www.w3.org/2000/svg">
 <g transform="matrix(1.2186 0 0 1.2186 0 -.88326)" fill="#0e7473">
  <path d="m259.03 95.94h12.631l10.35-22.695h41.6l10.35 22.695h12.631l-43.78-95.215zm43.781-69.738 15.91 36.293h-31.821z"/>
  <path d="m156.22 95.94h12.06l10.624-59.15 27.439 61.481 27.441-61.481 10.624 59.15h12.06l-18.88-95.215-31.246 71.47-31.244-71.47z"/>
  <path d="m114.24 4.385h11.785v81.115h27.705v10.44h-39.49z"/>
  <path d="m353.76 4.385h55.05v10.87h-21.8v80.685h-11.515v-80.685h-21.735z"/>
  <path d="m412.59 4.3848 39.88 96.615 39.88-96.615h-12.69l-27.19 67.355-27.19-67.355z"/>
  <path d="m0 4.385h60.62l-41.93 91.555h-18.69z"/>
  <path d="m84.11 4.385h20.32v44.625z"/>
  <path d="m72.545 7.29 20.625 44.94-41.25 0.01z"/>
  <path d="m31.89 95.94 14.87-32.2h51.48l6.19 13.45v18.75z"/>
 </g>
</svg>
