<?xml version="1.0" encoding="UTF-8"?>
<!-- Created with Inkscape (http://www.inkscape.org/) -->
<svg id="svg4517" width="361.05mm" height="83.067mm" version="1.1" viewBox="0 0 361.05 83.067" xmlns="http://www.w3.org/2000/svg" xmlns:cc="http://creativecommons.org/ns#" xmlns:dc="http://purl.org/dc/elements/1.1/" xmlns:rdf="http://www.w3.org/1999/02/22-rdf-syntax-ns#">
 <metadata id="metadata4514">
  <rdf:RDF>
   <cc:Work rdf:about="">
    <dc:format>image/svg+xml</dc:format>
    <dc:type rdf:resource="http://purl.org/dc/dcmitype/StillImage"/>
    <dc:title/>
   </cc:Work>
  </rdf:RDF>
 </metadata>
 <g id="layer1" transform="translate(197.54 -107.3)">
  <path id="path2" d="m-197.54 190.37 51.64-83.067 29.532 47.65-21.88 35.417zm33.306-17.919h36.615l-18.284-29.453z" fill="#f47920" stroke-width=".35278"/>
  <g id="g12" transform="matrix(.35278 0 0 .35278 -228.78 78.217)" fill="#fff">
   <path id="path4" d="m349.51 86.21h62.44l-25.42 177.66h84.24l-6.72 52.985h-145.96z"/>
   <path id="path6" d="m510.38 86.12c30.87-0.28 61.74 0.07 92.61 0.1 22.63-0.28 45.21 8.54 61.56 24.22 14.1 13.33 23.63 31.46 26.41 50.68 2.89 18.3-0.42 37.47-8.97 53.88-14.75 28.72-46.48 48.41-78.98 46.95h-55.57l-7.64 54.89h-61.58zm54.74 53.885-10.18 71.235h48.06c12.82 0.83 25.64-6.02 32.18-17.04 7.94-12.77 6.47-30.56-3.6-41.76-7-8.19-17.84-12.635-28.54-12.435z"/>
   <path id="path8" d="m714.3 86.2h62.44l-17.89 125.07h60.91l17.42-125.07h61.91l-32.82 230.52h-61.39l7.5-54.635h-60.98l-7.55 54.635h-61.7z"/>
   <path id="path10" d="m918.76 86.39h63.65l129.62 230.82h-61.19l-15.22-26.805-83.49-0.04-3.95 26.845h-61.07zm50.2 87.14-10.49 72.46h51.78z"/>
  </g>
 </g>
</svg>
