<?xml version="1.0" encoding="UTF-8"?>
<svg id="svg40" width="1291.8pt" height="898.77pt" version="1.1" viewBox="0 0 1291.8 898.77" xmlns="http://www.w3.org/2000/svg" xmlns:cc="http://creativecommons.org/ns#" xmlns:dc="http://purl.org/dc/elements/1.1/" xmlns:rdf="http://www.w3.org/1999/02/22-rdf-syntax-ns#">
 <metadata id="metadata46">
  <rdf:RDF>
   <cc:Work rdf:about="">
    <dc:format>image/svg+xml</dc:format>
    <dc:type rdf:resource="http://purl.org/dc/dcmitype/StillImage"/>
    <dc:title/>
   </cc:Work>
  </rdf:RDF>
 </metadata>
 <g id="#d2d2d2ff" transform="matrix(1.3975 0 0 1.3975 -580.87 -82.108)" fill="#d2d2d2">
  <path id="path28" d="m1283.7 58.754 1.5235 2.0164c15.88 21.78 29.85 45.16 39.63 70.35 13.49 33.86 17.86 71.12 13.64 107.27-3.99 37.02-18.89 72.08-38.62 103.36-5.14 8.13-10.76 15.94-16.26 23.83h-35.36c10.35-17.52 20.49-35.26 28.4-54.04 15.3-36.97 21.54-77.53 18.94-117.42-1.82-24.25-5.89-48.87-16.96-70.78-4-7.54-9.35-15.12-17.55-18.42-7.67-3.06-16.02-1.05-23.7 0.86l-10.25-19.97z"/>
  <path id="path30" d="m1167 112.13 45.57-21.12c18.53 31.32 31.73 66.41 34.13 102.95 1.95 24.85 0.08 50.13-6.39 74.24-9.39 35.52-27.71 68-49.45 97.38h-34.85c9.57-17.75 20.36-34.95 27.93-53.7 20.16-48.62 24.82-103.38 13.89-154.82-1.71-8.35-3.33-17.83-10.38-23.49-3.88-3.3-9.23-2.93-13.98-2.91z"/>
  <path id="path32" d="m1099.6 141.78 35.85-15.81c17.44 41.04 21.72 87.39 12.76 131.03-8.09 39.77-28.14 76.05-51.86 108.58h-35.21c12.1-21.56 25.04-42.98 32.96-66.54 11.16-31.32 15.8-64.86 14.58-98.05-0.95-19.99-4.1-39.84-9.08-59.21z"/>
 </g>
 <g id="#b6101cff" transform="translate(-52.99 -51.277)" fill="#b6101c">
  <path id="path16" d="m57.5 87.4h769.59l-146.79 67.635h-556.42v40.6h-66.38z"/>
  <path id="path18" d="m370.9 244.8 1.7156-0.755h114.81c-63.49 29.03-127.3 57.425-190.72 86.595-27.76 12.8-55.61 25.42-83.07 38.86-9.63 4.86-19.23 10.51-26.42 18.7-4.23 4.6-6 11.81-2.84 17.47 4.22 8.09 12.22 13.275 19.79 17.895h-104.47l-1.2276-0.85512c-7.64-6.08-15.49-13.68-16.92-23.82-1.2-9.18 4.48-17.51 10.86-23.5 8.02-7.36 17.32-13.27 27.15-17.89 29.46-14.15 59.36-27.35 89.16-40.74 53.89-24.36 108.13-47.96 162.18-71.96z"/>
  <path id="path20" d="m358.92 386.67c27.34-1.57 54.68-3.4 82.07-3.68 47.78-0.17 95.62 1.75 143.09 7.31 43.59 5.34 87.18 13.5 128.33 29.2 20.39 8.01 40.32 17.82 57.62 31.39 15.41 12.1 28.86 27.43 36.08 45.84 6.07 14.77 7.09 31.1 5.28 46.83-4.33 38.39-23.5 74.09-50.18 101.63-18.54 19.36-40.48 35.27-64.01 48.04-30.08 16.31-62.56 27.86-95.67 36.26-55.98 14.22-113.86 19.58-171.48 20.73-51.64 1.54-103.14-4.75-153.98-13.24-45.75-8.09-91.33-18.13-135.21-33.58-8.76-3.12-17.44-6.49-25.79-10.58-10.89-5-21.79-10.64-30.49-19.01 15.48 1.23 30.89 3.25 46.42 3.75 47.06 1.94 94.26-0.55 140.98-6.48 44.4-5.87 88.52-14.87 131.13-28.82 22.53-7.44 44.62-16.38 65.48-27.72 22.57-12.41 44.18-27.86 59.38-48.98-6.86 18.81-18.71 35.5-32.8 49.6-23.59 23.51-52.83 40.56-83.15 53.89-42.73 18.23-88.14 30.12-134.25 35.65 15.35 1.88 30.83 2.46 46.27 2.66 45.11 0.84 90.3-1.95 134.96-8.36 44.39-6.44 88.37-16.35 130.7-31.26 33.3-11.87 65.84-26.76 94.68-47.39 15.7-11.36 30.14-24.73 41.26-40.67 10.21-14.86 16.99-32.52 16.87-50.72 0.24-17.04-5.81-33.93-16.27-47.32-9.94-13.09-23.31-23.08-37.29-31.49-18.51-10.79-38.55-18.69-58.96-25.09-47.41-14.67-96.78-21.67-146.04-26.56-56.47-5.24-113.24-6.77-169.92-6.08-8.51-0.08-17.04 0.71-25.54 0.13 23.46-2.13 46.91-4.47 70.43-5.88z"/>
 </g>
 <g id="g4587" transform="translate(-52.99 -51.277)" fill="#19171c">
  <path id="path25-4" d="m756.79 836.73c20.57-5.22 42.47-4.83 62.8 1.26 7.46 2.35 14.87 6.15 19.64 12.56 4.62 6.14 6.26 13.93 6.81 21.45 0.08 26-0.01 52.01 0.04 78.02l-32.61-0.08-0.09-69.91c-0.27999-5.04-0.02-11.75-5.23-14.44-6.92-3.44-14.92-2.3-22.38-2.87-7.47 0.56-15.5-0.52-22.37 3.06-5 3.27-4.41 10.02-4.77 15.23l-0.10998 68.96-32.58-0.03c0.06-38.38-0.01-76.75 0.03-115.13 10.32 0.01 20.65-0.01 30.97 0.01z"/>
  <path id="path25-2" d="m618.3 836.72c20.57-5.22 42.47-4.83 62.8 1.26 7.46 2.35 14.87 6.15 19.64 12.56 4.62 6.14 6.26 13.93 6.81 21.45 0.08 26-0.01 52.01 0.04 78.02l-32.61-0.08-0.09-69.91c-0.28-5.04-0.02-11.75-5.23-14.44-6.92-3.44-14.92-2.3-22.38-2.87-7.47 0.56-15.5-0.52-22.37 3.06-5 3.27-4.41 10.02-4.77 15.23l-0.10997 68.96-32.58-0.03c0.06-38.38-0.01-76.75 0.03-115.13 10.32 0.01 20.65-0.01 30.97 0.01z"/>
  <path id="path23" d="m78.85 837.94c20.41-6.06 42.43-6.35 63.03-0.97 7.06 1.86 14.08 4.67 19.58 9.61 4.72 4.29 7.87 10.2 8.97 16.48 1.89 9.53 1.31 19.28 1.4 28.94l0.02 58-32.49-0.03 0.02-38.24-54.76 0.01 0.01 38.26h-31.63l-0.01-80.02c0.19-7.19 2.1-14.64 6.76-20.27 4.8-5.95 11.9-9.56 19.1-11.77m8.24 32.06c-2.37 4.72-1.92 10.17-2.37 15.29l54.62 0.01c-0.45-5.57 0.18-11.72-3.1-16.57-2.81-3.78-7.8-4.83-12.2-5.43-8.6-0.81-17.32-0.9-25.89 0.31-4.26 0.66-8.94 2.33-11.06 6.39z"/>
  <path id="path25" d="m221.01 836.76c20.57-5.22 42.47-4.83 62.8 1.26 7.46 2.35 14.87 6.15 19.64 12.56 4.62 6.14 6.26 13.93 6.81 21.45 0.08 26-0.01 52.01 0.04 78.02l-32.61-0.08-0.09-69.91c-0.28-5.04-0.02-11.75-5.23-14.44-6.92-3.44-14.92-2.3-22.38-2.87-7.47 0.56-15.5-0.52-22.37 3.06-5 3.27-4.41 10.02-4.77 15.23l-0.11 68.96-32.58-0.03c0.06-38.38-0.01-76.75 0.03-115.13 10.32 0.01 20.65-0.01 30.97 0.01z"/>
  <path id="path23-8" d="m890.3 837.95c20.41-6.06 42.43-6.35 63.03-0.97 7.06 1.86 14.08 4.67 19.58 9.61 4.72 4.29 7.87 10.2 8.97 16.48 1.89 9.53 1.31 19.28 1.4 28.94l0.02 58-32.49-0.03 0.02-38.24-54.76 0.01 0.01 38.26h-31.63l-0.01-80.02c0.19-7.19 2.1-14.64 6.76-20.27 4.8-5.95 11.9-9.56 19.1-11.77m8.24 32.06c-2.37 4.72-1.92 10.17-2.37 15.29l54.62 0.01c-0.45-5.57 0.18-11.72-3.1-16.57-2.81-3.78-7.8-4.83-12.2-5.43-8.6-0.81-17.32-0.9-25.89 0.31-4.26 0.66-8.94 2.33-11.06 6.39z"/>
  <path id="path33" d="m328.63 834.29 115.38-0.03-0.01 26.08-41.79-0.02v89.71l-31.84-0.07 0.02-89.61-41.76-0.03z"/>
  <path id="path35" d="m1057 834.25c16.31 0.07 32.62 0.01 48.94 0.03 11.93 0.25 24.01-0.84 35.81 1.44 10.1 1.8 18.94 8.92 23.33 18.14 3.2 7.02 2.6 14.97 2.34 22.48-0.21 5.77-2.67 11.18-6.18 15.7 3.14 4.41 5.73 9.42 6.1 14.93 0.39 6.32 0.64 12.79-0.73 19.03-2.75 10.13-11.09 18.39-21.03 21.57-10.95 3.11-22.43 2.35-33.67 2.43-18.32-0.01-36.64 0-54.96 0l0.01-26.52c21.67 0 43.34 0.02 65-0.01 4.24-0.31 9.57-0.16 12.38-3.96 1.66-3.72 1.96-9.46-1.79-12.04-3.17-1.88-7-2.07-10.59-2.15-19.22 0.04-38.43-0.1-57.64 0.2l-0.02-26.61c20.2-0.2 40.41 0.06 60.62-0.12 3.46-0.28 7.71-0.78 9.64-4.1 1.27-3.34 1.42-7.55-0.62-10.61-3.1-3.16-7.91-3.01-12-3.33-21.66-0.08-43.32 0.05-64.99-0.06z"/>
  <path id="path37" d="m462.31 950.01 0.01-115.35h101.15l-0.01 26.09-69.37-0.04v19.77l65.5 0.01-0.01 26.04-65.46-0.05v17.37l73.13-0.03-0.03 26.2z"/>
 </g>
</svg>
