<svg width="512pt" height="451.5pt" version="1.1" viewBox="0 0 512 451.5" xmlns="http://www.w3.org/2000/svg" xmlns:xlink="http://www.w3.org/1999/xlink">
 <defs>
  <linearGradient id="a">
   <stop stop-color="#b1605d" offset="0"/>
   <stop stop-color="#8b4045" offset="1"/>
  </linearGradient>
  <linearGradient id="c" x1="243" x2="243" y1="503" y2="380.45" gradientUnits="userSpaceOnUse" xlink:href="#a"/>
  <linearGradient id="b" x1="273.97" x2="273.97" y1="76.593" y2="285.84" gradientUnits="userSpaceOnUse" xlink:href="#a"/>
 </defs>
 <g transform="translate(0 -60.496)">
  <path d="m107.6 60.5h65.505c4.83-0.08 9.51 1.2 14.18 2.22 7.82 2.84 15.19 7.01 21.35 12.63 9.72 8.33 16.44 19.55 21.63 31.1 8.01 18.74 15.4 37.73 23.3 56.51 18.98 44.9 37.89 89.83 56.76 134.78 0.67 1.19 0.91 2.875 2.46 3.275h13.615v-237.7h-35.195v-2.805h149.27v2.805h-34.73v237.7l34.73-2.4e-4v3.175h-156.47c-12.43-0.3-25.17-2.04-36.28-7.94-15.09-7.58-26.32-21.08-34.11-35.8-5.98-11.79-11.32-23.915-16.2-36.205h-76.56l-17.82 63.055c-0.58418 2.6885-0.77174 5.8354 0.1511 8.5132 1.7644 5.0791 7.215 5.2462 11.789 5.2894h14.825v3.0874h-72.535v-3.0874h18.449c2.1295 0 4.1848-0.22496 7.1505-0.91262 7.22-2.12 13.63-7.74 15.65-15.13l52.66-174.11 0.41487-1.6034-1.3949-2.4266c-7.85-13.08-15.61-26.71-27.46-36.65-4.22-3.62-9.335-7.11-15.135-7.03v-2.74m14.465 160.18h73.72l-41.87-104.96z" fill="url(#b)"/>
  <path d="m0 362.44h512v149.56h-512v-149.56" fill="url(#c)"/>
 </g>
 <g transform="translate(0 -60.496)" fill="#fff">
  <path d="m208.18 396.52h58.18v8.83h-23.98v70.255h-10.335v-70.255h-23.865z"/>
  <path d="m274.21 396.52h11.03l20.265 67.84 22.705-67.84h10.72l-27.68 79.085h-11.49z"/>
 </g>
</svg>
