<?xml version="1.0" encoding="UTF-8"?>
<svg id="svg31" width="538.2pt" height="96.996pt" version="1.1" viewBox="0 0 538.2 96.996" xmlns="http://www.w3.org/2000/svg" xmlns:cc="http://creativecommons.org/ns#" xmlns:dc="http://purl.org/dc/elements/1.1/" xmlns:rdf="http://www.w3.org/1999/02/22-rdf-syntax-ns#">
 <metadata id="metadata37">
  <rdf:RDF>
   <cc:Work rdf:about="">
    <dc:format>image/svg+xml</dc:format>
    <dc:type rdf:resource="http://purl.org/dc/dcmitype/StillImage"/>
    <dc:title/>
   </cc:Work>
  </rdf:RDF>
 </metadata>
 <g id="#483e9cff" transform="translate(-45.27,-36.63)" fill="#483e9c">
  <path id="path11" d="m533.03 36.65 16.16-0.02 9.73 14.03-16.29 0.12z"/>
  <path id="path13" d="m341.24 58.64 62.17 0.03-0.01 16.65-21.73 0.01 0.02 56.48h-19.17l0.01-56.5-21.2 0.1z"/>
  <path id="path15" d="m415.17 58.64 19.02 0.03v73.12l-19.06 0.02z"/>
  <path id="path17" d="m443.4 58.66 19.77-0.02 14.255 53.6 14.255-53.59 19.82 0.01-23.748 73.59h-21.132z"/>
  <path id="path19" d="m519.75 58.67 19.51 0.01c0.07 15.79-0.11 31.58 0.09 47.37-0.15 4.73 3.25 9.53 8.01 10.38 3.88 0.79 8.11 0.56 11.72-1.2 3.8-2.25 5.06-7.1 5.23-11.24 0.05-15.12-0.04-30.23 0.04-45.35l19.11 0.01c0.02 15.12 0 30.24 0.01 45.36-0.34 7.94-2.24 16.52-8.35 22.07-6.33 6.16-15.66 7.49-24.12 7.39-8.77 0.01-18.46-1.99-24.44-8.96-5.92-6.97-7-16.71-6.83-25.52 0.03-13.44-0.01-26.88 0.02-40.32z"/>
 </g>
 <g id="#f0632cff" transform="translate(-45.27,-36.63)" fill="#f0632c">
  <path id="path22" d="m274.56 67.49c6.99-7.33 17.52-10.39 27.46-9.84 8.69-0.03 17.21 3.87 23.02 10.3 7.93 8.75 10.72 21.09 10.29 32.64-17.35 0.23-34.7 0.02-52.05 0.1 0.14 5.02 1.33 10.35 5.14 13.9 8.06 7.15 23.47 5.26 27.83-5.2 5.88-0.05 11.76-0.07 17.65 0.02-2.71 7.86-7.25 15.56-14.68 19.76-5.72 3.6-12.59 4.76-19.26 4.39-8.56 0.51-17.34-2.11-23.93-7.64-16.42-14.53-16.86-42.99-1.47-58.43m8.73 20.58c10.55 0.06 21.1-0.07 31.65 0.05-0.8-3.62-1.19-7.59-3.66-10.54-3.95-5.01-11.31-6.1-17.13-4.21-6.41 1.72-10.9 8.14-10.86 14.7z"/>
  <path id="path24" d="m54.13 106.86 18.24-48.29 18.93 0.04 27.6 73.05-20.3 0.14-4.45-12.99-24.68-0.06-4.84 13.04-19.36 0.07 8.86-25m19.72-2.41h15.85l-7.8-25.39z"/>
  <path id="path26" d="m127.59 58.67c12.8-0.01 25.6-0.01 38.4-0.01 7.83 0 16.25 2.79 20.99 9.35 3.93 5.78 4.39 13.48 1.65 19.85-1.49 4.41-5.33 7.23-8.89 9.9 2.9 1.48 5.54 3.61 6.98 6.59 4.29 8.55 1.42 18.89 5.68 27.43l-19.28-0.01c-1.69-5.78-1.61-11.82-2.53-17.72-0.55-3.84-3.11-7.86-7.22-8.43-5.49-0.86-11.09-0.22-16.63-0.4l0.02 26.58-19.19-0.01 0.02-73.12m19.16 15.2-0.01 16.43c6.39-0.24 12.88 0.56 19.21-0.48 5.03-1.22 5.81-7.54 4.27-11.66-1.89-3.12-5.76-4.29-9.21-4.3-4.76-0.03-9.51 0.04-14.26 0.01z"/>
  <path id="path28" d="m196.67 58.67h62.05v16.65l-21.44-0.03 0.01 56.52-18.95 0.01 0.04-56.48-21.72-0.04z"/>
 </g>
</svg>
