<?xml version="1.0" encoding="UTF-8"?>
<svg id="svg24" width="797.38pt" height="935.97pt" version="1.1" viewBox="0 0 797.38 935.97" xmlns="http://www.w3.org/2000/svg" xmlns:cc="http://creativecommons.org/ns#" xmlns:dc="http://purl.org/dc/elements/1.1/" xmlns:rdf="http://www.w3.org/1999/02/22-rdf-syntax-ns#">
 <metadata id="metadata30">
  <rdf:RDF>
   <cc:Work rdf:about="">
    <dc:format>image/svg+xml</dc:format>
    <dc:type rdf:resource="http://purl.org/dc/dcmitype/StillImage"/>
    <dc:title/>
   </cc:Work>
  </rdf:RDF>
 </metadata>
 <defs id="defs28">
  <linearGradient id="linearGradient4546" x1="285.03" x2="518.46" y1="305.71" y2="211.59" gradientTransform="translate(-101.84 -31.932)" gradientUnits="userSpaceOnUse">
   <stop id="stop4540" stop-color="#76b05b" offset="0"/>
   <stop id="stop4552" stop-color="#d1e2c2" offset=".28855"/>
   <stop id="stop4556" stop-color="#fff" offset=".45882"/>
   <stop id="stop4548" stop-color="#fff" offset=".54087"/>
   <stop id="stop4554" stop-color="#e0b6a0" offset=".73797"/>
   <stop id="stop4542" stop-color="#c34b3b" offset="1"/>
  </linearGradient>
  <linearGradient id="linearGradient4564" x1="409.92" x2="635.03" y1="596.83" y2="492.79" gradientTransform="translate(-101.84 -31.932)" gradientUnits="userSpaceOnUse">
   <stop id="stop4558" stop-color="#c3472d" offset="0"/>
   <stop id="stop4568" stop-color="#d48739" offset=".13986"/>
   <stop id="stop4572" stop-color="#e3ba3c" offset=".29646"/>
   <stop id="stop4570" stop-color="#92bb5b" offset=".47858"/>
   <stop id="stop4574" stop-color="#00a0d7" offset=".66561"/>
   <stop id="stop4566" stop-color="#2d68a2" offset=".82173"/>
   <stop id="stop4560" stop-color="#4e3579" offset="1"/>
  </linearGradient>
 </defs>
 <path id="path11" d="m349.23 1.1383c5.34 0.05 10.58-1.42 15.94-1.09 6.9 0.25 13.86-0.49 20.71 0.54 13.5 1.33 26.96 3.69 39.89 7.92 10.28 2.19 19.4 7.64 28.8 12.11 8.09 3.9 15.19 9.41 22.47 14.59 18.73 14.62 34.57 32.77 46.99 53 6.8 10.6 12.23 21.98 17.59 33.34 4.37 11.73 8.88 23.53 11.02 35.91 3.73 25.83 3.03 52.76-5.51 77.61-1.6 5.02-3.44 9.96-5.03 14.98-4.66 9.72-8.88 19.68-14.72 28.78 14.02 2.61 28.2 4.79 41.78 9.29 6.77 1.47 12.87 4.8 19.02 7.85 21.33 9.88 39.47 25.78 53.71 44.35 10.74 14.34 19.52 30.07 26.46 46.58 3.36 6.18 4.46 13.19 7.26 19.59 5.3 14.15 8.02 29.08 9.99 44.01 2.71 20.58 2 41.6-2.22 61.94-2.29 14.9-8.58 28.7-14.24 42.54-0.83 1.77-1.98 3.36-2.99 5.03-12 23.11-29.43 43.05-48.9 60.17-6.71 4.92-12.83 10.65-19.98 14.95-9.59 6.26-19.15 12.66-29.52 17.56l-288.38 130.67-279.37-638.96 255.9-115.61c12.17-6 25.05-10.35 37.68-15.27 8.38-3.28 17.32-4.62 25.96-7.04 9.82-2.16 19.69-4.22 29.69-5.34" fill="#fff"/>
 <path id="path2" d="m317.15 120.08c17.46-5.69 37.09-4.59 53.61 3.55 19.72 9.37 35.84 25.62 46.17 44.75 6.14 11.44 11.54 23.61 12.83 36.66 0.29 7.75 0.24 15.75-2.55 23.1-3.72 11.12-11.52 20.15-19.36 28.6-19.07 18.84-41.36 34.04-64.25 47.83-7.22 4.89-15.06 8.78-22.28 13.66-9.13 6.17-18.79 11.6-27.27 18.68-4.75 3.65-9.53 7.83-12.14 13.3-1.33 10.72 2.07 21.33 5.33 31.42-8-1.2-15.24-5.05-22.64-8.11-25.76-12.04-49.7-29.1-66.75-52.12-8.36-11.75-16.15-24.32-19.61-38.48-3.02-9.18-3.62-18.95-2.85-28.53 2.09-15.39 8.9-29.76 17.73-42.39 20.35-25.77 46.54-46.07 73.29-64.75 16.15-10.39 32.76-20.29 50.74-27.17z" fill="url(#linearGradient4546)"/>
 <path id="path4" d="m432.44 361.22c6.4-0.03 11.83 3.94 17.8 5.7 12.77 5.73 25.07 12.56 36.55 20.59 22.75 16.74 41.99 39.09 52.12 65.69 3.42 11.51 5.9 23.56 4.52 35.63-2.24 13.64-7.5 26.74-15.26 38.18-11.6 15.87-25.9 29.58-41.13 41.93-14.75 12.58-30.92 23.39-47.28 33.74-15.56 8.78-31.2 18.35-48.91 22.04-23.61 4.48-47.74-5.61-65.13-21.28-12.06-10.06-20.91-23.43-27.58-37.52-7.75-14.63-11.52-32.04-7.5-48.34 2.98-12.27 11.04-22.5 19.7-31.37 12.04-12.63 26.31-22.75 40.39-32.93-1.09-1.06-2.17-2.1-3.21-3.18 1.18 0.94 2.33 1.93 3.49 2.93 8.6-5.02 16.73-10.78 25.33-15.79 9.06-5.07 17.65-10.91 26.61-16.15 10.72-7.18 21.98-13.85 30.99-23.23 1.52-1.81 3.07-3.77 3.73-6.07 1.15-10.44-1.5-20.88-5.23-30.57z" fill="url(#linearGradient4564)"/>
 <path id="path6" d="m459.41 695.32c0.56 0.55 0.56 0.55 0 0z" fill="#fff"/>
 <path id="path8" d="m387.41 846.31c0.54 0.56 0.54 0.56 0 0z" fill="#fff"/>
 <g id="g4534" transform="translate(-101.84 -31.932)" fill="#fff">
  <path id="path13" d="m807.9 677.67 36.58 83.4 44.558-20.093 10.182 22.703-69.31 31.51-46.56-106.32z"/>
  <path id="path15" d="m763.65 697.81 9.6 21.98-45.62 20.93 8.6127 18.973 38.447-17.513 10.51 22.01-39.38 18.2 8.98 20.17 45.75-20.72 8.62 20.31-69.78 33.78-46.37-106.55z"/>
  <path id="path21-7" d="m637.3 754.84c6.45-2.76 13.2-5.27 20.25-5.8 10.08 0.5 20.02 6.07 25.13 14.89 3.34 5.12 5.75 10.93 5.85 17.11-0.23955 6.4754-2.15 9.28-4.49 13.44l-1.1568 1.9759 2.8168 0.45411c8 0.79 15.52 5.67 19.16 12.9 5.34 8.6 7.76 19.72 3.73 29.33-3.67 8.65-10.74 15.86-19.38 19.61l-46.28 21.24-46.99-106.62 41.36-18.53m-7.164 30.15 8.544 18.32 17.093-8.2352c6.1075-3.5262 8.5935-7.7968 5.7326-13.505-4.1927-7.4162-9.9607-6.5615-16.089-3.7564l-15.281 7.1759m37.567 32.672-19.007 8.9246 9.0545 19.424 15.081-7.0466c4.0514-2.0472 8.9414-3.9828 9.7393-8.9234 1.4619-7.876-6.3843-16.29-14.867-12.379z"/>
  <path id="path19" d="m545.74 796.39 84.24 89.23-25.87 11.35-13.86-12.85-31.07 14.16 1.25 18.79-25.42 11.35-9-123.08m28.126 35.436 3.3841 33.639 18.95-9.14z"/>
  <path id="path21" d="m442.74 842.75c6.45-2.76 13.2-5.27 20.25-5.8 10.08 0.5 20.02 6.07 25.13 14.89 3.34 5.12 5.75 10.93 5.85 17.11-0.23955 6.4754-2.15 9.28-4.49 13.44l-1.1568 1.9759 2.8168 0.45411c8 0.79 15.52 5.67 19.16 12.9 5.34 8.6 7.76 19.72 3.73 29.33-3.67 8.65-10.74 15.86-19.38 19.61l-46.28 21.24-46.99-106.62 41.36-18.53m-7.164 30.15 8.544 18.32 17.093-8.2352c6.1075-3.5262 8.5935-7.7968 5.7326-13.505-4.1927-7.4162-9.9607-6.5615-16.089-3.7564l-15.281 7.1759m37.567 32.672-19.007 8.9246 9.0545 19.424 15.081-7.0466c4.0514-2.0472 8.9414-3.9828 9.7393-8.9234 1.4619-7.876-6.3843-16.29-14.867-12.379z"/>
 </g>
</svg>
