<?xml version="1.0" encoding="UTF-8"?>
<!-- Generator: Adobe Illustrator 21.0.0, SVG Export Plug-In . SVG Version: 6.00 Build 0)  -->
<svg id="Layer_1" width="281.35" height="181.4" version="1.1" viewBox="0 0 281.35 181.4" xml:space="preserve" xmlns="http://www.w3.org/2000/svg" xmlns:cc="http://creativecommons.org/ns#" xmlns:dc="http://purl.org/dc/elements/1.1/" xmlns:rdf="http://www.w3.org/1999/02/22-rdf-syntax-ns#"><metadata id="metadata66"><rdf:RDF><cc:Work rdf:about=""><dc:format>image/svg+xml</dc:format><dc:type rdf:resource="http://purl.org/dc/dcmitype/StillImage"/><dc:title/></cc:Work></rdf:RDF></metadata><defs id="defs64"><linearGradient id="SVGID_1_" x1="127.28" x2="152.34" y1="130.75" y2="75.862" gradientTransform="translate(-.31201 -2.6)" gradientUnits="userSpaceOnUse"><stop id="stop16" stop-color="#E92824" offset="0"/><stop id="stop18" stop-color="#EE6428" offset="1"/></linearGradient><linearGradient id="SVGID_2_" x1="196.49" x2="183.28" y1="120.23" y2="7.6551" gradientTransform="translate(-.31201 -2.6)" gradientUnits="userSpaceOnUse"><stop id="stop23" stop-color="#EE6E23" offset="0"/><stop id="stop25" stop-color="#FDC128" offset=".927"/></linearGradient><linearGradient id="SVGID_3_" x1="218.66" x2="236.89" y1="148.75" y2="83.872" gradientTransform="matrix(.9848 -.1734 .1734 .9848 -16.543 47.546)" gradientUnits="userSpaceOnUse"><stop id="stop30" stop-color="#E92824" offset="0"/><stop id="stop32" stop-color="#EE6428" offset="1"/></linearGradient><linearGradient id="SVGID_4_" x1="252.5" x2="253.67" y1="139.11" y2="122.82" gradientTransform="matrix(.9995 -.0309 .0309 .9995 -.16431 -.7169)" gradientUnits="userSpaceOnUse"><stop id="stop41" stop-color="#E92824" offset="0"/><stop id="stop43" stop-color="#EE6428" offset="1"/></linearGradient><linearGradient id="SVGID_5_" x1="70.114" x2="41.146" y1="157.63" y2="89.823" gradientTransform="translate(-.31201 -2.6)" gradientUnits="userSpaceOnUse"><stop id="stop52" stop-color="#EE6E23" offset="0"/><stop id="stop54" stop-color="#FDC128" offset=".927"/></linearGradient></defs><style id="style2" type="text/css">
	.st0{fill:#FFFFFF;}
	.st1{fill:url(#SVGID_1_);}
	.st2{fill:url(#SVGID_2_);}
	.st3{fill:url(#SVGID_3_);}
	.st4{fill:url(#SVGID_4_);}
	.st5{fill:url(#SVGID_5_);}
</style><g id="g6" transform="translate(-.31201 -2.6)"><path id="path4" class="st0" d="m118.8 133c-12 0-24.5-2.4-33.6-7.1l-5.3-2.6 3.3-3.4 9.1-19.7 2-4.4 4.3 2.2c0.1 0 9 3.7 17 4.1-1.4-3.9-2-7.9-2-12.2 0-17.8 14.7-31.1 34.2-31.1 11.8 0 20.3 4.1 26.6 13 1.7 2.3 2.3 4.5 2.6 5.7 0.6 2 0.2 3.7-0.5 5.4-0.2 0.6-0.2 1.5 0.4 1.7 1.1 0.3 2.5 1.2 2.8 1.4 1.2 0.9 2.2 2.1 2.8 3.5v0.2c0.1 0.3 2.7 6.9 3.9 11.9 0.8 3.2 1.7 7.1-2.8 11-8.2 6.9-36.4 20.4-64.8 20.4z"/></g><g id="g10" transform="translate(-.31201 -2.6)"><path id="path8" class="st0" d="m199.7 124.4c-1.8 0-3.1-0.5-3.5-0.7h-0.2l-7-3.4c-1.1-0.4-3.4-1.6-4.5-4.4-0.8-1.8-1.2-4.7 0.7-8.6l0.2-0.2c2.9-5.1 15.4-33.2-22.7-82.1l-0.2-0.2c-2.3-3.3-2.2-6.1-1.6-8 1.3-4.1 5.3-5.8 6.3-6.2l15.7-6.6c0.8-0.4 3.1-1.4 5.8-1.4 2.5 0 7.2 0.9 9.9 6.7 8.3 17 25.7 61.7 9.2 108.8-1.3 3.9-4.4 6.3-8.1 6.3z"/></g><g id="g14" transform="translate(-.31201 -2.6)"><path id="path12" class="st0" d="m190.1 184c-6.3 0-8.1-3.9-9.2-6.3-0.1-0.2-0.2-0.5-0.4-0.8v-0.2c-2-4.6-5.3-16-5.4-19.8-0.1-4.2 2.7-8.7 8.4-9.2 2.1-0.2 4.2-0.3 6.3-0.4 5.6-0.3 10.8-0.7 16-1.8 5.5-1.3 13-9.7 14.6-16.5 0.2-0.8 1.7-8-4.5-12.9-0.7-0.6-0.9-0.7-1.1-0.7-0.7-0.3-1.4-0.7-2.8-1.8-2.4-1.9-3.4-4.8-2.8-8.1 1-5.4 6.7-11.9 11.8-13.5 1-0.3 1.9-0.4 2.9-0.4 3.6 0 5.9 2.1 7.4 3.5 1.3 1.2 1.8 1.6 2.5 1.6 2-0.1 9.2-2.2 11.1-5.8 0.3-0.6 1.3-2.4-1.1-6.2-1.2-2-1.6-4.2-0.9-6.3 1.1-3.6 4.7-5.4 5.4-5.8l0.2-0.2 14.8-5.6c0.8-0.4 2.3-1.1 4.1-1.1 1.7 0 5.8 0.6 8.2 6.1 4 8.9 9 20.1 3.9 30.4-4.2 8.6-14.4 14.7-31.9 19 2.4 11.5 1.7 27-7.1 39.6-9.3 13.3-25.7 21.1-48.7 22.9-0.7 0.3-1.2 0.3-1.7 0.3z"/></g><path id="path21" class="st1" d="m181.59 100.2c-1.2-4.8-3.7-11.3-3.7-11.3s-1.6-3.6-5.6-1c-4.1 3.2-8 7.1-13.2 8.7-12.8 3.3-13.9-5.1-13.9-5.1-0.7-8.4 8.8-10.3 12.8-6.4 1.3 1.3 3.4 1.7 5.1 0.6 2.4-1.6 5.5-3.9 7.4-5.3 1-0.8 2.3-1.8 1.6-4.1-0.3-1.2-0.8-2.7-2-4.3-5.6-7.7-12.7-11.1-22.9-11.1-15.8-0.1-29.5 10.6-29.5 26.5 0 5.7 1.3 10.5 3.7 15.1 0.3 0.6-0.4 1.4-1.1 1.5-11.2 1.4-24.2-4.5-24.2-4.5l-9.1 19.7c33.5 17.3 83.1-4 93.3-12.7 2.3-1.9 2-3.3 1.3-6.3z" fill="url(#SVGID_1_)"/><path id="path28" class="st2" d="m188.99 106.7c6-10.5 13.1-40.7-23.1-87.2-3.6-5 2.7-7.2 2.7-7.2l16-6.8s6.4-3.6 9.6 3.1c7.5 15.5 25.1 59.5 9 105.3-1.6 4.8-5.5 3-5.5 3l-7.1-3.5s-4.3-1.3-1.6-6.7z" fill="url(#SVGID_2_)"/><path id="path35" class="st3" d="m247.09 79.8c-2.1-3.4 2.5-5.5 2.5-5.5l15.2-5.7s3.8-2.6 6.2 2.8c7.5 16.7 14 33.7-25.7 43.3-0.9 0.2-3.6 1.2-3.3 2.4 4.1 15 5.5 55.2-51 59.8-4.9 0.4-5.3-1.7-6.6-4.4-1.9-4.3-4.9-15.1-5-18-0.1-1.6 0.8-4.2 4.2-4.5 7.6-0.6 15.4-0.6 22.9-2.4 7.4-1.7 16-11.6 18-19.9 0.8-3.4 1.2-11.8-6.2-17.6-2.3-1.8-1.5-0.7-3.9-2.6-4.1-3.2 3-12.2 7.5-13.5 5.2-1.6 5.8 4.7 11.4 4.9 2.9-0.1 22.5-5 13.8-19.1z" fill="url(#SVGID_3_)"/><g id="g39" transform="translate(-.31201 -2.6)"><path id="path37" class="st0" d="m252.3 141.4c-3.1 0-5.2-2.1-6.5-3.7-2.5-3-5.7-7.5-6-13.1-0.3-5.2 2.7-9.8 8-12.7 3.2-1.8 6.7-2.7 10.1-2.7 2.5 0 4.9 0.5 7.1 1.5 6.4 3 10.4 10.3 9.4 17-0.7 4.8-6.1 6.2-9.6 7.2-0.6 0.2-1.2 0.3-1.7 0.5-2.1 0.7-3.4 1.8-4.7 3-1.5 1.4-3.4 3-6.1 3z"/></g><path id="path46" class="st4" d="m248.99 132.2c-2.4-2.9-4.8-6.5-5-10.4s2.4-6.7 5.7-8.5c3.9-2.1 8.9-3 13-1 4.3 2.1 7.6 7.3 6.8 12.1-0.4 2.3-5.4 3.1-8.2 4-7.4 2.4-7.8 9.2-12.3 3.8z" fill="url(#SVGID_4_)"/><g id="g50" transform="translate(-.31201 -2.6)"><path id="path48" class="st0" d="m97.7 77.6c-5.9-10.3-18.3-16.3-26.9-16.8-0.8 0-1.7-0.1-2.5-0.1-20.1 0-27.9 13.7-29.9 23.7-13.4 0.8-24.8 8-31.7 20-8.6 15-8.5 34.4 0.2 49.4 14.5 26.9 41.1 27.8 51.1 28.1h1 0.5c8.6 0 10.3-5.9 11-8.2 0.1-0.2 0.1-0.4 0.2-0.6 0.7-2.2 4-13.1 4.4-14.5 0.6-1.7 2.1-6.8-0.3-10.4-1.3-1.9-3.3-3-5.8-3.2h-0.9c-0.9 0-1.8 0.1-2.9 0.1h-0.5c-1.1 0.1-2.5 0.1-3.9 0.1-5.9 0-14.6-1-22.1-10l-0.2-0.2c-5.3-5.5-6.1-13.2-4.1-17.9 0.8-1.8 2.3-4 5.1-4.5 3.9 9.2 15.6 16.5 27.9 16.5 7 0 20.1-2.4 29.1-18.8v-0.2c7.8-15 4.9-26 1.2-32.5zm-29.1 24.2c-2.6 2.6-6.9 2.6-9.5 0s-2.6-6.9 0-9.5 6.9-2.6 9.5 0c2.6 2.7 2.6 6.9 0 9.5z"/></g><path id="path57" class="st5" d="m70.288 62.8c-27.3-1.4-28.1 23.7-28.1 23.7-32.2-1.2-46.7 36.7-31.5 62.6 13.7 25.5 39.5 25.5 48.2 25.8 6.1 0.2 6.4-3.4 7.2-5.6 0.8-2.3 4.4-14.5 4.4-14.5s2.7-7.3-2-7.6c-5.4-0.3-21 3.6-33.6-11.4-11.5-11.8-6.7-32.4 7.6-30.2 2.4 14.6 34 28.2 49.6 0 14.6-28.7-10.7-42.2-21.8-42.8zm-6.7 43.6c-6.3 0-11.5-5.1-11.5-11.5s5.1-11.5 11.5-11.5c6.3 0 11.5 5.1 11.5 11.5s-5.2 11.5-11.5 11.5z" fill="url(#SVGID_5_)"/></svg>
