<svg width="607.28pt" height="685.27pt" version="1.1" viewBox="0 0 607.28 685.27" xmlns="http://www.w3.org/2000/svg">
 <g transform="matrix(2.9429 0 0 2.9429 322.58 -25.254)">
  <g transform="matrix(.26458 0 0 .26458 -109.61 56.229)" clip-rule="evenodd" fill-rule="evenodd">
   <path d="M 692.42,277.9 C 652.581,88.77 467,-32.26 277.9,7.59 88.76,47.421 -32.26,233 7.58,422.1 47.419,611.23 233.01,732.24 422.11,692.42 611.24,652.597 732.22,467 692.41,277.9" fill="#ec4338"/>
   <g fill="#fff">
    <path d="m580.82 206.3c-12.797 0.965-24.968 5.716-36.769 10.507-7.54 3.103-19.116 7.106-21.077 16.206-1.447 6.688 0.644 14.678 7.621 16.857 8.424 2.596 15.498-1.736 23.408-4.108 3.376-1.013 15.338-6.246 13.891 0.29-4.438 20.016-27.492 32.516-47.042 28.642-3.167-0.619-6.189-1.632-9.052-3.184-5.08-2.765-9.147-6.993-12.363-11.744-6.575-9.67-10.98-22.709-9.613-37.187 1.703-17.958 20.578-42.066 40.289-40.265 8.359 0.764 15.868 4.188 24.067 5.587 9.855 1.704 18.763-4.172 22.106-12.492 1.479-3.625 1.865-7.749 0.836-11.913-3.264-12.797-18.441-18.079-29.871-20.9-6.399-1.6-13.328-2.331-19.936-1.704-35.499 3.328-57.621 27.154-70.098 54.429-1.801-6.021-6.302-14.863-13.504-15.563-9.196-0.86-19.229 4.429-20.097 14.212-0.724 8.111 3.714 16.238 6.142 23.778 3.264 10.088 15.177 50.418 18.376 60.297 0.499 1.607-0.644 1.607-1.19 0.603-0.337-0.683-0.723-1.431-1.061-2.13-1.061-2.122-2.139-4.252-3.199-6.423-2.042-4.164-4.1-8.344-5.98-12.581-2.541-5.748-5.113-11.447-7.813-17.106-3.264-6.857-6.544-13.714-9.774-20.579-2.252-4.791-9.744-20.104-22.766-19.405-7.717 0.426-19.711 5.563-24.325 11.334-6.962 8.682-4.003 15.337-1.189 25.161 5.418 18.971 15 69.654 16.993 79.309 1.656 7.966 6.432 14.51 14.551 14.035 18.006-0.989 17.186-15.643 14.211-27.652-2.443-9.96-9.565-37.187-10.61-41.439-0.145-0.667-0.435-2.018 0.659-2.114 0.643-0.04 1.447 1.97 1.833 2.797 0.739 1.592 1.526 3.159 2.267 4.743 8.457 17.894 14.035 28.738 19.1 37.396 4.533 7.661 11.896 17.396 22.01 16.56 6.849-0.579 15.305-4.887 20.643-9.027 7.589-5.892 8.457-11.342 7.492-20.386 0 0 4.277 2.548 5.273 3.224 18.987 12.628 38.521 12.074 46.656 12.154 8.826 0.024 55.658-4.879 70.723-52.701 6.141-19.632 4.934-49.519-21.818-47.518"/>
    <path d="m360.58 231.38c-10.306-14.486-37.942 1.302-26.496 16.302-7.846-10.273-17.388-19.872-31.286-24.719-14.357-5.024-33.601-4.912-47.749 0.924-27.379 11.31-41.817 34.646-44.872 59.325-12.034-4.292-26.077-4.229-37.749-1.672 1.31-0.081 9.292-9.164 13.087-16.447 7.009-13.424 6.318-27.492-0.177-41.157-17.155-36.117-69.968-22.781-96.568-6.897-15.474 9.212-20.812 21.029-17.355 39.083 7.733 40.603 17.765 81.913 29.694 121.46 3.376 11.174 5.418 20.659 9.823 31.479 8.875 21.736 37.412 27.477 57.46 19.855 47.813-18.199 68.376-43.408 74.421-67.813 9.501 6.174 21.013 9.968 34.526 10.29 41.294 1.076 72.098-26.568 75.233-65.627 2.829 9.164 3.81 22.331 16.286 23.224 13.971 1.005 12.99-11.696 11.543-21.238-2.233-14.502-11.735-65.057-19.821-76.375m-240.88 52.436c-3.602-2.942-8.545-22.934-9.807-32.355-0.667-5.064 1.672-8.32 3.48-9.389 7.87-4.727 19.831-7.797 28.368-4.116 8.006 3.489 11.72 11.351 10.531 19.791-1.029 7.428-5.169 15.908-12.548 21.077-4.767 3.327-14.799 9.292-20.024 4.992m49.1 102.11c-8.473 4.518-20.788 5.322-24.679-5.145-3.424-9.164-5.9-18.697-7.998-28.264-0.796-3.577-1.568-7.227-2.604-10.756-7.75-26.406 29.654-32.813 46.865-23.561 4.896 2.661 9.968 8.296 12.001 13.505 11.937 30.171-8.875 46.391-23.585 54.221m127.15-48.665c-13.899 6.383-29.751 3.199-39.14-4.928-7.894-6.841-15.257-20.474-15.708-34.646-0.37-13.079 4.566-23.915 13.071-30.957 6.037-5 13.842-8.424 22.894-8.714 45.659-1.527 58.119 61.206 18.883 79.245"/>
    <path d="m328.07 211.28c23.086-0.257 41.639-19.18 41.382-42.267-0.241-23.119-19.164-41.624-42.275-41.399-23.079 0.257-41.616 19.18-41.391 42.267 0.242 23.12 19.181 41.641 42.284 41.399"/>
   </g>
  </g>
 </g>
 <path d="m541.93 12.823c-2.3932 0.0277-4.8419 0.29096-7.3242 0.80859l-200.55 43.739c-19.975 4.1636-32.404 22.753-27.98 41.971l22.931 105.15c4.4518 18.503 22.152 30.662 42.01 26.521l55.386-12.079 47.893 40.08c5.2838 4.2442 12.537 2.5933 15.911-3.7398l26.679-56.076 54.68-11.925c19.975-4.1636 32.406-22.753 27.981-41.971l-22.931-105.15c-3.8954-16.19-17.934-27.522-34.686-27.328z" fill="#070404" opacity=".23"/>
 <path d="m548.77 0.0024541c-2.3932 0.0277-4.8419 0.29096-7.3242 0.80859l-200.55 43.739c-19.975 4.1636-32.404 22.753-27.98 41.971l22.931 105.15c4.4518 18.503 22.152 30.662 42.01 26.521l55.386-12.079 47.893 40.08c5.2838 4.2442 12.537 2.5933 15.911-3.7398l26.679-56.076 54.68-11.925c19.975-4.1636 32.406-22.753 27.981-41.971l-22.931-105.15c-3.8954-16.19-17.934-27.522-34.686-27.328z"/>
 <g transform="translate(-146.98 57.262)" fill="#fff">
  <path d="m517.08 0c14.815-3.7224 23.352-3.4413 31.76 0 10.56 4.65 16.1 16.84 15.3 27.94-1.29 11.83-9.73 21.67-19.74 27.47-4.54 2.99-10.76 4.29-13.23 9.66-2.4 5.41-0.3 11.4 1.21 16.76l8.81 33.16c1.31 6.13 0.01 13.82-5.74 17.29-5.6 2.88-13.39 3.02-18.06-1.7-3.88-3.99-5.53-9.51-6.84-14.77l-19.12-78.95c-2.2581-9.1869-3.08-14.96 1.1-21.28 5.67-8.25 15.23-12.75 24.55-15.58m1.24 31.49c1.0358 4.3979 1.9098 8.9267 3.8193 13.039 0.72152 1.5919 1.4292 1.5422 2.8834 1.2398 6.482-1.8939 11.849-7.8293 11.957-14.768 0.18-3.62-2.59-6.96-6.12-7.6-3.8633-0.65132-7.8301 0.41684-11.247 2.2527-2.4221 1.5397-1.6256 3.8361-1.293 5.8373z"/>
  <path d="m669.86 0c8.9903-2.4089 16.52-2.6994 25.37 0 5.2 1.85 10.37 4.44 14.13 8.57 4.64 5.09 2.37 14.26-3.81 17.02-4.68 2.42-10.41 1.51-14.62-1.45-6.09-4.1-14.86-3.53-19.97 1.88-3.93 4.1-7.6 10.3-5.24 16.05 9.37-2.06 17.96-6.71 27.43-8.42 7.62-1.53 16.28-1.38 22.76 3.44 8.63 6.6 13.02 18.24 11.04 28.9-1.24 6.74-4.04 13.23-8.29 18.62-8.59 11.07-22.93 16.24-36.62 16.28-7.7-0.01-16.28-1.27-21.89-7.07-4.02-3.96-4.56-10.54-1.87-15.39 2.84-5.55 9.76-8.04 15.68-6.7 6.1 1.21 12.59 2.71 18.69 0.68 4.815-1.5999 8.4645-5.9863 9.4286-10.907 0.9202-4.5691 0.0916-7.8298-6.0386-7.0733-7.45 1.11-14.21 4.7-21.17 7.36-8.23 3.33-17.53 7-26.35 3.64-2.57 8.11-7.78 15.57-15.26 19.81-8.04 4.52-18.03 6.29-26.88 3.22-7.56-2.59-13.58-8.36-18.05-14.84-8.14-12.15-12.4-26.49-14.81-40.8-1.27-7.02 1.74-15.58 8.84-18.21 6.98-2.62 14.65 3.23 15.85 10.14 1.95 10.03 3.46 20.48 8.54 29.51 2.24 3.98 6.34 7.97 11.32 6.9 4.48-0.4 5.97-5.41 6.27-9.17 0.77-10-1.72-19.87-4.04-29.51-1.03-4.45-3.19-9.14-1.41-13.68 2.4-6.89 11.41-10.31 17.7-6.47 6.4 3.18 7.4 10.92 9 17.1 4.55-9.8 14.17-16.33 24.27-19.43z"/>
  <path d="m553.5 57.76c4.35-1.42 9.46-0.14 12.5 3.32 3.26 3.44 4.0606 7.8612 5.21 12.7 2.0059 8.9696 4.0939 19.593 7.19 27.84 1.2 3.04 5.06 2.78 7.67 2.11 5.55-1.01 10.15-5.18 15.94-5.05 5.09-0.02 10.51 2.81 12.24 7.81 1.67 5.26 0.79 11.6-3.11 15.68-2.51 2.59-6.13 3.53-9.43 4.69-8.42 2.67-16.98 4.87-25.62 6.73-3.83 0.79-8.23 1.14-11.57-1.27-3.09-2.19-4.2-5.99-5.19-9.44l-13.75-50.02c-1.72-6.09 1.51-13.49 7.92-15.1z"/>
 </g>
</svg>
