<?xml version="1.0" encoding="UTF-8"?>
<svg id="svg2" width="800" height="800" version="1.0" xmlns="http://www.w3.org/2000/svg" xmlns:cc="http://creativecommons.org/ns#" xmlns:dc="http://purl.org/dc/elements/1.1/" xmlns:rdf="http://www.w3.org/1999/02/22-rdf-syntax-ns#">
 <metadata id="metadata18">
  <rdf:RDF>
   <cc:Work rdf:about="">
    <dc:format>image/svg+xml</dc:format>
    <dc:type rdf:resource="http://purl.org/dc/dcmitype/StillImage"/>
    <dc:title/>
   </cc:Work>
  </rdf:RDF>
 </metadata>
 <path id="path6155" transform="matrix(8.569 0 -2.333 8.9996 -2534.8 -2798.2)" d="m483.92 361.57a35.842 35.842 0 1 1-71.684 0 35.842 35.842 0 1 1 71.684 0z" fill="#ca0016" stroke="#ca0016" stroke-linecap="round" stroke-linejoin="round" stroke-width="3"/>
 <path id="path6157" transform="matrix(14.795 0 -3.7681 15.501 -4996.4 -5076)" d="m449.52 340.53a11.339 11.339 0 1 1-22.678 0 11.339 11.339 0 1 1 22.678 0z" fill="#ca0016" stroke="#fff" stroke-linecap="round" stroke-linejoin="round" stroke-width="3"/>
 <path id="path6163" d="m67.885 67.017 127.17 125.35" fill="#fff" fill-rule="evenodd" stroke="#fff" stroke-width="37.812"/>
 <path id="text6149" d="m239.29 572.8v-198.5h38.048v71.492c11.735-13.36 25.636-20.039 41.704-20.039 17.512 1.5e-4 32 6.3415 43.464 19.024 11.464 12.683 17.196 30.894 17.196 54.635-1.6e-4 24.553-5.845 43.464-17.535 56.733-11.69 13.269-25.884 19.904-42.584 19.904-8.2145 0-16.316-2.0536-24.305-6.1608-7.9888-4.1072-14.872-10.178-20.649-18.212v21.123h-35.34zm37.777-75.013c-6e-5 14.894 2.3469 25.907 7.0409 33.038 6.5895 10.11 15.345 15.165 26.268 15.165 8.3948 2e-5 15.549-3.5881 21.461-10.764 5.9124-7.1763 8.8687-18.482 8.8688-33.918-1.2e-4 -16.429-2.979-28.276-8.9365-35.543-5.9578-7.2664-13.585-10.9-22.883-10.9-9.1171 1.1e-4 -16.7 3.5431-22.748 10.629-6.048 7.0861-9.072 17.851-9.0719 32.293zm172.91 75.013-57.952-143.8h39.944l27.08 73.388 7.8533 24.508c2.0761-6.2284 3.385-10.336 3.9267-12.322 1.2637-4.062 2.6177-8.124 4.062-12.186l27.351-73.388h39.131l-57.14 143.8h-34.257zm245.62 0h-38.048v-73.388c-1.1e-4 -15.526-0.81252-25.568-2.4372-30.127-1.6249-4.5584-4.2653-8.1014-7.921-10.629-3.656-2.5274-8.0565-3.7911-13.202-3.7912-6.5896 1.1e-4 -12.502 1.8055-17.738 5.4161-5.2356 3.6108-8.8238 8.395-10.764 14.353-1.9408 5.9578-2.9112 16.97-2.9112 33.038v65.128h-38.048v-143.8h35.34v21.123c12.547-16.248 28.344-24.372 47.391-24.372 8.3948 1.5e-4 16.068 1.5121 23.018 4.536 6.9505 3.0241 12.209 6.8831 15.774 11.577 3.5654 4.6941 6.0478 10.02 7.4471 15.977 1.399 5.9578 2.0986 14.488 2.0987 25.591v89.365z" fill="#fff"/>
 <path id="path6159" transform="matrix(9.453 0 0 9.453 -3885.3 -2910.4)" d="m436.06 328.42a4.228 4.228 0 1 1-8.456 0 4.228 4.228 0 1 1 8.456 0z" fill="#fff"/>
 <path id="path6161" transform="matrix(9.453 0 0 9.453 -4012.4 -3035.7)" d="m436.06 328.42a4.228 4.228 0 1 1-8.456 0 4.228 4.228 0 1 1 8.456 0z" fill="#ca0016"/>
</svg>
