<?xml version="1.0" encoding="UTF-8"?>
<!-- Created with Inkscape (http://www.inkscape.org/) -->
<svg id="svg2843" width="675.21" height="326.35" xmlns:cc="http://creativecommons.org/ns#" xmlns:dc="http://purl.org/dc/elements/1.1/" xmlns:rdf="http://www.w3.org/1999/02/22-rdf-syntax-ns#" version="1.1" viewBox="0 0 633.01 305.95" xmlns="http://www.w3.org/2000/svg">
 <link id="dark-mode" href="" rel="stylesheet" type="text/css"/>
 <metadata id="metadata2848">
  <rdf:RDF>
   <cc:Work rdf:about="">
    <dc:format>image/svg+xml</dc:format>
    <dc:type rdf:resource="http://purl.org/dc/dcmitype/StillImage"/>
    <dc:title/>
   </cc:Work>
  </rdf:RDF>
 </metadata>
 <g id="layer1" transform="translate(-47.07 -350.23)">
  <g id="g3057" transform="matrix(3.7567 0 0 3.7567 187.86 400.75)" stroke="#0d3594" stroke-linecap="square" stroke-linejoin="round" stroke-width="1.3292">
   <path id="path3008" d="m-4.1801-11.156c-3.5447 0.0049-6.3697 2.2284-7.75 4.875-0.69013 1.3233-1.0592 2.7897-0.90625 4.1875 0.16766 1.5326 1.0394 2.6433 2.1562 3.625 0.39543 0.34755 1.0355 0.24944 1.375-0.15625 0.33946-0.40569 0.29079-1.0118-0.09375-1.375-0.65396-0.65396-0.67546-1.3857 0-2.25 0.67546-0.8643 2.1895-1.7187 4.6562-1.7188 2.4023 0 4.1987 0.88448 5.75 2.4688 1.5513 1.5843 2.8034 3.9129 3.7812 6.625 1.9558 5.4242 2.8496 12.395 3.6875 18.125 0.22341 1.5278 1.0971 2.9626 2.2188 4.0312-1.1216 1.0686-1.9953 2.5035-2.2188 4.0312-0.83795 5.7302-1.7317 12.701-3.6875 18.125-0.97789 2.7121-2.23 5.0407-3.7812 6.625-1.5513 1.5843-3.3477 2.4688-5.75 2.4688-2.4668 0-3.9808-0.85445-4.6562-1.7188-0.67546-0.8643-0.65396-1.596 0-2.25 0.38454-0.36324 0.43321-0.9693 0.09375-1.375-0.33946-0.40569-0.97957-0.5038-1.375-0.15625-1.1169 0.98167-1.9886 2.0924-2.1562 3.625-0.15292 1.3978 0.21612 2.8642 0.90625 4.1875 1.3803 2.6466 4.2053 4.8701 7.75 4.875 5.5464 0.0076 9.8192-2.7675 12.844-6.75 3.0245-3.9825 4.8888-9.1566 6-14.281 0.85335-3.9354 1.7128-7.8176 2.5938-10.875 0.44049-1.5287 0.90245-2.8369 1.3438-3.8438s0.89602-1.6931 1.1562-1.9062c0.23746-0.18978 0.375-0.47727 0.375-0.78125-1e-6 -0.30398-0.13754-0.59147-0.375-0.78125-0.26023-0.21312-0.71495-0.89943-1.1562-1.9062s-0.90326-2.3151-1.3438-3.8438c-0.88099-3.0574-1.7404-6.9396-2.5938-10.875-1.1112-5.1247-2.9755-10.299-6-14.281-3.0245-3.9825-7.2974-6.7576-12.844-6.75z" fill="#fff"/>
   <path id="path3016" d="m-20.281-12.781c-0.49763 0.01668-0.99104 0.12192-1.4688 0.34375-0.41216 0.18652-0.64778 0.6265-0.5746 1.0729 0.07319 0.44644 0.43696 0.78816 0.8871 0.83331 0.86403 0.06865 1.4396 0.33655 1.875 0.875 0.43544 0.53845 0.78125 1.4522 0.78125 2.9688v67.906c0 1.5166-0.34581 2.4303-0.78125 2.9688s-1.011 0.80635-1.875 0.875c-0.45014 0.04516-0.81391 0.38687-0.8871 0.83331-0.07319 0.44644 0.16244 0.88642 0.5746 1.0729 1.8723 0.86944 3.9827 0.04209 5.5938-1.2812 1.611-1.3233 2.875-3.2546 2.875-5.3438v-66.156c0-1.8263-0.97402-3.5274-2.2812-4.8125-1.3072-1.2851-2.9858-2.2143-4.7188-2.1562z" fill="#fff"/>
   <path id="path3035" d="m-2.1562 2.9375c-9.1098 0-14.995 2.6162-19.312 6.2812-4.3175 3.6651-7.0727 8.2762-10.188 12.312-0.44778 0.58025-1.1126 0.88764-1.8438 1s-1.5075 0.01452-1.9062-0.15625c-0.34923-0.15446-0.77024-0.08951-1.0625 0.15625-0.29226 0.24576-0.40475 0.62945-0.3125 1 0.27191 1.0148 0.97928 1.6414 1.7812 2.0938-0.82378 0.42453-1.5047 1.2179-1.7812 2.25-0.09225 0.37055 0.02024 0.75424 0.3125 1 0.29226 0.24577 0.71327 0.31071 1.0625 0.15625 0.39875-0.17077 1.1751-0.26861 1.9062-0.15625s1.396 0.41975 1.8438 1c3.1148 4.0363 5.87 8.6474 10.188 12.312 0.83628 0.7099 1.7216 1.3802 2.6875 2v-4.7812c-2.3074-2.3016-3.8679-5.2065-4.875-8.6562-0.66147-2.2658-2.6879-4.3211-5.125-5.0625 2.4319-0.74444 4.4646-2.769 5.125-5.0312 1.3308-4.5587 3.6436-8.1674 7.3438-10.688 3.7001-2.5201 8.8402-3.9688 15.875-3.9688 2.0513 0 3.9445 0.22786 5.7188 0.59375-0.15613-0.49755-0.32837-0.99275-0.5-1.4688-0.21391-0.59327-0.44659-1.1656-0.6875-1.7188-0.00387-0.00888 0.00387-0.022382 0-0.03125-1.9085-0.29143-3.9829-0.4375-6.25-0.4375zm15.938 3.4375c0.33541 1.1561 0.62219 2.3341 0.875 3.5 0.05266 0.24287 0.10344 0.47657 0.15625 0.71875 2.1043 1.4031 3.9386 3.0011 5.5312 4.5938 0.52604 0.52604 1.1156 1.3428 1.3438 2.1875s0.17028 1.6624-0.5 2.5625c-0.26543 0.34624-0.28144 0.83009-0.03125 1.1875 0.25019 0.35741 0.70882 0.50589 1.125 0.375 0.22329-0.06797 0.32738-0.28031 0.53125-0.375 0.65777-0.3055 1.3195-0.61435 1.75-1.1562 0.449-0.56518 0.76338-1.2871 1.0625-2.0312 3.0043-0.39993 5.0871-2.6992 5.2812-5 0.05182-0.45447-0.19732-0.90028-0.625-1.0625s-0.92488 4.91e-4 -1.1875 0.375c-0.62772 0.87994-1.4428 1.4375-3.4062 1.4375-0.69766 0-1.7344-0.52184-3.0938-1.5s-3.0009-2.3407-5.125-3.7188c-1.0948-0.71026-2.3231-1.4288-3.6875-2.0938zm8.1875 23.469c-0.31629 0.0033-0.62486 0.16944-0.8125 0.4375-0.25019 0.35741-0.23418 0.84126 0.03125 1.1875 0.67028 0.90005 0.72816 1.7178 0.5 2.5625s-0.81771 1.6615-1.3438 2.1875c-4.5855 4.5855-11.052 9.1875-20.781 9.1875-5.29 0-9.5032-0.80331-12.844-2.2812v3.6875c3.079 1.0409 6.7321 1.6562 11.125 1.6562 9.2645 1e-6 15.377-2.7752 19.625-5.5312 2.1241-1.378 3.7656-2.7406 5.125-3.7188s2.3961-1.5 3.0938-1.5c1.9634 1e-6 2.7785 0.55756 3.4062 1.4375 0.26262 0.37451 0.75982 0.53722 1.1875 0.375s0.67682-0.60803 0.625-1.0625c-0.19424-2.3016-2.2819-4.5729-5.2812-4.9688-0.29807-0.74359-0.58454-1.4612-1.0312-2.0312-0.43093-0.54988-1.1167-0.87744-1.7812-1.1875-0.20183-0.09416-0.31005-0.30767-0.53125-0.375-0.10404-0.03272-0.20707-0.0636-0.3125-0.0625z" fill="#f9f9f9"/>
  </g>
  <path id="text3062" d="m411.4 423.38-1.8085 4.0094c-5.5304 3.0398-11.716 4.5597-18.557 4.5597-13.682 0-23.039-4.9266-28.071-14.78-2.3327-4.5597-3.499-9.4994-3.499-14.819 0-8.5953 2.8569-15.448 8.5707-20.558 5.8448-5.2672 13.826-7.9009 23.943-7.9009 6.4214 7e-5 12.699 1.1662 18.832 3.4984l0.51112 0.58961c-0.89121 3.6164-1.4416 7.8485-1.6512 12.696l-0.35383 0.39308h-2.3196l-0.39314-0.43239c-0.0786-3.1708-0.22271-5.372-0.43246-6.6037-3.2763-3.6949-8.0072-5.5424-14.193-5.5424-6.3691 7e-5 -11.362 2.0179-14.979 6.0534-3.617 4.0357-5.4255 9.5126-5.4255 16.431-3e-5 9.3553 3.2238 16.536 9.6715 21.541 3.4335 2.673 8.0334 4.0094 13.8 4.0094 5.2419 0 10.366-1.3496 15.372-4.0487zm40.966 6.643-0.43245 0.43239c-2.2017-0.13102-4.731-0.19654-7.5878-0.19654-2.2279 0-4.364 0.0655-6.4084 0.19654l-0.35383-0.43239 0.35383-5.2673-7.6272 5.8176c-0.60283 0.44549-1.4678 0.72064-2.5948 0.82546-0.44561 0.0524-0.96981 0.0786-1.5726 0.0786-2.9093 0-5.1437-0.87788-6.7032-2.6336-1.5595-1.7558-2.3392-4.1797-2.3392-7.272 0-4.088 1.2974-6.9837 3.8922-8.6871 2.8045-1.8606 8.4527-3.5377 16.945-5.0314-3e-5 -4.1666-1.1008-6.9575-3.3025-8.3726-1.3367-0.86475-2.9355-1.2971-4.7964-1.2972-2.0444 3e-5 -3.6563 0.41931-4.8358 1.2578l-1.494 3.6556-0.51108 0.27517-2.0051-0.47169-0.2753-0.55032 0.19641-4.6383c4.3246-3.197 7.5747-5.0052 9.7501-5.4245 0.91738-0.18339 2.1099-0.27513 3.5777-0.27516 5.1634 3e-5 8.8459 1.3496 11.048 4.0487 1.5988 1.9654 2.3982 4.979 2.3982 9.0408-4e-5 0.99583-0.0393 2.5944-0.11785 4.7956-0.13116 3.6688-0.19674 6.119-0.1964 7.3506-4e-5 3.957 0.0656 6.4793 0.1964 7.5668 0.13083 1.0875 0.43898 1.7754 0.9239 2.0637 0.48486 0.28824 1.6446 0.45859 3.4794 0.511l0.39311 0.43239v2.2012zm-14.429-9.1588v-9.6698c-4.3247 0.94341-7.2406 1.9589-8.7476 3.0464-1.5071 1.0875-2.2606 2.745-2.2606 4.9725 0 3.5639 1.5595 5.3459 4.6785 5.3459 2.6472 1e-5 4.7571-1.2316 6.3297-3.695zm86.061 9.1981-0.39315 0.43238c-1.5203-0.15722-4.2199-0.23585-8.099-0.23585-3.2239 0-5.5173 0.0786-6.8802 0.23585l-0.5504-0.74685c0.41934-6.5251 0.62899-11.281 0.62902-14.269v-3.577c-3e-5 -3.8522-0.11784-6.4334-0.35382-7.7437-0.28829-1.5723-0.94361-2.8302-1.9658-3.7736-1.0222-0.94336-2.4114-1.415-4.1674-1.4151-1.9658 3e-5 -3.6039 0.55034-4.9144 1.6509-1.3106 1.1006-1.9658 2.5026-1.9658 4.206v11.714l0.15746 6.2107c0.0523 1.6772 0.19641 2.7778 0.43246 3.3019 0.15712 0.34067 0.51105 0.58962 1.0615 0.74685 0.47174 0.13103 1.7429 0.30137 3.8136 0.511l0.43249 0.39308v2.3585l-0.47183 0.43238c-3.1714-0.15722-6.3822-0.23585-9.6322-0.23585-4.0364 0-7.4961 0.0786-10.379 0.23585l-0.43246-0.43238v-2.3192l0.39315-0.4717c1.6512-0.15722 2.7913-0.30136 3.4204-0.43239 0.47174-0.10482 0.81245-0.49789 1.0222-1.1792 0.15713-0.4979 0.249-1.9523 0.2753-4.3632l0.0786-12.696c-3e-5 -2.935-0.2227-5.0314-0.66834-6.2893-0.36701-0.99577-1.0616-1.8212-2.0837-2.4764-0.91741-0.60269-2.1231-0.90405-3.617-0.90408-2.3589 3e-5 -4.233 0.78619-5.6221 2.3585-0.6553 0.73377-1.0418 1.3234-1.1598 1.7689-0.11784 0.44552-0.1771 1.4282-0.17676 2.9481v8.5298c-4e-5 1.6772 0.0523 3.8522 0.15712 6.5251 0.10486 2.7516 0.20972 4.3501 0.31458 4.7956 0.15712 0.55031 0.59627 0.92374 1.3171 1.1203 0.72077 0.19654 1.815 0.30793 3.2828 0.33412l0.39314 0.39308v2.3978l-0.39314 0.39308c-2.2279-0.15722-5.5566-0.23585-9.986-0.23585-4.6916 0-8.2693 0.0917-10.733 0.27517l-0.39314-0.39308v-2.3978l0.39314-0.39308c2.5162-0.0786 4.0756-0.27517 4.6785-0.58962 0.5242-0.23586 0.81252-0.86477 0.86492-1.8868 0.18342-3.4067 0.2753-7.0623 0.2753-10.967v-5.621c0-5.241-0.19641-8.2546-0.58968-9.0408-0.26199-0.52408-0.82567-0.85164-1.6906-0.98271-0.31458-0.0524-1.4547-0.11787-3.4204-0.19653l-0.39314-0.39309v-2.2012l0.39314-0.43239c4.7178-0.44546 9.6846-1.533 14.9-3.2626l0.86491 0.51101-0.0786 6.25 6.9981-5.6604c1.2843-0.57648 2.8045-0.86474 4.5606-0.86478 3.0141 4e-5 5.36 0.49139 7.0374 1.474 1.6774 0.98274 3.0272 2.7057 4.0495 5.169l7.1554-5.7783c1.2843-0.60269 2.8437-0.90405 4.6785-0.90409 5.0585 4e-5 8.5706 1.8344 10.536 5.5031 0.86484 1.6248 1.2973 4.1143 1.2974 7.4685-7e-5 1.3889-0.0133 2.424-0.0393 3.1053l-0.0393 1.4937c-0.0526 1.2579-0.0789 2.0964-0.0786 2.5157v5.11c-1e-4 3.957 0.0656 6.4793 0.19641 7.5668 0.13116 1.0875 0.43242 1.7754 0.90426 2.0637 0.47174 0.28825 1.8084 0.45859 4.0102 0.511l0.39315 0.43239v2.3192zm39.197-21.855c-4e-5 0.44551-0.0133 1.1138-0.0393 2.0047l-0.43249 0.55031c-3.4598 0.94341-8.0465 1.4151-13.76 1.4151-1.0222 2e-5 -2.5686 0.0196-4.6392 0.059-2.0706 0.0393-3.6301 0.059-4.6785 0.059 0.15712 3.8522 1.3498 7.0361 3.5777 9.5518 2.3327 2.6992 5.3731 4.0487 9.1211 4.0487 2.5161 0 5.5041-0.86477 8.9639-2.5943l0.94354 1.1399-1.7299 3.8915c-3.8267 2.4371-7.981 3.6556-12.463 3.6556-5.8973 0-10.478-1.664-13.741-4.9921-3.2632-3.3281-4.8948-8.0712-4.8947-14.23-3e-5 -7.3113 1.7429-12.316 5.2289-15.016 4.8226-3.7211 9.3963-5.5817 13.721-5.5817 4.6916 4e-5 8.3217 1.3496 10.89 4.0487 2.621 2.7778 3.9314 6.7741 3.9315 11.989zm-10.261-1.022c-3e-5 -7.0754-2.2017-10.613-6.605-10.613-4.6392 3e-5 -6.9588 3.5115-6.9588 10.535v0.86478c1.5202 0.23588 4.2198 0.35379 8.099 0.35377 2.0182 2e-5 3.8266-0.11791 5.4255-0.35377 0.0266-0.36685 0.0393-0.62891 0.0393-0.78616zm44.348-14.898-0.2753 6.9968c-0.0266 1.1531-0.0786 2.4633-0.15746 3.9308l-1.6512 0.51101c-1.2319-1.7819-2.9356-2.6729-5.111-2.673-1.9658 3e-5 -3.5908 0.78619-4.8751 2.3585-0.78632 0.96962-1.1794 2.3978-1.1794 4.2846v9.1981c0 1.913 0.0919 4.5728 0.2753 7.9795 0.0523 0.9696 0.32757 1.5985 0.82564 1.8868 0.49796 0.28825 2.3196 0.4848 5.4648 0.58962l0.39314 0.35377v2.3978l-0.39314 0.39308c-3.8529-0.15722-7.6796-0.23585-11.48-0.23585-4.6916 0-8.2693 0.0917-10.733 0.27517l-0.39318-0.39308v-2.3978l0.39318-0.39308c2.5161-0.0786 4.0757-0.27517 4.6785-0.58962 0.5242-0.23586 0.81248-0.86477 0.86494-1.8868 0.18343-3.4067 0.2753-7.0623 0.2753-10.967v-5.621c0-5.241-0.1964-8.2546-0.58974-9.0408-0.26199-0.52408-0.8256-0.85164-1.6905-0.98271-0.31458-0.0524-1.4547-0.11787-3.4204-0.19653l-0.39314-0.39309v-2.2012l0.39314-0.43239c4.7178-0.44546 9.6846-1.533 14.9-3.2626l0.86495 0.51101-0.0786 7.7044c1.625-1.8868 3.5908-4.088 5.8973-6.6038 1.0746-1.0482 2.5424-1.5723 4.4033-1.5723 1.1008 4e-5 2.0313 0.15726 2.7914 0.4717zm38.45 37.736-0.43243 0.43239c-2.2017-0.13102-4.731-0.19654-7.5878-0.19654-2.2279 0-4.364 0.0655-6.4084 0.19654l-0.35382-0.43239 0.35382-5.2673-7.6271 5.8176c-0.60286 0.44549-1.4678 0.72064-2.5948 0.82546-0.4456 0.0524-0.96977 0.0786-1.5726 0.0786-2.9094 0-5.1438-0.87788-6.7032-2.6336-1.5595-1.7558-2.3393-4.1797-2.3393-7.272 0-4.088 1.2974-6.9837 3.8922-8.6871 2.8045-1.8606 8.4528-3.5377 16.945-5.0314-3e-5 -4.1666-1.1009-6.9575-3.3025-8.3726-1.3368-0.86475-2.9356-1.2971-4.7964-1.2972-2.0444 3e-5 -3.6564 0.41931-4.8358 1.2578l-1.494 3.6556-0.51112 0.27517-2.0051-0.47169-0.2753-0.55032 0.19674-4.6383c4.3247-3.197 7.5747-5.0052 9.7502-5.4245 0.91735-0.18339 2.1099-0.27513 3.5777-0.27516 5.1634 3e-5 8.8459 1.3496 11.048 4.0487 1.5988 1.9654 2.3982 4.979 2.3983 9.0408-3e-5 0.99583-0.0393 2.5944-0.11784 4.7956-0.13116 3.6688-0.19674 6.119-0.19674 7.3506-3e-5 3.957 0.0656 6.4793 0.19674 7.5668 0.13116 1.0875 0.43902 1.7754 0.92394 2.0637 0.48485 0.28824 1.6446 0.45859 3.4794 0.511l0.39314 0.43239v2.2012zm-14.429-9.1588v-9.6698c-4.3247 0.94341-7.2406 1.9589-8.7476 3.0464-1.5071 1.0875-2.2606 2.745-2.2606 4.9725-4e-5 3.5639 1.5595 5.3459 4.6785 5.3459 2.6472 1e-5 4.7571-1.2316 6.3297-3.695zm-215.53 99.806-0.39314 0.39308c-2.5686-0.18342-4.8882-0.27517-6.9588-0.27517-1.9658 0-4.6261 0.0917-7.981 0.27517l-0.35386-0.27517c0.10486-1.2841 0.15712-3.4329 0.15712-6.4465-0.94357 0.78617-2.2934 1.9916-4.0495 3.6163-2.1755 2.0178-3.5908 3.2232-4.246 3.6163-0.83875 0.39308-2.2017 0.58962-4.0888 0.58962-4.4819 0-8.0989-1.6902-10.851-5.0707-2.7521-3.3805-4.1281-7.7568-4.1281-13.129 0-5.2148 1.0615-9.2767 3.1846-12.185 0.5504-0.75993 2.1754-2.1095 4.8751-4.0487 3.1452-2.2536 5.4386-3.6818 6.8802-4.2846 1.2581-0.52407 2.8569-0.78612 4.7965-0.78616 2.7258 4e-5 5.2682 0.57655 7.6271 1.7296v-2.2012c-3e-5 -6.892-0.17044-10.954-0.51108-12.185-0.18343-0.68129-0.72081-1.1006-1.6119-1.2579-0.41941-0.0786-1.6251-0.15719-3.617-0.23585l-0.39314-0.43238v-2.162l0.39314-0.43239c5.0323-0.52405 10.104-1.6116 15.215-3.2626l0.86491 0.4717c-3e-5 0.10489-0.0526 1.402-0.15713 3.8915-0.23601 5.6342-0.35389 14.099-0.35386 25.393v12.696c-3e-5 7.3637 0.17044 11.412 0.51112 12.146 0.20972 0.44549 0.49797 0.72065 0.86495 0.82547 0.57656 0.18342 1.887 0.35378 3.9315 0.511l0.39314 0.39308v2.1226zm-15.529-20.519v-7.3899c-1.8872-2.2536-3.6956-3.6949-5.4255-4.3239-1.1795-0.41926-2.4376-0.6289-3.7742-0.62893-3.617 3e-5 -5.9497 1.8606-6.9981 5.5817-0.57667 2.0702-0.86498 4.3763-0.86495 6.9182-3e-5 5.4245 1.2712 9.447 3.8136 12.068 1.3367 1.3889 3.1321 2.0833 5.3862 2.0833 1.8609 1e-5 3.5908-0.58961 5.1896-1.7689 1.4415-1.0482 2.2934-2.175 2.5555-3.3805 0.0786-0.36686 0.11784-3.4198 0.11784-9.1588zm55.002-1.4151c-4e-5 0.44551-0.0133 1.1138-0.0393 2.0047l-0.43249 0.55032c-3.4598 0.94341-8.0465 1.4151-13.76 1.4151-1.0222 2e-5 -2.5686 0.0196-4.6392 0.0589-2.0706 0.0393-3.6301 0.059-4.6785 0.059 0.15746 3.8522 1.3498 7.0362 3.5777 9.5518 2.3327 2.6992 5.3731 4.0487 9.1211 4.0487 2.5162 0 5.5041-0.86477 8.9639-2.5943l0.94358 1.1399-1.7299 3.8915c-3.8267 2.4371-7.981 3.6556-12.463 3.6556-5.8973 0-10.477-1.664-13.741-4.9921-3.2632-3.3281-4.8947-8.0712-4.8947-14.229 0-7.3113 1.743-12.316 5.2289-15.016 4.8226-3.7211 9.3963-5.5817 13.721-5.5818 4.6916 4e-5 8.3217 1.3496 10.89 4.0487 2.621 2.7778 3.9314 6.7741 3.9315 11.989zm-10.261-1.022c-3e-5 -7.0754-2.2017-10.613-6.605-10.613-4.6392 4e-5 -6.9588 3.5116-6.9588 10.535v0.86477c1.5202 0.23588 4.2198 0.35379 8.099 0.35377 2.0182 2e-5 3.8266-0.11791 5.4255-0.35377 0.0266-0.36685 0.0393-0.62891 0.0393-0.78616zm32.238-28.341c-3e-5 1.6772-0.58974 3.1119-1.7692 4.3042-1.1795 1.1924-2.5948 1.7886-4.246 1.7885-1.6775 5e-5 -3.1059-0.59612-4.2854-1.7885-1.1795-1.1923-1.7692-2.627-1.7692-4.3042-4e-5 -1.7295 0.59624-3.1839 1.7888-4.3632 1.1926-1.1792 2.6145-1.7688 4.2657-1.7689 1.625 6e-5 3.0338 0.58968 4.2264 1.7689 1.1925 1.1793 1.7888 2.6337 1.7888 4.3632zm5.4255 51.297-0.39317 0.39308c-2.49-0.18342-6.0808-0.27517-10.772-0.27517-4.6916 0-8.2693 0.0917-10.733 0.27517l-0.39314-0.39308v-2.3978l0.39314-0.39308c2.5162-0.0786 4.0757-0.27516 4.6785-0.58962 0.5242-0.23585 0.81251-0.86477 0.86491-1.8868 0.18342-3.4067 0.2753-7.0623 0.2753-10.967v-5.621c0-5.0838-0.1964-8.0974-0.58971-9.0408-0.20972-0.52408-0.77321-0.85164-1.6906-0.9827-0.31458-0.0524-1.4547-0.11791-3.4204-0.19654l-0.39314-0.39308v-2.2012l0.39314-0.43239c5.0324-0.44546 10.104-1.533 15.215-3.2626l0.82563 0.511c-0.34074 4.7694-0.51111 8.7919-0.51108 12.068v12.539c-3e-5 1.913 0.0915 4.5728 0.2753 7.9795 0.0523 1.022 0.34071 1.6509 0.86491 1.8868 0.60283 0.31444 2.1624 0.511 4.6785 0.58962l0.43249 0.39307v2.3978zm-53.662 59.567c-4e-5 8.8836-2.8963 16.247-8.6886 22.091-2.8308 2.8564-6.2643 5.0707-10.301 6.6431-4.3247 1.7034-9.3702 2.5026-15.136 2.3978l-13.878-0.23586c-3.7743-0.0524-6.8933 0.0263-9.357 0.23586l-0.39315-0.39309v-1.1006l0.19657-0.47169c1.9396-1.2316 2.988-2.0047 3.1452-2.3192 0.23589-0.4717 0.38003-2.2144 0.43246-5.228l0.11794-8.805v-19.929c0-6.2368-0.17037-10.299-0.51108-12.185-0.13106-0.75991-0.57663-1.2447-1.3367-1.4544-0.39318-0.10477-1.9265-0.23579-4.5999-0.39308l-0.39315-0.39309v-2.6729l0.39315-0.35377c2.7783 0.15729 5.4255 0.23592 7.9417 0.23585 6.107 6e-5 11.611-0.0786 16.512-0.23585 2.4375-0.0786 4.8882-0.11788 7.3519-0.11791 6.8146 6e-5 12.044 0.77311 15.687 2.3192 3.9839 1.7034 7.1029 4.3763 9.357 8.0188 2.3064 3.7474 3.4597 8.5299 3.4598 14.347zm-12.07 1.8868c-3e-5 -7.2588-1.7561-12.841-5.2682-16.745-1.8348-2.044-4.1282-3.4853-6.8802-4.3239-2.621-0.78611-6.2773-1.1792-10.969-1.1792-2.4376 5e-5 -4.7703 0.17037-6.9981 0.511-0.26198 2.935-0.39314 10.037-0.39314 21.305l0.0786 17.178c0.0266 3.826 0.13116 6.3679 0.31458 7.6258 2.3065 0.36688 4.6654 0.55032 7.0768 0.55031 5.2158 1e-5 9.3308-0.75995 12.345-2.2799 3.25-1.6509 5.8317-4.4549 7.7451-8.4119 1.9657-4.088 2.9486-8.8312 2.9486-14.23zm53.272 6.9575c-3e-5 0.44551-0.0133 1.1138-0.0393 2.0047l-0.43245 0.55031c-3.4598 0.94341-8.0465 1.4151-13.76 1.4151-1.0222 2e-5 -2.5686 0.0196-4.6392 0.059-2.0706 0.0393-3.6301 0.059-4.6785 0.059 0.15712 3.8522 1.3498 7.0361 3.5777 9.5518 2.3327 2.6992 5.373 4.0487 9.1211 4.0487 2.5161 0 5.5041-0.86477 8.9638-2.5943l0.94361 1.1399-1.7299 3.8915c-3.8267 2.4371-7.981 3.6556-12.463 3.6556-5.8973 0-10.478-1.664-13.741-4.9921-3.2631-3.3281-4.8947-8.0712-4.8947-14.23 0-7.3113 1.743-12.316 5.2289-15.016 4.8226-3.7211 9.3963-5.5817 13.721-5.5817 4.6915 3e-5 8.3217 1.3496 10.89 4.0487 2.621 2.7778 3.9315 6.7741 3.9315 11.989zm-10.261-1.022c-7e-5 -7.0754-2.2017-10.613-6.605-10.613-4.6392 3e-5 -6.9588 3.5116-6.9588 10.535v0.86477c1.5202 0.23589 4.2198 0.3538 8.099 0.35378 2.0181 2e-5 3.8266-0.11791 5.4255-0.35378 0.0266-0.36685 0.0393-0.6289 0.0393-0.78616zm58.54 0.27517c-4e-5 3.2233-0.57667 6.3024-1.7299 9.2374-0.83878 2.1488-1.9396 3.9701-3.3025 5.4638-0.6029 0.65514-1.7299 1.5985-3.3811 2.8302-1.7299 1.3889-3.8922 3.066-6.487 5.0314-1.5465 1.022-3.5122 1.533-5.8973 1.533-2.2803 0-4.5606-0.41928-6.8408-1.2578v14.74c0 1.2054 0.14414 2.0047 0.43246 2.3978 0.15712 0.20962 0.51108 0.37996 1.0616 0.51101 0.41931 0.10479 2.0968 0.26205 5.0323 0.47169l0.43246 0.39308v2.4371l-0.39315 0.39308c-3.5384-0.20966-7.5616-0.31448-12.07-0.31445-3.3025-2e-5 -6.605 0.10479-9.9074 0.31445l-0.39314-0.39308v-2.3585l0.39314-0.43239c2.6472-0.0786 4.1674-0.28828 4.5606-0.62893 0.26198-0.23585 0.41934-0.48482 0.4718-0.74685 0.10486-0.49792 0.20972-1.782 0.31458-3.8522 0.0786-1.5723 0.13116-3.577 0.15713-6.0141l0.0786-6.0928v-22.838c-3e-5 -0.26202-0.0786-2.2012-0.23602-5.8176-0.0786-1.7033-0.21638-2.7974-0.41278-3.2822-0.19674-0.48476-0.74048-0.79268-1.6316-0.92373-0.31458-0.0524-1.4677-0.11791-3.4598-0.19654l-0.39311-0.39308v-2.2012l0.39311-0.43239c5.0062-0.44545 10.078-1.533 15.215-3.2626l0.86494 0.51101c-3e-5 1.1269-0.11784 3.3936-0.35386 6.8003 1.7561-1.4675 3.9708-3.2887 6.6443-5.4638 1.2843-0.96956 3.2632-1.4544 5.9366-1.4544 6.5 3e-5 10.93 2.4895 13.289 7.4685 1.0745 2.2799 1.6118 4.8873 1.6119 7.8223zm-10.104 4.8349c-3e-5 -5.7128-1.5071-9.5649-4.5212-11.557-1.5989-1.0482-3.2632-1.5723-4.993-1.5723-3.2239 3e-5 -5.8973 1.3234-8.0203 3.9701v19.497c2.3851 2.5157 5.0061 3.7736 7.863 3.7736 4.2722 1e-5 7.1291-2.2143 8.5707-6.643 0.73382-2.2274 1.1008-4.717 1.1008-7.4685zm61.096 17.767-0.39314 0.39308c-3.9316-0.13103-6.4084-0.19654-7.4306-0.19654-0.86501 0-2.1493 0.0326-3.8529 0.0983-1.7037 0.0655-2.9749 0.0983-3.8136 0.0983l-0.31458-0.31445c0.20972-2.1488 0.31458-4.1929 0.31458-6.1321-1.363 1.022-3.7481 3.1971-7.1554 6.5251-1.7037 0.65513-3.5253 0.9827-5.4648 0.9827-3.5384 0-6.3298-0.96305-8.3741-2.8891-2.0444-1.9261-3.0666-4.6973-3.0666-8.3136-4e-5 -0.44548 0.0266-1.3889 0.0786-2.8302 0.0523-1.4413 0.0786-2.8302 0.0786-4.1666v-5.0314c0-5.1886-0.19674-8.2022-0.58971-9.0408-0.26199-0.52408-0.8256-0.85165-1.6906-0.9827-0.31458-0.0524-1.4678-0.11791-3.4598-0.19654l-0.39311-0.39308v-2.2013l0.39311-0.43239c5.0062-0.44545 10.078-1.533 15.215-3.2626l0.86494 0.511c-0.34078 4.3501-0.51115 8.3726-0.51112 12.068v7.6651c-3e-5 3.5901 0.11785 6.0403 0.35383 7.3506 0.26199 1.5723 0.88459 2.7647 1.8674 3.577 0.98289 0.81238 2.2999 1.2186 3.9512 1.2186 2.0444 1e-5 3.8398-0.65512 5.3862-1.9654 1.4677-1.3103 2.2409-2.804 2.3196-4.4811 0.0523-1.284 0.0786-2.0833 0.0786-2.3978v-7.0361c-3e-5 -5.1362-0.19674-8.1498-0.58975-9.0408-0.23602-0.52407-0.78631-0.85164-1.6512-0.9827-0.31458-0.0524-1.4678-0.11791-3.4597-0.19654l-0.43249-0.39308v-2.2012l0.43249-0.43238c4.9799-0.44546 10.052-1.533 15.215-3.2626l0.82559 0.51101c-0.34074 3.9308-0.51115 7.9534-0.51108 12.068v12.343c-7e-5 5.5293 0.15712 8.6609 0.4718 9.3946 0.15713 0.36688 0.41931 0.60273 0.78629 0.70755 0.62899 0.18342 1.9919 0.34066 4.0888 0.47169l0.43242 0.39308v2.3978zm28.189-4.9528c-0.18343 0.20965-0.74701 0.75996-1.6905 1.6509-1.5464 1.4675-2.8701 2.804-3.9708 4.0094-1.2843 0.41928-2.5817 0.62893-3.8922 0.62893-3.6432 0-6.3036-1.0613-7.981-3.184-0.70769-0.91718-1.1795-1.9785-1.4153-3.184-0.26199-1.4413-0.38006-3.3281-0.35387-5.6604l0.11785-9.3946v-9.827h-1.0615l-2.0837 0.0786h-1.612l-0.43245-0.35378v-1.022l0.31458-0.58962c0.4718-0.31445 1.2057-0.78614 2.2017-1.4151 1.1795-0.73371 2.0706-1.3495 2.6734-1.8475v-5.3459c-3e-5 -2.2274-0.10486-4.5859-0.31458-7.0754 1.9658-0.62889 3.558-1.1858 4.7768-1.6706 1.2187-0.48475 2.9421-1.2774 5.1699-2.3781l1.0222 0.78616c-0.31458 3.2495-0.53732 6.1583-0.66834 8.7264l-0.35383 6.8003h1.2974c2.8569 3e-5 5.3206-0.0917 7.3913-0.27517l0.43249 0.43239-0.55043 4.599-0.39318 0.39308h-8.1775v13.325c-3e-5 4.2715 0.0523 6.7872 0.15712 7.5471 0.13116 1.1006 0.59624 1.9916 1.3957 2.6729 0.7994 0.68135 1.8806 1.022 3.2435 1.022 1.0746 0 2.372-0.28825 3.8922-0.86478l0.86491 1.4151zm39.119 4.9135-0.43249 0.43239c-2.2017-0.13103-4.731-0.19654-7.5878-0.19654-2.2279 0-4.364 0.0655-6.4084 0.19654l-0.35386-0.43239 0.35386-5.2673-7.6272 5.8176c-0.60286 0.44549-1.4678 0.72065-2.5948 0.82547-0.44558 0.0524-0.96978 0.0786-1.5726 0.0786-2.9093 0-5.1437-0.87788-6.7032-2.6336-1.5595-1.7558-2.3392-4.1798-2.3392-7.272 0-4.088 1.2974-6.9837 3.8922-8.6871 2.8045-1.8606 8.4528-3.5377 16.945-5.0314 0-4.1666-1.1009-6.9575-3.3025-8.3726-1.3367-0.86474-2.9356-1.2971-4.7965-1.2972-2.0444 3e-5 -3.6563 0.41931-4.8358 1.2579l-1.4939 3.6556-0.51112 0.27517-2.0051-0.4717-0.2753-0.55031 0.1964-4.6384c4.3247-3.197 7.5747-5.0052 9.7502-5.4245 0.91731-0.18339 2.1099-0.2751 3.5777-0.27517 5.1633 4e-5 8.8459 1.3496 11.048 4.0487 1.5988 1.9654 2.3982 4.979 2.3982 9.0408-4e-5 0.99583-0.0393 2.5944-0.11785 4.7956-0.13116 3.6688-0.19673 6.119-0.19673 7.3506 0 3.957 0.0656 6.4793 0.19673 7.5668 0.13116 1.0875 0.43898 1.7754 0.9239 2.0637 0.48486 0.28828 1.6447 0.4586 3.4794 0.511l0.39317 0.43239v2.2012zm-14.429-9.1588v-9.6698c-4.3247 0.94341-7.2405 1.9589-8.7476 3.0464-1.5071 1.0875-2.2606 2.745-2.2606 4.9725-3e-5 3.5639 1.5595 5.3459 4.6785 5.3459 2.6472 1e-5 4.7571-1.2316 6.3298-3.695zm42.46 4.2453c-0.18343 0.20965-0.74704 0.75996-1.6906 1.6509-1.5464 1.4675-2.87 2.804-3.9708 4.0094-1.2843 0.41928-2.5817 0.62893-3.8922 0.62893-3.6432 0-6.3035-1.0613-7.981-3.184-0.70769-0.91718-1.1795-1.9785-1.4154-3.184-0.26198-1.4413-0.38003-3.3281-0.35379-5.6604l0.11784-9.3946v-9.827h-1.0615l-2.0837 0.0786h-1.6119l-0.43245-0.35378v-1.022l0.31458-0.58962c0.47177-0.31445 1.2057-0.78614 2.2016-1.4151 1.1795-0.73371 2.0706-1.3495 2.6735-1.8475v-5.3459c0-2.2274-0.10486-4.5859-0.31458-7.0754 1.9658-0.62889 3.558-1.1858 4.7768-1.6706 1.2187-0.48475 2.9421-1.2774 5.1699-2.3781l1.0222 0.78616c-0.31458 3.2495-0.53732 6.1583-0.66834 8.7264l-0.35386 6.8003h1.2974c2.8569 3e-5 5.3206-0.0917 7.3913-0.27517l0.43246 0.43239-0.5504 4.599-0.39317 0.39308h-8.1776v13.325c0 4.2715 0.0523 6.7872 0.15712 7.5471 0.13116 1.1006 0.59624 1.9916 1.3957 2.6729 0.79937 0.68135 1.8806 1.022 3.2435 1.022 1.0746 0 2.372-0.28825 3.8922-0.86478l0.86494 1.4151zm19.854-46.266c0 1.6772-0.58975 3.1119-1.7692 4.3042-1.1794 1.1924-2.5948 1.7886-4.246 1.7885-1.6775 4e-5 -3.1059-0.59613-4.2854-1.7885-1.1794-1.1923-1.7692-2.627-1.7692-4.3042 0-1.7295 0.59627-3.1839 1.7888-4.3632 1.1925-1.1792 2.6144-1.7688 4.2657-1.7689 1.625 6e-5 3.0338 0.58968 4.2264 1.7689 1.1925 1.1793 1.7888 2.6337 1.7888 4.3632zm5.4255 51.297-0.39314 0.39307c-2.49-0.18342-6.0808-0.27516-10.772-0.27516-4.6916 0-8.2693 0.0917-10.733 0.27516l-0.39318-0.39307v-2.3978l0.39318-0.39309c2.5161-0.0786 4.0757-0.27516 4.6785-0.58962 0.5242-0.23585 0.81248-0.86477 0.86495-1.8868 0.18342-3.4067 0.2753-7.0623 0.2753-10.967v-5.621c0-5.0838-0.19674-8.0974-0.58975-9.0408-0.20972-0.52407-0.7732-0.85164-1.6905-0.98269-0.31458-0.0524-1.4547-0.11791-3.4204-0.19654l-0.39314-0.39308v-2.2012l0.39314-0.43239c5.0323-0.44545 10.104-1.533 15.215-3.2626l0.8256 0.51101c-0.34074 4.7694-0.51108 8.7919-0.51108 12.068v12.539c0 1.913 0.0919 4.5728 0.2753 7.9795 0.0523 1.022 0.34071 1.6509 0.86494 1.8868 0.60283 0.31448 2.1623 0.51101 4.6785 0.58962l0.43242 0.39308v2.3978z" fill="#fff" font-family="'Helvetica LT Std'" font-size="21.431px"/>
 </g>
</svg>
