<?xml version="1.0" encoding="UTF-8"?>
<svg width="600" height="593.72" version="1.1" viewBox="0 0 158.75 157.09" xmlns="http://www.w3.org/2000/svg">
 <g transform="translate(-9.8301 -107.23)" fill-rule="evenodd">
  <path d="m161.34 107.23h-2.0465s-9.1803 27.321-59.175 27.321h-33.181l-2.8443 22.916h97.249z" fill="#013a57"/>
  <path d="m158.22 207.1c-21.459-18.291-73.616-8.5791-73.616-8.5791v-10.626h77.176v-23.14h-103.12l-7.2495 54.932 37.889-0.0116c4.1739-3.0408 11.955-4.278 15.967-4.1624 12.152 0.34686 15.944 3.8155 18.153 6.7985 2.0234 2.7287 2.1737 7.6079 0 10.522-2.8905 3.8618-8.5907 6.891-18.58 6.891-3.8039 0-14.996-0.57811-20.199-9.2382l-35.38-0.0116c0 22.234 24.974 29.807 35.796 32.05 0.97122 0.19656 24.119 4.8445 50.55-1.5956 17.574-4.278 29.345-13.828 32.293-26.2 2.3009-9.7584-1.295-20.095-9.6775-27.622" fill="#013a57"/>
  <path d="m53.743 150.48c0-3.4802-2.7055-6.336-6.0932-6.5904 0.95966-1.1446 1.5609-2.6477 1.5609-4.2896 0-3.6421-2.9368-6.602-6.5904-6.602-1.6187 0-3.0987 0.56655-4.2549 1.5262l-0.13874 0.31218v0.0925c-0.21968-3.3415-3.0177-5.9776-6.4401-5.9776-3.4108 0-6.1626 2.613-6.4401 5.9314l-0.13874-0.34687c-1.1447-0.93653-2.613-1.4915-4.1971-1.4915-3.6305 0-6.602 2.9599-6.602 6.602 0 1.7112 0.64748 3.2605 1.7112 4.4283-3.5033 0.17343-6.2898 3.064-6.2898 6.602 0 3.5149 2.798 6.3592 6.2782 6.5557-0.98278 1.1562-1.5956 2.6824-1.5956 4.3242 0 3.6421 2.9599 6.602 6.5904 6.602 1.5609 0 2.9946-0.53186 4.1277-1.4337 0.38155 3.2836 3.1449 5.8504 6.5557 5.8504 3.5149 0 6.336-2.7171 6.5789-6.1395 1.1562 0.98278 2.6593 1.584 4.3011 1.584 3.6652 0 6.602-2.9715 6.602-6.6135 0-1.6649-0.62436-3.1796-1.6071-4.3474l-0.10406 0.0231c3.4455-0.21968 6.1857-3.0986 6.1857-6.602m-21.91 6.0586c-3.353 0-6.047-2.7287-6.047-6.0586 0-3.3415 2.694-6.0701 6.047-6.0701s6.0701 2.7287 6.0701 6.0701c0 3.3299-2.7171 6.0586-6.0701 6.0586" fill="#e4612b"/>
 </g>
</svg>
