<?xml version="1.0" encoding="UTF-8"?>
<svg width="600" height="263.53" version="1.1" viewBox="0 0 158.75 69.724" xmlns="http://www.w3.org/2000/svg">
 <path d="m93.962 32.368-0.10948 0.87584-4.1481 32.516h64.788l4.26-33.392zm8.6611 3.698h4.0508l-1.3503 10.705h13.515l1.3624-10.705h4.0508l-3.2844 25.935h-4.0508l1.4232-11.021h-13.551l-1.3989 11.021h-4.0508zm26.36 0h7.615c2.3599 0 4.3062 0.41359 5.7903 1.1678h0.0122c1.5327 0.77853 2.7613 1.7882 3.6615 2.9925 0.91233 1.2164 1.5692 2.5789 1.9585 4.0629 0.38926 1.5084 0.58389 2.9925 0.58389 4.3914 0 1.9463-0.29195 3.7588-0.83935 5.3889-0.57173 1.6544-1.3502 3.0533-2.3356 4.2211-0.97315 1.18-2.1531 2.0923-3.479 2.737-1.3138 0.64472-2.7492 0.97316-4.2941 0.97316h-11.94zm3.6128 3.4061-0.10948 0.87584-2.2748 18.247h5.4862c1.4719 0 2.81-0.27978 3.9413-0.87584 1.0826-0.57173 2.0071-1.3503 2.7127-2.2991 0.69338-0.94883 1.2043-2.0315 1.5206-3.2236 0.32844-1.1921 0.49875-2.3964 0.49875-3.6007 0-1.2286-0.19464-2.4207-0.57173-3.5277-0.3771-1.107-0.93667-2.0801-1.6787-2.9073v-0.01216c-0.7542-0.82718-1.6909-1.4841-2.7735-1.9585-1.107-0.48658-2.3721-0.7177-3.7588-0.7177z" color="#000000" color-rendering="auto" fill="#a7a5a5" image-rendering="auto" shape-rendering="auto" solid-color="#000000" stroke-width="1.2164" style="font-feature-settings:normal;font-variant-alternates:normal;font-variant-caps:normal;font-variant-ligatures:normal;font-variant-numeric:normal;font-variant-position:normal;isolation:auto;mix-blend-mode:normal;shape-padding:0;text-decoration-color:#000000;text-decoration-line:none;text-decoration-style:solid;text-indent:0;text-transform:none;white-space:normal"/>
 <g fill-rule="evenodd" stroke-width=".44383">
  <path d="m67.244-7.6581e-4h-0.90829s-4.0745 12.126-26.263 12.126h-14.727l-1.263 10.171h43.162z" fill="#fff"/>
  <path d="m65.86 44.324c-9.525-8.118-32.673-3.807-32.673-3.807v-4.716h34.253v-10.271h-45.768l-3.2175 24.38 16.816-0.0051c1.8525-1.3496 5.306-1.8987 7.0866-1.8474 5.3934 0.15394 7.0764 1.6934 8.0568 3.0174 0.89804 1.2111 0.96475 3.3766 0 4.67-1.2829 1.714-3.8128 3.0584-8.2463 3.0584-1.6883 0-6.6556-0.25658-8.9649-4.1002l-15.703-0.0051c0 9.8681 11.084 13.229 15.887 14.225 0.43105 0.08724 10.705 2.1501 22.435-0.70817 7.7998-1.8987 13.024-6.1372 14.333-11.628 1.0212-4.331-0.57476-8.9187-4.2951-12.259" fill="#fff"/>
  <path d="m19.49 19.195c0-1.5446-1.2008-2.8121-2.7043-2.925 0.42592-0.508 0.69277-1.1751 0.69277-1.9038 0-1.6165-1.3034-2.9301-2.925-2.9301-0.71842 0-1.3753 0.25145-1.8884 0.67737l-0.06158 0.13855v0.04106c-0.0975-1.483-1.3393-2.653-2.8583-2.653-1.5138 0-2.7351 1.1597-2.8583 2.6325l-0.0614-0.156c-0.508-0.415-1.1597-0.662-1.8627-0.662-1.6113 0-2.9301 1.3137-2.9301 2.9301 0 0.75948 0.28737 1.4471 0.75948 1.9654-1.555 0.077-2.7917 1.36-2.7917 2.93 0 1.56 1.2418 2.8224 2.7864 2.9096-0.43618 0.51315-0.70817 1.1905-0.70817 1.9192 0 1.6165 1.3137 2.9301 2.925 2.9301 0.69277 0 1.3291-0.23605 1.832-0.63632 0.16934 1.4574 1.3958 2.5966 2.9096 2.5966 1.56 0 2.8121-1.2059 2.9199-2.7249 0.51315 0.43618 1.1803 0.70302 1.9089 0.70302 1.6267 0 2.9301-1.3188 2.9301-2.9353 0-0.73893-0.27711-1.4112-0.71328-1.9295l-0.04619 0.01022c1.5292-0.0975 2.7454-1.3752 2.7454-2.9301m-9.7245 2.69c-1.4882 0-2.6838-1.2111-2.6838-2.689 0-1.483 1.1957-2.6941 2.6838-2.6941 1.4882 0 2.6941 1.2111 2.6941 2.6941 0 1.4779-1.2059 2.689-2.6941 2.689" fill="#e4612b"/>
 </g>
</svg>
