<?xml version="1.0" encoding="UTF-8"?>
<!-- Created with Inkscape (http://www.inkscape.org/) -->
<svg id="svg4536" width="72.574mm" height="39.437mm" version="1.1" viewBox="0 0 72.574 39.437" xmlns="http://www.w3.org/2000/svg" xmlns:cc="http://creativecommons.org/ns#" xmlns:dc="http://purl.org/dc/elements/1.1/" xmlns:rdf="http://www.w3.org/1999/02/22-rdf-syntax-ns#">
 <metadata id="metadata4533">
  <rdf:RDF>
   <cc:Work rdf:about="">
    <dc:format>image/svg+xml</dc:format>
    <dc:type rdf:resource="http://purl.org/dc/dcmitype/StillImage"/>
    <dc:title/>
   </cc:Work>
  </rdf:RDF>
 </metadata>
 <g id="layer1" transform="translate(53.296 -129.11)">
  <path id="path2" d="m-22.634 129.2c-4.6593 1.2528 2.1302 2.4559 1.3264 3.6494-2.2995 3.4139-4.8173 6.5553-7.3086 9.8433-0.28416 0.37518-0.5633 0.75645-0.8427 1.1382h14.466c-3.6428 5.0064-7.3022 9.8248-10.917 14.626-2.5236 3.352-5.2144 6.7038-7.6716 10.097 5.0247 0 10.093-7e-3 14.84-7e-3h5.347c9.9158-13.219 19.693-26.255 29.56-39.408-11.708 0-27.198 0.0611-38.8 0.0611z" fill="#fcbf41" stroke-width=".26458"/>
  <g id="g16" transform="matrix(.26458 0 0 .26458 -31.903 148.8)" fill="#333">
   <path id="path4" d="m104.28 54.733c-0.606-0.05-1.209 1e-3 -1.81 0.155-0.6 0.154-1.17 0.409-1.707 0.768-0.538 0.358-1.006 0.803-1.403 1.337-0.726 0.976-1.152 1.945-1.282 2.906-0.129 0.962-0.034 1.89 0.286 2.786s0.813 1.741 1.48 2.537c0.666 0.796 1.432 1.516 2.297 2.16 0.827 0.616 1.705 1.118 2.631 1.506 0.927 0.389 1.861 0.605 2.8 0.647 0.941 0.042 1.854-0.136 2.737-0.537 0.884-0.4 1.689-1.088 2.415-2.064 0.986-1.325 1.351-2.662 1.095-4.01s-0.983-2.597-2.185-3.749l3.122-4.197c1.15 1.027 2.051 2.141 2.703 3.34 0.652 1.2 1.047 2.437 1.185 3.712 0.139 1.276 0.015 2.556-0.369 3.842-0.386 1.286-1.03 2.537-1.934 3.751-1.123 1.509-2.395 2.672-3.817 3.487-1.421 0.816-2.9 1.295-4.437 1.439-1.536 0.144-3.089-0.025-4.66-0.508s-3.075-1.258-4.51-2.326c-1.473-1.096-2.676-2.334-3.609-3.714-0.931-1.379-1.559-2.832-1.881-4.358-0.322-1.527-0.303-3.092 0.061-4.694 0.362-1.603 1.105-3.159 2.228-4.668 0.808-1.086 1.727-1.996 2.759-2.729s2.132-1.26 3.297-1.579c1.166-0.318 2.376-0.398 3.629-0.238s2.499 0.601 3.736 1.32l-3.122 4.197c-0.551-0.295-1.129-0.469-1.735-0.519z"/>
   <path id="path6" d="m110.51 35.387 25.197 7.293-3.348 4.5-5.499-1.775-5.484 7.372 3.24 4.812-3.245 4.362-14.167-22.119zm12.278 8.747-9.082-2.897-0.041 0.056 5.324 7.949z"/>
   <path id="path8" d="m119.24 23.652 19.345 1.61 0.041-0.055-13.225-9.838 3.019-4.059 19.714 14.665-3.224 4.334-19.297-1.617-0.041 0.056 13.197 9.817-3.019 4.059-19.715-14.664z"/>
   <path id="path10" d="m137.33-0.672 25.197 7.293-3.348 4.5-5.499-1.775-5.484 7.372 3.24 4.812-3.245 4.362-14.168-22.12zm12.277 8.748-9.082-2.897-0.041 0.056 5.324 7.949z"/>
   <path id="path12" d="m146.49-12.986 16.07 11.954 7.148-9.608 3.644 2.711-10.373 13.943-19.713-14.665z"/>
   <path id="path14" d="m165.18-38.112 3.644 2.711-7.744 10.41 4.225 3.143 7.107-9.553 3.369 2.506-7.107 9.553 4.832 3.594 7.908-10.63 3.644 2.711-11.133 14.965-19.713-14.665z"/>
  </g>
  <path id="path18" d="m16.99 131.77c-1.1411 1.5356-2.2738 3.0604-3.4047 4.582 0.0026 2e-3 0.0045 4e-3 0.0071 6e-3l0.84032 2.8821 0.17171-0.23442c0.4146-0.55774 0.83291-1.1208 1.2761-1.7174 0.30162 0.96573 0.57706 1.9153 0.8546 2.8572 0.19368 0.65776 0.38841 1.3118 0.59399 1.9648 0.48974-0.65908 0.9652-1.2991 1.428-1.9217 0.17542-0.23627 0.34951-0.47043 0.52123-0.70141-0.76778-2.5887-1.5248-5.1416-2.2883-7.7176z" fill="#fcbf41" stroke-width=".26458"/>
  <path id="path20" d="m-53.296 148.68 12.501-16.567 3.9997 3.0186-12.601 16.697z" fill="#4aaae0" stroke-width=".26458"/>
  <path id="path22" d="m-18.677 129.17c-6.6297-2.6e-4 -13.354-0.0526-19.947-0.0526-1.5227 2.0942-2.9673 4.1579-4.4924 6.1606-2.4903 3.2702-5.1678 6.4087-7.4832 9.7957-0.8509 1.2446-1.7489 2.2942-2.6961 3.6671 4.7927 6.3921 9.8989 13.258 14.788 19.779 0.0016 0-0.0082-0.0307-0.0066-0.0307v6e-3l5.1104 0.0307-0.01138-0.0418 0.13097-0.0876c2.4508-3.379 5.0329-6.6765 7.5499-10.015-2.3667-3.1581-4.8276-6.36-7.2223-9.5557 1.2943-1.8084 2.4352-3.4584 3.5957-5.0424 0.27861-0.38047 0.55695-0.76015 0.84032-1.1337 1.9405-2.5572 4.0063-5.0268 5.9116-7.6046" fill="#bdc0c1" stroke-width=".26458"/>
  <path id="path24" d="m-1.4964 142.69c-0.28416 0.37518 6.4103 0.75645 6.1309 1.1382h-19.627c-3.643 5.0064-7.3025 9.8248-10.917 14.626-2.5236 3.352-5.2144 6.7038-7.6716 10.097 5.0247 0 10.093-7e-3 14.84-7e-3h5.347" fill="#fcbf41" stroke-width=".26458"/>
 </g>
</svg>
