<svg width="800" height="376.21" version="1.1" viewBox="0 0 211.67 99.539" xmlns="http://www.w3.org/2000/svg">
 <defs>
  <filter id="filter953" x="-.008668" y="-.019301" width="1.0173" height="1.0386" color-interpolation-filters="sRGB">
   <feGaussianBlur stdDeviation="0.43836232"/>
  </filter>
 </defs>
 <g transform="translate(-16.064 79.36)">
  <g transform="matrix(1.7098 0 0 1.7155 7.1433 -113.32)" fill="#f612d4" filter="url(#filter953)" stroke="#f417da" style="mix-blend-mode:normal">
   <path d="m35.006 38.21 4.9543 2.1458q-0.49917 2.9862-1.5724 4.989-1.0732 2.0027-2.6706 3.022-1.5849 1.0193-4.0433 1.0193-2.9826 0-4.8794-1.2338-1.8844-1.2517-3.2571-4.381t-1.3727-8.011q0-6.5089 2.4085-9.9958 2.421-3.5048 6.8387-3.5048 3.4568 0 5.4285 2.0027 1.9842 2.0027 2.9451 6.1513l-4.9917 1.5915q-0.26207-1.1981-0.54909-1.7524-0.47422-0.92985-1.1606-1.4305-0.68636-0.50069-1.535-0.50069-1.9218 0-2.9451 2.2173-0.77372 1.6451-0.77372 5.1678 0 4.3631 0.92347 5.9904 0.92347 1.6093 2.5957 1.6093 1.6223 0 2.4459-1.3054 0.83611-1.3054 1.2105-3.7909z" stroke-width="1.9121"/>
   <path d="m53.949 44.594h-6.4393l-0.88603 4.3274h-5.7779l6.8761-26.215h6.1648l6.8761 26.215h-5.9152zm-1.1855-5.6685-2.0216-9.4236-2.0092 9.4236z" stroke-width="1.9121"/>
   <path d="m62.535 22.707h9.3969q3.0699 0 4.5924 2.0922 1.535 2.0922 1.535 5.9546 0 3.9697-1.6722 6.2049-1.6597 2.2352-5.0791 2.2352h-3.0949v9.7276h-5.6781zm5.6781 11.176h1.3852q1.6348 0 2.2962-0.80468 0.6614-0.82256 0.6614-2.0922 0-1.2338-0.57405-2.0922-0.57405-0.85832-2.1589-0.85832h-1.6098z" stroke-width="1.9121"/>
   <path d="m81.104 48.921v-26.215h9.4219q2.6207 0 4.0059 0.64374t2.2338 2.3961q0.84859 1.7345 0.84859 4.238 0 2.1816-0.64893 3.773-0.64893 1.5736-1.7845 2.5571-0.7238 0.62586-1.9842 1.0371 1.0108 0.4828 1.4726 0.96561 0.31198 0.32187 0.89851 1.3769 0.599 1.055 0.79868 1.6272l2.733 7.5997h-6.3894l-3.02-8.011q-0.57405-1.5557-1.0233-2.0206-0.61149-0.60798-1.3852-0.60798h-0.49917v10.64zm5.6781-15.593h2.3836q0.38685 0 1.4975-0.35763 0.56157-0.16094 0.911-0.82256 0.36189-0.66162 0.36189-1.5199 0-1.2696-0.56157-1.9491t-2.109-0.6795h-2.4834z" stroke-width="1.9121"/>
   <path d="m6.2695 51.632h14.201v4.7741h-8.9389v4.5608h8.4059v4.7741h-8.4059v10.385h-5.2622z" stroke-width="1.9167"/>
   <path d="m33.654 71.663h-7.4696l-1.1788 4.4624h-4.8019l6.8616-24.494h5.6952l6.8616 24.494h-4.8019zm-6.2784-4.5444h5.0748l-2.5312-9.7451z" stroke-width="1.8262"/>
   <path d="m60.68 51.632h4.777v9.3349h7.0477v-9.3349h4.777v24.494h-4.777v-10.385h-7.0477v10.385h-4.777z" stroke-width="1.8262"/>
   <path d="m81.372 51.632h4.777v24.494h-4.777z" stroke-width="1.8262"/>
   <path d="m98.051 55.766q-2.1524 0-3.3386 2.1328-1.1863 2.1328-1.1863 6.0045 0 3.8554 1.1863 5.9881 1.1863 2.1328 3.3386 2.1328 2.1646 0 3.3509-2.1328t1.1863-5.9881q0-3.8718-1.1863-6.0045t-3.3509-2.1328zm0-4.5772q4.4026 0 6.8974 3.3796t2.4948 9.3349q0 5.9389-2.4948 9.3185t-6.8974 3.3796q-4.3904 0-6.8974-3.3796-2.4948-3.3796-2.4948-9.3185 0-5.9553 2.4948-9.3349 2.507-3.3796 6.8974-3.3796z" stroke-width="1.8131"/>
   <path d="m111.04 51.632h5.3354l6.7375 16.8v-16.8h4.5289v24.494h-5.3354l-6.7375-16.8v16.8h-4.5289z" stroke-width="1.8262"/>
   <path d="m41.458 68.738c0.47679 4.4931 2.8607 8.0311 8.2189 8.0311 5.4263 0 7.9919-3.4318 7.9919-8.1726 0-3.7502-1.1806-6.722-7.1972-8.3849-2.4975-0.70758-3.1559-1.2383-3.1559-2.4058s0.65842-1.8751 2.0661-1.8751c1.998 0 2.4293 1.2736 2.611 2.3704h5.0403c-0.20434-3.6794-2.3158-7.5004-7.6286-7.5004-4.3592 0-7.3334 2.8657-7.3334 7.7834 0 3.2903 0.84005 6.439 6.7431 8.0311 2.9969 0.81372 3.4964 1.5921 3.4964 2.9011 0 1.2383-0.5676 2.1227-2.4066 2.1227-2.0888 0-2.9061-1.2383-3.2467-2.9011z" stroke-width="1.7714"/>
  </g>
  <g transform="matrix(1.7155 0 0 1.7155 8.7612 -115.91)">
   <path d="m35.006 38.21 4.9543 2.1458q-0.49917 2.9862-1.5724 4.989-1.0732 2.0027-2.6706 3.022-1.5849 1.0193-4.0433 1.0193-2.9826 0-4.8794-1.2338-1.8844-1.2517-3.2571-4.381t-1.3727-8.011q0-6.5089 2.4085-9.9958 2.421-3.5048 6.8387-3.5048 3.4568 0 5.4285 2.0027 1.9842 2.0027 2.9451 6.1513l-4.9917 1.5915q-0.26207-1.1981-0.54909-1.7524-0.47422-0.92985-1.1606-1.4305-0.68636-0.50069-1.535-0.50069-1.9218 0-2.9451 2.2173-0.77372 1.6451-0.77372 5.1678 0 4.3631 0.92347 5.9904 0.92347 1.6093 2.5957 1.6093 1.6223 0 2.4459-1.3054 0.83611-1.3054 1.2105-3.7909z" stroke-width="1.9121"/>
   <path d="m53.949 44.594h-6.4393l-0.88603 4.3274h-5.7779l6.8761-26.215h6.1648l6.8761 26.215h-5.9152zm-1.1855-5.6685-2.0216-9.4236-2.0092 9.4236z" stroke-width="1.9121"/>
   <path d="m62.535 22.707h9.3969q3.0699 0 4.5924 2.0922 1.535 2.0922 1.535 5.9546 0 3.9697-1.6722 6.2049-1.6597 2.2352-5.0791 2.2352h-3.0949v9.7276h-5.6781zm5.6781 11.176h1.3852q1.6348 0 2.2962-0.80468 0.6614-0.82256 0.6614-2.0922 0-1.2338-0.57405-2.0922-0.57405-0.85832-2.1589-0.85832h-1.6098z" stroke-width="1.9121"/>
   <path d="m81.104 48.921v-26.215h9.4219q2.6207 0 4.0059 0.64374t2.2338 2.3961q0.84859 1.7345 0.84859 4.238 0 2.1816-0.64893 3.773-0.64893 1.5736-1.7845 2.5571-0.7238 0.62586-1.9842 1.0371 1.0108 0.4828 1.4726 0.96561 0.31198 0.32187 0.89851 1.3769 0.599 1.055 0.79868 1.6272l2.733 7.5997h-6.3894l-3.02-8.011q-0.57405-1.5557-1.0233-2.0206-0.61149-0.60798-1.3852-0.60798h-0.49917v10.64zm5.6781-15.593h2.3836q0.38685 0 1.4975-0.35763 0.56157-0.16094 0.911-0.82256 0.36189-0.66162 0.36189-1.5199 0-1.2696-0.56157-1.9491t-2.109-0.6795h-2.4834z" stroke-width="1.9121"/>
   <path d="m6.2695 51.632h14.201v4.7741h-8.9389v4.5608h8.4059v4.7741h-8.4059v10.385h-5.2622z" stroke-width="1.9167"/>
   <path d="m33.654 71.663h-7.4696l-1.1788 4.4624h-4.8019l6.8616-24.494h5.6952l6.8616 24.494h-4.8019zm-6.2784-4.5444h5.0748l-2.5312-9.7451z" stroke-width="1.8262"/>
   <path d="m60.68 51.632h4.777v9.3349h7.0477v-9.3349h4.777v24.494h-4.777v-10.385h-7.0477v10.385h-4.777z" stroke-width="1.8262"/>
   <path d="m81.372 51.632h4.777v24.494h-4.777z" stroke-width="1.8262"/>
   <path d="m98.051 55.766q-2.1524 0-3.3386 2.1328-1.1863 2.1328-1.1863 6.0045 0 3.8554 1.1863 5.9881 1.1863 2.1328 3.3386 2.1328 2.1646 0 3.3509-2.1328t1.1863-5.9881q0-3.8718-1.1863-6.0045t-3.3509-2.1328zm0-4.5772q4.4026 0 6.8974 3.3796t2.4948 9.3349q0 5.9389-2.4948 9.3185t-6.8974 3.3796q-4.3904 0-6.8974-3.3796-2.4948-3.3796-2.4948-9.3185 0-5.9553 2.4948-9.3349 2.507-3.3796 6.8974-3.3796z" stroke-width="1.8131"/>
   <path d="m111.04 51.632h5.3354l6.7375 16.8v-16.8h4.5289v24.494h-5.3354l-6.7375-16.8v16.8h-4.5289z" stroke-width="1.8262"/>
   <path d="m41.458 68.738c0.47679 4.4931 2.8607 8.0311 8.2189 8.0311 5.4263 0 7.9919-3.4318 7.9919-8.1726 0-3.7502-1.1806-6.722-7.1972-8.3849-2.4975-0.70758-3.1559-1.2383-3.1559-2.4058s0.65842-1.8751 2.0661-1.8751c1.998 0 2.4293 1.2736 2.611 2.3704h5.0403c-0.20434-3.6794-2.3158-7.5004-7.6286-7.5004-4.3592 0-7.3334 2.8657-7.3334 7.7834 0 3.2903 0.84005 6.439 6.7431 8.0311 2.9969 0.81372 3.4964 1.5921 3.4964 2.9011 0 1.2383-0.5676 2.1227-2.4066 2.1227-2.0888 0-2.9061-1.2383-3.2467-2.9011z" stroke-width="1.7714"/>
  </g>
  <path d="m200.74-58.664v10.119l-18.793-0.28912 0.51018-14.473z" fill="#eb1fd4"/>
  <path d="m188.17-77.689c0.7354-2.3479 5.1922-2.1459 5.8794 0.13578 0.55341 1.9837 0.25255 4.0998 1.0288 6.0404 0.75022 0.46031 2.039 0.39739 2.2544 1.3611 1.0139 3.0401 0.56085 6.2523 0.90623 9.3586-0.36024 1.1524-0.19306 2.4373-0.94336 3.4739-0.56823 0.78816-0.51625 1.7518-0.69081 2.6427-1.1774 0.60603-0.66481 1.8942-0.91366 2.8679-0.11529 0.94381-0.60537 1.7816-1.2145 2.54-0.67226 1.9969 0.3008 3.9806 0.66851 5.9344-0.73908 0.92394-2.1133 1.3909-3.1755 0.57291 0.4457 1.0928 0.76138 2.2685 0.58308 3.4375-0.34163 1.8976-0.45678 3.8481-0.17085 5.7556 0.0521 0.89744 0.90622 1.4935 1.2442 2.2949-0.37144 0.84446-0.87651 1.6691-0.7391 2.6095-0.12626 0.93388-0.36396 2.338-1.7084 2.391-0.90623 0.2583-1.6491-0.21527-1.909-0.97362-0.95451 0.03642-1.9127 0.03642-2.8524-0.10597 0.21166-0.72193 1.3891-0.66232 1.9424-1.1558 1.5005-1.0663 0.88025-2.9506 1.2479-4.421-0.1783-2.3546-1.3148-4.58-1.3705-6.9544-0.0184-0.94711-0.23027-1.8843-0.64255-2.7553-0.93222-0.34772-1.9499-0.41726-2.9341-0.57291 1.2888-4.1296 0.25627-8.3817 0.24139-12.577 0.0782-0.90076-0.96568-1.4306-1.1068-2.2983-0.37508-1.7585-1.6973-3.3679-1.3408-5.2191-0.0408-0.8842 0.71682-1.5532 0.96938-2.3711 0.4271-1.3843 0.72792-2.8049 1.311-4.1494 0.52369-0.64908 1.7382-0.62258 2.1282-1.424 0.85422-0.90738 8e-3 -2.0664 0.21915-3.0997 0.1969-1.1491 0.62025-2.2552 1.0882-3.3381m6.2656 16.541c0.078 0.61265 0.30455 1.2021 0.6871 1.7187-0.0816-0.61265 0.0853-1.4107-0.6871-1.7187z" fill="#ed20d7" stroke-width=".35071"/>
 </g>
</svg>
