<svg id="a" width="410.65mm" height="130.24mm" version="1.1" viewBox="0 0 410.65 130.24" xmlns="http://www.w3.org/2000/svg">
 <g id="b" transform="translate(222.33 -83.716)">
  <g id="c" transform="matrix(.35278 0 0 .35278 -228.67 78.463)" fill="#fff">
   <path id="d" d="m128.78 26.95c29.33-11.92 62.02-14.8 93.15-9.54 33.7 5.97 65.53 21.82 90.86 44.8 7.93 7.09 15.03 15.04 21.9 23.15l-43.71 45.03c-18.12-20.63-40.81-38.27-67.52-45.96-21.82-6.33-45.59-6.25-67.21 0.87-25.36 8.48-46.36 27.51-59.82 50.34-14.52 24.66-18.43 54.4-14.97 82.5 3.12 26.59 14.46 52.75 34.09 71.29 17.04 16.5 39.78 26.93 63.35 29.41 24.67 2.67 50.55-1.87 71.74-15.16 15.17-9.36 28.02-21.87 40.36-34.61l42.3 47.43c-17.33 18.47-36.63 35.5-58.78 47.98-29.83 16.6-64.92 21.33-98.61 19.04-30.02-2-59.79-11.58-84.3-29.24-28.72-20.54-50.81-50.19-62.37-83.55-8.24-23.62-11.67-48.77-11.24-73.73-0.2-35.65 8.75-71.76 28.02-101.96 19.38-30.8 49.17-54.44 82.76-68.09z"/>
   <path id="e" d="m757.5 16.64c21.26-3.33 43.42-2.03 63.82 5.04 27.67 9.14 49.82 29.2 69.58 49.87-18.07 14.67-36.16 29.31-54.25 43.96-9.86-12.2-21.04-23.95-35.31-30.93-11.39-5.63-25.03-7.26-37.17-3.17-6.49 2.36-12.54 6.71-15.94 12.82-3.06 5.61-2.23 12.51 0.52 18.07 3 6.28 8.48 10.8 13.46 15.48 26.17 23.12 54.65 43.41 81.78 65.37 14.78 11.69 28.53 25.01 38.92 40.83 8.1 12.2 12.9 26.5 14.17 41.08 1.65 18.41-1.35 37.53-10.21 53.88-7.64 14.3-19.36 26.15-32.75 35.15-17.2 11.46-37.57 17.49-58.05 19.26-19.61 1.65-39.65 0.56-58.61-4.99-17.3-5.01-33.53-13.87-46.85-26.02-14.07-12.58-25.15-28.15-34.23-44.62l61.56-34.09c8.56 14.29 18.95 28.03 33.04 37.27 10.81 7.22 24.15 10.59 37.09 9.05 12.76-1.19 25.3-7.45 32.87-17.97 4.59-6.41 5.87-14.86 3.71-22.41-3.09-11.44-11.65-20.26-20.28-27.89-16.47-14.72-34.74-27.22-52.01-40.96-14.99-11.92-29.91-24.02-43.41-37.64-12.95-12.37-24.02-27.14-30.07-44.13-5.8-15.92-5.82-33.76-0.63-49.84 5.23-16.12 16.16-29.89 29.3-40.36 14.28-11.67 31.78-19.17 49.95-22.11z"/>
   <path id="f" d="m1127 23.24 42.23 0.01c-0.17 6.85 0.68 13.93-1.41 20.57-2.52 7.34-10.2 11.69-17.68 12.06-8.18 0.84-17.88-2.26-21.45-10.27-2.61-7.14-1.43-14.92-1.69-22.37m4.24 4.01c0.29 6.38-0.89 13.77 3.32 19.16 6.63 7.49 20.12 7.2 26.66-0.28 4.28-5.28 3.43-12.53 3.79-18.88z"/>
   <path id="g" d="m335.18 375.24 127.42-351.49h64.01l127.02 351.49h-65.66l-25.87-72.48h-134.37l-26.89 72.48zm159.65-257.52-43.97 119.78h87.94z"/>
   <path id="h" d="m913.51 375.24v-351.49h182.24v65.75h-118.98v63.25h118.98v64.49h-118.98v92h118.98v66z"/>
   <path id="i" d="m1127 61.49 42.23 0.02v22.48l-4.25 0.01-0.01-18.24h-12.98l-0.02 18-4.23-0.01-0.01-17.99-16.23-0.01-0.03 18h-4.48z"/>
   <path id="j" d="m1126 103.05c-0.23-6.08 3.93-11.25 9.07-14.03l2.27 4.06c-3.33 2.32-7.36 5.32-6.87 9.91-0.28 4.78 5.02 9.66 9.64 7.05 5.93-3.69 8.49-10.69 13.44-15.4 2.99-2.74 7.7-3.54 11.31-1.54 4.88 2.47 6.35 8.85 4.94 13.81-0.9 3.58-3.82 6.07-6.49 8.39l-2.79-4.01c2.3-1.9 4.78-4.14 5.17-7.29 0.61-3.28-2-7.66-5.72-6.91-4.06 0.53-6.06 4.58-8.24 7.54-3.34 4.83-7.23 10.69-13.64 11.29-6.88 0.5-12.33-6.32-12.09-12.87z"/>
   <path id="k" d="m1127 125.75 42.23 0.01 0.01 4.23-42.25 0.01z"/>
   <path id="l" d="m1140.3 139.25c8.83-3.13 19.65-0.65 25.56 6.82 7.51 9.16 5.06 23.72-3.86 31.08l-3.2-3.22c3.06-3.06 5.72-6.71 6.63-11.02 2-7.77-2.86-16.27-10.17-19.22-5.67-2.5-12.55-1.66-17.55 1.95-6.9 4.64-9.72 14.78-5.37 22.05 2.29 3.93 6.45 6.4 10.89 7.11l0.14-12.44 4.12 0.19-0.01 16.78c-5.8 0.01-11.94-1.48-16.13-5.72-5.48-5.23-6.41-13.7-4.38-20.69 1.81-6.42 7.14-11.45 13.33-13.67z"/>
   <path id="m" d="m1127 186.49 42.74 0.21-32.41 26.29 31.91 0.02v3.98l-42.56-0.04 31.64-26.19h-31.33z"/>
   <path id="n" d="m1113.8 228.01 68.25-0.01-0.01 4.25-68.23-0.01z"/>
   <path id="o" d="m1126.2 248.76 43.74-0.01 0.01 8.75-43.76-0.01z"/>
   <path id="p" d="m1162 265.24h7.98l0.01 21.76-43.76-0.01v-8.98l35.76-0.01z"/>
   <path id="q" d="m1126.2 297.25 43.74-0.01v9.01l-43.74-0.01z"/>
   <path id="r" d="m1126.2 314.01h8.52v8.23h35.23l-0.01 9.27h-35.22l-0.02 7.99h-8.48z"/>
   <path id="s" d="m1151 347.97c4.33-3.8 11.62-3.77 15.75 0.33 4.76 4.41 5.22 11.82 3.32 17.68-1.41 4.09-4.87 6.96-8.47 9.11-1.51-2.56-2.97-5.15-4.39-7.75 2.05-1.58 4.42-3.12 5.41-5.64 1.13-2.74-0.04-6.41-2.92-7.49-4.29 0.42-6.44 4.59-8.92 7.55-3.64 4.55-7.44 10.26-13.74 10.99-6.39 0.54-11.47-5.57-11.73-11.59-0.73-6.01 2.69-11.46 7.06-15.25 1.88 2.23 3.76 4.47 5.63 6.72-2.05 2.03-4.64 4.23-4.52 7.41-0.38 2.38 2.61 4.58 4.59 2.83 4.8-4.52 7.91-10.58 12.93-14.9z"/>
  </g>
 </g>
</svg>
