<?xml version="1.0" encoding="UTF-8"?>
<svg id="svg17" width="312.48pt" height="271.03pt" version="1.1" viewBox="0 0 312.48 271.03" xmlns="http://www.w3.org/2000/svg" xmlns:cc="http://creativecommons.org/ns#" xmlns:dc="http://purl.org/dc/elements/1.1/" xmlns:rdf="http://www.w3.org/1999/02/22-rdf-syntax-ns#">
 <metadata id="metadata23">
  <rdf:RDF>
   <cc:Work rdf:about="">
    <dc:format>image/svg+xml</dc:format>
    <dc:type rdf:resource="http://purl.org/dc/dcmitype/StillImage"/>
    <dc:title/>
   </cc:Work>
  </rdf:RDF>
 </metadata>
 <g id="#ffd402ff" transform="translate(-9.3897 -22)">
  <path id="path5" transform="scale(.75)" d="m165.35 29.334c-0.0133 1.7067-0.0257 3.4128-0.0391 5.1328-1.84 0-3.6659 3.38e-4 -5.5059 0.01367v4.373c1.84 0.01333 3.6795 0.01367 5.5195 0.01367 0 4.48 0.0134 8.9731 0.0801 13.453-2.1733 1.28-4.6812 2.5323-5.2012 5.2656-1.2 3.6533 2.227 6.3611 4.627 8.5078-1.52 9.04-2.4786 18.174-3.8652 27.24-4.3867 0-8.7751-0.0016-13.148 0.01172-0.04 9.6933 1e-3 19.401-0.0254 29.107-2.5867 0.0133-5.1868 6.8e-4 -7.7734 0.0273-0.0133 3.6133-0.014 7.2386-0.0273 10.865-20.573 6.6533-39.239 20.975-48.506 40.828-5.5333 11.24-7.1602 23.932-6.2402 36.332-2.64-0.0267-5.2679-0.0394-7.8945-0.0527-0.04 6.16 0.05487 12.334-0.0918 18.494-3.68-0.0533-7.3473-0.0664-11.027-0.0664-0.01333 11.347 0.02633 22.692-0.01367 34.039-2.16-3.1467-3.587-6.7995-6.3203-9.5195-4.0933-4.1867-9.6654-6.7476-15.412-7.6543-0.89333-4.28-1.5879-8.6133-1.5879-13 3.72-2.68 2.6941-7.5998-1.1992-9.4531-0.18667-3.24-0.18682-6.4788-0.16016-9.7188 1-0.0133 3-0.0534 4-0.0801 0-0.81333 0.01401-2.4542 0.02734-3.2676-0.98667 0.0133-2.9603 0.0273-3.9336 0.0273-0.04-0.94667-0.11982-2.8404-0.14648-3.7871h-2.9609c-0.04 0.94666-0.09281 2.8408-0.13281 3.8008-1.04-0.0133-3.1342-0.0414-4.1875-0.0547 0.01333 0.82667 0.04102 2.48 0.04102 3.3066 1.0667 0.0133 3.1732 0.041 4.2266 0.041 0.02667 3.24 0.01224 6.4667-0.12109 9.6934-4.5867 1.48-5.1584 7.1586-1.3984 9.9453-0.94667 4-0.69443 8.3745-2.1211 12.201-7.7467 1.6267-15.452 5.5861-19.412 12.746-3.56 5.28-2.7745 11.868-2.8145 17.881-0.04 38.173 0.09326 76.346-0.08008 114.52h257.63c-0.0739-45.746-0.028-91.945-0.0391-131.11 9.8 0.0267 19.598-0.026 29.398 0.0273-0.16-5.76-0.18633-11.533 0.0137-17.293l-49.026-19.017v-14.33c1.32-9.7733-0.44052-19.719-3.6405-28.973-8.1867-22.253-27.879-39.306-50.359-46.133-0.0667-3.7467-0.0817-7.4939-0.0684-11.254-2.56-0.0133-5.1197-3.4e-4 -7.6797-0.0137-0.10666-9.52 0.13326-19.066-0.0801-28.586-4.0267-1.2667-9.0001-0.15961-13.387-0.59961-1.3067-9.2667-3.5727-18.387-4.666-27.693 2.3733-1.5067 4.814-3.7879 4.334-6.8945 0.30666-3.2267-2.7468-4.9863-5.1602-6.293-0.04-4.5067-0.014-9.0129-0.0273-13.52 1.8133 0.04 3.6401 0.07948 5.4668 0.13281 0.0667-1.56 0.0661-3.106 0.0527-4.666-1.84 0.05333-3.6792 0.09281-5.5059 0.13281-0.0133-1.7067-0.0137-3.4261-0.0137-5.1328z" fill="#ffd402" stroke-width="1.3333"/>
 </g>
 <g id="#0b5388ff" transform="translate(-9.3897 -22)" fill="#0b5388">
  <path id="path10" d="m119.35 156.58h105.28v25.06h-40.41v111.3h-24.635v-111.3h-40.23z"/>
  <path id="path12" d="m295.84 156.98h26.03l-119.29 135.76v-98.15h22.085v42.83z"/>
  <path id="path14" d="m72.65 218.69c8.07-12.21 20.99-21.45 35.52-24.01 7.53-1.46 15.22-0.74 22.83-0.9v25.63c-7.64 0.43-15.66-1.21-22.97 1.73-8.87 3.55-16.26 12.01-16.42 21.88-0.84 11.68 8.19 24.08 20.3 24.72 9.17 0.12 18.335-0.01 27.505 0.04v25.17c-9.78 0.03-19.575 0.2-29.345-0.08-19.38-0.29-36.74-14.67-42.38-32.9-4.19-13.6-2.88-29.21 4.96-41.28z"/>
 </g>
</svg>
