<svg id="a" width="532.13pt" height="226.46pt" version="1.1" viewBox="0 0 532.13 226.46" xmlns="http://www.w3.org/2000/svg">
 <path id="b" d="m166.14 2.6188c1.2-3.46 6.7-3.53 7.81 0.02 0.77 5.03 0.22 10.17 0.36 15.24l-0.03 1.09c3.05 0 6.11 0.01 9.16 0 2.7 0.06 5.43-0.23 8.1 0.26 2.12 0.69 2.97 3.03 2.94 5.08-0.99 1.1-1.78 2.81-3.48 2.87-5.54 0.39-11.12 0-16.67 0.13 0.02 12.07 0.01 24.14 0.02 36.2 1.85 0.81 3.7 1.63 5.57 2.4 33.94 15.4 68.02 30.47 101.98 45.82 1.36 0.61 2.79 1.16 4.31 1.09 80.38-0.01 160.76-0.03 241.13 0.01 2.39-0.26 4.3 1.64 4.79 3.86-0.29 2.5-2.15 4.8-4.87 4.45-80.69 0.06-161.39-0.01-242.09 0.04-3.46 0.12-6.47-1.82-9.54-3.12-35.09-15.78-70.22-31.47-105.32-47.24-29.86 16.39-59.76 32.7-89.63 49.07-2.53 1.62-5.61 1.28-8.46 1.31-22.31-0.16-44.62 0.13-66.93-0.14-3.04-0.75-4.13-5.17-1.66-7.16 1.17-1.24 2.98-1.03 4.51-1.11 22.05 0.05 44.1 0 66.14 0.03 2.74 0.09 4.93-1.82 7.27-2.95 28.1-15.36 56.14-30.82 84.3-46.07 0.15-12.16 0.01-24.32 0.09-36.49-3.99 0.01-7.97 0-11.96 0-2.6-0.17-6.2 0.81-7.72-2.02-1.62-2.42 0.29-6.07 3.16-6.22 5.48-0.26 10.97-0.04 16.46-0.05 0.23-5.46-0.32-10.96 0.26-16.4z" fill="#1a4383"/>
 <path id="c" d="m162.73 103.98c5.33-5.51 15.21-2.33 17.11 4.88 0.41 3.82-0.54 8.06-3.8 10.43-2.58 2.26-6.18 2.28-9.39 1.92-6.96-2.36-9.62-12.2-3.92-17.23z" fill="#1a4383"/>
 <path id="d" d="m20.945 145.19c8.6-3.61 18.51-3.5 27.34-0.76 6.54 1.99 11.85 7 14.51 13.26 0.65 2.53 1.64 5.07 1.5 7.72-0.75 2.03-3.05 2.51-4.8 3.32-2-0.12-4.48 0.12-5.93-1.57-0.88-1.52-0.98-3.34-1.54-4.97-1.68-5.46-6.34-9.84-11.93-11.06-6.23-1.23-13.06 0.11-18.07 4.1-5.74 4.44-8.84 11.48-10.03 18.48-1.44 8.84-1.06 18.08 1.62 26.65 2.1 6.32 5.91 12.64 12.11 15.63 8.21 4 19.99 2.21 24.94-6.04 2.4-3.57 2.43-7.98 3.12-12.07 2.05-4.83 10.66-3.74 11.19 1.67-0.46 7.36-2.88 15.1-8.71 19.97-6.34 5.33-14.99 6.66-23.02 6.66-5.05 0.09-10.01-1.16-14.61-3.16-8.45-4.57-14.26-13.02-16.56-22.23-2.51-10.14-2.83-20.92-0.48-31.12 2.43-10.44 9.33-20.18 19.35-24.48z" fill="#1a4383"/>
 <path id="e" d="m81.625 146.6c0.38-6.02 11.38-5.32 11.12 0.69 0.01 9.91-0.04 19.82-0.01 29.74v0.4c13.8-0.15 27.59-0.06 41.38-0.08-0.01-9.94 0-19.89-0.02-29.83-0.95-6.42 10.46-6.8 11.23-1.04-0.03 25.03 0.1 50.07-0.07 75.09 0.14 3.29-3.26 4.75-6.04 4.86-2.52-0.31-5.32-2.01-5.07-4.89-0.11-10.1 0.05-20.2-0.08-30.3 0.04-1.88 0.05-3.76 0.07-5.64-13.8-0.05-27.59 0.14-41.38-0.11-0.11 11.97 0.09 23.94-0.07 35.91 0.09 3.66-4.02 5.45-7.16 4.78-2.46-0.7-4.28-3.06-3.97-5.66 0.04-24.64-0.08-49.28 0.07-73.92z" fill="#1a4383"/>
 <path id="f" d="m164.26 147.41c-0.16-6.02 10.04-6.55 11.12-0.89 0.02 25.02 0.09 50.06-0.04 75.09 0.19 2.96-2.76 4.39-5.22 4.85-2.67-0.17-6.04-1.64-5.87-4.82 0.09-24.74-0.04-49.49 0.01-74.23z" fill="#1a4383"/>
 <path id="g" d="m274.78 150.1c7.39-6.67 17.92-7.96 27.49-7.62 9.37 0.2 18.96 3.98 24.76 11.58 1.61 2.84 3.3 6.08 2.66 9.45-1.09 3.4-5.07 4-8.13 3.51-3.94-1.25-2.97-5.97-5.07-8.72-2.56-4.28-7.54-6.4-12.25-7.23-6.72-0.93-14.08-0.24-19.82 3.65-6.41 4-4.77 14.76 1.46 18.11 11.73 6.88 25.77 8.53 37.5 15.46 2.47 1.53 4.61 3.62 6.15 6.09 3.7 6.63 2.99 15.56-2.29 21.14-5.8 6.14-14.09 9.56-22.4 10.45-10.08 0.67-20.92-0.33-29.48-6.17-5.78-4.24-9.45-11.18-9.56-18.36 1.38-5.25 10.4-4.95 10.96 0.68 0.55 6.3 4.92 12.01 11.01 13.87 9.27 3.36 20.47 2.75 28.51-3.33 4.31-2.92 5.55-8.91 3.37-13.5-1.54-2.84-4.11-4.9-7.01-6.19-10.44-4.9-21.68-7.78-32.11-12.71-4.45-2.36-8.63-5.88-10.32-10.78-2.13-6.62-0.72-14.61 4.57-19.38z" fill="#1a4383"/>
 <path id="h" d="m372.62 143.78c4.87-3.1 12.27-0.69 13.97 4.96 8.05 22.32 16.23 44.61 24.4 66.9 0.75 2.45 2.28 4.9 1.92 7.54-1.36 3.16-5.36 3.4-8.29 2.79-1.36-0.93-2.22-2.36-2.71-3.9-1.98-5.49-3.98-10.97-5.99-16.45-0.8-2.15-1.6-4.31-2.4-6.46-10.67 0.04-21.34-0.01-32 0.01-2.89 7.69-5.63 15.44-8.6 23.1-0.73 2.29-2.98 3.41-5.11 4.08-2.72 0.21-6.73-1.45-5.84-4.8 8.71-23.73 17.61-47.39 26.31-71.12 0.91-2.49 1.87-5.29 4.34-6.65m4.97 11.87c-4.26 11.83-8.69 23.59-13.1 35.36 3.43 0 6.87-0.03 10.31 0.01 5.31-0.04 10.63-0.01 15.95-0.02-2.75-7.14-5.3-14.36-7.98-21.53-1.74-4.6-3.3-9.27-5.18-13.82z" fill="#1a4383"/>
 <path id="i" d="m197.79 147.17c3.91-2.67 8.85-2.87 13.42-2.94 12.69 0.05 25.38-0.05 38.07 0.04 2.41-0.11 4.73 1.23 5.68 3.49-0.27 2.48-2.2 4.63-4.82 4.56-11.63 0.24-23.27 0.04-34.9 0.07-3.07 0.09-6.29-0.34-9.22 0.77-1.75 0.72-1.33 2.83-1.48 4.34-0.01 7.12 0.04 14.25 0.01 21.37 3.24-0.02 6.47-0.03 9.71-0.02 11.01 0.07 22.02-0.08 33.03 0.06 2.72-0.13 5.05 2.07 5.09 4.81-1.2 1.71-2.87 3.37-5.13 3.24-14.23 0.15-28.47 0.03-42.71 0.04 0.09 8.53-0.1 17.06 0.05 25.59-0.17 1.62 0.87 2.96 2.48 3.25 14.69 0.74 29.49-0.22 44.2 0.45 3.16 0.29 4.81 4.01 2.88 6.55-4.67 2.27-9.96 1.18-14.94 1.4-12.27-0.19-24.57 0.43-36.83-0.37-4.64-0.71-9.01-4.35-8.9-9.34-0.16-19.02-0.02-38.05-0.07-57.07-0.12-3.83 1.09-8.03 4.38-10.29z" fill="#1a4383"/>
 <path id="j" d="m479.39 168.53c-1.42-3.02 2.02-5.6 4.82-4.96 2.66 0.11 3.54 2.94 4.3 5.01 5.12 14.97 10.58 29.81 15.76 44.76 0.84-2.43 1.67-4.87 2.51-7.3 4.71-13.38 9.2-26.83 14-40.18 1.55-4.34 10.02-2.45 8.2 2.44-6.09 17.48-12.35 34.91-18.54 52.36-0.89 3.54-4.4 5.67-7.95 5.15-2.19-0.9-3.7-2.79-4.35-5.02-6.21-17.43-12.57-34.82-18.75-52.26z" fill="#1a4383"/>
 <path id="k" d="m422.19 164.76c-1.27 0.13-2.8501-0.13912-3.8101 0.90088-0.72822 0.64688-1.0079 1.6338-0.92577 2.6016-0.0456 0.45065-7.5e-4 0.92152 0.15527 1.3975 0.12208 0.0828 0.24869 0.16527 0.37207 0.24903 0.48481 0.79665 1.2739 1.3673 2.2983 1.3711 2.74 0.25 5.5 0.15114 8.25 0.16113 0.31239-8e-3 0.62512-4e-3 0.9375-9e-3 1.6586-0.0113 3.3175-0.0261 4.9761-0.0366 0.44314 7.5e-4 0.88671 3.2e-4 1.3301 2e-3 1.0456-2e-3 2.0906-5e-3 3.1362 0.0117 0 16.707-0.01 33.405 0 50.102-0.36 1.92 1.0596 3.3498 2.5796 4.2598 0.59815 0.0819 1.2736 0.1 1.9512 0.0366 0.67703 0.0632 1.3505 0.0452 1.9482-0.0366 1.52-0.90999 2.9396-2.3398 2.5796-4.2598 0.01-16.697 1e-5 -33.395 0-50.102 1.0458-0.016 2.092-0.0138 3.1377-0.0117 0.44324-2e-3 0.88707-4.8e-4 1.3301-2e-3 1.6589 0.0105 3.3172 0.0254 4.9761 0.0366 0.31239 5e-3 0.62513 1e-3 0.9375 9e-3 2.75-0.01 5.51 0.0889 8.25-0.16113 1.024-4e-3 1.812-0.57354 2.2969-1.3696 0.12394-0.0841 0.2509-0.16735 0.37354-0.25049 0.15716-0.47898 0.2023-0.95298 0.15527-1.4062-1e-4 -7.5e-4 1e-4 -2e-3 0-3e-3 0.0788-0.96396-0.20051-1.9456-0.92579-2.5898-0.96-1.04-2.54-0.77088-3.81-0.90087-2.8327 0.0138-5.6658 0.0155-8.499 0.0161-4.1616-0.0136-8.3228-0.016-12.485-0.0103-0.17724-2.6e-4 -0.3545 2.4e-4 -0.53173 0-4.1621-6e-3 -8.3233-4e-3 -12.485 0.0103-2.8333-6.7e-4 -5.6664-2e-3 -8.499-0.0161z" fill="#1a4383"/>
</svg>
