<svg width="600pt" height="587.93pt" version="1.1" viewBox="0 0 600 587.93" xmlns="http://www.w3.org/2000/svg">
 <g stroke-width=".65563">
  <path d="m0 0.42944c42.262-0.0262 84.573-0.0262 126.83 0 0.0262 42.196 0.0131 84.399 0 126.6-42.268 0.0197-84.566-0.0262-126.83 0"/>
  <path d="m0 151.73c42.262-0.0262 84.573-0.0262 126.83 0 0.0262 42.196 0.0131 84.399 0 126.6-42.268 0.0197-84.566-0.0262-126.83 0"/>
  <path d="m0 303.08c42.262-0.0262 84.573-0.0262 126.83 0 0.0262 42.196 0.0131 84.399 0 126.6-42.268 0.0197-84.566-0.0262-126.83 0"/>
  <path d="m0 454.54c42.262-0.0262 84.573-0.0262 126.83 0 0.0262 42.196 0.0131 84.399 0 126.6-42.268 0.02-84.566-0.026-126.83 0"/>
  <path d="m155 70.746v-70.746h227.15v70.529c-31.611 65.453-66.869 132.79-94.227 189.07h50.956c18.099 0 31.12 4.5419 38.112 23.953 6.3668 18.805 5.5794 38.036 5.5794 61.269l92.981-344.83h105.53v424.82h18.918v60.059h-18.918v96.152l-70.421-0.039v-96.112h-128.84c0 17.339-2.0194 35.256-8.2347 51.608-17.968 41.371-62.532 51.439-105.31 51.439-44.927 0-82.606-11.151-101.81-46.744-8.4248-16.797-11.028-35.83-11.493-54.417v-77.692h70.776v50.811c0 19.258-0.43383 42.708 9.3622 57.217 9.3452 11.594 19.645 12.705 33.921 12.705 12.967 0 25.6-2.6299 33.614-13.1 11.327-16.767 9.6688-39.06 9.6688-56.821v-93.08c0-46.741-12.762-52.061-58.02-52.047h-43.075c-0.0524-17.859 0.0197-37.381-0.0262-55.24 29.937-62.955 60.007-125.85 90.031-188.77zm355.66 9.4083-79.174 344.66h79.174z"/>
 </g>
 <g fill="#fff" stroke-width=".65563">
  <path d="m107.23 28.847-16.66 16.699c-7.8846-6.2896-11.401-8.2668-20.533-8.2668-6.0072-0.08607-12.143 1.8351-16.563 5.9919-5.9466 5.3631-8.5691 13.584-8.5953 21.425 0.22291 7.5594 2.7536 15.506 8.7002 20.509 5.0918 4.1631 9.7073 5.3548 16.458 5.3548 8.5678 0 16.831-4.3123 22.695-9.5499l15.882 17.76c-10.335 10.693-24.092 14.931-38.576 14.931-13.751 0.04694-25.484-2.8622-35.236-10.617-12.043-10.885-16.712-22.741-16.712-38.387 0-16.342 6.831-31.647 18.965-40.702 9.2529-6.9044 18.979-10.253 32.984-10.253 14.005-1.3e-5 27.62 6.215 37.193 15.105z"/>
  <path d="m50.008 167.23h26.687v95.578h-26.687z"/>
  <path d="m18.656 414.16v-95.571h23.016l39.653 52.018v-52.018h26.723v95.571h-22.849l-39.469-51.198v51.198z"/>
  <path d="m25.146 470.03h74.407v22.872h-47.759v13.277h44.878v22.164h-44.878v14.388h49.762v22.908h-76.407z"/>
 </g>
</svg>
