<svg width="800" height="800" space="preserve" version="1.1" viewBox="0 0 800 800" xmlns="http://www.w3.org/2000/svg">
 <path d="m400 0a400 400 0 0 0-400 400 400 400 0 0 0 400 400 400 400 0 0 0 400-400 400 400 0 0 0-400-400zm178.63 119.51h101.76v409.88h18.326v57.848h-18.232v93.068h-67.582v-92.59h-124.66c-1.623 39.518-8.0172 57.366-22.908 72.352-17.659 17.468-50.209 26.633-86.1 26.633-75.977 0-110.15-30.929-110.15-101.66v-70.73h68.439v60.898c0 41.618 10.787 55.746 39.996 55.746 31.691 0 43.432-14.126 43.432-54.98v-92.4c0-56.032-1.2414-60.137-66.818-60.137h-30.832v-53.645l86.863-181.84h-141.18v-68.439l219.44 2e-3v68.439l-90.873 181.93c0.381 0 42.954 0.0957 43.336 0.0957 46.2-0.286 48.109 26.059 47.822 81.041zm-459.41 0.28711h122.66v122.37h-122.66zm64.717 12.982c-34.459 0-50.4 25.104-50.305 48.777 0.096 24.914 14.128 47.535 50.305 47.535 13.936 0 26.537-4.0101 36.941-14.414l-15.178-17.086c-6.586 6.7772-15.464 9.3555-21.764 9.3555-18.041 0-24.435-13.363-24.531-25.295-0.095-12.027 6.8722-26.441 24.531-26.441 6.3 0 13.173 1.6222 19.664 8.0176l16.035-15.846c-10.404-10.022-22.336-14.604-35.699-14.604zm428.11 64.24-76.076 332.37h76.076zm-492.83 68.822h122.66v122.47h-122.66zm48.395 15.178v91.922h25.869v-91.922zm-48.395 130.68h122.66v122.66h-122.66zm18.23 15.367 2e-3 91.922h26.344v-29.4l-0.47656-20.045 38.375 49.445h21.953v-91.922h-26.061v31.5c0.0955 3.628 0.0974 7.8296 0.76563 18.807l-38.852-50.307zm-18.23 130.77h122.66v122.47h-122.66zm24.531 15.271-2e-3 91.922h73.596v-21.953h-47.916v-13.936h43.432v-21.098h-43.527v-13.076h46.199v-21.859z" style="paint-order:stroke markers fill"/>
</svg>
