<?xml version="1.0" encoding="UTF-8"?>
<svg width="997.01pt" height="120.12pt" viewBox="0 0 997.01 120.12" xmlns="http://www.w3.org/2000/svg">
 <g transform="translate(-62.986 -89.9)" fill="#0e2c60">
  <path d="m181.24 93.63c8.45-1.33 16.87-3.04 25.4-3.73-9.32 33.18-18.72 66.33-28.04 99.51-.5 2.12-1.19 4.32-.8 6.52.42 1.75 2.41 1.04 3.37.27 3.91-2.73 6.91-6.52 9.96-10.14.63.37 1.89 1.1 2.53 1.46-4.73 6.16-9.88 12.51-17.07 15.87-3.07 1.35-7.56 1.96-9.83-1.12-2.29-3.56-.96-8.01-.16-11.83 7.93-28.22 16.02-56.4 23.92-84.63.41-2.81 1.87-6.46-.78-8.62-2.52-1.89-5.9-.65-8.75-.63.06-.73.18-2.19.25-2.93z"/>
  <path d="m83.21 116.3c13.96-14.07 33.68-23.74 53.85-21.86 6.53.44 12.51 3.51 18.96 4.31 4.34.46 5.45-5.7 9.86-4.68-2.56 11.29-5.28 22.54-7.91 33.81-.7 0-2.1.01-2.81.02.69-7.58.25-16.09-4.95-22.13-5.18-6.04-13.84-7.5-21.37-6.49-13.61 1.68-25.31 10.49-33.45 21.15-9.45 12.43-15.14 27.9-15.15 43.58-.05 8.19 2.42 16.58 7.84 22.84 7.95 9.27 21.2 13.2 33.04 10.71 11.12-2.29 20.75-9.59 27.07-18.87.83 0 2.5.01 3.33.01-6.69 11.85-18.12 20.97-31.31 24.47-13.12 3.61-27.98 1.85-39.21-6.08-11.3-7.81-18.2-21.41-18.01-35.12-.02-17.22 8.24-33.63 20.22-45.67z"/>
  <path d="m402.29 97.5 0.03-2.82c15.91 0.01 31.83 0 47.74 0.01v2.82c-4.29 0.14-9.18 0.11-12.51 3.23-2.74 2.62-3.03 6.66-3.1 10.23-0.03 10.53 0 21.06-0.01 31.59h52.31v-30.57c-0.06-3.75-0.09-8.01-2.81-10.93-3.35-3.44-8.53-3.42-13-3.55v-2.82c16.02-0.01 32.04 0 48.06 0v2.81c-4.2 0.2-8.98 0.16-12.28 3.18-2.8 2.63-3.1 6.73-3.15 10.33-0.01 25.34-0.01 50.69 0 76.03 0.07 3.51 0.53 7.55 3.4 9.97 3.39 2.67 7.95 2.54 12.03 2.72 0 0.73 0 2.18-0.01 2.9-16.01-0.01-32.03 0-48.05 0v-2.89c4.31-0.13 9.25-0.02 12.69-3.09 2.8-2.73 3.04-6.91 3.12-10.59 0.01-12.37-0.01-24.75 0-37.12h-52.31c0.01 12.68-0.03 25.35 0.02 38.02 0.08 3.53 0.58 7.55 3.46 9.96 3.42 2.7 8.02 2.62 12.14 2.82v2.89c-15.92-0.01-31.83 0-47.75-0.01 0-0.71 0-2.14-0.01-2.85 4.18-0.23 8.95-0.26 12.24-3.26 2.81-2.67 3.05-6.82 3.09-10.46-0.01-25.04 0-50.07-0.01-75.11 0-3.59-0.42-7.64-3.2-10.23-3.25-3-7.96-3.06-12.13-3.21z"/>
  <path d="m850.87 119.25c.25-8.19.49-16.38.76-24.56 31.37-.01 62.73 0 94.09-.01.25 8.23.53 16.45.77 24.68-.72-.05-2.16-.17-2.88-.22-.91-3.73-1.56-7.66-3.94-10.8-3.04-4.45-8.53-6.51-13.76-6.64-6.3-.18-12.61-.02-18.91-.07-.01 28.46.01 56.92-.01 85.37-.03 3.45.53 7.36 3.32 9.72 3.38 2.81 8.03 2.83 12.2 3.03-.01.72-.01 2.16-.01 2.87-15.7.04-31.41-.05-47.11.05.62-.93 1.22-1.88 1.79-2.84 3.75-.54 8.07-.98 10.62-4.17 2.79-3.59 2.31-8.43 2.39-12.71-.02-27.11 0-54.21-.01-81.32-6.4.02-12.79-.05-19.18.03-4.55.01-9.25 1.53-12.38 4.94-3.27 3.38-4.47 8.12-4.98 12.66-.93-.01-1.87-.01-2.77-.01z"/>
  <path d="m952.18 94.69c15.04-0.01 30.08 0 45.13 0-0.01 0.93-0.01 1.87 0.01 2.81-3.62 0.3-8.23-0.2-10.65 3.08-2.19 4.05-0.13 8.69 1.17 12.68 8.26 20.98 16.72 41.87 25.06 62.82 8.17-21.81 16.28-43.65 24.45-65.46 1.13-3.1 2.18-7.09-0.24-9.85-2.42-2.6-6.19-2.84-9.49-3.27v-2.81h32.38v2.75c-6.99 0.57-11.38 6.7-14.2 12.47-5.02 10.32-8.48 21.3-12.65 31.97-7.86 21.02-15.75 42.03-23.6 63.06-1.04-0.01-2.06-0.02-3.07-0.02-11.96-30.18-23.97-60.33-35.96-90.49-2.07-4.88-4-10.19-8.2-13.67-2.84-2.37-6.61-2.84-10.14-3.23v-2.84z"/>
  <path d="m757.04 119.4c.71-.01 1.42-.02 2.15-.04-.01 9.08.01 18.16-.02 27.24-.53-.08-1.61-.24-2.14-.32-1.06-6.04-3.32-12.08-7.84-16.39-4.86-4.97-12.62-7.49-19.28-4.85-4.84 1.77-8.68 6.69-8.05 12 .21 3.88 3.01 6.97 5.97 9.19 9.31 6.8 20.09 11.55 28.64 19.39 6.24 5.72 9.41 15.06 6.31 23.2-3.69 10.72-15.72 16.8-26.66 15.42-5.97-.26-11.36-3.14-17.17-4.09-3.63-.67-3.78 4.65-7.12 4.45-.04-9.28-.02-18.56-.01-27.84.51.09 1.51.27 2.02.36 1.48 5.61 3.26 11.4 7.28 15.77 5.62 6.5 15.55 8.73 23.44 5.41 4.48-1.85 7.86-6.36 7.77-11.31.06-4.52-2.47-8.65-5.81-11.51-8.19-7.16-18.24-11.68-26.93-18.14-5.68-4.17-8.79-11.4-8.2-18.39.38-6.46 4.13-12.54 9.63-15.92 7.04-4.46 16.17-4.57 23.82-1.64 2.62.91 5.15 2.36 8 2.37 2.33-.17 3.18-2.65 4.2-4.36z"/>
  <path d="m559.44 120.66c10.22-2.68 21.48-1.06 30.49 4.48 10.87 6.51 18.25 18.24 19.87 30.75 1.55 11.13-1.27 22.85-7.99 31.89-6.54 8.94-16.81 15.15-27.86 16.34-11.16 1.37-22.75-2.39-31.07-9.92-10.92-9.64-16.02-25.07-13.61-39.37 2.32-15.94 14.41-30.22 30.17-34.17m4.04 4.08c-6.41 1.6-11.57 6.45-14.61 12.18-4.91 9.12-5.92 19.82-5.31 30.01.67 9.47 3.26 19.46 10.09 26.43 6.04 6.24 15.86 8.05 23.9 4.97 6.67-2.49 11.43-8.42 14.1-14.84 3.83-9.27 4.45-19.57 3.43-29.46-1.01-8.69-3.81-17.72-10.27-23.94-5.49-5.44-13.93-7.31-21.33-5.35z"/>
  <path d="m618.43 121.19c13.54 0 27.09-.02 40.64 0 7.71-.04 15.74 3.01 20.54 9.24 5.2 6.55 5.58 16.68.34 23.32-4.01 5.23-10.35 7.85-16.51 9.58 7.48 9.25 14.73 18.7 22.31 27.89 3.87 4.71 9.08 8.4 15.2 9.34.09.51.26 1.54.34 2.05-7.05.04-14.09 0-21.14.02-10.13-12.71-20.19-25.49-30.32-38.2-2.54.01-5.06.01-7.58.01 0 8.53 0 17.07-.01 25.61 0 2.85.27 6.12 2.58 8.11 2.39 2.1 5.73 2.12 8.73 2.32.01.54.02 1.6.03 2.14-11.71.02-23.43 0-35.14.01 0-.54-.02-1.61-.02-2.14 2.99-.23 6.36-.25 8.72-2.39 2.24-2.01 2.35-5.26 2.42-8.05.01-18.68-.01-37.35 0-56.03-.05-2.85-.12-6.16-2.41-8.21-2.34-2.16-5.72-2.25-8.7-2.5-.01-.53-.02-1.59-.02-2.12m23.83 6.24c-.01 10.99-.02 21.98 0 32.96 7.47.11 15.78-.36 21.69-5.51 7.26-6.37 6.51-19.03-.78-25.09-5.65-5.06-14.22-5.53-20.91-2.36z"/>
  <path d="m773.21 121.2c21.26-.04 42.52 0 63.78-.02.13 6.23 1.11 12.47.58 18.68-2.6-.93-2.18-3.99-3.19-6.05-1.45-4.36-5.6-7.69-10.26-7.73-8.87-.2-17.75-.02-26.62-.08v31.31c6.82-.01 13.64.01 20.46 0 2.96.01 6.32-.54 8.31-2.98 2.11-2.45 2.17-5.86 2.47-8.9.52 0 1.56.01 2.08.01-.01 9.58 0 19.17 0 28.75-.53 0-1.58-.01-2.1-.01-.25-3.19-.28-6.78-2.56-9.29-2.04-2.27-5.27-2.7-8.15-2.74-6.84-.07-13.67 0-20.51-.02.04 9.96-.07 19.92.05 29.88-.09 2.39.88 5.53 3.72 5.68 4.56.3 9.14.04 13.72.12 5.54-.1 11.54.72 16.54-2.28 5.14-2.79 8-8.1 10.56-13.11.56-.03 1.69-.11 2.25-.14-.71 1.46-1.3 2.98-1.69 4.56-1.13 5.39-3.08 10.55-4.72 15.79-21.56 0-43.11-.01-64.66 0-.02-.54-.05-1.62-.06-2.16 3.04-.23 6.47-.11 8.97-2.17 2.4-1.97 2.58-5.37 2.63-8.24 0-19.04 0-38.08 0-57.12.02-2.59-.39-5.52-2.5-7.27-2.48-2.15-5.95-2.13-9.03-2.35-.02-.53-.06-1.59-.07-2.12z"/>
  <path d="m225.75 141.81c6.39-5.79 14.31-11.13 23.28-10.98 6.1.14 10.48 5.59 11.42 11.27.73-3.22 1.61-6.4 2.48-9.58 4.1-.58 8.2-1.17 12.31-1.74-5.62 20.05-11.28 40.08-16.9 60.13-.55 1.86-1.12 5.44 1.66 5.67 5.22-1.33 8.15-6.43 10.85-10.68.6.4 1.81 1.2 2.42 1.6-3.83 6.77-9.44 12.85-16.74 15.84-2.56.94-5.65 1.86-8.2.38-2.16-1.44-2.81-4.22-2.75-6.67.1-5.61 2.21-10.88 3.62-16.24-6.48 8.27-13.36 16.86-23.01 21.56-4.96 2.37-11.56 3.39-16.05-.47-6.2-5.33-7.01-14.38-5.68-21.96 2.52-14.63 10.58-27.99 21.29-38.13m18.76-7.18c-4.96 1.87-8.79 5.78-12.06 9.82-5.74 7.4-10.01 15.88-13.08 24.71-2.04 6.51-4.33 13.69-2 20.44 1.53 4.52 6.93 6.8 11.35 5.25 7.48-2.42 12.87-8.68 17.34-14.85 5.99-8.18 8.91-18.06 11.08-27.83.88-5.07 1.45-11.01-1.96-15.3-2.5-3.16-7.09-3.67-10.67-2.24z"/>
  <path d="m298.2 139.16c3.75-5.79 11-8.86 17.78-8.27 4.27.29 8.05 2.46 12.02 3.81 2.62.39 4.19-2.05 5.53-3.85.69-.02 2.05-.04 2.73-.05-1.39 7.98-2.79 15.96-4.2 23.94-.7.01-2.09.03-2.79.04-.19-6.31-1.23-13.42-6.23-17.83-4.2-3.85-11.69-3.8-15.22.92-2.81 3.46-1.75 8.31.12 11.95 4.89 9.31 13.15 16.63 16.73 26.68 2.38 6.57 1.07 14.29-3.43 19.65-5.43 6.82-14.89 9.51-23.28 7.9-3.37-.68-6.45-2.38-9.87-2.8-3.74-.66-5.19 4.46-9.06 3.37 1.43-8.44 3.01-16.87 4.49-25.3 1.04-.01 2.09-.02 3.13-.02.49 5.68 1.06 11.74 4.5 16.52 4.53 6.59 15.53 7.25 20.64 1.02 3.55-3.97 4.32-10.02 1.78-14.72-4.5-8.75-11.16-16.21-15.61-25-2.82-5.52-3.12-12.61.24-17.96z"/>
  <path d="m356.89 140.91c3.14-6.72 10.88-10.44 18.09-10.08 4.65.07 8.63 2.68 12.97 3.89 3.58.36 4.2-5 7.95-4.05-1.34 8.03-2.82 16.04-4.19 24.07-.7 0-2.11.02-2.82.02-.19-6.23-1.19-13.2-6.03-17.65-4.26-4.1-12.17-4.01-15.63 1.07-2.67 3.63-1.35 8.48.6 12.12 4.99 9.17 13.14 16.5 16.6 26.52 2.32 6.68.77 14.44-3.88 19.75-5.39 6.4-14.39 8.94-22.49 7.57-3.78-.63-7.2-2.74-11.06-2.92-2.23.01-3.71 1.86-5.18 3.25-.79.01-2.37.04-3.16.05 1.49-8.41 3-16.81 4.51-25.22 1.04 0 2.08.01 3.12.01.48 5.76 1.07 11.94 4.65 16.73 4.68 6.48 15.73 6.96 20.69.55 3.46-4.05 4.04-10.09 1.45-14.74-4.53-8.62-11.06-16.03-15.47-24.73-2.54-4.95-3.02-11.08-.72-16.21z"/>
 </g>
 <path transform="translate(-62.986 -89.9)" d="m844.34 182.28c2.74-4.64 7.27-8.34 12.64-9.35 6.76-1.49 14.18 1.33 18.31 6.87 4.37 5.6 5.06 13.7 1.89 20.03-.57.96-1.17 1.91-1.79 2.84-5 6.9-15.03 9.38-22.65 5.55-7.87-3.62-12.1-13.03-10.09-21.38.39-1.58.98-3.1 1.69-4.56z" fill="#4979bd"/>
</svg>
