<svg id="a" width="1145.6pt" height="427.88pt" version="1.1" viewBox="0 0 1145.6 427.88" xmlns="http://www.w3.org/2000/svg">
 <g id="b" transform="translate(-126.22 -86.86)" fill="#fe1614">
  <path id="c" d="m253.2 86.86h137.24l86.03 189.05 86.03-189.05h25.53l-111.56 246.28-103.86-226.33h-41.77v286.27h-21.13v-286.27h-56.505z"/>
  <path id="d" d="m127.35 293.08c11.86 3.2 22.77 9.06 34.39 12.96 5.47 1.83 10.94 3.68 16.18 6.11l-0.72 3.15c-9.49-2.76-19.23-5.27-29.19-5-4.08 0.12-8.53 0.3-11.93 2.83-3.74 2.85-6.12 7.32-6.66 11.97-0.71 6.05-0.53 12.5 2.4 18 7.79 15.75 21.68 27.28 35.43 37.7 7.57 5.97 16.01 10.68 24.19 15.73 8.23 4.75 16.8 8.9 25.64 12.38 12.74 5.27 26.16 9.26 39.97 10.2 5.81 0.43 11.67-0.2 17.31-1.63 7.62-1.85 14.64-6.88 18.25-13.92 1.53-2.84 1.88-6.16 1.43-9.32-0.72-5.78-1.81-11.61-4.2-16.95-5.32-11.58-13.77-21.62-23.97-29.2-3.81-2.84-7.68-5.58-11.51-8.39-0.01-0.71-0.04-2.12-0.05-2.83 3.82 2.03 7.56 4.25 11.08 6.78 7.93 5.52 15.65 11.62 21.46 19.42 4.98 6.75 9.14 14.22 11.41 22.33 1.69 6.06 1.65 12.41 1.61 18.64-0.05 7.7-1.68 15.55-5.69 22.2-2.84 4.64-6.29 8.98-10.56 12.38-7.96 6.56-18.3 9.94-28.55 10.01-5.47 0.07-10.98 0.13-16.4-0.66-10.56-1.78-21.05-4.4-30.78-8.98-12.62-5.13-24.17-12.61-34.71-21.18-16.52-14.11-30.8-31.29-39.54-51.31-3.93-9.02-6.85-18.61-7.26-28.49-0.16-5.03-0.49-10.19 0.79-15.11 1.37-5.06 5.14-8.95 7.22-13.69 1.28-2.77 0.95-6.2-0.86-8.66-1.58-1.91-3.8-3.09-5.85-4.41-0.12-1.02-0.23-2.04-0.33-3.06z"/>
  <path id="e" transform="scale(.75)" d="m1089.3 489.24c-231.3 7.707-396.28 15.58-605.33 73.387-104.25 35.212-213.8 62.195-298.89 123.69h105.33c92.992-48.626 182.73-74.295 272.11-97.439 149.73-32.357 304.71-56.382 456.23-61.602 145.52-9.1577 309.27-4.7956 442.65-2.6524 77.912 4.5428 160.13 10.032 234.3 14.947v-5.5352c-137.13-21.201-235.01-28.639-380.9-39.439-39.38-2.4864-78.748-3.0489-114.93-4.373 0.033 0.0221 0.067 0.0424 0.1 0.0645-38.91-0.29155-75.322-2.0064-110.66-1.0508z" stroke-width="1.3333"/>
 </g>
 <g id="f" transform="translate(-126.22 -86.86)">
  <path id="g" d="m194.25 87.1c6.59 2.15 12.89 5.09 19.48 7.24 4.99 1.65 9.93 3.41 14.83 5.3-0.08 0.43-0.25 1.28-0.34 1.71-6.72-1.52-13.64-2.56-20.54-2-2.21 0.19-4.5 0.67-6.26 2.11-4.87 3.86-5.99 11.25-3.56 16.76 2.52 4.94 8.15 7.35 13.37 8.2 12.1 1.33 23.68-3.32 34.82-7.38 12.11-4.4 26.19-4.85 37.84 1.12 11.27 5.81 18.03 19.3 15.29 31.79-1.16 4.13-4.85 6.72-7.19 10.12-1.5 1.81-1.16 4.68 0.36 6.36 1.73 1.56 3.93 2.44 5.99 3.5 0.08 0.48 0.25 1.44 0.33 1.92-10.51-3.81-21.11-7.38-31.68-11.03-2.22-0.76-4.26-1.92-6.21-3.2 9.77 0.6 20.19 2.8 29.44-1.57 7.26-3.63 8.51-14.58 2.93-20.2-4.14-4.27-10.37-5.68-16.14-5.47-10.4 0.28-20.05 4.57-29.86 7.55-9.05 2.73-18.67 3.49-28.04 2.36-7.4-0.9-14.49-4.36-19.6-9.82-3.39-3.71-4.96-8.7-5.78-13.56-0.64-4.57-0.66-9.44 1.23-13.73 1.79-3.71 5.06-6.37 7.79-9.36-2.05-2.83-4.77-5.04-7.8-6.73-0.18-0.5-0.53-1.49-0.7-1.99z"/>
  <path id="h" d="m194.83 140.43c11.24 4.95 23.12 8.31 34.34 13.3-8.47 0.04-17.2-3.05-25.45-0.03-8.77 3.49-9.83 17.45-1.93 22.43 6.49 4.37 14.77 4.03 22.16 2.85 11.35-1.84 21.59-7.78 33-9.28 9.69-1.02 20.13-0.39 28.67 4.74 7.36 4.75 13.37 12.52 14 21.5 0.21 3.43 0.53 7.04-0.62 10.34-1.83 3.91-5.69 6.36-7.78 10.1-0.86 1.49-0.3 3.32 0.41 4.75 2.27 2.2 5.17 3.58 7.58 5.63-3.1-0.56-6.11-1.48-8.99-2.75-9.58-4.17-20.03-6.02-29.41-10.69 8.47 0.17 17.12 2.13 25.44-0.39 5.8-1.38 11.03-6.67 10.47-12.95 0.34-5.63-3.75-10.67-8.82-12.65-4.96-1.93-10.46-2.18-15.67-1.28-8.04 1.42-15.75 4.19-23.51 6.66-8.81 2.77-18.16 4.52-27.41 3.26-6.05-0.84-12.31-2.25-17.24-6.05-4.73-3.7-8.64-8.77-9.98-14.71-1-4.57-1.09-9.33-0.38-13.94 0.45-3.41 2.95-5.94 5.3-8.21 1.25-1.46 3.3-2.76 3.18-4.92-1.93-2.65-4.97-4.11-7.71-5.77 0.12-0.64 0.23-1.29 0.35-1.94z"/>
  <path id="i" d="m359.39 184.39h32.18l84.9 184.09 84.91-184.09h32.28l0.01 208.28h-30.72l-0.42-155.94-70.98 155.94h-28.46l-72.53-155.94-0.33 155.94h-30.84z"/>
  <path id="j" d="m993.7 186.74h20.64l-0.17 202h-20.82l0.23-24.765c-2.5 2.31-4.98 4.65-7.46 6.97-9.66 9.56-22.52 15.1-35.34 18.99-10.05 2.45-20.49 2.97-30.78 2.26-12.343-1.3314-14.877-2.2004-27.64-6.57-10.36-4.53-19.65-11.25-27.72-19.12-10.9-11.56-18.92-26.49-20.17-42.52-2-16.47 1.67-33.7 11.06-47.46 13.54-19.63 35.39-33.63 59.17-36.55 10.89-1.27 22.01-1.16 32.8 0.88 13.63 2.86 26.59 9.28 36.79 18.81 3.22 3 6.16 6.3 9.21 9.48l0.2-82.405m-82.31 72.975c-18.05 4.84-34.28 17.68-41.5 35.14-4.85 10.91-5.6 23.49-2.59 35.01 4.1 13.95 13.37 26.32 25.49 34.33 2.22 1.41 4.5 2.94 7.13 3.47 6.5 4.37 14.4 6.06 22.09 6.73 12.16 0.56 25 0.53 36.12-5.08 4.96-1.56 9.26-4.63 13.54-7.49 9.97-6.7 17.33-17.04 20.76-28.51 2.38-6.87 2.47-14.23 2.21-21.41-0.3-13.38-6.92-25.98-16.14-35.43-5.66-6.04-12.94-10.25-20.36-13.75-5.31-2.5-11.1-3.86-16.91-4.51-9.93-1.32-20.1-0.82-29.84 1.5z"/>
  <path id="k" d="m196.07 229.05c3.13-7.57 11.05-12.47 19.12-12.71 5.11-0.23 9.96 1.69 14.63 3.54 6.8 2.76 13.8 5.01 20.52 7.97 5.78 2.56 11.85 4.4 17.62 6.98 5.12 2.26 10.46 3.94 15.74 5.78 2.66 0.87 5.37 1.83 8.21 1.88 0.26-0.37 0.77-1.1 1.03-1.46-0.57-3.95-3.65-6.9-6.73-9.12-5.43-3.68-11.45-6.39-17.53-8.77-2.47-0.97-4.78-2.28-6.92-3.84 5.09 0.69 9.92 2.55 14.64 4.52 6 2.54 11.88 5.66 16.73 10.08 2.6 2.43 5.06 5.43 5.49 9.09 0.57 4.33 0.3 9.33-3.08 12.52-2.66 2.93-6.9 2.78-10.52 3.11 5.65 4.8 11.36 10.33 13.48 17.67 2.18 8.36 0.26 18.06-5.9 24.32-2.83 2.98-6.45 5.5-10.65 5.94-9.01 1.18-17.96-2.23-25.29-7.27-7.83-5.6-13.11-13.98-17.17-22.56-3.92-8.78-7.85-17.55-12.27-26.09-3.31-6.27-7-12.69-12.87-16.91-3.28-2.21-7.28-3.91-11.3-3.3-3.24 0.66-5.12 3.83-5.84 6.82-1.46 6-0.43 12.57 2.65 17.9 1.41 2.31 3.32 4.7 6.11 5.29 5.51 0.92 11.19-1.95 16.58 0.17 4.75 1.49 6.45 7.93 3.96 11.94-2.54 2.97-7.1 2.49-10.43 1.36-4.77-1.85-9.26-4.52-13.06-7.95-9.42-9.45-12-24.67-6.95-36.9m24.92 6.31c6.65 8.69 12.46 17.99 18.93 26.82 6.03 7.3 12.8 14.27 21.16 18.91 6.86 4.13 14.84 6.95 22.94 6.19 4.1-0.35 8.5-2.98 9.19-7.32 0.72-5.42-1.82-10.82-5.6-14.6-5.16-5.24-11.92-8.42-18.53-11.42-15.63-7.2-32.43-11.46-48.09-18.58z"/>
  <path id="l" d="m670.44 255.39c13.29-10.12 29.9-15.31 46.48-16.07 11.64-0.45 23.55-0.05 34.69 3.69 11.5 3.34 22.31 9.11 31.25 17.11 8.32 7.49 15.69 16.34 20.13 26.7 2.95 7.03 5.31 14.44 5.72 22.1 0.48 8.31 0.22 16.76-1.81 24.87-3.19 12.97-10.62 24.59-19.82 34.13-9.16 8.94-20.15 16.12-32.44 19.89-14.66 4.43-30.27 5.64-45.47 3.87-15.76-2.08-31.26-8.12-43.32-18.65-3.27-2.66-6.42-5.47-9.14-8.69-7.65-9.16-14.16-19.65-16.73-31.43-2.48-11.71-2.36-23.98 0.45-35.61 4.59-16.97 15.79-31.76 30.01-41.91m24.15 8.42c-10.06 4.93-18.94 12.31-25.38 21.49-8.64 11.81-11.52 27.34-8.8 41.61 2.19 8.67 5.58 17.28 11.39 24.21 5.01 6.35 11.48 11.43 18.43 15.49 3 1.64 6.09 3.33 9.51 3.88 10.82 4.21 22.75 4.64 34.18 3.37 5.66-0.7 11.43-1.83 16.28-5.02 3.05-0.18 5.72-1.88 8.34-3.31 12.33-6.89 22.02-18.51 26.27-32 5.11-14.67 3.31-31.51-4.63-44.83-4.99-8.37-12.19-15.23-20.25-20.6-11.06-7.53-24.67-10.72-37.94-10.43-9.43 0.09-18.86 2.12-27.4 6.14z"/>
  <path id="m" d="m1115.2 242.99c11.18-3.72 23.13-4.19 34.8-3.61 16.55 0.97 32.98 7.04 45.57 17.94 4.28 3.59 8.12 7.66 11.98 11.69l0.08-25.955h20.97v145.7h-20.93l-0.37-24.2c-6.74 6.29-13.71 12.5-21.84 16.95-3.83 2.07-7.68 4.12-11.75 5.67-19.52 6.47-41.06 7.12-60.7 0.8-6.75-2.13-13.01-5.49-19.13-8.97-3.22-2.01-6.1-4.49-9.01-6.9-12.43-10.07-21.5-24.29-25.12-39.9-1.83-7.24-1.66-14.77-1.49-22.18 0.19-6.71 1.53-13.4 4.08-19.62 3.51-8.27 7.95-16.26 14.19-22.8 10.34-11.51 23.84-20.17 38.67-24.62m-10.06 26.18c-10.86 7.21-19.09 18.18-23.24 30.52-4.42 14.07-2.89 30.01 4.69 42.74 10.87 20.18 33.62 32.83 56.41 32.47 8.92 0.21 17.93-1.05 26.24-4.39 6.4-2.63 13.01-5.29 18.21-10 2.14-1.92 4.25-3.87 6.46-5.71 7.43-7.9 12.74-17.96 14.15-28.78 1.31-10.14 0.75-20.73-2.9-30.36-5.66-13.58-16.41-24.82-29.57-31.34-9.36-5.06-20.13-6.62-30.63-6.82-13.99-0.04-28.46 3.15-39.82 11.67z"/>
  <path id="n" d="m174.93 276.1c7.65 3.79 16.01 5.76 23.75 9.35 6.97 3.21 14.38 5.32 21.44 8.32 7.72 3.3 15.74 5.81 23.53 8.93 10.48 4.26 21.23 7.83 31.7 12.11 5.91 2.12 11.85 5.84 18.37 4.15 0.39-2.92 0.69-5.84 0.86-8.78 0.63 0.01 1.87 0.01 2.49 0.02 0.36 7.59 0.16 15.2 0.19 22.8 0.01 6.26 0.19 12.53-0.33 18.77-0.53-0.13-1.59-0.41-2.12-0.54-0.3-2.63-0.4-5.32-1.25-7.85-0.71-2.06-2.77-3.18-4.56-4.18-11.34-5.43-23.43-9.01-34.95-14-15.89-6.34-32.05-11.98-47.99-18.21-9.12-3.12-17.9-7.15-27.19-9.75-1.1 3.26-1.56 6.67-1.78 10.1-1.29-0.8-2.72-1.73-2.48-3.47 0.01-9.25-0.03-18.52 0.32-27.77z"/>
 </g>
</svg>
