<?xml version="1.0" encoding="UTF-8"?>
<!-- Created with Inkscape (http://www.inkscape.org/) -->
<svg id="svg4553" width="211.67mm" height="31.746mm" version="1.1" viewBox="0 0 211.67 31.746" xmlns="http://www.w3.org/2000/svg" xmlns:cc="http://creativecommons.org/ns#" xmlns:dc="http://purl.org/dc/elements/1.1/" xmlns:rdf="http://www.w3.org/1999/02/22-rdf-syntax-ns#">
 <metadata id="metadata4550">
  <rdf:RDF>
   <cc:Work rdf:about="">
    <dc:format>image/svg+xml</dc:format>
    <dc:type rdf:resource="http://purl.org/dc/dcmitype/StillImage"/>
    <dc:title/>
   </cc:Work>
  </rdf:RDF>
 </metadata>
 <g id="layer1" transform="translate(82.817 -126.96)" stroke="#000">
  <g id="g18" transform="matrix(1.6082 0 0 1.6082 -529.62 -178.1)">
   <path id="path2" d="m297.4 197.82q0 3.1585-1.3253 5.5986-1.3129 2.4401-3.7035 3.7035-2.3782 1.251-5.6357 1.251h-8.2864l3.753-17.762h7.0725q4.0131 0 6.0692 1.8951t2.0561 5.3137zm-5.6853 0.40874q0-1.7217-0.9042-2.5763-0.90419-0.85465-2.7745-0.85465h-1.3749l-1.9694 9.3887h1.796q2.4525 0 3.8397-1.5978 1.3873-1.6102 1.3873-4.3599z"/>
   <path id="path4" d="m303.49 208.37h-5.3508l3.753-17.762h5.3508z"/>
   <path id="path6" d="m324.1 195.97q0 2.0066-1.0157 3.5672-1.0033 1.5607-2.7993 2.341-1.796 0.78033-4.2237 0.78033h-2.5392l-1.1891 5.71h-5.3508l3.753-17.762h7.1716q2.9975 0 4.5953 1.3872 1.5978 1.3749 1.5978 3.976zm-5.6853 0.37159q0-0.91658-0.56976-1.3996-0.56977-0.49545-1.635-0.49545h-0.94135l-0.90419 4.3847h1.4987q1.1519 0 1.8456-0.69362 0.70601-0.70602 0.70601-1.796z"/>
   <path id="path8" d="m340.85 195.21q0 2.019-1.3996 3.4558-1.3872 1.4368-3.7035 1.8455v0.0495q1.9446 0.71839 2.4648 3.1709l0.9909 4.6448h-5.6853l-0.65646-3.9512q-0.19818-1.1148-0.73079-1.6969-0.52022-0.59454-1.5359-0.59454h-0.0495l-1.3129 6.2426h-5.3508l3.753-17.762h6.9734q2.9479 0 4.5953 1.2015 1.6474 1.2015 1.6474 3.3938zm-5.71 0.99089q0-0.8918-0.49545-1.3872-0.48306-0.49545-1.4616-0.49545h-0.95374l-0.91658 4.0627h1.1891q1.2015 0 1.9199-0.63169 0.7184-0.6317 0.7184-1.5483z"/>
   <path id="path10" d="m355.09 194.8h-5.71l-0.53261 2.5887h5.3508l-0.87942 4.1865h-5.3508l-0.55738 2.6135h6.1064l-0.89181 4.1865h-11.457l3.753-17.762h11.061z"/>
   <path id="path12" d="m361.66 195.69h-3.0718l1.5235-5.4995h4.0379z"/>
   <path id="path14" d="m388.16 194.8h-5.0288l-2.8612 13.575h-5.3756l2.8612-13.575h-4.9669l0.87942-4.1865h15.371z"/>
   <path id="path16" d="m397.84 208.37h-6.0073l-1.9818-17.762h5.4747l0.60692 11.631q0 0.68124-0.0991 1.2882h0.12386q0.0991-0.33443 0.24773-0.73078 0.16102-0.40875 5.3384-12.188h5.8587z"/>
  </g>
  <g id="g36" transform="matrix(1.6082 0 0 1.6082 -527.68 -177.21)" fill="#faff31">
   <path id="path20" d="m297.4 197.82q0 3.1585-1.3253 5.5986-1.3129 2.4401-3.7035 3.7035-2.3782 1.251-5.6357 1.251h-8.2864l3.753-17.762h7.0725q4.0131 0 6.0692 1.8951t2.0561 5.3137zm-5.6853 0.40874q0-1.7217-0.9042-2.5763-0.90419-0.85465-2.7745-0.85465h-1.3749l-1.9694 9.3887h1.796q2.4525 0 3.8397-1.5978 1.3873-1.6102 1.3873-4.3599z"/>
   <path id="path22" d="m303.49 208.37h-5.3508l3.753-17.762h5.3508z"/>
   <path id="path24" d="m324.1 195.97q0 2.0066-1.0157 3.5672-1.0033 1.5607-2.7993 2.341-1.796 0.78033-4.2237 0.78033h-2.5392l-1.1891 5.71h-5.3508l3.753-17.762h7.1716q2.9975 0 4.5953 1.3872 1.5978 1.3749 1.5978 3.976zm-5.6853 0.37159q0-0.91658-0.56976-1.3996-0.56977-0.49545-1.635-0.49545h-0.94135l-0.90419 4.3847h1.4987q1.1519 0 1.8456-0.69362 0.70601-0.70602 0.70601-1.796z"/>
   <path id="path26" d="m340.85 195.21q0 2.019-1.3996 3.4558-1.3872 1.4368-3.7035 1.8455v0.0495q1.9446 0.71839 2.4648 3.1709l0.9909 4.6448h-5.6853l-0.65646-3.9512q-0.19818-1.1148-0.73079-1.6969-0.52022-0.59454-1.5359-0.59454h-0.0495l-1.3129 6.2426h-5.3508l3.753-17.762h6.9734q2.9479 0 4.5953 1.2015 1.6474 1.2015 1.6474 3.3938zm-5.71 0.99089q0-0.8918-0.49545-1.3872-0.48306-0.49545-1.4616-0.49545h-0.95374l-0.91658 4.0627h1.1891q1.2015 0 1.9199-0.63169 0.7184-0.6317 0.7184-1.5483z"/>
   <path id="path28" d="m355.09 194.8h-5.71l-0.53261 2.5887h5.3508l-0.87942 4.1865h-5.3508l-0.55738 2.6135h6.1064l-0.89181 4.1865h-11.457l3.753-17.762h11.061z"/>
   <path id="path30" d="m361.66 195.69h-3.0718l1.5235-5.4995h4.0379z"/>
   <path id="path32" d="m388.16 194.8h-5.0288l-2.8612 13.575h-5.3756l2.8612-13.575h-4.9669l0.87942-4.1865h15.371z"/>
   <path id="path34" d="m397.84 208.37h-6.0073l-1.9818-17.762h5.4747l0.60692 11.631q0 0.68124-0.0991 1.2882h0.12386q0.0991-0.33443 0.24773-0.73078 0.16102-0.40875 5.3384-12.188h5.8587z"/>
  </g>
 </g>
</svg>
