<svg width="158.75mm" height="42.146mm" version="1.1" viewBox="0 0 158.75 42.146" xmlns="http://www.w3.org/2000/svg">
 <g transform="matrix(5.3097 0 0 5.3097 0 -147.5)">
  <path d="m0 27.78h21.167v7.9375h-21.167z" fill="#d3412a" stroke-width=".055465"/>
  <g transform="matrix(.87023 0 0 .87023 .35544 3.995)">
   <g transform="matrix(.99999 0 0 .99999 1.7541e-5 .0003788)" fill="#fff" fill-rule="evenodd" stroke-width="1.0236">
    <path d="m1.5894 34.324h2.089c1.4801 0 2.3868-0.85782 2.3868-2.4512 0-1.5067-0.89338-2.4135-2.3868-2.4135h-2.089z"/>
    <path d="m6.3941 34.324h5.4225v-4.8647h-1.8645l-0.85115 2.6601-0.84004-2.6601h-1.8668z"/>
    <path d="m11.968 34.324h4.9269l-1.8201-4.8647h-1.2867z"/>
    <path d="m17.012 34.324h4.9047l-1.7156-2.5535 1.5734-2.3112h-4.618l1.5867 2.3112z"/>
   </g>
  </g>
 </g>
 <path d="m112.39 0.003466h46.36v42.146h-46.36z" fill="#595959" stroke-opacity="0"/>
 <g transform="matrix(1.8605 0 0 1.8605 4.0798 -92.45)" fill="#fff" stroke-width=".51726">
  <path d="m71.433 56.487v9.0611h2.817c3.1393 0 5.1569-1.1871 5.1569-4.5534 0-3.3331-1.9661-4.5077-5.1569-4.5077zm1.8694 1.3199h1.1345c2.1917 0 3.0941 0.88411 3.0941 3.1878 0 2.3742-0.90246 3.2666-3.0748 3.2666h-1.1539z"/>
  <path d="m61.945 56.487v9.0609h1.8629v-3.8556h4.1062v3.8556h1.8629v-9.0609h-1.8629v3.3424h-4.1062v-3.3424z"/>
 </g>
</svg>
