<?xml version="1.0" encoding="UTF-8"?>
<svg id="svg36" width="156.16mm" height="42.146mm" version="1.1" viewBox="0 0 156.16 42.146" xmlns="http://www.w3.org/2000/svg" xmlns:cc="http://creativecommons.org/ns#" xmlns:dc="http://purl.org/dc/elements/1.1/" xmlns:rdf="http://www.w3.org/1999/02/22-rdf-syntax-ns#">
 <metadata id="metadata42">
  <rdf:RDF>
   <cc:Work rdf:about="">
    <dc:format>image/svg+xml</dc:format>
    <dc:type rdf:resource="http://purl.org/dc/dcmitype/StillImage"/>
    <dc:title/>
   </cc:Work>
  </rdf:RDF>
 </metadata>
 <g id="g898" transform="matrix(5.3097 0 0 5.3097 0 -147.5)">
  <path id="rect2" d="m0 27.78h21.167v7.9375h-21.167z" fill="#d3412a" stroke-width=".055465"/>
  <g id="g877" transform="matrix(.87023 0 0 .87023 .35544 3.995)">
   <g id="g870" transform="matrix(.99999 0 0 .99999 1.7541e-5 .0003788)" fill="#fff" fill-rule="evenodd" stroke-width="1.0236">
    <path id="path6" d="m1.5894 34.324h2.089c1.4801 0 2.3868-0.85782 2.3868-2.4512 0-1.5067-0.89338-2.4135-2.3868-2.4135h-2.089z"/>
    <path id="path8" d="m6.3941 34.324h5.4225v-4.8647h-1.8645l-0.85115 2.6601-0.84004-2.6601h-1.8668z"/>
    <path id="path10" d="m11.968 34.324h4.9269l-1.8201-4.8647h-1.2867z"/>
    <path id="path12" d="m17.012 34.324h4.9047l-1.7156-2.5535 1.5734-2.3112h-4.618l1.5867 2.3112z"/>
   </g>
  </g>
 </g>
 <path id="rect4-2" d="m112.39 7.7709e-6h43.767l-6.2e-4 42.146h-43.766z" fill="#595959" stroke-opacity="0"/>
 <g id="g848" transform="matrix(.29674 0 0 .29674 -21.775 .3602)" fill="#fff">
  <path id="path24" d="m509.16 91.047v-13.536h-13.64v-9.3441h13.64v-13.537h9.0939v13.535h13.683v9.346h-13.683v13.536z" stroke-width=".83741"/>
  <path id="path26-7" d="m556.22 97.114h-10.593v-35.019h-13.685v-7.4656c7.4126-2.1335 12.059-6.0233 15.685-12.142h8.5934z" stroke-width=".88165"/>
 </g>
</svg>
