<svg id="a" width="156.16mm" height="42.146mm" version="1.1" viewBox="0 0 156.16 42.146" xmlns="http://www.w3.org/2000/svg">
 <g id="b" transform="matrix(5.3097 0 0 5.3097 0 -147.5)">
  <path id="c" d="m0 27.78h21.167v7.9375h-21.167z" fill="#d3412a" stroke-width=".055465"/>
  <g id="d" transform="matrix(.87023 0 0 .87023 .35544 3.995)">
   <g id="e" transform="matrix(.99999 0 0 .99999 1.7541e-5 .0003788)" fill="#fff" fill-rule="evenodd" stroke-width="1.0236">
    <path id="f" d="m1.5894 34.324h2.089c1.4801 0 2.3868-0.85782 2.3868-2.4512 0-1.5067-0.89338-2.4135-2.3868-2.4135h-2.089z"/>
    <path id="g" d="m6.3941 34.324h5.4225v-4.8647h-1.8645l-0.85115 2.6601-0.84004-2.6601h-1.8668z"/>
    <path id="h" d="m11.968 34.324h4.9269l-1.8201-4.8647h-1.2867z"/>
    <path id="i" d="m17.012 34.324h4.9047l-1.7156-2.5535 1.5734-2.3112h-4.618l1.5867 2.3112z"/>
   </g>
  </g>
 </g>
 <path id="j" d="m112.39 7.7709e-6h43.767l-6.2e-4 42.146h-43.766z" fill="#595959" stroke-opacity="0"/>
 <g id="k" transform="matrix(.29674 0 0 .29674 -21.775 .3602)" fill="#fff">
  <path id="l" d="m509.16 91.047v-13.536h-13.64v-9.3441h13.64v-13.537h9.0939v13.535h13.683v9.346h-13.683v13.536z" stroke-width=".83741"/>
  <path id="m" d="m556.22 97.114h-10.593v-35.019h-13.685v-7.4656c7.4126-2.1335 12.059-6.0233 15.685-12.142h8.5934z" stroke-width=".88165"/>
 </g>
</svg>
