<?xml version="1.0" encoding="UTF-8"?>
<svg width="516.67pt" height="113.21pt" version="1.1" viewBox="0 0 516.67 113.21" xmlns="http://www.w3.org/2000/svg">
 <path d="m0 0h477.51l39.16 29.66v83.55h-516.67v-113.21" fill="#9e1813"/>
 <path d="m215.76 1.2529v110.74h299.41v-81.925l-37.9-28.818h-261.51" fill="#fff"/>
 <g fill="#fff">
  <path d="m96.78 22.04h8.76l32.09 71.705h-19.39l-4.12-8.755h-26.27l-4.08 8.755h-19.67m29.84-24.505h14.18l-7.13-16.55z"/>
  <path d="m143.75 22.5h32.22c5.89 0.06 11.94 2.17 16 6.56 6.95 7.2 7.93 20.35 0.12 27.32 11.37 6.47 10.79 24.11 1.33 31.96-4.26 3.56-9.92 4.97-15.38 4.92h-34.29v-70.76m18.755 16.26v11.49c4.587 0 8.955 0.39 13.375-0.3 4.87-1.83 4.16-10.13-0.97-11.05-4.12-0.37-8.1296-0.14-12.405-0.14m0 26.74v11.5c5.4191 0 10.285 0.26 15.405-0.18 5.39-1 5.4-10.2-0.02-11.15-5.11-0.43-9.8311-0.17-15.385-0.17z"/>
  <path d="m21.005 22.75h44.245v16.25h-25.495v15.5h22.49v16.255h-22.49v22.995h-18.75z"/>
 </g>
 <g transform="translate(-114.09 150)" fill="#9e1813">
  <path d="m427.74-87.357c0 13.807 8.5699 23.924 24.043 23.924 5.1182 0 12.26-1.7854 18.925-4.9991-0.23805-1.6664-0.71416-3.6898-1.3093-5.3562-4.1659 1.6664-10.355 3.8089-15.831 3.8089-4.8801 0-8.689-0.71416-12.26-4.7611-2.7376-3.2137-4.0469-8.2128-3.8089-14.759 7.3797 0 23.091-0.11903 30.114-0.35708l4.0941-0.124c0-1.3193-0.012-1.8958-0.0472-4.28 0-5.2372-1.0712-11.069-4.523-15.354-3.0947-3.9279-7.8558-6.1894-14.045-6.1894-15.354 0-25.353 12.855-25.353 28.447zm24.043-22.853c3.3328 0 5.8323 1.4283 7.6177 3.5708s3.2137 5.9513 3.2137 9.9982c0 0.83318-0.59514 1.1903-1.5474 1.3093-6.7845 0.23805-16.426 0.35708-23.21 0.35708 0.35708-6.0704 3.4518-9.7602 4.9991-11.546 2.0235-2.2615 4.7611-3.6898 8.927-3.6898z"/>
  <path d="m557.73-109.38c0.11903-1.7854 0.23805-3.5708 0.11903-5.2372-2.4996 0-5.4752 0.11903-8.4509 0.11903h-12.022c0 1.5474-0.11902 3.4518-0.11902 5.2372l6.7845 0.23805c0.35708 0 0.47611 0.11903 0.35708 0.47611-0.95221 4.1659-2.4996 10.474-4.523 17.616-1.7854 6.5465-2.9757 10.474-4.9991 17.14h-0.71416c-2.7376-8.5699-8.927-29.281-11.546-37.731-2.7376 0-5.7133 0-6.9036 0.11902-4.404 11.427-10.95 28.566-14.402 37.493l-0.59513-0.11903c-1.1903-4.7611-2.7376-11.308-4.1659-18.211-1.5473-7.1416-3.0947-14.283-3.5708-16.902l8.3319-0.11902c0.11903-1.7854 0.11903-3.6898 0.11903-5.2372h-23.924c0 1.5474-0.11903 3.4518 0 5.1182l5.4752 0.35708c0.35708 0 0.4761 0.23805 0.59513 0.47611 1.3093 4.8801 2.9757 11.546 5.1182 19.52 1.9044 7.1416 4.1659 15.592 7.2606 25.591 2.6186 0 4.7611 0 6.4274-0.11903 4.1659-8.927 11.189-25.472 15.116-35.946h0.71416c3.4518 12.617 7.4987 24.52 11.546 36.065 2.9757 0 5.1182 0 6.9036-0.11903 3.0947-7.8558 5.5943-14.878 8.4509-23.21 3.5708-10.593 5.8323-17.973 7.3797-22.258z"/>
  <path d="m391.31-115.29c-6.5014-0.12568-12.996 2.6101-16.471 8.4038-0.19-2.54-0.40033-5.0813-0.59033-7.6113-4.89 0.01-9.7804 2.5e-4 -14.67 0.0103-0.01 1.99 0 3.981 0 5.981 2.91 0.01 5.831 9e-3 8.751 9e-3v38.001c-2.92 0-5.841 2.54e-4 -8.751 0.01025 0 1.99-0.01 3.9895 0 5.9795 8 0.01 16.01 0.01 24.01 0-0.02-2-9e-3 -3.9897-0.019-5.9897-2.83 0-5.6705-2.54e-4 -8.5005-0.01025 0.08-8.07-0.12064-16.15 0.0894-24.22 0.27-6.41 5.0602-12.281 11.43-13.481 9.5373-2.067 18.722 4.112 19.298 13.481 0.21 8.07 9e-3 16.15 0.0894 24.22-2.83 0.01-5.669 0.01025-8.499 0.01025-0.01 2-5.1e-4 3.9897-0.0206 5.9897 8 0.01 16.01 0.01 24.01 0 0.01-1.99 0-3.9895 0-5.9795-2.91-0.01-5.8295-0.01025-8.7495-0.01025v-26.902c0-10.656-12.125-17.619-21.407-17.892z"/>
  <path d="m567.13-111.45c3.87-2.89 8.73-4.16 13.5-4.3 7.17-0.37 14.42 1.16 20.78 4.49-0.33 3.91-0.34 7.83-0.3 11.76h-5.95c-0.06-2.61-0.21-5.21-0.32-7.82-6.82-2.91-15.14-3.89-21.94-0.43-4.59 2.21-5.26 9.69-0.28 11.86 8.38 3.87 18.62 1.93 26.44 7.35 6.81 4.68 6.41 16.16-0.24 20.8-5.21 3.82-11.94 4.54-18.21 4.25-6.58-0.02-12.85-2.48-18.49-5.7-0.08-4.02 0.05-8.04 0.29-12.06h5.95c0.13 2.64-0.45 5.43 0.43 7.97 6.68 3.45 14.74 4.71 22 2.45 2.95-0.9 5.91-3.1 6.42-6.33 0.62-2.77-0.83-5.79-3.36-7.08-5.29-2.96-11.58-2.55-17.33-3.96-4.76-0.99-9.93-2.73-12.66-7.04-2.92-5.25-1.54-12.56 3.27-16.21z"/>
 </g>
</svg>
