<svg id="a" enable-background="new 0 0 201.705 73.482" space="preserve" version="1.1" viewBox="0 0 201.7 73.482" xmlns="http://www.w3.org/2000/svg">
 <link id="b" href="" rel="stylesheet" type="text/css"/>
 <path id="c" d="m100.87 36.572" fill="#fff"/>
 <path id="d" d="m100.87 36.572" fill="#fff"/>
 <path id="e" d="m100.87 36.572" fill="#fff"/>
 <path id="f" d="m100.87 36.572" fill="#fff"/>
 <path id="g" d="m100.87 36.572" fill="#fff"/>
 <path id="h" d="m100.87 36.572" fill="#fff"/>
 <path id="i" d="m100.87 36.572" fill="#fff"/>
 <path id="j" d="m100.87 36.572" fill="#fff"/>
 <path id="k" d="m100.87 36.572" fill="#fff"/>
 <path id="l" d="m100.87 36.572" fill="#fff"/>
 <path id="m" d="m100.87 36.572" fill="#fff"/>
 <path id="n" d="m100.87 36.572" fill="#fff"/>
 <path id="o" d="m100.87 36.572" fill="#fff"/>
 <polygon id="p" points="83.396 64.33 78.827 64.33 78.827 45.758 82.826 45.758 88.771 55.102 88.771 45.758 93.339 45.758 93.339 64.33 89.348 64.33 83.396 54.994" fill="#fff"/>
 <polygon id="q" points="109.97 45.758 109.97 49.826 101.91 49.826 101.91 52.934 108.8 52.934 108.8 56.994 101.91 56.994 101.91 60.255 109.97 60.255 109.97 64.33 97.354 64.33 97.354 45.758" fill="#fff"/>
 <polygon id="r" points="116.54 64.33 116.54 49.826 111.98 49.826 111.98 45.75 125.67 45.75 125.67 49.826 121.11 49.826 121.11 64.33" fill="#fff"/>
 <polygon id="s" points="138.14 55.179 135.14 64.33 131.44 64.33 126.32 45.758 131.1 45.758 133.52 55.563 136.52 45.758 139.76 45.758 142.76 55.563 145.19 45.758 149.96 45.758 144.87 64.33 141.14 64.33" fill="#fff"/>
 <path id="t" d="m156.47 59.578c-0.415-0.546-0.677-1.154-0.677-4.53 0-3.392 0.262-4.021 0.677-4.567 0.347-0.438 0.992-0.808 1.838-0.808 0.823 0 1.484 0.369 1.815 0.808 0.415 0.546 0.677 1.176 0.677 4.567 0 3.376-0.262 3.984-0.677 4.53-0.331 0.445-0.992 0.838-1.815 0.838-0.846 0-1.492-0.393-1.838-0.838m-3.361-11.89c-1.945 1.953-1.877 4.568-1.877 7.359 0 2.792-0.068 5.392 1.877 7.345 1.361 1.369 2.93 2.092 5.198 2.092 2.27 0 3.83-0.723 5.176-2.092 1.954-1.953 1.885-4.553 1.885-7.345 0-2.791 0.069-5.406-1.885-7.359-1.346-1.354-2.906-2.092-5.176-2.092-2.268 1e-3 -3.836 0.739-5.198 2.092" fill="#fff"/>
 <path id="u" d="m173.35 49.857h2.584c1.254 0 1.984 0.907 1.984 1.876 0 0.962-0.73 1.877-1.984 1.877h-2.584v-3.753m-4.569-4.099v18.572h4.568v-6.921h1.538l3.291 6.921h5.291l-4.021-7.752c1.461-0.723 3.03-2.314 3.03-4.845 0-3.045-2.215-5.976-6.337-5.976h-7.36" fill="#fff"/>
 <polygon id="v" points="190.57 45.758 186.05 45.758 186.05 64.33 190.57 64.33 190.57 58.501 192.14 56.709 196.41 64.33 201.7 64.33 201.7 64.284 195.18 53.271 201.51 45.758 195.93 45.758 190.57 52.333" fill="#fff"/>
 <polygon id="w" points="86.633 41.028 86.633 28.773 98.407 28.773 98.407 21.821 86.633 21.821 86.633 16.246 100.41 16.246 100.41 9.29 78.827 9.29 78.827 41.028" fill="#fff"/>
 <rect id="x" x="105.85" y="9.294" width="7.798" height="31.734" fill="#fff"/>
 <path id="y" d="m122.7 12.593c-3.346 3.342-3.215 7.799-3.215 12.57 0 4.765-0.131 9.221 3.215 12.559 2.314 2.334 5.13 3.576 8.821 3.576 3.799 0 6.645-1.242 9.005-3.653 2.415-2.449 3.123-5.479 3.123-10.608v-4.284h-12.128v6.514h4.368v0.354c0 1.072-0.308 2.63-1.154 3.479-0.707 0.758-1.561 1.246-3.214 1.246-1.423 0-2.492-0.577-3.068-1.339-0.724-0.938-1.162-2.049-1.162-7.844 0-5.803 0.438-6.867 1.162-7.806 0.576-0.762 1.646-1.377 3.068-1.377 2.007 0 2.991 0.758 4.506 2.276l5.307-5.307c-2.853-2.853-5.26-3.93-9.813-3.93-3.822 2e-3 -6.506 1.252-8.821 3.574" fill="#fff"/>
 <polygon id="z" points="156.98 21.514 156.98 9.29 149.19 9.29 149.19 41.028 156.98 41.028 156.98 28.466 165.28 28.466 165.28 41.028 173.08 41.028 173.08 9.29 165.28 9.29 165.28 21.514" fill="#fff"/>
 <polygon id="aa" points="185.2 16.246 185.2 41.028 193.01 41.028 193.01 16.246 200.81 16.246 200.81 9.29 177.4 9.29 177.4 16.246" fill="#fff"/>
 <polygon id="ab" points="39.921 29.938 19.973 29.938 19.973 17.734 39.921 17.734 39.921 0 0 0 0 73.359 19.973 73.359 19.973 47.665 36.237 47.665 70.476 73.482 70.514 73.482 70.514 0 50.526 0 50.526 37.972" fill="#fff"/>
</svg>
