<svg id="b" width="8.3996mm" height="3.7263mm" version="1.1" viewBox="0 0 8.3996 3.7263" xmlns="http://www.w3.org/2000/svg">
 <defs id="c">
  <clipPath id="a">
   <path id="d" d="m898.02 504.81h23.81v10.563h-23.81z"/>
  </clipPath>
 </defs>
 <g id="e" transform="translate(-75.521 -95.05)">
  <g id="f" transform="matrix(.35278 0 0 -.35278 -241.28 276.86)">
   <g id="g" clip-path="url(#a)">
    <g id="h" transform="translate(920.4 506.05)">
     <path id="i" d="m0 0h-2.725c-0.54 0-0.948 0.193-1.216 0.645-0.179 0.303-0.203 0.578-0.203 1.192 0 0.688 0.057 0.959 0.216 1.206 0.254 0.394 0.635 0.63 1.193 0.63h2.606v-0.761h-2.582c-0.516 0-0.588-0.511-0.588-1.056 0-0.678 0.119-1.108 0.631-1.108h1.844v0.689h-1.783v0.726h2.607zm-4.664 4.458h-1.397l-2.334 2.917h-0.065l1e-3 -2.917h-0.846v3.672h1.354l2.374-2.917h0.068v2.917h0.845zm0-4.466h-1.397l-2.308 2.918h-0.091l1e-3 -2.918h-0.846v3.684h1.354l2.348-2.928h0.094v2.928h0.845zm-5.281 4.466h-0.845v3.673h0.845zm0-4.455h-0.845v3.673h0.845zm-2.716-0.011h-1.266l-1.527 3.684h0.889l0.889-2.135 0.325-0.808h0.092l0.326 0.808 0.888 2.135h0.889zm-3.162 0.011h-0.845v3.673h0.845zm-1.334 0h-3.721v3.673h0.845v-2.912h2.876zm1.814 8.127h4.006v-0.753h-3.16v-0.712h2.918v-0.733h-2.918v-1.474h-0.846zm11.295 0h4.006v-0.76h-3.161v-0.686h2.919v-0.732h-2.919v-0.734h3.161v-0.76h-4.006zm-18.333-9.368h23.811v10.563h-23.811z" fill="#fbbe17"/>
    </g>
   </g>
  </g>
 </g>
</svg>
