<?xml version="1.0" encoding="UTF-8"?>
<!-- Created with Inkscape (http://www.inkscape.org/) -->
<svg id="svg4599" width="211.67mm" height="211.67mm" version="1.1" viewBox="0 0 211.67 211.67" xmlns="http://www.w3.org/2000/svg" xmlns:cc="http://creativecommons.org/ns#" xmlns:dc="http://purl.org/dc/elements/1.1/" xmlns:rdf="http://www.w3.org/1999/02/22-rdf-syntax-ns#">
 <defs id="defs4593">
  <linearGradient id="b" x2="1" gradientTransform="matrix(96.414 -169.13 169.13 96.414 -63.285 230.01)" gradientUnits="userSpaceOnUse">
   <stop id="stop5" stop-color="#7f0e1b" offset="0"/>
   <stop id="stop7" stop-color="#cf152e" offset=".5"/>
   <stop id="stop9" stop-color="#ed1c38" offset="1"/>
  </linearGradient>
  <clipPath id="a">
   <path id="path2" d="m640.09 421.28h7.456v7.456h-7.456z"/>
  </clipPath>
 </defs>
 <metadata id="metadata4596">
  <rdf:RDF>
   <cc:Work rdf:about="">
    <dc:format>image/svg+xml</dc:format>
    <dc:type rdf:resource="http://purl.org/dc/dcmitype/StillImage"/>
    <dc:title/>
   </cc:Work>
  </rdf:RDF>
 </metadata>
 <g id="layer1" transform="translate(122.84 -43)">
  <path id="path12" d="m-17.009 43a105.83 105.83 0 0 0-0.0176 5.17e-4c-58.416 0.0095-105.79 47.33-105.82 105.75v0.19899c0 16.92 4.0029 32.902 11.072 47.097 0.0239-0.011 0.0475-0.0229 0.0713-0.0341a105.83 105.83 0 0 0 6.0353 10.566c-0.0201 9e-3 -0.0398 0.0196-0.0599 0.0289 18.879 28.9 51.497 48.062 88.63 48.062h0.1421c58.396 0 105.72-47.296 105.78-105.72v-0.10336a105.83 105.83 0 0 0 5.3e-4 -0.0103 105.83 105.83 0 0 0-5.3e-4 -0.0145v-0.0708c0-14.932-3.1226-29.127-8.6868-41.987-0.054 0.01-0.10427 0.0212-0.1571 0.0315a105.83 105.83 0 0 0-5.7438-11.324c0.056-0.0108 0.10996-0.02437 0.16639-0.03462-18.367-31.341-52.377-52.406-91.298-52.434h-0.10335a105.83 105.83 0 0 0-0.01034-5.17e-4z" fill="url(#b)" stroke-width=".26458"/>
  <g id="g66" transform="matrix(28.389 0 0 -28.389 -18294 12214)" clip-path="url(#a)">
   <g id="g16" transform="translate(644.6 424.95)">
    <path id="path14" d="m0 0c-5e-3 -0.022-0.011-0.043-0.017-0.063 9e-3 0.027 0.017 0.055 0.024 0.085 0.01 0.041 0.018 0.085 0.026 0.131 4e-3 0.023 8e-3 0.046 0.012 0.068-4e-3 -0.024-9e-3 -0.047-0.013-0.072-0.01-0.052-0.02-0.102-0.032-0.149" fill="#1b1a1b"/>
   </g>
   <g id="g20" transform="translate(644.67 425.38)">
    <path id="path18" d="m0 0c-1e-3 -0.041-5e-3 -0.085-0.011-0.132-4e-3 -0.025-8e-3 -0.051-0.013-0.078-3e-3 -0.022-7e-3 -0.044-0.011-0.067-8e-3 -0.046-0.017-0.09-0.027-0.132-6e-3 -0.029-0.014-0.058-0.023-0.085-7e-3 -0.024-0.014-0.048-0.023-0.07-0.015-0.042-0.032-0.081-0.053-0.116-0.02-0.035-0.045-0.066-0.073-0.093-0.016-0.014-0.033-0.027-0.05-0.039s-0.035-0.021-0.053-0.029c-0.019-8e-3 -0.039-0.014-0.059-0.018-0.021-4e-3 -0.042-6e-3 -0.065-7e-3 -0.022 0-0.043 2e-3 -0.063 5e-3 -0.019 4e-3 -0.037 0.01-0.053 0.017s-0.03 0.016-0.043 0.028c-0.014 0.011-0.025 0.024-0.036 0.038-0.017 0.026-0.029 0.057-0.036 0.091-7e-3 0.035-0.01 0.074-9e-3 0.116 2e-3 0.042 6e-3 0.087 0.013 0.135s0.016 0.099 0.026 0.151 0.021 0.102 0.032 0.15c0.012 0.047 0.025 0.092 0.04 0.133s0.033 0.079 0.054 0.113c0.021 0.035 0.046 0.065 0.075 0.091 0.015 0.014 0.031 0.027 0.048 0.038s0.034 0.02 0.052 0.027 0.037 0.013 0.057 0.017c0.02 3e-3 0.041 5e-3 0.064 5e-3 0.022 0 0.043-2e-3 0.062-5e-3 0.019-4e-3 0.037-0.01 0.053-0.017s0.031-0.016 0.044-0.027 0.025-0.023 0.035-0.038c0.018-0.026 0.03-0.056 0.037-0.09 7e-3 -0.033 0.01-0.071 9e-3 -0.112m0.395 0.27c-0.018 0.047-0.042 0.09-0.074 0.131-0.021 0.028-0.047 0.056-0.078 0.081-0.031 0.026-0.067 0.049-0.108 0.069-0.042 0.02-0.088 0.036-0.141 0.048-0.052 0.012-0.11 0.018-0.174 0.019-0.065 0-0.126-5e-3 -0.183-0.016-0.056-0.011-0.109-0.027-0.158-0.046-0.048-0.02-0.093-0.042-0.134-0.068-0.041-0.025-0.077-0.053-0.11-0.081-0.048-0.041-0.088-0.085-0.124-0.132-0.035-0.047-0.065-0.097-0.091-0.153-0.026-0.055-0.047-0.116-0.066-0.182-0.019-0.067-0.036-0.14-0.051-0.22-0.014-0.082-0.025-0.155-0.031-0.223-7e-3 -0.068-8e-3 -0.129-3e-3 -0.186 5e-3 -0.056 0.016-0.107 0.033-0.156 0.018-0.048 0.043-0.092 0.075-0.134 0.023-0.029 0.05-0.057 0.081-0.084 0.032-0.026 0.069-0.049 0.111-0.069 0.042-0.019 0.09-0.036 0.144-0.046 0.054-0.011 0.113-0.017 0.18-0.016 0.066 1e-3 0.128 8e-3 0.186 0.02 0.057 0.013 0.11 0.03 0.16 0.051 0.049 0.021 0.094 0.046 0.135 0.072 0.041 0.027 0.077 0.055 0.11 0.084 0.047 0.043 0.087 0.087 0.121 0.135s0.063 0.099 0.087 0.155c0.025 0.055 0.045 0.116 0.063 0.182 0.017 0.067 0.032 0.139 0.045 0.219 0.014 0.079 0.024 0.151 0.029 0.216s5e-3 0.125 0 0.179c-5e-3 0.055-0.016 0.105-0.034 0.151" fill="#fff"/>
   </g>
   <g id="g24" transform="translate(640.94 423.14)">
    <path id="path22" d="m0 0c0.053 0.047 0.099 0.097 0.139 0.152 0.039 0.053 0.073 0.111 0.102 0.175 0.028 0.062 0.052 0.13 0.073 0.209 0.017 0.062 0.029 0.122 0.042 0.193l0.058 0.302 0.223 1.24 0.242-1e-3 0.122 0.412-0.296-1e-3 0.028 0.196c1e-3 5e-3 5e-3 0.03 0.01 0.057 6e-3 0.033 0.012 0.071 0.014 0.077 0.011 0.05 0.024 0.093 0.037 0.13 0.015 0.041 0.033 0.078 0.054 0.111 0.022 0.035 0.047 0.064 0.076 0.088 0.016 0.014 0.034 0.027 0.051 0.038 0.019 0.011 0.037 0.02 0.055 0.027 2e-3 0 3e-3 1e-3 5e-3 1e-3l3e-3 1e-3c0.025 0.01 0.049 0.017 0.074 0.022 0.028 6e-3 0.057 9e-3 0.087 9e-3h3e-3c0.028 0 0.056-3e-3 0.081-8e-3 0.024-5e-3 0.046-0.013 0.067-0.022 3e-3 -2e-3 6e-3 -3e-3 8e-3 -5e-3l6e-3 -3e-3 0.135 0.434-3e-3 1e-3c-0.021 6e-3 -0.042 0.012-0.065 0.017-0.059 0.013-0.122 0.019-0.189 0.019h-9e-3c-0.068 0-0.135-6e-3 -0.201-0.02-0.059-0.012-0.118-0.03-0.176-0.053-0.053-0.022-0.103-0.048-0.149-0.077-0.043-0.028-0.084-0.059-0.122-0.092-0.052-0.046-0.096-0.094-0.136-0.149-0.038-0.051-0.071-0.107-0.1-0.172-0.018-0.04-0.035-0.085-0.051-0.135-0.011-0.033-0.022-0.069-0.032-0.113-0.013-0.053-0.026-0.128-0.038-0.193l-6e-3 -0.035c-3e-3 -0.015-5e-3 -0.029-7e-3 -0.044l-0.021-0.106-0.193-1e-3 -0.121-0.41h0.246c-0.017-0.092-0.299-1.632-0.301-1.64-0.012-0.052-0.024-0.095-0.038-0.133-0.015-0.042-0.033-0.079-0.055-0.113l-3e-3 -6e-3 -3e-3 -3e-3c-0.044-0.073-0.108-0.129-0.183-0.162 0.064-0.129 0.136-0.253 0.213-0.372 0.042 0.019 0.082 0.04 0.12 0.064 0.043 0.028 0.085 0.06 0.124 0.094" fill="#fff"/>
   </g>
   <g id="g28" transform="translate(642.95 424.95)">
    <path id="path26" d="m0 0c-5e-3 -0.021-0.011-0.042-0.017-0.062 9e-3 0.026 0.017 0.054 0.024 0.084 9e-3 0.041 0.018 0.085 0.026 0.131 4e-3 0.023 8e-3 0.045 0.012 0.067-5e-3 -0.023-9e-3 -0.047-0.013-0.071-0.01-0.052-0.021-0.102-0.032-0.149" fill="#1b1a1b"/>
   </g>
   <g id="g32" transform="translate(643.02 425.38)">
    <path id="path30" d="m0 0c-1e-3 -0.041-5e-3 -0.085-0.012-0.132-3e-3 -0.025-7e-3 -0.051-0.012-0.078-3e-3 -0.022-7e-3 -0.044-0.011-0.068-8e-3 -0.045-0.017-0.089-0.027-0.131-6e-3 -0.029-0.014-0.057-0.023-0.084-7e-3 -0.025-0.014-0.049-0.023-0.072-0.015-0.041-0.032-0.08-0.053-0.115s-0.045-0.066-0.073-0.093c-0.016-0.014-0.033-0.027-0.05-0.039s-0.035-0.021-0.053-0.029c-0.019-8e-3 -0.039-0.014-0.059-0.018-0.021-4e-3 -0.042-6e-3 -0.065-7e-3 -0.022 0-0.043 2e-3 -0.063 5e-3 -0.019 4e-3 -0.037 0.01-0.053 0.017s-0.031 0.016-0.043 0.028c-0.014 0.011-0.025 0.024-0.036 0.038-0.018 0.026-0.029 0.057-0.037 0.092-7e-3 0.034-9e-3 0.073-8e-3 0.115s6e-3 0.087 0.013 0.135 0.016 0.099 0.026 0.151 0.021 0.102 0.032 0.15c0.012 0.047 0.025 0.092 0.04 0.133s0.033 0.079 0.054 0.113c0.021 0.035 0.046 0.065 0.074 0.091 0.016 0.014 0.033 0.027 0.049 0.038 0.017 0.01 0.034 0.02 0.052 0.027s0.037 0.013 0.057 0.017c0.02 3e-3 0.041 5e-3 0.064 5e-3 0.022 0 0.043-2e-3 0.062-5e-3 0.019-4e-3 0.037-0.01 0.053-0.017s0.031-0.016 0.044-0.027 0.025-0.023 0.035-0.038c0.018-0.026 0.03-0.056 0.037-0.09 7e-3 -0.033 0.01-0.071 9e-3 -0.112m0.395 0.27c-0.018 0.047-0.042 0.09-0.074 0.131-0.021 0.028-0.047 0.056-0.078 0.081-0.031 0.026-0.067 0.049-0.108 0.069-0.042 0.02-0.088 0.036-0.141 0.048-0.052 0.012-0.11 0.018-0.175 0.019-0.064 0-0.125-5e-3 -0.182-0.016-0.056-0.011-0.109-0.027-0.158-0.046-0.049-0.02-0.093-0.042-0.134-0.068-0.041-0.025-0.077-0.053-0.11-0.081-0.048-0.041-0.088-0.085-0.124-0.132-0.035-0.047-0.065-0.097-0.091-0.153-0.025-0.055-0.047-0.116-0.066-0.182-0.019-0.067-0.035-0.14-0.05-0.221s-0.026-0.154-0.032-0.222-7e-3 -0.129-3e-3 -0.185c5e-3 -0.057 0.016-0.108 0.033-0.157 0.018-0.047 0.043-0.092 0.076-0.134 0.022-0.029 0.049-0.057 0.08-0.084 0.032-0.026 0.069-0.049 0.111-0.069s0.09-0.036 0.144-0.046c0.054-0.011 0.113-0.017 0.18-0.016 0.066 1e-3 0.128 8e-3 0.185 0.02 0.058 0.013 0.111 0.03 0.161 0.051 0.049 0.021 0.094 0.046 0.135 0.072 0.041 0.027 0.077 0.055 0.11 0.084 0.047 0.043 0.087 0.087 0.121 0.135s0.063 0.099 0.087 0.155c0.025 0.055 0.045 0.116 0.062 0.182 0.018 0.066 0.033 0.139 0.046 0.219 0.014 0.079 0.024 0.151 0.029 0.216s5e-3 0.125 0 0.179c-5e-3 0.055-0.016 0.105-0.034 0.151" fill="#fff"/>
   </g>
   <g id="g36" transform="translate(646.31 425.38)">
    <path id="path34" d="m0 0c-1e-3 -0.041-5e-3 -0.086-0.012-0.133-3e-3 -0.026-7e-3 -0.052-0.012-0.079-3e-3 -0.022-7e-3 -0.045-0.011-0.068-9e-3 -0.046-0.017-0.091-0.027-0.133-7e-3 -0.03-0.015-0.058-0.024-0.086-7e-3 -0.024-0.014-0.048-0.023-0.071-0.015-0.043-0.032-0.082-0.053-0.117s-0.046-0.066-0.075-0.093c-0.016-0.016-0.032-0.029-0.049-0.04-0.018-0.012-0.036-0.022-0.055-0.029-0.019-8e-3 -0.038-0.014-0.059-0.018s-0.043-7e-3 -0.065-7e-3c-0.023 0-0.044 1e-3 -0.064 5e-3 -0.019 4e-3 -0.037 9e-3 -0.054 0.017-0.016 7e-3 -0.03 0.016-0.043 0.027-0.014 0.011-0.026 0.024-0.036 0.039-0.018 0.026-0.03 0.058-0.037 0.092-7e-3 0.036-0.01 0.075-9e-3 0.117 2e-3 0.043 6e-3 0.089 0.013 0.137s0.016 0.099 0.027 0.152c0.01 0.053 0.02 0.104 0.032 0.151 0.012 0.048 0.025 0.093 0.04 0.135 0.016 0.042 0.034 0.08 0.055 0.115 0.021 0.034 0.046 0.065 0.075 0.091 0.016 0.014 0.032 0.027 0.049 0.038s0.034 0.02 0.053 0.028c0.018 7e-3 0.037 0.013 0.057 0.016 0.021 4e-3 0.042 6e-3 0.064 6e-3 0.023 0 0.044-2e-3 0.063-6e-3 0.019-3e-3 0.037-9e-3 0.054-0.016 0.016-8e-3 0.031-0.017 0.044-0.028s0.025-0.023 0.036-0.038c0.018-0.026 0.03-0.056 0.037-0.091 7e-3 -0.033 0.01-0.072 9e-3 -0.113m0.39 1.322c-0.023-0.025-0.044-0.051-0.063-0.079-0.01-0.016-0.02-0.033-0.03-0.049-4e-3 -8e-3 -8e-3 -0.015-0.011-0.021-1e-3 -1e-3 -2e-3 -3e-3 -2e-3 -5e-3 -6e-3 -0.01-9e-3 -0.017-0.012-0.022-8e-3 -0.018-0.016-0.036-0.024-0.056-0.023-0.055-0.043-0.115-0.061-0.179s-0.035-0.132-0.051-0.203c-0.017-0.071-0.032-0.139-0.043-0.204-5e-3 -0.026-9e-3 -0.051-0.012-0.076-0.02 0.029-0.04 0.054-0.064 0.076-0.026 0.024-0.055 0.044-0.086 0.059-0.031 0.016-0.066 0.028-0.103 0.037-0.037 8e-3 -0.078 0.014-0.121 0.016-0.042 2e-3 -0.083 1e-3 -0.124-4e-3s-0.081-0.013-0.119-0.025-0.075-0.027-0.11-0.044c-0.034-0.018-0.066-0.039-0.095-0.062-0.052-0.042-0.096-0.092-0.132-0.148-0.037-0.055-0.067-0.117-0.092-0.182s-0.045-0.133-0.062-0.202c-0.018-0.069-0.032-0.138-0.046-0.205s-0.028-0.137-0.04-0.207c-0.011-0.07-0.019-0.139-0.022-0.207-2e-3 -0.068 2e-3 -0.133 0.015-0.193s0.036-0.115 0.071-0.162c0.019-0.026 0.043-0.05 0.07-0.071 0.028-0.021 0.059-0.04 0.093-0.055 0.034-0.016 0.071-0.028 0.11-0.037s0.08-0.014 0.122-0.016c0.047-1e-3 0.09 1e-3 0.131 6e-3 0.041 6e-3 0.08 0.015 0.117 0.029 0.038 0.014 0.074 0.032 0.11 0.056 0.02 0.012 0.041 0.027 0.061 0.043 6e-3 5e-3 0.013 0.011 0.02 0.017h1e-3c6e-3 6e-3 0.012 0.011 0.019 0.017 2e-3 2e-3 5e-3 5e-3 8e-3 7e-3l1e-3 2e-3c0.013 0.012 0.025 0.025 0.038 0.039 0.027 0.032 0.05 0.065 0.069 0.098 0.015-0.053 0.039-0.103 0.072-0.145 0.021-0.026 0.046-0.05 0.075-0.071 0.019-0.013 0.04-0.025 0.062-0.037 5e-3 -3e-3 0.01-7e-3 0.016-0.01 0.031-0.016 0.066-0.028 0.103-0.037s0.078-0.014 0.122-0.016c0.013 0 0.025 1e-3 0.037 1e-3l0.118 0.378c-3e-3 0-6e-3 0-8e-3 1e-3 -0.016 4e-3 -0.031 8e-3 -0.045 0.015-0.013 7e-3 -0.026 0.015-0.036 0.024-0.011 0.01-0.021 0.021-0.03 0.034-0.014 0.022-0.024 0.049-0.029 0.078-4e-3 0.023-5e-3 0.048-5e-3 0.074 0 1e-3 0 3e-3 -1e-3 4e-3 0 0 1e-3 0.02 2e-3 0.03 0 7e-3 1e-3 0.017 3e-3 0.028 2e-3 0.025 5e-3 0.051 0.01 0.077 1e-3 6e-3 2e-3 0.013 3e-3 0.019 2e-3 0.012 4e-3 0.021 4e-3 0.021l0.058 0.333c0.043 0.257 0.097 0.574 0.104 0.607 0.01 0.055 0.021 0.108 0.033 0.158 0.012 0.049 0.026 0.096 0.042 0.14 0.015 0.043 0.034 0.083 0.056 0.119s0.048 0.068 0.078 0.095c0.017 0.015 0.034 0.029 0.051 0.04 0.018 0.012 0.036 0.021 0.055 0.029s0.039 0.013 0.06 0.017c-0.06 0.138-0.127 0.271-0.202 0.399-0.154-0.028-0.265-0.112-0.339-0.193" fill="#fff"/>
   </g>
   <g id="g40" transform="translate(642.47 423.24)">
    <path id="path38" d="m0 0v0.266c0 0.06-0.038 0.08-0.072 0.08-0.035 0-0.074-0.02-0.074-0.08v-0.266h-0.109v0.439h0.107v-0.04c0.028 0.03 0.069 0.045 0.109 0.045 0.044 0 0.079-0.014 0.104-0.038 0.035-0.036 0.045-0.077 0.045-0.125v-0.281z" fill="#fff"/>
   </g>
   <g id="g44" transform="translate(643.04 423.55)">
    <path id="path42" d="m0 0c-0.012 0.026-0.036 0.045-0.073 0.045s-0.062-0.019-0.074-0.045c-6e-3 -0.016-9e-3 -0.028-0.01-0.047h0.167c-1e-3 0.019-3e-3 0.031-0.01 0.047m-0.157-0.122c0-0.057 0.035-0.098 0.096-0.098 0.048 0 0.072 0.013 0.1 0.041l0.067-0.065c-0.045-0.045-0.088-0.069-0.168-0.069-0.103 0-0.203 0.047-0.203 0.225 0 0.143 0.078 0.224 0.192 0.224 0.122 0 0.191-0.089 0.191-0.209v-0.049z" fill="#fff"/>
   </g>
   <g id="g48" transform="translate(643.49 423.24)">
    <path id="path46" d="m0 0c-0.089 0-0.127 0.063-0.127 0.126v0.217h-0.047v0.084h0.047v0.13h0.109v-0.13h0.078v-0.084h-0.078v-0.21c0-0.026 0.012-0.04 0.038-0.04h0.04v-0.093z" fill="#fff"/>
   </g>
   <g id="g52" transform="translate(644.22 423.24)">
    <path id="path50" d="m0 0h-0.09l-0.092 0.276-0.092-0.276h-0.09l-0.136 0.439h0.117l0.071-0.271 0.089 0.271h0.08l0.091-0.271 0.07 0.271h0.116z" fill="#fff"/>
   </g>
   <g id="g56" transform="translate(644.75 423.57)">
    <path id="path54" d="m0 0c-0.013 0.013-0.03 0.019-0.051 0.019-0.022 0-0.038-6e-3 -0.051-0.019-0.023-0.023-0.025-0.061-0.025-0.106 0-0.046 2e-3 -0.085 0.025-0.107 0.013-0.013 0.029-0.02 0.051-0.02 0.021 0 0.038 7e-3 0.051 0.02 0.023 0.022 0.025 0.061 0.025 0.107 0 0.045-2e-3 0.083-0.025 0.106m0.085-0.278c-0.027-0.028-0.072-0.053-0.136-0.053-0.066 0-0.109 0.025-0.136 0.053-0.04 0.042-0.05 0.092-0.05 0.172 0 0.079 0.01 0.129 0.05 0.17 0.027 0.029 0.07 0.054 0.136 0.054 0.064 0 0.109-0.025 0.136-0.054 0.04-0.041 0.05-0.091 0.05-0.17 0-0.08-0.01-0.13-0.05-0.172" fill="#fff"/>
   </g>
   <g id="g60" transform="translate(645.31 423.56)">
    <path id="path58" d="m0 0c-0.017 0.017-0.031 0.026-0.058 0.026-0.034 0-0.071-0.025-0.071-0.081v-0.265h-0.11v0.44h0.107v-0.042c0.022 0.025 0.064 0.047 0.111 0.047 0.043 0 0.073-0.011 0.104-0.041z" fill="#fff"/>
   </g>
   <g id="g64" transform="translate(645.83 423.24)">
    <path id="path62" d="m0 0-0.108 0.183-0.046-0.052v-0.131h-0.11v0.601h0.11v-0.341l0.146 0.179h0.132l-0.157-0.177 0.169-0.262z" fill="#fff"/>
   </g>
  </g>
 </g>
</svg>
