<?xml version="1.0" encoding="UTF-8"?>
<svg id="Calque_1" width="348.98" height="603" enable-background="new 0 0 640 480" version="1.1" viewBox="0 0 348.98 603" xml:space="preserve" xmlns="http://www.w3.org/2000/svg" xmlns:cc="http://creativecommons.org/ns#" xmlns:dc="http://purl.org/dc/elements/1.1/" xmlns:rdf="http://www.w3.org/1999/02/22-rdf-syntax-ns#"><metadata id="metadata38"><rdf:RDF><cc:Work rdf:about=""><dc:format>image/svg+xml</dc:format><dc:type rdf:resource="http://purl.org/dc/dcmitype/StillImage"/><dc:title/></cc:Work></rdf:RDF></metadata><path id="path3" d="m334.37 0.64518-318.34 68.79c-11.62 2.5576-16.015 7.3616-16.015 20.383l-0.01391 423.37c0 13.012 4.385 17.825 16.022 20.371l318.32 68.776c9.6324 2.1577 14.642-0.93194 14.642-9.1734v-90.647c-35.106 0.0191-259.89 0.0869-260 0h260v-492.66c-2e-3 -8.2692-5.0109-11.312-14.614-9.2064z" fill="#ed1b2f"/><linearGradient id="SVGID_1_" x1="302.76" x2="337.56" y1="74.851" y2="377.4" gradientTransform="matrix(1.7387 0 0 1.7387 -380.81 -115.79)" gradientUnits="userSpaceOnUse"><stop id="stop6" stop-color="#F37364" offset="0"/><stop id="stop8" stop-color="#F37060" offset=".0642"/><stop id="stop10" stop-color="#F26556" offset=".1433"/><stop id="stop12" stop-color="#F16152" offset=".1655"/><stop id="stop14" stop-color="#F16253" offset=".4065"/><stop id="stop16" stop-color="#F26758" offset=".4932"/><stop id="stop18" stop-color="#F26D5E" offset=".5452"/><stop id="stop20" stop-color="#F26A5B" offset=".6457"/><stop id="stop22" stop-color="#F16353" offset=".7539"/><stop id="stop24" stop-color="#F15544" offset=".8658"/><stop id="stop26" stop-color="#EF4032" offset=".9795"/><stop id="stop28" stop-color="#EF3B2F" offset="1"/></linearGradient><path id="path30" d="m329.38 6.9792-308.95 67.34c-11.275 2.5002-15.544 7.2104-15.544 19.95l-0.0139 414.45c0 12.753 4.2598 17.456 15.553 19.957l308.93 67.32c9.349 2.1177 14.21-0.90586 14.21-8.9786v-571.03c-2e-3 -8.1006-4.8631-11.075-14.181-9.0134z" clip-rule="evenodd" fill="url(#SVGID_1_)" fill-rule="evenodd"/><path id="path32" d="m3.2618 76.883s306.64-39.355 344.94 49.986l5e-3 179.77s-2.3038 108.43-49.4 124.7l-154.51 35.348s-133.94 48.334-142.62-258.91c-4.0424-99.977 1.5752-130.9 1.5752-130.9z" fill="#ed1b2f"/><linearGradient id="SVGID_2_" x1="324.76" x2="377.25" y1="226.86" y2="363.37" gradientTransform="matrix(1.7387 0 0 1.7387 -380.81 -115.79)" gradientUnits="userSpaceOnUse"><stop id="stop35" stop-color="#fff" offset="0"/><stop id="stop37" stop-color="#F9F9FA" offset=".1922"/><stop id="stop39" stop-color="#E9EAEB" offset=".444"/><stop id="stop41" stop-color="#CED0D3" offset=".7274"/><stop id="stop43" stop-color="#ADB1B5" offset="1"/></linearGradient><path id="path45" d="m348.98 425.14h-150.09s20.847-12.089 56.958-32.729c61.965-35.442 84.98-63.151 93.131-90.402v-64.784c-12.679-44.052-54.303-72.025-124.95-72.025-69.93 0-136.92 28.353-132.03 128.95 0 0 86.98-0.25038 88.237 0 0-41.417 7.8189-63.134 42.066-63.134 29.836 0 44.208 13.758 44.208 37.443 0 22.539-19.611 37.657-38.806 50.999-26.44 18.402-38.693 26.778-81.712 56.834-53.392 37.312-57.012 64.17-57.012 127.52 0.10953 0.0887 224.89 0.0209 260 0v-78.667h-2e-3z" clip-rule="evenodd" fill="url(#SVGID_2_)" fill-rule="evenodd"/><path id="path49" d="m316.85 108.5c-8.6118 0-9.0812 4.8596-9.5559 8.9021h17.323c0-4.6475-0.9302-8.9021-7.7667-8.9021z" fill="none"/><path id="path51" d="m166.99 130.05c0 4.1311 3.1992 4.7397 5.543 4.7397 6.3375 0 8.9925-3.4252 8.9125-8.617v-4.1138c-0.39816 0.23994-0.84327 0.47467-1.2084 0.6155-4.9761 2.3559-13.247 2e-3 -13.247 7.3755z" fill="none"/><path id="path53" d="m191.61 130.67v-17.003c0-9.7523-5.0683-13.256-15.972-13.256-13.289 0-17.42 5.1031-17.648 11.882v1.7491h9.6532c0.33035-3.2827 0-6.155 7.4764-6.155 5.0335 0 6.3271 1.8848 6.3271 4.7014 0 1.8343-0.39816 3.3661-1.0015 3.8825-2.1647 1.5405-13.529 0.92672-18.58 3.1453-3.0462 1.5057-5.4804 4.1172-5.4804 9.9106 0 8.071 4.2128 12.955 14.483 12.955 5.3256 0 8.7178-0.9215 11.517-5.8716 0.49901 0.90586 0.9615 2.349 2.0864 3.3539 1.457 1.2136 2.8984 1.4448 4.7918 1.4448h5.27v-7.772c-1.2832 0.0713-2.0378-0.32166-2.3611-0.53725-0.3234-0.21386-0.56334-0.75633-0.56334-2.4307zm-10.163-4.5032c0.08 5.1917-2.575 8.617-8.9125 8.617-2.3438 0-5.543-0.60854-5.543-4.7397 0-7.3738 8.2692-5.0196 13.245-7.3738 0.36513-0.14257 0.81023-0.3773 1.2084-0.6155v4.112z" fill="#fff"/><path id="path55" d="m225.57 100.42c-8.9404 0-9.8827 4.0459-10.643 6.4818v-5.4317h-10.211v39.948h10.582v-25.755c0-5.4838 2.3611-6.9443 6.774-6.9443 5.4873 0 7.0156 2.2986 7.0156 6.2576v26.442h10.571v-28.275c0-9.5141-4.8718-12.724-14.089-12.724z" fill="#fff"/><path id="path57" d="m135.49 108.94v-7.4746h-9.4394v39.948h10.561v-21.574c0-1.8952 0.23473-5.6195 1.9804-7.8432 1.4918-1.8239 3.7382-2.4342 6.1706-2.4342h6.4523v-8.7734c-1.7456-0.22603-3.4339-0.37382-5.1656-0.37382-8.0032 0-9.0725 4.4284-10.559 8.5248z" fill="#fff"/><path id="path59" d="m100.98 88.439c-2.3559 1.923-3.041 4.3398-3.041 7.4746v5.5534h-5.2839v6.8765h5.2839v33.072h10.557v-33.072h6.6262v-6.8765h-6.6262v-4.2598c0-1.0641 0.16692-1.5822 0.53204-2.1351 0.4764-0.60333 1.8534-0.68852 3.1575-0.68852h2.9349v-8.0762h-5.5273c-2.5941 0-6.3202 0.30775-8.6135 2.1316z" fill="#fff"/><path id="path61" d="m316.4 100.42c-14.862 0-19.872 8.4587-19.872 21.177 0 13.956 5.769 20.894 19.399 20.894 15.831 0 18.037-7.9267 18.88-12.899h-10.337c-0.67288 2.3803-1.1493 4.8875-7.6833 4.8875-7.5459 0-9.7628-3.2792-9.7628-9.6654h28.48c0.60159-11.521-1.5387-24.394-19.105-24.394zm-9.1055 16.987c0.47466-4.0425 0.94411-8.9021 9.5559-8.9021 6.8383 0 7.7667 4.2546 7.7667 8.9021z" fill="#fff"/><path id="path63" d="m269.61 134.72c-6.8539 0-8.9021-4.8127-8.9021-14.035 0-6.3254 1.5979-12.18 9.3716-12.18 7.8485 0 7.7268 3.6217 8.2762 6.7114h10.109c0-7.7772-4.4963-14.796-17.702-14.796-15.325 0-20.471 8.9125-20.471 20.873 0 14.156 6.9722 21.198 19.632 21.198 15.6 0 18.875-9.6636 18.875-15.94h-10.444c-0.54769 4.2668 0 8.1684-8.7439 8.1684z" fill="#fff"/></svg>
