<?xml version="1.0" encoding="UTF-8"?>
<!-- Created with Inkscape (http://www.inkscape.org/) -->
<svg id="svg4348" width="1066.7" height="203.13" xmlns:cc="http://creativecommons.org/ns#" xmlns:dc="http://purl.org/dc/elements/1.1/" xmlns:rdf="http://www.w3.org/1999/02/22-rdf-syntax-ns#" version="1.1" viewBox="0 0 1e3 190.44" xmlns="http://www.w3.org/2000/svg">
 <link id="dark-mode" href="" rel="stylesheet" type="text/css"/>
 <style id="dark-mode-custom-style" type="text/css"/>
 <metadata id="metadata4353">
  <rdf:RDF>
   <cc:Work rdf:about="">
    <dc:format>image/svg+xml</dc:format>
    <dc:type rdf:resource="http://purl.org/dc/dcmitype/StillImage"/>
    <dc:title/>
   </cc:Work>
  </rdf:RDF>
 </metadata>
 <g id="layer1" transform="translate(-277.27 -360.54)">
  <g id="g5" transform="matrix(1.8634 0 0 1.8634 275.78 358.12)">
   <g id="g15">
    <path id="path17" class="st1" d="m54.7 18.1c-1.5-0.4-3.8-0.7-5.5-0.7-4.5 0-8 1.3-10.2 3.9-1.5 2-2.5 4.5-2.5 10.8v2.1h21v15.4h-21v52.5h-18.2v-52.5h-17.5v-15.4h17.5v-2.8c0-10.9 2.5-17.5 7.3-22.1s11.9-8 21.1-8c3.6 0 7 0.3 10.8 1.3z"/>
    <path id="path19" class="st1" d="m107.2 50.3c-1.3-0.4-3.9-0.7-6.6-0.7-8 0-14.3 5.7-16.5 9.8v42.7h-18.2v-67.9h17.5v6.8c4.1-5 11.5-8.3 19.7-8.3 2.7 0 4.2 0.3 6.2 0.6z"/>
    <path id="path21" class="st1" d="m180.7 102.1h-17.5v-5.5c-5.6 4.8-12 6.9-18.9 6.9-10.1 0-19.6-4.5-25.6-11.5-5.3-6.2-8.7-14.6-8.7-23.8 0-20 14.8-35.4 33.3-35.4 7.7 0 14.6 2.5 19.9 6.9v-5.5h17.5zm-18.2-44.1c-3.8-5-9.8-8.4-16.8-8.4-10.6 0-17.5 8.8-17.5 18.6 0 10.6 7.7 18.5 17.9 18.5 6.9 0 12.9-3.4 16.4-8.4z"/>
    <path id="path23" class="st1" d="m196.1 102.1v-67.9h17.5v5.5c5.2-4.2 11.6-6.9 19.2-6.9 9.4 0 17.9 4.2 23.5 10.9 4.5 5.3 7 12.2 7 23.8v34.6h-18.2v-36c0-6.7-1.5-10.2-4.1-12.7-2.4-2.4-6-3.8-10.2-3.8-7.7 0-14 4.9-16.5 8.4v44.1z"/>
    <path id="path25" class="st1" d="m338.9 88.2c-8 10.6-18.1 15.3-30.8 15.3-21 0-36.4-15.7-36.4-35.3 0-19.7 15.8-35.4 36.5-35.4 11.8 0 22.3 5.5 28.6 13.6l-12.8 11.3c-3.6-4.8-9.1-8.1-15.7-8.1-10.5 0-18.3 8.3-18.3 18.6 0 10.6 7.7 18.5 18.8 18.5 7.4 0 13.3-4.5 16.2-9z"/>
    <path id="path27" class="st1" d="m405.2 91.3c-6.6 7.8-17.4 12.2-27.9 12.2-20.3 0-35.6-14-35.6-35.3 0-18.9 12.9-35.4 33-35.4 18.8 0 32.1 15.8 32.1 34.7 0 1.8-0.1 3.6-0.4 5.2h-47c1 9.5 8.7 16.1 18.3 16.1 7.7 0 13.9-4.3 17.1-7.8zm-17-31.9c-0.6-6-6-11.9-13.4-11.9-7.6 0-13.7 5.7-14.6 11.9z"/>
   </g>
  </g>
  <g id="text4318" transform="matrix(5.1162 0 0 5.1162 -1130.3 -3360.7)" font-family="Sans" font-size="50.654px" letter-spacing="0px" word-spacing="0px" style="line-height:125%">
   <path id="path4323" d="m447.03 763.95v-5.0417l12.466-13.137c1.3851-1.5499 2.3126-2.869 2.7825-3.9573 0.46991-1.0882 0.70488-2.0858 0.7049-2.9927-2e-5 -0.61006-0.11956-1.1995-0.35864-1.7684-0.2391-0.56884-0.56064-1.0759-0.9646-1.5211-0.40399-0.44518-0.88217-0.79969-1.4345-1.0635-0.55239-0.26379-1.1666-0.3957-1.8426-0.39573-1.1872 3e-5 -2.193 0.37103-3.0175 1.113-0.82445 0.74203-1.5252 1.9745-1.5252 4.1755h-6.8336c0-3.1036 1.2026-5.4988 1.9281-6.5128 0.72551-1.014 1.5788-1.8756 2.5599-2.5846 0.98108-0.70899 2.0611-1.2655 3.2401-1.6695 1.179-0.40394 2.428-0.60593 3.7471-0.60597 1.517 4e-5 2.9597 0.26798 4.3283 0.80384 1.3686 0.53592 2.5764 1.2862 3.6234 2.2507 1.047 0.96463 1.8756 2.123 2.4857 3.475 0.61007 1.3521 0.91511 2.8196 0.91514 4.4025-3e-5 2.1601-0.46584 4.0604-1.3974 5.701-0.93164 1.6407-1.991 3.137-3.1782 4.4891l-8.4744 8.7556h13.79v6.0844z" font-family="'Brown Bold'"/>
  </g>
  <circle id="path4325" transform="matrix(5.1162 0 0 5.1162 -1133.8 -3360.1)" cx="436.64" cy="751.53" r="6.8521" fill="#ed0e39" fill-rule="evenodd"/>
 </g>
</svg>
