<svg width="329.81mm" height="279.13mm" version="1.1" viewBox="0 0 329.81 279.13" xmlns="http://www.w3.org/2000/svg">
 <g transform="translate(181.92 -9.2674)">
  <g transform="matrix(.35278 0 0 .35278 -211.61 -13.606)">
   <path d="m242.11 88.04c56.27-25.38 121.44-30.04 180.85-13.48 49.47 13.68 94.67 42.16 128.54 80.71 20.68-23.2 45.21-43.01 72.53-57.88 39.3-21.5 84.14-33 128.96-32.43 44.13-0.23 88.18 11.28 126.87 32.41 51.46 27.99 93.19 73.38 116.68 127.04 25.27 57.03 29.38 123 11.75 182.8-13.83 47.43-41.29 90.71-78.09 123.63-30.57-4.06-59.93-16.77-83.74-36.37-23.14-18.96-41.18-44.2-51.21-72.41 16.79-8.01 31.2-20.88 41.19-36.56 10.52-16.41 16.02-35.99 15.59-55.48-0.31-16.99-5.02-33.88-13.63-48.53-9.65-16.55-24.15-30.21-41.24-38.85-19.9-10.17-43.26-13.27-65.14-8.8-30.85 6-58.03 27.61-71.05 56.18-10.08 21.67-11.96 47-5.2 69.92 5.34 18.4 16.19 35.11 30.69 47.61 6.69 5.95 14.41 10.53 22.23 14.81-10.82 29.06-29.52 55.21-54.01 74.3-16.27 12.78-34.93 22.52-54.74 28.49-19.68 6.07-40.52 7.84-61.01 6.45-35.18-2.14-69.26-16.62-95.95-39.51-22.07-18.81-38.92-43.51-48.8-70.75 12.78-6.51 24.46-15.35 33.55-26.5 15.42-18.48 23.69-42.73 22.74-66.79-0.68-22.47-9.35-44.57-24.08-61.55-15.12-17.64-36.57-29.72-59.53-33.36-23.41-3.86-48.15 0.96-68.3 13.5-22.19 13.58-38.68 36.16-44.66 61.49-5.14 21.2-3.1 44.07 5.87 63.96 9.57 21.46 26.99 39.34 48.28 49.3-11.3 32.87-33.81 61.61-62.35 81.34-21.55 14.97-46.7 24.56-72.68 28.14-31.42-28.04-56-63.67-71.13-102.96-13.03-33.61-18.92-69.88-17.51-105.89 1.35-44.42 14.41-88.37 37.15-126.53 27.91-47.05 70.62-85.15 120.58-107.45z"/>
   <path d="m323.61 522.64c10.52-11.28 19.42-23.93 27.79-36.84 24.12 40.32 60.9 72.81 103.66 92.21-65.2 27.88-141.59 28.04-206.9 0.41 0.06-0.19 0.18-0.58 0.23-0.78 28.36-13.15 54.16-31.87 75.22-55z"/>
   <path d="m648.14 578.02c42.87-19.37 79.43-52.06 103.79-92.27 18.01 29.73 42.65 55.42 71.69 74.51 10.25 6.89 21.2 12.63 32.31 17.99-26.76 10.83-55.06 18.05-83.91 20.06-42.13 3.23-84.97-3.81-123.88-20.29z"/>
   <path d="m164.42 659.42h55.555v147.52h71.455v49.05h-127.01z"/>
   <path d="m307.19 659.44h63.51v196.55h-63.51z"/>
   <path d="m386.48 659.34h63.52v65.6l39.525-65.6h63.235l-55.16 98.45 55.36 97.975v-196.42h127.04v45.26h-75.4v32.71h75.4v41.04h-75.4v32.705h75.4v44.955l-190.48-0.245-39.525-64.985v64.985h-63.52z"/>
   <path d="m718.04 659.42h166.44l39.565 114.54 39.605-114.54h55.43l-63.22 196.56h-63.63l-48.9-151.46-30.2 0.04v151.42h-63.56l-0.03-151.43-31.505 0.07z"/>
   <path d="m108.42 660.62c14.58-4.34 31.45 3.51 37.44 17.49 6.74 14.07 1.08 32.5-12.44 40.3-13.3 8.47-32.53 4.85-41.78-7.93-9.16-11.59-8.44-29.5 1.54-40.36 4.02-4.55 9.4-7.87 15.24-9.5z"/>
   <path d="m85.12 724.49h63.505v131.5h-63.505z"/>
   <path d="m706.59 793.67c14.54-4.16 31.25 3.75 37.17 17.68 6.51 13.79 1.21 31.74-11.79 39.73-13.35 8.97-33.17 5.52-42.57-7.58-9.43-12.02-8.21-30.71 2.69-41.41 3.97-4.02 9.02-6.98 14.5-8.42z"/>
  </g>
 </g>
</svg>
