<svg width="1518pt" height="465.33pt" version="1.1" viewBox="0 0 1518 465.33" xmlns="http://www.w3.org/2000/svg">
 <g transform="translate(-41.29 -36.408)" fill="#f95709">
  <path d="m1240.2 53.41c23.44-9.73 48.57-15.06 73.84-16.84 8.96-0.22 17.93-0.21 26.9-0.01 22.77 1.51 45.4 6.02 66.82 13.97 37.47 13.72 71.09 37.51 96.82 67.96 26.37 31.09 44.24 69.31 51.19 109.48 2.58 15.88 3.97 32.01 3.4 48.1-0.9 4.24-0.39 8.62-0.9 12.92-1.95 19.5-5.82 38.95-12.86 57.27-37.15 7.74-71.46 25.36-102.59 46.64-34.18 23.05-65.89 49.85-102.11 69.79-22.75 12.74-47.29 22.36-72.81 27.78-1.58 0.28-3.21 0.41-4.74-0.05-37.46-10.84-71.95-31.42-99.51-58.98-25.78-26-45.51-58.04-56.59-92.98-17.16-53.59-14.01-113.45 9.06-164.82 23.88-54.03 69.3-98.1 124.08-120.23"/>
  <path d="m1530.3 377.39c3.58-1.58 6.98-3.8 10.95-4.3-17.84 34.87-44.03 65.58-76.45 87.67-45.21 31.51-102.01 45.66-156.73 39.61-11.05-0.94-21.83-3.61-32.71-5.56 5.79-1.26 11.76-0.96 17.61-1.85 24.65-2.72 48.8-9.5 71.56-19.32 59.1-25.22 107.79-68.93 165.77-96.25z"/>
 </g>
 <g transform="translate(-41.29 -36.408)" fill="#fff">
  <path d="m41.33 169.74-0.04-44.11 13.46 0.01-0.13 44.11z"/>
  <path d="m180.5 125.66 38.21 0.06 0.04 11.38-12.33-0.05v32.96l-13.62-0.02 0.04-32.91-12.34 0.01z"/>
  <path d="m352.24 125.77 13.28-0.03 16.19 44.37-14.02-0.01-2.09-6.5-13.92 0.06-1.87 6.31-13.69 0.04 16.12-44.24m2.3 28.55 8.46 0.01-3.9-13.75z"/>
  <path d="m505.64 125.84 13.66 0.01-0.03 32.86 19.39-0.05 0.01 11.5h-33.12z"/>
  <path d="m665.46 126.13 13.69 0.07-0.07 44h-13.66z"/>
  <path d="m819.08 126.22 13.33-0.01 16.21 44.19-14.13-0.05-1.95-6.21-13.9-0.46-2.14 6.65-13.75-0.02 16.33-44.09m6.76 14.49-4.47 13.85 8.49 0.02z"/>
  <path d="m972.48 126.25 14.02 0.09 12.8 23.92-0.03-23.88 12.91-0.04-0.04 44.07-13.24-0.02-13.58-24.27 0.02 24.29-12.91 0.02z"/>
  <path d="m279.08 206.22c19.93-8.99 42.75-9.46 63.92-5.19 16.18 3.45 32.2 11.28 42.17 24.9 7.55 10.29 10.61 23.18 10.88 35.78-14.05-0.02-28.1-0.01-42.15 0-0.21-8.64-3.58-17.72-10.86-22.83-8.07-5.84-18.42-6.65-28.05-6.95-7.86 0.3-16.1 1.81-22.42 6.81-6.89 5.32-9.02 15.45-5.79 23.36 2.84 5.7 9.26 8.1 14.84 10.27 17.65 6.05 36 9.71 53.92 14.83 13.87 4.05 27.61 10.88 36.69 22.48 10.39 13.17 12.23 31.38 8.27 47.29-3.31 13.99-12.62 26.11-24.66 33.79-17.4 11.04-38.56 14.28-58.85 13.74-21.55-0.52-43.94-6.56-60.28-21.19-13.65-12.17-20.43-30.73-19.84-48.81 13.92 0.04 27.84 0.06 41.76-0.01-0.07 9.89 3.48 20.24 11.34 26.62 10.2 8.53 24.22 10.34 37.08 9.68 9.22-0.64 18.99-2.49 26.33-8.51 7.16-5.74 9.38-16.71 5.03-24.78-2.65-4.93-7.45-8.23-12.35-10.67-7.77-3.73-16.16-5.91-24.47-8.1-16.6-4.15-33.57-7.69-49.02-15.29-10.3-5.1-19.82-12.84-24.6-23.53-5.73-12.88-5.81-27.97-1.18-41.19 5.31-14.93 18.01-26.27 32.29-32.5z"/>
  <path d="m886.11 209.83c14.04-7.55 30.05-10.89 45.91-11 17.12-0.21 34.44 4.07 49.03 13.16 15.07 9.21 26.82 23.93 31.86 40.91 1.66 5.03 2.38 10.28 3.31 15.48-13.81-0.05-27.62-0.11-41.42-0.04-2.29-10.35-8.03-20.16-16.94-26.13-11.35-7.69-26.09-8.44-39.11-5.33-13.68 3.2-24.96 13.51-30.9 26.04-7.01 14.6-8.99 31.2-8 47.24 1.28 15.79 5.77 32.27 17.02 43.96 8.42 9.16 20.8 13.98 33.11 14.46 12.25 0.53 25.37-1.84 34.97-9.96 9.58-7.85 13.99-20.39 14.94-32.42-14.46 0.12-28.93-0.06-43.4 0-0.07-10.81 0.03-21.62-0.05-32.43 27.58 0.07 55.15 0.02 82.73 0.01-0.13 32.08 0.3 64.18-0.29 96.25-0.01 3.45-0.07 6.9 0.16 10.34-9.2-0.1-18.39-0.06-27.59-0.04-1.39-7.5-3.09-14.94-4.32-22.47-8.69 11.67-21.18 20.54-35.19 24.56-13.38 3.8-27.57 2.91-41.08 0.39-17.55-3.58-34.18-12.19-46.59-25.19-14.76-15.1-23.5-35.37-26.51-56.11-2.95-21.45-1.13-43.81 6.82-64.05 7.76-20.04 22.35-37.66 41.53-47.63z"/>
  <path d="m41.34 399.79-0.02-196.96 138.06 0.06-0.04 36.46-95.1-0.07-0.02 45.51 82.36-0.07v33.72l-82.38-0.11 0.05 81.47z"/>
  <path d="m186.29 202.87 43.14 0.09-0.07 196.83h-43.12z"/>
  <path d="m409.85 203.01 43.4-0.02-0.08 75.69 79.64 0.03v-75.68l43.38 0.16-0.33 196.68-43.21 0.31 0.13-85.06h-79.62l0.01 84.8-43.41-0.08z"/>
  <path d="m595.82 203.19 43.43 0.05-0.09 197-43.41-0.07z"/>
  <path d="m658.99 203.27 43.19 0.21 82.4 132.48 0.06-132.54 40.64 0.03-0.12 196.85-43.29-0.01-82.24-132.48-0.23 132.43-40.59 0.03z"/>
 </g>
 <g transform="translate(-41.29 -36.408)">
  <path d="m1152.5 157.39 0.08 30.91 63.89 0.04-0.13 173.15 33.89-0.04 0.12-173.09 58.41 0.03-11.48-30.97-144.78-0.03m168.72 0.03 76.28 204.06h31.72l76.66-203.98-35.15-0.04-56.69 147.81-57.1-147.7z" fill="#fff"/>
  <path d="m1530.3 377.39c3.58-1.58 6.98-3.8 10.95-4.3-17.84 34.87-44.03 65.58-76.45 87.67-45.21 31.51-102.01 45.66-156.73 39.61-11.05-0.94-21.83-3.61-32.71-5.56 5.79-1.26 11.76-0.96 17.61-1.85 24.65-2.72 48.8-9.5 71.56-19.32 59.1-25.22 107.79-68.93 165.77-96.25z" fill="#f95709"/>
 </g>
</svg>
