<svg id="a" width="67.105mm" height="10.386mm" version="1.1" viewBox="0 0 67.105 10.386" xmlns="http://www.w3.org/2000/svg">
 <g id="b" transform="translate(50.562 -143.64)" fill="#fff" stroke-width=".35278">
  <path id="c" d="m-47.111 143.66h3.1503l-3.4996 10.128h-3.1009z"/>
  <path id="d" d="m-42.434 143.68h9.4262l-0.74436 2.1625h-3.1115l-2.8187 7.9375h-3.0727l2.7234-7.9375h-3.1926z"/>
  <path id="e" d="m-36.129 153.8 7.2778-10.155h3.4502l0.28222 10.155h-3.2209l0.0071-1.7039h-3.5031l-1.1007 1.7039zm5.8279-4.154h2.1837l0.08819-3.4096z"/>
  <path id="f" d="m-20.657 143.65h3.1503l-2.6282 7.6941h4.8225l-0.83608 2.4483h-7.9587z"/>
  <path id="g" d="m-11.153 143.67h3.1503l-3.4996 10.128h-3.1009z"/>
  <path id="h" d="m-10.345 153.81 7.2778-10.155h3.4502l0.28222 10.155h-3.2209l0.0071-1.7039h-3.5031l-1.1007 1.7039zm5.8279-4.154h2.1837l0.08819-3.4096z"/>
  <path id="i" d="m9.6946 143.67h3.1803v3.5154h3.6689v3.3038h-3.6689v3.5384h-3.1803v-3.5384h-3.6248v-3.3038h3.6248z"/>
 </g>
</svg>
