<?xml version="1.0" encoding="UTF-8"?>
<svg id="svg24" width="245.2pt" height="233.33pt" version="1.1" viewBox="0 0 245.2 233.33" xmlns="http://www.w3.org/2000/svg" xmlns:cc="http://creativecommons.org/ns#" xmlns:dc="http://purl.org/dc/elements/1.1/" xmlns:rdf="http://www.w3.org/1999/02/22-rdf-syntax-ns#">
 <metadata id="metadata30">
  <rdf:RDF>
   <cc:Work rdf:about="">
    <dc:format>image/svg+xml</dc:format>
    <dc:type rdf:resource="http://purl.org/dc/dcmitype/StillImage"/>
    <dc:title/>
   </cc:Work>
  </rdf:RDF>
 </metadata>
 <g id="#000000ff" transform="translate(-23.95,-22.19)" fill="#fff">
  <path id="path13" d="m96.386 22.19h9.7436l-7.74 38.815h-28.74l-32.28 140.46h20.46c1.09-5.7 2.47-11.26 3.5-16.96 3.1898-14.775 12.381-17.781 20.6-23.55-3.55-4.26-8.04-8.31-9.1-14-1.12-3.58 0.49-7.11 1.35-10.55 5.12-17.98 10.26-35.95 15.4-53.93 2.5766-9.6162 14.652-14.93 23.98-14.93 32.83-0.14 65.67 0.01 98.5-0.07 22.376 0 20.306 15.865 15.8 36.09-2.99 13.02-6.54 25.91-9.41 38.96-3.4 8.22-10.1 14.87-18.26 18.37 6.9803 6.911 11.692 12.472 8.71 23.6-1.57 5.63-2.84 11.41-4.66 16.97h19.07l32.53-140.46h-23.25l-0.66-6.005-10.21-0.02-2.15 6.025h-10.07l19.43-38.815h10.49l2.09 29.81 27.64 0.01-35.78 160.02h-31.91c-3.14 10.07-4.25 21.395-10.1 30.415-4.09 6.3-10.469 12.98-17.76 12.98-35.35 0.16-70.71 0.05-106.06 0.06-10.076 0-18.838-10.144-16.46-21.29 1.45-7.41 3.25-14.715 4.49-22.165h-31.62l36.15-160.06 30.27 0.02m135.94-5.99 5.77-0.01-0.49-11.35-5.28 11.36m-92.37 61.73c-3.61 1.07-6.68 3.97-7.76 7.61-1.4 5.41-2.94 10.79-4.12 16.26-0.71228 3.3497 4.9217 5.5522 7.9 5.4 11.7 0 23.4-0.03 35.1 0.01 3.15 0.16 6.3-1.13 8.49-3.39 3.42-4.36 4.24-10 6.03-15.1 0.57-2.18 1.88-4.45 1.05-6.74-0.39-3.11-3.63-5.05-6.58-4.8-13.38 0.1-26.8-0.37-40.11 0.75m-34 80.6c-1.56 2.81-1.82 6.08-2.68 9.14-1.21 5.23-2.81 10.39-3.78 15.68-1.0903 4.4699 4.442 8.3 8.38 8.3 16.08 0.08 32.17 0.04 48.25 0.02 6.68 0.01 12.42-5.08 14.25-11.32 2-7.06 4.56-13.95 6.22-21.09-0.19-4.29-2.83-8.56-7.4-9.02-16.08-0.14-32.16 0.02-48.24-0.07-6.06-0.4-11.89 3.29-15 8.36z"/>
  <path id="path15" d="m111.13 22.19h28.44l-1.67 10.3h-9.76l-6.21 28.515h-9.56l6.03-28.515h-9.39z"/>
  <path id="path17" d="m149.58 22.19h10.86l2.57 38.815h-9.41l-0.66-5.98h-10.12l-2.56 5.98h-10l19.32-38.815m-2.27 23.815h5.7l-0.98-10.895z"/>
  <path id="path19" d="m174.61 22.19h9.51l-5.26 29.335h13.77l-1.67 9.48h-24.379z"/>
  <path id="path21" d="m204.06 22.19h9.56l-7.71 38.815h-9.95z"/>
 </g>
</svg>
