<?xml version="1.0" encoding="UTF-8"?>
<svg width="600" height="600" version="1.1" viewBox="0 0 158.75 158.75" xmlns="http://www.w3.org/2000/svg">
 <g transform="translate(38.331 -87.637)">
  <path d="m116.59 157.66-49.721-49.63v-9.3849c0-9.0735-9.8546-13.186-17.127-7.7098-5.1532-4.5636-12.985-4.381-17.923 0.50468l-66.325 66.22c-5.0995 5.0898-5.0995 13.315 0 18.405l49.639 49.534c0 5.6696 0.01076 9.7285 0.01076 10.91 0 6.8615 9.5211 14.378 17.525 6.5394 5.1317 4.2952 12.781 4.0267 17.601-0.77314l66.325-66.21c5.0995-5.0898 5.0995-13.315 0-18.405m-144.73 12.112c-1.646-1.6644-1.646-4.3274 0-5.981l66.177-66.05c1.4309-1.4281 3.604-1.6107 5.2393-0.55837l-44.56 44.558c-6.0677 6.8722-3.0446 16.944 9.3705 16.944h6.9929s0.01076 31.258 0.04303 54.248zm52.221 64.309v-12.209l0.01076-71.954h-14.822c-4.54-0.0215-5.121-0.97716-2.6143-3.4576l43.044-43.048 5.6804-5.6696c0.09683-0.12885 0.20441-0.2255 0.32275-0.32214 0.09683-0.09665 0.20441-0.16107 0.29048-0.2255 1.3233-0.97715 1.8935 0.32214 1.958 1.9221 0.01076 0.24697 0 0.49394-0.01076 0.75165v101.8c0.24744 4.22-1.9365 5.3045-1.9365 5.4978l-28.262 28.187c-0.16138 0.15034-0.30123 0.30066-0.44109 0.42953-0.10758 0.0859-0.19365 0.18254-0.29048 0.2577-0.03228 0.0322-0.07531 0.0752-0.10758 0.0966-0.11834 0.0966-0.22593 0.19327-0.33351 0.27918-0.01076 0-0.02152 0.0108-0.02152 0.0108-0.1291 0.0859-0.21517 0.1718-0.33351 0.24697-1.5492 1.0308-2.1194 0.15033-2.1409-2.5878m86.097-64.32-66.173 66.03c-1.3125 1.31-3.2813 1.5785-4.8305 0.7946l25.283-25.26c0-0.2255 2.4099-2.2979 2.4099-6.8615v-83.916l43.313 43.241c1.6675 1.6536 1.6675 4.3166 0 5.981" fill="#238cc6"/>
 </g>
</svg>
