<svg id="a" width="841.74pt" height="827.25pt" version="1.1" viewBox="0 0 841.74 827.25" xmlns="http://www.w3.org/2000/svg">
 <g id="b" transform="translate(-79.03 -86.229)" fill="#636363">
  <path id="c" d="m79.04 701.25 66.17-0.01 0.03 70.02 91.21-0.02 0.07 40.44-157.49 0.07 0.01-110.5"/>
  <path id="d" d="m285.39 701.28 99.6-0.03 46.57 110.42-69.26 0.06-5.25-12.76-43.69 0.06-4.96 12.7-69.24-0.03 46.23-110.42m49.91 46.33-7.26 17.42h14.5z"/>
  <path id="e" transform="scale(.75)" d="m701.93 114.97c-14.086 0.0286-28.164 0.96859-42.129 2.9336-15.467 1.7733-30.281 6.7062-45.188 10.906-30.987 10.68-59.427 28.2-83.547 50.307l-244.39 243.59c-8.4933 7.5067-15.293 16.653-23.359 24.6-4.9467 5-8.5346 11.08-12.588 16.773-7.0933 9.6667-12.812 20.24-18.785 30.6-13.4 26.813-21.028 56.241-24.268 85.975-1.5733 19.227-2.8936 38.666-0.32031 57.879 2.3867 30.187 8.68 60.279 20.387 88.279 8.4267 23.227 21.533 44.414 35.68 64.547 7.4933 9.7333 15.547 19.014 23.641 28.24 15.613 15.6 32.119 30.467 50.439 42.854 21.227 14.16 44.201 25.893 68.428 33.986 23.253 8.04 47.654 11.921 72.027 14.561 27.76 2.1467 55.812 1.1067 83.252-3.6667l105.61 0.493-110.52 110.32c42.52 42.413 85.066 84.788 127.29 127.49 23.893 24.293 48.48 47.905 72.24 72.332l400.73-400.12c10.907-10.147 20.012-22 28.852-33.92 5.04-7.12 8.9075-14.974 13.574-22.334 15.04-29.053 24.306-61.04 27.373-93.6 1.9067-15.813 1.2262-31.772 1.1329-47.652-1.0534-11.72-1.2932-23.56-3.8399-35.08-3.68-21.24-8.8518-42.348-17.398-62.188-9.0267-22.84-21.654-44.121-36.268-63.801-9.4267-13.027-20.881-24.333-31.881-36l-216.68-216.65c-39.92-42.24-92.506-72.747-149.52-84.707-23.017-4.5083-46.513-6.9949-69.99-6.9473zm108.28 596.07v8.4131h-159.77v-8.4131z" stroke-width="1.3333"/>
 </g>
 <path id="f" d="m356.25 194.21c10.88-3.45 22.32-5.27 33.75-4.93l242.65-0.02-0.01 92.03-218.71-0.06c-7.96-0.2-16.46 1.42-22.39 7.12-7.56 7.23-9.28 18.54-7.54 28.47 0.92 11.75 10.89 22.44 22.88 22.94l132.1 0.01c12.05-0.12 24.2 0.53 36.01 3.11 6.41 1.83 12.56 4.51 18.64 7.23 17.72 9.44 32.43 23.89 43.52 40.53 3.75 6.09 7.69 12.13 10.17 18.88 6.1 12.84 8.48 27.08 9.13 41.18 0.45 17.67-2.05 35.75-9.66 51.84-3.75 9.56-9.6 18.12-15.65 26.36-9.46 11.53-20.39 22.05-33.26 29.72-13.14 7.14-27.8 12.25-42.91 12.09l-176.42 0.0569c-24.621-1.3635-50.342-17.553-65.038-34.497-10.42-11.22-18.66-24.41-24.34-38.62-5.21-12.27-6.82-25.67-7.65-38.86l-0.03-149.03c-0.44-18.67 2.23-37.86 10.67-54.7 4.35-10.59 11.23-19.86 18.66-28.47 12.43-13.99 27.65-26.04 45.43-32.38m47.23 228.2c-4.84 1.04-9.56 3.22-13.05 6.8-4.07 4.6-6.42 10.56-6.9 16.68-0.83 9.9 1.69 21.12 9.93 27.46 4.24 2.96 9.18 5.57 14.49 5.45 40.01-0.07 80.03-0.02 120.04-0.01 7.52-0.02 14.81-3.58 19.82-9.12 3.34-3.86 4.65-8.95 5.75-13.81 1.4-8.63 0.29-18.19-5.47-25.11-5.47-6.92-14.68-9.25-23.13-9.24-37.32-0.01-74.64 0.02-111.96-0.01-3.19 0.02-6.39 0.25-9.52 0.91z" fill="#fff"/>
 <path id="g" d="m215.26 628.83 39.82-0.09-26.18 63.76 54.65-0.04-25.94-63.72 39.46-0.01 35.03 83.07-39.88-0.06-4.99-12.46-61.75-0.05-5.35 12.59-39.77-0.02z" fill="#fff"/>
 <path id="h" d="m13.46 628.74 39.28 0.03-0.02 69.97h91.28v13.06l-130.54 0.01z" fill="#fff"/>
 <g id="i" transform="translate(-79.03 -86.229)">
  <path id="j" d="m490.4 114.67c25.33-4.67 51.41-3.97 76.76 0.17 21.95 4.27 43.62 11.38 62.65 23.31 26.39 14.54 46.2 37.74 67.5 58.49l144.85 145.25c7.86 7.87 14.52 16.82 21.09 25.78 4.99 8.44 10.64 16.56 14.49 25.64 4.1 8.98 7.59 18.25 10.33 27.74 2.92 12.34 6.21 24.73 6.71 37.47 1.11 9.48 0.65 19.03 0.72 28.54-0.53 16.35-3.37 32.62-8.34 48.2-5.3 17.25-14.51 33.13-25.7 47.21-5.15 6.79-11.41 12.59-17.27 18.72l-277.19 276.68-113.98-114.12 81.43-81.39 82.48-0.07c13.58-0.08 27.43 0.74 40.68-2.9 17.08-4.69 33.67-12.06 47.38-23.42 13.73-11.62 26.31-24.87 35.37-40.5 7.8-13.48 14.48-27.93 17.25-43.36 5.37-24.77 3.83-50.85-3.47-75.06-5.82-15.25-12.92-30.25-23.24-43.02-9.4-12.49-20.97-23.26-33.75-32.23-7.85-6.02-17.08-9.81-26.22-13.4-13.46-6.02-28.47-6.6-42.95-7.67l-140.17 0.04-0.13-7.76 249.23-0.28-0.01-142.46-274.91 0.02c-16.32 0.64-32.55 4.45-47.29 11.53-13.5 6.7-25.66 15.92-36.39 26.46-14.02 14.27-26.31 30.73-33.18 49.68-6.19 14.55-8.9 30.33-9.83 46.03l-0.02 158.08c0.05 25.65 6.7 51.48 20.45 73.25 9.11 15.03 20.59 28.73 34.37 39.68l4.1336 3.36c-24.142 0.66644-45.764-0.19986-67.284-5.65-18.2-4.87-35.9-11.85-51.95-21.8-13.36-7.82-25.26-17.85-36.36-28.58-12.02-12.19-23.13-25.43-31.61-40.36-8.37-14.06-15.29-29.13-19.38-45.01-10.87-39.56-11.28-82.73 3.11-121.47 4.38-10.93 9.48-21.7 16.54-31.18 4.89-6.71 9.68-13.58 15.62-19.42l194.22-193.82c9.53-8.01 19.5-15.64 30.66-21.25 13.2-7.49 27.89-11.77 42.6-15.15z" fill="#ffa202"/>
 </g>
</svg>
