<svg id="a" width="139.35mm" height="68.193mm" version="1.1" viewBox="0 0 139.35 68.193" xmlns="http://www.w3.org/2000/svg">
 <g id="b" transform="translate(86.684 -114.74)">
  <g id="c" transform="matrix(.35278 0 0 .35278 -87.739 78.101)" fill="#c96cf0">
   <path id="d" d="m2.9902 103.88h26.35v167.06h81.33v26.035h-107.68z"/>
   <path id="e" d="m252.56 103.9h35.435v193.14h-35.435v-20.985c-9.58 7.66-20.325 13.99-32.195 17.35-22.71 6.69-48.09 4.44-69-6.8-15.63-8.29-28.7-21.21-37.34-36.64-15.73-27.42-17.08-62.61-3.16-91.04 10.43-22.13 29.8-40.07 52.97-48.13 19.59-6.99 41.63-6.97 61.18 0.16 10.15 3.49 19.205 9.24 27.545 15.92zm-66.195 37.56c-27.72 3.23-50.42 28.74-51.2 56.49-0.8 13.9 3.27 28.08 11.58 39.29 10.58 15.13 28.7 24.82 47.24 24.59 13.08 0.26 25.96-4.65 36.23-12.61 11.88-9.42 20.085-23.46 22.345-38.45v-19.53c-2.82-15.75-11.855-30.59-25.145-39.69-11.74-8.41-26.75-12.12-41.05-10.09z"/>
   <path id="f" d="m295.06 103.85h57.645l17.7 40.22 17.7-40.22h9.89l-27.59 63.95-24.58-55.47h-20.61l-0.24 55.47h-8.8l-0.34-55.47h-20.775z"/>
   <path id="g" d="m187.34 170.35c7.2-1.64 14.93-0.53 21.5 2.79 9.38 5.12 16.14 15.08 16.66 25.85 1.03 13.09-7.14 26.28-19.35 31.14-13.92 6.04-31.73 0.15-39.09-13.18-7.99-12.89-4.58-31.19 7.45-40.4 3.74-2.99 8.14-5.18 12.83-6.2z"/>
  </g>
 </g>
</svg>
