<?xml version="1.0" encoding="UTF-8"?>
<svg id="svg139" width="89.62mm" height="67.866mm" version="1.1" viewBox="0 0 89.62 67.866" xmlns="http://www.w3.org/2000/svg" xmlns:cc="http://creativecommons.org/ns#" xmlns:dc="http://purl.org/dc/elements/1.1/" xmlns:rdf="http://www.w3.org/1999/02/22-rdf-syntax-ns#" xmlns:xlink="http://www.w3.org/1999/xlink">
 <metadata id="metadata145">
  <rdf:RDF>
   <cc:Work rdf:about="">
    <dc:format>image/svg+xml</dc:format>
    <dc:type rdf:resource="http://purl.org/dc/dcmitype/StillImage"/>
    <dc:title/>
   </cc:Work>
  </rdf:RDF>
 </metadata>
 <linearGradient id="a" x1="56.385" x2="98.082" y1="30.271" y2="49.715" gradientUnits="userSpaceOnUse">
  <stop id="stop2" stop-color="#f6a01a" offset="0"/>
  <stop id="stop4" stop-color="#f9ab1d" offset=".11"/>
  <stop id="stop6" stop-color="#fcb922" offset=".32"/>
  <stop id="stop8" stop-color="#fec124" offset=".57"/>
  <stop id="stop10" stop-color="#ffc425" offset="1"/>
 </linearGradient>
 <filter id="b" x="-.045432" y="-.050876" width="1.0909" height="1.1018" color-interpolation-filters="sRGB">
  <feGaussianBlur id="feGaussianBlur13" stdDeviation="4.0959181"/>
 </filter>
 <linearGradient id="c" x1="126.56" x2="128.13" y1="81.89" y2="99.81" gradientUnits="userSpaceOnUse" xlink:href="#d"/>
 <linearGradient id="d" x1="126.56" x2="128.13" y1="81.89" y2="99.81" gradientUnits="userSpaceOnUse">
  <stop id="stop17" stop-color="#8c8c8c" offset=".03"/>
  <stop id="stop19" stop-color="#d9d9d9" offset=".77"/>
 </linearGradient>
 <linearGradient id="e" x1="107.13" x2="242.11" y1="-4.18" y2="156.69" gradientUnits="userSpaceOnUse">
  <stop id="stop22" stop-color="#fff" offset=".5"/>
  <stop id="stop24" stop-color="#d9d9d9" offset="1"/>
 </linearGradient>
 <linearGradient id="f" x1="205.54" x2="251.8" y1="103.72" y2="149.97" gradientUnits="userSpaceOnUse" xlink:href="#g"/>
 <linearGradient id="g" x1="205.54" x2="251.8" y1="103.72" y2="149.97" gradientUnits="userSpaceOnUse">
  <stop id="stop28" stop-color="#d9d9d9" offset=".02"/>
  <stop id="stop30" stop-color="#8c8c8c" offset=".65"/>
 </linearGradient>
 <linearGradient id="h" x1="149.13" x2="152.76" y1="184.22" y2="225.68" gradientUnits="userSpaceOnUse">
  <stop id="stop33" stop-color="#d9d9d9" offset="0"/>
  <stop id="stop35" stop-color="#b4b4b4" offset=".12"/>
  <stop id="stop37" stop-color="#828282" offset=".29"/>
  <stop id="stop39" stop-color="#5e5e5e" offset=".44"/>
  <stop id="stop41" stop-color="#484848" offset=".57"/>
  <stop id="stop43" stop-color="#404040" offset=".65"/>
 </linearGradient>
 <linearGradient id="i" x1="515.6" x2="419.88" y1="264.13" y2="219.49" gradientUnits="userSpaceOnUse">
  <stop id="stop46" stop-color="#d9d9d9" offset="0"/>
  <stop id="stop48" stop-color="#fcfcfc" offset=".5"/>
  <stop id="stop50" stop-color="#b3b3b3" offset="1"/>
 </linearGradient>
 <linearGradient id="j" x1="483.79" x2="509.14" y1="256.68" y2="326.34" xlink:href="#k"/>
 <linearGradient id="k" x1="620.09" x2="620.09" y1="186.59" y2="186.59" gradientUnits="userSpaceOnUse">
  <stop id="stop54" stop-color="#ccc" offset="0"/>
  <stop id="stop56" stop-color="#a6a6a6" offset="1"/>
 </linearGradient>
 <linearGradient id="l" x1="119.35" x2="225.8" y1="-22.99" y2="83.46" xlink:href="#k"/>
 <linearGradient id="m" x1="71.01" x2="62.21" y1="86.42" y2="30.85" xlink:href="#k"/>
 <linearGradient id="n" x1="-.5341" x2="6.3476" y1="31.541" y2="38.423" xlink:href="#g"/>
 <linearGradient id="o" x1="18.195" x2="20.881" y1="33.44" y2="36.126" xlink:href="#g"/>
 <linearGradient id="p" x1="11.981" x2="14.081" y1="40.521" y2="42.622" xlink:href="#g"/>
 <linearGradient id="q" x1="7.6282" x2="7.8346" y1="41.453" y2="43.805" xlink:href="#d"/>
 <linearGradient id="r" x1="21.243" x2="21.41" y1="38.849" y2="40.751" xlink:href="#d"/>
 <linearGradient id="s" x1="3.1858" x2="21.894" y1="26.069" y2="48.365" gradientUnits="userSpaceOnUse">
  <stop id="stop66" stop-color="#fcfcfc" offset=".25"/>
  <stop id="stop68" stop-color="#f2f2f2" offset="1"/>
 </linearGradient>
 <linearGradient id="t" x1="28.596" x2="28.707" y1="41.987" y2="43.281" xlink:href="#d"/>
 <linearGradient id="u" x1="20.447" x2="31.872" y1="30.179" y2="41.603" xlink:href="#g"/>
 <linearGradient id="v" x1="15.092" x2="16.616" y1="40.457" y2="41.978" xlink:href="#g"/>
 <clipPath id="w">
  <path id="path74" width="100%" height="100%" d="m2732.6 0 403.9 1.058 1 2377.4-1779.4-0.3z"/>
 </clipPath>
 <path id="path77" d="m89.62 67.87v-67.866h-11.538l-39.227 67.866z" fill="url(#a)" stroke-width=".26458"/>
 <g id="g83" transform="matrix(.028533 0 0 .028533 -.000123 .000175)" clip-path="url(#w)" fill="#fff">
  <path id="path79" d="m1978.1 2321v-564.9h124.28v223.54h229.19v-223.54h124.28v564.9h-124.28v-226.77h-229.19v226.77z"/>
  <path id="path81" d="m2537.9 2321v-564.9h220.31c87.686 0 159.65 26.771 215.87 80.297 56.212 53.539 84.331 120.38 84.331 200.54v1.614c0 80.7-28.119 147.96-84.331 201.75-56.226 53.805-128.19 80.7-215.87 80.7zm124.28-112.17h96.032c50.563 0 91.595-15.598 123.07-46.806 31.474-31.196 47.21-71.823 47.21-121.86v-1.614c0-50.034-15.736-90.913-47.21-122.66-31.473-31.737-72.504-47.612-123.07-47.612h-96.032z"/>
 </g>
 <path id="path85" transform="scale(.26458)" d="m80.659 49.479-0.0195 56.791h0.0606v0.15039l-0.0195 0.0195h0.15426l6.6055 7.3398h104.09l-53.422 91.93 7.4004 10.65 47.34 26.34 104.16-182.17-3.4609-11.039h-0.0391z" fill="#383838" filter="url(#b)" opacity=".3"/>
 <g id="g109" transform="matrix(.26458 0 0 .26458 .003 -.74)">
  <path id="path87" d="m68.34 87.98 114.84-0.07-56.58 97.36 5.25 10.44 46.39 25.8 101.74-178.23-3.05-11.11-208.63-0.01z" fill="#fff"/>
  <path id="path89" d="m66.28 87.16h115.5l6.63 7.37h-115.5z" fill="url(#c)"/>
  <path id="path91" d="m66.11 87.02 0.02-56.79 212.89 0.01-106.15 184.55-48.79-28.33 57.65-99.51z" fill="url(#e)"/>
  <path id="path93" d="m178.32 223.45-5.45-8.66 106.15-184.55 3.46 11.04z" fill="url(#f)"/>
  <path id="path95" d="m130.98 197.11-7.4-10.65 49.29 28.33 5.45 8.66z" fill="url(#h)"/>
  <g id="g103" transform="translate(-343.02 -155.22)">
   <path id="path97" d="m466.6 341.68 49.29 28.32 106.11-184.54-1.95 1.13-104.58 181.88-47.34-27.21z" fill="#fff"/>
   <path id="path99" d="m526.29 241.21-116 0.07-1.12 1.13 115.14-0.07z" fill="url(#i)"/>
   <path id="path101" d="m524.33 242.34-57.73 99.34 1.54-0.41 57.16-98.37 1-1.69z" fill="url(#j)"/>
  </g>
  <path id="path105" d="m277.08 31.37 1.94-1.13-212.89-0.01 1.12 1.12z" fill="url(#l)"/>
  <path id="path107" d="m67.3 86.06-0.05-54.71-1.12-1.12 0.04 56.96z" fill="url(#m)"/>
 </g>
 <g id="g135" stroke-width=".26458">
  <path id="path111" d="m2.397 28.62 1.0319 1.2303-0.01323 11.512-1.0795-1.2938z" fill="url(#n)"/>
  <path id="path113" d="m20.797 30.83 1.2012 1.4473z" fill="#838484"/>
  <path id="path115" d="m20.797 30.84 1.2012 1.4473z" fill="#898989"/>
  <path id="path117" d="m20.794 30.84 1.2012 1.4473z" fill="#8f8f8e"/>
  <path id="path119" d="m20.789 30.85 1.2012 1.4473c-0.15875 0.26459-2.2066 3.9688-3.7042 6.4188l-1.2012-1.4473c1.4896-2.458 3.5375-6.1568 3.7042-6.4188" fill="url(#o)"/>
  <path id="path121" d="m12.483 40.02 1.0848 1.2541 0.0079 1.8574-1.2012-1.4499z" fill="url(#p)"/>
  <path id="path123" d="m14.56 42.09 0.89165 1.0504h-14.576l-0.86519-1.0186z" fill="url(#q)"/>
  <path id="path125" d="m25.504 39.29 0.89165 1.0292h-9.3636l-0.77258-1.0292z" fill="url(#r)"/>
  <path id="path127" d="m21.934 28.66 7.4321 13.436h-2.3812c-0.03175-0.0608-0.64294-1.2118-1.4896-2.8019h-9.2366c-0.96573 1.5875-1.6616 2.7411-1.6986 2.8019h-14.51l0.05027-13.436h2.2595l-0.02381 11.409h10.096v1.651l7.4745-13.06zm-4.8419 8.6122h7.3369c-1.3626-2.5612-3.6301-6.4347-3.6301-6.4347s-2.1537 3.8735-3.7042 6.4347" fill="url(#s)"/>
  <path id="path129" d="m29.427 42.11 0.90752 1.0319h-2.4395l-0.92604-1.0081z" fill="url(#t)"/>
  <path id="path131" d="m21.987 28.64 1.1483 1.4605 7.1967 13.044-0.87048-0.99483z" fill="url(#u)"/>
  <path id="path133" d="m15.452 43.14 1.5875-2.8284-0.78052-1.0239-1.7092 2.8019 0.88371 1.0583" fill="url(#v)"/>
 </g>
 <path id="path137" d="m14.55 42.09h-14.499l0.05027-13.436h2.2595v11.409h10.073v1.651l7.4745-13.06h2.0214l7.4374 13.436h-2.3812c-0.03175-0.0608-0.64294-1.2118-1.4896-2.8019h-9.2366zm2.5321-4.8234 3.7042-6.4347-3.7042 6.4347h7.3369z" fill="none" stroke="#bfbfbf" stroke-miterlimit="10" stroke-width=".10054"/>
</svg>
