<?xml version="1.0" encoding="UTF-8"?>
<!-- Created with Inkscape (http://www.inkscape.org/) -->
<svg id="svg4762" width="89.62mm" height="67.866mm" version="1.1" viewBox="0 0 89.62 67.866" xmlns="http://www.w3.org/2000/svg" xmlns:cc="http://creativecommons.org/ns#" xmlns:dc="http://purl.org/dc/elements/1.1/" xmlns:rdf="http://www.w3.org/1999/02/22-rdf-syntax-ns#" xmlns:xlink="http://www.w3.org/1999/xlink">
 <defs id="defs4756">
  <linearGradient id="a" x1="213.11" x2="370.71" y1="114.41" y2="187.9" gradientTransform="matrix(.26458 0 0 .26458 -61.819 114.9)" gradientUnits="userSpaceOnUse">
   <stop id="stop2" stop-color="#f6a01a" offset="0"/>
   <stop id="stop4" stop-color="#f9ab1d" offset=".11"/>
   <stop id="stop6" stop-color="#fcb922" offset=".32"/>
   <stop id="stop8" stop-color="#fec124" offset=".57"/>
   <stop id="stop10" stop-color="#ffc425" offset="1"/>
  </linearGradient>
  <filter id="v" x="-.045432" y="-.050876" width="1.0909" height="1.1018" color-interpolation-filters="sRGB">
   <feGaussianBlur id="feGaussianBlur71" stdDeviation="4.0959181"/>
  </filter>
  <linearGradient id="t" x1="126.56" x2="128.13" y1="81.89" y2="99.81" gradientUnits="userSpaceOnUse" xlink:href="#b"/>
  <linearGradient id="b" x1="126.56" x2="128.13" y1="81.89" y2="99.81" gradientUnits="userSpaceOnUse">
   <stop id="stop13" stop-color="#8c8c8c" offset=".03"/>
   <stop id="stop15" stop-color="#d9d9d9" offset=".77"/>
  </linearGradient>
  <linearGradient id="c" x1="107.13" x2="242.11" y1="-4.18" y2="156.69" gradientUnits="userSpaceOnUse">
   <stop id="stop18" stop-color="#fff" offset=".5"/>
   <stop id="stop20" stop-color="#d9d9d9" offset="1"/>
  </linearGradient>
  <linearGradient id="u" x1="205.54" x2="251.8" y1="103.72" y2="149.97" gradientUnits="userSpaceOnUse" xlink:href="#d"/>
  <linearGradient id="d" x1="205.54" x2="251.8" y1="103.72" y2="149.97" gradientUnits="userSpaceOnUse">
   <stop id="stop23" stop-color="#d9d9d9" offset=".02"/>
   <stop id="stop25" stop-color="#8c8c8c" offset=".65"/>
  </linearGradient>
  <linearGradient id="e" x1="149.13" x2="152.76" y1="184.22" y2="225.68" gradientUnits="userSpaceOnUse">
   <stop id="stop28" stop-color="#d9d9d9" offset="0"/>
   <stop id="stop30" stop-color="#b4b4b4" offset=".12"/>
   <stop id="stop32" stop-color="#828282" offset=".29"/>
   <stop id="stop34" stop-color="#5e5e5e" offset=".44"/>
   <stop id="stop36" stop-color="#484848" offset=".57"/>
   <stop id="stop38" stop-color="#404040" offset=".65"/>
  </linearGradient>
  <linearGradient id="g" x1="515.6" x2="419.88" y1="264.13" y2="219.49" gradientUnits="userSpaceOnUse">
   <stop id="stop46" stop-color="#d9d9d9" offset="0"/>
   <stop id="stop48" stop-color="#fcfcfc" offset=".5"/>
   <stop id="stop50" stop-color="#b3b3b3" offset="1"/>
  </linearGradient>
  <linearGradient id="h" x1="483.79" x2="509.14" y1="256.68" y2="326.34" xlink:href="#f"/>
  <linearGradient id="f" x1="620.09" x2="620.09" y1="186.59" y2="186.59" gradientUnits="userSpaceOnUse">
   <stop id="stop41" stop-color="#ccc" offset="0"/>
   <stop id="stop43" stop-color="#a6a6a6" offset="1"/>
  </linearGradient>
  <linearGradient id="i" x1="119.35" x2="225.8" y1="-22.99" y2="83.46" xlink:href="#f"/>
  <linearGradient id="j" x1="71.01" x2="62.21" y1="86.42" y2="30.85" xlink:href="#f"/>
  <linearGradient id="k" x1="-2.03" x2="23.98" y1="122.01" y2="148.02" gradientTransform="matrix(.26458 0 0 .26458 -61.816 114.16)" xlink:href="#d"/>
  <linearGradient id="l" x1="68.771" x2="78.921" y1="126.39" y2="136.54" gradientTransform="matrix(.26458 0 0 .26458 -61.819 114.9)" xlink:href="#d"/>
  <linearGradient id="m" x1="45.27" x2="53.21" y1="155.95" y2="163.89" gradientTransform="matrix(.26458 0 0 .26458 -61.816 114.16)" xlink:href="#d"/>
  <linearGradient id="n" x1="28.82" x2="29.6" y1="159.47" y2="168.36" gradientTransform="matrix(.26458 0 0 .26458 -61.816 114.16)" xlink:href="#b"/>
  <linearGradient id="o" x1="80.28" x2="80.91" y1="149.63" y2="156.82" gradientTransform="matrix(.26458 0 0 .26458 -61.816 114.16)" xlink:href="#b"/>
  <linearGradient id="p" x1="12.041" x2="82.751" y1="98.53" y2="182.8" gradientTransform="matrix(.26458 0 0 .26458 -61.819 114.9)" gradientUnits="userSpaceOnUse">
   <stop id="stop61" stop-color="#fcfcfc" offset=".25"/>
   <stop id="stop63" stop-color="#f2f2f2" offset="1"/>
  </linearGradient>
  <linearGradient id="q" x1="108.07" x2="108.49" y1="161.49" y2="166.38" gradientTransform="matrix(.26458 0 0 .26458 -61.816 114.16)" xlink:href="#b"/>
  <linearGradient id="r" x1="77.27" x2="120.45" y1="116.86" y2="160.04" gradientTransform="matrix(.26458 0 0 .26458 -61.816 114.16)" xlink:href="#d"/>
  <linearGradient id="s" x1="57.041" x2="62.801" y1="152.91" y2="158.66" gradientTransform="matrix(.26458 0 0 .26458 -61.819 114.9)" xlink:href="#d"/>
 </defs>
 <metadata id="metadata4759">
  <rdf:RDF>
   <cc:Work rdf:about="">
    <dc:format>image/svg+xml</dc:format>
    <dc:type rdf:resource="http://purl.org/dc/dcmitype/StillImage"/>
    <dc:title/>
   </cc:Work>
  </rdf:RDF>
 </metadata>
 <g id="layer1" transform="translate(61.819 -114.9)">
  <path id="path74" d="m27.801 182.77v-67.866h-11.538l-39.227 67.866z" fill="url(#a)" stroke-width=".26458"/>
  <path id="path76" transform="matrix(.26458 0 0 .26458 -61.819 114.9)" d="m80.659 49.479-0.0195 56.791h0.0606v0.15039l-0.0195 0.0195h0.15426l6.6055 7.3398h104.09l-53.422 91.93 7.4004 10.65 47.34 26.34 104.16-182.17-3.4609-11.039h-0.0391z" fill="#383838" filter="url(#v)" opacity=".3"/>
  <g id="g102" transform="matrix(.26458 0 0 .26458 -61.816 114.16)">
   <path id="path78" d="m68.34 87.98 114.84-0.07-56.58 97.36 5.25 10.44 46.39 25.8 101.74-178.23-3.05-11.11-208.63-0.01z" fill="#fff"/>
   <g id="g96">
    <path id="path80" d="m66.28 87.16h115.5l6.63 7.37h-115.5z" fill="url(#t)"/>
    <path id="path82" d="m66.11 87.02 0.02-56.79 212.89 0.01-106.15 184.55-48.79-28.33 57.65-99.51z" fill="url(#c)"/>
    <path id="path84" d="m178.32 223.45-5.45-8.66 106.15-184.55 3.46 11.04z" fill="url(#u)"/>
    <path id="path86" d="m130.98 197.11-7.4-10.65 49.29 28.33 5.45 8.66z" fill="url(#e)"/>
    <g id="g94" transform="translate(-343.02,-155.22)">
     <path id="path88" d="m466.6 341.68 49.29 28.32 106.11-184.54-1.95 1.13-104.58 181.88-47.34-27.21z" fill="#fff"/>
     <path id="path90" d="m526.29 241.21-116 0.07-1.12 1.13 115.14-0.07z" fill="url(#g)"/>
     <path id="path92" d="m524.33 242.34-57.73 99.34 1.54-0.41 57.16-98.37 1-1.69z" fill="url(#h)"/>
    </g>
   </g>
   <path id="path98" d="m277.08 31.37 1.94-1.13-212.89-0.01 1.12 1.12z" fill="url(#i)"/>
   <path id="path100" d="m67.3 86.06-0.05-54.71-1.12-1.12 0.04 56.96z" fill="url(#j)"/>
  </g>
  <path id="path104" d="m-59.422 143.52 1.0319 1.2303-0.01323 11.512-1.0795-1.2938z" fill="url(#k)" stroke-width=".26458"/>
  <path id="path106" d="m-41.022 145.73 1.2012 1.4473z" fill="#838484" stroke-width=".26458"/>
  <path id="path108" d="m-41.022 145.74 1.2012 1.4473z" fill="#898989" stroke-width=".26458"/>
  <path id="path110" d="m-41.025 145.74 1.2012 1.4473z" fill="#8f8f8e" stroke-width=".26458"/>
  <path id="path112" d="m-41.03 145.75 1.2012 1.4473c-0.15875 0.26459-2.2066 3.9688-3.7042 6.4188l-1.2012-1.4473c1.4896-2.458 3.5375-6.1568 3.7042-6.4188" fill="url(#l)" stroke-width=".26458"/>
  <path id="path114" d="m-49.336 154.92 1.0848 1.2541 0.0079 1.8574-1.2012-1.4499z" fill="url(#m)" stroke-width=".26458"/>
  <path id="path116" d="m-47.259 156.99 0.89165 1.0504h-14.576l-0.86519-1.0186z" fill="url(#n)" stroke-width=".26458"/>
  <path id="path118" d="m-36.315 154.19 0.89165 1.0292h-9.3636l-0.77258-1.0292z" fill="url(#o)" stroke-width=".26458"/>
  <path id="path120" d="m-39.885 143.56 7.4321 13.436h-2.3812c-0.03175-0.0608-0.64294-1.2118-1.4896-2.8019h-9.2366c-0.96573 1.5875-1.6616 2.7411-1.6986 2.8019h-14.51l0.05027-13.436h2.2595l-0.02381 11.409h10.096v1.651l7.4745-13.06zm-4.8419 8.6122h7.3369c-1.3626-2.5612-3.6301-6.4347-3.6301-6.4347s-2.1537 3.8735-3.7042 6.4347" fill="url(#p)" stroke-width=".26458"/>
  <path id="path122" d="m-32.392 157.01 0.90752 1.0319h-2.4395l-0.92604-1.0081z" fill="url(#q)" stroke-width=".26458"/>
  <path id="path124" d="m-39.832 143.54 1.1483 1.4605 7.1967 13.044-0.87048-0.99483z" fill="url(#r)" stroke-width=".26458"/>
  <path id="path126" d="m-46.367 158.04 1.5875-2.8284-0.78052-1.0239-1.7092 2.8019 0.88371 1.0583" fill="url(#s)" stroke-width=".26458"/>
  <path id="path128" d="m-47.269 156.99h-14.499l0.05027-13.436h2.2595v11.409h10.073v1.651l7.4745-13.06h2.0214l7.4374 13.436h-2.3812c-0.03175-0.0608-0.64294-1.2118-1.4896-2.8019h-9.2366zm2.5321-4.8234 3.7042-6.4347-3.7042 6.4347h7.3369z" fill="none" stroke="#bfbfbf" stroke-miterlimit="10" stroke-width=".10054"/>
 </g>
</svg>
