<?xml version="1.0" encoding="UTF-8"?>
<!-- Created with Inkscape (http://www.inkscape.org/) -->
<svg id="svg4501" width="151.12mm" height="114.33mm" version="1.1" viewBox="0 0 151.12 114.33" xmlns="http://www.w3.org/2000/svg" xmlns:cc="http://creativecommons.org/ns#" xmlns:dc="http://purl.org/dc/elements/1.1/" xmlns:rdf="http://www.w3.org/1999/02/22-rdf-syntax-ns#">
 <metadata id="metadata4498">
  <rdf:RDF>
   <cc:Work rdf:about="">
    <dc:format>image/svg+xml</dc:format>
    <dc:type rdf:resource="http://purl.org/dc/dcmitype/StillImage"/>
    <dc:title/>
   </cc:Work>
  </rdf:RDF>
 </metadata>
 <g id="#fd0074ff" transform="matrix(.35278 0 0 .35278 -6.2795 -5.3592)" fill="#fd0074">
  <path id="path2" d="m393.09 17.17c6.82-3.21 16.24-2.83 21.2 3.49 4.06 4.84 6.07 11.08 6.84 17.26 0.85 10.92 0.29 21.95-1.85 32.7-5.96 31.87-17.49 62.34-29.7 92.26-7.52 18.28-15.79 36.24-24.58 53.94-1.96 3.42-1.43 7.47-1.35 11.23 0.85 11.45 2.07 23.12 6.52 33.81 1.54 3.47 3.66 7.39 7.64 8.41 7.14 0.77 13.65-3.14 19.15-7.25 12.62-9.83 22.33-22.77 31.37-35.84 2.73-3.87 4.79-8.29 8.3-11.58 2.27-2.45 6.45-1.48 8.5 0.79 2.13 3.34 0.58 7.42-1.31 10.47-10.96 18.36-22.92 36.82-39.91 50.2-7.72 6.13-16.98 10.77-26.94 11.43-8.79 0.58-17.47-3.71-22.96-10.48-8.85-10.39-11.96-24.08-14.77-37.08-10.1 9.72-19.33 20.5-30.86 28.61-8.71 6.3-18.39 12.36-29.37 13.24-7.59 0.62-14.99-4.05-18.08-10.93-5.27-11.13-5.05-24-3.15-35.92 1.65-10.08 4.83-19.88 9.05-29.18-4.81-2.56-9.64-5.23-13.62-9-4.55-4.1-7.65-9.45-10.54-14.77l-0.81583-1.5917-82.469 143.08-42.105-24.323 49.06-84.875h-98.045v-48.695h182.88c2.96 5.69 5.2 11.86 9.44 16.78 4.05 4.76 10.69 7.37 16.87 6.01 4.05-2.03 6.66-5.92 10.07-8.79 9.2-7.71 20.29-13.7 32.36-15.1 5.77-0.55 11.57 0.03 17.35 0.3 0.57-5.26 1.11-10.52 1.27-15.81 2.05-20.51 6.31-40.78 12.18-60.53 5.33-17.42 11.66-34.74 21.33-50.27 5.43-8.6 11.93-17.06 21.04-22m4.46 21.58c-3.54 1.45-5.87 4.7-7.85 7.82-6.46 10.6-9.71 22.72-13.02 34.58-5.47 21.64-9.13 43.7-11.96 65.84-1.36 14.23-3.44 28.48-2.9 42.82 2.81-3.87 4.64-8.3 6.59-12.63 8.68-19.87 16.58-40.1 23.43-60.68 5.82-17.66 11.42-35.52 14.31-53.94 1-7.17 2.34-14.94-0.94-21.74-1.41-2.81-5.03-2.92-7.66-2.07m-91.39 160.4c-9.26 7.9-17.13 17.54-22.64 28.43-4.36 8.8-7.32 18.58-6.77 28.5 0.18 3.09 1.14 6.43 3.72 8.38 6.42 1.82 12.31-2.11 17.21-5.76 10.35-7.55 18.75-17.32 27.06-26.97 3.92-4.77 8.44-9.15 11.48-14.57 0.97-2.6 0.55-5.45 0.51-8.15-0.54-7.18-0.53-14.37-0.58-21.56-11.16-0.74-21.61 4.79-29.99 11.7z"/>
  <path id="path4" d="m17.8 240.64h7.375v32.83h29.645v5.145l22.2-37.975h6.04l22.7 38.94h-6.91l-4.77-8.385h-28.33l-4.67 8.385h-43.28v-38.94m51.62 24.12h20.97l-10.485-18.515z"/>
 </g>
 <g id="#fd0074ff-0" transform="matrix(.27033 0 0 .27033 0 -10.559)" fill="#fd0074">
  <path id="path6" d="m220.29 391.57h36.055v4.66l-9.46 3.7601v21.015h28.665v-21.015l-9.555-3.7601v-4.66h35.99v4.66l-9.535 3.7601v53.42l9.535 4.0197v4.57h-35.99v-4.57l9.555-4.0197v-23.63h-28.665v23.63l9.46 4.0197v4.57h-36.055v-4.57l9.5-4.0197v-53.42l-9.5-3.7601z"/>
  <path id="path8" d="m312.06 391.62h33.9c9.42-0.19 19.2 1.705 26.99 7.255 8.12 5.58 12.42 15.41 12.82 25.06 0.81 9.9-1.8 20.59-9.08 27.69-7.21 7.24-17.69 10.105-27.65 10.315h-36.98v-4.495l9.405-4.0297v-53.42l-9.405-3.7901v-4.585m26.5 9.035v52.34c7.12-0.22 15.1 1.18 21.3-3.23 6.21-4.4 7.84-12.54 8.06-19.68 0.2-8.97-1.66-19.03-8.97-25.01-5.65-4.75-13.42-4.73-20.39-4.42z"/>
 </g>
</svg>
