<?xml version="1.0" encoding="UTF-8"?>
<!-- Created with Inkscape (http://www.inkscape.org/) -->
<svg id="svg4511" width="131.57mm" height="80.375mm" version="1.1" viewBox="0 0 131.57 80.375" xmlns="http://www.w3.org/2000/svg" xmlns:cc="http://creativecommons.org/ns#" xmlns:dc="http://purl.org/dc/elements/1.1/" xmlns:rdf="http://www.w3.org/1999/02/22-rdf-syntax-ns#">
 <metadata id="metadata4508">
  <rdf:RDF>
   <cc:Work rdf:about="">
    <dc:format>image/svg+xml</dc:format>
    <dc:type rdf:resource="http://purl.org/dc/dcmitype/StillImage"/>
    <dc:title/>
   </cc:Work>
  </rdf:RDF>
 </metadata>
 <g id="layer1" transform="translate(82.795 -108.65)">
  <g id="g8" transform="matrix(.35278 0 0 .35278 -87.448 95.941)">
   <path id="path2" d="m280.85 36.021c8.7817 0.10344 17.778 1.0059 25.791 2.4268 18.074 3.2048 35.457 10.582 49.788 22.092 12.12 9.29 21.18 22.42 25.9 36.92 3.7 13.2 5.27 27.35 2.16 40.84-3.63 18.96-16.01 34.6-28.54 48.65l-78.17 76.8h-80.03l72.51-70.51c-21.2-2.14-42.61-7.31-60.89-18.63-10.56-6.46-19.92-15.28-25.54-26.43-5.03-9.86-6.77-21.16-6.06-32.14 0-19.36 8.23-38.61 22.51-51.74 16.123-15.163 37.475-23.585 59.261-26.642 6.832-0.95868 14.012-1.7236 21.309-1.6376zm-5.5407 52.229c-5.7708 0.77837-11.493 2.4327-16.48 5.59-6.2442 3.9533-12.064 9.5317-14.05 16.96-2.1082 7.8863 0.56452 16.489 6.11 22.32 15.437 16.232 43.784 17.271 60.08 1.86 4.8846-4.6193 7.7041-11.123 7.6-18-0.10671-7.0477-3.5461-13.422-8.56-17.99-9.2561-8.4323-22.376-12.402-34.7-10.74z"/>
   <path id="path4" d="m43.9 200.61 20.07 0.02-25.05 51.95 33.43 0.05-5.23 11.18-53.93 0.04z"/>
   <path id="path6" d="m73.59 263.79 63.35-63.2 24.37 0.04 0.93 63.21-21.66 0.01 0.12-14.04-32.65 0.01-13.29 13.94zm44.91-25.04 22.99 0.02 1.57-27.12z"/>
  </g>
 </g>
</svg>
