<?xml version="1.0" encoding="UTF-8"?>
<!-- Generator: Adobe Illustrator 19.1.0, SVG Export Plug-In . SVG Version: 6.00 Build 0)  -->
<svg id="Layer_1" enable-background="new 0 0 287.9 68.4" version="1.1" viewBox="0 0 287.9 68.4" xml:space="preserve" xmlns="http://www.w3.org/2000/svg" xmlns:cc="http://creativecommons.org/ns#" xmlns:dc="http://purl.org/dc/elements/1.1/" xmlns:rdf="http://www.w3.org/1999/02/22-rdf-syntax-ns#" xmlns:xlink="http://www.w3.org/1999/xlink"><metadata id="metadata69"><rdf:RDF><cc:Work rdf:about=""><dc:format>image/svg+xml</dc:format><dc:type rdf:resource="http://purl.org/dc/dcmitype/StillImage"/><dc:title/></cc:Work></rdf:RDF></metadata><defs id="defs67"><linearGradient id="XMLID_2_" x1="78.873" x2="287.92" y1="26.934" y2="26.934" gradientUnits="userSpaceOnUse"><stop id="stop23" stop-color="#4D1C16" offset="0"/><stop id="stop25" stop-color="#9F3427" offset="1"/></linearGradient></defs><style id="style2" type="text/css">
	.st0{fill:#010202;}
	.st1{fill:url(#XMLID_2_);}
	.st2{opacity:0.15;}
	.st3{fill:#F6F6F6;}
	.st4{fill:#FFFFFF;}
	.st5{fill:url(#SVGID_1_);}
</style><g id="g4592" transform="translate(0,7.25)"><path id="XMLID_3130_" class="st1" d="m287.9 32.1c0 6.8-5.7 11.5-13.8 11.5-2.6 0-5.3-0.5-7.6-1.4v1h-16.9v-0.2c-1.3 0.3-2.6 0.5-3.8 0.5-3.5 0-6.5-1.2-8.5-3.2-0.2 3.3-1.2 6.2-3 8.4-2.7 3.3-6.8 5-11.8 5-4.9 0-9.4-1.5-12-4.1-1.6-1.6-2.4-3.6-2.4-5.8 0-1 0.2-1.9 0.5-2.8-3 1.6-6.5 2.5-10.5 2.5-7.4 0-13.1-3.7-15.6-9.4l-4 9.4h-8.7l-4-9.5c-2.4 5.7-8.1 9.5-15.1 9.5-5.3 0-9.8-2.1-12.8-5.7l-0.2 2-1.8 1c-3 1.8-6.7 2.7-10.8 2.7-5.4 0-9.9-2-12.9-5.3v4.9h-33.3v-13.4h4v-16.2h-4v-13.3h22.6v13.3h-4.6v16.3h1.6v-4.9h10c1.2-7.8 7.5-13.5 15.6-13.5 5.8 0 10.5 2.5 13.1 6.8 2.9-4.2 7.9-6.8 13.5-6.8 0.6 0 1.2 0 1.9 0.1v-11.3h43.1v11.3h1.2c5.3 0 9.8 2.1 12.5 5.8 2.8-3.7 7-5.8 11.6-5.8 1.2 0 2.4 0.1 3.5 0.4h16.2v1.5c2.2-1.3 5-1.9 8.2-1.9 5.1 0 8.9 1.5 11.4 4.6 0.6 0.7 1 1.4 1.4 2.2 0.6-1.3 1.5-2.5 2.6-3.5 2.5-2.2 5.9-3.4 9.9-3.4 3.4 0 8 1.2 10.6 3.8 1.6 1.6 2.4 3.6 2.4 5.8 0 1.8-0.6 3.5-1.7 4.8 1.7 1.6 2.4 3.8 2.4 6.3z" fill="url(#XMLID_2_)"/><g id="XMLID_3126_" class="st2" opacity=".15"><path id="XMLID_3127_" class="st0" d="m282.6 25.5c1.7-0.8 2.8-2.5 2.8-4.7 0-1.7-0.6-3.2-1.9-4.4-2.2-2.2-6.3-3.2-9.2-3.2-3.5 0-6.4 1-8.5 2.8-1.9 1.7-3 4-3 6.5 0 2.8 1.1 4.6 2.8 6-1.7 0.5-3.1 1.9-3.5 3.6h-1v-7.9c0-2.8-0.8-5.3-2.2-7.1-2.1-2.6-5.4-3.9-9.9-3.9-5.3 0-8.7 2-10.2 4.4v-4h-13v0.5c-1.4-0.6-3-0.9-4.6-0.9-5.2 0-9.6 3.2-11.7 7.9-1.9-4.9-6.4-7.9-12.4-7.9-3.7 0-7 1.4-9.4 3.6l2.4-5.5h3.9v-9.3h-17.8v9.4h2.9l-4.6 11.7-4.6-11.7h2.7v-9.4h-17.8v9.4h3.9l2.4 5.7c-2.5-2.4-6.1-3.8-10.1-3.8-6.6 0-11.9 3.9-13.7 9.7-1.3-5.9-6.2-9.7-12.9-9.7-7.7 0-13.5 5.7-13.8 13.5h-9.9v4.9h-5.7v-20.3h4.6v-9.4h-18.6v9.4h4v20.2h-4v9.3h29.4v-12.4c0.1 0.7 0.2 1.5 0.4 1.9 0.7 3.3 2.4 6 4.9 7.9s5.8 3 9.6 3 7.1-0.8 9.8-2.4l0.9-0.5 0.2-1.8-1.5-5.3h2.2 0.1c1.6 6 6.9 10.1 13.9 10.1 8.2 0 14.4-6 14.4-14v-0.2l6 14.2h6l6-14.2v0.2c0 8.2 6.1 14 14.9 14 3.8 0 7.1-0.8 9.8-2.4l0.9-0.5 0.2-1.9-1.5-5.3h1.3c0.9 3.1 2.7 5.7 5.2 7.3-2.3 0.5-4 2.6-4 5.1 0 1.7 0.6 3.2 1.9 4.4 2.2 2.2 6.2 3.5 10.5 3.5 4.4 0 7.9-1.5 10.2-4.3 1.7-2.1 2.6-5 2.6-8.3v-16.4h2.6c0.3 1.4 1.2 2.5 2.4 3.1-2.5 1.6-4 4.1-4 7.2 0 5 3.9 8.5 9.5 8.5 2 0 4-0.5 5.8-1.3v0.9h13v-2.3c2.2 1.7 6 2.8 9.6 2.8 7 0 11.8-3.9 11.8-9.5 0.1-3.2-1.4-5.2-3.4-6.5zm-158.6-3.6c1.7 0 2.8 0.8 2.8 2h-5.7c0.3-1.5 1.6-2 2.9-2zm1.9 10.7c-2.5 0-3.9-0.5-4.6-1.3h11.1c0.2 0.4 0.2 0.5 0.2 0.5s-3.5 0.8-6.7 0.8zm20.1-0.6v-0.5c1.1-1.5 2.9-2.2 4.1-3.6 0.7 1.5 1.4 2.9 2 4.4l0.9 0.9c-1.9 0-3.7-1.2-7-1.2zm50.8-10.1c1.7 0 2.8 0.8 2.8 2h-5.6c0.3-1.5 1.6-2 2.8-2zm1.8 10.7c-2.5 0-3.9-0.5-4.6-1.3h11.1c0.1 0.4 0.2 0.5 0.2 0.5s-3.5 0.8-6.7 0.8zm21.4-8.8c0.3-0.3 0.7-0.5 1.1-0.7 0.5-0.2 1.1-0.3 1.6-0.2 0.3 0 2.2 0.4 2.2 0.8v6c0 0.3-1.2 0.9-1.4 1-0.5 0.3-1 0.3-1.5 0.3-0.9-0.1-1.8-0.6-2.4-1.3-1.3-1.7-1.2-4.3 0.4-5.9zm4.9 17.9c-0.6 0.8-1.6 1.2-3.1 1.2-0.5 0-0.9 0-1.4-0.1-0.1-0.9-0.5-1.7-1-2.4 0.5 0 1 0.1 1.5 0.1 1.9 0 3.4-0.4 4.7-1-0.1 0.9-0.3 1.7-0.7 2.2zm23.1-19.5c3.2-0.2 3.4 2.2 3.4 2.2-1.2-0.4-2.7-0.6-3.8-0.4 0.4-0.4 0.6-1.1 0.4-1.8zm3.8 9.4c-1.2 0.7-2.5 1-3.7 1-0.6 0-1-0.2-1-0.2 0-1 1.4-1.1 2.2-1.1 0.9 0 1.8 0 2.5 0.1zm20.5 1.5c-0.1-0.2-0.1-0.4-0.2-0.6 0.8 0.2 1.5 0.4 2.3 0.6z" fill="#010202"/></g><path id="XMLID_3023_" class="st3" d="m227.4 31.4c-1.5 1.4-3.2 2.3-5.2 2.3-3.6 0-6.2-2.3-6.2-6.6 0-4.4 2.6-6.7 6.2-6.7 2.1 0 3.8 0.7 5.2 1.8zm0.3-13.5c-1.5-1.3-3.7-2.5-6.6-2.5-6.1 0-10.9 5.2-10.9 11.8 0 6.9 4.7 11.4 10.6 11.4 3.1 0 4.9-1.2 6.7-3v3.4c0 1.8-0.4 3.1-1.1 4-1 1.4-2.7 2-4.7 2-1.4 0-2.5-0.3-3.5-0.6 0.1-0.2 0.1-0.6 0.1-0.9 0-1.8-1.4-3-3.2-3-1.9 0-3.1 1.6-3.1 3.2 0 1.1 0.4 2.1 1.3 3 1.6 1.6 5.1 2.9 9.1 2.9 3.8 0 6.8-1.2 8.7-3.6 1.4-1.8 2.2-4.1 2.2-7v-18.3h3.5v-4.9h-9v2.1zm25.7 15.4c-1.8 1.3-3.8 2.1-5.8 2.1-2.1 0-3.5-1-3.5-2.9 0-2.1 1.7-3.4 4.5-3.4 1.8 0 3.5 0.2 4.8 0.5zm5.6-8.9c0-2.3-0.6-4.4-1.8-5.8-1.6-2-4.4-3.1-8.3-3.1-6.3 0-9.2 3-9.2 5.9 0 1.9 1.3 3.1 3.1 3.1s3.1-1.3 3.1-3c0-0.3-0.1-0.8-0.2-1.2 0.5-0.2 1.3-0.4 2.3-0.4 2.1 0 3.6 0.5 4.6 1.7 0.6 0.7 0.9 1.8 0.9 3.2v1.9c-1.3-0.3-3.5-0.6-5.9-0.6-5.5 0-9.3 2.7-9.3 7 0 4.4 3.6 6.5 7.5 6.5 3.1 0 5.9-1.4 7.8-3v2.5h9v-4.8h-3.6zm-67.3-14.9v-5.3h-13.8v5.4h3.9l-7.5 19.2-7.5-19.2h3.7v-5.4h-13.8v5.4h3.2l12.7 29.9h3.4l12.7-29.9h3zm-0.5 15.9c0.6-3.8 3.2-5.3 5.7-5.3 3.4 0 5.5 2.1 5.6 5.3zm5.7-10c-7.2 0-11.8 5.5-11.8 12.1 0 7.2 5.3 12 12.8 12 3.4 0 6.4-0.7 8.8-2.1v-0.5l-1.1-3.9c-2.3 1.1-4.6 1.7-6.9 1.7-3.9 0-6.8-1.6-7.6-5.2h16.9c0.2-0.8 0.3-2 0.3-2.9-0.1-6.2-3.9-11.2-11.4-11.2zm78.2 9.6c-3.6-1-4.9-1.6-4.9-3 0-1.2 1.3-2.4 3.9-2.4 1.2 0 2.3 0.2 3.3 0.6-0.1 0.3-0.1 0.6-0.1 1 0 1.8 1.3 2.9 3.1 2.9 1.7 0 2.9-1.3 2.9-3.1 0-1.1-0.4-2.1-1.3-3-1.6-1.6-5-2.7-7.8-2.7-6.5 0-9.5 3.8-9.5 7.4 0 4 2.7 5.5 9.1 7.2 3.6 1 4.6 1.6 4.6 2.8 0 1.7-1.9 2.5-4.2 2.5-1.6 0-3.1-0.3-4.2-0.7 0.1-0.3 0.1-0.6 0.1-1 0-2-1.5-3.1-3.1-3.1-1.8 0-3.1 1.4-3.1 3.1 0 1.2 0.4 2.2 1.3 3.1 1.5 1.5 5.4 2.8 8.9 2.8 5.3 0 9.8-2.6 9.8-7.5 0-4-3.2-5.4-8.8-6.9zm-115.1 1.9c-0.1-0.1-0.3-0.1-0.4-0.2 0.2-0.4 0.3-0.7 0.5-1.1 0 0.3 0 0.9-0.1 1.3zm-0.2 1.6c-0.1 0.5-0.2 0.9-0.2 1.4-0.3 0.5-0.8 0.8-1.5 0.9-0.2 0-0.4 0.1-0.6 0.1s-0.5-0.2-0.7-0.3-0.4-0.2-0.5-0.3c-0.8-0.7 0.1-2.9 0.8-3.3 0.7-0.1 1.5-0.3 2.2-0.4 0.2 0.1 0.4 0.2 0.6 0.4 0.1 0.5 0 0.9-0.1 1.5zm-4.9-3.1c-0.2 0-0.5 0.1-0.8 0-0.2-0.1-0.3-0.2-0.5-0.3-0.1-0.1-0.2-0.1-0.4-0.2-0.3-1.4 0.5-3.4 1.6-3.8 0.2-0.1 0.3-0.1 0.6 0 0.7 0.7 1 1.6 0.9 2.5 0 0.3 0 0.7-0.1 0.9s-0.3 0.4-0.5 0.6c-0.2 0.1-0.5 0.3-0.8 0.3zm-1.8 10.7c-1.2 0.3-3.5-1.2-4.5-1.5-0.7-0.2-1.4-0.1-2.1 0.1-0.8 0.2-1.5 0.4-2.1-0.1-0.5-0.4-1.4-3.1-0.9-4.1 0.3-0.3 0.6-0.6 0.9-0.8 0.6-0.7 1.2-1.7 2-2.2 0.5-0.3 1-0.5 1.6-0.8 0.3-0.2 0.5-0.5 0.7-0.7 0.4-0.4 0.9-0.8 2.1-0.6 0.3 0.1 0.6 0.3 0.9 0.4 0.6 0.5 2.3 4.3 2.6 5.2 0.3 0.6 1.1 0.9 1.3 1.6 0.3 1.8-1.3 3.2-2.5 3.5zm-9.2-14.9c0.3-0.1 0.4-0.2 0.9-0.2 0.4 0.2 0.8 0.5 1.3 0.7 0.3 0.3 0.4 0.8 0.5 1.2 0.4 1 0.7 1.5 0.1 2.1-0.1 0.1-0.3 0.1-0.5 0.2-0.3 0.2-0.6 0.6-1.1 0.6-1.6 0.2-1.7-3.3-1.2-4.6zm0.4-1.7c-0.1 0.5 0 0.8 0.2 1.2v0.1c-0.1 0-0.3 0.1-0.4 0.1-0.3-0.3 0-1.3 0.2-1.4zm4.6 1.3c0.3-0.4 0.5-0.8 0.8-1.1 0.2-0.2 0.4-0.1 0.6-0.2 0.1 0.1 0.3 0.2 0.4 0.4s0.2 0.5 0.3 0.8c0.4 1 0.6 2.2 0 2.9-0.2 0.3-0.6 0.4-1 0.5-0.6-0.4-1.5-0.8-1.7-1.5-0.1-0.4 0.2-1.1 0.6-1.8zm1.8-2.4c-0.1 0.4-0.1 0.7-0.2 1.1-0.1 0-0.3-0.1-0.4-0.1 0.1-0.3 0.3-0.8 0.6-1zm4.6 1.3c0.2 0.4 0.2 0.7 0.1 1.2h-0.4v-0.1c0-0.3 0.2-0.9 0.3-1.1zm-4.6-4.3c-7.6 0-12.4 5.7-12.4 12.1 0 6.5 4.7 12.1 12.4 12.1 7.6 0 12.4-5.7 12.4-12.1 0-6.5-4.7-12.1-12.4-12.1zm-48.2 18.4h-9.6v-24.3h4.6v-5.3h-14.6v5.4h4v24.2h-4v5.4h25.4v-10.4h-5.8zm15.8-8.4c0.6-3.8 3.2-5.3 5.7-5.3 3.4 0 5.5 2.1 5.6 5.3zm5.8-10c-7.2 0-11.8 5.5-11.8 12.1 0 7.2 5.3 12 12.8 12 3.4 0 6.4-0.7 8.8-2.1v-0.5l-1.1-3.9c-2.3 1-4.6 1.6-6.9 1.6-3.9 0-6.8-1.6-7.6-5.2h16.8c0.2-0.8 0.3-2 0.3-2.9 0-6.1-3.9-11.1-11.3-11.1z" fill="#f6f6f6"/></g><g id="g60"><path id="path32" class="st4" d="m34.2 4.7c16.3 0 29.5 13.2 29.5 29.5s-13.2 29.5-29.5 29.5-29.5-13.2-29.5-29.5 13.2-29.5 29.5-29.5z" fill="#fff"/><g id="g51"><g id="g49"><linearGradient id="SVGID_1_" x1="34.203" x2="34.203" y1="68.139" y2="-.2633" gradientUnits="userSpaceOnUse"><stop id="stop34" stop-color="#010202" offset="0"/><stop id="stop36" stop-color="#050506" offset=".1029"/><stop id="stop38" stop-color="#181213" offset=".2709"/><stop id="stop40" stop-color="#372220" offset=".483"/><stop id="stop42" stop-color="#653329" offset=".7283"/><stop id="stop44" stop-color="#98412B" offset=".94"/></linearGradient><path id="path47" class="st5" d="m48.2 16.2c1.1 0.9 1.9 1.7 1.8 3.1v0.2l3.7-3.7c-0.8-0.8-1.6-1.6-2.5-2.3l-3 2.7c-0.1-0.1 0-0.1 0 0zm-17.6 7.1c-1-0.4-2.3-2.5-2.7-2.8s-0.8-0.3-1.2-0.4-1.5 0-2 0c-0.2 0-0.8 0.3-1.2 0.8s-0.6 1.3-0.6 1.3 0.2 0.8 0.9 0.7c0.9-0.3 2.6-1.4 4 0 1 1 1.4 2 2.3 2.1 1.5 0.2 2.6-0.9 0.5-1.7zm-5.9-8.5c0.5 0.5 1.3 2.3 1.3 2.3s0.9-0.9 3.8-0.9c2.8 0 4.5 2.2 4.5 2.2s0.9-2.2 4.1-2.2c1.7 0 3.1 0.8 3.9 0.9 0.3 0 1-0.8 1.7-2 0.5-0.7 1.6-0.5 2.6 0l1.9-3.6c-1-0.6-1.9-1.1-3-1.6l-3.8 5.3 0.7-6.5c-1.2-0.4-2.3-0.7-3.4-0.9l-2.6 7.2-0.7-7.5h-1.5c-0.6 0-1.3 0-1.9 0.1l-0.8 7.8-2.5-7.5c-1.1 0.2-2.2 0.5-3.3 0.9l0.7 6.2-3.8-5c-1 0.5-2 1-2.9 1.7l2 3.7c1.2-0.8 2.6-1 3-0.6zm13.8 10.5c-0.2 0.7-0.8 3.3-0.2 3.5 0.3 0.2 0.7-0.5 0.7-0.5s3.2-0.7 3.5-0.9 1.2-1.4 1.2-1.4 0.6 0.2 0.8 0 0.2-0.4 0.1-0.5c-0.7-0.5-1.8-1.3-2.9-1.3-1.2 0-3 0.4-3.2 1.1zm-11.7-0.5c-1 0-2.1 0.7-2.7 1.2-0.2 0.1-0.2 0.3 0.1 0.5 0.2 0.2 0.8 0 0.8 0s0.2 0.2 0.7 0.5c0.2 0 1-0.1 2.1 0.6 0.5 0.3 0.5 0.7 0.9 0.9 0.3 0.2 0.7 0.1 0.8 0.1 0.2 0.2 0.3 0.6 0.7 0.4s0.1-0.5 0.1-0.8c0-0.8-0.2-2-0.4-2.4-0.4-0.7-2.1-1-3.1-1zm34.2 9.4c0-1.1-0.1-2.3-0.2-3.4l-13.6 0.9 13-4.3c-0.3-1.1-0.6-2.2-1.1-3.2l-9.9 2.3 8.5-5.3c-0.5-1-1.2-1.9-1.8-2.8l-8.3 4.5c0.1 0.5 0.3 1.3 0.4 1.7 0.2 0.7 0.1 2.9-0.1 4s-1.9 2.1-2.9 2.7c-0.9 0.6-1.4 1.1-1.6 2-0.1 0.4-0.3 1-0.4 1.3s0 0.5 0 0.8c0-0.1-0.2-0.3-0.2-0.4-0.3-0.6-0.6-0.6-0.8-0.5s0.3 0.6 0.6 1.3c0.3 0.6 0.5 1.3 0.6 1.7 0.2 0.7 0.5 2.8 0.2 4.1s-0.8 2.1-1.5 2.8c-0.6 0.5-2.7 0.9-3.4 0.5-1.6-0.8-2.3-0.3-2.8-0.9s-1-1.7-0.9-2.3c0.1-0.5 0.9-1.8 2.2-2.9s2.2-1.2 2.6-1.5c0.2-0.2 0.3-0.3 0.4-0.6 0-0.4 0.2-0.6 0-0.6-0.2-0.1-0.2 0-0.4 0.2-0.3 0.3-0.6 0.6-0.7 0.5s0 0 0-0.2c-0.1-0.1-0.2-0.4-0.4-0.6-0.6-0.5-2.5 0.8-3.9 0.8-1.5 0-2.9-0.9-3.6-0.5-0.4 0.2-0.5 0.4-0.6 0.6 0 0.2 0.1 0.2 0 0.3s-0.2-0.2-0.5-0.4c-0.2-0.2-0.3-0.3-0.5-0.1s0 0.3 0.2 0.6 0.5 0.7 0.6 0.9c0.3 0.5 1.4 1.2 2.1 1.6s1.7 1.7 2 2.2c0.2 0.5-0.5 1.8-0.6 1.9 0 0.1 0 0-0.7 0.7-0.6 0.7-2.1 1.7-2.9 1.9-0.9 0.2-2 0.6-2.5-0.1-0.5-0.6-1.8-3-2.1-5-0.1-1.2 0.2-2 0.5-2.9 0.2-0.6 0.3-1.3 0.5-1.8 0.8-2.1 1.6-2.8 1.5-2.9-0.2-0.2-1.3 0.3-1.9 1.2-0.1-0.1-0.2-0.3-0.2-0.4-0.1-0.2-0.2-0.3-0.4-0.5-0.1-0.2-0.2-0.3-0.4-0.6-0.7-1-2.1-1.8-3.1-2.8s-0.7-2.5-0.8-4.9c-0.5-1.8-0.2-2.8 0-3.2l-8.7-4c-0.7 0.9-1.3 1.9-1.8 2.9l8.5 5.3-9.9-2.3c-0.4 1-0.8 2.1-1 3.2l12 3.9-12.7-0.7c-0.1 1.1-0.2 2.2-0.2 3.3v0.1l13.4 0.8-13.2 2.6c0.2 1.1 0.4 2.2 0.7 3.3l13.2-2.5-12.2 5.7c0.4 1 0.9 2.1 1.4 3l12.1-5.7-10.2 8.5c0.7 0.9 1.4 1.8 2.2 2.6l10.2-8.6-7.9 10.9c0.9 0.7 1.8 1.4 2.7 2l6.4-8.3-3.5 9.9c1 0.5 2.1 0.9 3.2 1.2l3.5-6.9-0.2 7.8c1.1 0.2 2.2 0.4 3.4 0.4l1.7-4.7 1.6 4.7c1.2-0.1 2.3-0.2 3.4-0.4l-0.5-8.2 3.7 7.4c1.1-0.3 2.1-0.8 3.1-1.2l-4.1-10.9 7.1 9.2c0.9-0.6 1.9-1.3 2.7-2l-7.2-10 9.7 7.7c0.8-0.8 1.5-1.7 2.1-2.6l-10.5-8.6 12.3 5.7c0.5-1 1-2 1.4-3l-12.3-5.7 13.4 2.5c0.3-1.1 0.5-2.2 0.6-3.3l-13.4-2.6zm-21.5 15.6c-0.5 1.4-2.7 2.5-3.4 3.2s-1.9 2.8-1.9 2.8-1.5-2-2.1-2.7c-0.5-0.7-1.2-0.6-2-1.4-0.8-0.7-2-2.4-2.3-3.1s-0.4-0.8 0.1-1.2c0.4-0.4 1.4-0.4 2.5-0.8 1.2-0.4 1-1.5 3.8-1.5 1.1 0 2.2 0.6 2.8 0.8 1.1 0.5 2.8-0.1 3.5 0.5 0.7 0.5-0.5 2-1 3.4zm-5.3-49.8c-18.9 0-34.2 15.3-34.2 34.2s15.3 34.2 34.2 34.2 34.2-15.3 34.2-34.2-15.3-34.2-34.2-34.2zm0 63.7c-16.3 0-29.5-13.2-29.5-29.5s13.2-29.5 29.5-29.5 29.5 13.2 29.5 29.5-13.2 29.5-29.5 29.5zm-14.2-47.1-3.1-2.9c-0.9 0.7-1.7 1.5-2.4 2.3l3.6 3.3c0.3-0.9 1.1-1.9 1.9-2.7zm24.9 8.3c0.1 0 0.2-0.1 0.2-0.3 0.1-0.9-0.3-2-0.5-2.3-0.2-0.4-0.7-1.3-1.2-1.5s-1.4-0.2-2.3-0.1c-1.6 0.1-1.8 0.1-3 1.3-0.5 0.5-1 0.5-1.3 1-0.2 0.4 0 0.8 0.1 1s0.5 0 0.5 0 1.7-1.3 3.8-1.8c2.8-0.6 3.6 2.6 3.6 2.6s0 0.1 0.1 0.1z" fill="url(#SVGID_1_)"/></g></g><g id="Flares_-_Head_1_"><clipPath id="Clip_-_Head_2_"><use id="use56" width="100%" height="100%" xlink:href="#Clip__x002D__Head_1_"/></clipPath></g></g></svg>
