<?xml version="1.0" encoding="UTF-8"?>
<svg id="svg22" width="360.54pt" height="457.92pt" version="1.1" viewBox="0 0 360.54 457.92" xmlns="http://www.w3.org/2000/svg" xmlns:cc="http://creativecommons.org/ns#" xmlns:dc="http://purl.org/dc/elements/1.1/" xmlns:rdf="http://www.w3.org/1999/02/22-rdf-syntax-ns#">
 <metadata id="metadata28">
  <rdf:RDF>
   <cc:Work rdf:about="">
    <dc:format>image/svg+xml</dc:format>
    <dc:type rdf:resource="http://purl.org/dc/dcmitype/StillImage"/>
    <dc:title/>
   </cc:Work>
  </rdf:RDF>
 </metadata>
 <g id="#fefefeff" transform="translate(-43.981 -35.94)">
  <path id="path13" d="m44.05 36.28c13.97 0.08 27.95 0.05 41.92 0.02 0.17 37.58 0.02 75.17 0.07 112.76-0.34 2.76 2.05 5.56 4.93 5.13 16.48 0.06 32.96 0.04 49.45 0 0.02 15.12-0.04 30.25 0.03 45.37-15.18 0.09-30.36-0.02-45.53 0.04-5.61 0.01-11.32-0.08-16.71-1.77-13.2-3.81-24-14.1-29.46-26.58-3.55-7.89-4.95-16.63-4.75-25.24 0.03-36.58-0.07-73.15 0.05-109.73"/>
  <path id="path15" d="m144.63 36.43c13.96-0.29 27.94-0.05 41.91-0.14-0.01 54.43-0.02 108.86-0.02 163.3-13.95-0.02-27.91 0.11-41.86-0.08 0.07-54.36 0.11-108.72-0.03-163.08"/>
  <path id="path17" d="m211.62 44.69c7.56-5.65 16.96-8.63 26.37-8.71 18.38 0.03 36.77-0.04 55.15 0.03 0 15.13-0.01 30.27 0 45.4-18.35 0.01-36.7-0.03-55.05 0.01-2.55-0.16-4.78 2.08-4.83 4.58-0.14 3.02-0.01 6.04-0.03 9.06 19.96 0.06 39.93 0.02 59.89 0.02-0.09 15.17 0.22 30.35-0.17 45.52-19.92-0.07-39.85-0.17-59.77 0.05-0.04 19.67 0.19 39.36-0.14 59.02-13.91-0.14-27.83-0.02-41.74-0.07 0.03-38.2-0.04-76.41 0.02-114.61 0.28-15.54 7.64-31.08 20.3-40.3"/>
  <path id="path19" d="m324.45 40.28c6.68-3.24 14.18-4.49 21.56-4.32 19.5 0.02 39 0.01 58.5-0.02 0.02 15.17-0.01 30.34 0 45.52-20.17-0.07-40.33-0.01-60.49-0.05-2.24-0.19-4.72 1.25-5.01 3.61-0.41 3.34-0.14 6.71-0.19 10.07 21.89 0.01 43.78 0.01 65.67-0.01 0.03 15.15-0.03 30.3 0.01 45.46-21.89 0.07-43.78-0.03-65.67 0.01 0.59 4.32-1.79 10.28 2.42 13.26 1.88 0.53 3.87 0.37 5.81 0.4 19.14-0.05 38.28 0.02 57.41-0.04 0.05 15.13-0.09 30.26 0.05 45.39-20.47 0.14-40.95 0.05-61.43 0.03-10.76 0.06-21.36-4.15-29.34-11.33-10.99-9.8-17.17-24.58-16.91-39.26 0.01-21.35-0.03-42.69-0.01-64.04 0.2-18.38 10.81-36.72 27.62-44.68"/>
 </g>
 <g id="g4553" transform="matrix(2.3251 0 0 2.3251 973.23 -31.249)" stroke-width="2.2793">
  <path id="path9" d="m-407.77 132.86 66.718 66.718 66.718-66.718-32.266-32.239h-68.929zm66.718 77.531-77.533-77.531 39.886-39.886h75.265l39.915 39.886z"/>
  <path id="path13-4" d="m-328.85 138.02v2.4366h-8.5816v37.08h8.5816v2.4412h-25.004v-2.4412h8.16v-37.08h-8.16v-2.4366h8.16v-5.19c0-18.118 7.5218-25.745 17.694-25.745 4.1301 0 8.8985 1.9055 8.8985 6.8858 0 2.1175-2.1198 3.4965-3.9204 3.4965-2.8606 0-4.3444-2.0126-4.3444-4.8755 0-1.1647 0.8479-1.2696 0.8479-2.6463 0-0.53108-1.8007-0.63593-2.5437-0.63593-5.0852 0-8.3697 6.145-8.3697 16.739v11.971z"/>
  <path id="path17-7" d="m-310.8 139.08c0 2.1152-1.7163 3.8315-3.8315 3.8315-2.1152 0-3.8315-1.7163-3.8315-3.8315 0-2.1175 1.7163-3.8315 3.8315-3.8315 2.1152 0 3.8315 1.714 3.8315 3.8315"/>
 </g>
</svg>
