<?xml version="1.0" encoding="UTF-8"?>
<svg id="svg47" width="947.66pt" height="433.88pt" version="1.1" viewBox="0 0 947.66 433.88" xmlns="http://www.w3.org/2000/svg" xmlns:cc="http://creativecommons.org/ns#" xmlns:dc="http://purl.org/dc/elements/1.1/" xmlns:rdf="http://www.w3.org/1999/02/22-rdf-syntax-ns#" xmlns:xlink="http://www.w3.org/1999/xlink">
 <metadata id="metadata53">
  <rdf:RDF>
   <cc:Work rdf:about="">
    <dc:format>image/svg+xml</dc:format>
    <dc:type rdf:resource="http://purl.org/dc/dcmitype/StillImage"/>
    <dc:title/>
   </cc:Work>
  </rdf:RDF>
 </metadata>
 <defs id="defs51">
  <linearGradient id="linearGradient4536" x1="148.23" x2="967.03" y1="364.96" y2="364.96" gradientUnits="userSpaceOnUse">
   <stop id="stop4530" offset="0"/>
   <stop id="stop4532" stop-opacity="0" offset="1"/>
  </linearGradient>
  <linearGradient id="linearGradient4554" x1="498.83" x2="498.83" y1="247.52" y2="156.02" gradientTransform="translate(-19.37 -27.5)" gradientUnits="userSpaceOnUse">
   <stop id="stop4548" stop-color="#013b69" offset="0"/>
   <stop id="stop4550" stop-color="#2171b8" offset="1"/>
  </linearGradient>
  <linearGradient id="linearGradient4556" x1="788.56" x2="788.56" y1="349.66" y2="274.88" gradientUnits="userSpaceOnUse">
   <stop id="stop4558" stop-color="#9dbfe2" offset="0"/>
   <stop id="stop4560" stop-color="#adceef" offset="1"/>
  </linearGradient>
 </defs>
 <g id="#a5c6e9ff" transform="translate(-19.37 -27.5)" fill="url(#linearGradient4536)">
  <path id="path42" d="m967.03 268.54v114.28h-651.17c1.56 1.16 3.1 2.52 4.88 3.37 34.42 16.49 70.45 29.54 107.27 39.55 49.99 13.49 101.38 21.94 153.11 24.52 10.6 0.83 21.24 0.51 31.85 1.13 38.53-0.2 77.25-2.54 115.04-10.46 21.21-4.05 42.09-9.92 62.24-17.71 12.85-4.78 25.01-11.14 37.19-17.35-15.46 11.37-32.98 19.58-50.69 26.8-42.14 16.33-87.14 24.37-132.13 27.23-18.5 1.28-37.04 1.77-55.59 1.32-20.56-1.12-41.16-2.07-61.62-4.49-75.66-8.86-150.28-28.61-219.46-60.72-36.71-17.14-71.93-37.91-103.3-63.66-19.06-15.49-36.41-33.15-50.92-52.99-2.47-3.15-5.17-6.645-5.5-10.815z" fill="url(#linearGradient4556)"/>
 </g>
 <path id="path23" d="m364.68 1.5197c6.94-0.85 13.96-0.39 20.91-1.28 12.37-0.29 24.75-0.3 37.12-0.12 6.66-0.27 13.26 0.99 19.92 0.81 75.94 4.47 151.12 21.44 221.69 49.83 39.42 15.96 77.46 35.54 112.69 59.42 42.29 28.81 81.34 63.85 108.89 107.36 2.6801 4.1367 3.8903 6.5141 5.37 10.215h-891.27v-135.49h712.43c-35.21-20.13-72.99-35.565-111.54-48.015-60.9-19.24-124.46-30.23-188.29-32.2-20.98 0.02-41.99-0.43-62.9 1.42-39.62 3.02-79.12 10.12-116.63 23.45-26.14 9.28-51.22 21.89-73.32 38.74 33.01-29.65 74.5-48.25 117.01-59.65 19.35-5.23 39.07-8.96 58.93-11.63 9.67-0.9 19.29-2.31 28.99-2.86" fill="url(#linearGradient4554)"/>
 <g id="g4546" transform="translate(-19.37 -27.5)" fill="#165c98">
  <path id="path35" d="m472.96 289.12c7.79-6.41 18.19-8.67 28.09-8.75h63.06c0.05 4 0.96 8.3-0.82 12.07-1.89 3.15-6.03 3.28-9.29 3.31-18.36-0.04-36.71 0.02-55.07-0.04-3.62 0.05-7.69 0.16-10.54 2.72-3.32 3.29-4 8.55-2.6 12.88 1.61 3.99 6.23 5.02 9.99 5.93 12.73 2.46 25.56 4.41 38.33 6.65 9.37 1.55 19.17 3.29 27.16 8.77 9.42 6.65 9.61 21.57 2.3 29.87-6.6 8.04-17.75 9.82-27.56 10.14-23.16-0.01-46.33 0.27-69.48-0.14 0.24-3.83-0.84-8.21 1.47-11.58 2.25-3.16 6.5-3.14 9.98-3.23 20.01 0.05 40.01 0.01 60.02 0.04 3.41-0.01 7.24-0.37 9.72-3.02 2.83-2.76 3.94-8.22 0.46-10.91-5.4-3.98-12.36-4.43-18.74-5.53-10.52-1.68-21-3.54-31.52-5.19-8.35-1.3-16.83-3.41-23.91-8.2-4.99-3.42-8.79-8.83-9.33-14.97-0.96-7.76 2.22-15.85 8.28-20.82z"/>
  <path id="path37" d="m680.43 285.14c0.69-2.82 3.81-4.16 6.5-4 30.58-0.12 61.16 0.1 91.73-0.11-0.03 3.49 0.34 7.05-0.37 10.5-0.93 3.05-4.37 4.12-7.24 4.08-10.51 0.11-21.02 0.01-31.53 0.03 0 23.47 0.08 46.93 0.02 70.4 0.26 3.19-2.24 6.28-5.47 6.48-5.48 0.44-10.98 0.13-16.47 0.04 0.08-25.66 0.22-51.33 0.05-77-12.48 0.17-24.96 0.08-37.44 0.05 0.01-3.49-0.29-7.01 0.22-10.47z"/>
  <path id="path39" d="m617.8 285.48c1.14-2.86 4.31-3.86 7.16-3.72 6.69 0.03 13.39-0.12 20.08 0.06 2.7-0.29 3.63 2.57 4.67 4.46 9.71 20.59 19.52 41.13 29.27 61.7 3.75 8.2 8.15 16.13 11.21 24.62-7.42-0.07-14.94 0.63-22.31-0.32-3.23-5.34-5.29-11.31-8.17-16.85-17.44 0.04-34.88-0.08-52.32-0.08-2.89 5.54-4.95 11.53-8.35 16.79-7.29 1.28-14.91 0.26-22.32 0.49 4.65-11.35 10.34-22.26 15.53-33.38 8.48-17.94 17.02-35.85 25.55-53.77m15.88 10.16c-7.6 15.35-14.96 30.82-22.51 46.21 15.13-0.08 30.26-0.02 45.39-0.04-7.7-15.36-14.91-30.96-22.88-46.17z"/>
 </g>
 <g id="#ffffffff" transform="translate(-19.37 -27.5)" fill="#fff">
  <path id="path2" d="m89.35 140.05c-0.15-3.45 2.1-7.28 5.76-7.65 4.47-0.43 8.98-0.16 13.47-0.02 0.28 35.23-0.08 70.47 0.04 105.7-0.01 1.26 0.19 3.5-1.67 3.43-5.69 0.21-11.39-0.02-17.08 0.08-0.19-1.53-0.45-3.05-0.48-4.58 0.08-32.32-0.13-64.64-0.04-96.96z"/>
  <path id="path4" d="m345.39 132.59c4.3-0.64 8.68-0.26 13.01-0.06 0.29 10.99 0.08 21.99 0.09 32.98 11.36-1.33 23.04-1.74 34.3 0.57 9.66 1.98 17.98 9.04 21.78 18.08 3.64 9.14 3.54 19.27 2.37 28.89-0.93 7.77-3.67 15.89-9.98 20.94-6.54 5.08-15.02 6.55-23.05 7.34-12.67 0.7-25.45-0.1-37.91-2.52-2.8-0.42-5.44-2.69-5.24-5.71-0.1-31.03-0.17-62.07-0.2-93.1-0.3-3.18 1.57-6.7 4.83-7.41m13.3 48.25c-0.49 15.11-0.18 30.23-0.26 45.35 9.46 1.07 19.12 1.6 28.55-0.08 3.97-0.66 8.12-2.52 9.97-6.33 2.85-5.79 2.92-12.45 2.93-18.77-0.13-6.09-0.92-12.9-5.54-17.37-3.91-3.5-9.35-4.41-14.39-4.89-7.12-0.25-14.5-0.52-21.26 2.09z"/>
  <path id="path6" d="m638.69 133.48c4.35-0.94 8.83-0.55 13.21 0.05 3.12 0.88 4.47 4.46 4.36 7.45 0.05 31.01-0.21 62.02-0.42 93.03 0.15 2.81-2.42 4.86-4.97 5.31-13.51 2.37-27.34 3.34-41.01 1.98-8.56-1.08-17.71-3.77-23.33-10.75-5.53-6.91-6.14-16.12-6.59-24.59-0.43-10.22 0.86-21.29 7.71-29.37 6.51-8.2 17.38-10.98 27.41-11.31 7.9-0.12 15.83-0.25 23.71 0.45-0.12-10.75-0.04-21.5-0.08-32.25m-33.28 48.98c-4.67 2.37-7.18 7.48-7.55 12.55-0.66 7.62-0.9 15.57 1.52 22.94 1.79 5.4 7.21 8.78 12.72 9.25 8.91 0.91 17.96 0.75 26.82-0.59-0.27-15 0.29-30.04-0.42-45-3.2-1.79-7.02-1.72-10.56-2.01-7.55-0.15-15.61-0.7-22.53 2.86z"/>
  <path id="path8" d="m674.41 134.7c3.22-1.85 7.19-1.6 10.72-0.95 7.99 2.35 8.32 15.89 0.41 18.59-3.2 0.69-6.63 0.74-9.8-0.09-6.76-2.73-7.18-13.68-1.33-17.55z"/>
  <path id="path10" d="m154.39 164.55c12.74-1.07 26.31 0.57 37.04 8 8 5.71 11.31 15.93 11.38 25.4 0.31 10.61-0.1 22.29-6.92 31.03-7.07 8.99-19.02 12.27-30.01 12.67-12.25 0.51-25.85-0.58-35.5-9.01-8.75-7.92-10.36-20.53-10.25-31.7-0.08-9.93 2.23-21.01 10.31-27.58 6.85-5.28 15.43-7.92 23.95-8.81m-1.13 14.61c-4.19 0.74-8.67 2.2-11.26 5.8-3.52 4.9-4.02 11.19-4.13 17.03 0.13 6.27 0.4 12.97 3.73 18.49 3.89 5.47 11.14 6.79 17.43 7.05 7.4 0.19 16.08-0.26 21.4-6.14 4.76-6.77 4.44-15.57 4.24-23.47-0.35-6.38-2.38-13.95-8.73-16.81-7.08-3.11-15.16-2.89-22.68-1.95z"/>
  <path id="path12" d="m238.52 164.72c8.97-0.42 18.18-1.13 26.96 1.17 2.89 0.67 5.77 2.51 8.8 1.37 10-2.88 20.56-3.71 30.88-2.35 6.95 1.06 14.11 3.78 18.52 9.53 3.94 4.89 4.96 11.41 4.93 17.53-0.04 15.67-0.05 31.35-0.06 47.02 0.01 1.02-0.12 2.96-1.61 2.75-5.23 0.15-10.5 0.35-15.71-0.15-0.71-1.04-0.61-2.34-0.65-3.53 0.06-14.03-0.04-28.06-0.02-42.08-0.05-4.39 0.19-9.29-2.58-12.99-2.63-3.18-7.08-3.7-10.95-3.76-4.81 0.03-9.79-0.15-14.38 1.49-1.44 0.95-0.91 2.83-1.07 4.27-0.09 18.75 0.21 37.53-0.22 56.27-5.27 1.26-10.93 0.4-16.34 0.49-1.59 0.35-1.2-1.84-1.41-2.73-0.04-16 0-32.01-0.08-48.01-0.07-4.06-1.14-9.34-5.63-10.65-6.06-1.78-12.55-1.18-18.76-0.72-1.99 0.52-5.65 0.39-5.42 3.33-0.11 18.67-0.05 37.34-0.08 56.02 0.07 1.06-0.13 2.88-1.62 2.74-5.22 0.16-10.48 0.39-15.67-0.16-1.13-1.94-0.42-4.42-0.62-6.57 0.05-20.34-0.1-40.69-0.1-61.03-0.29-2.98 1.86-5.74 4.72-6.44 5.94-1.51 12.09-2.08 18.17-2.81z"/>
  <path id="path14" d="m437.61 168.57c2.86-3 7.51-2.56 11.32-3.03 13.85-0.5 28.42-2.39 41.64 2.88 8.3 3.13 12.85 12.02 13.04 20.54 0.24 14.01-0.03 28.03 0.1 42.05-0.08 2.12 0.18 4.59-1.43 6.26-1.58 1.73-4.03 2.09-6.22 2.45-10.6 1.55-21.34 1.95-32.04 1.78-8.24-0.21-16.81-1.29-24.09-5.43-4.09-2.32-7.42-6.23-8.34-10.92-1.38-5.71-1.22-12.29 2.33-17.22 3.25-4.39 8.52-6.57 13.54-8.25 11.83-4.03 24.64-3.72 36.5-7.61 3.17-0.76 2.27-4.76 1.55-7.02-1.07-3.69-4.95-5.38-8.43-5.91-13.592-2.3462-27.502-0.62287-39.65 1.39-0.14-3.92-1.63-8.26 0.18-11.96m24.48 40.71c-3.84 0.77-8.16 0.89-11.26 3.58-2.84 2.32-3.16 6.69-1.62 9.83 1.48 2.86 4.77 3.96 7.73 4.59 9.65 1.87 19.57 0.96 29.25-0.27-0.01-7.33-0.02-14.66-0.01-21.99-8.08 1.14-16.02 3.04-24.09 4.26z"/>
  <path id="path16" d="m527.86 170.86c9.36-6.61 21.42-5.86 32.31-5.37 3.1 0.33 7.42 0.19 8.85 3.63 0.68 3.47 0.05 7-0.31 10.46-6.88 0.06-13.76-0.2-20.64-0.04-3.67 0.16-7.92 1.09-9.99 4.45-1.88 3.36-1.28 7.35-1.38 11.04-0.04 14.98 0.09 29.96-0.09 44.94 0.17 1.37-1.61 1.57-2.58 1.53-4.93 0.08-9.87 0.12-14.8-0.25-0.09-16.07 0-32.15-0.07-48.23-0.4-8.12 1.76-17.17 8.7-22.16z"/>
  <path id="path18" d="m717 166.28c5.27-0.95 10.66-0.89 15.99-1.15 8.35-0.61 16.81-0.48 25.06 1.02 6.21 1.32 12.74 3.93 16.3 9.52 3.8 5.65 4.18 12.74 4.11 19.34-0.11 12.83 0.05 25.66-0.13 38.49 0.15 3.12-2.48 5.5-5.42 5.86-12.56 2.09-25.35 2.45-38.04 1.99-8.01-0.64-16.47-2.13-22.94-7.23-5.45-4.18-6.73-11.65-6.15-18.11 0.4-5.35 3.57-10.38 8.38-12.84 13.4-7.51 29.36-6.49 43.75-10.8 4.76-0.76 3.13-7.46 0.79-10.07-14.023-7.925-33.873-3.1517-46.82-1.86-0.11-3.54-0.48-7.09-0.18-10.62 0.73-2.23 3.19-3.15 5.3-3.54m20.09 42.96c-3.86 0.77-8.15 0.91-11.33 3.5-3.88 3.13-3.55 10.05 0.78 12.63 4.03 2.3 8.83 2.58 13.37 2.89 6.95 0.11 14.03 0.03 20.86-1.41 0.36-7.27 0.01-14.55 0.09-21.83-7.97 1.15-15.82 3-23.77 4.22z"/>
  <path id="path20" d="m675.66 167.77c4.44-1.11 9.09-0.55 13.61-0.32-0.04 23.51-0.19 47.02-0.14 70.53 0.05 1.25-0.1 2.47-0.43 3.67-5.44 0.34-10.94 0.37-16.37-0.02-0.53-3.85-0.19-7.74-0.25-11.6-0.02-18.36-0.33-36.71-0.25-55.07-0.07-2.84 0.95-6.09 3.83-7.19z"/>
 </g>
</svg>
