<svg width="121.07pt" height="121.07pt" version="1.1" viewBox="0 0 121.07 121.07" xmlns="http://www.w3.org/2000/svg">
 <g transform="translate(-52.128 -10.705)" fill="#c04631">
  <path d="m134.66 59.38 4.565-1.49v5.625l4.2347 3.28e-4v3.7447l-4.2345-0.03v9.7404c0 2.5949 2.6469 2.2896 4.275 2.2896v3.1c-0.93773 0.21869-2.0281 0.38578-3.1143 0.39322-4.3302 0-5.726-2.2622-5.726-6.1438v-9.0696h-3.0502v-4.0248h3.0503z"/>
  <path d="m144.45 63.515h4.71l4.4803 14.705 4.48-14.705h4.71l-6.73 18.625h-5.16z"/>
 </g>
 <g transform="matrix(.39699 0 0 .39699 31.372 -58.877)" fill="#fff">
  <path d="m103.3 431.3c-46.4 10.4-96.9-4.4-130.2-42.9s-40.7-90.6-23.8-135l-14.3-16.6c-24.3 52.7-17.3 117 23.2 163.8 40.5 46.7 103.1 62.9 158.7 46.4z"/>
  <path d="m28 155.2 14 16.2c47.2-11.6 99 3 133 42.3 34 39.2 41 92.7 22.7 137.7l13.3 15.4c25.4-53.1 18.7-118.4-22.2-165.7-40.9-47.4-104.7-63.4-160.8-45.9z"/>
 </g>
 <g transform="matrix(.72746 0 0 .72746 .85291 128.74)" fill="#fff">
  <g transform="matrix(.39699 0 0 .39699 31.372 -208.88)">
   <path d="m-39.9 263.7h17.4v9.1c4-5.4 9.3-10.3 18.1-10.3 8 0 14.1 3.7 17.3 10.2 5.4-6.6 11.8-10.2 20.1-10.2 12.9 0 20.7 8.2 20.7 23.7v42h-17.4v-36c0-8.7-3.7-13.1-10.2-13.1s-10.5 4.5-10.5 13.1v36h-17.4v-36c0-8.7-3.7-13.1-10.2-13.1s-10.5 4.5-10.5 13.1v36h-17.4z" fill="#fff"/>
  </g>
  <path d="m79.368-78.505h-23.939c0.2779-2.5011 1.1116-4.8433 2.5011-7.0665s4.0096-4.8036 7.8208-7.8208c2.3423-1.8262 3.8509-3.2554 4.486-4.2081 0.63519-0.95279 0.99249-1.8659 0.99249-2.6996 0-0.91308-0.3176-1.7071-0.95279-2.382-0.63519-0.67489-1.4689-0.99248-2.4217-0.99248-1.0322 0-1.8659 0.35729-2.5011 1.0322-0.63519 0.6749-1.0719 1.8659-1.3101 3.573l-7.9796-0.67489c0.3176-2.382 0.87339-4.2478 1.7071-5.5579 0.83369-1.3498 2.0247-2.3423 3.5333-3.0569 1.5086-0.71459 3.6127-1.0719 6.3122-1.0719 2.8187 0 5.0021 0.3573 6.5504 1.0322 1.5483 0.67489 2.779 1.7071 3.6921 3.1363 0.91309 1.3895 1.3498 2.9775 1.3498 4.7242 0 1.8659-0.51609 3.6127-1.5483 5.3197-1.0322 1.7071-2.8981 3.5333-5.5976 5.5579-1.588 1.191-2.6996 1.985-3.2157 2.4614-0.55579 0.47639-1.191 1.0719-1.9056 1.8659h12.466v6.8283z" stroke-width=".39699"/>
  <path d="m94.613-104.67c-7.3841 0-13.339 5.9549-13.339 13.339s5.9549 13.339 13.339 13.339 13.339-5.9549 13.339-13.339-5.9946-13.339-13.339-13.339zm-0.0794 19.215c-3.1363 0-5.7167-2.5408-5.7167-5.7167 0-3.176 2.5408-5.7167 5.7167-5.7167 3.1363 0 5.7167 2.5408 5.7167 5.7167 0 3.176-2.5805 5.7167-5.7167 5.7167z" stroke-width=".39699"/>
 </g>
</svg>
