<?xml version="1.0" encoding="UTF-8"?>
<!-- Created with Inkscape (http://www.inkscape.org/) -->
<svg id="svg2" width="650.78" height="375.66" version="1.1" viewBox="0 0 650.78 375.66" xml:space="preserve" xmlns="http://www.w3.org/2000/svg" xmlns:cc="http://creativecommons.org/ns#" xmlns:dc="http://purl.org/dc/elements/1.1/" xmlns:rdf="http://www.w3.org/1999/02/22-rdf-syntax-ns#"><metadata id="metadata8"><rdf:RDF><cc:Work rdf:about=""><dc:format>image/svg+xml</dc:format><dc:type rdf:resource="http://purl.org/dc/dcmitype/StillImage"/><dc:title/></cc:Work></rdf:RDF></metadata><g id="g10" transform="matrix(1.3333 0 0 -1.3333 -73.859 782.35)"><g id="g4580"><path id="path24" d="m479.25 359.86h-34.459v-7.92h12.974v-34.548h8.431v34.708h13.054zm28.624-29.59c-0.435 0.981-0.682 1.511-0.906 2.05-3.594 8.645-7.174 17.295-10.797 25.927-0.285 0.679-0.831 1.739-1.305 1.766-2.872 0.166-5.759 0.083-8.893 0.083 0.385-0.976 0.607-1.588 0.864-2.183 5.236-12.131 10.637-24.195 15.611-36.432 1.387-3.412 3.087-4.667 6.656-4.293 1.708 0.179 2.49 0.624 3.159 2.198 5.486 12.891 11.078 25.737 16.631 38.6 0.269 0.623 0.472 1.275 0.79 2.144-2.594 0-4.858-0.121-7.103 0.039-1.726 0.123-2.563-0.448-3.223-2.083-3.702-9.171-7.535-18.29-11.484-27.816m-73.861 41.808h2.484c32.553 0 65.105 1e-3 97.659-1e-3 6.353-1e-3 9.312-2.924 9.315-9.234 9e-3 -16.177 9e-3 -32.353 0-48.53-4e-3 -6.226-2.975-9.216-9.142-9.217-32.686-3e-3 -65.372-1e-3 -98.058-2e-3h-2.258z"/><path id="path28" d="m122.83 343.1c-3.989-3.729-8.105-7.492-12.12-11.361-2.298-2.214-4.436-4.595-6.638-6.907-3.791-3.979-9-4.111-12.844-0.201-5.784 5.883-11.496 11.836-17.243 17.755-0.442 0.455-0.923 0.871-1.752 1.65v-2.56c-1e-3 -9.183 0.038-18.367-0.016-27.549-0.035-5.94-4.728-9.84-10.269-8.662-3.231 0.687-5.831 3.389-6.347 6.654-0.135 0.85-0.19 1.721-0.191 2.583-0.011 16.237-0.019 32.474-1e-3 48.711 5e-3 5.256 2.715 8.655 7.415 9.291 2.918 0.395 5.285-0.729 7.336-2.797 8.81-8.881 17.657-17.726 26.492-26.583 0.233-0.233 0.488-0.446 0.907-0.826 0.526 0.487 1.057 0.945 1.551 1.44 8.587 8.634 17.184 17.259 25.746 25.918 2.697 2.728 5.796 3.684 9.434 2.336 3.438-1.274 5.337-4.212 5.344-8.304 0.026-16.57 0.033-33.14-2e-3 -49.709-0.011-5.226-3.619-8.988-8.411-8.96-4.821 0.028-8.366 3.804-8.382 9.026-0.029 9.117-9e-3 18.234-9e-3 27.35v1.705"/><path id="path32" d="m181.64 358.48v-12.608h27.981v-13.857h-27.946v-12.653h28.716v-13.723h-42.649v66.54h42.425v-13.699z"/><path id="path36" d="m249.85 361.46v-2.7-27.942c0-4.192-0.04-8.384 0.049-12.573 0.012-0.568 0.678-1.611 1.037-1.61 5.647 0.027 11.375-0.364 16.924 0.443 9.746 1.417 16.019 8.668 17.246 19.205 1.164 9.991-3.924 21.936-16.474 24.232-6.01 1.099-12.301 0.669-18.782 0.945m-11.915-55.831v66.573c0.667 0.038 1.303 0.105 1.94 0.106 7.654 7e-3 15.308 0.015 22.961 3e-3 24.631-0.039 34.563-20.106 32.93-36.691-1.18-11.992-6.534-21.354-17.585-26.901-4.281-2.149-8.897-3.127-13.678-3.161-8.452-0.061-16.904-0.045-25.356-0.055-0.327-1e-3 -0.653 0.066-1.212 0.126"/><path id="path44" d="m323.63 365.47h-10.19v6.756h33.072v-6.729h-9.928v-53.074h9.921v-6.988c-0.453-0.047-0.775-0.11-1.096-0.11-10.582-5e-3 -21.164-4e-3 -31.924-4e-3v6.981h10.145z"/><path id="path48" d="m227.44 513.58v-5.286c-1e-3 -22.984 0.057-45.967-0.031-68.95-0.039-10.129-5.798-18.184-14.653-21.025-8.556-2.745-18.193-0.198-23.083 7.345-2.573 3.969-4.47 9.19-4.508 13.863-0.341 41.634-0.247 83.271-0.165 124.91 0.02 10.076 5.006 17.594 13.518 20.773 9.102 3.4 16.897 1.089 23.656-5.717 27.343-27.533 54.738-55.015 82.104-82.526 9.575-9.626 10.055-22.827 1.181-31.511-8.675-8.489-21.877-7.883-31.189 1.613-15.27 15.571-30.442 31.238-45.656 46.864-0.391-0.116-0.783-0.233-1.174-0.35"/></g><g id="g4572" fill="#ef2f32"><path id="path40" d="m387.17 343.87c-1.033-1.134-1.664-1.863-2.334-2.554-3.349-3.455-8.623-3.604-11.986-0.35-3.39 3.279-3.482 8.524-0.082 11.974 5.604 5.685 11.243 11.337 16.947 16.922 2.555 2.503 5.664 3.166 9.011 1.759 3.314-1.394 5.173-3.987 5.183-7.59 0.051-17.03 0.063-34.061-0.012-51.092-0.021-4.776-3.805-8.255-8.502-8.181-4.647 0.074-8.207 3.72-8.218 8.497-0.022 9.314-7e-3 18.627-7e-3 27.941v2.674"/><path id="path52" d="m355.61 514.33c-2.471-2.718-3.948-4.429-5.516-6.053-8.573-8.882-21.845-9.259-30.406-0.887-8.392 8.206-8.613 21.457-0.157 30.045 14.025 14.243 28.164 28.376 42.425 42.382 6.407 6.292 14.218 7.954 22.578 4.545 8.505-3.468 13.206-10.073 13.226-19.35 0.095-42.478 0.125-84.956-4e-3 -127.43-0.037-12.038-9.155-20.895-20.876-20.982-11.872-0.089-21.169 8.983-21.232 21.176-0.128 24.98-0.038 49.962-0.038 76.557"/></g></g></svg>
