<svg id="a" width="463.08pt" height="169.95pt" version="1.1" viewBox="0 0 463.08 169.95" xmlns="http://www.w3.org/2000/svg">
 <g id="b" transform="translate(-36.85 -150.34)" fill="#029fe1">
  <path id="c" d="m199.86 252.03h10.15v64.02h-10.15v-1.3597c-6.9 2.68-15.725 3.43-22.905 1.33-6.75-2.28-12.41-8.12-13.79-15.21-1.05-5.14-0.96-10.69 1.06-15.6 2.81-6.42 8.22-11.79 14.86-14.16 6.78-2.09 14.165-1.39 20.775 0.97v-19.99m-25.845 36.81c-1.5 5.76-0.9 13.13 3.99 17.14 6.23 4.66 15.195 4.7 21.855 0.89l2.6e-4 -25.51c-2.3-3.29-7.085-4.14-10.855-3.91-6.71 0.1-13.37 4.75-14.99 11.39z"/>
  <path id="d" d="m234.08 257.89a6.2996 5.0467 0 0 1-6.2996 5.0468 6.2996 5.0467 0 0 1-6.2996-5.0468 6.2996 5.0467 0 0 1 6.2996-5.0468 6.2996 5.0467 0 0 1 6.2996 5.0468z" style="paint-order:normal"/>
  <path id="e" d="m50.55 253.98h5.27l17.35 43.495 16.12-43.495h5.41l14.76 61.89h-10.35l-8.37-38.005-15.95 38.985h-3.27l-16.08-38.955-8.38 37.975h-10.21z"/>
  <path id="f" d="m110.24 290.07c1.0222-9.0687 8.2958-16.634 16.926-19.134 2.6668-0.80737 5.4265-0.87154 7.9866-0.92915 7.1588-0.15414 14.692 0.62769 19.937 5.923 5.33 4.47 6.63 12.075 4.87 18.565h-38.76c-0.98 7.51 5.45 14.355 12.77 14.875 6.19 1.04 12.23-0.83 17.8-3.36l4.12 6.15c-7.78 5.2-17.69 5.75-26.72 4.6-7.3-1.73-14.46-6.33-17.44-13.46-1.84-4.15-1.87-8.79-1.49-13.23m10.61-2.295h30.05c-0.91-2.46-1.7-5.115-3.77-6.875-3.94-3.89-10.02-3.78-15.13-3.14-5.36 0.71-9.75 4.855-11.15 10.015z"/>
  <path id="g" d="m215 270.12h17.32v45.94l-10.105-0.09v-38.455h-7.215z"/>
  <path id="h" d="m242.48 274.85c1.9096-1.3856 4.8576-2.8043 7.062-3.5005 5.2413-1.6554 11.093-1.6336 16.5-1.2253 6.21 0.35 12.85 3.6 15.12 9.71 1.1389 3.4575 1.6039 7.009 1.6039 10.597v16.92l4.4861 5.2622v4.2005h-7.6651c-2.5919 0-4.7074-2.5338-6.4349-4.6502-2.7528 1.7205-5.6568 3.5082-8.8248 4.2747-3.64 0.97134-11.526 1.2343-14.715-0.0947-5.05-1.99-10.12-6.4-9.72-12.33-0.7-7.07 5.36-12.35 11.35-14.73 6.55-3.07 13.68-2.39 20.7-2.46-0.19-3.31-1.3-6.81-4.56-8.19-7.01-2.86-14.84-0.68-20.89 3.39l-4.0117-7.1742m9.9217 23.534c-3.34 2.87-3.19 9.31 1.18 11.11 6.11 2.5 13.73 0.76 18.36-3.9v-11.57c-6.73-0.96-14.65-1.23-19.54 4.36z"/>
 </g>
 <g id="i" transform="translate(-36.85 -150.34)">
  <path id="j" transform="scale(.75)" d="m352.96 200.45c-8.9606-0.12654-16.542 6.7132-23.484 11.746-2.8996 2.2328-3.0047 3.6858-1.1875 7.4941 18.853 35.24 34.147 72.24 48.414 109.53 10.625 25.699 18.785 53.959 25.799 75.293-3.4545-49.608-13.952-95.29-23.146-134.91-4.6533-17.44-8.3856-35.133-14.266-52.213-1.8679-5.2705-2.6218-11.964-7.2617-15.504-0.88733-0.59506-1.6433-1.0903-3.0566-1.3223-0.60985-0.073-1.2132-0.11266-1.8106-0.1211z" fill="#029fe1" stroke-width="1.3333"/>
  <path id="k" d="m228.64 171.63c3.17-1.88 7.42-1.67 10.48 0.35 2.23 1.4 3.69 3.68 5.22 5.76 8.2998 10.874 14.541 23.155 20.115 34.519 5.6251 11.496 10.776 23.221 15.285 35.191 0.94 2.91 3.64 10.73 3.94 13.77-9.31-15-21.45-34.44-32.97-47.85-3.8-4.87-7.73-9.66-12.16-13.98-7.281-8.0436-12.581-13.222-20.243-19.934 2.49-3.25 6.8128-5.8364 10.333-7.8264z" fill="#08aceb"/>
  <g id="l">
   <path id="m" d="m191.83 201.38c4.66-5.68 11.66-10.05 19.23-9.68 5.07 0.36 9.68 2.8 14.11 5.1 10.81 6.13 19.69 15.01 28.01 24.09 4.08 4.81 8.56 9.43 11.32 15.17-22.731-14-45.916-27.323-72.67-34.68z" fill="#5dc4ee"/>
  </g>
  <g id="n">
   <path id="o" d="m167.85 224.56c6.64-7.63 17.4-10.45 27.21-9.73 14.74 1.3 29.39 4.37 43.24 9.63 2.2 0.78 4.22 1.98 6.14 3.31-25.364-2.7724-52.153-4.439-76.59-3.21z" fill="#acdff4"/>
   <path id="p" d="m153.13 245.23c18.78-10.87 40.45-15.83 61.97-17.01-24.102 7.6554-50.653 16.731-73.2 27.6 2.65-4.53 6.82-7.88 11.23-10.59z" fill="#bee5f4"/>
  </g>
 </g>
 <g id="q" fill="#fff">
  <path id="r" d="m262.69 103.75h59.205v8.33h-24.73v53.575h-10.77v-53.575h-23.705z"/>
  <g id="s" transform="translate(-36.85 -150.34)">
   <path id="t" d="m470.26 260.06 10.74-3.31v13.195h15.01v6.45h-15.01v21.655c0.03 3.24 0.265 6.86 2.415 9.48 4.37 3.63 10.28 1.57 15.17 0.39l1.35 7.91c-6.6611 0.87249-13.576 2.4139-19.453 0.5847-5.4429-1.7134-10.091-6.6048-10.222-12.475v-27.545h-6.24v-6.45h6.24z" fill="#fff"/>
  </g>
  <path id="u" d="m307.25 139.6c1.0222-9.0687 8.2958-16.634 16.926-19.134 2.6668-0.80737 5.4265-0.87154 7.9866-0.92915 7.1588-0.15414 14.692 0.62769 19.937 5.923 5.33 4.47 6.63 12.075 4.87 18.565h-38.76c-0.98 7.51 5.45 14.355 12.77 14.875 6.19 1.04 12.23-0.83 17.8-3.36l4.12 6.15c-7.78 5.2-17.69 5.75-26.72 4.6-7.3-1.73-14.46-6.33-17.44-13.46-1.84-4.15-1.87-8.79-1.49-13.23m10.61-2.295h30.05c-0.91-2.46-1.7-5.115-3.77-6.875-3.94-3.89-10.02-3.78-15.13-3.14-5.36 0.71-9.75 4.855-11.15 10.015z"/>
 </g>
 <g id="v" transform="translate(-36.85 -150.34)">
  <path id="w" d="m400.12 267.01h57.705v53.28h-57.705v-53.28" fill="#029fe1"/>
  <path id="x" d="m405.01 270.32 17.88 22.04-19.34 23.395h11.79l13.325-16.295 13.585 16.295h11.77l-19.58-23.395 17.65-22.04h-10.7l-12.725 14.83-12.905-14.83z" fill="#fff"/>
 </g>
</svg>
