<svg enable-background="new 0 0 1293.3 478" version="1.1" viewBox="0 0 1293.3 478" xml:space="preserve" xmlns="http://www.w3.org/2000/svg"><defs>
<linearGradient id="linearGradient889" x2="1" gradientTransform="matrix(152.33 -231.9 -231.9 -152.33 495.4 365.64)" gradientUnits="userSpaceOnUse"><stop stop-color="#ef5da2" offset="0"/><stop stop-color="#ef5da2" offset=".098908"/><stop stop-color="#825fa8" offset=".45517"/><stop stop-color="#0ea5df" offset="1"/></linearGradient><linearGradient id="linearGradient887" x1="40.43" x2="203.74" y1="185.99" y2="55.164" gradientTransform="matrix(1.0348 0 0 1.0348 1127.7 -14.465)" gradientUnits="userSpaceOnUse"><stop stop-color="#ef5da2" offset="0"/><stop stop-color="#ef5da2" offset=".098908"/><stop stop-color="#825fa8" offset=".45517"/><stop stop-color="#0ea5df" offset="1"/></linearGradient>
	</defs>
<path d="m663.49 0.65543-120.16 195.13-28.902-67.99h-51.821l149.64 350.19h51.829l-97.712-228.34 153.25-248.93v-0.0597zm-226.42 367.75h56.127l35.595-59.034-22.627-52.81z" fill="url(#linearGradient889)" stroke-width="7.3225"/><g fill="#647883" stroke-width="1.9375"><path d="m91.062 1.3567-29.062 63.744-13.756-63.744h-20.15l-28.094 101.33h18.406l19.375-70.331h0.19375l15.306 70.331 8.9125-0.3875 31.969-68.394v0.3875l2.7125 68.394h17.631l-3.875-101.33z"/><path d="m185.81 18.213h-35.65l-2.9062 24.025h31.194l-2.1312 16.856h-31l-3.1 26.544h44.756l-2.1312 17.05h-62.969l12.206-101.33h53.862z"/><path d="m235.99 1.3567c34.294 0 44.562 27.319 44.562 49.212 0 30.225-17.825 51.925-40.688 51.925h-44.562l12.012-101.14zm-20.344 84.281h17.244c20.344 0 28.675-17.825 28.675-35.262 0-17.825-10.075-31.969-29.062-31.969h-8.9125z"/><path d="m295.86 1.3567-12.206 101.33h18.406l12.206-101.33z"/><path d="m385.95 102.69h-18.794l-2.5188-22.088h-26.738l-8.525 22.088h-20.15l42.238-102.69h19.569zm-43.012-36.619h19.956l-4.4562-44.756h-0.19375z"/><path d="m450.86 25.769c-5.6188-4.8438-14.919-8.9125-21.312-8.9125-6.7812 0-12.206 4.4562-12.206 11.044 0 14.531 31.775 16.469 31.775 44.756 0 16.275-9.8812 31-29.256 31-12.594 0-21.7-3.6813-29.256-9.6875l2.7125-17.631c6.975 6.0062 17.244 10.462 24.412 10.462 7.3625 0 12.4-4.4562 12.4-11.238 0-16.662-31.775-18.6-31.775-45.338 0-17.438 12.981-30.612 30.419-30.612 8.3312 0 17.244 2.7125 24.606 7.9437z"/><path d="m519.25 18.213h-35.456l-2.9062 23.831h31.194l-2.1312 16.856h-31.194l-3.2938 26.544h44.756l-1.9375 16.856h-63.162l12.206-101.33h53.862z"/><path d="m602.76 18.213h-28.094l-10.075 84.475h-18.212l10.075-84.281h-27.319l2.1312-16.856h73.625z"/><path d="m467.52 168.37-115.28-0.19375-7.9438 56.769h72.656l-5.6188 40.106h-72.656l-8.7188 63.162h116.64l-25.575 40.3h-147.25l33.325-240.64h142.99z"/><path d="m803.87 168.37h-63.356l-28.094 200.14h-50.762l28.094-200.14h-58.125l24.412-40.106h153.26z"/><path d="m970.11 318.33-12.594-26.156c-3.2938-6.7812-6.5875-12.594-10.269-17.05-3.4875-4.4562-8.525-8.3312-15.112-11.044v-0.775c9.1062-1.55 17.05-4.4562 23.638-8.525 6.5875-3.875 12.206-8.7188 16.856-14.338 4.4562-5.6188 7.75-11.819 9.8812-18.6s3.2938-13.95 3.2938-21.119-1.55-15.112-4.0688-23.638c-2.7125-8.525-7.1688-16.275-13.562-23.638-6.3938-7.1688-14.725-13.175-24.994-18.019-10.269-4.65-23.056-6.975-38.362-6.975h-82.344l-33.325 240.06h50.956l13.369-97.262h10.85c6.3938 0 11.625 0.58125 15.694 1.55s7.9438 3.2938 11.431 6.5875c3.6812 3.2938 7.1688 8.1375 10.85 14.725 3.6812 6.3938 8.1375 15.112 13.175 25.769l22.862 48.631h10.075zm-48.825-95.325c-3.875 3.2938-8.9125 6.0062-15.112 7.9438-6.0062 1.9375-13.562 2.9062-22.088 2.9062h-25.381l9.3-65.488h24.994c12.594 0 22.475 2.7125 29.644 8.1375 6.975 5.425 10.462 12.981 10.462 22.475 0 4.4562-0.96875 8.7188-2.7125 12.788-2.1312 4.2625-5.0375 7.9438-9.1062 11.238"/><path d="m1007.3 368.51 21.7-51.538h74.206l7.1688 51.538h52.119l-42.044-240.06h-53.669l-105.01 240.06zm78.275-190.26h0.5812l12.594 105.01h-55.219z"/></g>
<path d="m1197.1 13.693c13.454-8.5729 29.331-13.792 45.319-13.686 31.166 0 50.872 21.834 50.872 48.039 0 13.733-5.6529 28.041-11.801 38.53-10.141 17.271-21.742 33.632-33.218 50.044h44.415l-6.1675 41.383h-117.06v-3.7254c20.976-24.743 42.118-49.496 59.968-76.639 7.5957-11.756 14.57-24.163 18.306-37.74 1.8006-5.9089 1.0244-12.78-3.2598-17.458-5.2362-6.3021-14.312-6.7885-21.845-5.7226-11.818 1.9869-21.266 10.048-31.21 16.133z" fill="url(#linearGradient887)" stroke-width="1.0348"/>
</svg>
