<?xml version="1.0" encoding="UTF-8"?>
<svg id="svg41" width="800" height="236.84" version="1.1" viewBox="0 0 211.67 62.662" xmlns="http://www.w3.org/2000/svg" xmlns:cc="http://creativecommons.org/ns#" xmlns:dc="http://purl.org/dc/elements/1.1/" xmlns:rdf="http://www.w3.org/1999/02/22-rdf-syntax-ns#">
 <metadata id="metadata45">
  <rdf:RDF>
   <cc:Work rdf:about="">
    <dc:format>image/svg+xml</dc:format>
    <dc:type rdf:resource="http://purl.org/dc/dcmitype/StillImage"/>
    <dc:title/>
   </cc:Work>
  </rdf:RDF>
 </metadata>
 <defs id="defs11">
  <linearGradient id="a" x2="1" gradientTransform="matrix(20.803,-31.669,-31.669,-20.803,67.649,49.934)" gradientUnits="userSpaceOnUse">
   <stop id="stop2" stop-color="#ef5da2" offset="0"/>
   <stop id="stop4" stop-color="#ef5da2" offset=".098908"/>
   <stop id="stop6" stop-color="#825fa8" offset=".45517"/>
   <stop id="stop8" stop-color="#0ea5df" offset="1"/>
  </linearGradient>
 </defs>
 <g id="g866" transform="matrix(.95998 0 0 .95998 0 -.00054018)">
  <g id="g33" fill="#647883">
   <path id="path13" d="m63.835 22.98-15.735-0.032-1.096 7.753h9.912l-0.762 5.488h-9.913l-1.199 8.618h15.925l-3.503 5.504h-20.111l4.583-32.851h19.532z"/>
   <path id="path15" d="m109.79 22.993h-8.65l-3.831 27.323h-6.926l3.828-27.323h-7.943l3.344-5.465h20.938z"/>
   <path id="path17" d="m12.446 0.18541-3.971 8.6974-1.8984-8.6974h-2.7402l-3.8364 13.829h2.5258l2.6529-9.611h0.0318l2.073 9.611 1.2153-0.056 4.3682-9.3485 8e-3 0.0556 0.366 9.3489h2.414l-0.556-13.829z"/>
   <path id="path19" d="m25.368 2.4959h-4.853l-0.397 3.2645h4.265l-0.278 2.3113h-4.258l-0.436 3.6303h6.116l-0.278 2.311h-8.618l1.66-13.828h7.355z"/>
   <path id="path21" d="m32.24 0.18516c4.694 0 6.076 3.7331 6.076 6.7275 0 4.1223-2.423 7.1013-5.56 7.1013h-6.076l1.644-13.829zm-2.78 11.517h2.343c2.788 0 3.924-2.4382 3.924-4.829 0-2.4305-1.382-4.3765-3.972-4.3765h-1.207z"/>
   <path id="path23" d="m40.391 0.18541-1.652 13.829h2.501l1.661-13.829z"/>
   <path id="path25" d="m52.716 14.011h-2.574l-0.357-3.019h-3.662l-1.144 3.019h-2.756l5.759-14.012h2.66zm-5.87-4.9886h2.724l-0.619-6.1239h-0.032z"/>
   <path id="path27" d="m61.576 3.5299c-0.762-0.6513-2.025-1.2153-2.915-1.2153-0.913 0-1.66 0.6116-1.66 1.5171 0 1.9936 4.337 2.2557 4.337 6.1239 0 2.2324-1.35 4.2334-3.987 4.2334-1.716 0-2.955-0.5-4.003-1.31l0.373-2.415c0.953 0.81 2.351 1.422 3.336 1.422 1.017 0 1.692-0.612 1.692-1.525 0-2.2879-4.337-2.55-4.337-6.1798 0-2.3908 1.763-4.1779 4.146-4.1779 1.136-3.46e-5 2.343 0.38123 3.36 1.0961z"/>
   <path id="path29" d="m70.903 2.4959h-4.853l-0.397 3.2645h4.265l-0.278 2.3113h-4.257l-0.437 3.6303h6.108l-0.27 2.311h-8.618l1.66-13.828h7.347z"/>
   <path id="path31" d="m82.318 2.4959h-3.829l-1.382 11.517h-2.502l1.374-11.517h-3.725l0.278-2.3114h10.064z"/>
  </g>
  <path id="path35" d="m90.604 0.089845-16.41 26.648-3.947-9.285h-7.077l20.436 47.823h7.078l-13.344-31.183 20.929-33.995v-0.008155zm-30.921 50.222h7.665l4.861-8.062-3.09-7.212z" fill="url(#a)"/>
  <path id="path37" d="m132.49 43.458-1.72-3.574c-0.45-0.929-0.91-1.708-1.4-2.335-0.48-0.62-1.17-1.128-2.06-1.509v-0.096c1.24-0.222 2.32-0.611 3.24-1.159 0.91-0.54 1.67-1.2 2.29-1.97 0.6-0.771 1.05-1.62 1.34-2.542 0.29-0.929 0.44-1.898 0.44-2.891s-0.2-2.065-0.56-3.217c-0.37-1.159-0.99-2.232-1.85-3.225-0.87-0.992-2-1.81-3.42-2.454-1.4-0.635-3.15-0.961-5.24-0.961h-11.25l-4.56 32.796h6.97l1.82-13.273h1.49c0.87 0 1.58 0.072 2.15 0.215 0.55 0.143 1.08 0.445 1.55 0.889 0.49 0.453 0.97 1.12 1.47 2.002 0.5 0.874 1.1 2.057 1.81 3.527l3.12 6.64h1.38zm-6.68-12.994c-0.54 0.445-1.23 0.81-2.07 1.08-0.82 0.27-1.84 0.405-3.02 0.405h-3.47l1.26-8.943h3.41c1.73 0 3.08 0.373 4.04 1.112 0.96 0.738 1.44 1.763 1.44 3.073 0 0.612-0.13 1.192-0.38 1.756-0.26 0.564-0.66 1.064-1.21 1.517" fill="#647883"/>
  <path id="path39" d="m137.55 50.318 2.96-7.038h10.13l0.99 7.038h7.12l-5.73-32.788h-7.34l-14.34 32.788zm10.7-25.989h0.09l1.73 14.345h-7.55z" fill="#647883"/>
 </g>
 <path id="path2" d="m165.46 20.051-0.079 0.6246-2.9573 23.188h46.205l3.038-23.813zm6.1843 2.6372h2.8861l-0.96552 7.6342h9.6396l0.97159-7.6342h2.8887l-2.3422 18.495h-2.8887l1.015-7.8596h-9.6652l-0.99241 7.8596h-2.8896zm18.795 0h5.4304c1.683 0 3.0709 0.2951 4.1292 0.83279h9e-3c1.093 0.55521 1.9692 1.2752 2.6111 2.134 0.65062 0.86746 1.1191 1.839 1.3966 2.8974 0.27758 1.0757 0.41642 2.134 0.41642 3.1316 0 1.388-0.20818 2.6806-0.59857 3.843-0.4077 1.1797-0.96289 2.1773-1.6656 3.0102-0.69399 0.84141-1.5355 1.4921-2.481 1.9519-0.93687 0.45995-1.9605 0.694-3.0622 0.694h-8.51zm2.5764 2.429-0.0781 0.6246-1.6222 13.012h3.9124c1.0497 0 2.0039-0.19942 2.8106-0.6246 0.77205-0.40784 1.4314-0.96286 1.9345-1.6395 0.49449-0.67661 0.85885-1.4487 1.0844-2.2988 0.23418-0.85012 0.35563-1.709 0.35563-2.5678 0-0.87618-0.13879-1.7263-0.40769-2.5157-0.26891-0.78935-0.66797-1.4834-1.1972-2.0733v-0.0095c-0.53784-0.58988-1.2058-1.0583-1.9778-1.3966-0.78938-0.34721-1.6916-0.51182-2.6806-0.51182z" color="#000000" color-rendering="auto" fill="#647883" image-rendering="auto" shape-rendering="auto" solid-color="#000000" stroke-width=".86747" style="font-feature-settings:normal;font-variant-alternates:normal;font-variant-caps:normal;font-variant-ligatures:normal;font-variant-numeric:normal;font-variant-position:normal;isolation:auto;mix-blend-mode:normal;shape-padding:0;text-decoration-color:#000000;text-decoration-line:none;text-decoration-style:solid;text-indent:0;text-transform:none;white-space:normal"/>
</svg>
