<svg width="1224.1pt" height="281.62pt" version="1.1" viewBox="0 0 1224.1 281.62" xmlns="http://www.w3.org/2000/svg">
 <path d="m816.69 1.875c20.903 0 44.514 9.4663 55.123 19.618l140.93 104.42c12.377 10.232 12.355 16.689 2.0119 24.114l-145.46 107.4c-11.967 10.219-40.462 22.315-57.674 22.315h-777.89c-7.726-0.10029-14.487-5.0981-19.942-10.547-6.5334-6.3629-10.79-15.333-11.9-24.694v-207.36c-0.05185-5.7277 0.28519-11.645 2.7015-16.86 2.4163-5.2486 6.44-9.4942 10.92-12.737 6.2948-4.3905 14.01-5.6664 21.363-5.6776z" fill="#f1f1f1" stroke="#d2d2d2" stroke-linecap="square" stroke-width="3.75" style="paint-order:stroke fill markers"/>
 <g transform="translate(-21.582 -205.19)">
  <path d="m822.98 221.32c20.157 0 26.79 8.495 37.02 17.605l95.27 93.71c10.509 10.509 10.488 12.132 1.94 21.64l-99.64 96.38c-11.54 9.17-22.883 20.025-39.48 20.025h-750.11c-7.45-0.09-13.97-4.575-19.23-9.465-6.3-5.71-10.405-13.76-11.475-22.16v-186.08c-0.05-5.14 0.275-10.45 2.605-15.13 2.33-4.71 6.21-8.52 10.53-11.43 6.07-3.94 13.51-5.085 20.6-5.095" fill="#0055be"/>
  <path d="m646.42 298.58c14.73-0.97 30.98 1.3 42.17 11.77 10.46 9.38 14.42 23.98 14.16 37.64 0.16 13.28-2.91 27.54-12.59 37.24-9.43 10.05-23.72 13.78-37.13 13.41-14.34 0.24-30.02-3.67-39.34-15.33-10.22-11.77-12.32-28.3-10.7-43.28 1.2-11.89 6.39-23.76 15.92-31.28 7.69-6.41 17.67-9.37 27.51-10.17m1.88 22.82c-5.55 1.06-10.59 4.81-12.88 10.02-2.92 6.43-3.13 13.67-2.92 20.61 0.25 5.62 1.14 11.46 4.19 16.3 6.98 10.99 25.95 10.89 32.44-0.52 3.69-6.99 3.72-15.17 3.62-22.88-0.12-6.98-1.73-14.67-7.28-19.41-4.63-4.14-11.23-5.01-17.17-4.12z" fill="#fff"/>
  <path d="m134.56 300.24h39.445l15.085 58.315 15.085-58.315h39.22v96.55h-24.785v-73.125l-18.535 73.125h-22.28l-18.955-73.215v73.215h-24.28z" fill="#fff"/>
  <path d="m260.28 300.24h29.905v96.55h-29.905z" fill="#fff"/>
  <path d="m308.34 300.24h29.99l-0.01 73.035h46.57l0.35 23.515h-76.88z" fill="#fff"/>
  <path d="m421.58 300.24h32.89l36.35 96.55h-31.28l-5.03-15.94h-33.65l-4.84 15.94h-30.47l36.03-96.55m5.66 59.705h21.1l-10.55-34.31z" fill="#fff"/>
  <path d="m497.24 300.24h27.84l36.505 53.625v-53.625h28.27v96.55h-28.365l-36.19-53.125v53.125h-28.06z" fill="#fff"/>
  <path d="m705.53 300.24h28.53l9.97 53.925 15.27-53.925h28.06l14.76 53.795 10.52-53.795h28.14l-21.26 96.55h-29.27l-16.94-60.815-16.94 60.815h-29.42z" fill="#fff"/>
 </g>
 <g transform="translate(-21.582 -205.19)" fill="#d2d2d2" stroke-width=".66891">
  <path d="m1208 212.26 1.0191 1.3488c10.622 14.569 19.967 30.208 26.509 47.058 9.0236 22.649 11.947 47.573 9.1239 71.754-2.6689 24.763-12.636 48.215-25.833 69.139-3.4382 5.4382-7.1974 10.662-10.876 15.94h-23.653c6.9233-11.719 13.706-23.586 18.997-36.148 10.234-24.73 14.408-51.861 12.669-78.544-1.2174-16.221-3.9399-32.69-11.345-47.346-2.6757-5.0436-6.2544-10.114-11.739-12.321-5.1306-2.0469-10.716-0.70236-15.853 0.57526l-6.8564-13.358z"/>
  <path d="m1129.9 247.96 30.482-14.127c12.395 20.95 21.224 44.422 22.83 68.864 1.3044 16.622 0.053 33.533-4.2743 49.66-6.2811 23.76-18.536 45.486-33.078 65.139h-23.312c6.4015-11.873 13.619-23.378 18.683-35.921 13.485-32.522 16.602-69.152 9.2912-103.56-1.1438-5.5854-2.2275-11.927-6.9433-15.713-2.5954-2.2074-6.174-1.9599-9.3514-1.9465z"/>
  <path d="m1084.8 267.8 23.98-10.575c11.666 27.452 14.529 58.456 8.5353 87.647-5.4115 26.603-18.823 50.871-34.69 72.63h-23.552c8.0938-14.422 16.75-28.75 22.047-44.509 7.4651-20.95 10.569-43.386 9.7528-65.587-0.6355-13.372-2.7426-26.649-6.0738-39.606z"/>
 </g>
</svg>
