<svg width="952.42" height="151.11" version="1.1" viewBox="0 0 952.42 151.11" xml:space="preserve" xmlns="http://www.w3.org/2000/svg">
<g transform="matrix(2.0288 0 0 2.0288 456.42 .66987)"><path d="m152.94 0h91.538v73.583h-102.53l6.7699-10.082 8.1808-53.927z" fill="#a6a6a6" stroke-opacity="0"/><g transform="matrix(2.9275 0 0 2.9275 .011122 -141.84)" fill="#fff" stroke-width=".51726"><path d="m71.433 56.487v9.0611h2.817c3.1393 0 5.1569-1.1871 5.1569-4.5534 0-3.3331-1.9661-4.5077-5.1569-4.5077zm1.8694 1.3199h1.1345c2.1917 0 3.0941 0.88411 3.0941 3.1878 0 2.3742-0.90246 3.2666-3.0748 3.2666h-1.1539z"/><path d="m61.945 56.487v9.0609h1.8629v-3.8556h4.1062v3.8556h1.8629v-9.0609h-1.8629v3.3424h-4.1062v-3.3424z"/></g></g><path class="st0" d="m758.39 24.631c1.165 0 1.9971-0.16622 2.9956-0.16622 4.4934 0 6.1577 1.165 6.1577 4.6599 0 0.33299-0.16623 1.9971-0.66571 5.1591l-12.482 82.713c-0.99854 6.8234-1.3314 9.1533-7.9884 9.1533-0.99854 0-1.8307-0.16623-3.162-0.16623zm-27.793-23.799-22.634 149.12h36.448c16.143 0 26.294-0.333 32.618-6.657 5.6584-5.3256 6.657-12.981 8.3212-24.298l13.147-87.705c1.165-6.8234 1.4978-11.65 1.4978-14.312 0-15.145-10.983-16.31-33.284-16.31h-36.115zm-81.714 0-22.467 149.12h27.127l10.984-73.06h1.3314l4.1606 73.06h29.291l22.467-149.12h-26.961l-11.65 76.389h-1.3314l-3.3285-76.389h-29.623zm-56.251 0-22.634 149.12h50.426l3.4949-24.298h-18.639l6.8234-45.6h18.806l3.6613-24.298h-18.972l4.6599-31.121h18.972l3.6613-24.131h-50.26zm-52.091 23.965h2.6628c4.6599 0 6.4905 0.49922 6.4905 4.1607 0 0.16623-0.16623 2.1635-0.66566 5.6584l-2.8292 18.473c-1.165 7.3227-1.4978 9.9854-8.1548 9.9854-0.99854 0-1.8307-0.16622-3.1621-0.16622zm-27.959-23.965-22.467 149.12h31.454l8.9869-59.081h2.1635c4.6599 0 6.657 1.165 6.657 4.6599 0 1.165 0 2.1635-0.16644 3.3285l-7.8219 51.259h31.454l7.3226-48.429c0.49922-3.3285 0.66571-6.4905 0.66571-8.987 0-8.3212-3.1621-12.648-11.483-15.311 14.812-4.9927 16.809-13.813 19.139-30.123l2.1635-15.477c0.99854-5.8248 1.4978-10.485 1.4978-14.146 0-14.645-10.485-16.642-33.285-16.642h-36.28zm-70.231 0-3.6613 24.631h16.31l-18.806 124.49h31.454l18.806-124.49h16.31l3.6613-24.631h-64.073z" fill="#232323" stroke-width="1.6642"/><path class="st1" d="m389.43 24.797h2.6628c4.6599 0 6.4905 0.49922 6.4905 4.1607 0 0.16623-0.16644 2.1635-0.6657 5.6584l-2.8292 18.473c-1.165 7.3227-1.4978 9.9854-8.1548 9.9854-0.99855 0-1.8307-0.16622-3.1621-0.16622zm-27.793-23.965-22.634 149.12h31.454l8.9869-59.081h2.1635c4.6599 0 6.657 1.165 6.657 4.6599 0 1.165 0 2.1635-0.16644 3.3285l-7.8219 51.259h31.454l7.3226-48.429c0.49927-3.3285 0.66571-6.4905 0.66571-8.987 0-8.3212-3.1621-12.648-11.483-15.311 14.812-4.9927 16.809-13.813 19.139-30.123l2.1635-15.477c0.99855-5.8248 1.4978-10.485 1.4978-14.146 0-14.645-10.485-16.642-33.285-16.642h-36.114zm-45.933 30.788-13.314 87.373c-0.66569 4.9927-1.6642 7.4891-5.9913 7.4891-2.9956 0-4.1606-1.3314-4.1606-4.327 0-0.99854 0-1.8307 0.16644-3.162l13.147-87.206c0.6657-4.6599 1.4978-7.3227 5.6584-7.3227 3.3285 0 4.6599 1.3314 4.6599 4.327 0.16644 0.16622 0.16644 0.99854-0.16644 2.8292m31.621-0.83215c0.99854-6.3241 1.4978-10.984 1.4978-14.645 0-15.311-10.818-16.143-33.118-16.143-16.31 0-26.794 0.16623-33.118 6.8234-5.1591 5.3256-6.3241 13.147-7.9884 24.131l-13.48 89.037c-1.165 6.9898-1.4978 12.482-1.4978 16.31 0 13.147 11.483 14.812 33.118 14.812 16.31 0 26.461-0.49922 32.619-6.657 5.8248-5.6584 6.657-13.647 8.3212-24.631zm-137.63-29.956-3.6613 24.631h16.31l-18.806 124.49h31.454l18.806-124.49h16.31l3.6613-24.631h-64.073zm-41.273 30.788-13.147 87.206c-0.6657 4.9928-1.6642 7.4892-5.9913 7.4892-2.9956 0-4.1606-1.3314-4.1606-4.327 0-0.99854 0-1.8307 0.16645-3.1621l13.147-87.206c0.6657-4.6599 1.4978-7.3227 5.6584-7.3227 3.3285 0 4.6599 1.3314 4.6599 4.327 0 0.33299 0 1.165-0.33283 2.9956m31.621-0.8321c0.99854-6.3241 1.4978-10.984 1.4978-14.645 0-15.311-10.818-16.143-33.118-16.143-16.31 0-26.794 0.16623-33.118 6.8234-5.1591 5.3256-6.3241 13.147-7.9884 24.131l-13.48 89.037c-1.165 6.9898-1.4978 12.482-1.4978 16.31 0 13.147 11.483 14.812 33.118 14.812 16.31 0 26.461-0.49921 32.619-6.657 5.8248-5.6584 6.657-13.647 8.3212-24.631zm-177.57-29.956-22.467 149.12h28.458l12.981-86.041h1.165l-1.6642 86.041h17.641l24.131-86.041h1.3314l-12.981 86.041h28.292l22.634-149.12h-38.444l-22.134 75.39h-1.3314l0.99854-75.556h-38.61z" fill="#c61a23" stroke-width="1.6642"/></svg>
