<?xml version="1.0" encoding="UTF-8"?>
<!-- Created with Inkscape (http://www.inkscape.org/) -->
<svg id="svg4547" width="240.59mm" height="240.59mm" version="1.1" viewBox="0 0 240.59 240.59" xmlns="http://www.w3.org/2000/svg" xmlns:cc="http://creativecommons.org/ns#" xmlns:dc="http://purl.org/dc/elements/1.1/" xmlns:rdf="http://www.w3.org/1999/02/22-rdf-syntax-ns#">
 <metadata id="metadata4544">
  <rdf:RDF>
   <cc:Work rdf:about="">
    <dc:format>image/svg+xml</dc:format>
    <dc:type rdf:resource="http://purl.org/dc/dcmitype/StillImage"/>
    <dc:title/>
   </cc:Work>
  </rdf:RDF>
 </metadata>
 <g id="layer1" transform="translate(137.31 -28.536)">
  <path id="path2" d="m-137.31 211.48 240.59-4e-3v57.651h-240.59z" fill="#e6001a" stroke-width=".35278"/>
  <path id="path4" d="m-137.31 64.428 240.59-0.0071v147.06l-240.59 4e-3z" fill="#fff" stroke-width=".35278"/>
  <path id="path6" d="m-137.31 28.536h120.98v35.888l-120.98 0.0035z" fill="#e6e6e7" stroke-width=".35278"/>
  <path id="path8" d="m-16.325 28.536h119.61v35.885l-119.61 0.0035z" fill="#727272" stroke-width=".35278"/>
  <g id="g26" transform="matrix(.35278 0 0 .35278 -137.31 28.536)" fill="#3f3b3a">
   <path id="path10" d="m89.05 145.21c10.16-3.54 22.4 0.34 28.32 9.41 12.78 20.54 25.56 41.08 38.36 61.61 1.49 2.34 2.73 4.88 4.65 6.92 7.25-21.01 14.52-42 21.84-62.98 2.48-7.14 8.45-12.91 15.66-15.19 7.95-2.47 17.16-0.9 23.53 4.59 7.85 6.38 10.73 17.74 7.4 27.21-12.37 35.72-24.75 71.44-37.14 107.16-2.48 7.64-8.88 13.83-16.62 16-9.92 3.04-21.56-1.04-27.23-9.76-14.31-22.92-28.52-45.9-42.84-68.81-7.32 20.88-14.51 41.8-21.79 62.69-1.81 5.34-5.39 10.1-10.19 13.1-8.77 5.76-21.25 5-29.17-1.92-7.81-6.37-10.86-17.7-7.46-27.17 12.41-35.87 24.85-71.73 37.28-107.59 2.45-7.1 8.28-12.89 15.4-15.27z"/>
   <path id="path12" d="m501.86 154.8c5.05-7.85 14.84-12.28 24.07-10.86 9.51 1.11 17.79 8.41 20.36 17.58 1.37 4.99 1.21 10.41-0.47 15.31-2.52 7.31-5.07 14.61-7.56 21.93 25.68-16.54 51.54-32.82 77.29-49.26 6.21-4.05 14.34-4.87 21.29-2.3 6.63 2.43 11.95 8.05 14.18 14.74 3.23 9.69-0.44 21.24-9.02 26.92-19.39 12.47-38.9 24.74-58.31 37.17 8.16 8.58 16.39 17.09 24.52 25.71 4.53 4.89 10.1 9.35 12.11 15.99 3.54 9.83-0.33 21.65-8.91 27.56-7.02 5.1-16.81 5.94-24.6 2.11-4.25-1.88-7.39-5.41-10.52-8.71-16.99-17.72-33.87-35.53-50.88-53.24-5.51 16.41-11.26 32.75-16.94 49.11-3.24 9.33-12.56 16.02-22.41 16.27-9.52 0.4-18.91-5.28-23-13.87-2.93-5.88-3.35-12.88-1.16-19.08 11.75-33.99 23.53-67.97 35.29-101.96 1.35-3.78 2.42-7.74 4.67-11.12z"/>
   <path id="path14" d="m229.19 356.24c10.56-0.91 22.32-0.27 30.98 6.57 8.42 6.43 11.91 17.19 13.18 27.33 1.73 15.51 1.71 31.22 0.41 46.77-0.97 10.5-3.59 21.87-11.69 29.26-6.97 6.46-16.89 8.12-26.06 8.08-9.24 0.08-19.24-1.52-26.31-7.97-7.93-7.13-10.67-18.13-11.75-28.35-1.48-15.98-1.47-32.13 0.34-48.08 1.32-9.4 4.33-19.29 11.67-25.78 5.23-4.81 12.24-7.18 19.23-7.83m1.29 17.42c-3.26 1.04-5.66 3.82-6.92 6.92-2.39 5.81-2.9 12.17-3.24 18.38-0.43 11.04-0.43 22.09 0.01 33.12 0.39 6.35 0.85 12.92 3.56 18.78 3.95 9.17 19.22 9.43 23.58 0.51 3.53-7.12 3.52-15.3 4-23.06 0.24-12.46 0.5-24.98-0.84-37.4-0.74-5.04-1.67-10.47-5.12-14.43-3.77-4.05-10.04-4.15-15.03-2.82z"/>
   <path id="path16" d="m43.72 358.16 22.12 0.01 12.72 85.11 13.68-85.1 22.11-0.02 13.5 84.21 12.98-84.2 22.04-0.02-20.82 114.34h-25.78l-12.87-83.42-13.08 83.42-25.73 0.01z"/>
   <path id="path18" d="m323.51 358.15s29-0.04 43.5 0.04c8.13 0.09 16.78 2.26 22.57 8.31 5.37 5.71 6.96 13.88 6.85 21.48 0.02 7.62-1.66 15.79-7.01 21.53-3.14 3.45-7.6 5.21-11.99 6.44 5.69 1.23 12.14 3.26 14.81 8.98 4.12 8.76 2.86 18.75 3.7 28.12 0.56 6.63-0.63 14.79 5.44 19.33-8.5 0.27-17.01 0.02-25.51 0.14-2.53-4.03-2.54-8.91-2.82-13.5-0.33-7.62-0.1-15.27-0.81-22.87-0.53-4.86-3.14-10.26-8.32-11.41-5.71-1.22-11.63-0.34-17.42-0.59-0.01 16.12 0 48.35 0 48.35h-23zm22.98 16.96c0.01 10.99 0 21.97 0.01 32.96 6.98-0.3 14.71 1.25 20.95-2.74 4.83-2.96 6.02-9.1 6.01-14.35 0.11-5.26-1.68-11.25-6.66-13.83-6.26-3.22-13.56-1.71-20.31-2.04z"/>
   <path id="path20" d="m452.01 358.16h23.08l0.01 95.47h40.82v18.86l-63.92 0.01z"/>
   <path id="path22" d="m560.23 358.16s27.21-0.11 40.81 0.08c9.01 0.19 18.43 3.15 24.4 10.23 7.18 8.45 8.98 19.92 9.81 30.63 0.97 14.68 0.83 29.56-1.94 44.06-1.92 9.68-6.52 19.67-15.47 24.67-9.33 5.43-20.48 4.62-30.84 4.66-8.92 0.01-26.76 0.02-26.76 0.02zm23.03 16.94c0 26.82-0.01 53.64 0.01 80.46 6.7-0.28 13.94 1.04 20.14-2.17 5.86-3.61 7.51-10.95 8.36-17.3 1.28-12.61 1.25-25.35 0.4-37.99-0.69-7.2-1.82-15.65-8.16-20.2-6.15-4-13.84-2.51-20.75-2.8z"/>
   <path id="path24" d="m302.13 145.16c8.35-2.83 18.28-1.1 24.75 5.04 7.37 6.45 10.04 17.43 6.73 26.6-2.64 7.57-5.2 15.17-7.95 22.7l56.1-0.08c4.25-12.55 8.7-25.03 13.01-37.56 3.13-11.59 15.29-19.85 27.24-17.94 10.37 1.14 19.33 9.71 21.01 20 1.04 4.61 0.22 9.41-1.32 13.82-12.37 35.55-24.64 71.14-37.01 106.69-3.24 9.47-12.73 16.28-22.72 16.41-10.26 0.34-20.24-6.43-23.72-16.1-2.12-5.63-1.98-11.99 0.07-17.63 2.61-7.51 5.12-15.07 7.81-22.56l-56.01 0.06c-4.03 11.51-8.01 23.03-12 34.54-1.41 4.05-2.62 8.28-5.26 11.73-5.88 8.22-17.12 12.03-26.79 9.06-8.9-2.48-15.89-10.34-17.45-19.42-0.95-4.55-0.22-9.26 1.35-13.58 12.26-35.39 24.52-70.78 36.79-106.17 2.37-7.21 8.16-13.18 15.37-15.61z"/>
  </g>
  <g id="g32" transform="matrix(.35278 0 0 .35278 -137.31 28.536)" fill="#fff">
   <path id="path28" d="m307 568.19h-32.695v84.445h-27v-84.445h-32.695v-20.25h92.391z"/>
   <path id="path30" d="m467.39 547.94-38.18 104.7h-30.234l-38.18-104.7h28.336l25.312 73.547 25.312-73.547z"/>
  </g>
 </g>
</svg>
