<svg id="a" width="299.86mm" height="134.3mm" version="1.1" viewBox="0 0 299.86 134.3" xmlns="http://www.w3.org/2000/svg">
 <g id="b" transform="translate(166.94 -81.681)" stroke-width=".35278">
  <path id="c" d="m-166.94 81.681h201.55v107.39h-174.75l-26.802 26.912v-134.3" fill="#2ba6df"/>
  <path id="d" d="m-140.11 108.48 13.504 0.0212 26.758 26.709v-26.681l13.46-0.0353v53.545h-53.723z" fill="#fff"/>
  <path id="e" d="m-48.062 108.51c5.5739-0.42686 11.25 0.92781 16.009 3.8559 6.089 3.676 10.604 9.8672 12.192 16.806 1.457 6.0431 0.65264 12.552-2.0779 18.122-2.7446 5.454-7.3766 9.9448-12.933 12.488-4.6708 2.1378-9.966 2.9034-15.05 2.1378-7.2002-1.0019-13.892-5.1294-18.066-11.077-3.5137-4.9071-5.2599-11.049-4.8895-17.071 0.34572-6.4594 3.1327-12.771 7.7258-17.336 4.4732-4.6108 10.689-7.4612 17.089-7.9269z" fill="#fff"/>
  <path id="f" d="m-5.6918 108.49h13.439v53.541h-13.439z" fill="#fff"/>
  <path id="g" d="m69.78 109.63h9.2957l-2.9563 11.213h10.788l-2.0814 7.9287h-10.901l-5.14 19.47c-0.2928 1.2488-0.59619 2.6035-0.15522 3.8594 0.35278 0.96662 1.3123 1.5416 2.2895 1.711 2.5435 0.508 5.1153-0.27517 7.4612-1.21l-2.1696 8.0962c-3.3937 1.4005-7.1967 1.7321-10.806 1.1359-2.4271-0.4198-4.8542-1.7145-6.0219-3.9617-1.3476-2.5259-0.9525-5.5492-0.27516-8.2127l5.5069-20.888h-5.1082l2.1378-7.9287h5.0518z" fill="#1d75bd"/>
  <path id="h" d="m91.613 120.84h9.6132l2.9175 29.536 18.581-29.536h10.199l-27.301 40.806h-8.4137z" fill="#1d75bd"/>
 </g>
</svg>
