<svg id="b" width="204.01pt" height="45.75pt" version="1.1" viewBox="0 0 204.01 45.75" xmlns="http://www.w3.org/2000/svg">
 <g id="c" transform="translate(1.0274e-8 -12.191)" fill="#28c8b4">
  <path id="d" d="m57.75 16.175v38.25h8.2025v-24.415l18.59 24.415h7.0063v-38.25h-8.2025v23.082l-17.394-23.082z" stroke-width=".92127"/>
  <path id="e" d="m175.05 16.175v38.25h28.96v-7.405h-20.732v-8.1184h17.978v-7.4051h-17.978v-7.9161h20.45v-7.405h-20.45z" stroke-width=".92127"/>
  <path id="f" d="m134.12 16.175 15.3 38.25h7.5068l15.376-38.25h-9.1078l-9.911 26.621-9.9266-26.621z" stroke-width=".92127"/>
  <path id="g" d="m115.6 15.382c-10.869-2.12e-4 -19.679 8.8815-19.679 19.838 0.0095 9.4347 6.6095 17.558 15.784 19.425l3.8746-7.4432c-6.5563-0.01189-11.865-5.3727-11.865-11.982 5e-5 -6.6176 5.3219-11.982 11.887-11.982 6.5649 2.8e-5 11.886 5.3647 11.887 11.982-2e-3 2.0448-0.5224 4.0551-1.5127 5.8398-2.1382 4.4636-4.6911 9.1785-7.0399 13.691 9.4356-1.6352 16.335-9.8788 16.345-19.531-4e-5 -10.956-8.8106-19.838-19.679-19.838z" stroke-width="29.397"/>
  <circle id="h" cx="115.6" cy="35.22" r="5.6722" stroke-width="8.4391"/>
 </g>
 <g id="i" transform="matrix(.10249 0 0 .10249 28.405 20.491)" fill="#28c8b4" stroke-width="6.9426">
  <circle id="j" class="st1" cx="-181.33" cy="50.681" r="95.808"/>
  <path id="k" class="st1" d="m88.742 22.911c0 69.426-53.458 122.88-130.52 122.88h-74.286c15.274-10.414 27.77-23.605 36.796-39.573h38.184c51.375 0 85.394-34.713 85.394-83.311s-33.325-84.006-85.394-84.006h-48.598v36.102c-6.9426-9.0254-15.274-16.662-24.993-22.911-5.5541-4.1656-11.802-7.6369-18.051-10.414v-41.656h91.643c76.369 0.69426 129.83 54.152 129.83 122.88"/>
 </g>
 <path id="l" d="m44.25 0h1.5v45.75h-1.5z" fill="#28c8b4" style="paint-order:stroke fill markers"/>
</svg>
