<?xml version="1.0" encoding="UTF-8"?>
<svg id="svg17" width="147.8pt" height="33.146pt" version="1.1" viewBox="0 0 147.8 33.146" xmlns="http://www.w3.org/2000/svg" xmlns:cc="http://creativecommons.org/ns#" xmlns:dc="http://purl.org/dc/elements/1.1/" xmlns:rdf="http://www.w3.org/1999/02/22-rdf-syntax-ns#">
 <metadata id="metadata23">
  <rdf:RDF>
   <cc:Work rdf:about="">
    <dc:format>image/svg+xml</dc:format>
    <dc:type rdf:resource="http://purl.org/dc/dcmitype/StillImage"/>
    <dc:title/>
   </cc:Work>
  </rdf:RDF>
 </metadata>
 <g id="g12" transform="matrix(.77564 0 0 .77564 24.668 .00041278)" fill="#28c8b4">
  <path id="path2-4" d="m0 0.86036v41.519h8.9035v-26.501l20.179 26.501h7.6051v-41.519h-8.9035v25.055l-18.88-25.055z"/>
  <path id="path4-1" d="m127.32 0.86036v41.519h31.435v-8.0378h-22.504v-8.8122h19.514v-8.0379h-19.514v-8.5926h22.198v-8.0378h-22.198z"/>
  <path id="path6-4" d="m82.898 0.86036 16.607 41.519h8.1484l16.69-41.519h-9.8862l-10.758 28.896-10.775-28.896z"/>
  <path id="path8-4" d="m62.799-1.3218e-4c-11.798-2.3e-4 -21.361 9.6405-21.361 21.533 0.01032 10.241 7.1744 19.058 17.133 21.085l4.2057-8.0793c-7.1166-0.0129-12.879-5.8319-12.879-13.006 4.8e-5 -7.1832 5.7767-13.006 12.903-13.006 7.1259 3e-5 12.902 5.8232 12.903 13.006-2e-3 2.2196-0.56705 4.4017-1.642 6.3389-2.3209 4.8451-5.092 9.9629-7.6415 14.861 10.242-1.775 17.731-10.723 17.742-21.2-4e-5 -11.892-9.5636-21.533-21.361-21.533z" stroke-width="31.909"/>
  <circle id="circle10" cx="62.799" cy="21.533" r="6.1569" stroke-width="9.1603"/>
 </g>
 <g id="g4563" transform="matrix(-1,0,0,1,-5.13,0)" fill="#28c8b4">
  <path id="path12-2" d="m-15.38 0.71575h-3.6892c-1.1041 0-2.183 0.19619-3.1708 0.73975-3.49 2.01-3.18 8.17 0.69 9.59 0.94866 0.31622 1.9338 0.435 2.9287 0.435h3.2413v-10.765m-2.125 1.9395v6.8903h-1.097c-1.6379 0-3.29-0.81115-3.7214-2.3476-0.19805-0.88794-0.21315-1.7748 0.12718-2.5663 0.53189-1.2628 1.9439-1.9764 3.3896-1.9764z"/>
  <path id="path10-5" d="m-5.13 0.7155h-2.175v4.325h-4.63v-4.325h-2.235v10.765h2.235v-4.425h4.63v4.425h2.175z"/>
 </g>
</svg>
