<?xml version="1.0" encoding="UTF-8"?>
<svg id="svg27" width="663.93pt" height="467.66pt" version="1.1" viewBox="0 0 663.93 467.66" xmlns="http://www.w3.org/2000/svg" xmlns:cc="http://creativecommons.org/ns#" xmlns:dc="http://purl.org/dc/elements/1.1/" xmlns:rdf="http://www.w3.org/1999/02/22-rdf-syntax-ns#">
 <metadata id="metadata33">
  <rdf:RDF>
   <cc:Work rdf:about="">
    <dc:format>image/svg+xml</dc:format>
    <dc:type rdf:resource="http://purl.org/dc/dcmitype/StillImage"/>
    <dc:title/>
   </cc:Work>
  </rdf:RDF>
 </metadata>
 <g id="g895" transform="translate(-148.2 93.304)" fill="#296caf" stroke="#296caf">
  <path id="path865" d="m711.76 140.15h-13.571v60.959q0 5.2659-1.7173 7.8417-1.7174 2.5184-4.44 2.5184-2.7646 0-4.5238-2.5757-1.7174-2.5757-1.7174-7.7844v-60.959h-13.571q-3.1834 0-4.7332-1.8889-1.5498-1.9461-1.5498-5.0942 0-3.2626 1.5917-5.1515 1.6336-1.8888 4.6913-1.8888h39.541q3.2253 0 4.7751 1.9461 1.5917 1.9461 1.5917 5.0942 0 3.1481-1.5917 5.0942-1.5917 1.8889-4.7751 1.8889z" stroke-width="7.521"/>
  <path id="path867" d="m752.96 136.26 18.198 55.585 18.253-55.981q1.4251-4.4106 2.1377-6.107 0.71254-1.7529 2.357-3.11 1.6444-1.4136 4.4947-1.4136 2.0829 0 3.8369 1.0743 1.8088 1.0744 2.7955 2.8838 1.0414 1.7529 1.0414 3.5624 0 1.244-0.32892 2.7142-0.32891 1.4136-0.82221 2.8273-0.4933 1.3571-0.98663 2.8273l-19.459 54.171q-1.0414 3.11-2.0828 5.9373-1.0415 2.7707-2.4118 4.9195-1.3703 2.0922-3.6725 3.4493-2.2473 1.3571-5.5361 1.3571-3.2888 0-5.591-1.3571-2.2473-1.3005-3.6724-3.4493-1.3703-2.2053-2.4118-4.976-1.0414-2.7708-2.0829-5.8808l-19.13-53.719q-0.49329-1.4702-1.0414-2.8838-0.49333-1.4136-0.87703-3.0535-0.32891-1.6399-0.32891-2.7708 0-2.8839 2.2473-5.2588 2.2474-2.3749 5.6458-2.3749 4.1658 0 5.865 2.6576 1.754 2.6011 3.5629 8.3688z" stroke-width="8.5513"/>
 </g>
 <path id="path2-9" d="m87.666 0h379.96v383.87c0 57.66-29.724 83.947-83.779 83.788h-383.85v-393.65c0-45.693 27.99-73.794 87.666-74.007z" fill="#296caf" stroke-width="1.9486"/>
 <g id="g851" transform="matrix(.6212 0 0 .6212 -68.049 -63.999)" fill="#eedfd5">
  <path id="path12" d="m498.97 360.88c23.6-6.92 48.58-7.05 72.9-5.06 11.11 0.92 22.04 3.45 33.21 3.67 2.1-0.14 3.84 1.12 5.57 2.15 0.72 7.48-1.23 14.87-1.18 22.35-0.61 6.69 0.8 13.63-1.23 20.14-1.14 4.06-6.76 4.72-9.67 2.24-1.43-1.36-1.79-3.39-2.23-5.22-1.02-4.96-2.52-9.94-5.37-14.18-2.63-3.15-6.14-5.45-9.78-7.28-9.99-4.85-21.15-6.75-32.14-7.46-14.56-1.22-29.71-0.26-43.3 5.48-8.89 3.8-17.35 10.67-19.66 20.47-2.66 9.85 1.06 20.47 8.44 27.29 13.38 12.72 30.29 20.71 46.03 30.03 13.8 8.64 27.37 17.71 40.14 27.82 12.39 10.23 24.84 21.12 32.79 35.32 3.78 6.75 5.69 14.7 4.29 22.41-2.41 17.53-13.33 33.12-27.79 43-18.13 12.52-40.3 17.45-61.94 19.4-21.36 1.76-43.04 0.83-64.08-3.39-6.99-1.72-14.24-3.06-20.68-6.42-3.15-1.58-3.89-5.37-4.03-8.56-0.35-13.06 0.53-26.15 2.39-39.08 0.44-2.49 1.97-5.61 4.84-5.74 2.24-0.26 5.01-0.29 6.55 1.68 1.97 2.98 0.97 6.77 1.45 10.12 0.94 10.71 8.74 19.58 17.88 24.59 15.35 8.46 33.4 10.1 50.63 9.82 16.5-0.56 34.04-4.41 46.52-15.91 7.69-6.8 12.14-17.41 10.25-27.67-1.05-9.48-6.82-17.61-13.86-23.72-13.59-11.69-29.49-20.2-44.97-29.07-16.8-9.45-33.72-19.04-48.33-31.74-10.94-9.7-20.76-22.25-22.23-37.28-2.09-13.19 1.69-27.19 10.38-37.35 9.7-11.7 23.88-18.6 38.21-22.85z"/>
  <path id="path14" d="m180.52 379.71c4.53-3.37 9.38 1 13.06 3.57 60.26 45.5 121.37 89.86 181.41 135.65 6.22 4.77 12.54 9.41 18.76 14.17 0.15-16.36-0.98-32.7-1.23-49.06-0.77-19.33-1.15-38.67-1.9-58-0.45-8.31 0.33-16.78-1.61-24.95-0.79-3.77-3.82-6.88-7.61-7.66-7.05-1.6-14.35-1.45-21.52-1.9-3.76 0.03-5.86-5.98-2.4-7.95 4.69-2.58 10.35-1.36 15.48-1.43 13.36-0.06 26.73 0.89 40.09 0.27 6.97-0.22 13.94-0.26 20.9-0.4 3.29 0.09 7.31-0.07 9.42 3 0.25 1.53 0.47 3.37-0.83 4.53-2.05 2.62-5.69 1.87-8.58 2.23-4.39 0.45-9.28 0.44-12.94 3.27-3.05 2.73-2.89 7.22-3.24 10.97-0.46 51.68-0.38 103.37-0.93 155.04-0.15 4.71 0.41 9.7-1.54 14.14-1.33 2.64-4.85 2.68-7.33 1.97-4.46-1.53-8.26-4.44-12.21-6.93-61.06-41.73-120.47-85.82-179.1-130.88-5.52-4.06-10.71-8.56-16.36-12.44 1.2 36 2.79 71.99 4.13 107.98 0.16 7.79 0.38 15.77 3.05 23.17 1.18 3.48 4.44 5.95 8 6.57 6.39 1.2 12.89 1.54 19.37 1.74 2.88-0.02 5.41 2.76 4.52 5.67-0.71 2.77-3.77 3.58-6.28 3.69-13.38 0.34-26.77-0.27-40.15-0.5-12.67 0.07-25.33 0.83-38 0.54-2.55 0.03-5.83-0.81-6.36-3.74-1.03-2.85 1.72-5.6 4.47-5.65 5.36-0.4 10.83-0.36 16.06-1.74 3.19-0.67 5.43-3.56 6.15-6.61 1.35-5.56 1.39-11.33 1.49-17.02 0.03-49.66 0.59-99.3 0.5-148.96 0.06-4.22-0.07-9.23 3.26-12.35z"/>
  <path id="path16" d="m672.99 382.82c18.18 1.26 36.42-1.24 54.59-0.08 3.71 0.57 4.89 4.29 3.84 7.53-4.86 3.22-10.89 1.57-16.32 2.42-4.02 0.46-9.12 1.48-10.79 5.68-1.88 6.69-1.62 13.73-1.82 20.62-0.13 28.34-0.02 56.68-0.06 85.03 0.08 9.98-0.07 20 0.83 29.96 0.46 6.49 0.83 13.2 3.51 19.24 2.27 4.49 7.83 5.39 12.29 6.36 13.89 1.88 27.97 1.77 41.97 1.56 8.42-0.54 17.13-0.33 25.12-3.49 7.21-2.59 12.02-9.52 14.04-16.67 0.53-1.78 1.13-3.9 3.04-4.65 2.24-1.45 4.83-0.4 7.13 0.29 2.41 5.3 0.6 11.1-0.26 16.54-1.47 6.42-2.41 13.25-6.03 18.9-3.56 5.16-10.59 4.51-16.09 4.88-25.32-0.02-50.65-0.15-75.96-0.83-20.67-1-41.36-0.27-62.03 0.23-3.36-0.05-8.11 0.21-9.67-3.49-1.08-3.51 2.17-6.59 5.58-6.23 5.53-0.7 13.24 0.81 16.37-5.09 3.01-7.43 2.9-15.66 3.4-23.54 0.89-32.66 0.36-65.33 0.51-98-0.41-12.3 0.15-24.62-0.9-36.89-0.18-4.27-2.97-8.22-7.26-9.1-7.26-2.95-15.56-0.05-22.59-3.55-0.61-2.21-0.68-4.45 0.42-6.52 2.31-0.72 4.64-1.61 7.11-1.53 10.01-0.01 20.02 0.27 30.03 0.42z"/>
 </g>
 <g id="g882" transform="matrix(1.5302 0 0 1.5265 -510.75 -76.785)" stroke="#000" stroke-width="1.416">
  <path id="path855" d="m680.27 167.04h-3.7418v6.8994c0 0.9082-0.2002 1.5772-0.60058 2.0068-0.40039 0.42968-0.92286 0.64452-1.5674 0.64452-0.69336 0-1.2305-0.22461-1.6113-0.67382-0.38086-0.44922-0.57129-1.1084-0.57129-1.9775v-16.523c0-0.9375 0.20996-1.6162 0.62988-2.0361s1.0986-0.62988 2.0361-0.62988h7.0752c0.97656 0 1.8115 0.0439 2.5049 0.13183 0.69336 0.0781 1.3184 0.24414 1.875 0.49805 0.67383 0.2832 1.2695 0.68847 1.7871 1.2158 0.51758 0.52734 0.90821 1.1426 1.1719 1.8457 0.27343 0.69336 0.41015 1.4307 0.41015 2.2119 0 1.6016-0.4541 2.8809-1.3623 3.8379-0.82289 0.87654-2.039 1.5196-3.6483 1.9292l4.1543 6.2165c0.68427 1.1244 0.99591 1.963 0.40433 3.0604-0.17578 0.27344-0.41992 0.48828-0.73242 0.64453-0.3125 0.16601-0.67382 0.24902-1.084 0.24902-0.48828 0-0.89844-0.11718-1.2305-0.35156-0.33202-0.22461-0.62011-0.51269-0.86425-0.86425-0.23438-0.35157-0.55664-0.86915-0.9668-1.5527zm0.27193-9.0234h-4.0137v5.9033h3.8965c1.0449 0 1.9238-0.0879 2.6367-0.26367 0.71289-0.18555 1.2549-0.49317 1.626-0.92286 0.38086-0.43945 0.57129-1.04 0.57129-1.8018 0-0.5957-0.15136-1.1182-0.4541-1.5674-0.30274-0.45898-0.72265-0.80078-1.2598-1.0254-0.50781-0.21485-1.5088-0.32227-3.0029-0.32227z"/>
  <path id="path857" d="m707.51 173.79-1.0254-2.6953h-8.7305l-1.0254 2.7539q-0.60058 1.6113-1.0254 2.1826-0.42481 0.55663-1.3916 0.55663-0.82032 0-1.4502-0.60058-0.62988-0.60059-0.62988-1.3623 0-0.43946 0.14649-0.90821 0.14648-0.46875 0.48339-1.3037l5.4932-13.945q0.23437-0.60058 0.55663-1.4356 0.33692-0.84961 0.70313-1.4062 0.38086-0.55664 0.98145-0.89355 0.61523-0.35156 1.5088-0.35156 0.9082 0 1.5088 0.35156 0.61524 0.33691 0.98145 0.8789 0.38086 0.542 0.62988 1.1719 0.26367 0.61524 0.65918 1.6553l5.6104 13.857q0.65917 1.582 0.65917 2.2998 0 0.74707-0.62988 1.377-0.61523 0.61523-1.4941 0.61523-0.51269 0-0.8789-0.19042-0.36621-0.17579-0.61524-0.4834-0.24903-0.32227-0.54199-0.9668-0.27833-0.65918-0.4834-1.1572zm-8.6133-5.9619h6.416l-3.2373-8.8623z"/>
  <path id="path859" d="m718.02 154.75h5.669q2.2119 0 3.794 0.41015 1.582 0.41016 2.8711 1.5381 3.3545 2.8711 3.3545 8.7305 0 1.9336-0.33691 3.5303t-1.04 2.8857q-0.70312 1.2744-1.8018 2.2852-0.86425 0.77637-1.8896 1.2451-1.0254 0.46875-2.2119 0.65918-1.1719 0.19042-2.6514 0.19042h-5.669q-1.1865 0-1.7871-0.35156-0.60059-0.36621-0.79102-1.0107-0.17578-0.65918-0.17578-1.6992v-15.747q0-1.4062 0.62988-2.0361t2.0361-0.62988zm1.6846 3.4424v14.575h3.2959q1.084 0 1.6992-0.0586 0.61524-0.0586 1.2744-0.29296 0.65918-0.23438 1.1426-0.65919 2.1826-1.8457 2.1826-6.3574 0-3.1787-0.96681-4.7607-0.95214-1.582-2.3584-2.0068-1.4062-0.43945-3.3984-0.43945z"/>
  <path id="path861" d="m737.71 173.94v-16.919q0-1.3184 0.6006-1.9775 0.60058-0.65917 1.5527-0.65917 0.98144 0 1.582 0.65917 0.61524 0.64454 0.61524 1.9775v16.919q0 1.333-0.61524 1.9922-0.60059 0.65917-1.582 0.65917-0.9375 0-1.5527-0.65917-0.6006-0.67383-0.6006-1.9922z"/>
  <path id="path863" d="m756.36 154.39q3.3398 0 5.7275 1.3623 2.4024 1.3477 3.6328 3.8525 1.2305 2.4902 1.2305 5.8594 0 2.4902-0.67383 4.5264t-2.0215 3.5303q-1.3477 1.4942-3.3106 2.2852t-4.4971 0.79101q-2.5195 0-4.5117-0.80566-1.9922-0.82031-3.3252-2.2998-1.333-1.4795-2.0215-3.5596-0.67383-2.0801-0.67383-4.4971 0-2.4756 0.70312-4.541 0.71778-2.0654 2.0654-3.5156 1.3477-1.4502 3.2812-2.2119 1.9336-0.77636 4.3945-0.77636zm6.1816 11.045q0-2.3584-0.76172-4.0869t-2.1826-2.6074q-1.4062-0.89356-3.2373-0.89356-1.3037 0-2.417 0.49806-1.0986 0.48339-1.9043 1.4209-0.79102 0.9375-1.2598 2.4023-0.4541 1.4502-0.4541 3.2666 0 1.831 0.4541 3.3105 0.46875 1.4795 1.3037 2.4609 0.84961 0.9668 1.9336 1.4502 1.0986 0.4834 2.4023 0.4834 1.6699 0 3.0615-0.83496 1.4062-0.83496 2.2266-2.5781 0.83496-1.7432 0.83496-4.292z"/>
 </g>
</svg>
