<?xml version="1.0" encoding="UTF-8"?>
<svg id="svg21" width="607.66pt" height="409.55pt" version="1.1" viewBox="0 0 607.66 409.55" xmlns="http://www.w3.org/2000/svg" xmlns:cc="http://creativecommons.org/ns#" xmlns:dc="http://purl.org/dc/elements/1.1/" xmlns:rdf="http://www.w3.org/1999/02/22-rdf-syntax-ns#">
 <metadata id="metadata27">
  <rdf:RDF>
   <cc:Work rdf:about="">
    <dc:format>image/svg+xml</dc:format>
    <dc:type rdf:resource="http://purl.org/dc/dcmitype/StillImage"/>
    <dc:title/>
   </cc:Work>
  </rdf:RDF>
 </metadata>
 <g id="#006cb7ff" transform="translate(-99.992 -79.657)" fill="#006cb7">
  <path id="path3" d="m196.02 88.01c5.96-6.01 14.65-8.45 22.93-8.35 35.88 0.48 70.41 12.62 102.31 28.24 42.32 21.29 81.03 49.14 117.01 79.8 8.07 7 16.65 13.4 24.61 20.53 1.7 1.5 3.2 3.255 4.6 5.055h-41.7c-10.1-8.76-21.17-16.245-31.91-24.175-20.25-14.06-43.06-25.86-67.88-28.57-11.26-1.17-23.34-0.03-33.04 6.26-8.14 5.08-13.67 13.46-16.85 22.37-2.96 7.72-3.49 16.025-4.76 24.115h-51.33c-6.99-7.84-11.85-17.175-16.86-26.315-9.98-19.68-19.01-40.62-20.21-62.93-0.85-13.1 3.37-26.91 13.08-36.03z"/>
  <path id="path5" d="m343.37 358.7h36.97c13.46 10.87 28.18 19.935 42.73 29.245 26.17 15.99 55.75 28.79 86.94 28.52 8.9 0.23 18.38-2.12 24.84-8.56 6.43-6.59 9.03-15.94 9.63-24.91 0.72-8.14-0.52-16.205-1.26-24.295h47.84c9.21 14.15 16.08 29.655 21.89 45.455 5.95 17.27 10.89 35.52 8.99 53.94-0.97 9.19-5.24 18.64-13.52 23.4-14.27 8.23-31.55 8.78-47.49 6.64-22.94-3.22-44.8-11.61-65.71-21.3-33.43-15.84-64.68-35.93-94.25-58.08-20.23-15.42-39.79-31.875-57.6-50.055z"/>
  <path id="path7" d="m324.53 388.74c6.6-1.41 13.84-0.57 19.59 3.13 7.24 4.41 12.01 12.65 11.97 21.16 0.33 7.14-2.66 14.29-7.82 19.2-6.06 5.73-15.02 8.36-23.18 6.39-12.41-2.38-21.57-15.16-19.91-27.68 0.85-10.52 9.12-19.83 19.35-22.2z"/>
 </g>
 <path id="path12-5" d="m415.81 140.18c13.8-0.8 27.66-1.22 41.47-0.36 7.26 0.71 14.78 1.51 21.31 5.03 6.66 3.78 8.72 12.55 7.06 19.61l-19.068 66.547c-1.7895 6.5755-3.8073 13.074-6.6918 19.283-4.45 9.56-13.48 16.68-23.67 19.23-11.22 2.19-22.71 1.56-34.06 2.19-11.67-0.70999-23.5 0.03-35.02-2.37-5.27-1.19-9.75-5.2-11.55-10.3-1.88-5.37-1.58-11.21-1.08-16.78 0.81561-6.5814 2.5514-12.934 4.6415-19.188l15.452-48.64c1.646-5.2928 3.6006-10.473 6.2667-15.391 3.69-6.92 8.98-13.47 16.34-16.64 5.86-2.57 12.4-1.56 18.6-2.22m20.47 11.43c-4.17 3.07-9.34 5.96-10.8 11.31l-23.23 72.47c-0.79 3.51-2.18 8.98 2 10.84 3.66 0.4 9.08 1.56 11.12-2.51 4.21-8.05 6.69-16.84 9.45-25.45 7.28-23.42 13.99-47 20.72-70.57-3.63-0.47-6.41 2.13-9.26 3.91z" fill="#fff"/>
 <path id="path12" d="m61.678 139.15c13.8-0.8 27.66-1.22 41.47-0.36 7.26 0.71 14.78 1.51 21.31 5.03 6.66 3.78 8.72 12.55 7.06 19.61l-19.068 66.547c-1.7895 6.5754-3.8073 13.074-6.6918 19.283-4.45 9.56-13.48 16.68-23.67 19.23-11.22 2.19-22.71 1.56-34.06 2.19-11.67-0.71-23.5 0.03-35.02-2.37-5.27-1.19-9.75-5.2-11.55-10.3-1.88-5.37-1.58-11.21-1.08-16.78 0.81561-6.5814 2.5514-12.934 4.6415-19.188l15.452-48.64c1.646-5.2928 3.6006-10.473 6.2667-15.391 3.69-6.92 8.98-13.47 16.34-16.64 5.86-2.57 12.4-1.56 18.6-2.22m20.47 11.43c-4.17 3.07-9.34 5.96-10.8 11.31l-23.23 72.47c-0.79 3.51-2.18 8.98 2 10.84 3.66 0.4 9.08 1.56 11.12-2.51 4.21-8.05 6.69-16.84 9.45-25.45 7.28-23.42 13.99-47 20.72-70.57-3.63-0.47-6.41 2.13-9.26 3.91z" fill="#fff"/>
 <path id="path14" d="m155.68 139.77c18.78-0.06 37.56-0.02 56.34-0.03 8.66-0.1 17.56-1.05 26.01 1.36 7.8 2.15 13.3 9.46 14.84 17.18 1.5 6.57 0.39 13.32-0.43 19.91-2.87 18.15-8.06 35.89-14.63 53.03-3.97 9.74-7.93 19.93-15.45 27.54-4.13 4.32-9.14 8.25-15.18 9.26-9.94 1.79-20.06 2.16-30.13 2.34-19.2 0.91-38.41-0.07-57.61-0.23 6.78-21.82 13.38-43.71 19.67-65.68 5.94-21.45 11.32-43.06 16.57-64.68m50.09 10.31c-4.55 3.22-10.1 6.43-11.64 12.19-8.95 27.65-17.78 55.34-26.72 83 4.52 0.22 9.06 0.48 13.58 0.14 1.97-0.54 3.08-2.42 3.92-4.14 2.9-6.09 5.06-12.49 7.09-18.92 7.94-25.07 15.03-50.41 22.34-75.67-3.31-0.45-5.96 1.72-8.57 3.4z" fill="#fff"/>
 <path id="path16" d="m282.77 148.12c5.53-4.98 12.49-9.46 20.25-8.8l66.77 0.11-7.52 25.32-39.32-0.57c-2.83 0.03-5.4 1.8-6.83 4.17-4.95 7.91-5.68 17.49-9.24 25.97 4.49-5.79 12.4-6.49 19.18-6.35l28.09 0.54-8.44 25.6-31.74 0.07c-4.37 0.11-9.47 1.15-11.87 5.21-4.27 7.06-5.11 15.44-7.62 23.16l45.24 0.24-7.3 27.1c-20.4 0.4-40.97 2.45-61.25-0.78-5.46-1.07-11.38-2.45-15.39-6.58-4-5.14-4.79-11.93-5.12-18.23 0.16-7.27 2.26-14.31 3.8-21.36 4.6-18.21 9.76-36.31 16.37-53.9 3.01-7.43 5.83-15.4 11.94-20.92z" fill="#fff"/>
 <path id="path18" d="m508.94 139.56c14.01-0.1 28.02-0.01 42.03-0.04 11.04 0.12 22.08-0.5 33.12-0.05 6.18 0.46 12.7 1.98 17.46 6.19 4.3 3.84 6.9 9.82 5.9 15.61-1.31 8.25-3.97 16.2-6.22 24.22-5.74 18.58-10.36 37.48-15.08 56.34-1.93 6.79-3.47 13.75-6.38 20.22-2.45 5.66-8.91 8.36-14.78 8.29-9.78-0.18-19.56-0.3-29.34-0.69 4.39-20.1 10.63-39.73 16.21-59.53 6.11-21.15 12.55-42.21 18.53-63.4-2.8-0.47-4.98 1.51-7.16 2.89-5.18 3.59-10.99 6.82-14.62 12.11l-26.77 87.41c-1.66 5.37-2.98 11.1-6.51 15.63-2.69 3.39-7.14 4.42-11.21 5.03-10.46 1.28-20.99-0.07-31.48-0.15 6.66-22.22 13.37-44.43 19.67-66.76 5.84-21.02 11.22-42.18 16.63-63.32z" fill="#fff"/>
</svg>
