<svg id="b" width="410.14pt" height="159.27pt" version="1.1" viewBox="0 0 410.14 159.27" xmlns="http://www.w3.org/2000/svg" xmlns:xlink="http://www.w3.org/1999/xlink">
 <defs id="c">
  <linearGradient id="a" x1="116.97" x2="116.97" y1="326.6" y2="191.55" gradientUnits="userSpaceOnUse">
   <stop id="d" stop-color="#fff" offset="0"/>
   <stop id="e" stop-color="#d1edff" offset=".1959"/>
   <stop id="f" stop-color="#9bd7ff" offset=".51967"/>
   <stop id="g" stop-color="#40b2ff" offset="1"/>
  </linearGradient>
 </defs>
 <g id="h" transform="translate(-58.39 -175.38)" fill="url(#a)">
  <path id="i" d="m128.55 175.38c-2.8722 0.0178-5.7315 0.21926-8.5327 0.58301-13.16 1.43-25.681 7.7194-34.771 17.339-15.21 15.33-22.21 36.81-25.15 57.76-2.93 20.41-3.02 42.561 7.27 61.071 3.59 6.05 8.1905 11.66 14.271 15.34 10.57 6.53 23.469 7.7692 35.619 6.9492 15.34-1.08 29.77-8.9391 39.48-20.789l0.15088 0.0498c10.95-12.71 16.74-28.89 20.07-45.1 0.22-10.88-0.0901-21.761 0.10986-32.631-0.07-2.65 1.0893-5.1196 2.7993-7.0796-0.76999-15.16-5.5689-31.02-16.919-41.66-9.2625-8.5394-21.951-11.91-34.397-11.833zm-5.2104 39.918c3.9017-0.10367 7.8379 1.0439 10.677 3.7939 4.11 3.86 5.8196 9.5402 6.3896 15.01 0.63 6.65 0.24973 13.371-0.53027 20.001-1.24 9.24-2.7991 18.57-6.5391 27.17-2.69 6.09-7.7102 11.68-14.43 13.16-5.51 1.58-12.089-0.0809-15.669-4.7109-4.9-5.99-5.2811-14.209-5.4111-21.609 0.46-11.72 1.8402-23.57 5.6602-34.72 2.52-7.21 7.2202-14.44 14.66-17.21 1.6531-0.53125 3.4194-0.83765 5.1929-0.88476z"/>
  <path id="j" d="m264.62 177.73-37.96 49.432c1.63-14.69 3.4398-29.361 5.0698-44.041 0.42-2.1-0.0798-4.901-2.5298-5.391h-30.64c-3.7332 0-5.3955 0.81646-5.9098 5.3242l-17.28 146.72c-0.24533 1.4458 0.93109 2.1606 2.0405 2.1606l34.66 0.0395c1.4371 0 2.2858-0.99459 2.5606-2.3599l4.4297-35.53 15.853-21.366 15.927 59.186 44.14 0.0498c1.8035 0 2.7148-2.0114 2.2705-3.6694l-30.58-91.31 45.92-55.121c0.68627-0.83473-0.69083-4.1209-2.0801-4.1209-15.3 0.19-30.601 0.14021-45.891 0z"/>
 </g>
 <g id="k" transform="translate(-51.852 37.289)">
  <path id="l" d="m420.15 17.931c2.44-4.44 8.15-2.6 12.24-3.01 4.28 0.34 10.62-1.59 12.92 3.3 5.13 12.87 9.93 25.89 15.01 38.78 0.89 2.55 2.45 5.31 1.2 8.02-0.84 3.02-4.25 4.32-7.12 4.13-4.67-0.13-9.39 0.35-14.02-0.33-3.19-0.58-4.03-4.06-4.95-6.67-2.05-0.01-4.1-0.02-6.15-0.01-0.73 2.85-1.86 6.13-5.15 6.8-5.69 0.42-11.57 0.96-17.16-0.4-3.48-0.96-4.69-5.17-3.32-8.25 3.03-8.23 6.53-16.29 9.49-24.55 2.33-5.93 4.32-12.04 7.01-17.81" fill="#fff"/>
  <path id="m" d="m424.51 19.951h16.1l16.22 44.2h-15.42l-2.25-7.01h-13.58l-2.13 7.01h-15.457l16.517-44.2m4.55 26.19h6.75l-3.375-10.84z" fill="#131313"/>
 </g>
 <path id="n" d="m266.13 59.554c-0.16-3.29 2.04-6.61 5.47-6.96 4.65-0.43 9.35-0.29 14.01-0.11 3.24 0.09 6.23 2.82 6.18 6.15 0.16 8.6 0.12 17.22-0.01 25.82 4.94-0.08 9.9-0.25 14.85 0.03 2.69 0.03 5.15 2.02 5.62 4.7 0.62 3.12 0.35 6.33 0.37 9.49-0.03 2.3-0.47 4.94-2.4 6.46-1.89 1.41-4.35 1.52-6.61 1.51-9.68-0.03-19.35-0.01-29.03-0.01-2.4 0-5.08-0.29-6.8-2.16-1.62-1.86-1.69-4.51-1.7-6.85 0.07-12.69-0.04-25.38 0.05-38.07" fill="#fff"/>
 <g id="o">
  <path id="p" d="m121.48 53.494c2.31-1.19 4.96-1.11 7.48-1.02 3.7 0.26 7.51-0.22 11.14 0.67 3.31 1.38 3.92 5.23 3.87 8.41 0 12.38 0.15 24.76 0.2 37.14 0.18 3.21-1.27 7.04-4.82 7.64-5.49 0.86-11.19 0.81-16.66-0.26-5.08-2.14-3.98-8.46-4.12-12.87 0.22-10.88-0.09-21.76 0.11-32.63-0.07-2.65 1.09-5.12 2.8-7.08" fill="#fff"/>
  <path id="q" d="m123.58 57.485h15.265v44.1h-15.265z" fill="#131313"/>
 </g>
 <g id="r">
  <path id="s" d="m151.61 57.544c0.57-3.7 4.63-5.29 7.99-4.92 12.7 0.12 25.4-0.13 38.1 0.1 3.31-0.1 6.06 2.87 6.12 6.11 0.22 4.07 0.77 8.42-0.7 12.32-2.43 4.68-8.49 3.16-12.77 3.49-0.16 7.66 0.02 15.31 0.03 22.97-0.06 2.6-0.1 5.68-2.31 7.48-2.36 2.13-5.79 1.56-8.7 1.6-3.04-0.14-6.08-0.03-9.11-0.09-2.74-0.88-5.28-2.98-5.26-6.09-0.43-8.6 0.15-17.24-0.13-25.85-4.3-0.3-10.28 1.02-12.8-3.54-1.46-4.33-0.98-9.11-0.46-13.58" fill="#fff"/>
  <path id="t" d="m156.35 57.524h42.495v12.04h-13.745v32.055h-14.99v-32.055h-13.76z" fill="#131313"/>
 </g>
 <g id="u">
  <path id="v" d="m219.37 55.414c2.44-4.44 8.15-2.6 12.24-3.01 4.28 0.34 10.62-1.59 12.92 3.3 5.13 12.87 9.93 25.89 15.01 38.78 0.89 2.55 2.45 5.31 1.2 8.02-0.84 3.02-4.25 4.32-7.12 4.13-4.67-0.13-9.39 0.35-14.02-0.33-3.19-0.58-4.03-4.06-4.95-6.67-2.05-0.01-4.1-0.02-6.15-0.01-0.73 2.85-1.86 6.13-5.15 6.8-5.69 0.42-11.57 0.96-17.16-0.4-3.48-0.96-4.69-5.17-3.32-8.25 3.03-8.23 6.53-16.29 9.49-24.55 2.33-5.93 4.32-12.04 7.01-17.81" fill="#fff"/>
  <path id="w" d="m223.73 57.434h16.1l16.22 44.2h-15.42l-2.25-7.01h-13.58l-2.13 7.01h-15.457l16.517-44.2m4.55 26.19h6.75l-3.375-10.84z" fill="#131313"/>
 </g>
 <path id="x" d="m271.34 57.524h15.465v31.975h20.845v12.075h-36.31z" fill="#131313"/>
 <g id="y" transform="translate(201.04 -.26688)">
  <path id="z" d="m121.48 53.494c2.31-1.19 4.96-1.11 7.48-1.02 3.7 0.26 7.51-0.22 11.14 0.67 3.31 1.38 3.92 5.23 3.87 8.41 0 12.38 0.15 24.76 0.2 37.14 0.18 3.21-1.27 7.04-4.82 7.64-5.49 0.86-11.19 0.81-16.66-0.26-5.08-2.14-3.98-8.46-4.12-12.87 0.22-10.88-0.09-21.76 0.11-32.63-0.07-2.65 1.09-5.12 2.8-7.08" fill="#fff"/>
  <path id="aa" d="m123.58 57.485h15.265v44.1h-15.265z" fill="#131313"/>
 </g>
</svg>
