<?xml version="1.0" encoding="UTF-8"?>
<svg id="svg19" width="401.46pt" height="59.843pt" version="1.1" viewBox="0 0 401.46 59.843" xmlns="http://www.w3.org/2000/svg" xmlns:cc="http://creativecommons.org/ns#" xmlns:dc="http://purl.org/dc/elements/1.1/" xmlns:rdf="http://www.w3.org/1999/02/22-rdf-syntax-ns#">
 <metadata id="metadata25">
  <rdf:RDF>
   <cc:Work rdf:about="">
    <dc:format>image/svg+xml</dc:format>
    <dc:type rdf:resource="http://purl.org/dc/dcmitype/StillImage"/>
    <dc:title/>
   </cc:Work>
  </rdf:RDF>
 </metadata>
 <path id="path11-6" d="m53.263 58.619 24.35-57.89c10.41 0.15 20.82-0.06 31.23 0.11 4.47 0.08 9.32 1.41 12.13 5.14 3.05 4.27 2.75 9.97 1.59 14.84-1.78 5.75-6.42 10.14-11.5 13.1-5.8253 3.3224-14.497 2.49-21.91 2.49l21.72 22.21h-16.92l-16.95-17.21-7.23 17.21h-16.51m31.36-35.13c5.2209 0 11.611 0.42391 16.024-1.6737 1.6149-0.72353 2.7878-2.0005 3.6679-3.3536 0.55927-0.87097 0.955-1.8153 0.85042-2.7069-0.53723-2.2438-2.8858-2.0162-3.75-2.0162h-12.602z" fill="#fff"/>
 <path id="path3" d="m36.383 0.70893c7.99-1.13 17.14-1.52 23.9 3.63 5.06 3.81 6.5 10.74 5.34 16.69-3.4 18.76-18.64 35.72-37.95 38.4-7.76 0.84-16.63 0.88-22.83-4.61-4.68-4.14-5.5-10.91-4.42-16.75 3.53-17.89 17.72-33.9 35.96-37.36m-2.04 13.95c-6.81 2.66-11.7 8.74-14.7 15.21-1.64 3.72-3.12 7.84-2.34 11.95 0.5 2.57 2.97 4.38 5.52 4.53 5.76 0.69 11.5-1.83 15.71-5.64 5.09-4.65 8.53-10.99 10.07-17.67 0.76-2.78 0.51-6.27-1.91-8.17-3.7-2.31-8.46-1.64-12.35-0.21z" fill="#fff"/>
 <path id="path7" d="m129.99 7.9889c1.25-2.72 2.66-6.08 5.89-6.84 3.25-0.61 6.74-0.78 9.94 0.14 2.44 0.8 1.73 3.9 1.15 5.76-4.7547 11.745-9.9938 23.283-14.723 35.031-1.1496 2.0338-0.19841 2.3533 1.7232 2.5814 1.612 0.18504 3.2681 0.0678 4.89 0.08742 7.17-0.02 14.35-0.02 21.53 0-1.89 4.65-3.92 9.24-5.86 13.87h-35.75c-2.45 0.13-5.3-0.66-6.52-3-1.41-2.43-0.23-5.23 0.71-7.58 5.67-13.35 11.35-26.7 17.02-40.05z" fill="#fff"/>
 <path id="path9" d="m176.46 11.349c1.65-4.71 4.68-10.22 10.28-10.57l41.91-0.01-5.62 12.63-30.74-0.12-3.55 8.34 28.89 0.06-5.81 12.94-28.55-0.03-4.46 10.18 32.1 0.04-5.95 13.81h-38.13c-2.13-0.08-4.55 0.07-6.22-1.52-2.06-2.29-1.08-5.6-0.1-8.16 5.27-12.55 10.65-25.05 15.95-37.59z" fill="#fff"/>
 <path id="path11" d="m207.21 58.619 24.35-57.89c10.41 0.15 20.82-0.06 31.23 0.11 4.47 0.08 9.32 1.41 12.13 5.14 3.05 4.27 2.75 9.97 1.59 14.84-1.78 5.75-6.42 10.14-11.5 13.1-5.8253 3.3224-14.497 2.49-21.91 2.49l21.72 22.21h-16.92l-16.95-17.21-7.23 17.21h-16.51m31.36-35.13c5.2209 0 11.611 0.42391 16.024-1.6737 1.6149-0.72353 2.7878-2.0005 3.6679-3.3535 0.55927-0.87097 0.955-1.8153 0.85042-2.7069-0.53723-2.2438-2.8858-2.0162-3.75-2.0162h-12.602z" fill="#fff"/>
 <g id="#42c8f4ff" transform="translate(-13.187 -20.091)" fill="#42c8f4">
  <path id="path14" d="m293.7 34.78c2.03-4.62 3.88-9.35 6.06-13.9h54.24c-1.83 4.7-4.08 9.27-6.04 13.9h-19.02c-5.32 12.42-10.57 24.92-15.87 37.35-1.1298 2.9516-3.3259 6.0796-6.5681 6.569-0.45962 0.06937-0.58648 0.10464-1.4419 0.10464h-4.5175c-1.5091 0-2.9508-0.23626-4.057-1.2084-0.53029-0.39206-0.61132-0.8296-0.68379-1.4048-0.15125-2.0429 0.66385-4.0306 1.4083-5.9005l14.01-33.161c0.99206-2.3573-0.29133-2.3491-2.4078-2.3491z"/>
  <path id="path16" d="m355.26 28.02c0.07-3.55 3.06-6.83 6.67-6.91 2.87 0.01 6.23-0.43 8.66 1.43 1.75 1.26 1.07 3.61 1.15 5.44l-1.71 28.22 25.77-32.38c1.22-1.57 3.09-2.61 5.09-2.67h13.76l-40.3 50.23c-3.22 4.08-7.9 7.76-13.4 7.32-3.3 0.13-6.67-2.21-7.09-5.61-0.43-3.35-0.04-6.73 0.02-10.09z"/>
 </g>
</svg>
