<?xml version="1.0" encoding="UTF-8"?>
<svg width="279.43" height="181.89" version="1.1" viewBox="0 0 279.43 181.89" xml:space="preserve" xmlns="http://www.w3.org/2000/svg"><defs><clipPath id="clipPath116"><path d="m251.54 421.68h52.818v48.735h-52.818z"/></clipPath><clipPath id="clipPath208"><path d="m0 0h595.28v841.89h-595.28z"/></clipPath><clipPath id="clipPath220"><path d="m288.75 425.64h55.191v41.466h-55.191z"/></clipPath></defs><g transform="matrix(1.3333 0 0 -1.3333 -265.84 637.44)"><g fill="#e2001a"><path d="m199.38 411.33h10.369q4.6249 0 7.0915-2.0609 2.4828-2.0447 2.4828-5.842 0-3.8135-2.4828-5.8744-2.4666-2.0447-7.0915-2.0447h-4.1218v-8.4059h-6.2477zm6.2477-4.5275v-6.7669h3.4565q1.8175 0 2.8074 0.87629 0.98989 0.89252 0.98989 2.5153t-0.98989 2.4991q-0.98989 0.87629-2.8074 0.87629z"/><path d="m221.07 411.33h16.861v-4.7222h-10.613v-4.5113h9.98v-4.7222h-9.98v-5.5499h10.97v-4.7223h-17.218z"/><path d="m257.56 410.57v-5.128q-1.996 0.89253-3.8946 1.3469-1.8986 0.45438-3.5863 0.45438-2.2394 0-3.3104-0.61665-1.071-0.61666-1.071-1.9149 0-0.97366 0.71402-1.5254 0.73025-0.53552 2.6289-0.92498l2.6613-0.53552q4.0407-0.81138 5.7446-2.4666 1.7039-1.6552 1.7039-4.706 0-4.0082-2.3855-5.9718-2.3692-1.9473-7.2538-1.9473-2.3043 0-4.6249 0.43814-2.3206 0.43815-4.6411 1.2982v5.274q2.3206-1.2333 4.4788-1.8662 2.1745-0.61665 4.1868-0.61665 2.0447 0 3.1319 0.68156 1.0872 0.68157 1.0872 1.9473 0 1.1359-0.74647 1.7526-0.73025 0.61665-2.9372 1.1035l-2.4179 0.53551q-3.635 0.77893-5.3227 2.4828-1.6715 1.7039-1.6715 4.5924 0 3.6188 2.3368 5.5661t6.7183 1.9473q1.996 0 4.1056-0.30833 2.1096-0.29209 4.3652-0.89252z"/><path d="m281.5 388.43q-1.7201-0.89252-3.5863-1.3469-1.8662-0.45437-3.8946-0.45437-6.0529 0-9.5906 3.3754-3.5376 3.3916-3.5376 9.1849 0 5.8095 3.5376 9.1849 3.5376 3.3916 9.5906 3.3916 2.0285 0 3.8946-0.45437 1.8662-0.45438 3.5863-1.3469v-5.0144q-1.7364 1.1846-3.424 1.7364-1.6877 0.55174-3.5539 0.55174-3.3429 0-5.2578-2.1421-1.9149-2.142-1.9149-5.9069 0-3.7486 1.9149-5.8906 1.9149-2.1421 5.2578-2.1421 1.8662 0 3.5539 0.55174t3.424 1.7364z"/><path d="m300.84 391.52h-9.7691l-1.5416-4.4139h-6.2801l8.9739 24.228h7.4485l8.9739-24.228h-6.2801zm-8.2112 4.4951h6.6371l-3.3104 9.6392z"/><path d="m319.27 400.59q1.9636 0 2.8074 0.73024 0.86007 0.73025 0.86007 2.4017 0 1.6552-0.86007 2.3692-0.84384 0.71402-2.8074 0.71402h-2.6289v-6.2152zm-2.6289-4.3166v-9.1686h-6.2477v24.228h9.5419q4.7872 0 7.0104-1.6065 2.2394-1.6065 2.2394-5.0793 0-2.4017-1.1684-3.9433-1.1522-1.5416-3.489-2.2719 1.282-0.29209 2.2881-1.3307 1.0223-1.0223 2.0609-3.1157l3.3916-6.8805h-6.6534l-2.9534 6.0205q-0.89252 1.8175-1.8175 2.4828-0.90875 0.66533-2.4342 0.66533z"/><path d="m334.01 411.33h16.861v-4.7222h-10.613v-4.5113h9.98v-4.7222h-9.98v-5.5499h10.97v-4.7223h-17.218z"/></g><g fill="#fff"><path d="m239.64 364.31q-1.7201-0.89252-3.5863-1.3469-1.8662-0.45437-3.8946-0.45437-6.0529 0-9.5906 3.3754-3.5376 3.3916-3.5376 9.1849 0 5.8095 3.5376 9.1849 3.5376 3.3916 9.5906 3.3916 2.0285 0 3.8946-0.45437 1.8662-0.45438 3.5863-1.3469v-5.0144q-1.7364 1.1846-3.424 1.7364-1.6877 0.55174-3.5539 0.55174-3.3429 0-5.2578-2.1421-1.9149-2.142-1.9149-5.9069 0-3.7486 1.9149-5.8906 1.9149-2.1421 5.2578-2.1421 1.8662 0 3.5539 0.55174t3.424 1.7364z"/><path d="m260.33 367.39h-9.7691l-1.5416-4.4139h-6.2801l8.9739 24.228h7.4485l8.9739-24.228h-6.2801zm-8.2112 4.4951h6.6371l-3.3104 9.6392z"/><path d="m291.84 364.31q-1.7201-0.89252-3.5863-1.3469-1.8662-0.45437-3.8946-0.45437-6.0529 0-9.5906 3.3754-3.5376 3.3916-3.5376 9.1849 0 5.8095 3.5376 9.1849 3.5376 3.3916 9.5906 3.3916 2.0285 0 3.8946-0.45437 1.8662-0.45438 3.5863-1.3469v-5.0144q-1.7364 1.1846-3.424 1.7364-1.6877 0.55174-3.5539 0.55174-3.3429 0-5.2578-2.1421-1.9149-2.142-1.9149-5.9069 0-3.7486 1.9149-5.8906 1.9149-2.1421 5.2578-2.1421 1.8662 0 3.5539 0.55174t3.424 1.7364z"/><path d="m315.55 364.31q-1.7201-0.89252-3.5863-1.3469-1.8662-0.45437-3.8946-0.45437-6.0529 0-9.5906 3.3754-3.5376 3.3916-3.5376 9.1849 0 5.8095 3.5376 9.1849 3.5376 3.3916 9.5906 3.3916 2.0285 0 3.8946-0.45437 1.8662-0.45438 3.5863-1.3469v-5.0144q-1.7364 1.1846-3.424 1.7364-1.6877 0.55174-3.5539 0.55174-3.3429 0-5.2578-2.1421-1.9149-2.142-1.9149-5.9069 0-3.7486 1.9149-5.8906 1.9149-2.1421 5.2578-2.1421 1.8662 0 3.5539 0.55174t3.424 1.7364z"/><path d="m318.64 387.21h6.2477v-24.228h-6.2477z"/><path d="m345.58 367.39h-9.7691l-1.5416-4.4139h-6.2801l8.9739 24.228h7.4485l8.9739-24.228h-6.2801zm-8.2112 4.4951h6.6371l-3.3104 9.6392z"/><path d="m365.36 376.46q1.9636 0 2.8074 0.73024 0.86007 0.73025 0.86007 2.4017 0 1.6552-0.86007 2.3692-0.84384 0.71402-2.8074 0.71402h-2.6289v-6.2152zm-2.6289-4.3166v-9.1686h-6.2477v24.228h9.5419q4.7872 0 7.0104-1.6065 2.2394-1.6065 2.2394-5.0793 0-2.4017-1.1684-3.9433-1.1522-1.5416-3.489-2.2719 1.282-0.29209 2.2881-1.3307 1.0223-1.0223 2.0609-3.1157l3.3916-6.8805h-6.6534l-2.9534 6.0205q-0.89252 1.8175-1.8175 2.4828-0.90875 0.66533-2.4342 0.66533z"/><path d="m381.45 387.21h16.861v-4.7222h-10.613v-4.5113h9.98v-4.7223h-9.98v-5.5499h10.97v-4.7223h-17.218z"/></g><g transform="matrix(1 0 0 -.95 352.28 385.82)" fill="#9c9e9f" aria-label="&amp;"><path d="m14.135-17.532 7.2358 7.9611q0.93764-1.2384 1.4153-2.7775 0.49536-1.5391 0.58382-3.4852h5.502q-0.26537 3.2198-1.2561 5.732-0.97302 2.5122-2.7245 4.4051l5.1836 5.6966h-7.5011l-1.7338-1.9284q-1.8576 1.2384-3.9098 1.8399-2.0522 0.60151-4.3521 0.60151-4.6528 0-7.5365-2.4414-2.866-2.4591-2.866-6.3335 0-2.5829 1.2561-4.5644 1.2738-1.9991 4.1398-3.8744-0.74304-0.93764-1.0969-1.8753-0.35383-0.93764-0.35383-1.9637 0-2.8837 2.2468-4.6174 2.2468-1.7338 5.9797-1.7338 1.6099 0 3.3437 0.26537 1.7514 0.24768 3.6444 0.76073v4.9182q-1.663-0.84918-3.1491-1.2561t-2.9014-0.4069q-1.3622 0-2.123 0.53074-0.74304 0.51305-0.74304 1.4684 0 0.60151 0.42459 1.3799 0.44228 0.76073 1.2915 1.6984zm-3.5206 4.3875q-1.1499 0.83149-1.7338 1.893-0.58381 1.0438-0.58381 2.2999 0 2.0345 1.5038 3.4675t3.609 1.433q1.1853 0 2.2114-0.35383 1.0261-0.37152 1.9107-1.0969z" style=""/></g><g fill="#fff"><g clip-path="url(#clipPath116)" fill="#fff"><g transform="translate(254.99 442.23)"><path d="m0 0c-1.594 7.892 2 14.901 9.205 19.518 9.089 5.825 18.661 5.809 26.931 4.554-0.524-0.282-1.133-0.582-1.79-0.852-1.995-0.82-5.191-2.12-5.515-2.505-0.323-0.385-1.292-0.811-4.379-1.518-9.244-2.118-14.496-5.405-17.81-8.649-4.67-4.573-5.095-6.697-5.34-9.054-0.248-2.388 0.053-4.4 0.132-4.615-0.094 0.247-0.689 1.947-1.434 3.121" fill="#fff"/></g><g transform="translate(287.17 463.47)"><path d="m0 0c-3.257-0.826-2.031-4.457-3.283-6.447 1.241-3.183 3.543-2.827 5.904-2.277-5.444-1.233-6.461 5.964-2.621 8.724" fill="#fff" fill-rule="evenodd"/></g><g transform="translate(273.06 453.01)"><path d="m0 0c-0.192-0.668 0.578-0.596 1.189-0.666 1.116 0.155 2.442 0.522 2.743 1.173-0.862-0.329-2.558-0.838-3.271 0.177 1.625-0.329 3.066-0.063 4.412 0.514-0.905-1.366-2.518-2.348-3.808-2.222-0.876-0.028-1.95 0.859-2.04-0.433 1.308-1.085 3.357 0.306 4.913 0.048-2.397-1.233-4.15-0.322-6.322-0.808 2.589-1.668 6.604-0.095 9.544 2.544 0.189-0.375 1.4-0.126 0.946-0.79-3.854-1.557-8.413-4.664-11.404-1.986 1.018 1.249 1.949 1.608 3.098 2.449" fill="#fff" fill-rule="evenodd"/></g><g transform="translate(292.94 455.61)"><path d="M 0,0 C 0.657,0.599 -0.63,0.516 -0.168,1.238 1.134,2.945 1.911,3.524 4.224,5.524 4.456,5.724 5.427,6.619 5.125,6.491 3.263,5.7 -2.579,0.746 0,0" fill="#fff" fill-rule="evenodd"/></g><g transform="translate(260.5 437.02)"><path d="m0 0c0.477 3.126 4.945 6.345 8.42 8.654 0.32 0.214 3.05 2.017 2.273 1.932-0.309-0.224-0.618-0.447-0.926-0.672-4.229-2.392-10.016-5.913-9.767-9.914" fill="#fff" fill-rule="evenodd"/></g><g transform="translate(253.08 437.18)"><path d="m0 0c1.279 2.522 5.482 4.236 8.654 5.425 0.274 0.139 0.548 0.279 0.822 0.419 0.63-0.03-1.772-1.125-2.054-1.254-2.53-1.162-5.678-2.733-7.128-4.617-5e-3 -0.063-1e-3 -0.129 0.011-0.197-0.054 0.369 2.001 1.475 1.611 0.869-1.516-0.675-2.286-2.464-1.951-3.131 1.855 2.485 4.755 5.555 8.18 7.006-4.348-2.468-5.124-6.008-9.466-8.478-0.072 0.134-0.145 0.268-0.217 0.403 1.253 0.792 0.926 2.624 1.538 3.555" fill="#fff" fill-rule="evenodd"/></g><g transform="translate(294.12 457.34)"><path d="M 0,0 C 3.321,1.77 6.602,1.4 9.421,3.257 10.191,3.566 9.498,3.773 9.111,3.349 7.129,1.997 5.782,2.762 3.843,1.551 5.813,2.573 7.323,4.2 9.265,4.992 5.79,6.149 2.484,2.062 0,0" fill="#fff" fill-rule="evenodd"/></g><g transform="translate(286.71 441.66)"><path d="m0 0c-2.061-3.155-9.934-4.566-11.015-8.014 1.72 2.956 10.246 4.328 11.015 8.014" fill="#fff" fill-rule="evenodd"/></g><g transform="translate(260.48 456.67)"><path d="M 0,0 C 7.364,5.756 16.235,8.077 23.488,8.678 17.201,9.366 6.549,7.205 0,0" fill="#fff" fill-rule="evenodd"/></g><g transform="translate(276.51 462.52)"><path d="m0 0c-5.413-0.115-14.995-4.495-17.213-9.534 2.989 4.069 11.418 8.215 17.213 9.534" fill="#000" fill-rule="evenodd"/></g><g transform="translate(279.74 460.54)"><path d="m0 0c-8.31-0.921-20.529-7.82-22.331-14.571-0.119-0.448-0.709-1.579-0.028-1.49 1.617 7.364 13.139 13.445 22.359 16.061" fill="#000" fill-rule="evenodd"/></g><g transform="translate(280.46 458.56)"><path d="m0 0c-0.466-1.493 0.35-4.182 2.186-4.54-2.658 2.506-1.378 6.398 1.486 8.337-1.309-0.23-2.552-1.934-3.083-2.96-3.43-0.583-7.921-2.221-11.419-4.853 3.163 1.775 7.553 3.65 10.83 4.016" fill="#fff" fill-rule="evenodd"/></g><g transform="translate(291.02 462.8)"><path d="m0 0c-0.21 0.621-1.033 0.142-1.666 2e-3 -0.082-0.571-0.556-0.924-0.222-1.728-1.017 0.822-0.366 2.298 0.978 2.419-1.364 0.322 7.149-0.203 1.223-1.793-0.471-0.069-0.441 0.76-0.911 0.692-1.029 0.019-0.518-0.822-0.85-1.193-0.923 0.629 0.397 2.004 1.448 1.601" fill="#fff" fill-rule="evenodd"/></g><g transform="translate(283.96 446.77)"><path d="m0 0c-0.261-0.128-0.526-0.279-0.778-0.319 1.365-0.082 2.339 2.09 3.222 2.054-0.618-0.885-1.675-1.638-2.277-2.527 0.662-0.794 1.771-0.102 2.386-1.053 1.088 2.095 2.069 4.222 1.843 6.71-0.55 0.183-1.083 0.08-1.642-0.154-0.322-1.608-3.284-4.246-2.754-4.711m-0.161 6.569c0.067 0.655-0.634 1.541-0.062 2.045 1.694-3.386 5.929-4.229 8.244-1.795-0.112-0.061-0.316 0.039-0.109 0.201 3.82-0.421 11.15 2.923 12.488 6.729-0.684-5.938-10.761-7.334-15.695-8.977 0.145-2.745-0.312-5.31-2.229-7.439-0.894 1.137-3.009 1.144-3.341 2.338-0.212-0.012-0.415 0.067-0.6 0.317 2.172 1.317 3.166 3.474 4.014 4.633-0.64-0.298-1.321-0.74-2.105-1.105-5.027-2.341-11.998-4.493-15.633-7.644 4.2-4.019 12.181 1.573 16.395-0.522-3.354 0.644-7.415-1.074-11.11-1.568 0.6-1.421 0.625-3.562-0.185-3.998 0.517 1.14 0.199 2.53-0.327 3.982-1.358-0.024-2.59 0.373-3.998 0.185 0.801-0.909 2.837-0.664 3.115-1.44-1.803-0.194-3.006 1.614-4.943 0.975 0.726-0.772 1.566-1.162 2.495-1.255 0.139-1.086-2.715 1.594-4.122 0.898 1.093-1.431 3.478-1.536 4.169-2.432-2.293 0.429-5.83 3.788-7.779-0.033 2.071-1.921 5.943-0.829 7.269-3.36-2.279 1.963-6.544 2.086-8.353 1.996 1.473 7.851 18.572 10.431 22.402 17.269" fill="#fff" fill-rule="evenodd"/></g><g transform="translate(287.7 449.47)"><path d="m0 0c-0.633-0.433-1.569-2.229-1.843-3.332 1.152 0.95 1.165 2.241 1.843 3.332" fill="#fff" fill-rule="evenodd"/></g><g transform="translate(275.62 439.58)"><path d="m0 0c-0.277-0.531 1.111-0.658 1.658-0.666 2.017-0.031 4.597 0.833 7.205 2.063-2.945-0.435-6.221-1.975-8.863-1.397" fill="#fff" fill-rule="evenodd"/></g><g transform="translate(275.65 438.55)"><path d="M 0,0 C 0.848,-0.559 2.984,-1.686 4.835,-0.773 3.318,-0.2 1.461,-0.761 0,0" fill="#fff" fill-rule="evenodd"/></g><g transform="translate(272.22 435.41)"><path d="M 0,0 C 0.581,-0.486 2.066,-1.501 3.514,-0.983 2.44,-0.43 1.017,-0.688 0,0" fill="#fff" fill-rule="evenodd"/></g><g transform="translate(268.62 434.24)"><path d="m0 0c2.304-1.204 3.181-4.202 5.022-6.91 1.652-2.429 3.868-3.8 5.499-5.273-2.069 2.908-5.257 4.988-6.616 8.023 1.044-1.582 2.251-2.621 3.553-3.342-0.073 0.781-0.192 1.576-0.418 2.403-1.276 0.608-3.552 1.223-3.78 3.22 1.168-1.38 2.467-2.323 3.884-2.872 0.085 0.797 0.458 1.508 0.504 2.316-1.937 0.292-3.923 0.418-5.363 2.367 2.047-0.383 4.747-3.056 6.251-1.305-1.441-2.994 0.171-6.903 2.09-10.905 0.103-0.095 0.204-0.19 0.302-0.286-4.255 0.344-6.475 6.102-9.316 10.054-2.553 3.551-6.418 2.474-9.298 2.787 1.157-1.591 3.078-3.623 4.386-2.834 0.125 0.855-2.172 0.825-1.999 1.781 0.749-1.298 2.667-0.192 2.75-0.831-0.116-0.221-0.284-0.641-0.13-1.005 0.056-0.135 0.111-0.25 0.161-0.348 0.098-0.255 0.179-0.504-0.24-0.604-2.182 0.043-3.972 1.396-5.347 4.136-1.044 0.655-3.016 1.196-3.162 2.974 2.408-4.232 7.668-1.666 11.267-3.546" fill="#fff" fill-rule="evenodd"/></g><g transform="translate(256.74 438.45)"><path d="M 0,0 C 0,0 -0.004,0.008 -0.009,0.023 -0.003,0.009 0,0 0,0" fill="#fff"/></g><g transform="translate(256.27 455.64)"><path d="m0 0c2.475 2.918 4.827 5.872 9.373 8.169-2.697-0.17-5.436-0.482-8.538-2.001 1.114-0.042 2.389 0.457 3.564 0.62-0.813-0.82-2.816-0.766-4.152-1.457 1.223-0.425 2.832 0.435 4.184 0.435-0.82-1.007-4.974-0.245-4.633-2.496 0.616 1.043 2.128 0.903 3.13 1.426-0.555-0.565-2.298-1.057-3.183-1.91 0.503-0.06 1.183 0.434 1.836 0.888-0.492-0.749-2.603-3.015-1.581-3.674m-0.279-0.93c-0.859 1.141-0.174 3.773-0.174 3.773s2e-3 0 2e-3 -1e-3c-0.431 1.423 0.453 2.451 0.248 3.806 3.623 1.38 7.019 2.005 10.18 1.846 13.535 6.278 26.048 4.703 37.207-0.953-12.66 5.002-26.301 7.147-39.592-1.371-7.485-4.797-11.075-12.175-8.998-20.442-2.379 4.598-1.249 9.607 1.127 13.342" fill="#fff"/></g></g></g><g stroke="#000"><g clip-path="url(#clipPath208)" stroke="#000"><g transform="translate(297.92 413.63)" stroke="#000"><path d="m0 0c29.644 0 53.675 14.259 53.675 31.848 0 17.59-24.031 31.849-53.675 31.849s-53.675-14.259-53.675-31.849c0-17.589 24.031-31.848 53.675-31.848z" fill="none" stroke="#fff" stroke-width="1.5"/></g></g></g><g fill="#fff"><g clip-path="url(#clipPath220)" fill="#fff"><g transform="translate(293.14 442.38)"><path d="m0 0c-0.523 0.254-0.647 0.315-2.9-0.311-0.664-0.184-1.484-0.55-1.354-1.177 0.348-1.68 1.602-3.114 1.996-4.547s-0.337-2.513 0.369-3.46c0.706-0.946 3.224 0.774 6.537 1.561 0.083 0.02 3.448-1.218 3.269 0.287-0.394-1.039-2.821-0.18-2.72-0.156-2.296 3.094-2.554 5.257-2.105 5.363 4.299-4.944 4.548-4.784 5.048-4.667 1.212 0.286 2.248 0.528 2.894 0.674 0.36 0.082 6.102 0.816 7.249-1.62 2.615-0.681 6.866 6.282 0.453 6.21-0.752-4.048-7.692-4.193-7.745-4.17-3.859 1.712-5.924 6.902-5.654 14.13 1.147-7.667 4.81-10.025 6.377-10.533 1.053-0.341 1.047-1.376 0.892-2.113-0.022-0.102-4.295 1.468-5.764 5.731 1.72-6.054 5.517-6.52 5.517-6.52l0.43 0.143s0.837 2.05-0.286 2.831c-0.952 0.661-2.902 1.289-2.867 3.511-0.042 0.071 9.889 6.019 9.315 8.383-8.455-7.523-11.147-8.081-11.193-7.996-1.055 1.936-1.906 4.518-2.278 7.96-0.43-0.107-1.683-10.927 3.046-14.402-0.517-0.131-0.728-0.806-1.362-0.967-0.322-0.083-1.141 0.139-3.367 3.367-0.072 0.103 0.931 1.003 1.648 2.114-1.541-1.039-2.551-0.886-2.624-0.771-0.971-0.029 0.139-3.134 0.331-3.636 0.238-0.764 0.8-1.672 1.478-2.904-3.37-0.859-5.061-1.789-5.849-1.395s0.036 1.756-0.932 3.941c-0.159 0.359-1.684 2.723-1.182 3.404 1.051 1.427 4.245-0.697 4.729-0.932 0.382-0.186-1.023 2.486-1.396 2.667" fill="#fff"/></g><g transform="translate(313.16 443.62)"><path d="m0 0c2.794-1.966 11.751-5.876 7.954-11.321-1.95-2.796-6.6-3.865-9.817-1.505-0.672 0.493-0.502 4.657-6.521 4.156 4.873-1.218 4.551-2.902 4.049-3.762-5.482 1.899-13.698-2.806-13.698-2.806-0.025-7e-3 -0.454 1.839-0.74 2.842 0.119 1.254 4.221 2.748 4.227 2.759l-6.305-2.186c-0.027-0.045 1.934-2.365 2.532-4.18 2.125 1.218 12.934 3.867 16.085 1.557 3.269-2.398 8.569-3.531 10.955-1.009 7.974 8.433-8.721 15.455-8.721 15.455" fill="#fff"/></g><g transform="translate(311.27 461.62)"><path d="m0 0c-1.862-1.034 4.227-2.185 2.892-4.488-0.21-0.362-0.409-0.719-0.596-1.065-0.169-0.313-0.396 2.148-0.544 1.858-0.802-1.569-0.769-5.032-1.099-5.59 0.33-0.279 0.569 0.701 0.382 1.195 0.086 0.171 0.665 3.662 0.665 3.662s0.22-2.519 0.338-2.301c0.1 0.185 1.772 3.434 1.879 3.624 1.033 1.833 2.92-1.866 4.661-4.882 0.532-0.921 3.846-1.385 2.007 1.027 0.453-1.72-1.459-1.484-1.887-0.645-2.635 5.169-6.229 12.372-6.023 12.191 0.256-0.225 3.79-0.771 5.637-3.44 1.847-2.668 0.481-7.342 0.481-7.342s0.251-0.675 0.35-0.875c0.022-0.045 2.221 8.129 2.221 8.073 0-0.72 0.931-3.177 0.682-5.987 0 0-2.332-1.201 4.546-0.986 6.879 0.215 9.733 2.594 12.42 1.591 0.136-0.287 2.902-0.04 2.902-3.32 0-2.853 0.057-5.819-0.458-7.394-0.19-0.581-0.736 5.865-9.001 4.718 8.169-3.009 8.069-8.713 7.516-8.307-4.554 3.339-13.798 2.829-16.687 1.62-2.868-1.2 9.553-3.726 4.012-6.306-5.541-2.579-1.814-8.881-1.814-8.881 0.741 3.917 3.185 4.94 6.015 6.125 2.353 0.985 3.274 0.761 5.449 3.664 0.409 0.546 2.102 1.958-3.44 4.538 5.971 0.573 6.353-3.965 6.449-3.774 1.343 2.686 0.43 6.019-0.238 7.404 0.143 0.526 1.003-1.003 2.006-1.91 0.649 2.2 0.948 5.88 0.948 7.52 0 3.558-1.049 5.656-1.068 5.692l-0.019 0.037c-3.023 0.161-5.614 0.203-7.767 0.22-1.277 0.01-2.329 2e-3 -1.182 1.721-1.844 0.025-5.31-1.606-6.019-1.361-1.943 0.67-1.505 1.433 0.071 3.117-1.612 0-1.899 0.573-4.801-0.144-0.073-0.018-0.315 0.571-0.346 0.633-0.173 0.35-8.707 4.262-9.82 4.023 0.023 0.084 1.809-4.755 1.672-4.634-0.399 0.351-1.787 0.271-3.392-0.621" fill="#fff"/></g><g transform="translate(312.52 447.85)"><path d="m0 0c-0.752-0.788-1.075-1.648-3.69-1.182 0.071-1.792 2.042-0.466 2.042-0.466 0.022-2e-3 5.195-1.971 5.267 1.003 0.895-0.788 1.612-1.612 1.576-4.084 0.993 0.478 1.361 6.509 1.469 6.771l-0.86-0.896c-0.107-0.216-0.086-4.891-0.322-5.087-0.18 4.228-1.971 3.654-1.971 3.654s0.215 2.078-3.404-0.609c0.932 0.86 0.824 0.896 1.756 1.613 0.931 0.716 2.15 0.071 2.15 0.071s-2.007 2.687-4.013-0.788" fill="#fff"/></g></g></g><g transform="matrix(1 0 0 -1 373.03 341.66)" fill="#e2001a" aria-label="TV"><path d="m3.6515-17.643h16.261l-0.69722 3.4388h-5.8496l-2.8361 14.204h-4.5497l2.8361-14.204h-5.8614z" style=""/><path d="m17.422-17.643h4.5733l2.068 13.023 7.2794-13.023h4.5733l-10.068 17.643h-5.4241z" style=""/></g></g></svg>
