<?xml version="1.0" encoding="UTF-8"?>
<svg id="svg37" width="880.62pt" height="213.2pt" version="1.1" viewBox="0 0 880.62 213.2" xmlns="http://www.w3.org/2000/svg" xmlns:cc="http://creativecommons.org/ns#" xmlns:dc="http://purl.org/dc/elements/1.1/" xmlns:rdf="http://www.w3.org/1999/02/22-rdf-syntax-ns#" xmlns:xlink="http://www.w3.org/1999/xlink">
 <metadata id="metadata43">
  <rdf:RDF>
   <cc:Work rdf:about="">
    <dc:format>image/svg+xml</dc:format>
    <dc:type rdf:resource="http://purl.org/dc/dcmitype/StillImage"/>
    <dc:title/>
   </cc:Work>
  </rdf:RDF>
 </metadata>
 <defs id="defs41">
  <linearGradient id="linearGradient4538" x1="830.97" x2="830.97" y1="74.608" y2="226.52" gradientTransform="translate(-28.003 -60.74)" gradientUnits="userSpaceOnUse">
   <stop id="stop4532" stop-color="#bf0f1c" offset="0"/>
   <stop id="stop4534" stop-color="#320c09" offset="1"/>
  </linearGradient>
 </defs>
 <g id="#373536ff" transform="translate(-28.003 -60.74)" fill="#fff">
  <path id="path17" d="m161.43 61.69c7.14-1.68 14.77-1.09 21.64 1.43 5.84 2.12 11.03 6.45 13.43 12.26 2.63 6.2 2.24 13.13 1.44 19.66-3.15 25.93-15.95 50.21-34.33 68.59-1.31 1.04-1.06 2.82-1.34 4.28-0.49 5.97-2.2 12.18-0.27 18.04 1.24 3.67 5.52 3.43 8.54 4.28 0.16 2.62 0.49 6.55-2.62 7.58-7.68 3.12-16.21 4.97-24.49 3.46-5.25-0.98-10.16-4.18-12.66-8.98-3.72-6.97-3.59-15.24-2.58-22.87 3-22.17 6.05-44.33 9.07-66.5 1.62-10.22 3.43-20.79 8.87-29.79 3.34-5.63 8.87-9.98 15.3-11.44m14.38 23.16c-2.88 3.93-3.3 8.98-4.13 13.63-1.86 12.72-3.91 25.42-5.33 38.2 7.87-11.47 12.81-24.7 16.11-38.14 0.85-4.06 1.82-8.43 0.44-12.48-0.9-2.97-5.31-3.84-7.09-1.21z"/>
  <path id="path19" d="m28.33 169.91c4.1-31.13 8.22-62.26 12.35-93.39 18.46 0.21 36.93-0.46 55.37 0.53 8.93 0.22 17.72 3.67 24.63 9.28 8.75 7.44 10.56 19.88 9.26 30.71-0.92 12.56-7.63 24.72-18.5 31.32-13.36 8.69-30.06 8.44-45.37 7.46-0.86 7.07-1.84 14.12-2.57 21.21-0.15 3.34-0.47 7.04 1.36 10.02 1.7 2.67 5.17 2.52 7.94 2.92-0.06 2.51 0.69 6.28-2.12 7.59-7.43 3.18-15.68 4.88-23.76 4.02-5.82-0.64-11.65-3.44-14.85-8.5-4.38-6.82-4.43-15.36-3.74-23.17m45-70.84c-1.45 11.26-2.92 22.52-4.37 33.79 6.87-0.36 14.01 0.91 20.66-1.31 5.64-1.87 8.62-7.82 8.93-13.45 0.42-5.28 0.66-12-4.2-15.43-6.24-3.89-13.98-3.27-21.02-3.6z"/>
  <path id="path21" d="m206.08 121.08c7.31-8.91 18.38-14.58 29.91-15.13 8.22-0.42 17.06 0.76 23.85 5.77 2.01-4.17 6.8-5.48 11.07-5.74 7.64-0.53 15.72 0.09 22.37 4.25-2.99 21.93-6.01 43.86-8.57 65.84-0.22 3.63-0.66 7.62 1.22 10.92 1.67 2.72 5.19 2.6 7.98 2.96 0.02 2.62 0.68 6.54-2.37 7.76-8.44 3.42-18.05 5.54-27.01 2.94-4.85-1.32-8.74-4.94-11.01-9.36-9.39 8.14-22.35 11.72-34.61 10.16-7.32-1-14.23-4.73-18.99-10.4-6.1-7.14-8.74-16.76-8.35-26.04 0.34-15.59 4.44-31.7 14.51-43.93m23.83 14.8c-6.88 9.78-9.16 22.72-5.78 34.21 1.26 4.36 4.36 8.57 8.98 9.65 5.77 1.29 12.68-0.35 16.2-5.39 2.01-2.73 2.42-6.21 2.91-9.47 1.69-12.22 3.38-24.44 5.06-36.67-4.34-0.87-8.76-1.65-13.21-1.34-5.85 0.5-10.84 4.36-14.16 9.01z"/>
  <path id="path23" d="m306.35 110.34c7.63-3.62 16.2-4.85 24.6-4.49 6.88-0.27 13.86 1.06 19.75 4.76-2.78 18.77-4.66 37.66-7.25 56.46-0.84 4.34 1.6 8.91 5.31 11.16 6.13 3.36 14.9 2.45 19.56-3 3.09-20.64 5.29-41.44 8.08-62.13 0.6-4.12 4.77-6.24 8.51-6.75 8.75-1.22 18.22-0.63 25.86 4.24-4.77 35.52-9.46 71.06-14.27 106.58-1.88 13.19-2.9 26.77-8.12 39.19-3.03 7.32-8.69 14.02-16.56 16.23-9.69 2.68-20.76 1.42-29.18-4.25-6.61-4.44-9.64-12.62-9.37-20.36 0.55-16.12 5.14-31.98 12.51-46.28-7.46 0.59-15.26-0.74-21.54-4.98-9.99-6.59-15.15-18.95-14.69-30.68 1.83-15.06 3.79-30.11 5.68-45.17-3.47-1.05-6.92-2.12-10.41-3.1-0.02-2.47-0.65-5.67 1.53-7.43m42.91 126.17c-0.82 4.04-1.82 8.45-0.21 12.41 0.94 2.44 4.46 3.39 6.37 1.5 2.87-3 3.43-7.37 4.23-11.27 2.15-13.7 4.07-27.43 5.83-41.19-7.98 11.57-12.9 24.98-16.22 38.55z"/>
  <path id="path25" d="m448.68 109.83c8.1-3.23 17.18-5.18 25.82-3.12 5.01 1.21 9.3 4.58 11.73 9.11 10.05-7.8 23.32-11.4 35.92-9.45 8.23 1.33 15.6 6.4 20.2 13.3 10.3-10.24 25.37-15.43 39.78-13.38 7.09 1.04 13.73 4.72 18.38 10.18 5.75 6.77 8.62 15.78 8.43 24.61-1.44 12-3.06 23.98-4.34 36-0.16 3.31-0.44 6.97 1.33 9.93 1.68 2.68 5.16 2.59 7.93 2.92 0.04 2.59 0.73 6.45-2.24 7.72-6.82 2.89-14.31 4.59-21.74 4.05-5.7-0.4-11.54-2.91-14.76-7.81-4.12-6.08-4.54-13.83-3.98-20.93 1.21-10.38 2.84-20.71 4.18-31.07 0.69-5.34-1.97-11.32-7.19-13.33-6.12-2.32-14.22-1.16-18.3 4.31-3.29 21.33-5.54 42.86-8.52 64.23-7.18 4.95-16.46 5.42-24.81 4.13-4.52-0.61-8.94-4.36-8.48-9.23 2.18-16.64 4.49-33.27 6.71-49.91 0.7-5.2-1.65-11.13-6.67-13.32-6.35-2.73-14.67-1.34-19.08 4.23-2.52 21.37-5.45 42.7-8.07 64.06-7.29 4.94-16.64 5.54-25.1 4.12-4.48-0.6-8.72-4.33-8.38-9.11 3.01-23.72 6.14-47.43 9.15-71.16-3.5-1.04-6.99-2.13-10.5-3.17-0.1-2.7-0.65-6.82 2.6-7.91z"/>
  <path id="path27" d="m642 116.96c9.83-8.42 23.24-11.52 35.94-11.02 9.52 0.74 19.8 3.36 26.29 10.87 6.05 7.02 6.31 17.17 4.18 25.78-1.59 6.42-6.32 11.84-12.29 14.6-12.87 6.2-27.72 5.78-41.57 4.14-0.08 4.36 0.52 9.11 3.62 12.44 3.96 4.39 10.13 5.64 15.77 6.08 10.4 0.65 20.76-1.09 31-2.66 1.81 3.88 2.8 8.4 1.73 12.61-1.86 3.54-5.76 5.3-9.2 6.93-7.75 3.13-16.05 5.51-24.49 5.04-11.05-0.32-22.43-1.43-32.55-6.22-6.75-3.15-12.61-8.58-15.36-15.6-3.88-9.56-2.7-20.2-0.72-30.05 2.47-12.35 7.84-24.68 17.65-32.94m23.48 12.34c-5.08 4.44-7.73 10.95-9.49 17.31 7.99 0.69 16.74 1.47 24.03-2.57 5.46-2.92 7.18-12.11 1.59-15.7-4.94-2.68-11.76-2.99-16.13 0.96z"/>
  <path id="path29" d="m423.21 169.21c9.17-2.09 16.95 7.09 16.38 15.78 0.17 8.64-7.2 18.38-16.58 16.6-8.38-1.24-12.88-10.84-11.16-18.58 1.03-6.1 4.98-12.37 11.36-13.8z"/>
 </g>
 <path id="path4528" d="m880.62 88.578a81.159 80.062 0 0 1-81.159 80.062 81.159 80.062 0 0 1-81.159-80.062 81.159 80.062 0 0 1 81.159-80.062 81.159 80.062 0 0 1 81.159 80.062z" fill="url(#linearGradient4538)"/>
 <path id="path4555" d="m855.23 48.913a55.767 33.457 0 0 1-55.767 33.457 55.767 33.457 0 0 1-55.767-33.457 55.767 33.457 0 0 1 55.767-33.457 55.767 33.457 0 0 1 55.767 33.457z" fill="#d44f62"/>
 <path id="path34" d="m791.54 48.929c0.26236-1.9928 1.4727-4.9804 4.0167-4.2319 2.0546 0.099 3.213 2.0267 4.453 3.4104 10.643 13.545 21.161 27.195 31.861 40.697 0.9415 1.5058 2.5115 3.064 2.1863 4.9981 0.0339 3.1917-2.8907 5.0257-5.0989 6.7825-13.974 10.072-27.651 20.567-41.386 30.963-1.3529 1.0206-2.3428 1.1439-3.6637 0.9541-3.3254-0.64963-3.0341-1.4958-2.6384-4.5406z" fill="#fff"/>
</svg>
