<svg width="800" height="371.61" version="1.1" viewBox="0 0 800 371.61" xmlns="http://www.w3.org/2000/svg">
 <link href="" rel="stylesheet" type="text/css"/>
 <style type="text/css"/>
 <path d="m757.75 67.325c-17.851-19.693-50.812-43.167-106.49-43.167h-127.78v51.809c-33.048-43.026-85.257-70.805-144.02-70.805-55.587 0-105.31 24.858-138.49 63.964-0.52088-0.598-1.0176-1.2127-1.5496-1.7996-17.851-19.693-50.814-43.167-106.49-43.167h-127.78v320.72h128.6v-47.65c34.387 0 63.804-9.0071 87.205-26.186 30.805 55.343 90.233 92.833 158.5 92.833 58.761 0 110.97-27.779 144.02-70.805v51.809h128.6v-47.65c44.104 0 80.082-14.751 105.6-42.66 22.292-24.382 34.57-57.631 34.57-93.622 0-35.819-12.254-69.067-34.505-93.616" fill="#fff" fill-rule="evenodd"/>
 <path d="m763.85 64.306c-18.722-20.665-53.226-45.298-111.27-45.298h-134.2v40.734c-1.6781-1.7986-3.386-3.5786-5.1442-5.3215-35.384-35.093-82.432-54.421-132.48-54.421-50.043 0-97.09 19.328-132.48 54.421-2.1005 2.0829-4.1246 4.2197-6.1098 6.3843-19.364-19.844-53.172-41.797-107.97-41.797h-134.2v333.6h141.44v-47.778c30.011-0.98292 56.64-8.928 78.687-23.27 7.7935 12.813 17.209 24.779 28.154 35.634 35.386 35.093 82.434 54.421 132.48 54.421 50.045 0 97.092-19.328 132.48-54.421 1.7581-1.7429 3.466-3.5229 5.1442-5.3196v40.734h141.44v-47.778c42.61-1.3954 78.446-16.767 103.95-44.666 23.367-25.567 36.236-60.352 36.236-97.944 0-37.407-12.839-72.178-36.153-97.913" fill="#f00f5a" fill-rule="evenodd"/>
 <g transform="scale(2.5806)" fill="#fff" fill-rule="evenodd">
  <path d="m52.263 112.59h-2.4811v18.41h-44.782v-119h46.944c20.621 0 32.777 8.6269 39.345 15.863 8.1974 9.0337 12.711 21.296 12.711 34.528 0 13.296-4.5203 25.556-12.729 34.523-9.5206 10.402-22.646 15.676-39.008 15.676"/>
  <path d="m147.26 139c-24.756 0-46.448-13.207-58.265-32.87 2.0312-1.6255 3.9461-3.4042 5.7261-5.3469 9.0693-9.8968 14.063-23.362 14.063-37.914 0-13.349-4.2436-25.825-11.994-35.497 12.412-13.72 30.437-22.372 50.47-22.372 37.349 0 67.735 30.056 67.735 67 0 36.943-30.386 67-67.735 67"/>
  <path d="m292.27 96.914c-9.5206 10.402-22.646 15.676-39.008 15.676h-2.4804v18.41h-44.782v-16.718c9.2638-12.301 14.273-27.159 14.273-42.782 0-15.622-5.0097-30.482-14.273-42.782v-16.718h46.945c20.621 0 32.777 8.6269 39.344 15.863 8.1974 9.0337 12.711 21.296 12.711 34.528 0 13.296-4.5203 25.556-12.729 34.523"/>
 </g>
 <g transform="scale(2.5806)" fill="#f00f5a" fill-rule="evenodd">
  <polygon points="32 92 32 32 27 32 27 92"/>
  <polygon points="75 73.572 75 83 44 83 44 43 74.727 43 74.727 52.372 54.479 52.372 54.479 58.486 72.817 58.486 72.817 67.229 54.479 67.229 54.479 73.572"/>
  <path d="m74 67.085v-0.11302c0-8.6655 6.5429-15.972 16.025-15.972 6.1537 0 10.258 2.7181 12.808 6.7968l-7.097 5.4363c-1.4975-1.9817-3.1053-3.2278-5.601-3.2278-3.4375 0-5.9332 3.1148-5.9332 6.8529v0.11374c0 3.9649 2.4394 6.9667 5.9887 6.9667 2.5504 0 4.1589-1.1899 5.7667-3.1724l7.0423 5.2102c-2.7731 4.1917-6.7655 7.0235-13.308 7.0235-9.0933 0-15.692-7.2496-15.692-15.915"/>
  <path d="m121.83 67.113v-0.11282c0-3.7883-2.7084-6.9543-6.4119-6.9543-3.8141 0-6.2467 3.1092-6.2467 6.8408v0.11353c0 3.7315 2.6531 6.8975 6.3573 6.8975 3.8134 0 6.3013-3.11 6.3013-6.7847m-22.829 0v-0.11282c0-8.7069 6.9651-16 16.528-16 9.5622 0 16.472 7.1799 16.472 15.887v0.11353c0 8.7062-6.9651 16-16.583 16-9.5083 0-16.417-7.1799-16.417-15.887"/>
  <path d="m132 51.673h10.28v4.2606c1.8937-2.5229 4.5988-4.9332 8.7645-4.9332 6.2225 0 9.9557 4.2606 9.9557 11.155v19.845h-10.226v-16.425c0-3.3636-1.6771-5.1576-4.1664-5.1576-2.4886 0-4.3281 1.794-4.3281 5.1576v16.425h-10.28z"/>
  <path d="m183.83 67.113v-0.11282c0-3.7883-2.7092-6.9543-6.4126-6.9543-3.8141 0-6.246 3.1092-6.246 6.8408v0.11353c0 3.7315 2.6531 6.8975 6.3573 6.8975 3.8134 0 6.3013-3.11 6.3013-6.7847m-22.829 0v-0.11282c0-8.7069 6.9644-16 16.528-16 9.5615 0 16.472 7.1799 16.472 15.887v0.11353c0 8.7062-6.9651 16-16.583 16-9.5069 0-16.417-7.1799-16.417-15.887"/>
  <path d="m194 51.673h10.448v4.1488c1.9237-2.5229 4.6728-4.8214 8.8518-4.8214 3.9589 0 6.9831 1.794 8.5774 4.9332 2.584-3.0273 5.6075-4.9332 9.9516-4.9332 6.3228 0 10.172 4.0362 10.172 11.1v19.9h-10.447v-16.48c0-3.308-1.5943-5.1021-4.069-5.1021-2.4732 0-4.2883 1.794-4.2883 5.1021v16.48h-10.391v-16.48c0-3.308-1.65-5.1021-4.124-5.1021-2.4747 0-4.2333 1.794-4.2333 5.1021v16.48h-10.448z"/>
  <path d="m262.33 52h10.672l-10.836 30c-2.5719 7.2163-5.363 10-11.274 10-3.6666 0-6.7307-1.0225-9.467-2.6705l3.1737-7.5565c1.6964 1.0225 3.3935 1.6472 4.5422 1.6472 1.0406 0 1.7511-0.2838 2.4624-1.2493l-11.601-30.171h10.836l5.9106 18.522z"/>
 </g>
</svg>
