<svg id="a" width="624.41pt" height="204.29pt" version="1.1" viewBox="0 0 624.41 204.29" xmlns="http://www.w3.org/2000/svg">
 <g id="b" transform="translate(-143.73 -24.656)" fill="#0a0b0f">
  <path id="c" d="m208.8 29.61c18.37-5.84 38.21-6.28 57.04-2.56 15.07 3.44 29.42 10.72 40.21 21.9 2.57 2.73 5.42 5.25 7.6 8.33 4.69 7.5 9.17 15.36 10.98 24.13 1.95 9.72 3.44 19.7 2.32 29.63-1.03 11.58-3.09 23.26-8.12 33.83-6.3 14.28-16.8 26.35-29.03 35.9-3.35 2.4-6.94 4.47-10.16 7.06 6.21 9.52 12.8 18.79 19.5 27.98 1.43 1.66 1.58 3.87 1.77 5.96-5.36 1.9-11.11 1.86-16.66 2.79-5.38 0.89-10.81 1.42-16.23 1.9-8.69 0.7-17.25 2.8-26.01 2.45-1.47-1.87-2.87-3.83-3.79-6.03-2.06-4.91-4.83-9.48-6.99-14.34-1.42-2.8-2.76-5.68-4.66-8.19-3.52-1.23-7.44-0.48-11.12-1.02-10.46-1.28-20.94-3.65-30.37-8.51-5.66-2.74-10.73-6.5-15.78-10.19-6.8-6.61-13.21-13.89-17.42-22.47-5.63-11.19-7.85-23.74-8.15-36.16 0.29-16.28 3.5-32.75 11.27-47.18 11.25-21.2 30.82-38.02 53.8-45.21m16.98-1.74c-15.19 2.61-30.13 8.07-42.48 17.45-17.46 12.89-29.92 32.27-34.6 53.46-4.04 18.1-3.62 37.66 3.66 54.92 3.66 8.1 8.6 15.71 15.27 21.67 12.23 12.44 29.27 19.13 46.36 21.28 4.8 0.86 9.96 0.31 14.57 1.76 4.87 8.91 9.09 18.2 13.77 27.23 0.86 1.68 3.17 0.92 4.68 1.07 6.61-0.61 13.2-1.47 19.78-2.33 9.91-1.65 19.99-2.21 29.91-3.74 1.84-0.11 1.72-1.92 0.64-2.9-5.51-7.55-10.78-15.27-16.03-23.01-1.78-2.73-4.15-5.14-5.17-8.29 20.06-10.81 36.46-28.96 43.6-50.76 2.71-8.63 5.03-17.55 4.89-26.67-0.11-5.6 0.22-11.21-0.22-16.79-1.15-7.65-3.17-15.2-6.4-22.24-7.18-15.57-20.54-27.83-35.97-35.03-17.54-8.03-37.33-9.23-56.26-7.08z"/>
  <path id="d" d="m400.94 26.18c8.29-1.37 16.73-0.96 25.1-0.84 16.72 0.78 33.15 6.61 46.76 16.35 0.04-3.28-0.91-6.41-1.43-9.61-0.44-2.09 1.56-3.77 3.56-3.48 18.71 0.02 37.42 0.03 56.13 0 1.45-0.03 3.04 0.01 4.12 1.16 0.61 1.67 0.52 3.5 0.81 5.23 1.87 12.24 2.86 24.6 4.47 36.87 1.5 10.74 2.18 21.57 3.17 32.36 2.98-5.72 4.98-11.9 7.74-17.74 8.07-18.22 16.6-36.24 24.75-54.42 0.68-1.61 1.79-3.6 3.83-3.43 21.36-0.01 42.72-0.04 64.07 0.01 2.99 0.14 3.27 3.53 1.6 5.4-17.04 32.27-35.14 63.99-52.52 96.08-10.47 18.9-20.92 37.82-31.29 56.77-1.88 3.09-3.02 6.9-5.98 9.15-3.9 0.7-7.89 0.27-11.83 0.34-14.37-0.18-28.76 0.38-43.11-0.42l-0.93-0.04c-1-2.88-1.65-5.86-1.96-8.89-5.56-32.29-11.05-64.59-16.55-96.89-0.72-5.05-2.01-10.02-2.43-15.12-1.34-6.23-2.27-12.54-3.9-18.7-4.64 6.52-8.15 13.75-12.3 20.57-2.71 4.24-4.42 9.3-8.25 12.71-2 0.42-3.59-1.07-5.05-2.16-6.97-5.72-14.6-11-23.33-13.6-3.43-0.92-7.55-1.53-10.61 0.7-1.8 1.14-2.03 3.89-0.52 5.36 2.05 2.23 4.74 3.75 7.38 5.16 11.48 5.21 23.65 9.75 33.07 18.44 2.82 2.8 5.77 5.53 8.11 8.75 3.2 6.82 6.25 14.01 6.08 21.7 0.67 10.59-0.95 21.45-5.89 30.93-9.82 17.47-27.75 29.87-47.39 33.56-19.67 3.78-40.5 1.88-59.04-5.81-10.55-4.08-20.25-10.04-29.15-16.99-2.37-1.9-4.76-3.83-6.72-6.16-0.99-2.25 0.84-4.21 1.98-5.95 8.35-11.7 16.5-23.53 24.65-35.37 1.25-1.98 2.97-3.58 4.86-4.96 3.41 2.85 6.14 6.41 9.52 9.31 7.04 6.93 15.73 12.36 25.36 14.79 4.78 1.63 10.51 2.37 14.98-0.48 1.58-0.75 2.1-3.03 0.64-4.18-2.84-2.85-6.71-4.29-10.34-5.84-10.99-4.27-21.81-9.47-30.79-17.23-7.92-7.29-14.02-17.06-14.83-27.99-0.34-8.61-0.74-17.53 2.38-25.73 7.19-21.88 28.73-36.69 51.02-39.67m-35.87 19.89c-10.43 10-16.2 24.52-15.74 38.94-0.37 10.8 3.76 21.61 11.28 29.38 10.25 10.95 24.56 16.48 38.16 21.99 3.5 1.8 8.55 4.54 7.82 9.2-1.47 2.81-4.38 4.57-7.54 4.69-10.5 1-20.95-2.88-29.46-8.84-6.4-4.02-11.29-9.87-16.68-15.08-2.92 2.69-4.95 6.13-7.21 9.35-6.87 10.42-14.25 20.49-21.27 30.79-2.2 2.64 1.79 4.2 3.38 5.71 17.21 13.74 38.07 23.42 60.14 25.44 10.72 0.16 21.68 0.64 32.08-2.54 17.17-4.61 33.19-15.7 41.5-31.68 4.85-8.57 6.18-18.69 5.84-28.4-0.2-10.5-4.21-21.17-11.96-28.43-8.85-8.67-20.58-13.36-31.71-18.36-4.54-2.08-9.4-4.36-12.19-8.71-1.35-4.23 2.49-8.19 6.5-8.72 3.44-0.39 7.01-0.19 10.3 0.99 9.33 3.15 17.45 9.03 24.8 15.46 1.06-1.02 2.1-2.09 2.82-3.39 5.55-9.75 11.23-19.42 16.69-29.22 1.09-2.03 2.41-3.94 3.97-5.65 2.64 12.47 3.93 25.18 6.64 37.63 5.79 35.78 12.33 71.43 18.11 107.21 4.52 0.67 9.1 0.37 13.66 0.4 11.67 0.01 23.35-0.03 35.02 0.04 2.17-0.1 5.15 0.29 6.05-2.26 28.9-52.7 58.01-105.3 86.97-157.97 0.42-1.01 0.79-2.05 1.11-3.1-19.69-0.63-39.43-0.04-59.15-0.3-2.2 0.25-5.55-0.75-6.5 1.98-7.75 16.88-15.37 33.83-23.24 50.66-3.93 9.3-8.09 18.51-10.93 28.22-0.94 2.17-0.85 5.06-2.91 6.55 0.33-9.29-0.58-18.53-1.04-27.8-2.22-19.31-4.81-38.57-6.89-57.89-0.1-2.27-2.99-1.42-4.45-1.7-18.42 0.18-36.86-0.25-55.27 0.21 0.51 5.13 2.01 10.13 2.06 15.3-6.11-3.05-11.39-7.61-17.68-10.4-12.55-5.63-26.35-8.96-40.15-8.46-19.07-0.73-39.15 5.09-52.93 18.76z"/>
  <path id="e" d="m653.95 43.49c11.64-11.4 27.99-17.26 44.09-18.13 12.12-0.35 24.53-0.57 36.23 3.09 10.11 2.56 19.59 7.25 28.1 13.24 2.04 1.66 4.68 2.99 5.77 5.52-0.44 4.4-3.29 7.93-5.36 11.66-5.08 8.9-10.4 17.66-15.27 26.68-1.12 1.89-2.68 4.76-5.33 3.6-7.31-3.48-12.8-9.91-20.32-13.02-4.55-1.87-9.52-3.87-14.51-2.76-2.15 0.53-5.02 2.49-3.76 5.04 1.69 3.15 5.07 4.88 8.1 6.52 14.44 6.35 29.91 12.58 39.91 25.41 7.48 10.6 8.74 24.12 7.17 36.66-1.47 12.76-8.04 24.68-17.54 33.24-11.74 11.64-27.87 18.07-44.18 19.57-19.1 1.84-38.81-1.26-56.06-9.8-8.14-3.83-15.76-8.68-22.91-14.11-2.3-2.06-4.92-3.83-6.86-6.25-1.47-1.45 0.3-3.16 0.96-4.51 8.6-12.69 17.57-25.13 26.05-37.91 1.04-1.51 2.45-2.7 3.78-3.96 4.03 2.09 6.16 6.32 9.74 8.98 9.13 9.04 21.21 15.86 34.31 16.07 2.34-0.06 4.54-1 6.53-2.18 0.35-0.19 1.04-0.57 1.38-0.76-0.15-3.43-3.6-4.86-6.2-6.25-6.16-2.96-12.63-5.19-18.74-8.23-5.31-2.44-9.98-5.99-14.85-9.16-8.98-7.72-16.43-18.36-17.06-30.53-0.54-12.05 0.45-24.79 6.7-35.41 2.7-4.62 6.65-8.3 10.13-12.31m31.62-14.06c-15.98 3.25-30.14 13.31-39.3 26.69-7.92 14.38-10.38 32.61-3.3 47.81 4.98 10.9 15.08 18.36 25.47 23.69 7.61 4.39 16.33 6.45 23.75 11.2 1.77 1.26 4.15 2.67 4.02 5.18 0.16 3.38-3.33 5.48-6.25 6.06-8.58 1.4-17.4-0.93-24.93-5.05-9.02-4.44-16.14-11.74-22.84-19.05-9.11 12.71-17.73 25.76-26.79 38.51-0.97 1.29-1.72 2.73-2.34 4.22 4.88 3.91 9.86 7.69 14.99 11.28 14.71 9.46 31.52 15.92 49 17.61 5.31 0.26 10.65 0.14 15.97 0.09 12.1-0.62 24.13-3.89 34.6-10.06 12.54-7.72 23.3-19.34 27.27-33.79 2.47-7.66 2.07-15.82 1.66-23.74-1.06-7.51-4.07-14.82-8.92-20.68-6.64-7.85-15.98-12.72-25.14-17.04-6.83-3.19-14.39-5.5-19.92-10.87-2.77-2.69-2.08-7.74 1.39-9.49 4.42-2.07 9.64-1.59 14.16-0.08 7.84 2.81 14.97 7.33 21.29 12.71 1.21 1.08 2.63 1.9 4.23 2.29 6.96-12.12 13.85-24.28 20.99-36.29 0.42-1.12 1.89-2.8 0.51-3.78-14.09-11.63-32-18.06-50.1-19.5-9.85 0.05-19.88-0.72-29.47 2.08z"/>
  <path id="f" d="m232.43 81.67c5.98-0.73 12.37-0.68 17.86 2.11 9.31 4.53 15.85 14.75 15.19 25.22 0.47 8.3-2.04 16.7-7.28 23.19-6.94 9.82-19.88 14.82-31.61 12.24-5.68-0.94-11.04-3.82-14.61-8.37-6.48-7.32-7.39-17.79-6.01-27.08 2.19-13.31 13.12-24.87 26.46-27.31m-7.5 5.23c-11.71 5.8-18.22 19.38-17.23 32.14 0.99 7.93 4.56 16.34 11.9 20.32 9.7 5.2 22.38 4.11 30.96-2.81 9.38-7.29 14.25-19.87 12.47-31.57-0.76-3.14-1.33-6.73-3.76-9.05-0.33-2.84-2.91-4.54-4.82-6.36-7.97-7.09-20.28-7.43-29.52-2.67z"/>
 </g>
 <g id="g" transform="translate(-143.73 -24.656)" fill="#cc0001">
  <path id="h" d="m225.78 27.87c18.93-2.15 38.72-0.95 56.26 7.08 15.43 7.2 28.79 19.46 35.97 35.03 3.23 7.04 5.25 14.59 6.4 22.24 0.44 5.58 0.11 11.19 0.22 16.79 0.14 9.12-2.18 18.04-4.89 26.67-7.14 21.8-23.54 39.95-43.6 50.76 1.02 3.15 3.39 5.56 5.17 8.29 5.25 7.74 10.52 15.46 16.03 23.01 1.08 0.98 1.2 2.79-0.64 2.9-9.92 1.53-20 2.09-29.91 3.74-6.58 0.86-13.17 1.72-19.78 2.33-1.51-0.15-3.82 0.61-4.68-1.07-4.68-9.03-8.9-18.32-13.77-27.23-4.61-1.45-9.77-0.9-14.57-1.76-17.09-2.15-34.13-8.84-46.36-21.28-6.67-5.96-11.61-13.57-15.27-21.67-7.28-17.26-7.7-36.82-3.66-54.92 4.68-21.19 17.14-40.57 34.6-53.46 12.35-9.38 27.29-14.84 42.48-17.45m6.65 53.8c-13.34 2.44-24.27 14-26.46 27.31-1.38 9.29-0.47 19.76 6.01 27.08 3.57 4.55 8.93 7.43 14.61 8.37 11.73 2.58 24.67-2.42 31.61-12.24 5.24-6.49 7.75-14.89 7.28-23.19 0.66-10.47-5.88-20.69-15.19-25.22-5.49-2.79-11.88-2.84-17.86-2.11z"/>
  <path id="i" d="m365.07 46.07c13.78-13.67 33.86-19.49 52.93-18.76 13.8-0.5 27.6 2.83 40.15 8.46 6.29 2.79 11.57 7.35 17.68 10.4-0.05-5.17-1.55-10.17-2.06-15.3 18.41-0.46 36.85-0.03 55.27-0.21 1.46 0.28 4.35-0.57 4.45 1.7 2.08 19.32 4.67 38.58 6.89 57.89 0.46 9.27 1.37 18.51 1.04 27.8 2.06-1.49 1.97-4.38 2.91-6.55 2.84-9.71 7-18.92 10.93-28.22 7.87-16.83 15.49-33.78 23.24-50.66 0.95-2.73 4.3-1.73 6.5-1.98 19.72 0.26 39.46-0.33 59.15 0.3-0.32 1.05-0.69 2.09-1.11 3.1-28.96 52.67-58.07 105.27-86.97 157.97-0.9 2.55-3.88 2.16-6.05 2.26-11.67-0.07-23.35-0.03-35.02-0.04-4.56-0.03-9.14 0.27-13.66-0.4-5.78-35.78-12.32-71.43-18.11-107.21-2.71-12.45-4-25.16-6.64-37.63-1.56 1.71-2.88 3.62-3.97 5.65-5.46 9.8-11.14 19.47-16.69 29.22-0.72 1.3-1.76 2.37-2.82 3.39-7.35-6.43-15.47-12.31-24.8-15.46-3.29-1.18-6.86-1.38-10.3-0.99-4.01 0.53-7.85 4.49-6.5 8.72 2.79 4.35 7.65 6.63 12.19 8.71 11.13 5 22.86 9.69 31.71 18.36 7.75 7.26 11.76 17.93 11.96 28.43 0.34 9.71-0.99 19.83-5.84 28.4-8.31 15.98-24.33 27.07-41.5 31.68-10.4 3.18-21.36 2.7-32.08 2.54-22.07-2.02-42.93-11.7-60.14-25.44-1.59-1.51-5.58-3.07-3.38-5.71 7.02-10.3 14.4-20.37 21.27-30.79 2.26-3.22 4.29-6.66 7.21-9.35 5.39 5.21 10.28 11.06 16.68 15.08 8.51 5.96 18.96 9.84 29.46 8.84 3.16-0.12 6.07-1.88 7.54-4.69 0.73-4.66-4.32-7.4-7.82-9.2-13.6-5.51-27.91-11.04-38.16-21.99-7.52-7.77-11.65-18.58-11.28-29.38-0.46-14.42 5.31-28.94 15.74-38.94z"/>
  <path id="j" d="m685.57 29.43c9.59-2.8 19.62-2.03 29.47-2.08 18.1 1.44 36.01 7.87 50.1 19.5 1.38 0.98-0.09 2.66-0.51 3.78-7.14 12.01-14.03 24.17-20.99 36.29-1.6-0.39-3.02-1.21-4.23-2.29-6.32-5.38-13.45-9.9-21.29-12.71-4.52-1.51-9.74-1.99-14.16 0.08-3.47 1.75-4.16 6.8-1.39 9.49 5.53 5.37 13.09 7.68 19.92 10.87 9.16 4.32 18.5 9.19 25.14 17.04 4.85 5.86 7.86 13.17 8.92 20.68 0.41 7.92 0.81 16.08-1.66 23.74-3.97 14.45-14.73 26.07-27.27 33.79-10.47 6.17-22.5 9.44-34.6 10.06-5.32 0.05-10.66 0.17-15.97-0.09-17.48-1.69-34.29-8.15-49-17.61-5.13-3.59-10.11-7.37-14.99-11.28 0.62-1.49 1.37-2.93 2.34-4.22 9.06-12.75 17.68-25.8 26.79-38.51 6.7 7.31 13.82 14.61 22.84 19.05 7.53 4.12 16.35 6.45 24.93 5.05 2.92-0.58 6.41-2.68 6.25-6.06 0.13-2.51-2.25-3.92-4.02-5.18-7.42-4.75-16.14-6.81-23.75-11.2-10.39-5.33-20.49-12.79-25.47-23.69-7.08-15.2-4.62-33.43 3.3-47.81 9.16-13.38 23.32-23.44 39.3-26.69z"/>
 </g>
</svg>
