<svg id="a" width="925.7pt" height="163.08pt" version="1.1" viewBox="0 0 925.7 163.08" xmlns="http://www.w3.org/2000/svg">
 <path id="b" d="m48.615 7.4e-4 321.83-7.4e-4 132.28 54.38 118.91 54.506 6.165 1.292 19.425 49.253-6.4203 3.6473-602.66-0.25051-38.14-108.45 67.795 5e-5 -19.18-54.38m19.31 54.38"/>
 <g id="c" transform="translate(-18.05 -145.66)">
  <path id="d" transform="scale(.75)" d="m1076.9 266.72-224.02 72.675 25.559 72.256 379.86-0.33417-51.135-144.6z" fill="#e5503a" stroke-width="1.3333"/>
 </g>
 <g id="e" transform="translate(-18.05 -145.66)">
  <path id="f" d="m388.5 145.66 309.52 3.4e-4 18.92 54.38-2.5626 2.882-190.29-0.0978-3.3086-2.7842h-113.19z" fill="#fef200"/>
 </g>
 <g id="g" transform="translate(-18.053 -145.66)">
  <path id="h" transform="scale(.75)" d="m691.89 269.11 24.412 68.476 3.6112 1.812 382.87 1e-5 7.6977-0.981-27.89-70.183-5.6731-1.5107-382.55 1e-5z" fill="#ed008c" stroke-width="1.3333"/>
 </g>
 <path id="i" d="m699.01 54.38h85.09l3.7e-4 19.636h-32.385v88.812h-20.455v-88.812h-32.25z"/>
 <path id="j" d="m789.64 54.38h21.54l27.25 79.14 27.41-79.14h21.51l-38.75 108.45h-20.36z"/>
 <g id="k" transform="translate(-18.05 -258.24)" fill="#fff">
  <path id="l" d="m85.845 312.62h13.836c4.3356-0.018 8.6845 1.4269 12.041 4.1894 3.2132 2.5638 5.6499 6.1809 6.4665 10.242 0.79438 3.9718 0.51546 8.2382-1.2005 11.942-1.8721 4.05-5.2772 7.3792-9.3986 9.1018l9.5146 19.03h-11.567l-8.6154-17.24h-11.075v-9.9888h13.84c2.1778-0.011 4.3244-0.97286 5.7659-2.6108 3.0793-3.1485 3.1552-8.6845 0.16958-11.922-1.5196-1.7785-3.8201-2.8539-6.1675-2.8138h-13.608z" stroke-width=".22314"/>
  <path id="m" d="m141.43 312.62h11.423l19.161 54.506h-11.209l-3.4064-9.8702h-20.51l-3.4086 9.8702h-11.233l19.183-54.506m5.4462 12.39-6.3958 22.274h13.318l-6.3981-22.274z" stroke-width=".22293"/>
  <path id="n" d="m177.11 312.62h22.137c8.1258 0.48823 15.819 4.9926 20.418 11.68 2.557 3.6226 4.0105 7.9631 4.4162 12.364 0.44586 5.036-0.11814 10.25-2.2583 14.872-3.4665 7.4614-10.565 13.133-18.608 14.865-1.8837 0.44143-3.8143 0.65869-5.7449 0.72559h-20.36v-54.506m10.367 9.8134v34.77h8.6441c2.6818-0.036 5.3838-0.57631 7.7736-1.8269 3.5468-1.8659 6.4694-4.9357 8.0946-8.6073 1.4936-3.4331 1.7656-7.35 0.9586-10.993-0.87611-3.8811-3.2458-7.3366-6.3557-9.7844-2.8134-2.2784-6.4114-3.539-10.027-3.5591z" stroke-width=".22293"/>
  <path id="o" d="m230.65 312.62h10.357v54.506h-10.357z" stroke-width=".2229"/>
  <path id="p" d="m273.95 312.67c3.771-0.17645 7.6024 0.0871 11.204 1.2861 4.1662 1.3083 7.9484 3.7107 11.032 6.7896 2.6681 2.6168 4.8293 5.7783 6.1489 9.2836 1.1297 2.9181 1.6388 6.0484 1.7192 9.1675 0.0671 3.5589-0.44208 7.1558-1.7192 10.491-1.2704 3.3601-3.2888 6.4324-5.8385 8.9598-2.3443 2.4248-5.1174 4.4565-8.1762 5.8854-3.2441 1.5294-6.803 2.3533-10.38 2.5386-4.7177 0.27017-9.5358-0.44872-13.852-2.418-4.039-1.8263-7.5577-4.7043-10.333-8.1448-2.8132-3.4875-4.6485-7.7408-5.2915-12.173-0.65642-4.5949-0.34383-9.3685 1.1878-13.767 2.4738-6.9393 8.0355-12.619 14.72-15.618 3.0186-1.3329 6.2873-2.0787 9.5783-2.2818m-0.78144 9.5291c-7.5286 1.1789-13.749 7.8703-14.557 15.419-0.46663 3.9318 0.26569 8.0601 2.3354 11.465 1.7728 2.8959 4.3225 5.3474 7.3545 6.8991 3.3535 1.6946 7.2585 2.121 10.942 1.5138 7.3835-1.2057 13.463-7.7453 14.316-15.149 0.39519-3.3647 0.0245-6.8723-1.4178-9.9623-1.4512-3.1503-3.8447-5.843-6.7294-7.7564-3.5768-2.3354-8.0556-3.108-12.244-2.4292z" stroke-width=".22327"/>
  <path id="q" d="m323.74 312.62h10.357v54.506h-10.357z" stroke-width=".2229"/>
  <path id="r" d="m339.45 312.62h42.756v9.8097h-16.162v44.697h-10.431v-44.697h-16.164z" stroke-width=".22295"/>
  <path id="s" d="m396.16 312.62h11.423l19.161 54.506h-11.209l-3.4064-9.8702h-20.51l-3.4086 9.8702h-11.233l19.183-54.506m5.4462 12.39-6.3958 22.274h13.318l-6.3981-22.274z" stroke-width=".22293"/>
  <path id="t" d="m431.68 312.62h10.363v44.585h27.256v9.9208h-37.619z" stroke-width=".22292"/>
  <path id="u" d="m474.5 312.62h10.357v54.506h-10.357z" stroke-width=".2229"/>
  <path id="v" d="m509.35 312.62h11.423l19.161 54.506-11.209 1e-5 -3.4064-9.8702h-20.51l-3.4086 9.8702h-11.233l19.183-54.506m5.4462 12.39-6.3958 22.274h13.318l-6.3981-22.274z" stroke-width=".22293"/>
  <path id="w" d="m553.5 312.62h13.836c4.3356-0.018 8.6845 1.427 12.041 4.1894 3.2132 2.5639 5.6499 6.181 6.4666 10.242 0.79437 3.9718 0.51543 8.2383-1.2005 11.942-1.8721 4.0499-5.2772 7.3792-9.3986 9.1018l9.5146 19.03h-11.567l-8.6154-17.24h-11.075v-9.9888h13.84c2.1778-0.011 4.3244-0.97289 5.7659-2.6107 3.0793-3.1485 3.1552-8.6845 0.16958-11.922-1.5196-1.7784-3.8201-2.8539-6.1676-2.8138h-13.608z" stroke-width=".22314"/>
  <path id="x" d="m609.1 312.62h11.423l19.161 54.506h-11.209l-3.4064-9.8701h-20.51l-3.4086 9.8701h-11.233l19.183-54.506m5.4462 12.391-6.3959 22.274h13.318l-6.3981-22.274z" stroke-width=".22293"/>
  <path id="y" d="m643.08 312.62h25.995c4.002 0 9.59 2.9441 12.534 6.5191 4.2059 4.5464 5.3775 11.296 3.8554 17.194-2.0529 7.2402-8.9125 12.943-16.473 13.314h-15.577v17.479l-10.334 1e-5v-54.506m10.334 27.368c10.709 0 14.011 0.25102 16.999-0.83117 6.7795-2.7639 6.419-13.909-0.5708-16.123-2.0092-0.70671-6.314-0.66095-16.428-0.66095z" stroke-width="1.0014"/>
 </g>
</svg>
