<svg width="1007.7pt" height="163.08pt" version="1.1" viewBox="0 0 1007.7 163.08" xmlns="http://www.w3.org/2000/svg">
 <path d="m48.61 0.0029 321.83-7.4e-4 132.28 54.38 118.91 54.506 6.165 1.292 19.425 49.253-6.4203 3.6473-602.66-0.25051-38.14-108.45 67.795 5e-5 -19.18-54.38m19.31 54.38"/>
 <path d="m866.13 54.382-244.53 54.506 19.169 54.192 366.93-0.25062-38.351-108.45z" fill="#e5503a" stroke-width=".99997"/>
 <g transform="translate(-18.055 -145.66)">
  <path d="m388.5 145.66 309.52 3.4e-4 18.92 54.38-2.5626 2.882-190.29-0.0978-3.3086-2.7842h-113.19z" fill="#fef200"/>
 </g>
 <g transform="translate(-18.058 -145.66)">
  <path transform="scale(.75)" d="m691.89 269.11 24.412 68.476 3.6112 1.812 382.87 1e-5 7.6977-0.981-27.89-70.183-5.6731-1.5107-382.55 1e-5z" fill="#ed008c" stroke-width="1.3333"/>
 </g>
 <g transform="translate(-.0047 .00216)">
  <path d="m781.05 54.38h85.09l3.2e-4 19.636h-32.385v88.812h-20.455v-88.812h-32.25z"/>
  <path d="m871.68 54.38h21.54l27.25 79.14 27.41-79.14h21.51l-38.75 108.45h-20.36z"/>
 </g>
 <g transform="translate(-.0047 .00216)" fill="#fff">
  <path d="m67.795 54.38h13.836c4.3356-0.018 8.6845 1.4269 12.041 4.1894 3.2132 2.5638 5.6499 6.1809 6.4665 10.242 0.79438 3.9718 0.51546 8.2382-1.2005 11.942-1.8721 4.05-5.2772 7.3792-9.3986 9.1018l9.5146 19.03h-11.567l-8.6154-17.24h-11.075v-9.9888h13.84c2.1778-0.011 4.3244-0.97286 5.7659-2.6108 3.0793-3.1485 3.1552-8.6845 0.16958-11.922-1.5196-1.7785-3.8201-2.8539-6.1675-2.8138h-13.608z" stroke-width=".22314"/>
  <path d="m123.38 54.38h11.423l19.161 54.506h-11.209l-3.4064-9.8702h-20.51l-3.4086 9.8702h-11.233l19.183-54.506m5.4462 12.39-6.3958 22.274h13.318l-6.3981-22.274z" stroke-width=".22293"/>
  <path d="m159.06 54.38h22.137c8.1258 0.48823 15.819 4.9926 20.418 11.68 2.557 3.6226 4.0105 7.9631 4.4162 12.364 0.44586 5.036-0.11814 10.25-2.2583 14.872-3.4665 7.4614-10.565 13.133-18.608 14.865-1.8837 0.44143-3.8143 0.65869-5.7449 0.72559h-20.36v-54.506m10.367 9.8134v34.77h8.6441c2.6818-0.036 5.3838-0.57631 7.7736-1.8269 3.5468-1.8659 6.4694-4.9357 8.0946-8.6073 1.4936-3.4331 1.7656-7.35 0.9586-10.993-0.87611-3.8811-3.2458-7.3366-6.3557-9.7844-2.8134-2.2784-6.4114-3.539-10.027-3.5591z" stroke-width=".22293"/>
  <path d="m212.6 54.38h10.357v54.506h-10.357z" stroke-width=".2229"/>
  <path d="m258.05 54.38a27.96 27.253 0 0 0-27.959 27.253 27.96 27.253 0 0 0 27.959 27.253 27.96 27.253 0 0 0 27.961-27.253 27.96 27.253 0 0 0-27.961-27.253zm0 9.356a17.616 17.898 0 0 1 17.616 17.897 17.616 17.898 0 0 1-17.616 17.897 17.616 17.898 0 0 1-17.615-17.897 17.616 17.898 0 0 1 17.615-17.897z" style="paint-order:stroke fill markers"/>
  <path d="m305.69 54.38h10.357v54.506h-10.357z" stroke-width=".2229"/>
  <path d="m321.4 54.38h42.756v9.8097h-16.162v44.697h-10.431v-44.697h-16.164z" stroke-width=".22295"/>
  <path d="m378.11 54.38h11.423l19.161 54.506h-11.209l-3.4064-9.8702h-20.51l-3.4086 9.8702h-11.233l19.183-54.506m5.4462 12.39-6.3958 22.274h13.318l-6.3981-22.274z" stroke-width=".22293"/>
  <path d="m413.63 54.38h10.363v44.585h27.256v9.9208h-37.619z" stroke-width=".22292"/>
  <path d="m456.45 54.38h10.357v54.506h-10.357z" stroke-width=".2229"/>
  <path d="m491.3 54.38h11.423l19.161 54.506-11.209 1e-5 -3.4064-9.8702h-20.51l-3.4086 9.8702h-11.233l19.183-54.506m5.4462 12.39-6.3958 22.274h13.318l-6.3981-22.274z" stroke-width=".22293"/>
  <path d="m580.97 54.38h13.836c4.3356-0.018 8.6845 1.4269 12.041 4.1894 3.2132 2.5638 5.6499 6.1809 6.4665 10.242 0.79438 3.9718 0.51546 8.2382-1.2005 11.942-1.8721 4.05-5.2772 7.3792-9.3986 9.1018l9.5146 19.03h-11.567l-8.6154-17.24h-11.075v-9.9888h13.84c2.1778-0.011 4.3244-0.97286 5.7659-2.6108 3.0793-3.1485 3.1552-8.6845 0.16958-11.922-1.5196-1.7785-3.8201-2.8539-6.1675-2.8138h-13.608z" stroke-width=".22314"/>
  <path d="m718 54.38h22.137c8.1258 0.48823 15.819 4.9926 20.418 11.68 2.557 3.6226 4.0105 7.9631 4.4162 12.364 0.44586 5.036-0.11814 10.25-2.2583 14.872-3.4665 7.4614-10.565 13.133-18.608 14.865-1.8837 0.44143-3.8143 0.65869-5.7449 0.72559h-20.36v-54.506m10.367 9.8134v34.77h8.6441c2.6818-0.036 5.3838-0.57631 7.7736-1.8269 3.5468-1.8659 6.4694-4.9357 8.0946-8.6073 1.4936-3.4331 1.7656-7.35 0.9586-10.993-0.8761-3.8811-3.2458-7.3366-6.3557-9.7844-2.8134-2.2784-6.4114-3.539-10.027-3.5591z" stroke-width=".22293"/>
  <path d="m531.32 54.38h42.756v9.81h-16.162v44.697h-10.431v-44.697h-16.164z" stroke-width=".22295"/>
  <path d="m660.65 54.38v9.9006h-29.552v12.403h24.504v10.074h-24.504v12.081h29.511v10.049h-39.655v-54.507z" stroke-width="1.6425"/>
  <path d="m667.24 54.314 10.495 0.0497 21.637 36.145 0.0653-36.145 10.324-2.7e-4 0.0163 54.458h-10.52l-21.335-36.129v36.129h-10.634z" stroke-width="1.6409"/>
 </g>
</svg>
