<?xml version="1.0" encoding="UTF-8"?>
<svg id="svg86" width="1816.3pt" height="394.88pt" version="1.1" viewBox="0 0 1816.3 394.88" xmlns="http://www.w3.org/2000/svg" xmlns:cc="http://creativecommons.org/ns#" xmlns:dc="http://purl.org/dc/elements/1.1/" xmlns:rdf="http://www.w3.org/1999/02/22-rdf-syntax-ns#">
 <metadata id="metadata92">
  <rdf:RDF>
   <cc:Work rdf:about="">
    <dc:format>image/svg+xml</dc:format>
    <dc:type rdf:resource="http://purl.org/dc/dcmitype/StillImage"/>
    <dc:title/>
   </cc:Work>
  </rdf:RDF>
 </metadata>
 <g id="#666666ff" transform="translate(-49.565 -43.318)" fill="#cacaca">
  <path id="path25" d="m243.13 45.09c3.84-2.8 9.4-2.13 12.88 0.94 3.61 3.21 6.12 7.42 8.39 11.63 7.04 14.71 15.02 28.95 22.64 43.37l156.34 282.63c5.14 8.87 10.7 18.03 11.38 28.54 0.98 8.53-3.18 17.61-10.82 21.77-1.76 1.26-4 0.93-6.02 0.98-24.86-0.22-49.73 0.15-74.59-0.28 5.6-7.25 7.15-16.74 7.26-25.68-0.19-4.86-0.6-9.82-2.21-14.43-48.9-93.73-97.83-187.44-146.76-281.16-2.66-5.53-5.97-10.73-8.33-16.4 5.09-9.9 9.83-19.98 14.73-29.97 3.97-7.91 7.47-16.79 15.11-21.94z"/>
  <path id="path27" d="m594.11 310.57c7.61 0.17 15.22 0.18 22.83 0.03 0.05 41.1-0.11 82.2-0.18 123.3-7.64 0.25-15.28 0.06-22.92 0.03 0.13-41.12 0.06-82.24 0.27-123.36z"/>
  <path id="path29" d="m639.06 433.94c-0.07-41.11 0.07-82.23 0.2-123.34 7.36 0.08 14.73 0.19 22.1-0.01 12.63 21.81 24.66 43.99 37.19 65.86 3.05 5.51 5.95 11.12 9.42 16.38-0.13-27.37 0.02-54.75 0.07-82.13 7.12 0.08 14.24 0.13 21.36 0-0.41 41.2 0.21 82.43-0.56 123.61-7.7-0.52-15.45 0.39-23.12-0.53-14.85-26.77-30.06-53.33-45.17-79.95-0.29 26.68-0.19 53.38-0.17 80.07-7.11 0.22-14.22 0.11-21.32 0.04z"/>
  <path id="path31" d="m1472.2 311.27c10.24-1.29 20.95-0.77 30.65 3.03 14.04 4.97 24.78 17.21 29.64 31.1 4.91 13.61 5.43 28.49 3.71 42.75-1.8 14.58-8.05 29.2-19.69 38.58-10.23 8.79-24.22 12.1-37.46 11.37-10.02-0.24-20.05-3.13-28.35-8.83-10.37-7.07-17.51-18.22-20.83-30.21-3.6-13.03-3.65-26.81-1.83-40.13 2.02-14.86 9.3-29.36 21.36-38.55 6.55-5.12 14.63-7.94 22.8-9.11m5.01 21c-6.25 0.85-12.24 3.83-16.46 8.55-6.15 6.08-8.49 14.84-9.66 23.15-1.17 11.2-0.83 22.86 3.21 33.5 2.48 5.79 6.23 11.25 11.65 14.66 8.26 5.67 19.52 6.29 28.56 2.13 7.25-3.41 12.52-10.09 15.33-17.47 3.58-9.8 3.95-20.45 3.21-30.75-0.9-8.82-3.02-18.14-9.21-24.83-6.43-7.55-17.03-10.46-26.63-8.94z"/>
  <path id="path33" d="m745.75 311.68c30.09 0 60.19 0.01 90.28 0.18-0.05 6.93 0.11 13.86-0.14 20.78-11.16 0.03-22.33 0.1-33.5-0.11-0.07 34.21-0.19 68.42-0.13 102.63-7.66-0.14-15.32-0.07-22.97-0.12-0.03-34.17 0.14-68.33 0.15-102.5-11.24 0.04-22.49 0.03-33.73-0.06 0.05-6.94 0.05-13.87 0.04-20.8z"/>
  <path id="path35" d="m851.12 311.72c28.08-0.09 56.15 0.06 84.23 0.09 0.01 6.94-0.1 13.88 0.04 20.82-20.44 0.12-40.88-0.07-61.33-0.1-0.13 9.13-0.03 18.27-0.06 27.41 19-0.03 38 0.06 57 0.06-0.03 6.9 0.08 13.81-0.09 20.71-19.02 0.06-38.03 0.03-57.05-0.06-0.03 11.18 0.29 22.37-0.19 33.54 21.25 0.29 42.51-0.06 63.77 0.27-0.17 6.93-0.09 13.87-0.15 20.8-28.81-0.4-57.62 0.08-86.43-0.38 0.16-41.05 0.12-82.11 0.26-123.16z"/>
  <path id="path37" d="m957.11 434.96c0.11-41.1 0.09-82.2 0.28-123.29 18.19 0.07 36.38-0.09 54.56 0.19 9.72 0.42 20.49 1.28 28.01 8.22 7.14 6.9 10.41 17.12 10.17 26.91 0.12 9.21-3.18 18.75-10.12 25.02-5.39 5.01-12.55 7.69-19.77 8.56 5.22 3.72 10.48 7.63 14.15 13 9.3 13.22 16.67 27.64 24.79 41.59-8.73 0.13-17.46-0.03-26.19-0.05-1.49 0.13-2-1.63-2.75-2.56-7.06-11.25-13.75-22.74-21.02-33.87-3.06-4.75-6.11-9.91-11.08-12.89-5.53-2.81-11.99-2.06-17.98-2.18 0.04 17.09-0.2 34.19-0.01 51.28-7.68 0.31-15.36 0.18-23.04 0.07m23.09-102.41c0.01 10.44 0.01 20.88 0 31.32 10.91-0.08 21.86 0.43 32.74-0.54 4.61-0.31 9.61-2.35 11.68-6.76 2.95-6.09 2.74-14.14-1.64-19.5-3.11-3.21-7.72-4.28-12.04-4.33-10.25-0.18-20.49-0.18-30.74-0.19z"/>
  <path id="path39" d="m1072.2 435.02c0.15-41.13 0.17-82.25 0.23-123.38 7.48 0.09 14.97-0.08 22.45 0.14 15.16 27.56 31.03 54.73 46.02 82.38 0.54-27.44 0.17-54.9 0.33-82.35 7.12-0.04 14.24-0.09 21.36 0.08-0.18 41.15-0.06 82.3-0.25 123.45-7.61-0.31-15.22-0.25-22.83-0.14-15.4-26.84-30.74-53.73-45.8-80.77-0.24 26.93 0.08 53.86-0.28 80.79-7.08-0.37-14.16-0.05-21.23-0.2z"/>
  <path id="path41" d="m1175.5 435.03c14.48-41.19 29.49-82.19 44.32-123.26 8.07-0.08 16.15-0.08 24.24 0.04 14.99 41.19 30.43 82.22 45.12 123.51-8.3-0.23-16.61-0.1-24.91-0.24-3.03-9.37-6.57-18.57-9.73-27.89-15.18-0.16-30.36-0.23-45.54-0.05-3.02 9.31-6.33 18.54-9.23 27.9-8.09 0.07-16.18-0.07-24.27-0.01m40.74-48.9c10.26 0.26 20.53 0.13 30.8 0.14-4.84-15.39-10.5-30.52-15.29-45.92-5.42 15.17-10.25 30.55-15.51 45.78z"/>
  <path id="path43" d="m1282.1 312.57c30.07 0.15 60.16 0.29 90.24 0.12 0.05 6.97-0.09 13.95 0.01 20.93-11.23 0.14-22.46-0.09-33.68-0.02-0.01 34.15-0.07 68.3-0.15 102.45-7.68 0-15.36 0.23-23.02-0.2 0.26-34.09 0.12-68.17 0.3-102.26-11.21-0.03-22.4-0.08-33.6-0.03-0.35-6.99 0.01-13.99-0.1-20.99z"/>
  <path id="path45" d="m1386.8 312.6c7.62 0.09 15.25 0.14 22.89 0.02 0.03 41.05-0.18 82.11-0.12 123.16-7.67 0.55-15.37 0.23-23.04 0.14 0.19-41.11 0.12-82.22 0.27-123.32z"/>
  <path id="path47" d="m1555.7 312.58c7.42 0.14 14.85 0.14 22.28 0.05 15.51 27.29 30.58 54.84 46.24 82.03 0.26-27.26 0.26-54.53 0.16-81.8 7.12-0.26 14.24 0.11 21.36-0.12-0.02 41.16 0.01 82.33-0.22 123.5-7.61-0.1-15.22-0.22-22.83 0.01-10.47-18.25-20.74-36.63-31.18-54.9-4.75-8.55-9.87-16.89-14.3-25.61-0.79 26.8-0.06 53.64-0.57 80.44-7.07-0.28-14.14 0.04-21.19-0.29 0.11-41.11 0.12-82.21 0.25-123.31z"/>
  <path id="path49" d="m1658.6 436.08c14.9-41.14 29.65-82.33 44.56-123.47 8.12 0.28 16.26-0.07 24.39 0.27 14.75 41.2 30.09 82.2 45.07 123.33-8.3-0.02-16.6-0.14-24.89-0.03-3.33-9.34-6.66-18.68-9.84-28.07-15.23 0.02-30.45-0.15-45.66-0.02-2.79 9.34-6.37 18.43-9.08 27.8-8.18 0.38-16.37 0.01-24.55 0.19m40.91-48.81c10.34 0.03 20.67-0.01 31.01 0.05-5.22-15.32-10.5-30.63-15.6-45.98-5.08 15.33-10.33 30.6-15.41 45.93z"/>
  <path id="path51" d="m1785.9 313.63c7.64 0.03 15.28 0.17 22.93-0.01-0.01 33.86 0.06 67.71-0.21 101.57 19.03 0.26 38.07 0 57.11 0.22 0 6.96 0.09 13.93-0.09 20.89-26.62-0.51-53.26 0.1-79.87-0.43-0.02-40.75 0.22-81.49 0.13-122.24z"/>
 </g>
 <g id="#010101ff" transform="translate(-49.565 -43.318)" fill="#fff">
  <path id="path54" d="m1112.6 88.76c17.24-2.73 35.81-1.33 51.25 7.38 9.9 5.81 18.26 14.38 23.32 24.73 6.65 13.37 8.24 28.7 7.33 43.45-0.93 14.46-5.23 29.23-14.85 40.35-9.11 11.16-22.55 18.3-36.7 20.54-14.68 2.33-30.15 1.47-44.03-4.1-15.63-6.38-28.13-19.91-33.31-35.98-5.04-15.45-5.01-32.21-2.1-48.07 2.67-14.53 11.01-27.73 22.5-36.9 7.57-6.21 17.03-9.72 26.59-11.4m5.92 23.01c-6.94 1.57-13.47 5.23-18.09 10.68-6.75 7.49-9.3 17.77-10.06 27.59-0.61 8.87-0.2 17.94 2.31 26.51 2.32 7.9 7.04 15.26 13.86 19.99 9.11 6.8 21.45 8.13 32.26 5.32 11.03-2.87 20-11.72 23.75-22.39 3.85-10.96 4.16-22.89 2.81-34.33-1.29-10.37-5.58-20.94-14.19-27.32-9.17-7.05-21.6-8.38-32.65-6.05z"/>
  <path id="path56" d="m598.26 88.68c16.91 0.12 33.82 0.08 50.73 0.13 11.36 0.03 22.84-0.12 34.04 2.12 7.79 1.44 15.07 5.71 19.86 12.06 11.07 14.56 10.43 37.84-3.42 50.42-6.92 6.27-16.18 9.16-25.25 10.53 8.86 4.74 16.33 11.8 21.94 20.1 8.79 12.82 16.95 26.06 25.25 39.21-11.08-0.07-22.16 0.02-33.24-0.1-2.97-4.75-6.25-9.29-9.34-13.95-6.87-9.86-13.47-19.91-20.56-29.62-3.38-4.46-7.18-9.14-12.68-10.97-6.37-2-13.16-1.5-19.74-1.57 0.02 18.69-0.05 37.37-0.12 56.06-9.22-0.13-18.44 0.1-27.65-0.2-0.03-44.74 0.16-89.48 0.18-134.22m27.62 22.88c0.18 11.33-0.04 22.66 0.02 34 12.35-0.11 24.72 0.36 37.06-0.37 4.6-0.31 9.64-0.71 13.29-3.88 6.18-4.81 7.01-14.03 4.11-20.88-2.68-5.74-9.29-8.54-15.35-8.63-13.04-0.42-26.09-0.34-39.13-0.24z"/>
  <path id="path58" d="m776.19 88.8c9.8 0.03 19.61-0.03 29.42 0.09 16.28 39.85 32.48 79.72 48.73 119.58 1.82 4.98 4.22 9.73 5.85 14.78-9.87-0.07-19.74 0.03-29.6-0.1-0.94-0.85-1.2-2.16-1.69-3.25-3.55-9.07-7.14-18.12-10.59-27.23-18.31-0.05-36.63-0.08-54.95-0.09-3.81 10.14-7.55 20.31-11.37 30.45-9.81-0.02-19.61 0.02-29.42-0.06 17.89-44.72 35.87-89.4 53.62-134.17m14.49 31.35c-6.45 16.47-12.41 33.14-18.68 49.7 12.48 0.22 24.96 0.09 37.44 0.13-6.22-16.62-12.77-33.13-18.76-49.83z"/>
  <path id="path60" d="m875.03 222.93c0.04-44.76 0.08-89.51 0.23-134.27 13.24 0.16 26.48 0.07 39.72 0.13 10.96 0.07 22.03-0.34 32.87 1.64 11.85 2.13 22.65 9.19 29.59 18.99 7.8 10.52 11.4 23.55 12.33 36.47 1.09 14.7 0.56 30.01-5.18 43.79-3.36 7.93-8.09 15.43-14.62 21.12-5.28 4.59-11.81 7.45-18.42 9.53-9.9 2.96-20.34 2.81-30.57 2.78-15.32-0.1-30.64 0.07-45.95-0.18m27.81-111.41c0.09 29.62 0.01 59.25-0.11 88.87 10.05 0.01 20.11 0.31 30.16-0.2 6.68-0.25 13.54-2.17 18.67-6.63 4.11-3.98 6.35-9.47 7.75-14.93 2.45-10.08 2.47-20.56 2.04-30.87-0.45-9.15-2.22-18.79-8.09-26.13-4.57-5.86-11.98-8.7-19.18-9.43-10.39-0.94-20.83-0.68-31.24-0.68z"/>
  <path id="path62" d="m1013.1 88.68c9.19 0.02 18.39 0.17 27.59 0.01 0.05 44.8 0.04 89.61-0.24 134.41-9.25-0.12-18.49 0.03-27.72-0.17 0.34-44.74 0.09-89.5 0.37-134.25z"/>
  <path id="path64" d="m584.08 265.26h1281.6v5.875h-1281.6z"/>
 </g>
 <g id="#ff0101ff" transform="translate(-49.565 -43.318)" fill="#ff0101">
  <path id="path67" d="m1269.7 89.67c16.44 0.14 32.88 0.08 49.33 0.14 10.5 0.09 21.31 0.19 31.29 3.85 12.61 4.66 22.39 15.25 27.74 27.41 6.03 13.06 6.94 27.78 6.57 41.96-0.4 14.63-4.41 29.51-13.3 41.32-5.12 6.96-12.31 12.36-20.42 15.33-10.73 4.35-22.51 4.53-33.91 4.4-15.84-0.05-31.68 0.06-47.52-0.12 0.1-44.76 0.19-89.53 0.22-134.29m27.65 111.77c10.89-0.19 21.8 0.47 32.67-0.46 7.76-0.66 15.88-4.12 19.79-11.21 5.85-10.56 6.22-23.02 6.23-34.8-0.15-10.06-0.78-20.8-6.35-29.52-3.79-6.5-10.73-10.66-18.08-11.79-11.32-1.69-22.81-0.93-34.21-1.23 0.02 29.67-0.15 59.34-0.05 89.01z"/>
  <path id="path69" d="m1408.3 89.76c33.96-0.06 67.91 0.15 101.87 0.09 0.05 7.56-0.16 15.12 0.05 22.68-24.73 0.05-49.45 0.06-74.17-0.15 0.06 9.98-0.15 19.96 0.02 29.93 22.94-0.07 45.89 0.07 68.83 0.07 0.01 7.58 0.2 15.18-0.14 22.77-22.88-0.44-45.78-0.04-68.67-0.37-0.32 12.2-0.05 24.42-0.21 36.62 25.56 0.14 51.12 0.1 76.67 0.14 0.12 7.52-0.02 15.04 0.06 22.56-34.82 0.19-69.65-0.1-104.47-0.06 0-44.76 0.25-89.52 0.16-134.28z"/>
  <path id="path71" d="m1537.2 90.8c9.21-0.02 18.43 0.16 27.65-0.02 0 36.89-0.06 73.78-0.17 110.66 22.97 0.03 45.94 0.12 68.92 0.06-0.05 7.56 0.06 15.13-0.08 22.69-32.19-0.07-64.38-0.1-96.57-0.18 0.06-44.4 0.06-88.8 0.25-133.21z"/>
  <path id="path73" d="m1629.5 90.66c36.33 0.08 72.67 0.31 109 0.1 0.27 7.61 0.09 15.23 0.04 22.84-13.55-0.08-27.1-0.02-40.64-0.08-0.11 37.23 0.03 74.47-0.29 111.69-9.19-0.14-18.38-0.18-27.56-0.04 0.02-37.22 0.06-74.44 0.19-111.65-13.59-0.05-27.18-0.14-40.77-0.08 0.04-7.59-0.01-15.18 0.03-22.78z"/>
  <path id="path75" d="m1761 143.35c6.55-17.65 13.97-35 20.72-52.58 9.79 0.07 19.59 0.15 29.38-0.02 18.21 44.86 36.68 89.6 54.67 134.55-10.02-0.16-20.04-0.06-30.06-0.09-3.89-10.21-8.05-20.31-11.85-30.54-18.35-0.06-36.7-0.11-55.04-0.08-3.69 10.23-7.51 20.42-11.47 30.54-9.8-0.15-19.59-0.11-29.38-0.15 7.5-17.67 14.2-35.69 21.57-53.42 3.57-9.45 7.71-18.69 10.97-28.25l0.89 2.18c-0.01-0.74-0.14-1.46-0.4-2.14m34.77-20.15c-6.23 16.18-12.24 32.44-18.23 48.7 12.44 0.05 24.89 0.19 37.34-0.02-6.08-16.28-12.34-32.51-18.45-48.78-0.16 0.03-0.5 0.08-0.66 0.1z"/>
  <path id="path77" d="m205.15 104.98c45.53 86.7 91.17 173.35 136.72 260.05 5.63 13.43 9.16 28.51 6.09 43.02-1.98 9.92-9.04 18.55-18.24 22.7-12.31 5.99-26.37 5.77-39.74 5.65-60.65-0.1-121.3-0.24-181.95-0.3-13.69 0.85-27.98 0.42-40.62-5.48-7.27-3.35-13.54-9.37-16.06-17.08-3.13-9.23-1.73-19.28 1.02-28.42 3.47-12.06 9.65-23.07 15.81-33.93 29.18-51.99 58.39-103.96 87.57-155.95 13.48 25.46 27.56 50.6 41.09 76.03-15.73 27.65-31.27 55.41-46.71 83.21 34.01-0.07 68.02 0.12 102.04 0.12-30.53-57.18-61.31-114.22-91.96-171.33 14.93-26.13 30.08-52.12 44.94-78.29z"/>
  <path id="path79" d="m446.51 204.7c5.84-1.28 12.17 0.23 16.86 3.91 5.97 4.7 8.74 13.15 6.23 20.41-3.18 10.69-16.39 16.23-26.49 11.98-8.35-2.97-13.83-12.33-12.02-21.06 1.27-7.68 7.92-13.75 15.42-15.24z"/>
  <path id="path81" d="m509.27 207.27c7.31-2.03 15.69 3.98 15.34 11.72 0.24 8.51-10.08 14.52-17.5 10.63-6.32-2.31-9.29-10.56-5.88-16.36 1.66-3.03 4.62-5.35 8.04-5.99z"/>
  <path id="path83" d="m354.98 228.03c10.01-10.97 28.22-12.04 40-3.3 6.98 5.13 11.56 13.54 11.76 22.24 0.21 8.76-3.97 17.51-10.98 22.79-6.03 5.12-14.19 6.96-21.95 6.34-11.87-1.03-22.74-9.69-25.89-21.26-2.78-9.4 0.38-19.83 7.06-26.81z"/>
 </g>
</svg>
