<svg width="604.57mm" height="140.63mm" version="1.1" viewBox="0 0 604.57 140.63" xmlns="http://www.w3.org/2000/svg">
 <g transform="translate(319.29 -78.518)">
  <path d="m176.39 148.83a69.821 70.316 0 0 1-69.821 70.316 69.821 70.316 0 0 1-69.821-70.316 69.821 70.316 0 0 1 69.821-70.316 69.821 70.316 0 0 1 69.821 70.316z" fill="#f00" stroke-width=".35278"/>
  <path d="m-213.46 87.161c10.093 0 19.71-0.11676 29.185 0.18483 7.689 0.27725 13.807 7.7814 13.234 15.341-0.1109 8.9089-6.7279 16.099-14.288 19.943l7.6336 19.296-10.535 0.1109-7.3563-18.261-15.175 0.037-3.1237 18.151-9.1862 0.0555zm7.5042 9.1863-3.1791 18.113c6.4322-0.0739 12.864 0.27724 19.278-0.16635 7.9293-0.29574 13.567-12.864 5.4156-17.042-2.2708-1.1914-14.134-0.90548-21.514-0.90548z" fill="#fff" stroke-width="1.8483"/>
  <path d="m-170.73 142 36.892-54.895 17.651 54.895-10.258-0.0739-2.9019-9.0753h-24.804l-6.2288 9.0568zm22.66-18.335 15.711 0.037-5.0829-15.896z" fill="#fff" stroke-width="1.8483"/>
  <path d="m-109.12 142.07 9.5558-54.999h13.033c8.5809 0 17.07 0.87174 22.769 8.0433 11.071 13.345 2.9943 33.695-10.628 41.846-6.4558 4.4676-13.992 5.1102-21.602 5.1102zm10.794-9.3059c6.8203-0.0739 14.398 0.75781 20.239-3.5673 8.6132-5.3971 13.807-18.151 7.2084-26.985-4.8056-6.7833-13.862-5.8592-21.145-5.7668z" fill="#fff" stroke-width="1.8483"/>
  <path d="m-60.105 210.5 21.496-123.28 9.1492-0.01849-21.496 123.25-9.1492 0.0554z" fill="#fff" stroke-width="1.8483"/>
  <path d="m-0.79192 88.825c6.1549-2.1256 13.086-2.3289 19.204 0.055449 8.3914 3.3639 14.066 12.328 13.622 21.367-0.31421 19.001-20.128 35.432-38.907 31.033-10.461-2.3658-17.818-13.345-16.45-23.936 0.94264-12.883 10.572-24.195 22.531-28.52m1.7744 8.7056c-12.439 3.7706-20.738 21.773-10.129 31.606 14.103 11.256 36.153-6.0255 31.033-22.531-2.4952-8.6501-12.957-12.273-20.905-9.0753z" fill="#fff" stroke-width="1.8483"/>
  <path d="m209.97 87.198 9.1492-0.01849-4.4175 23.843 25.377-0.037 4.1402-23.751c8.5947 0.3327 17.43-1.109 25.84 1.1275 9.1677 2.8279 15.397 12.143 15.212 21.644-0.27724 16.506-14.99 31.384-31.477 31.902-6.3767 0.24028-12.753-0.0185-19.13 0.0739l3.789-21.625h-25.451l-9.408 50.385-9.0198-0.0555 15.397-83.489m35.432 45.561c6.8203 0 14.343 0.64691 20.221-3.5303 8.7241-5.3416 13.936-18.28 7.2084-27.115-4.8611-6.6724-13.807-5.7298-21.052-5.6928z" fill="#fff" stroke-width="1.8483"/>
  <path d="m37.661 137.41 113.59-42.605-22.804 120.81-21.034-71.585z" fill="#1d1d1c" stroke-width="1.8483"/>
  <path d="m-309.55 155.49 36.227 0.0554-1.682 9.334-27.133-0.0555-3.1422 18.021 38.427-0.0185 4.8056-27.263c9.297 0.14786 18.576-0.16635 27.873 0.1109 7.4672-0.24028 14.232 6.1734 14.546 13.604 0.51753 4.8796-1.682 9.408-3.8445 13.622l17.596-0.1109 4.7502-27.17 36.301-0.037-1.5526 9.2601-27.152-0.0185-3.1976 18.058 38.205-0.0739c3.4379-15.082 17.541-27.595 33.325-27.189 6.5985-0.037 12.476 3.4194 17.06 7.9293l-7.5411 6.5061c-10.85-11.367-30.423-2.1256-33.177 11.959-2.3104 7.7445 2.5507 17.208 10.776 18.687 6.3582 1.608 12.643-1.1275 17.781-4.6947l5.3601 6.4506c-8.5392 6.8203-20.627 10.628-31.052 5.8592-6.6909-2.8649-10.72-9.3525-12.698-16.08h-39.665l-1.6265 8.9828 27.226 0.037-1.7004 9.2231-36.283 0.0185 3.1976-18.28-25.876-0.0185 7.2454 18.261-10.591 0.037-7.153-17.855-15.526 0.0739-3.0682 17.762-9.1492-0.0185 3.1976-18.224-38.482 0.037-3.1237 18.187h-9.2231zm55.061 9.3155-3.0867 17.578c6.58-0.037 13.16 0.31421 19.722-0.0555 7.7999-0.0555 12.624-12.55 5.0644-16.542-2.7438-1.3168-14.509-0.97961-21.699-0.97961z" fill="#fff" stroke-width="1.8483"/>
  <path d="m-109.12 191.35c-2.5876-19.98 17.744-39.11 37.521-35.192 5.0644 0.77629 9.1862 4.0108 12.846 7.3933l-7.4487 6.4691c-10.443-10.72-28.908-2.9388-32.808 10.203-3.0312 7.689 0.79478 17.947 9.1492 20.165 6.617 2.1995 13.474-0.51753 18.908-4.3066l5.3971 6.3952c-6.4876 4.8611-14.269 8.6501-22.586 7.8923-10.369-0.24028-19.759-8.6871-20.978-19.019z" fill="#fff" stroke-width="1.8483"/>
  <path d="m-39.755 210.5 36.966-54.969 17.614 54.988-10.351-0.0924-2.754-9.0383-24.915-0.0739-6.2658 9.1307zm22.716-18.391h15.674l-5.1383-15.766z" fill="#fff" stroke-width="1.8483"/>
 </g>
</svg>
