<svg id="a" version="1.1" viewBox="0 0 1000 550.18" xmlns="http://www.w3.org/2000/svg">
 <path id="b" d="m53.484 549.69c-12.731-1.8326-27.899-9.9246-37.438-19.974-5.5137-5.808-10.689-15.162-13.516-24.429l-2.125-6.9665-0.40524-448.88 2.4079-6.8493c1.3244-3.7671 3.4159-8.3418 4.6477-10.166 1.2319-1.8241 2.2398-3.8552 2.2398-4.5135 0-1.9113 11.829-13.507 18.174-17.816 5.3624-3.6415 15.115-8.0469 20.965-9.47 4.3459-1.0572 896.64-0.66509 902.24 0.39648 5.8183 1.1034 14.859 5.1508 22.678 10.153 9.7404 6.2309 19.548 19.003 24.124 31.416l2.5249 6.8493v449.12l-2.7754 7.8278c-7.0566 19.903-22.715 35.089-42.367 41.089l-7.6956 2.3493-444.32 0.29673c-244.38 0.16317-446.59-0.031-449.36-0.42799z" style="paint-order:stroke markers fill"/>
 <path id="c" d="m577.57 530.6c1.1957-2.9117 0.85735-509.78-0.34114-510.98-0.73466-0.73469-78.531-1.0476-262.46-1.0556-260.74-0.0114-261.43-6e-3 -265.31 1.9738-2.1402 1.0919-4.5243 1.9852-5.298 1.9852-2.4231 0-14.785 10.369-16.781 14.076-1.0475 1.945-2.2061 3.5364-2.5748 3.5364-0.36867 0-2.0298 3.5601-3.6914 7.9114l-3.0211 7.9114v438.93l2.3854 6.3375c5.6462 15.001 16.017 24.795 31.861 30.092 1.3454 0.44974 119.91 0.85556 263.48 0.90182 247.73 0.0799 261.07-3e-3 261.74-1.6282z" fill="#fff" style="paint-order:stroke markers fill"/>
 <g id="d">
  <path id="e" d="m53.617 261.31c-1.1856-0.50076-3.3087-2.653-4.7182-4.7828-2.4756-3.7408-2.5603-4.349-2.4937-17.906 0.0379-7.7183 0.70442-18.877 1.4812-24.797 0.77675-5.9198 1.8655-15.457 2.4194-21.195 0.55395-5.7375 1.6416-13.003 2.4169-16.145 0.77536-3.1422 2.5961-10.997 4.0461-17.455s3.2625-14.163 4.0277-17.123c0.76523-2.9599 2.0611-8.4638 2.8798-12.231s2.1247-8.8307 2.9023-11.252c0.77762-2.4217 1.5264-8.747 1.664-14.056l0.25019-9.6531 3.8276-3.3076c2.1052-1.8192 6.2882-4.6845 9.2955-6.3674s9.2105-6.2145 13.785-10.07c15.485-13.052 24.429-18.444 37.415-22.555 7.6537-2.4227 9.6028-2.6592 18.591-2.2552 16.115 0.72429 24.068 5.3281 29.78 17.239 2.2455 4.6826 2.4589 6.0807 2.0161 13.209-1.1753 18.92-11.467 34.45-49.765 75.096-10.591 11.24-12.736 14.068-15.028 19.814-3.581 8.9759-4.1396 13.611-2.0285 16.833 2.1496 3.2807 12.985 8.2538 29.9 13.724 2.4217 0.7831 5.9442 2.1538 7.8278 3.0461 4.4258 2.0965 10.735 2.2583 11.777 0.30197 0.43012-0.80724 1.2865-4.7701 1.903-8.8063 3.3286-21.79 3.8175-23.081 19.588-51.724 9.3062-16.903 24.02-26.597 42.868-28.244 6.1425-0.53677 10.178 0.84026 14.726 5.0251 4.1701 3.8369 6.5278 9.2652 9.0194 20.765 1.6956 7.8259 1.943 12.101 1.7333 29.941-0.2273 19.339-0.0992 21.134 1.8092 25.361 1.9667 4.356 9.1252 12.574 10.953 12.574 1.5066 0 2.2207-3.1487 2.6362-11.623 0.65112-13.279 5.4718-28.159 13.41-41.391 2.9938-4.9905 14.501-18.273 19.523-22.537 11.313-9.6026 22.038-14.793 34.007-16.457 9.5863-1.3332 10.763-2.2907 10.763-8.7565 0-2.4749 0.62506-6.9039 1.3891-9.8423 0.76399-2.9384 1.8703-9.7457 2.4584-15.127 1.5524-14.204 4.7933-31.232 7.4974-39.392 1.2945-3.9064 2.3537-7.7272 2.3537-8.4906 0-2.6801 4.9119-5.444 9.672-5.4424 13.132 4e-3 16.663 7.7966 13.782 30.411-0.91996 7.221-2.3576 16.652-3.1946 20.957-0.83707 4.3053-1.7926 10.25-2.1235 13.209-0.33081 2.9599-1.4645 9.9172-2.5192 15.461-2.569 13.502-2.4731 16.412 0.6916 20.978 3.0369 4.3823 3.5735 11.365 1.09 14.185-0.8356 0.94873-2.7058 4.0921-4.1559 6.9853-2.4736 4.9349-2.5729 5.6309-1.6055 11.252 0.56716 3.2957 1.4571 9.7884 1.9777 14.428 1.2285 10.95 5.3753 28.158 8.5777 35.595 1.3903 3.229 4.0857 8.0674 5.9896 10.752 2.4502 3.4548 3.5938 6.2555 3.9137 9.5845 0.4359 4.5366 0.2926 4.856-4.0438 9.011-8.1522 7.8112-13.585 6.912-21.942-3.6312-6.4597-8.1504-9.5151-14.918-12.99-28.773-2.8692-11.441-4.3267-14.759-5.2843-12.029-0.26747 0.76269-1.1932 3.3681-2.057 5.7898-0.86382 2.4217-2.3494 6.8248-3.3014 9.7847-3.2767 10.188-10.422 21.317-19.099 29.745-9.3562 9.0885-15.653 10.944-28.155 8.2956-5.1883-1.0989-13.502-5.2403-13.502-6.7259 0-1.5381-6.7396-4.734-12.38-5.8708-11.05-2.2268-19.121-6.9746-29.477-17.339-7.4463-7.4523-9.792-7.8864-12.525-2.3177-5.294 10.787-14.026 20.716-24.213 27.53-7.0039 4.6853-10.864 5.8087-19.983 5.8157-6.7568 5e-3 -7.273-0.1589-10.95-3.4804-2.497-2.2559-4.4289-5.2035-5.4754-8.354-0.88934-2.6775-2.5668-5.4761-3.7276-6.2191-1.1608-0.74296-7.8347-2.5202-14.831-3.9494-15.552-3.177-31.281-7.0928-35.225-8.7693-10.247-4.3559-20.008-9.6348-22.702-12.277-2.3004-2.2564-3.8598-2.989-5.8708-2.7583-2.6394 0.30286-2.7605 0.56167-3.3507 7.1635-0.33676 3.7671-0.67885 13.234-0.76018 21.037-0.14716 14.121-0.16127 14.204-2.9848 17.613l-2.837 3.4247-10.591 0.22516c-5.8249 0.12383-11.561-0.18454-12.746-0.6853zm256.81-33.546c2.401-1.9215 9.8666-15.011 12.415-21.767 5.6261-14.916 8.4996-23.177 11.742-33.757 0.74203-2.4217 2.2677-6.9239 3.3903-10.005 2.3542-6.4608 2.6075-10.812 0.72044-12.378-1.4646-1.2155-10.664 1.476-15.261 4.465-3.5935 2.3366-14.729 13.157-14.729 14.311 0 0.53659-1.0146 2.3381-2.2547 4.0034-6.1237 8.2235-9.0063 21.553-8.2777 38.278 0.48588 11.154 1.9371 15.993 5.3954 17.991 1.7904 1.0344 4.759 0.54089 6.86-1.1405zm-109.84-8.0194c5.419-5.8191 12.771-17.89 15.753-25.862 7.501-20.057 10.87-37.739 7.831-41.098-1.0743-1.1871-2.4729-1.6286-4.146-1.3088-3.3704 0.64429-10.904 10.966-15.076 20.655-1.7634 4.0956-3.9707 9.2078-4.905 11.36-4.387 10.108-6.9314 20.613-7.1094 29.354-0.25959 12.747 1.0806 13.956 7.6524 6.8985zm-105.31-71.722c0.51152-0.94178 6.5043-7.2162 13.317-13.943 13.386-13.217 24.503-26.384 32.088-38.002 5.7496-8.8075 6.6622-11.003 5.4638-13.144-1.1522-2.0588-5.1003-1.445-12.591 1.9576-23.009 10.451-35.167 27.274-42.443 58.729l-1.4147 6.1155h2.325c1.2787 0 2.7435-0.77055 3.255-1.7123z" style="paint-order:stroke markers fill"/>
  <path id="f" d="m420.85 257.3c-3.26-0.9478-7.7648-4.9794-10.318-9.2338-0.96874-1.6145-2.5326-7.0031-3.4752-11.975-1.5687-8.2731-1.618-11.674-0.58182-40.117 0.62268-17.093 1.4056-40.63 1.74-52.305 0.33425-11.675 0.86916-21.589 1.1886-22.031 0.31944-0.44234 2.0455-2.008 3.8359-3.4793 2.885-2.3709 4.0644-2.675 10.372-2.675 6.2641 0 7.5738 0.33211 10.933 2.7723 7.9901 5.8046 8.9251 9.1779 6.7659 24.411-0.8939 6.3066-2.2196 13.888-2.9459 16.848-2.0414 8.3191-3.7445 36.237-3.0144 49.413 0.35787 6.4579 1.3337 15.704 2.1686 20.548 2.5772 14.952 0.36272 24.899-5.9692 26.812-5.3445 1.6146-7.8217 1.849-10.699 1.0124z" style="paint-order:stroke markers fill"/>
  <path id="g" d="m428.25 90.017c-7.5313-2.6534-10.707-4.7563-15.204-10.068-3.6864-4.3546-4.02-5.2319-4.3744-11.504-0.3432-6.0735-0.12323-7.1314 2.0848-10.026 7.657-10.039 27.803-5.679 37.338 8.0803 2.3307 3.3632 2.672 4.6664 2.2828 8.7169-0.30809 3.2065-1.3548 5.9388-3.2039 8.3631-5.729 7.511-10.893 9.2679-18.924 6.4384z" style="paint-order:stroke markers fill"/>
  <path id="h" d="m480.63 253.37c-3.6601-1.0437-7.8431-2.631-9.2955-3.5272-5.4415-3.3577-12.176-10.716-14.449-15.787-3.3596-7.4962-6.5164-27.861-5.3604-34.581 0.49415-2.8725 1.4079-10.727 2.0305-17.454 2.4121-26.062 7.6633-44.544 14.723-51.818 7.6731-7.9066 12.328-9.4046 18.517-5.9587 9.3635 5.2133 11.057 5.6858 20.565 5.7367 21.76 0.11645 37.835 7.9892 45.323 22.197l3.0943 5.8708-0.0726 19.08c-0.0682 17.932-0.23786 19.639-2.8181 28.376-3.3161 11.227-5.987 16.738-12.852 26.515-5.4327 7.7374-10.859 12.817-17.525 16.407-2.1526 1.1592-4.5744 2.4992-5.3816 2.9778-2.918 1.7299-16.296 4.025-22.994 3.9448-3.7671-0.0451-9.844-0.936-13.504-1.9797zm26.497-32.117c11.15-5.6623 19.233-18.919 21.785-35.729 0.56534-3.7244 1.2335-7.1044 1.4849-7.5111 0.25129-0.4067-0.45793-3.0835-1.5762-5.9485-2.6626-6.8215-6.839-10.195-15.165-12.25-5.6534-1.3951-7.5818-1.457-13.544-0.43457-5.8783 1.008-7.5217 1.7484-10.64 4.7932-5.7614 5.6259-7.3622 9.982-8.6485 23.535-0.87078 9.1745-0.87164 13.692-3e-3 18.949 1.4587 8.8324 2.6518 11.006 7.9834 14.543 5.7806 3.8349 10.849 3.8496 18.324 0.0533z" style="paint-order:stroke markers fill"/>
  <path id="i" d="m62.965 507.12c-1.358-1.4799-3.752-4.8924-5.3201-7.5832l-2.8509-4.8924 0.11143-43.542c0.06127-23.948 0.59286-48.826 1.1813-55.284 0.58843-6.4579 1.7442-20.768 2.5683-31.8 0.82416-11.032 2.1803-24.755 3.0136-30.496s1.8943-17.629 2.3577-26.419c0.68542-13.002 1.2327-16.844 2.9349-20.607 4.1364-9.1439 11.542-11.775 20.608-7.3207 7.4397 3.655 7.5516 4.3648 4.9669 31.515-0.61478 6.4579-1.8128 17.025-2.6623 23.483-0.84948 6.4579-1.9189 18.126-2.3765 25.93-0.4576 7.8033-1.2655 17.589-1.7953 21.745-1.7348 13.609-3.2886 48.798-2.7747 62.839 0.46468 12.695 0.78922 14.581 4.2197 24.516 4.8663 14.094 4.886 18.612 0.11849 27.138-4.7932 8.5711-11.078 13.469-17.282 13.469-3.7114 0-5.0033-0.49536-7.0179-2.6908z" style="paint-order:stroke markers fill"/>
  <path id="j" d="m132.34 502.22c-5.0112-3.1071-5.9283-6.8514-6.2901-25.68-0.18096-9.4178-0.79235-23.067-1.3587-30.333-0.5663-7.2652-0.95093-24.658-0.85472-38.65 0.0962-13.992-0.14541-26.209-0.53695-27.149-0.59207-1.4212-1.559-1.6174-5.7456-1.1659-6.1303 0.6611-9.5077-1.1442-13.84-7.3978-2.5001-3.609-2.9354-5.1485-2.9354-10.382 0-5.6633 0.26075-6.4138 3.3282-9.5786 1.8305-1.8886 4.552-3.7026 6.0478-4.0311 1.4958-0.3284 3.1988-1.1746 3.7844-1.8802 0.58557-0.70557 2.9675-1.8156 5.2932-2.4668 7.8258-2.1911 9.2418-4.1731 10.513-14.716 0.66496-5.5139 0.89076-15.102 0.55504-23.568-0.55627-14.028-0.5244-14.333 1.8628-17.847 4.5925-6.7585 12.923-8.6759 20.625-4.747 5.4786 2.795 11.816 9.9992 12.635 14.363 0.85013 4.5316-0.10472 12.955-1.6843 14.858-1.5759 1.8988-3.6694 15.393-2.6662 17.185 0.65648 1.1731 4.7824 1.3229 25.709 0.93342 26.673-0.49642 32.459 0.12944 36.551 3.9545 3.1941 2.9855 3.1941 11.812 0 13.815-1.9461 1.2201-11.51 3.1969-26.663 5.5113-13.036 1.9909-38.845 9.1328-40.586 11.231-0.63656 0.76702-1.2635 3.7282-1.3933 6.5804-0.12974 2.8522-0.82535 12.671-1.5458 21.82-1.7153 21.782-0.1369 67.845 2.8667 83.659 2.3944 12.608 2.6614 16.55 1.293 19.091-3.6709 6.8172-18.347 10.691-24.963 6.589z" style="paint-order:stroke markers fill"/>
  <path id="k" d="m318.94 507.01c-3.4264-2.0895-5.4595-4.9175-7.3892-10.278-1.4864-4.1294-4.5923-5.9726-8.7112-5.1698-3.1184 0.60785-17.47-0.98599-18.946-2.1041-0.61356-0.46479-2.6567-1.4478-4.5402-2.1846-5.7952-2.2668-15.844-9.6378-22.212-16.293-6.8279-7.1359-8.3784-7.4342-11.738-2.2581-6.7758 10.439-13.732 19.831-16.833 22.727-10.188 9.5142-19.872 13.717-31.409 13.631l-7.3386-0.0544-5.046-5.4934c-4.7529-5.1742-5.1367-5.9874-6.6067-13.997-1.9475-10.611-1.9689-20.532-0.0828-38.405 2.1702-20.565 3.7218-25.682 13.779-45.45 8.7596-17.217 10.583-20.141 16.792-26.932 9.979-10.913 20.855-16.286 34.985-17.283 7.18-0.50671 8.5464-0.31669 12.728 1.7698 5.4151 2.702 8.4103 6.7468 12.035 16.252 2.4606 6.453 2.544 7.4316 3.069 35.988l0.53969 29.354 2.6034 4.8924c2.927 5.5004 7.4264 10.125 12.673 13.027 1.9444 1.0753 4.3661 2.4214 5.3816 2.9913 3.1537 1.7698 10.981 5.0187 12.091 5.0187 1.9568 0 2.9649-4.9638 2.9649-14.599 0-5.2684 0.44051-15.037 0.97893-21.707 0.53838-6.6706 1.8534-24.237 2.9222-39.036s2.3747-31.091 2.9021-36.204c0.52741-5.1125 1.6495-18.322 2.4936-29.354 3.1419-41.063 3.5342-43.186 8.8437-47.848 6.804-5.974 18.707-4.7589 22.507 2.2977 1.5939 2.9597 1.6375 4.1285 0.51643 13.873-0.67329 5.8523-1.6469 12.603-2.1635 15.002-0.51663 2.399-1.5779 11.205-2.3584 19.569-0.78048 8.3642-1.8357 17.189-2.3449 19.611-0.50922 2.4217-1.1873 7.9256-1.5068 12.231-0.31945 4.3053-1.4958 17.295-2.6138 28.865-2.185 22.612-2.0302 36.202 0.57529 50.514 0.77153 4.2379 1.6972 10.127 2.057 13.087 0.35983 2.9599 1.2643 8.0235 2.01 11.252 0.74572 3.229 1.3623 10.666 1.3703 16.527 0.0172 12.29-1.4859 16.557-8.3794 23.801-3.6468 3.8317-4.4059 4.1928-8.8063 4.1895-2.9629-2e-3 -5.9609-0.70213-7.7928-1.8192zm-105.11-43.921c5.885-6.6421 15.609-22.754 15.624-25.888 3e-3 -0.69577 0.63296-2.4668 1.3992-3.9356 2.3377-4.4811 7.2395-21.438 7.9962-27.662 1.4368-11.816 0.46253-15.166-4.411-15.166-2.8062 0-6.9089 3.9524-9.5771 9.2261-0.83611 1.6526-2.0455 3.6653-2.6874 4.4725-0.642 0.80723-2.6094 4.77-4.372 8.8063-1.7626 4.0362-3.7854 8.6595-4.495 10.274-7.2653 16.53-10.805 38.961-6.7832 42.983 2.2383 2.2383 2.767 2.0133 7.3065-3.1101z" style="paint-order:stroke markers fill"/>
  <path id="l" d="m381.32 323.28c-7.3472-3.5542-14.527-11.152-16.355-17.308-2.6974-9.0833-1.2318-14.183 5.3962-18.776 3.6528-2.5314 5.0939-2.9251 10.667-2.9143 8.1691 0.0172 15.445 3.5176 22.815 10.979l5.1556 5.2205v6.5969c0 6.2471-0.20723 6.85-3.9107 11.369-6.4804 7.9085-14.175 9.4728-23.768 4.8321z" style="paint-order:stroke markers fill"/>
  <path id="m" d="m374.66 502.18c-2.2026-1.605-4.9244-4.0874-6.0485-5.5164-2.5634-3.2589-5.8258-13.877-6.6318-21.585-0.54427-5.2044 0.41346-45.364 2.3411-98.172l0.65476-17.937 3.6502-3.3451c2.8419-2.6044 4.5741-3.383 7.823-3.5164 13.283-0.5452 18.979 2.1153 22.817 10.658 2.2799 5.0746 1.7264 12.794-2.5104 35.012-4.1775 21.907-5.069 48.184-2.325 68.534 1.966 14.58 2.2168 27.595 0.58782 30.497-2.0225 3.6034-7.4758 7.095-12.039 7.7083-3.741 0.50282-4.8463 0.19208-8.3189-2.3382z" style="paint-order:stroke markers fill"/>
  <path id="n" d="m426.35 503.62c-3.9281-2.1812-8.0128-8.1553-10.263-15.011-1.9135-5.8285-2.1814-8.6166-2.0999-21.847 0.0995-16.162 3.3187-40.539 5.907-44.731 0.73594-1.192 1.3381-2.7058 1.3381-3.364s2.752-6.642 6.1155-13.297c3.3635-6.6552 6.6887-13.287 7.3894-14.738 1.4211-2.942 1.5264-3.1164 5.3964-8.9355 7.3035-10.982 22.704-21.226 35.298-23.478 7.4735-1.3364 15.896-0.38805 19.96 2.2475 4.2322 2.7445 8.3423 10.026 11.12 19.7 2.0852 7.2624 2.2503 9.7008 2.2864 33.757 0.0382 25.493 0.0788 26.008 2.4197 30.62 4.1364 8.1489 9.3063 12.683 20.582 18.051 5.6507 2.6899 11.375 5.2161 12.72 5.6137 1.3454 0.39756 4.0974 2.3055 6.1155 4.2398 4.9428 4.7374 5.1013 9.4163 0.48923 14.44-2.6858 2.9258-4.0925 3.5893-9.0509 4.2692-10.404 1.4266-24.535-2.0007-33.268-8.0688-6.9217-4.8095-15.901-12.715-17.482-15.391-2.3543-3.9856-7.0391-4.0942-8.7397-0.20276-3.2331 7.3987-20.315 28.62-23.038 28.62-0.47766 0-2.1218 0.98585-3.6536 2.1908-5.183 4.077-13.065 6.6089-20.473 6.5763-3.7671-0.0172-7.8485-0.58496-9.0697-1.263zm25.105-40.757c8.8373-10.189 16.204-24.868 20.682-41.209 0.97332-3.5522 2.4668-8.8058 3.3187-11.675 1.5958-5.3736 2.0726-16.227 0.8002-18.215-0.6494-1.0144-3.9078-1.713-6.6773-1.4316-3.6184 0.36761-14.49 19.985-21.75 39.247-5.1113 13.562-8.0266 36.221-4.8262 37.512 2.8831 1.1633 4.4592 0.37469 8.4524-4.2292z" style="paint-order:stroke markers fill"/>
 </g>
 <path id="o" d="m782.32 46.604c-14.528 0.11167-29.881 0.72293-37.215 1.7656-13.138 1.8678-33.252 6.4126-50.391 11.385-3.7671 1.0928-9.4054 2.644-12.529 3.4473-19.009 4.8888-30.491 9.7728-35.18 14.963-4.3295 4.7922-4.6405 7.8108-1.6289 15.789 6.5185 17.269 25.232 20.459 45.795 7.8066 2.7567-1.6962 7.1029-3.8857 9.6582-4.8652 2.5553-0.97959 6.0119-2.3355 7.6816-3.0117 4.6466-1.8818 6.5675-0.67608 5.9727 3.748-2.7023 20.099-3.614 28.236-4.5723 40.842-2.2658 29.807-2.9708 46.705-3.1836 76.322l-0.2168 30.332 3.1094 6.002c1.8368 3.5462 5.0277 7.6484 7.7988 10.023 5.7488 4.9273 9.4678 5.2352 16.104 1.334 4.944-2.9065 10.61-9.1722 13.609-15.051 2.6904-5.2736 2.4945-14.459-0.51172-24.029-4.0305-12.831-4.4036-17.792-3.4531-46.014 1.086-32.247 1.7918-44.053 3.084-51.639 0.54998-3.229 1.5468-13.024 2.2168-21.768 1.3426-17.521 2.2253-19.818 7.6074-19.818 1.5618 0 4.6849-0.40309 6.9414-0.89649 12.643-2.7646 21.227-4.2759 33.947-5.9746 31.167-4.1625 31.775-4.3344 34.488-9.7637 2.7401-5.4834 2.27-10.438-1.3106-13.783-2.9374-2.744-4.166-3.2096-15.566-5.9141-4.0272-0.95535-17.728-1.3441-32.256-1.2324zm114.21 3.1953c-6.7131 0.0515-8.1309 0.45257-13.586 3.8398-3.1636 1.9645-10.645 12.242-10.645 14.625 0 0.50805-0.86787 3.5233-1.9297 6.7012-1.0618 3.178-2.3968 9.5215-2.9668 14.096-1.3295 10.671-5.5973 34.277-7.3418 40.607-2.8354 10.288-5.6713 21.783-6.959 28.215-0.73653 3.6788-1.6146 7.1378-1.9531 7.6856-0.33838 0.54775-1.4046 3.9213-2.3672 7.498-5.6378 20.949-12.795 35.272-16.488 32.99-0.44723-0.27639-2.4654-3.8908-4.4844-8.0312-3.4534-7.0821-4.5108-9.7135-9.7637-24.326-1.1607-3.229-2.6218-6.8042-3.248-7.9453-0.62626-1.1412-1.563-3.7833-2.0801-5.8711-0.51711-2.0878-1.7962-6.2179-2.8438-9.1777-1.0475-2.9599-2.8305-8.4633-3.9609-12.23-1.1304-3.7671-3.1658-10.266-4.5254-14.441-1.3595-4.1755-2.4727-8.178-2.4727-8.8945 0-0.71652-1.3403-3.9853-2.9785-7.2637-2.4201-4.8431-3.7677-6.3426-7.1875-7.998-7.5398-3.65-19.546-2.433-24.129 2.4453-1.9531 2.079-2.428 3.7473-2.7188 9.5508-0.19381 3.8676 0.1069 9.2334 0.66797 11.924 2.0525 9.8446 4.9386 21.636 6.3457 25.93 0.79367 2.4217 2.3863 7.2659 3.5391 10.764 1.1528 3.4978 2.4752 7.8997 2.9394 9.7832 0.75901 3.08 3.8442 11.101 7.3398 19.08 0.70729 1.6145 1.6016 4.0374 1.9863 5.3828 0.38464 1.3454 2.3758 5.9681 4.4258 10.273s4.4183 9.3689 5.2617 11.252c0.84338 1.8836 1.9416 4.0853 2.4414 4.8926 0.49979 0.80724 2.7988 4.7704 5.1094 8.8066 5.5081 9.6216 7.7929 12.591 16.271 21.158 4.2464 4.2906 8.36 7.5239 10.273 8.0762 1.7552 0.50662 3.2456 0.9612 3.3125 1.0098 0.0668 0.0485 1.8947-0.53786 4.0625-1.3027h2e-3c2.1678-0.76482 5.6386-2.5139 7.7129-3.8867 4.9358-3.2664 14.724-15.081 19.135-23.098 3.063-5.567 5.6473-11.252 16.967-37.305 1.3152-3.0272 2.395-5.8885 2.3984-6.3594 0-0.47086 0.6132-2.0206 1.3555-3.4434 1.7398-3.3345 7.4453-21.031 7.4453-23.094 0-0.86773 0.8477-4.4716 1.8848-8.0078 2.6173-8.9245 5.6558-20.813 7.3945-28.934 1.4321-6.6889 2.4862-10.961 6.4043-25.93 1.0565-4.0362 2.5993-9.9804 3.4278-13.209s1.9199-7.4133 2.4257-9.2969c1.4287-5.3212 1.1391-14.509-0.5722-18.115-0.8469-1.7846-3.2391-4.4212-5.3145-5.8594-3.1544-2.186-4.7959-2.6064-10.014-2.5664zm-196.17 266.18c-1.4915 0.0251-3.22 0.0879-5.2207 0.0879-8.7671 0-10.641 0.27575-11.986 1.7617-1.45 1.6023-1.6026 10.684-1.6738 100.39-0.0743 93.968 3e-3 98.692 1.6875 99.967 2.6041 1.9746 21.634 1.9155 24.477-0.0762v6e-3l2.1094-1.4766-0.20118-44.088c-0.16764-36.974 0.0246-44.272 1.1836-45.234 1.6241-1.3479 39.394-1.8272 42.936-0.54492l2.2012 0.79688v44.223c0 39.777 0.16257 44.403 1.6191 46.012 1.3688 1.5125 3.1757 1.7891 11.678 1.7891 5.5322 0 11.187-0.42827 12.568-0.95312l2.5117-0.95508v-99.771c0-78.75-0.25934-99.933-1.2246-100.55-0.6727-0.4274-6.198-0.94302-12.279-1.1445-9.5215-0.31532-11.322-0.12555-12.965 1.3613-1.8281 1.6544-1.9082 3.2906-1.9082 39.176 0 32.741-0.19297 37.642-1.5371 38.986-1.2966 1.2966-4.6434 1.5391-21.355 1.5391-19.334 0-19.865-0.0552-21.73-2.2031-1.8299-2.1078-1.9042-3.7753-1.752-39.162 0.16536-38.416 1.3038-40.113-9.1367-39.938zm121.75 0.16016c-12.048-0.044-13.664 0.32443-15.191 1.5703l-2.1914 1.7871-0.043 98.826-0.041 98.826 2.2773 1.207c2.8314 1.5027 47.855 1.6838 57.893 0.23242l2e-3 -2e-3c3.6813-0.53222 9.9502-2.3232 13.932-3.9805 5.9958-2.4961 8.311-4.1716 13.49-9.7656 6.9229-7.4774 9.8823-12.973 13.652-25.363 7.6282-25.068 7.9559-95.931 0.5644-121.82-3.0987-10.853-7.7872-20.087-13.107-25.814-6.0105-6.4693-10.498-9.3813-19.482-12.641-6.7472-2.448-7.7229-2.527-35.846-2.8984-6.7175-0.0887-11.892-0.1494-15.908-0.16406zm22.689 25.414c9.0824 0.0437 19.593 1.9745 23.039 4.2324 10.909 7.1477 16.198 30.204 16.193 70.584 0 30.148-2.844 51.48-8.373 62.854-5.6279 11.577-12.108 14.936-28.814 14.936-8.1265 0-9.8686-0.2939-12.074-2.0293v2e-3l-2.5781-2.0293v-144.53l2.5781-2.0273c2.1077-1.6579 3.9379-2.0216 10.029-1.9922z" fill="#fff" style="paint-order:stroke markers fill"/>
</svg>
