<svg id="a" width="904.73pt" height="550.2pt" version="1.1" viewBox="0 0 904.73 550.2" xmlns="http://www.w3.org/2000/svg">
 <g id="b" transform="translate(-24.776 -186.12)" fill="#fff">
  <path id="c" transform="scale(.75)" d="m645.21 248.15a366.8 366.8 0 0 0-346.18 246.86h51.859a318 318 0 0 1 294.32-198.06 318 318 0 0 1 294.28 198.06h51.92a366.8 366.8 0 0 0-346.2-246.86zm-342.09 497.99a366.8 366.8 0 0 0 342.09 235.6 366.8 366.8 0 0 0 342.44-235.6h-53.098a318 318 0 0 1-289.34 186.8 318 318 0 0 1-289.24-186.8z" style="paint-order:stroke fill markers"/>
  <path id="d" d="m63.24 400.14c21.24-11.47 47.09-12.34 69.92-5.36 9.93 3.48 19.29 8.48 27.38 15.25 0.0719 0.0635 0.12502 0.10634 0.15548 0.14502l-29.845 36.485c-4.92-6.05-12.03-9.84-19.74-10.86-7.67-0.87-15.58 0.93-21.96 5.32-15.08 11.52-15.97 37.02-1.86 49.65 9.94 9.17 26.47 9.82 37.16 1.58 2.43-1.74 4.48-3.94 6.45-6.17l29.81 35.95c-11.73 12-28.04 19.01-44.59 20.97-11.68 1.27-23.66 0.87-35.07-2.14-18.9-4.93-36.16-17.08-45.85-34.2-2.69-4.26-4.6-8.92-6.43-13.58-5.04-15.9-5.27-33.22-0.92-49.3 5.39-18.48 18.22-34.84 35.39-43.74z"/>
  <path id="e" transform="scale(.75)" d="m288 525.85-74.467 193.73h69.801l9.9863-28.414h58.867l9.9863 28.414h69.799l-74.467-193.73zm34.754 69.998 15.619 45.09h-31.24z" stroke-width="1.3333"/>
  <path id="f" d="m334.51 394.48h61.48c14.03 0.87 28.75 4.375 39.48 14.005 8.86 7.95 13.61 19.72 13.89 31.53 0.86 12.99-2.79 26.77-12.17 36.16-9.75 10.51-24.19 15.01-38.1 16.33-5.29 0.49-10.274 0.75-15.83 0.75v46.425h-48.75v-145.2m48.77 61.385h5.7077c7.7921 0 12.258-3.6733 12.258-11.755-1e-3 -8.6982-4.4763-11.755-12.258-11.755h-5.7077z"/>
  <path id="g" d="m462.54 394.44h49.285v145.25h-49.285z"/>
  <path id="h" transform="scale(.75)" d="m709.93 525.94v54.861h49.773v138.77h65.574v-138.77h49.773v-54.861z" stroke-width="1.3333"/>
  <path id="i" d="m700.23 394.48-55.85 145.3h52.351l7.4898-21.311h44.15l7.4898 21.311h52.349l-55.85-145.3zm26.065 52.499 11.714 33.817h-23.43z"/>
  <path id="j" d="m821.24 394.42h49.26v103.16h59v42.085h-108.26z"/>
 </g>
 <g id="k" transform="translate(-24.776 -186.12)" fill="#bd2132">
  <path id="l" transform="scale(.75)" d="m755.81 396.8a36.052 34.919 0 0 0-36.053 34.918 36.052 34.919 0 0 0 36.053 34.92 36.052 34.919 0 0 0 36.051-34.92 36.052 34.919 0 0 0-36.051-34.918zm-0.0644 14.523a20.834 20.18 0 0 1 20.834 20.18 20.834 20.18 0 0 1-20.834 20.18 20.834 20.18 0 0 1-20.834-20.18 20.834 20.18 0 0 1 20.834-20.18z" style="paint-order:stroke fill markers"/>
  <path id="m" d="m369.54 299.11h18.345c13.076 0 18.724 5.047 18.724 15.359-0.23123 6.5588-3.8666 10.429-9.8663 13.084 3.7448 6.7828 8.2281 14.084 12.333 21.012h-13.377c-3.761-6.4577-7.1558-13.303-10.673-19.895h-3.6848v19.895h-11.8m11.8-39.916v11.67l6.5414-0.03c4.9108 0 6.8724-1.8029 6.8836-5.8202 0-3.4672-2.2721-5.82-6.8836-5.82z"/>
  <path id="n" transform="scale(.75)" d="m573.72 399.37-25.959 65.381h17.691l4.8398-13.121h24.121l4.8398 13.121 17.693 9e-5 -25.961-65.381zm8.6328 17.422 7.5273 22.338h-15.055z" stroke-width="1.3333"/>
  <path id="o" d="m464.56 299.53h16.835c5.3582 0 10.16-0.19853 15.598 2.0031 5.0484 2.0764 9.4527 5.6153 11.757 10.697 3.32 7.55 3.13 17.055-0.7 23.95-2.61 4.24-6.49 7.77-11.11 9.7-4.9878 2.0917-10.164 2.6854-15.545 2.6854h-16.755c0.02-16.39-0.08-49.036-0.08-49.036zm11.91 9.8135 0.08 28.942h5.5497c3.212 0 6.387-0.72342 9.3403-2.0353 9.48-4.29 9.63-20.1 0.43-24.83-3.0256-1.6316-6.3831-2.0768-9.7703-2.0768z"/>
  <path id="p" d="m519.48 299.33h12.14v49.24h-12.14z"/>
 </g>
</svg>
