<?xml version="1.0" encoding="UTF-8"?>
<svg id="svg58" width="1266.9pt" height="322.45pt" version="1.1" viewBox="0 0 1266.9 322.45" xmlns="http://www.w3.org/2000/svg" xmlns:cc="http://creativecommons.org/ns#" xmlns:dc="http://purl.org/dc/elements/1.1/" xmlns:rdf="http://www.w3.org/1999/02/22-rdf-syntax-ns#">
 <metadata id="metadata64">
  <rdf:RDF>
   <cc:Work rdf:about="">
    <dc:format>image/svg+xml</dc:format>
    <dc:type rdf:resource="http://purl.org/dc/dcmitype/StillImage"/>
    <dc:title/>
   </cc:Work>
  </rdf:RDF>
 </metadata>
 <path id="path27" transform="scale(.75)" d="m0 0v429.92h1689.2v-429.92z" stroke-width="1.3333"/>
 <g id="g879" fill="#fff" stroke-width=".99997">
  <path id="path27-9" d="m10.24 9.201h1037.7v304.8h-1037.7z"/>
  <path id="path27-0" d="m1084.8 59.236h62.766v20.545h-20.845v179.96h-21.006v-179.96h-20.915zm66.06 0.19922h21.781l10.834 160.54 14.165-160.54h19.69l-20.459 200.3h-26.791z"/>
 </g>
 <g id="g875">
  <path id="path29" d="m366.59 57.414c-10.427-0.32666-22.076 3.9341-26.33 14.234-5.9456 14.044-3.673 29.502-4.1318 44.322 0.0323 37.224-0.0384 74.451 0.0264 111.67 0.58156 11.479 3.2207 25.397 14.668 30.84 9.7916 4.3083 21.537 4.3102 31.442 0.35541 11.383-4.8473 14.691-18.271 15.288-29.528 0.38028-21.8 0.0501-43.629 0.15516-65.44-0.0225-24.138 0.0458-48.28-0.0219-72.416-0.58669-11.441-3.1897-25.306-14.564-30.785-5.1044-2.5356-10.888-3.3052-16.531-3.2566zm0.32958 19.803c9.5685 0.0141 9.6432 11.903 9.739 18.849-0.0203 43.273 0.14053 86.55-0.089 129.82 0.20106 6.6716-2.3091 17.766-11.362 15.826-9.4255-2.3043-8.0528-13.307-8.0528-22.06 0.0814-42.136-0.12969-84.277 0.11561-126.41 0.17869-6.279 1.123-16.357 9.649-16.025z"/>
  <path id="path31" d="m78.68 59.205h27.715c7.74 0.24 15.98 1.99 21.74 7.53 7.1 6.61 9.32 16.58 10.64 25.81 0.55498 5.1138 1.24 11.26 1.03 16.94-0.08 14.01 0.08 28.02-0.08 42.03-0.97 10.77-2.03 22.41-8.99 31.22-2.07 3.01-5.46 4.58-8.07 6.98 3.07 4.41 5.5 9.25 6.67 14.52l11.83 55.445h-23.01l-11.28-66.825-7.12-0.04v66.865h-21.075v-200.48m21.075 19.93v94.65c4.65 0.16 10.19 0.47 13.6-3.34 4.69-5.52 5.2018-16.108 5.34-19.96 0.04-15.34 0.07-30.68-0.02-46.01-0.41626-7.6681-0.5-15.68-5.42-21.79-3.3-3.88-8.89-3.5-13.5-3.55z"/>
  <path id="path33" d="m166.92 59.34h29.93l19.12 200.47h-22.04l-3.17-44.03h-19.91l-3.09 44.03h-21.17m26.31-64.51h16.15l-8.075-114.94z"/>
  <path id="path35" d="m223.98 59.205h20.415c9.68-0.19 20.38 0.68025 28.05 7.2503 9.38 8.12 11.5 21.29 12.5 32.99 0.44 33.35 0.09 66.7 0.21 100.04-0.18 11.1 0.78 22.4-2.08 33.25-1.74 7.34-4.88 14.69-10.68 19.74-6.24 5.49-14.82 7.4102-22.94 7.4102h-25.475c-0.05-66.79 0.17-133.88 0-200.68m21.15 20.01v160.93c3.09-0.17 6.315 0.21 9.345-0.6 4.28-1.46 6.79-5.77 7.78-9.96 2.25-7.16 1.82-14.71 1.86-22.11v-96.99c-0.03-8.88 0.19-18.41-4.3-26.39-2.97-5.18-9.475-5.14-14.685-4.88z"/>
  <path id="path37" d="m300.62 59.33h20.905v200.46h-20.905z"/>
  <path id="path37-3" d="m436.75 59.442h20.905v200.46h-20.905z"/>
  <path id="path41" d="m466.91 59.235h62.765v20.545h-20.845v179.96h-21.005v-179.96h-20.915z"/>
  <path id="path33-8" d="m545.24 59.454h29.93l19.12 200.47h-22.04l-3.17-44.03h-19.91l-3.09 44.03h-21.17m26.31-64.51h16.15l-8.075-114.94z"/>
  <path id="path45" d="m602.72 59.475h20.97v180.57h25.89v19.805h-46.86z"/>
  <path id="path37-6" d="m657.84 59.485h20.905v200.46h-20.905z"/>
  <path id="path33-3" d="m707.06 59.455h29.93l19.12 200.47h-22.04l-3.17-44.03h-19.91l-3.09 44.03h-21.17m26.31-64.51h16.15l-8.075-114.94z"/>
  <path id="path31-9" d="m788 59.476h27.715c7.74 0.24 15.98 1.99 21.74 7.53 7.1 6.61 9.32 16.58 10.64 25.81 0.55498 5.1138 1.24 11.26 1.03 16.94-0.08 14.01 0.08 28.02-0.08 42.03-0.97 10.77-2.03 22.41-8.99 31.22-2.07 3.01-5.46 4.58-8.07 6.98 3.07 4.41 5.5 9.25 6.67 14.52l11.83 55.445h-23.01l-11.28-66.825-7.12-0.04v66.865h-21.075v-200.47m21.075 19.93v94.65c4.65 0.16 10.19 0.46999 13.6-3.34 4.69-5.52 5.2018-16.108 5.34-19.96 0.04-15.34 0.07-30.68-0.02-46.01-0.41627-7.6681-0.50001-15.68-5.42-21.79-3.3-3.88-8.89-3.5-13.5-3.55z"/>
  <path id="path33-9" d="m876.9 59.434h29.93l19.12 200.47h-22.04l-3.17-44.03h-19.91l-3.09 44.03h-21.17m26.31-64.51h16.15l-8.075-114.94z"/>
  <path id="path55" d="m933.9 59.225h26.49c9.27-0.18 19.43 2.27 25.53 9.78 6.44 7.96 8.296 18.855 8.94 28.44 0.48 18.01 0.13 36.03 0.23 54.04 0.12 11.19-1.1 22.92-6.9 32.73-3.0121 5.0851-7.8387 8.8734-13.319 10.961-6.2777 2.2819-12.367 2.1892-19.958 2.1991v62.49c-7.3147 0.38747-14.694-0.35756-21.013 0v-200.64m21.013 20.186v97.904c5.0936 0 11.024 0.60035 14.248-3.12 4.04-4.88 4.71-11.61 4.9-17.72 0.04-17 0-33.99 0.03-50.99-0.03-7.52-0.25-15.66-4.63-22.11-3.0282-4.3043-9.5249-3.9637-14.548-3.9637z"/>
 </g>
</svg>
