<svg width="800" height="800" space="preserve" version="1.1" viewBox="0 0 800 800" xmlns="http://www.w3.org/2000/svg">
 <path class="st0" d="m800 800h-503.07c-163.83 0-296.93-133.25-296.93-296.93v-503.07h503.07c163.83 0 296.93 133.25 296.93 296.93z" fill="#10100f" stroke-width="1.5845"/>
 <path class="st1" d="m754.84 754.84h-446.19c-145.3 0-263.34-118.2-263.34-263.34v-446.35h446.19c145.3 0 263.34 118.2 263.34 263.34zm-667.7-667.7v404.2c0 122.32 99.188 221.35 221.35 221.35h263.5c77.639 0 140.7-63.062 140.7-140.7v-263.34c0-122.32-99.188-221.35-221.35-221.35h-404.2z" fill="#ce0e2d" stroke-width="1.5845"/>
 <g transform="matrix(1.5845 0 0 1.5845 -38.661 -38.661)" fill="#ce0e2d">
  <path class="st1" d="m258.5 211.4-7.4-11.3h-7.9v11.3h-11.1v-45.2h22c9.3 0 16.2 7.9 16.2 17.8 0 6.5-3.3 11.2-8.1 13.8l10 13.6zm-15.4-21.3h9.2c3.7 0 6.8-2.4 6.8-6.2 0-3.7-3-6.7-6.7-6.7h-9.3z"/>
  <path class="st1" d="m313.6 205.2h-21.9l-3.1 6.2h-12.3l22.5-45.2h8.2l21.7 45.2h-12zm-4.2-8.9-6.8-14.5-6.4 14.5z"/>
  <path class="st1" d="m378 188.7c0 12.5-10.1 22.7-22.6 22.7h-21.4v-45.2h21.4c13.8-0.1 22.6 10 22.6 22.5zm-10.9 0c0-6.8-5-11.7-10.7-11.7h-11.6v23.5h11.6c5.6-0.2 10.7-5.1 10.7-11.8z"/>
  <path class="st1" d="m394.9 166.1v45.2h-10.9v-45.2z"/>
  <path class="st1" d="m452.1 188.8c0 13.2-10.6 23.8-23.8 23.8s-23.9-10.7-23.9-23.8 10.7-23.9 23.9-23.9 23.8 10.7 23.8 23.9zm-10.4 0c0-7.4-6-13.4-13.4-13.4-7.5 0-13.4 6.1-13.4 13.4s6 13.4 13.4 13.4 13.4-6 13.4-13.4z"/>
 </g>
 <g fill="#fff" stroke-width="1.5845">
  <path class="st2" d="m313.88 322.92v41.355c0 27.094-19.014 45.157-42.781 45.157-24.084 0-42.939-18.063-42.939-45.157v-41.355h20.598v41.355c0 13.31 9.3484 24.242 22.341 24.242 12.834 0 22.183-11.091 22.183-24.242v-41.355z"/>
  <path class="st2" d="m417.83 322.92v84.452h-20.281v-43.098l-19.806 43.098h-8.873l-19.489-42.781v42.781h-20.44v-84.452h20.44v0.3169l23.926 47.376 24.242-47.851v0.15844-0.15844h20.281z"/>
  <path class="st2" d="m509.09 380.27c0 16.954-13.31 26.936-26.144 26.936h-47.693v-84.452h45.157c12.2 0 25.193 8.873 25.193 25.193 0 5.5457-1.426 10.458-3.4858 14.26 3.9612 4.7534 6.9717 10.616 6.9717 18.063zm-53.397-24.401h23.767c3.9612-0.15845 7.447-3.4858 7.447-8.2393 0-4.595-3.4858-8.2393-7.447-8.2393h-23.767zm34.858 25.51c0-5.3872-3.9612-9.0315-8.2392-9.0315h-26.619v17.905h26.619c4.4365 0 8.2392-3.8027 8.2392-8.873z"/>
  <path class="st2" d="m543.63 341.14v15.052h34.225v18.063h-34.225v15.052h43.256v18.063h-63.537v-84.452h63.537v18.221z"/>
  <path class="st2" d="m652.33 407.37-13.943-21.073h-14.736v21.073h-20.598v-84.452h41.038c17.271 0 30.263 14.736 30.263 33.274 0 12.2-6.1794 20.915-15.052 25.668l18.538 25.51zm-28.679-39.612h17.112c6.8132 0 12.676-4.595 12.676-11.567 0-6.8132-5.5456-12.517-12.517-12.517h-17.271z"/>
  <path class="st2" d="m311.98 521.93c0 50.545-40.879 91.424-91.424 91.424-50.862 0-91.741-40.879-91.741-91.424s40.879-91.741 91.741-91.741c50.545-0.15845 91.424 41.038 91.424 91.741zm-40.087 0c0-28.362-22.975-51.654-51.337-51.654-28.679 0-51.654 23.292-51.654 51.654s22.975 51.337 51.654 51.337c28.362 0 51.337-22.975 51.337-51.337z"/>
  <path class="st2" d="m579.6 472.01v31.056h79.382v37.235h-79.382v31.056h98.079v41.989h-140.23v-178.73h140.23v37.394z"/>
  <path class="st2" d="m152.58 432.4v-75.579l42.147 50.545h20.281v-84.452h-20.281v52.604l-42.147-52.604h-20.123v130.56c5.7041-7.7639 12.517-14.894 20.123-21.073z"/>
  <path class="st2" d="m469 613.35-98.871-111.39v111.23h-41.196v-178.73h24.559c10.458 0 20.281 4.9119 26.619 13.151l143.08 165.74z"/>
  <path class="st2" d="m479.3 434.46c-1.426 19.647-26.302 22.5-26.302 22.5v18.538h26.302v24.559c0 6.021 1.9014 12.042 5.5456 16.795l35.651 48.01v-130.4z"/>
 </g>
</svg>
