<svg id="a" width="1725pt" height="672.63pt" version="1.1" viewBox="0 0 1725 672.63" xmlns="http://www.w3.org/2000/svg">
 <g id="b" transform="translate(-36.9 -12.946)">
  <path id="c" d="m445.89 37.96c28.93-13.42 60.05-23 92.03-24.8 13.78-0.53 27.85-0.35 41.14 3.76 10.67 3.08 20.42 8.78 28.94 15.84 4.56 3.42 9.02 7.84 15 8.39 7.37 0.77 15.42 0.82 21.91-3.31 7.34-4.47 10.73-12.88 13.62-20.57 3.34-0.02 6.68-0.01 10.02-0.04-19.18 53.62-38.49 107.21-57.67 160.83-3.77-0.23-7.52-0.58-11.27-0.88 8.08-23.03 13.41-46.98 16.35-71.2 1.99-18.09 2.49-37.21-4.72-54.3-4.93-11.67-14.95-20.8-26.84-25.03-10-3.75-20.79-4.77-31.39-4.89-19.49 0.46-37.61 9.32-53.48 20.04-19.77 13.39-37.01 30.17-52.94 47.88-19.65 22.03-37.23 45.84-53.39 70.53-34.52 53.19-63.25 110.3-83.75 170.34-8.9 26.77-16.03 54.25-19.07 82.35-2.71 25.3-2.79 51.35 4.08 76.03 4.69 16.74 12.96 32.84 25.73 44.85 7.69 7.19 16.87 13.05 27.06 15.91 3.17 0.96 6.5 0.88 9.76 0.63 23.53-0.82 46.71-7.59 67.34-18.84 29.59-16.09 54.1-40.15 74.39-66.76 10.4-13.57 19.72-27.95 28.33-42.71 3.52-0.03 7.04-0.02 10.57-0.02-19.4 33.91-40.55 67.5-69.12 94.53-11.55 10.78-23.98 20.8-37.85 28.45-27.65 7.41-55.29 14.88-82.72 23.11-3.57 1.01-7.32 0.6-10.97 0.68-23.23-0.59-46.45-6.43-66.78-17.8-14.35-8.09-27.23-18.84-37.41-31.81-16.04-20.16-25.54-44.94-29.61-70.24-5.02-31.14-2.78-63.02 2.84-93.93 13.12-72.68 46.14-141.19 92.47-198.51 39.99-49.27 89.79-91.38 147.4-118.51z"/>
  <path id="d" d="m634.75 177.75c21.45-0.1 42.89 0.08 64.33 0.3-29.75 82-59.28 164.09-88.97 246.12-1.82 5.12-4.14 10.33-3.63 15.9 0.11 4.73 3.55 9.63 8.5 10.09 4.13 0.25 8.27-0.04 12.4 0.16-0.31 2.06-0.62 4.12-0.93 6.19-29.27-0.04-58.55 0.05-87.83-0.04 0.31-2.09 0.63-4.16 0.95-6.24 5.88-0.13 12.61 1.02 17.52-3.06 5.92-5.07 8.78-12.66 11.58-19.72 25.85-70.35 51.85-140.66 76.31-211.5 2.41-7.3 4.94-14.57 6.97-21.99 0.83-3.04 1.15-7.23-2.03-9.04-5.03-2.46-10.78-0.9-16.12-1.14 0.27-2.01 0.6-4.02 0.95-6.03z"/>
  <path id="e" d="m928.5 213.66c9.53-1.49 19.58-1.31 28.7 2.06 5.91 2.24 10.85 6.53 14.46 11.67 2.2 2.67 4.44 6.44 8.37 6.41 3.57-0.02 6.05-3.03 7.78-5.82 2.24-3.82 4.17-7.81 6.3-11.7 1.39-0.01 2.81-0.01 4.24 0-9.45 26.02-18.27 52.28-27.58 78.35-0.71 0.05-2.12 0.16-2.83 0.21 2.48-15.14 5.35-30.47 4.03-45.88-0.81-7.86-3.22-16.2-9.42-21.52-6.41-5.59-15.43-6.9-23.64-6.36-7.97 0.63-15.02 5.72-19.16 12.4-4.91 7.58-7.37 16.57-8.21 25.5-0.47 19.27 3.99 38.28 9.82 56.53 5.73 17.78 12.27 35.59 13.61 54.38 1.2 17.88-0.85 36.31-8.19 52.79-6.22 14.12-17.15 26.26-31.01 33.19-10.96 5.39-23.48 8.03-35.66 6.49-7.83-1.11-14.47-6.03-19.51-11.88-3.38-3.49-6.56-8.03-11.7-8.84-4.52-0.44-9.37 1.47-11.9 5.34-2.67 3.68-3.64 8.19-5.55 12.23-0.87 0.03-2.6 0.09-3.47 0.12 9.35-28.49 18.62-57.01 28.09-85.46 0.63-0.14 1.89-0.42 2.53-0.56-2 14.83-3.58 29.89-1.95 44.84 1.16 10.6 3.86 21.78 11.4 29.73 11.25 11.7 32.68 8.98 41.83-4.02 6.8-9.47 8.95-21.49 9.13-32.92-0.74-23.32-9.2-45.34-15.53-67.51-5.43-18.63-9.12-38.03-7.96-57.5 0.67-17.78 4.73-36.23 15.89-50.51 8.89-11.76 22.57-19.53 37.09-21.76z"/>
  <path id="f" d="m1022 223.05c12.46-8.52 28.21-11.62 43.09-9.72 7.18 0.92 14.47 3.56 19.56 8.91 3.33 3.07 5.52 7.16 8.92 10.16 2.81 2.44 7.21 1.4 9.43-1.34 3.65-4.43 5.73-9.86 8.58-14.79 1.34-0.01 2.7-0.01 4.08-0.01-9.19 26.03-18.06 52.18-27.46 78.14-0.7 0.14-2.1 0.41-2.8 0.55 2.36-14.9 5.27-29.94 4.1-45.09-0.68-7.99-2.94-16.42-9.03-22.03-6.29-5.79-15.35-7.26-23.6-6.77-8.83 0.46-16.52 6.45-20.7 14-4.42 7.94-6.91 16.98-7.28 26.05 0.12 17.15 3.57 34.11 8.7 50.42 6.11 19.81 13.89 39.48 14.97 60.42 1.03 19.52-1.91 39.79-11.52 57.05-6.93 12.09-17.41 22.65-30.47 27.86-11.87 0.64-23.74 1.31-35.59 2.18-2.56 0.18-5.16 0.35-7.65-0.34-6.06-3.73-10.12-9.72-15.33-14.4-4.97-4.63-13.59-2.95-17.34 2.41-2.72 3.73-4.04 8.22-5.54 12.52-0.92 0.01-2.76 0.03-3.68 0.04 9.14-27.82 18.21-55.66 27.41-83.45 0.19-1.84 1.5-2.5 3.23-2.52-2.48 17.72-4.18 35.95-0.62 53.65 1.98 8.77 5.56 17.9 12.97 23.49 8.14 6.2 19.64 5.95 28.69 1.95 9.43-4.35 14.8-14.21 17.13-23.92 2.83-10.61 2.72-21.75 0.75-32.49-4.73-28.87-17.66-55.78-21.08-84.93-2.12-18.07-1.55-36.75 3.83-54.23 4.3-13.4 12.42-25.87 24.25-33.77z"/>
  <path id="g" d="m738.69 222.72c14.76-8.58 32.61-10.63 49.28-7.84 12.59 2.02 24.8 8.28 32.47 18.67 7.45 10.1 11.34 22.89 10.8 35.42-2.42 19.07-10.49 36.73-16.92 54.66-13.05 35.36-26.67 70.53-38.36 106.37-1.19 4.73-3.75 9.65-2.22 14.58 1.81 2.93 5.78 1.97 8.3 0.59 6.05-3.44 10.36-9.15 14.38-14.69 11.5-16.79 19.59-35.75 25.44-55.19 0.84-0.02 2.52-0.07 3.36-0.09-5.21 18.57-11.71 36.9-20.9 53.9-6.09 10.7-13.08 21.65-23.82 28.21-5.81 3.69-12.95 3.54-19.56 3.31-7.22-0.43-14.02-4.47-18.01-10.47-5.01-6.35-4.55-14.89-4.76-22.52-9.31 12.83-20.93 24.84-36.04 30.57-13.31 5.22-28.51 3.89-41.34-2.08-12.6-5.62-23.23-16.43-27-29.9-4.18-13.93-0.99-28.7 3.54-42.13 5.26-16.16 15.18-30.69 28.19-41.62 14.7-12.45 32.18-20.9 49.27-29.51 19.62-9.4 38.98-19.39 57.54-30.74 11.91-7.68 21.94-18.9 26.56-32.45 1.74-5.52 3.13-11.82 0.44-17.28-2.9-6.15-9.51-9.46-15.89-10.8-13.1-2.55-27.29-0.21-38.49 7.17-6.12 4.07-11.08 10.54-11.71 18.03-0.7 6.15 1.38 12.1 2.12 18.13 0.64 7.8-0.34 16.37-5.58 22.54-5.43 6.79-16.93 7.83-23.26 1.8-4.77-5.7-4.65-13.96-3.19-20.86 5.99-18.68 18.22-35.84 35.36-45.78m6.85 87.72c-17.65 13.11-34.15 28.07-47.27 45.81-11.64 15.74-20.53 34.02-22.88 53.63-1.01 9.26-1.44 19.24 2.86 27.79 3.22 6.55 10.7 9.88 17.76 9.61 8.83 0.34 17.17-3.96 23.5-9.85 11.4-10.66 18.5-24.89 25.03-38.84 17.48-39.1 28.47-80.65 43.34-120.73-12.14 13.26-28.09 21.91-42.34 32.58z"/>
  <path id="h" d="m1129.5 216.77c22.27-0.57 44.56-0.11 66.84-0.29-25.61 70.87-51.29 141.72-76.93 212.58-2.23 6.12-3.17 14.52 2.5 19.09 5 3.45 11.5 1.66 17.19 2.09-0.03 0.49-0.09 1.48-0.12 1.98-30.21 0.44-60.41 1.46-90.6 2.74 0.22-1.58 0.44-3.16 0.69-4.71 6.25-0.08 13.44 0.8 18.5-3.73 6.21-5.8 9.23-14.06 12.16-21.84 15.88-43.18 31.63-86.42 47-129.79 6.96-20.19 14.38-40.25 20.33-60.76 0.85-3.33 1.82-8.25-1.98-10.11-5.15-2.33-10.98-0.85-16.42-1.3 0.26-1.99 0.56-3.96 0.84-5.95z"/>
  <path id="i" d="m1421.8 224.05c9.87-5.14 21.06-7.28 32.13-7.32 11.17 0.14 22.65 2.05 32.39 7.81 13.7 7.86 21.78 23.07 23.61 38.44 1.35 8.13-0.93 16.23-2.95 24.05-2.5 9.65-6.31 18.88-9.72 28.23-11.53 30.9-23.15 61.77-34.15 92.87-3.3 9.59-6.76 19.14-9.44 28.93-0.8 2.51-0.77 5.16-0.53 7.76 2.8 3.16 7.32 1.66 10.26-0.51 6.13-4.45 10.64-10.7 14.8-16.95 10.05-15.78 17.4-33.18 22.77-51.07 0.83-0.01 2.5-0.04 3.34-0.05-5.12 18.11-11.43 35.98-20.33 52.6-5.18 9.42-11.21 18.64-19.56 25.56-3.4 2.6-7.21 4.95-11.48 5.71-3.33 0.38-6.67 0.02-9.98-0.07-2.42-0.16-4.82-0.29-7.21-0.47-6.64-1.61-11.81-6.83-14.9-12.73-2.76-5.97-2.36-12.71-2.46-19.11-8.43 11.79-18.75 23.11-32.33 28.85-15.63-0.87-31.28-1.45-46.91-2.19-13.38-5.68-23.04-19.1-25.25-33.39-2.05-12.55 1.13-25.21 5.14-37.04 4.93-14.23 13.32-27.25 24.5-37.38 14.03-12.87 31.2-21.51 48.08-29.98 20.74-10.17 41.49-20.43 61.12-32.65 13.18-8.7 24.14-22.01 27.08-37.83 1.19-5.29-0.17-11.21-4.12-15.04-5.38-5.44-13.38-7.13-20.76-7.34-10.79-0.47-21.85 2.32-30.75 8.53-5.55 3.92-10 9.93-10.74 16.83-1.1 8.44 3.24 16.5 2.12 24.97-0.32 7.99-3.86 17.04-11.82 20.15-6.38 2.33-15.33 1.27-18.6-5.44-3.18-6.99-2.68-15.3 0.21-22.31 6.86-17.67 19.3-33.77 36.44-42.42m21.81 75.65c-12.29 8.2-24.33 16.82-35.45 26.57-16.67 14.55-31.68 31.48-41.67 51.36-7.48 14.85-11.78 31.59-10.63 48.28 0.55 7.34 3.29 15.35 10.09 19.13 7.42 3.68 16.52 3.1 23.89-0.47 6.68-3.06 12.01-8.37 16.64-13.96 7.13-9.03 12.57-19.25 17.37-29.67 17.78-39.15 28.67-80.92 43.69-121.12-6.86 7.87-15.38 14-23.93 19.88z"/>
  <path id="j" d="m1281.7 226.73c10.67-3.78 21.94-6.36 33.32-6 8.16-0.22 16.52 2.1 22.97 7.22 3.31 2.97 7.37 5.72 12.09 4.71 5.51-0.29 8.87-5.29 10.35-10.11 1.44-0.02 2.9-0.04 4.38-0.06-8.06 22.65-16.18 45.27-24.36 67.86-1.63-0.17-3.25-0.33-4.86-0.49 3.94-11.21 6.43-22.95 7.35-34.81 0.4-8-0.2-16.95-5.77-23.24-5.28-5.85-13.61-7.28-21.12-7.32-10.6 0.39-19.96 6.29-28.07 12.63-14.34 11.66-25.86 26.34-36.3 41.48-11.66 17.4-21.8 35.84-30.02 55.1-8.04 18.9-14.72 38.7-16.38 59.29-0.9 12.28-0.21 25.14 5.26 36.39 3.96 7.91 10.74 15.05 19.55 17.25 13.99 0.81 27.82-4.38 39.18-12.32 15.22-10.62 26.62-25.75 35.92-41.6 1.51 0.02 3.03 0.04 4.58 0.05-8.33 14.75-17.6 29.28-30.11 40.86-9.05 8.41-19.92 14.99-31.86 18.34-13.34-0.23-26.68-0.21-40.01-0.24-17.83-4.93-31.72-20.12-36.74-37.71-6.09-20.96-3.2-43.35 2.27-64.12 10.23-37.22 32.41-70.87 61.9-95.68 13.87-11.58 29.47-21.26 46.48-27.48z"/>
 </g>
 <g id="k" transform="translate(-36.9 -12.946)" fill="#fe0000">
  <path id="l" d="m1148.5 30.72c14.5-1.27 29.37-1.33 43.58 2.22 9.68 2.46 19.46 7.47 24.57 16.44 4.44 7.34 5.18 16.19 4.86 24.58 0 18.36 0.01 36.72 0 55.08-0.04 8.85-2.61 18.1-8.93 24.56-7.86 8.29-19.46 11.45-30.41 13-14.17 1.68-28.67 1.65-42.69-1.18-10.09-2.15-20.58-6.53-26.54-15.38-4.89-6.97-6.13-15.7-6.18-24.02 0.03-18.67-0.04-37.34 0.03-56.01 0.12-9.31 2.35-19.23 9.11-26.06 8.44-8.75 20.92-11.84 32.6-13.23m12.1 22.12c-3.27 0.66-5.5 3.81-5.29 7.08-0.14 25.35-0.01 50.7-0.07 76.05-0.09 2.36 0.25 4.87 1.77 6.78 3.45 3.16 8.85 3.2 12.9 1.23 3.05-1.83 3.42-5.72 3.35-8.94-0.08-24.99 0.07-49.99-0.07-74.98 0.36-6.55-7.38-8.98-12.59-7.22z"/>
  <path id="m" d="m671.46 164.92c0.09-44.07-0.09-88.15 0.09-132.22 15.81 0.14 31.61 0.04 47.42 0.07 13 0.06 26.16-0.49 38.97 2.13 7.24 1.53 14.93 4.82 18.6 11.65 3.99 7.15 2.76 15.58 2.97 23.41 0.14 6.27-1.01 13.15-5.77 17.65-5.85 5.4-14.24 7.09-21.98 6.95 7.3 1.4 15.23 1.65 21.49 6.18 5.23 3.63 8.01 10.04 7.98 16.32 0.09 15.96-0.09 31.92 0.08 47.88-15.1 0.15-30.2 0.03-45.3 0.07-0.04-16.66-0.01-33.32-0.01-49.98 0.1-3.39-0.69-7.19-3.57-9.3-4.1-2.92-9.44-2.46-14.16-1.9-0.03 20.38-0.08 40.76 0.02 61.14-15.61 0.04-31.22 0.13-46.83-0.05m46.81-110.89c0.07 9.78-0.2 19.56 0.09 29.34 5.17-0.33 11.13 0.05 15.3-3.61 3.24-2.67 2.16-7.14 2.36-10.79-0.21-3.9 0.94-8.68-2.42-11.61-4.17-3.65-10.15-3.31-15.33-3.33z"/>
  <path id="n" d="m788.04 164.96c7.85-44.1 15.72-88.19 23.6-132.28 23.19 0.18 46.38 0.08 69.56 0.05 8.52 44.06 17.08 88.11 25.68 132.16-16.16 0.22-32.32 0.15-48.47 0.04-0.71-7.74-1.62-15.45-2.27-23.18-5.79-0.03-11.58 0.04-17.36-0.05-0.72 7.74-1.64 15.47-2.28 23.23-16.15 0.15-32.31 0.1-48.46 0.03m50.78-47.02c5.51 0.1 11.03 0.08 16.55-0.01-3.17-20.68-5.51-41.48-8.62-62.17-2.76 20.71-5.2 41.47-7.93 62.18z"/>
  <path id="o" d="m913.46 164.93c0.11-44.08-0.04-88.16 0.08-132.23 16.47 0.15 32.95 0.03 49.43 0.07 11.68 0.08 23.43-0.46 35.03 1.23 9.22 1.26 19.18 4.26 24.9 12.14 5.28 7.11 5.62 16.35 5.61 24.86-0.07 23.07 0.12 46.15-0.1 69.22 0.02 7.79-4.76 15.04-11.64 18.54-11.85 6.32-25.71 6.21-38.78 6.25-21.51-0.05-43.02 0.1-64.53-0.08m48.6-109.63c-0.05 29.08-0.13 58.16 0.04 87.23 4.26-0.15 8.83 0.58 12.78-1.46 3.31-1.64 5.23-5.35 5.1-8.99 0.03-22.02-0.01-44.05 0.02-66.07 0.19-3.42-1.21-6.96-4.12-8.88-4.04-2.85-9.23-1.64-13.82-1.83z"/>
  <path id="p" d="m1043.4 164.92c0.13-44.07-0.05-88.14 0.09-132.2 16.06 0.1 32.13 0.04 48.2 0.02 0.03 44.08 0 88.16 0.01 132.24-16.1 0.01-32.2 0.13-48.3-0.06z"/>
  <path id="q" d="m1048.4 454.96c30.19-1.28 60.39-2.3 90.6-2.74 22.93-0.61 45.88-0.42 68.82-0.5 13.33 0.03 26.67 0.01 40.01 0.24 30.47 0.45 60.94 1.28 91.4 2.43 15.63 0.74 31.28 1.32 46.91 2.19 16.57 0.87 33.13 1.89 49.69 2.99 2.39 0.18 4.79 0.31 7.21 0.47 106.83 7.63 213.55 19.33 318.94 38.64v13.15c-202.72-33.26-408.77-45.73-614-37.21-219.29 9.06-437.67 41.32-650.02 96.88-2.24 0.58-4.56 1-6.51 2.32-1.7 0.18-3.53-0.03-5.02 1-0.94 0.11-1.88 0.23-2.81 0.36-1.62 0.68-3.35 0.99-5.01 1.49-1.52 0.94-3.22 1.39-4.98 1.61-1.29 0.56-2.69 0.77-4.06 1.03-9.12 2.09-18.03 5-27.07 7.4-1.39 0.25-2.83 0.38-4.08 1.07-0.48 0.11-1.43 0.31-1.91 0.42-3.28 2.28-7.43 1.99-11.05 3.38-83.25 24.4-165.65 52.11-245.54 86.01-5.4 2.31-10.76 4.72-16.12 7.15-0.35989 0.16991-1.2084 0.57275-1.7401 0.84h-125.13c100.47-46.92 204.82-85.79 311.05-117.5 27.43-8.23 55.07-15.7 82.72-23.11 173.24-44.97 350.84-72.29 529.3-84.93 3.09-0.23 6.18-0.44 9.29-0.52l-1.92-0.82c2.49 0.69 5.09 0.52 7.65 0.34 11.85-0.87 23.72-1.54 35.59-2.18 12.59-0.73 25.19-1.33 37.79-1.9z"/>
 </g>
</svg>
