<svg id="a" width="28.667mm" height="55.858mm" version="1.1" viewBox="0 0 28.667 55.858" xmlns="http://www.w3.org/2000/svg">
 <g id="b" transform="translate(31.342 -120.9)">
  <g id="c" transform="matrix(.26458 0 0 .26458 -31.342 120.9)" fill="#074f96">
   <g id="d">
    <path id="e" d="m23.861 21.289c-0.286 0.16-0.49 0.483-0.49 0.83 0 0.297 0.136 0.562 0.354 0.729l-7e-3 -3e-3s0.12 0.095 0.166 0.191c0.039 0.078 0.062 0.143 0.071 0.202 8e-3 0.042 0.012 0.08 0.012 0.115v0.07c-0.012 0.121-0.07 0.196-0.119 0.237l-6e-3 0.01c-0.267 0.223-0.374 0.462-0.374 0.766 0 0.479 0.351 0.87 0.81 0.944 0.02 0.117 0.033 0.226 0.056 0.344-0.295 0.169-0.478 0.489-0.478 0.854 0 0.474 0.333 0.867 0.774 0.962s0.089 0.013 0.115 0.097c0.024 0.081 0.024 0.126-0.011 0.206-6e-3 7e-3 -7e-3 0.014-0.013 0.024-0.204 0.261-0.325 0.596-0.325 0.958 0 0.706 0.466 1.302 1.093 1.474l8e-3 5e-3s0.179 0.021 0.309-0.08c0 0 0.073-0.042 0.102-0.139 0 0 0.512 0.956 1.295 2.136 0.19 0.274 0.353 0.543 0.402 0.879v0.408c0.063 0.65 0.284 0.895 0.488 1.139 0.49 0.542 1.061 0.621 1.631 0.736 0.083 0.204 0.206 0.408 0.327 0.611 0.25 0.374 0.483 0.484 0.767 0.643 0.392 0.255 0.603 0.593 0.586 1.042s-0.035 0.291-0.187 0.497c-0.153 0.206-0.284 0.607 0 1.058 0.288 0.462 0.439 0.631 0.715 0.925l0.107 0.102c-0.077 0.328-0.031 0.831 0.161 1.469 0.302 0.977 0.737 1.465 1.109 1.505 0.408 0.383 0.305 1.139 0.552 1.594 0-1.514 9.219-3.059 20.131-3.059 10.914 0 20.141 1.545 20.141 3.059 0.238-0.452 0.143-1.207 0.543-1.594 0.371-0.04 0.808-0.527 1.108-1.505 0.201-0.657 0.246-1.144 0.158-1.469 0.121-0.119 0.199-0.232 0.321-0.355 0.367-0.488 0.845-1.024 0.6-1.554-0.057-0.109-0.104-0.158-0.19-0.238-0.353-0.962 0.408-1.394 1.015-1.895 0 0 0.208-0.147 0.359-0.41 0.085-0.144 0.161-0.286 0.217-0.426 0.573-0.204 1.225-0.408 1.634-0.855 0.202-0.246 0.406-0.531 0.485-1.02l4e-3 -0.408c0.083-0.529 0.433-0.892 0.763-1.381 0.199-0.282 0.717-1.313 0.933-1.618 0.06 0.232 0.399 0.232 0.399 0.232l0.019-4e-3c0.626-0.171 1.092-0.764 1.092-1.473 0-0.367-0.126-0.696-0.327-0.959-5e-3 -8e-3 -8e-3 -0.017-0.012-0.026-0.033-0.081-0.037-0.123-0.01-0.207 0.025-0.082 0.115-0.093 0.115-0.093l-2e-3 -2e-3c0.441-0.094 0.78-0.487 0.78-0.958 0-0.369-0.187-0.687-0.485-0.856 0.025-0.118 0.036-0.23 0.059-0.347 0.459-0.069 0.809-0.464 0.809-0.94 0-0.306-0.11-0.542-0.371-0.766l-0.011-0.01c-0.045-0.039-0.109-0.119-0.113-0.238-2e-3 -0.022-2e-3 -0.047-2e-3 -0.071 0-0.033 2e-3 -0.071 0.012-0.112 0.011-0.059 0.03-0.125 0.07-0.201 0.048-0.099 0.16-0.191 0.16-0.191h-1e-3c-0.017 0.016-0.046 4e-3 -0.08-0.013 0.014-9e-3 0.029-0.013 0.029-0.013l0.051 0.026c0.217-0.17 0.354-0.433 0.354-0.729 0-0.347-0.207-0.669-0.482-0.83-0.071-0.046-0.107-0.104-0.146-0.189-0.028-0.107-0.037-0.192-0.01-0.31 0.014-0.075 0.084-0.177 0.127-0.22 0.246-0.163 0.412-0.443 0.412-0.763 0-0.415-0.27-0.772-0.648-0.886-0.121-0.028-0.16-0.112-0.19-0.172-0.025-0.074-0.038-0.25-0.038-0.25 3e-3 -0.087 3e-3 -0.146 0.06-0.236 0.113-0.15 0.188-0.337 0.188-0.54 0-0.452-0.377-0.824-0.815-0.875-0.128-0.03-0.128-0.067-0.167-0.122-0.047-0.061-0.103-0.229-0.103-0.229-0.017-0.085-0.044-0.15 0-0.245 0.067-0.124 0.11-0.268 0.11-0.419 0-0.479-0.389-0.865-0.864-0.865-0.044 0-0.087 6e-3 -0.135 0.015 0 0-0.154 0.046-0.296-0.087l-0.043-0.053s-0.143-0.148-0.07-0.33c0.069-0.142 0.113-0.271 0.113-0.426 0-0.47-0.378-0.848-0.843-0.848-0.137 0-0.274 0.03-0.391 0.089 0 0-0.124 0.065-0.258-0.018l-0.133-0.116s-0.113-0.149-0.079-0.32c9e-3 -0.048 0.017-0.098 0.017-0.147 0-0.459-0.373-0.831-0.832-0.831-0.072 0-0.162 0.036-0.229 0.052 0 0-0.155 0.042-0.247-0.019 0 0-0.186-0.151-0.23-0.194-0.038-0.043-0.095-0.082-0.095-0.257 0.011-0.448-0.359-0.812-0.806-0.812-0.081 0-0.156 2e-3 -0.23 0.022 0 0-0.179 0.06-0.265 0.027-0.092-0.034-0.239-0.069-0.365-0.243-0.064-0.093-0.064-0.148-0.079-0.179-0.111-0.305-0.399-0.524-0.746-0.524-0.086 0-0.197 0.013-0.274 0.04 0 0-0.188 0.04-0.314-0.012l-0.134-0.059s-0.135-0.063-0.198-0.18l-3e-3 -9e-3c-0.127-0.262-0.414-0.43-0.724-0.43-0.112 0-0.223 0.023-0.316 0.067 0 0-0.148 0.062-0.333 0-0.174-0.062-0.333-0.13-0.371-0.224-0.12-0.261-0.367-0.409-0.674-0.409-0.145 0-0.278 0.038-0.392 0.106 0 0-0.102 0.061-0.27 0.024 0 0-0.08-0.018-0.152-0.068 0 0-0.048-0.019-0.077-0.09-0.12-0.269-0.379-0.455-0.69-0.455-0.185 0-0.329 0.082-0.46 0.193 0 0-0.107 0.056-0.185 0.045-0.109-0.013-0.214-0.041-0.214-0.041s-0.087-0.022-0.14-0.083c0 0-0.029-0.04-0.045-0.099-0.104-0.29-0.413-0.485-0.733-0.485-0.241 0-0.453 0.114-0.587 0.291 0 0-0.111 0.104-0.264 0.068 0 0-0.206-0.016-0.285-0.144-0.086-0.303-0.363-0.521-0.688-0.521-0.228 0-0.43 0.103-0.565 0.266 0 0-0.079 0.117-0.234 0.106-0.158-0.011-0.241-0.031-0.313-0.181-0.088-0.285-0.352-0.464-0.666-0.454-0.221 0.01-0.413 0.118-0.537 0.277 0 0-0.121 0.132-0.312 0.092 0 0-0.142 5e-3 -0.211-0.151-0.099-0.272-0.368-0.457-0.67-0.436-0.206 0.015-0.378 0.115-0.486 0.272 0 0-0.096 0.104-0.261 0.079l-0.047-7e-3s-0.135-1e-3 -0.199-0.139c-0.084-0.266-0.331-0.432-0.623-0.422-0.195 8e-3 -0.38 0.108-0.494 0.255 0 0-0.084 0.103-0.226 0.082l-0.088-0.014s-0.141-0.015-0.203-0.127c-0.088-0.245-0.317-0.406-0.591-0.388-0.186 0.014-0.354 0.112-0.452 0.256 0 0-0.062 0.085-0.174 0.078l-0.112-0.018s-0.123-0.01-0.16-0.134c-0.076-0.234-0.279-0.398-0.539-0.388-0.177 3e-3 -0.342 0.091-0.436 0.223-0.607-0.084-1.016-0.112-1.096-0.124l-0.022-7e-3 0.018-0.023 4e-3 -2e-3c0.46-0.377 0.46-0.879 0.387-1.445 0 0 0.092-0.253 0.292-0.384 0.198-0.126 0.465-0.249 0.465-0.249-0.829-0.154-0.778-0.546-0.778-0.546 0-2.06-1.766-3.673-3.951-3.673-2.189 0-3.971 1.613-3.971 3.673 0 0 0.047 0.392-0.781 0.546 0 0 0.271 0.123 0.462 0.249 0.2 0.131 0.299 0.384 0.299 0.384-0.074 0.566-0.08 1.068 0.381 1.445-0.08 0.012-0.49 0.039-1.097 0.123-0.1-0.129-0.257-0.219-0.433-0.226-0.263-9e-3 -0.464 0.157-0.54 0.392-0.041 0.123-0.16 0.132-0.16 0.132l-0.112 0.018c-0.114 0.011-0.173-0.078-0.173-0.078-0.101-0.142-0.267-0.241-0.458-0.253-0.273-0.021-0.496 0.142-0.587 0.387-0.065 0.11-0.207 0.129-0.207 0.129l-0.091 0.01c-0.137 0.024-0.221-0.078-0.221-0.078-0.113-0.151-0.295-0.25-0.496-0.256-0.289-0.01-0.538 0.156-0.625 0.419-0.061 0.139-0.192 0.141-0.192 0.141l-0.054 9e-3c-0.161 0.024-0.258-0.08-0.258-0.08-0.111-0.16-0.279-0.258-0.486-0.271-0.303-0.02-0.573 0.164-0.669 0.436-0.073 0.154-0.212 0.152-0.212 0.152-0.192 0.037-0.312-0.094-0.312-0.094-0.118-0.162-0.319-0.268-0.534-0.274-0.32-0.015-0.579 0.165-0.672 0.452-0.068 0.149-0.154 0.169-0.311 0.18-0.153 0.013-0.234-0.104-0.234-0.104-0.135-0.164-0.338-0.27-0.56-0.27-0.335 0-0.608 0.222-0.69 0.523-0.083 0.128-0.285 0.143-0.285 0.143-0.153 0.039-0.264-0.069-0.264-0.069-0.136-0.176-0.348-0.29-0.585-0.29-0.328 0-0.633 0.197-0.729 0.488-0.024 0.054-0.055 0.097-0.055 0.097-0.05 0.062-0.14 0.084-0.14 0.084s-0.104 0.028-0.21 0.042c-0.076 7e-3 -0.188-0.048-0.188-0.048-0.128-0.111-0.276-0.19-0.461-0.19-0.31 0-0.573 0.187-0.683 0.453-0.033 0.071-0.081 0.093-0.081 0.093-0.073 0.049-0.154 0.066-0.154 0.066-0.167 0.035-0.273-0.025-0.273-0.025-0.113-0.068-0.243-0.106-0.387-0.106-0.307 0-0.558 0.149-0.678 0.41-0.033 0.094-0.197 0.162-0.367 0.223-0.183 0.064-0.337 0-0.337 0-0.096-0.044-0.195-0.066-0.312-0.066-0.312 0-0.599 0.166-0.726 0.43l-5e-3 6e-3c-0.062 0.117-0.197 0.18-0.197 0.18l-0.126 0.061c-0.125 0.053-0.32 0.011-0.32 0.011-0.073-0.025-0.188-0.038-0.269-0.038-0.343 0-0.636 0.217-0.747 0.524-0.013 0.03-0.013 0.084-0.085 0.176-0.12 0.176-0.269 0.211-0.357 0.244-0.093 0.033-0.269-0.027-0.269-0.027-0.074-0.019-0.149-0.021-0.229-0.021-0.45 0-0.817 0.364-0.812 0.815 5e-3 0.172-0.05 0.212-0.092 0.253-0.042 0.044-0.226 0.193-0.226 0.193-0.099 0.063-0.249 0.022-0.249 0.022-0.068-0.021-0.154-0.051-0.229-0.051-0.46 0-0.827 0.37-0.827 0.829 0 0.052 5e-3 0.101 0.014 0.147 0.036 0.171-0.081 0.32-0.081 0.32l-0.137 0.118c-0.135 0.082-0.256 0.017-0.256 0.017-0.117-0.059-0.248-0.089-0.389-0.089-0.466 0-0.848 0.38-0.848 0.846 0 0.156 0.054 0.286 0.119 0.426 0.073 0.184-0.069 0.332-0.069 0.332l-0.047 0.052c-0.142 0.134-0.293 0.086-0.293 0.086-0.045-7e-3 -0.09-0.012-0.136-0.012-0.479 0-0.863 0.386-0.863 0.862 0 0.152 0.039 0.294 0.108 0.417l4e-3 5e-3c0.039 0.093 0.017 0.158-4e-3 0.244 0 0-0.053 0.167-0.1 0.228-0.039 0.056-0.039 0.092-0.171 0.121-0.435 0.052-0.813 0.424-0.813 0.875 0 0.203 0.067 0.391 0.187 0.54 0.053 0.089 0.062 0.15 0.062 0.238 0 0-0.015 0.177-0.042 0.247-0.026 0.062-0.065 0.144-0.188 0.173-0.378 0.112-0.647 0.47-0.647 0.886 0 0.318 0.169 0.598 0.41 0.765 0.05 0.04 0.11 0.142 0.131 0.221 0.027 0.113 0.017 0.201-0.01 0.307-0.045 0.085-0.077 0.144-0.139 0.19zm0.073 3.26c-0.016-0.408 0.243-0.747 0.589-0.759 0.34-0.013 0.627 0.307 0.646 0.716 0.013 0.406-0.254 0.744-0.595 0.755-0.341 0.013-0.629-0.306-0.64-0.712zm0.353 2.153c-0.024-0.416 0.241-0.766 0.589-0.783 0.348-0.019 0.65 0.302 0.672 0.717 0.021 0.413-0.243 0.765-0.592 0.783-0.354 0.019-0.647-0.303-0.669-0.717zm1.808 1.928c-0.03 0-0.055-3e-3 -0.081-7e-3 0 0-0.586-0.124-0.653 0.402-0.069 0.598 0.235 0.942 0.355 1.034 0 0-0.588-0.096-0.744-0.832s0.303-1.163 0.923-1.467c0.061-0.026 0.129-0.044 0.2-0.044 0.251 0 0.454 0.203 0.454 0.457 0 0.252-0.203 0.457-0.454 0.457zm1.921 2c-0.123-0.705-0.608-1.387-0.647-0.878-0.041 0.509 0.092 1.138 0.038 1.353-0.058 0.217-0.212 0.372-0.268 0.243-0.263-0.596-0.607-1.401-0.607-1.401 0.372-0.26 0.695-0.562 0.796-0.787 0.097-0.229 0.148-1.115 0.766-1.069 0.619 0.047 0.593 0.442 0.414 0.482-0.18 0.038-0.26 0.223-0.269 0.537-0.041 1.193 0.353 1.546 0.237 2.212-0.104 0.664-0.183 0.655-0.232 0.598-0.05-0.057-0.182-1.045-0.228-1.29zm1.548 4.106c-0.263 0.182-0.738-0.053-1.071-0.525-0.328-0.473-0.386-1.004-0.122-1.188 0.255-0.181 0.733 0.054 1.068 0.525 0.33 0.476 0.387 1.007 0.125 1.188zm0.817-0.217c0.047-0.055 0.882-0.136 1.093-0.17 0.595-0.092 1.138-0.61 0.693-0.701-0.444-0.088-0.973 0.028-1.168-0.056-0.189-0.083-0.236-0.19-0.23-0.34 5e-3 -0.111-0.073-0.242-0.073-0.242s-0.07-0.143-0.165-0.204c-0.132-0.083-0.191-0.184-0.15-0.381 0.047-0.196 0.455-0.532 0.642-0.926 0.188-0.389-0.573-0.283-1.007 0.12-0.149 0.138-0.717 0.729-0.789 0.733-0.071 3e-3 -0.144-0.047 0.045-0.603 0.191-0.556 0.724-0.5 1.222-1.372 0.126-0.231 0.132-0.422-0.022-0.589-0.145-0.163 8e-3 -0.462 0.608-0.017 0.604 0.444 0.259 1.11 0.246 1.347-0.021 0.529 0.887 2.231 1.348 2.524 0.21 0.136 0.976 0.265 0.996 0.992 0.016 0.726-0.327 0.666-0.378 0.454-0.046-0.214-0.222-0.326-0.489-0.362-1.032-0.139-1.301 0.299-1.881 0.117-0.587-0.185-0.587-0.27-0.541-0.324zm2.774-2.678c0.422 1.231-0.854 1.261-0.999 0.449-0.099-0.586 0.157-1.723-0.318-1.849-0.07-0.017-0.103-0.028-0.103-0.028s0.743-0.041 1.42 1.428zm-1.421-3.434c0-0.495 0.4-0.898 0.896-0.898 0.499 0 0.899 0.404 0.899 0.898 0 0.496-0.399 0.899-0.899 0.899-0.495 0-0.896-0.403-0.896-0.899zm0.506 10.812c-0.25 0-0.449-0.199-0.449-0.445 0-0.198 0.136-0.37 0.319-0.423 0.52-0.197 16.709-6.218 39.815-1.184-22.937-3.385-36.096 0.759-38.859 1.776-0.34 0.129-0.717 0.265-0.717 0.265-0.036 9e-3 -0.07 0.011-0.109 0.011zm1.308 3.69c-0.245 0.076-0.612-0.422-0.821-1.11s-0.234-1.314 4e-3 -1.39c0.242-0.074 0.662 0.433 0.875 1.118 0.21 0.693 0.185 1.308-0.058 1.382zm20.584-2.056c-0.236 0.052-0.487 0.07-0.744 0.059-1.429-0.065-2.545-1.108-2.486-2.326 0.033-0.797 0.562-1.468 1.325-1.819-1.127 0.407-1.877 1.296-1.815 2.293 0.082 1.243 1.422 2.208 3.044 2.232-2.203 0.012-4.328 0.086-6.32 0.213-0.061 0.011-0.127 0.018-0.191 0.018-0.025 0-0.053-1e-3 -0.075-2e-3 -4.12 0.269-7.623 0.748-9.93 1.323-0.04 0.018-0.082 0.037-0.12 0.052-0.078 0.025-0.154 0.035-0.23 0.037-0.059 0.014-0.112 0.027-0.162 0.045-1.121 0.306-1.896 0.643-2.241 0.98l-0.233-0.641c0.152-0.396 0.255-1.13 0.038-1.827-0.312-1.03-1.006-1.705-1.365-1.592l-0.062-0.09 0.131-0.085c0.819-0.373 1.815-0.72 2.962-1.04 0.012-2e-3 0.022-8e-3 0.03-0.011 0.033-0.011 0.07-0.019 0.104-0.025 2.301-0.629 8.504-1.47 8.512-1.47 3.637-0.456 6.237-0.568 8.127-0.664 0 0 0.889-4e-3 1.51 0.034l0.036 1e-3c0.086 5e-3 0.236 0.029 0.236 0.029s1.954 0.236 1.86 2.251c-0.044 1-0.861 1.805-1.941 2.025zm5.521-1.408c-0.054 0.126-0.136 0.205-0.275 0.208-0.294-0.021-0.523-0.263-0.523-0.562 0-0.311 0.252-0.562 0.56-0.562 0.014 0 0.019 0.01 0.032 0.011-0.079 0.07-0.049 0.359 0.065 0.493 0.108 0.134 0.204 0.254 0.141 0.412zm1.317-2.238c9e-3 0 0.024 7e-3 0.031 7e-3 -0.076 0.072-0.047 0.358 0.064 0.495 0.111 0.136 0.205 0.256 0.142 0.413-0.047 0.126-0.134 0.203-0.277 0.209-0.29-0.022-0.52-0.267-0.52-0.561 0-0.314 0.25-0.563 0.56-0.563zm0.378 3.397c-0.05 0.125-0.136 0.203-0.274 0.209-0.293-0.021-0.524-0.264-0.524-0.562 0-0.31 0.253-0.563 0.563-0.563 9e-3 0 0.023 0.01 0.031 0.01-0.078 0.071-0.047 0.359 0.064 0.494 0.11 0.135 0.201 0.254 0.14 0.412zm1.447-1.167c-0.05 0.127-0.136 0.204-0.275 0.209-0.293-0.021-0.522-0.265-0.522-0.562 0-0.311 0.251-0.563 0.563-0.563 9e-3 0 0.02 0.01 0.029 0.01-0.077 0.07-0.048 0.359 0.062 0.494 0.113 0.136 0.207 0.255 0.143 0.412zm2.302-0.363c-0.066 0.237-0.021 0.492 0.113 0.739-0.348-0.333-0.522-0.702-0.439-1.024 0.164-0.626 1.252-0.832 2.435-0.457 0.076 0.026 0.15 0.053 0.226 0.082-1.129-0.284-2.151-6e-3 -2.335 0.66zm5.293 1.647c-0.072 0.094-0.156 0.135-0.263 0.1-0.216-0.098-0.33-0.369-0.259-0.624 0.077-0.267 0.332-0.411 0.567-0.329-0.06 0.057-0.106 0.311-0.057 0.46 0.058 0.146 0.096 0.276 0.012 0.393zm1.084 1.446c-0.074 0.095-0.157 0.137-0.263 0.103-0.216-0.098-0.336-0.37-0.261-0.625 0.079-0.267 0.327-0.411 0.565-0.326-0.06 0.056-0.103 0.311-0.053 0.458 0.054 0.147 0.095 0.271 0.012 0.39zm0.588-2.217c-0.066 0.095-0.151 0.137-0.262 0.102-0.212-0.099-0.326-0.373-0.254-0.628 0.075-0.265 0.329-0.409 0.562-0.322-0.056 0.054-0.103 0.307-0.051 0.457 0.05 0.144 0.094 0.273 5e-3 0.391zm1.127 1.493c-0.069 0.092-0.15 0.133-0.263 0.099-0.212-0.098-0.33-0.371-0.257-0.626 0.075-0.265 0.328-0.411 0.566-0.325-0.061 0.057-0.106 0.312-0.055 0.459 0.052 0.145 0.094 0.275 9e-3 0.393zm-0.304-4.42c-1.104-0.278-2.979-0.661-2.979-0.661-2.082-0.411-5.571-1.144-10.153-1.469-4.578-0.32-9.097-0.145-9.097-0.145-8.8 0-17.518 2.707-18.417 2.997l-0.501-0.941c-0.365-0.606-0.668-1.096-0.805-1.341-0.057-0.097 2e-3 -0.131 0.074-0.106 0 0 0.754 0.49 1.187 0.779 0 0 0.204 0.121 0.234 0.134h1e-3c0.334 0.134 1.006 0.419 1.705-0.445 0.751-0.923 0.451-2.507-0.037-3.875-0.557-1.552 0.268-0.422 0.268-0.422s1.361 1.994 2.573 3.281c1.199 1.278 3.107 0.466 3.2-1.074-5e-3 -0.123-0.013-0.34-0.013-0.34 0-0.289 0.101-0.481 0.292-0.583 0.146-0.083 0.347-0.102 0.572 8e-3 0.203 0.102 0.537 0.58 0.537 0.58s1.055 1.625 2.144 1.358c0.929-0.226 1.833-0.757 2.106-2.18 0 0 0.406-2.808 0.389-3.815l-1e-3 -0.244c-6e-3 -0.169 0.081-0.307 0.191-0.311 0.114-2e-3 0.212 0.131 0.218 0.298l5e-3 0.24s0.644 5.094 3.201 5.444c0 0 1.576 0.285 2.345-0.75 0.766-1.037 0.81-2.56 2.01-2.56h2e-3c1.199 0 1.247 1.524 2.013 2.56 0.77 1.035 2.341 0.75 2.341 0.75 2.563-0.35 3.152-5.443 3.152-5.443l0.02-0.142c0.02-0.132 0.084-0.227 0.199-0.227 0.117-2e-3 0.209 0.136 0.209 0.304v0.235s-0.251 4.402 1.477 5.257c0 0 1.13 0.53 2.662 0.957 0.01 1e-3 0.019 5e-3 0.023 5e-3 0.218 0.062 0.44 0.117 0.667 0.17 1.84 0.431 5.563 1.289 6.402 1.821 0.018 5e-3 0.028 0.01 0.042 0.017-8e-3 -1e-3 -0.018-3e-3 -0.023-7e-3 0.01 7e-3 0.02 0.013 0.027 0.021zm-35.614-22.031c0.362 0.044 0.609 0.455 0.559 0.919-0.06 0.463-0.398 0.803-0.762 0.758-0.363-0.044-0.61-0.456-0.56-0.919 0.058-0.464 0.399-0.803 0.763-0.758zm-0.153-1.348c0.122-0.407 0.484-0.659 0.802-0.559 0.319 0.095 0.479 0.508 0.354 0.913-0.123 0.409-0.484 0.66-0.803 0.561-0.321-0.098-0.479-0.507-0.353-0.915zm-0.064 3.564c0.377-0.019 0.707 0.357 0.735 0.845 0.022 0.485-0.264 0.895-0.642 0.915-0.382 0.018-0.71-0.358-0.738-0.843-0.025-0.486 0.268-0.895 0.645-0.917zm8e-3 2.122c0.612-0.129 1.279 0.58 1.489 1.585 0.215 1.004-0.104 1.925-0.714 2.051-0.612 0.131-1.28-0.58-1.492-1.583-0.212-1.004 0.109-1.922 0.717-2.053zm2.611 0.244s0.241 0.741 0.689 1.443l-0.023 0.029-1.354 1.729c0-9e-3 8e-3 -0.016 0.012-0.024 0.612-1.128-0.176-2.947-0.176-2.947-0.279-0.833-0.428-1.711-0.409-2.62 0.038-2.149 0.97-4.141 2.479-5.667 0.765-0.78 1.688-1.449 2.733-1.969 1.073-0.529 2.432-0.789 3.743-0.954v-1e-3c0.156-0.015 0.306 0.077 0.335 0.231s-0.069 0.309-0.222 0.326l-0.03 3e-3c-0.961 0.077-1.9 0.23-2.689 0.534-1.069 0.417-2.02 0.99-2.802 1.686-1.54 1.366-2.619 3.477-2.679 5.59-0.022 0.891 0.116 1.77 0.393 2.611zm-1.645 4.654c0.626-0.217 1.222-0.09 1.331 0.278 0.116 0.371-0.298 0.845-0.923 1.061-0.618 0.216-1.22 0.091-1.332-0.281-0.112-0.369 0.298-0.843 0.924-1.058zm-0.752 2.082c0.484 0.189 2.077-0.363 2.362-0.817 0.129-0.206 0.271-1.077 0.939-0.876 0.668 0.202 0.6 0.59 0.406 0.585-0.2-7e-3 -0.31 0.16-0.346 0.471-0.165 1.182 0.227 1.634 0.038 2.271-0.183 0.636-0.259 0.609-0.312 0.539-0.044-0.068-0.095-1.089-0.118-1.345-0.066-0.736-0.522-1.538-0.62-1.042-0.091 0.496-5e-3 1.163-0.09 1.365-0.082 0.201-0.183 0.228-0.319 0.174-0.1-0.039-0.226 0.013-0.226 0.013s-0.128 0.036-0.189 0.131c-0.078 0.13-0.177 0.171-0.354 0.059-0.182-0.113-0.479-0.703-0.83-1.048-0.353-0.341-0.277 0.595 0.075 1.231 0.125 0.222 0.648 1.078 0.648 1.165 0 0.083-0.046 0.156-0.553-0.244-0.5-0.398-0.438-1.008-1.217-1.865-0.204-0.222-0.387-0.292-0.54-0.162-0.152 0.129-0.427-0.144 0-0.725 0.432-0.583 1.032 0.034 1.246 0.12zm2.753 5.045c-0.449 0.048-0.862-0.371-0.927-0.936-0.059-0.565 0.257-1.06 0.713-1.107 0.454-0.05 0.867 0.371 0.928 0.935 0.058 0.564-0.259 1.06-0.714 1.108zm-3.872-1.426c0.876 0.029 1.103-0.409 1.601-0.295 0.498 0.112 0.498 0.194 0.458 0.248-0.038 0.055-0.749 0.217-0.922 0.268-0.514 0.149-0.967 0.69-0.59 0.731 0.376 0.038 0.825-0.123 0.989-0.062 0.165 0.058 0.211 0.153 0.198 0.296 0 0.103 0.067 0.221 0.067 0.221s0.059 0.127 0.141 0.174c0.109 0.065 0.163 0.157 0.127 0.346-0.038 0.188-0.383 0.548-0.539 0.937-0.158 0.386 0.486 0.209 0.853-0.214 0.127-0.144 0.603-0.761 0.665-0.769 0.062-9e-3 0.124 0.031-0.035 0.573-0.16 0.541-0.606 0.545-1.02 1.416-0.112 0.229-0.119 0.415 0.011 0.553 0.13 0.14 0 0.438-0.516 0.08-0.512-0.36-0.226-1.021-0.215-1.248 0.017-0.497-0.767-2.017-1.158-2.247-0.175-0.104-0.828-0.149-0.848-0.833-0.024-0.681 0.271-0.66 0.315-0.465 0.045 0.198 0.189 0.281 0.418 0.29zm0.126 2.115c0.195 0.151 0.389 0.3 0.517 0.441 0.134 0.154 0.187 0.33 0.179 0.489-0.081 0.429-0.507 0.795-1.051 0.102-0.487-0.62-0.461-1.375-0.408-1.754-5e-3 -0.042-2e-3 -0.083 9e-3 -0.122 0 0.015 6e-3 0.028 6e-3 0.044-9e-3 0.024-0.011 0.049-0.015 0.079 0.033 0.261 0.4 0.495 0.763 0.721zm7.077-0.403c-0.34-0.298-0.855-0.465-0.983-0.632-0.119-0.169-0.113-0.287-0.032-0.412 0.062-0.093 0.057-0.25 0.057-0.25s0.016-0.155-0.041-0.255c-0.067-0.138-0.067-0.255 0.066-0.405 0.132-0.15 0.66-0.234 1.021-0.479 0.357-0.245-0.359-0.533-0.933-0.402-0.198 0.044-0.987 0.275-1.051 0.242-0.064-0.034-0.104-0.115 0.343-0.5 0.441-0.383 0.872-0.074 1.736-0.583 0.227-0.13 0.33-0.3 0.284-0.516-0.051-0.219 0.232-0.401 0.534 0.287 0.297 0.686-0.336 1.089-0.46 1.29-0.286 0.447-0.354 2.376-0.103 2.862 0.113 0.218 0.719 0.714 0.37 1.352-0.346 0.642-0.618 0.415-0.554 0.206s-0.027-0.39-0.241-0.556c-0.826-0.637-1.275-0.393-1.69-0.842-0.415-0.45-0.37-0.523-0.307-0.548 0.068-0.026 0.83 0.323 1.029 0.398 0.564 0.218 1.29 0.041 0.955-0.257zm1.384-2.877c-0.045-0.052-0.063-0.077-0.063-0.077s0.631 0.391 0.339 1.983c-0.355 1.248-1.413 0.544-1.072-0.206 0.259-0.535 1.117-1.32 0.796-1.7zm0.188-2.434c0-0.575 0.469-1.046 1.046-1.046 0.579 0 1.046 0.472 1.046 1.046 0 0.579-0.467 1.048-1.046 1.048-0.578-1e-3 -1.046-0.47-1.046-1.048zm3.878 3.762c0.463 0.766-0.854 1.549-1.36 0.262-0.433-1.642 0.359-2.08 0.359-2.08s-0.022 0.029-0.081 0.086c-0.393 0.409 0.734 1.184 1.082 1.732zm0.27-2.764c1.211 0.379 1.714-0.037 2.356 0.291 0.643 0.327 0.613 0.419 0.532 0.468-0.073 0.046-1.135-0.048-1.399-0.06-0.769-0.031-1.643 0.411-1.135 0.604 0.511 0.195 1.205 0.189 1.408 0.321 0.202 0.132 0.224 0.258 0.153 0.417-0.05 0.117-3e-3 0.281-3e-3 0.281s0.021 0.168 0.117 0.255c0.131 0.118 0.16 0.239 0.031 0.445-0.131 0.204-0.769 0.477-1.15 0.86-0.389 0.381 0.59 0.431 1.279 0.093 0.236-0.117 1.164-0.634 1.256-0.62 0.088 0.014 0.16 0.084-0.297 0.644-0.452 0.556-1.078 0.381-2.033 1.218-0.245 0.218-0.33 0.428-0.212 0.637 0.12 0.212-0.184 0.503-0.75-0.111-0.562-0.616 0.125-1.26 0.227-1.514 0.241-0.565-0.197-2.612-0.648-3.031-0.196-0.19-1.09-0.5-0.823-1.289 0.262-0.792 0.662-0.65 0.638-0.411-0.025 0.243 0.14 0.403 0.453 0.502zm5.182 1.441c0.232 0.28 0.427 0.532 0.295 0.864-0.106 0.261-0.282 0.423-0.577 0.435-0.61-0.045-1.092-0.554-1.092-1.174 0-0.649 0.526-1.178 1.174-1.178 0.023 0 0.043 0.019 0.065 0.019-0.164 0.15-0.101 0.751 0.135 1.034zm3.937 2.442c-0.378-0.384-1.018-0.657-1.149-0.86-0.131-0.206-0.097-0.327 0.027-0.445 0.097-0.087 0.12-0.255 0.12-0.255s0.046-0.164-2e-3 -0.281c-0.07-0.159-0.049-0.285 0.156-0.417 0.199-0.132 0.893-0.127 1.403-0.321 0.507-0.192-0.361-0.635-1.131-0.604-0.268 0.012-1.33 0.106-1.402 0.06-0.075-0.049-0.112-0.142 0.529-0.468 0.646-0.328 1.147 0.089 2.358-0.291 0.312-0.099 0.478-0.258 0.456-0.501-0.027-0.239 0.372-0.381 0.637 0.411 0.261 0.789-0.626 1.099-0.826 1.289-0.448 0.419-0.89 2.466-0.65 3.031 0.104 0.254 0.794 0.899 0.229 1.514-0.562 0.614-0.871 0.323-0.751 0.111 0.126-0.209 0.035-0.419-0.214-0.637-0.95-0.837-1.574-0.662-2.031-1.218-0.453-0.559-0.386-0.629-0.292-0.644 0.085-0.014 1.018 0.503 1.257 0.62 0.689 0.336 1.663 0.286 1.276-0.094zm2.307-2.778c-0.032-0.066-0.043-0.094-0.043-0.094s0.513 0.537-0.174 2.002c-0.669 1.117-1.513 0.168-0.985-0.468 0.382-0.454 1.416-0.994 1.202-1.44zm1.99-2.174c0.155 0.289 0.283 0.543 0.106 0.809-0.146 0.218-0.342 0.318-0.618 0.273-0.545-0.153-0.889-0.686-0.767-1.226 0.125-0.568 0.708-0.932 1.302-0.809 0 0 0.047 0.017 0 0.077-0.134 0.167-0.165 0.617-0.023 0.876zm1.608 4.107c0.24 0.75-0.617 1.36-0.854 0.125-0.167-1.559 0.343-1.896 0.343-1.896s-0.017 0.024-0.058 0.073c-0.264 0.344 0.385 1.16 0.569 1.698zm0.476-2.4c0.864 0.509 1.298 0.199 1.74 0.583s0.408 0.465 0.34 0.5c-0.062 0.033-0.849-0.198-1.049-0.242-0.578-0.131-1.288 0.157-0.932 0.402 0.357 0.246 0.88 0.33 1.018 0.479 0.136 0.15 0.136 0.267 0.063 0.405-0.052 0.1-0.037 0.255-0.037 0.255s-3e-3 0.157 0.055 0.25c0.085 0.125 0.089 0.242-0.033 0.412-0.124 0.167-0.638 0.333-0.981 0.632-0.34 0.298 0.393 0.475 0.956 0.257 0.191-0.074 0.961-0.423 1.025-0.398 0.068 0.025 0.112 0.098-0.306 0.548-0.413 0.449-0.859 0.206-1.69 0.842-0.213 0.166-0.303 0.347-0.239 0.556 0.062 0.209-0.204 0.436-0.551-0.206-0.349-0.638 0.252-1.134 0.366-1.352 0.249-0.485 0.185-2.415-0.101-2.862-0.127-0.2-0.759-0.604-0.462-1.29 0.301-0.688 0.585-0.505 0.535-0.287-0.046 0.216 0.055 0.386 0.283 0.516zm5.552-9.89c0-0.463 0.344-0.839 0.794-0.888 0.219 0 0.397 0.401 0.397 0.89 0 0.49-0.169 0.891-0.389 0.891-0.453-0.05-0.802-0.431-0.802-0.893zm0.884-1.435c-0.423 0.057-0.835-0.213-0.942-0.639-0.106-0.427 0.123-0.852 0.526-1.002 0.207-0.049 0.459 0.28 0.571 0.731 0.109 0.451 0.049 0.859-0.155 0.91zm-0.353 2.859c0.034-5e-3 0.064-6e-3 0.098-2e-3 0.352 0.078 0.478 0.907 0.275 1.852-0.2 0.947-0.65 1.653-1.003 1.577-0.034-6e-3 -0.065-0.021-0.091-0.04 0.011 9e-3 0.025 0.021 0.044 0.03l-0.055-0.037c4e-3 4e-3 4e-3 5e-3 0.011 7e-3 -0.425-0.287-0.626-1.046-0.449-1.867 0.171-0.822 0.663-1.43 1.17-1.52zm-0.458 4.921c-0.053 8e-3 -0.136-0.011-0.198 0.057-0.064 0.072 0.257 0.264 0.452 0.401 0.345 0.251 0.257 0.786-0.332 0.728-0.282-0.027-0.524-0.158-0.524-0.158-0.534-0.278-0.86-0.698-0.735-0.975 0.131-0.294 0.731-0.319 1.337-0.053zm0.643 1.889c0.217-0.086 0.817-0.702 1.242-0.122 0.43 0.581 0.16 0.854 2e-3 0.725-0.15-0.13-0.332-0.06-0.535 0.162-0.786 0.857-0.721 1.467-1.223 1.865-0.502 0.4-0.552 0.327-0.552 0.244 0-0.088 0.528-0.943 0.647-1.165 0.355-0.636 0.433-1.572 0.079-1.231-0.354 0.345-0.653 0.936-0.833 1.048-0.176 0.113-0.272 0.071-0.352-0.059-0.059-0.095-0.193-0.131-0.193-0.131s-0.121-0.052-0.224-0.013c-0.138 0.054-0.233 0.027-0.319-0.174-0.082-0.203 7e-3 -0.869-0.092-1.365-0.095-0.496-0.554 0.306-0.618 1.042-0.023 0.256-0.072 1.277-0.12 1.345-0.047 0.07-0.123 0.097-0.313-0.539-0.183-0.637 0.203-1.089 0.05-2.271-0.047-0.311-0.155-0.478-0.35-0.471-0.199 6e-3 -0.266-0.382 0.402-0.585 0.666-0.201 0.81 0.67 0.938 0.876 0.287 0.456 1.88 1.008 2.364 0.819zm1.795 5.014c-0.014-0.05-0.018-0.074-0.018-0.074s0.304 0.429-0.537 1.535c-0.766 0.839-1.262 0.083-0.707-0.391 0.402-0.337 1.345-0.72 1.262-1.07zm-0.791-0.388c-0.396 0.23-1.172 1.75-1.154 2.247 6e-3 0.227 0.298 0.888-0.222 1.248-0.514 0.359-0.642 0.06-0.511-0.08 0.13-0.138 0.126-0.324 0.014-0.553-0.412-0.871-0.862-0.875-1.023-1.416-0.165-0.542-0.099-0.582-0.038-0.573 0.065 8e-3 0.542 0.625 0.67 0.769 0.364 0.423 1.01 0.6 0.854 0.214-0.159-0.389-0.505-0.749-0.54-0.937-0.04-0.189 0.016-0.28 0.126-0.346 0.084-0.047 0.141-0.174 0.141-0.174s0.071-0.119 0.064-0.221c-5e-3 -0.143 0.04-0.238 0.204-0.296 0.161-0.06 0.607 0.101 0.984 0.062 0.377-0.041-0.08-0.582-0.584-0.731-0.176-0.051-0.891-0.213-0.93-0.268-0.036-0.054-0.036-0.136 0.463-0.248 0.495-0.114 0.723 0.325 1.6 0.295 0.228-9e-3 0.375-0.092 0.414-0.292 0.044-0.195 0.338-0.216 0.319 0.465-0.023 0.686-0.676 0.73-0.851 0.835zm-3.758 0.419c-0.451-0.048-0.77-0.544-0.712-1.108 0.062-0.564 0.473-0.985 0.929-0.935 0.454 0.047 0.771 0.542 0.709 1.107-0.056 0.565-0.473 0.984-0.926 0.936zm6.909 10.353c-0.211 0.688-0.093 1.278-0.332 1.202-0.241-0.074-0.27-0.689-0.061-1.382 0.21-0.686 0.578-1.184 0.82-1.109 0.245 0.073-0.218 0.6-0.427 1.289zm3.103-10.09c-0.43-0.402-1.195-0.508-1.009-0.12 0.193 0.394 0.605 0.73 0.646 0.926 0.045 0.197-0.019 0.298-0.151 0.381-0.095 0.061-0.16 0.204-0.16 0.204s-0.08 0.131-0.072 0.242c6e-3 0.15-0.048 0.257-0.238 0.34-0.19 0.084-0.722-0.032-1.163 0.056-0.442 0.09 0.101 0.608 0.696 0.701 0.205 0.035 1.043 0.116 1.089 0.17 0.045 0.054 0.045 0.14-0.539 0.323-0.581 0.182-0.853-0.256-1.883-0.117-0.272 0.036-0.442 0.148-0.488 0.362-0.051 0.212-0.396 0.272-0.379-0.454 0.023-0.727 0.792-0.856 1-0.992 0.457-0.293 1.362-1.996 1.341-2.524-8e-3 -0.237-0.355-0.903 0.248-1.347 0.605-0.445 0.759-0.146 0.605 0.017-0.148 0.167-0.144 0.358-0.014 0.589 0.497 0.872 1.023 0.816 1.216 1.372 0.188 0.556 0.115 0.606 0.045 0.603-0.072-2e-3 -0.639-0.594-0.79-0.732zm-2.466-3.193c0.044 0.269 0.083 0.502-0.125 0.667-0.163 0.124-0.333 0.164-0.523 0.061-0.37-0.256-0.488-0.763-0.266-1.164 0.232-0.416 0.756-0.559 1.169-0.315 8e-3 8e-3 0.021 0.025 0.03 0.036-0.155 0.035-0.331 0.445-0.285 0.715zm0.47 2.164s-0.021 3e-3 -0.072 0.017c-0.352 0.072-0.293 1.09-0.428 1.597-0.198 0.702-1.086 0.576-0.657-0.47 0.641-1.242 1.157-1.144 1.157-1.144zm2.948 3.129c-0.225 0.328-0.381 0.76-0.394 1.01-0.262-0.18-0.216-0.704 0.118-1.179 0.329-0.471 0.814-0.707 1.071-0.525-0.224 0.057-0.538 0.33-0.795 0.694zm1.927-2.369c-0.058 0.128-0.207-0.026-0.267-0.243-0.054-0.215 0.081-0.844 0.039-1.353-0.041-0.509-0.525 0.173-0.649 0.878-0.043 0.245-0.182 1.233-0.225 1.29-0.052 0.057-0.126 0.066-0.237-0.598-0.108-0.666 0.28-1.02 0.242-2.212-0.013-0.314-0.094-0.499-0.274-0.537-0.174-0.04-0.203-0.435 0.422-0.482 0.615-0.046 0.575 1.234 0.67 1.465 0.101 0.221 0.269 0.403 0.297 0.685 0.051 0.508 0.246 0.51-0.018 1.107zm2.276-2.013c-0.155 0.736-0.741 0.831-0.741 0.831 0.12-0.089 0.421-0.432 0.351-1.032-0.06-0.53-0.651-0.404-0.651-0.404-0.023 4e-3 -0.05 7e-3 -0.079 7e-3 -0.254 0-0.457-0.205-0.457-0.458 0-0.252 0.203-0.456 0.457-0.456 0.07 0 0.139 0.014 0.2 0.045 0.618 0.301 1.077 0.73 0.92 1.467zm0.257-2.641c-0.062 0.411-0.257 0.727-0.442 0.696-0.368-0.1-0.612-0.465-0.553-0.855 0.06-0.389 0.398-0.66 0.781-0.64 0.19 0.029 0.28 0.389 0.214 0.799zm0.393-2.148c-0.037 0.397-0.2 0.71-0.38 0.694-0.362-0.073-0.623-0.405-0.591-0.781 0.036-0.374 0.343-0.659 0.712-0.666 0.181 0.015 0.289 0.354 0.259 0.753zm0.117-2.334c-0.013 0.392-0.147 0.708-0.326 0.708-0.361-0.047-0.632-0.355-0.63-0.726 6e-3 -0.371 0.287-0.666 0.648-0.697 0.178 2e-3 0.314 0.325 0.308 0.715zm-0.075-2.334c0.027 0.382-0.082 0.705-0.254 0.717-0.358-0.014-0.65-0.292-0.679-0.653-0.022-0.362 0.225-0.676 0.574-0.737 0.176-0.014 0.329 0.289 0.359 0.673zm-1.037-2.706c0.162-0.033 0.35 0.239 0.422 0.599 0.072 0.362 3e-3 0.682-0.155 0.715-0.341 0.029-0.66-0.203-0.727-0.543-0.066-0.342 0.138-0.672 0.46-0.771zm-1.086-1.828c0.151-0.063 0.38 0.163 0.518 0.5 0.134 0.334 0.134 0.654-0.022 0.716-0.316 0.09-0.663-0.072-0.793-0.389-0.127-0.317 5e-3 -0.671 0.297-0.827zm-1.384-1.653c0.13-0.092 0.398 0.073 0.604 0.363 0.2 0.29 0.271 0.598 0.141 0.689-0.29 0.157-0.652 0.077-0.846-0.196-0.191-0.275-0.148-0.64 0.101-0.856zm-1.72-1.306c0.118-0.103 0.398 0.029 0.626 0.292 0.228 0.264 0.324 0.554 0.201 0.657-0.258 0.181-0.621 0.143-0.839-0.105-0.216-0.251-0.208-0.607 0.012-0.844zm3.724 9.136c0.069 1.653-0.277 3.216-0.927 4.554-0.288-1.911-1.044-2.366-1.044-2.366l0.378-0.885c1.261-2.613 0.275-5.998-2.793-8.675 2.468 1.242 4.245 4.036 4.386 7.372zm-5.364-10.332c0.106-0.114 0.396-0.011 0.645 0.22 0.248 0.232 0.372 0.507 0.268 0.62-0.241 0.206-0.597 0.203-0.832-0.015-0.237-0.218-0.264-0.574-0.081-0.825zm-1.738-0.767c0.075-0.131 0.372-0.104 0.662 0.059 0.294 0.162 0.477 0.392 0.4 0.523-0.173 0.252-0.517 0.336-0.795 0.186-0.274-0.156-0.383-0.481-0.267-0.768zm-1.671-0.556c0.049-0.142 0.339-0.169 0.645-0.066 0.313 0.1 0.535 0.289 0.487 0.429-0.124 0.275-0.438 0.418-0.731 0.321-0.295-0.095-0.461-0.389-0.401-0.684zm-1.686-0.556c0.036-0.141 0.32-0.181 0.628-0.098s0.538 0.255 0.498 0.394c-0.109 0.276-0.402 0.434-0.695 0.356-0.296-0.078-0.473-0.361-0.431-0.652zm-0.956-0.583c0.305 0.064 0.537 0.223 0.502 0.361-0.084 0.276-0.371 0.446-0.662 0.385-0.29-0.062-0.477-0.328-0.451-0.617 0.028-0.138 0.303-0.194 0.611-0.129zm-0.973 2.337c0.082-0.063 0.241-0.072 0.419-0.057 7e-3 0 8e-3 4e-3 0.015 4e-3 1.797 0.358 3.522 0.978 5.018 1.913 4.297 2.689 5.906 6.669 4.531 9.702l-0.01 0.029-5e-3 -3e-3c-0.023 0.066-0.047 0.133-0.069 0.201v-1e-3c-0.092 0.227-0.308 0.877 0.032 1.394 0.08 0.085 0.129 0.141 0.129 0.141 0.058 0.059 0.109 0.128 0.156 0.204 0.177 0.32 0.181 0.702 0.036 0.997 0 0-0.073 0.15-0.188 0.377-0.104 0.221-0.241 0.477-0.383 0.723-0.135 0.237-0.277 0.478-0.417 0.687-0.248 0.361-0.563 0.741-0.834 1.041-0.163 0.196-0.312 0.369-0.45 0.485-0.038 0.043-0.066 0.075-0.085 0.092l-0.017 0.018c-0.054 0.058-0.12 0.102-0.19 0.134-0.185 0.079-0.38 0.034-0.487-0.104-0.028-0.028-0.051-0.063-0.062-0.108-0.013-0.015-0.017-0.032-0.021-0.051-0.012-0.045-0.019-0.092-0.019-0.136l4e-3 -4e-3c-4e-3 -0.087 0-0.184 8e-3 -0.285 0-0.941-0.764-1.706-1.707-1.706-0.217 0-0.45 0.031-0.644 0.105-0.431 0.145-0.695 0.217-0.984 0-0.286-0.214-0.934-0.934-1.564-1.44-0.249-0.201-0.378-0.439-0.452-0.625-0.174-0.387-0.61-0.757-1.159-1.019l-0.109-0.134c0.634-0.237 1.37-1.047 1.591-2.093 0.226-1.07-0.135-2.068-0.642-2.529 0.333-0.181 0.575-0.521 0.575-0.926 0-0.244-0.068-0.465-0.203-0.644-0.1-0.127-0.246-0.253-0.294-0.532-0.044-0.277 0.114-0.446 0.114-0.446 0.148-0.181 0.242-0.412 0.242-0.665 0-0.441-0.271-0.815-0.66-0.967-0.058-0.031-0.144-0.056-0.186-0.186-0.042-0.128 0.042-0.234 0.042-0.234 0.132-0.165 0.215-0.375 0.215-0.604 0-0.472-0.319-0.848-0.767-0.933-0.243-0.607-0.477-1.096-0.65-1.465-0.041-0.166 0.014-0.263 0.131-0.35zm9.946 11.706-0.036 0.08c0.016-0.051 0.036-0.08 0.036-0.08zm-9.929-9.698c0.188-0.057 0.444 0.243 0.568 0.66 0.13 0.416 0.094 0.804-0.097 0.861-0.396 0.073-0.798-0.158-0.916-0.552-0.119-0.396 0.074-0.808 0.445-0.969zm-1.364-4.7c0.027-0.135 0.297-0.192 0.598-0.128 0.302 0.064 0.523 0.218 0.494 0.354-0.085 0.272-0.367 0.436-0.652 0.375-0.28-0.059-0.471-0.317-0.44-0.601zm0.056 3.17c0.153-0.097 0.447 0.106 0.66 0.445 0.21 0.34 0.27 0.687 0.117 0.783-0.332 0.161-0.742 0.05-0.938-0.271-0.201-0.321-0.131-0.729 0.161-0.957zm-0.687-1.062c0.251 0.264 0.369 0.564 0.251 0.676-0.269 0.207-0.649 0.187-0.891-0.061-0.238-0.248-0.252-0.627-0.035-0.886 0.123-0.114 0.42 0.011 0.675 0.271zm-0.659-2.554c0.297 0.045 0.523 0.186 0.501 0.319-0.073 0.27-0.338 0.447-0.616 0.403-0.281-0.044-0.48-0.291-0.468-0.568 0.023-0.135 0.286-0.203 0.583-0.154zm-0.883 1.357c0.318 0.238 0.497 0.542 0.388 0.687-0.251 0.267-0.672 0.311-0.974 0.085-0.302-0.228-0.375-0.636-0.19-0.954 0.109-0.144 0.457-0.061 0.776 0.182zm-0.852-1.762c0.241 0.037 0.283 0.15 0.266 0.258-0.06 0.217-0.134 0.361-0.363 0.324-0.221-0.038-0.383-0.232-0.37-0.458 0.018-0.11 0.228-0.164 0.467-0.124zm-0.868 0.874c0.366 0.149 0.622 0.399 0.555 0.565-0.176 0.326-0.574 0.474-0.919 0.335-0.349-0.14-0.532-0.518-0.431-0.871 0.072-0.167 0.423-0.179 0.795-0.029zm-0.884-1.132c0.209 0.033 0.242 0.128 0.229 0.223-0.055 0.185-0.115 0.31-0.312 0.278-0.195-0.031-0.329-0.2-0.32-0.393 0.018-0.096 0.195-0.141 0.403-0.108zm-0.979 0.553c0.364 0.127 0.622 0.353 0.562 0.52-0.152 0.321-0.531 0.488-0.875 0.369-0.342-0.119-0.535-0.472-0.458-0.82 0.053-0.167 0.402-0.195 0.771-0.069zm-0.666-0.776c0.187 0.029 0.22 0.116 0.208 0.203-0.05 0.169-0.105 0.283-0.284 0.254-0.176-0.03-0.305-0.184-0.291-0.359 0.012-0.087 0.176-0.129 0.367-0.098zm-1.141 0.426c0.372 0.069 0.65 0.246 0.623 0.412-0.099 0.334-0.433 0.55-0.781 0.488-0.352-0.061-0.59-0.371-0.564-0.716 0.029-0.169 0.353-0.247 0.722-0.184zm-0.432-0.644c0.163 0.026 0.194 0.104 0.179 0.179-0.035 0.152-0.086 0.251-0.241 0.225-0.16-0.026-0.269-0.163-0.264-0.316 0.01-0.075 0.158-0.113 0.326-0.088zm-0.383 1.913h0.011c2.989 0.199 5.233 0.9 7.16 3.504 0 0 2.479 3.211 1.504 7.309 0 0-0.067 0.516-0.363 0.898 0 0-0.038 0.042-0.078 0.104-0.212 0.31-0.534 1.12-0.075 1.921 0 0-0.679-0.92-0.78-1.222-0.298-0.88 0.293-0.854 0.664-1.679 0.168-0.372 0.504-2.516-0.031-4.359-0.245-0.851-0.518-1.419-1.012-2.151-1.81-2.688-4.008-3.573-6.989-3.904l-0.01-3e-3c-0.14 0-0.249-0.094-0.249-0.209-1e-3 -0.117 0.108-0.209 0.248-0.209zm-1.069-2.149c0.164 0.027 0.193 0.105 0.188 0.182-0.043 0.15-0.098 0.249-0.253 0.223-0.154-0.024-0.268-0.16-0.257-0.317 0.013-0.073 0.156-0.113 0.322-0.088zm-2.375 3.738c0-0.517 0.415-0.941 0.931-0.941 3.947 0.183 6.651 0.748 8.788 3.879 0.48 0.7 0.745 1.121 1.012 1.925 0.531 1.588 0.165 3.943 0 4.296-0.357 0.789-0.883 0.751-0.644 1.605 0.281 1.01 1.697 2.453 1.349 2.648-0.555 0.314-1.809-0.771-1.717 0.895 0.022 0.344 0.305 3.304-0.729 2.324-0.786-0.74-1.453 0.08-1.838-0.612-0.117-0.209-0.19-0.408-0.252-0.583l9e-3 0.04c-0.227-0.706-0.884-1.218-1.662-1.218-0.549 0-1.031 0.262-1.357 0.651-0.754 0.71-2.223 1.314-2.631 0.727-0.056-0.524 0.998-1.438 0.477-1.855-0.893-0.714-0.889-2.034-0.49-3.017 0.239-0.167 0.69-0.341 0.69-0.692 0-1.037-0.599-2.186-0.896-3.22-0.744-2.604-1.206-4.269-1.04-6.852zm0.292 13.399c0.757 0.441 0.523 0.818 0.278 0.741-0.241-0.077-0.439 0.057-0.61 0.356-0.653 1.155-0.335 1.756-0.812 2.342-0.472 0.585-0.565 0.533-0.596 0.442-0.033-0.088 0.291-1.149 0.362-1.419 0.201-0.777-0.064-1.763-0.375-1.287-0.309 0.477-0.449 1.188-0.633 1.363-0.182 0.177-0.316 0.172-0.466 0.067-0.107-0.075-0.29-0.067-0.29-0.067s-0.178-8e-3 -0.284 0.067c-0.151 0.105-0.284 0.11-0.465-0.067-0.181-0.175-0.325-0.886-0.637-1.363-0.31-0.476-0.575 0.51-0.376 1.287 0.069 0.27 0.398 1.331 0.366 1.419-0.033 0.091-0.118 0.143-0.595-0.442-0.478-0.586-0.159-1.188-0.812-2.342-0.172-0.3-0.37-0.434-0.614-0.356-0.243 0.077-0.474-0.299 0.28-0.741 0.759-0.443 1.271 0.4 1.506 0.564 0.535 0.364 2.733 0.364 3.263 0 0.243-0.164 0.757-1.007 1.51-0.564zm-4.116-5.479c-0.273 0.28-0.506 0.694-0.644 1.645-0.065 1.104 0.451 2.125 0.59 2.354-0.57-0.325-1.233-0.787-1.479-1.195-0.49-0.611-0.797-1.345-0.596-2.077 0.122-0.573 0.386-1.254 0.59-2.065 0.461-1.814 0.711-2.858 0.847-4.728 0.089-1.243 0.08-2.473 3e-3 -3.204-0.031-0.152 0.031-0.351-0.306-0.351-0.27 0-0.491 0.013-0.651 2e-3 0 0-0.35 0.017-0.35-0.211-8e-3 -0.271 0.378-0.245 0.378-0.245 0.788-0.072 1.556-0.079 1.556-0.079-0.246 0.251-0.352 8.754-0.352 9.162 1e-3 0.404 0.159 0.722 0.414 0.992zm0.861-8.035c0.202 0 0.362 0.367 0.362 0.819s-0.155 0.821-0.357 0.821c-0.414-0.046-0.736-0.395-0.736-0.823 0-0.427 0.315-0.774 0.731-0.817zm-0.716-1.178c0-0.415 0.308-0.75 0.705-0.794 0.202 0 0.359 0.358 0.359 0.796s-0.147 0.796-0.347 0.796c-0.404-0.044-0.717-0.384-0.717-0.798zm0.717 3.289c0.206 0 0.375 0.378 0.375 0.836 0 0.461-0.152 0.839-0.366 0.839-0.423-0.047-0.753-0.404-0.753-0.839 0-0.436 0.32-0.791 0.744-0.836zm8e-3 1.997c0.219 0 0.391 0.394 0.391 0.873 0 0.48-0.164 0.873-0.38 0.873-0.443-0.05-0.785-0.42-0.785-0.873 0-0.458 0.335-0.822 0.774-0.873zm4e-3 2.049c0.223 0 0.394 0.401 0.394 0.891 0 0.488-0.162 0.888-0.384 0.888-0.453-0.05-0.801-0.428-0.801-0.892 0-0.462 0.343-0.838 0.791-0.887zm-0.083 2.315c0.025-9e-3 0.049-0.017 0.075-0.017 0.33 0 0.598 0.72 0.598 1.607 0 0.888-0.268 1.606-0.598 1.606-0.028 0-0.057-7e-3 -0.082-0.015l-0.016-5e-3c-0.427-0.184-0.748-0.823-0.748-1.586 1e-3 -0.776 0.328-1.421 0.771-1.59zm0.266 3.883c-0.065 0.036-0.163 0.058-0.207 0.173-0.036 0.114 0.445 0.165 0.733 0.229 0.533 0.116 0.593 0.479-0.139 0.671-0.726 0.191-0.843 0.41-0.527 0.435 0.075 6e-3 -0.033 2e-3 -0.033 2e-3 -0.767-0.047-1.361-0.365-1.361-0.753 0-0.414 0.68-0.75 1.534-0.757zm-2.542-12.775c0.135 4e-3 0.26 7e-3 0.392 0.011 0.034 2.477-0.177 5.554-1.222 8.31l-0.529 0.331c1.168-2.841 1.401-6.073 1.359-8.652zm0.046-8.028c0.665-0.6 1.099-0.191 1.099-0.191 0.061 0.056 0.094 0.12 0.148 0.204 0.503 0.753 0.503 1.615 0.139 1.87-0.055 0.043-0.116 0.063-0.182 0.073l-2.092 0.022c0.046-0.486 0.218-1.381 0.888-1.978zm-0.967 2.556c6e-3 -0.079 0.011-0.13 0.022-0.202l0.34-3e-3 2.293-0.025c0.069-7e-3 0.137-0.033 0.202-0.078 0.391-0.28 0.405-1.225 0.028-2.108-0.133-0.307-0.293-0.566-0.466-0.762v-2e-3c0.264 0.122 0.631 0.193 1.033 0.193 0.405 0 0.767-0.071 1.032-0.193-0.174 0.196-0.33 0.457-0.467 0.765-0.376 0.883-0.364 1.828 0.027 2.108 0.072 0.052 0.153 0.078 0.24 0.081l0.244 0.014h1.314s-0.011 0.336-0.472 0.336c-0.466 0-4.192 0.116-4.192 0.116-0.729 0.015-0.702 0.675-0.702 0.675v4e-3l-0.013 1.063c-0.16-3e-3 -0.268-0.079-0.268-0.079-0.318-0.24-0.304-0.751-0.195-1.903zm-1.763 2.149c0.237-0.032 0.451 0.102 0.477 0.298 0.028 0.199-0.143 0.388-0.375 0.422-0.239 0.032-0.45-0.103-0.478-0.301-0.026-0.198 0.143-0.385 0.376-0.419zm1.401 2.916c0.512 0 0.926 0.425 0.926 0.941 0.167 2.583-0.292 4.248-1.038 6.852-0.296 1.034-0.896 2.183-0.896 3.22 0 0.351 0.451 0.525 0.691 0.692 0.396 0.983 0.404 2.303-0.49 3.017-0.522 0.417 0.533 1.331 0.473 1.855-0.402 0.587-1.87-0.017-2.627-0.727-0.323-0.389-0.805-0.651-1.351-0.651-0.785 0-1.446 0.512-1.673 1.218l0.015-0.04c-0.065 0.176-0.14 0.375-0.255 0.583-0.386 0.691-1.049-0.128-1.836 0.612-1.034 0.979-0.749-1.98-0.733-2.324 0.093-1.667-1.156-0.581-1.711-0.895-0.347-0.195 1.067-1.638 1.347-2.648 0.234-0.854-0.284-0.816-0.645-1.605-0.159-0.353-0.53-2.708 0-4.296 0.267-0.804 0.539-1.294 1.017-1.993 2.137-3.129 4.837-3.628 8.786-3.811zm-3.403-2.13c0.062-0.014 0.125-0.02 0.187-0.02-0.022-0.037-0.04-0.077-0.045-0.12-0.029-0.211 0.148-0.409 0.396-0.445 0.25-0.034 0.481 0.105 0.509 0.318 0.03 0.209-0.15 0.408-0.397 0.443-6e-3 2e-3 -9e-3 0-0.01 2e-3 0.028 0.043 0.054 0.087 0.065 0.141 0.064 0.255-0.147 0.529-0.477 0.608-0.326 0.081-0.642-0.06-0.706-0.318-0.055-0.256 0.154-0.527 0.478-0.609zm-1.035-0.368c0.267-0.039 0.51 0.116 0.539 0.342 0.029 0.225-0.16 0.438-0.433 0.476-0.266 0.038-0.508-0.113-0.538-0.34-0.031-0.225 0.159-0.44 0.432-0.478zm-0.824 0.729c0.346-0.087 0.682 0.064 0.749 0.336 0.064 0.273-0.162 0.565-0.509 0.65-0.348 0.084-0.685-0.067-0.75-0.339-0.067-0.271 0.159-0.563 0.51-0.647zm-0.854-0.491c0.275-0.036 0.524 0.115 0.559 0.341 0.031 0.226-0.165 0.441-0.442 0.478-0.276 0.036-0.527-0.117-0.557-0.341-0.037-0.226 0.162-0.439 0.44-0.478zm-0.168 1.212c0.132 0.277-0.049 0.637-0.407 0.804-0.357 0.167-0.752 0.074-0.878-0.204-0.133-0.279 0.054-0.64 0.409-0.806 0.357-0.167 0.748-0.075 0.876 0.206zm-1.499-0.963c0.291-0.043 0.554 0.123 0.586 0.364 0.036 0.242-0.174 0.472-0.458 0.512-0.292 0.04-0.555-0.123-0.585-0.364-0.033-0.242 0.17-0.473 0.457-0.512zm-0.316 1.616c0.204 0.243 0.12 0.648-0.188 0.905-0.306 0.257-0.724 0.271-0.924 0.031-0.2-0.241-0.118-0.646 0.191-0.905 0.306-0.258 0.718-0.271 0.921-0.031zm-1.453-1.344c0.298-0.055 0.579 0.108 0.623 0.358 0.042 0.253-0.166 0.498-0.463 0.551s-0.577-0.11-0.618-0.359c-0.045-0.252 0.161-0.499 0.458-0.55zm-1.076 2.555c0.256-0.318 0.671-0.411 0.916-0.208 0.249 0.2 0.242 0.622-0.013 0.94-0.256 0.319-0.672 0.414-0.919 0.211-0.248-0.203-0.24-0.625 0.016-0.943zm-0.77-2.263c0.302-0.065 0.589 0.088 0.642 0.342 0.054 0.255-0.146 0.515-0.451 0.578-0.302 0.066-0.592-0.09-0.64-0.344-0.056-0.254 0.144-0.513 0.449-0.576zm-0.568 3.871c0.199-0.368 0.592-0.543 0.882-0.389 0.289 0.153 0.365 0.577 0.17 0.945-0.198 0.37-0.591 0.543-0.88 0.39-0.291-0.155-0.365-0.578-0.172-0.946zm-1.235-3.391c0.303-0.081 0.602 0.061 0.67 0.315 0.064 0.253-0.124 0.526-0.422 0.605-0.303 0.081-0.604-0.059-0.671-0.313-0.07-0.252 0.122-0.525 0.423-0.607zm-1.614 0.506c0.302-0.099 0.621 0.028 0.699 0.288 0.087 0.257-0.098 0.548-0.399 0.647-0.308 0.1-0.624-0.029-0.705-0.288-0.083-0.258 0.098-0.547 0.405-0.647zm-1.738 0.574c0.304-0.127 0.636-0.024 0.744 0.229 0.107 0.257-0.053 0.567-0.354 0.695-0.301 0.127-0.635 0.025-0.737-0.229-0.112-0.252 0.046-0.564 0.347-0.695zm-1.686 0.685c0.296-0.161 0.643-0.096 0.782 0.153 0.135 0.247 0.011 0.579-0.286 0.74-0.294 0.164-0.644 0.096-0.776-0.15-0.137-0.25-8e-3 -0.582 0.28-0.743zm0.539 2.744c1.493-0.935 3.223-1.555 5.018-1.913 7e-3 0 9e-3 -4e-3 9e-3 -4e-3 0.182-0.016 0.34-6e-3 0.423 0.057 0.12 0.087 0.176 0.184 0.135 0.35-0.178 0.369-0.413 0.858-0.651 1.465-0.449 0.085-0.768 0.461-0.768 0.933 0 0.229 0.079 0.439 0.215 0.604 0 0 0.064 0.091 0.03 0.21-0.03 0.099-0.057 0.163-0.174 0.209-0.392 0.151-0.663 0.525-0.663 0.967 0 0.253 0.098 0.484 0.245 0.665 0 0 0.126 0.143 0.126 0.28 0 0.134 4e-3 0.292-0.307 0.698-0.137 0.179-0.206 0.4-0.206 0.644 0 0.405 0.243 0.745 0.578 0.926-0.503 0.461-0.87 1.459-0.64 2.529 0.222 1.045 0.954 1.856 1.588 2.093l-0.108 0.134c-0.552 0.262-0.982 0.632-1.161 1.019-0.072 0.185-0.201 0.423-0.45 0.625-0.626 0.506-1.279 1.226-1.562 1.44-0.29 0.217-0.555 0.145-0.985 0-0.191-0.074-0.426-0.105-0.646-0.105-0.942 0-1.699 0.765-1.699 1.706 5e-3 0.101 0.01 0.198 5e-3 0.285v4e-3c0 0.044-5e-3 0.091-0.017 0.136-4e-3 0.019-8e-3 0.036-0.019 0.051-0.017 0.045-0.034 0.08-0.062 0.108-0.114 0.138-0.305 0.183-0.49 0.104-0.073-0.032-0.138-0.076-0.19-0.134l-0.014-0.018c-0.02-0.017-0.053-0.049-0.09-0.092-0.138-0.116-0.289-0.289-0.447-0.485-0.271-0.299-0.589-0.679-0.833-1.041-0.143-0.209-0.283-0.45-0.419-0.687-0.143-0.247-0.281-0.502-0.384-0.723-0.112-0.227-0.187-0.377-0.187-0.377-0.149-0.294-0.142-0.676 0.035-0.997 0.043-0.076 0.096-0.146 0.151-0.204 0 0 0.055-0.056 0.134-0.141 0.336-0.517 0.126-1.167 0.029-1.394v1e-3c0-4e-3 -2e-3 -8e-3 -4e-3 -0.012l-0.027-0.071s0.012 0.026 0.027 0.068c-0.021-0.062-0.041-0.125-0.065-0.187v3e-3l-0.017-0.029c-1.367-3.031 0.24-7.011 4.537-9.7zm-2.34-1.77c0.257-0.218 0.623-0.217 0.808 3e-3 0.184 0.221 0.122 0.578-0.142 0.798-0.262 0.223-0.622 0.219-0.806 0-0.188-0.223-0.124-0.579 0.14-0.801zm-1.717 1.35c0.215-0.282 0.575-0.366 0.814-0.188 0.237 0.181 0.255 0.553 0.046 0.835-0.213 0.284-0.578 0.365-0.813 0.188-0.237-0.178-0.259-0.552-0.047-0.835zm-1.707 1.38c0.185-0.304 0.542-0.427 0.799-0.273 0.257 0.155 0.318 0.527 0.132 0.833-0.182 0.306-0.54 0.429-0.797 0.274-0.256-0.155-0.315-0.528-0.134-0.834zm3.324 0.265c-3.066 2.678-4.047 6.062-2.786 8.675l0.373 0.885s-0.755 0.455-1.047 2.366c-0.648-1.338-0.989-2.901-0.923-4.554 0.138-3.336 1.92-6.13 4.383-7.372zm-4.635 1.532c0.152-0.328 0.502-0.491 0.78-0.361 0.276 0.128 0.377 0.502 0.224 0.831-0.158 0.33-0.504 0.492-0.782 0.363-0.273-0.13-0.375-0.502-0.222-0.833zm-1.008 2.013c0.082-0.364 0.392-0.603 0.698-0.54 0.303 0.066 0.486 0.413 0.414 0.777-0.082 0.362-0.39 0.604-0.692 0.54-0.308-0.067-0.494-0.413-0.42-0.777zm-0.595 2.179c0.011-0.387 0.284-0.69 0.608-0.679 0.326 0.012 0.58 0.334 0.565 0.72-0.015 0.387-0.287 0.689-0.611 0.678-0.326-0.011-0.58-0.334-0.562-0.719zm0.49 1.611c0.332-5e-3 0.606 0.308 0.611 0.704 0.012 0.394-0.255 0.719-0.585 0.724-0.332 5e-3 -0.609-0.31-0.616-0.704-5e-3 -0.394 0.258-0.717 0.59-0.724z"/>
    <path id="f" d="m34.6 40.214c-0.468 0.151-0.719 0.704-0.567 1.234 0.15 0.526 0.651 0.833 1.118 0.679 0.467-0.151 0.723-0.701 0.569-1.229-0.149-0.53-0.654-0.836-1.12-0.684zm0.22 1.45c-0.261 0.082-0.542-0.088-0.625-0.385-0.085-0.294 0.057-0.604 0.319-0.69 0.26-0.085 0.54 0.086 0.624 0.382 0.089 0.297-0.054 0.605-0.318 0.693z"/>
    <path id="g" d="m37.386 41.664c-0.056-0.192-0.16-0.358-0.288-0.48 0.221 0.195 0.521 0.274 0.807 0.183 0.464-0.152 0.721-0.704 0.568-1.232-0.156-0.528-0.654-0.834-1.121-0.682-0.466 0.154-0.725 0.704-0.571 1.233 0.057 0.194 0.158 0.354 0.289 0.477-0.222-0.193-0.521-0.272-0.804-0.178-0.467 0.151-0.722 0.702-0.571 1.231 0.129 0.442 0.503 0.727 0.894 0.719 0.113-0.031 0.23-0.061 0.351-0.089 0.387-0.203 0.58-0.701 0.446-1.182zm-0.865 0.8c-0.261 0.085-0.543-0.083-0.627-0.38-0.086-0.297 0.059-0.605 0.314-0.692 0.265-0.086 0.548 0.087 0.631 0.382 0.086 0.299-0.059 0.607-0.318 0.69zm0.413-2.033c-0.089-0.297 0.057-0.606 0.32-0.689 0.262-0.088 0.543 0.086 0.626 0.381 0.087 0.296-0.056 0.604-0.317 0.689-0.263 0.086-0.546-0.085-0.629-0.381z"/>
    <path id="h" d="m35.121 39.904c0.15 0.527 0.65 0.835 1.117 0.682 0.466-0.154 0.721-0.704 0.567-1.233-0.142-0.488-0.579-0.783-1.015-0.706-0.042 0.012-0.086 0.024-0.135 0.037-0.442 0.166-0.684 0.706-0.534 1.22zm0.53-1.031c0.263-0.086 0.546 0.083 0.632 0.38 0.085 0.296-0.061 0.606-0.324 0.69-0.264 0.087-0.541-0.084-0.626-0.382-0.085-0.296 0.057-0.605 0.318-0.688z"/>
    <path id="i" d="m45.393 38.138c-0.547 0-0.99 0.467-0.99 1.043 0 0.572 0.443 1.04 0.99 1.04 0.55 0 0.994-0.468 0.994-1.04 0-0.576-0.445-1.043-0.994-1.043zm-0.212 1.514c-0.307 0-0.552-0.262-0.552-0.585s0.245-0.586 0.552-0.586c0.31 0 0.557 0.263 0.557 0.586-1e-3 0.323-0.248 0.585-0.557 0.585z"/>
    <path id="j" d="m47.932 40.481c0-0.209-0.062-0.405-0.16-0.568 0.178 0.266 0.475 0.439 0.807 0.439 0.545 0 0.992-0.467 0.992-1.042s-0.447-1.04-0.992-1.04c-0.547 0-0.994 0.465-0.994 1.04 0 0.211 0.064 0.408 0.165 0.57-0.184-0.267-0.476-0.44-0.806-0.44-0.551 0-0.995 0.467-0.995 1.04 0 0.552 0.406 1 0.92 1.04 0.092-7e-3 0.182-0.013 0.267-0.016 0.455-0.098 0.796-0.515 0.796-1.023zm0.451-1.955c0.306 0 0.557 0.26 0.557 0.582 0 0.321-0.251 0.582-0.557 0.582-0.31 0-0.559-0.26-0.559-0.582 0-0.321 0.249-0.582 0.559-0.582zm-1.626 2.474c-0.305 0-0.552-0.261-0.552-0.583 0-0.323 0.247-0.585 0.552-0.585 0.306 0 0.556 0.262 0.556 0.585-1e-3 0.322-0.251 0.583-0.556 0.583z"/>
    <path id="k" d="m47.034 36.956c-0.548 0-0.991 0.466-0.991 1.041 0 0.573 0.443 1.04 0.991 1.04 0.546 0 0.993-0.467 0.993-1.04 0-0.575-0.447-1.041-0.993-1.041zm-0.099 1.353c-0.306 0-0.556-0.263-0.556-0.585 0-0.321 0.25-0.582 0.556-0.582 0.305 0 0.555 0.261 0.555 0.582 0 0.322-0.25 0.585-0.555 0.585z"/>
    <path id="l" d="m41.441 37.823c1.106 0.015 2.026 0.703 2.117 1.643 0.099 1.02-0.821 1.945-2.061 2.061-1.236 0.122-2.315-0.609-2.416-1.629-0.061-0.667 0.311-1.292 0.926-1.678-0.92 0.476-1.463 1.309-1.284 2.132 0.226 1.081 1.62 1.733 3.102 1.451 1.481-0.281 2.496-1.386 2.27-2.472-0.21-0.97-1.347-1.595-2.654-1.508z"/>
    <path id="m" d="m41.608 38.275c-0.072 0-0.139 6e-3 -0.215 0.01-1.102 0.102-1.88 0.684-1.745 1.303 0.075 0.32 0.375 0.582 0.793 0.752-0.214-0.173-0.362-0.383-0.409-0.617-0.136-0.662 0.557-1.286 1.576-1.448z"/>
    <path id="n" d="m51.598 38.319c0.032 0.383 0.325 0.744 0.78 1.015-0.214-0.238-0.353-0.509-0.368-0.793-0.047-0.805 0.847-1.419 2.035-1.438-0.076-0.01-0.162-0.02-0.245-0.023-1.274-0.066-2.263 0.488-2.202 1.239z"/>
   </g>
   <path id="o" d="m37.137 83.2h-0.078l-1.979 10.207h4.035z"/>
   <path id="p" d="m53.355 154.86h-2.097v8.783h2.295c2.809 0 3.243-1.583 3.243-4.391 1e-3 -2.849-0.474-4.392-3.441-4.392z"/>
   <path id="q" d="m19.613 83.279c0-2.848-0.475-4.391-3.441-4.391h-2.098v8.783h2.295c2.81-1e-3 3.244-1.583 3.244-4.392z"/>
   <path id="r" d="m90.223 154.86c-1.465 0-2.73 0.91-2.73 2.849v14.876c0 1.938 1.266 2.848 2.73 2.848 1.463 0 2.729-0.91 2.729-2.848v-14.876c0-1.939-1.266-2.849-2.729-2.849z"/>
   <path id="s" d="m60.159 95.938v-13.57c0-2.215-0.751-3.481-3.125-3.481h-1.859v20.573h1.859c2.255 0 3.125-1.108 3.125-3.522z"/>
   <path id="t" d="m39.866 117.8c-1.464 0-2.729 0.91-2.729 2.848v14.875c0 1.939 1.266 2.849 2.729 2.849 1.464 0 2.73-0.91 2.73-2.849v-14.875c1e-3 -1.938-1.266-2.848-2.73-2.848z"/>
   <path id="u" d="m90.736 78.888c-1.463 0-2.731 0.91-2.731 2.849v14.875c0 1.938 1.268 2.848 2.731 2.848 1.464 0 2.73-0.91 2.73-2.848v-14.876c1e-3 -1.938-1.266-2.848-2.73-2.848z"/>
   <path id="v" d="m34.724 159.18-1.978 10.207h4.035l-1.978-10.207z"/>
   <path id="w" d="m74.071 45.396c0.061-0.053 0.098-0.114 0.098-0.18s-0.034-0.123-0.095-0.174c-1.535-1.361-9.995-2.614-19.862-2.614s-18.421 1.253-19.954 2.614c-0.06 0.051-0.095 0.108-0.095 0.174s0.036 0.127 0.098 0.18h-34.261v165.72h108.35v-165.72z"/>
  </g>
  <path id="x" d="m-7.3351 140.71c-0.86889 0-1.7901 0.60742-1.7901 1.8216v3.9357c0 1.2142 0.92144 1.8211 1.7901 1.8211 0.86916 0 1.7906-0.60691 1.7906-1.8211v-3.9357c0-1.2142-0.9217-1.8216-1.7906-1.8216zm-21.351 0.063v7.4528h1.0676v-3.1822h0.63872l0.99426 3.1822h1.1307l-1.1514-3.4019c0.68024-0.37677 0.92087-1.0051 0.92087-1.8634 0-1.4444-0.61756-2.1875-1.8841-2.1875zm6.7195 0-1.6645 7.4528h1.0676l0.31419-1.6014h1.4547l0.31471 1.6014h1.0676l-1.6645-7.4528zm4.1553 0v7.4528h1.4862c1.2562 0 1.9684-0.65957 1.9684-2.0412v-3.4856c0-1.2038-0.6702-1.926-1.8738-1.926zm5.5681 0v7.4528h1.0676v-7.4528zm-4.5005 1.0046h0.49196c0.62812 0 0.82682 0.33482 0.82682 0.92087v3.5905c0 0.63871-0.23019 0.93173-0.82682 0.93173h-0.49196zm-10.875 5.3e-4h0.55552c0.78475 0 0.91002 0.40815 0.91002 1.1617 3e-6 0.74321-0.11487 1.1619-0.85834 1.1622h-0.6072zm20.284 0c0.38735 0 0.7227 0.24068 0.72244 0.75344v3.9357c0 0.51276-0.33509 0.75344-0.72244 0.75344-0.38708 0-0.72244-0.24068-0.72244-0.75344v-3.9357c0-0.51302 0.33535-0.75344 0.72244-0.75344zm-14.202 1.1405h0.02067l0.52296 2.7006h-1.0676zm0.74259 8.0879c-0.86889 0-1.7901 0.60691-1.7901 1.8211v3.9357c0 1.2144 0.92144 1.8216 1.7901 1.8216 0.86916 0 1.7901-0.60742 1.7901-1.8216v-3.9357c0-1.2142-0.92118-1.8211-1.7901-1.8211zm-7.8915 0.063v7.4523h1.0676v-4.532h0.02118l1.0464 3.2029h0.53382l1.0573-3.2029h0.02067v4.532h1.0676v-7.4523h-1.0361l-1.3606 3.946h-0.02067l-1.3715-3.946zm10.926 0v7.4523h1.0676v-4.4798h0.02067l1.633 4.4798h1.0051v-7.4523h-1.0676v4.4907h-0.02067l-1.6118-4.4907zm4.5005 0v1.0046h1.2351v6.4477h1.0676v-6.4477h1.2356v-1.0046zm4.3537 0v7.4523h3.1817v-1.0676h-2.1141v-2.188h1.8423v-1.0046h-1.8423v-2.1875h2.1141v-1.0046zm-11.889 1.0046c0.38735 0 0.7227 0.24068 0.72244 0.75345v3.9357c0 0.51303-0.33509 0.75396-0.72244 0.75396-0.38709 0-0.72192-0.24093-0.72192-0.75396v-3.9357c0-0.51277 0.33457-0.75345 0.72192-0.75345zm-6.2172 8.7385c-1.0361 0-1.7368 0.74355-1.7368 1.7167v4.1031c0 1.3608 0.94126 1.7586 1.758 1.7586 0.95224 0 1.6955-0.80627 1.6955-1.7276v-0.46043h-1.0676v0.3669c0 0.58605-0.3771 0.75344-0.66973 0.75344-0.48154 0-0.64854-0.33462-0.64854-0.76378v-3.8106c0-0.50244 0.12494-0.86868 0.65887-0.86868 0.40825 0 0.65939 0.35606 0.65939 0.77463v0.35605h1.0676v-0.41858c0-1.0361-0.73244-1.7797-1.7167-1.7797zm19.54 0c-0.86889 0-1.7901 0.60742-1.7901 1.8216v3.9357c0 1.2142 0.92144 1.8211 1.7901 1.8211s1.7901-0.60691 1.7901-1.8211v-3.9357c3e-6 -1.2144-0.92144-1.8216-1.7901-1.8216zm-15.113 0.0631-1.664 7.4523h1.0676l0.31368-1.6015h1.4552l0.31419 1.6015h1.0676l-1.6645-7.4523zm3.7367 0v7.4523h1.0676v-3.1817h0.63872l0.99425 3.1817h1.1307l-1.1519-3.4019c0.68051-0.37677 0.92086-1.0044 0.92088-1.8629-3e-6 -1.4444-0.61705-2.1875-1.8836-2.1875zm5.1175 0v7.4523h3.1822v-1.0671h-2.1146v-6.3851zm-4.0499 1.0046h0.55449c0.78502 0 0.9108 0.4084 0.91054 1.1622 0 0.74295-0.11462 1.1617-0.85783 1.1617h-0.6072zm10.309 0c0.38708 0 0.72192 0.24093 0.72192 0.75396v3.9357c0 0.51276-0.33484 0.75345-0.72192 0.75345-0.38735 0-0.72244-0.24069-0.72244-0.75345v-3.9357c0-0.51303 0.33482-0.75396 0.72244-0.75396zm-14.684 1.141h0.02119l0.52296 2.7006h-1.0676z" fill="#fff" stroke-width=".26458"/>
 </g>
</svg>
