<svg id="a" width="211.67mm" height="166.82mm" version="1.1" viewBox="0 0 211.67 166.82" xmlns="http://www.w3.org/2000/svg">
 <g id="b" transform="matrix(.49468 0 0 .49468 87.385 14.258)">
  <path id="c" d="m142.63 148.83a159.64 159.57 0 0 1-159.64 159.57 159.64 159.57 0 0 1-159.64-159.57 159.64 159.57 0 0 1 159.64-159.57 159.64 159.57 0 0 1 159.64 159.57z" stroke-width=".35278"/>
  <g id="d" transform="matrix(.35278 0 0 .35278 -228.5 -33.653)" fill="#f7f6f6">
   <path id="e" d="m804.32 298.7 82.27 145.55-39.62 22.88-12.81-22.31-60.04 34.62-12.8 37.08-39.48 22.83zm-13.4 131.59 26.61-15.36-13.16-23.48z"/>
   <path id="f" d="m464.62 495.1 292.43-168.81v38.92l-56.575 32.6v153.62l-35.85 20.7v-153.26l-164.13 94.44v37.71l89.555-52.27v39.16l-89.555 52.36v37.39l133.87-77.86v39.19l-322.12 186.24v-37.871l81.365-154.95 46.2-27.06-80.89 153.78 105.7-60.74z"/>
   <path id="g" d="m434.25 513.16c3.42-0.9 7.44 0.17 9.5 3.17 3.01 4.25 2.81 9.88 1.85 14.77-1.81 8.1-6.23 15.68-12.59 21.05-3.58 2.89-8.22 5.38-12.96 4.29-3.84-0.88-6.24-4.62-6.83-8.31-1.24-7.81 1.54-15.69 5.62-22.26 3.65-5.64 8.71-10.97 15.41-12.71m-2.07 8.95c-4.54 1.24-7.68 5.18-9.87 9.12-1.95 3.82-3.3 8.36-2.05 12.61 0.76 2.75 3.79 4.57 6.57 3.72 4.19-1.11 7.27-4.57 9.44-8.14 2.43-4.2 4.15-9.4 2.44-14.16-0.86-2.62-3.96-4.09-6.53-3.15z"/>
   <path id="h" d="m403.88 529.88 6.795-3.91v39.45l-6.795 3.87z"/>
   <path id="i" d="m384.22 541.12c3.94-2.13 9.61-2.94 12.93 0.73 3.75 4.38 3.58 10.72 2.4 16.05-2.12 8.73-7.08 17.04-14.56 22.2-4.16 2.55-8.46 4.88-12.67 7.33l-0.07-39.32c3.89-2.49 7.97-4.67 11.97-6.99m-5.04 11v23.27c6.8-2.99 12.47-8.84 13.86-16.31 0.86-3.67 0.63-8.98-3.46-10.57-3.9-1.09-7.2 1.91-10.4 3.61z"/>
   <path id="j" d="m354.22 558.76 15.5 30.23-7.59 4.35-2.43-4.66-11.41 6.57-2.42 7.45-7.55 4.31m15.74-29.96-2.82 8.64 5.6-3.22z"/>
   <path id="k" d="m312.24 582.48c4.34-2.37 8.445-5.07 12.865-7.28 3.07-1.61 7.41-0.37 8.4 3.15 1.8 5.86-0.75 12.06-4.09 16.87 2.08 4.44 4.21 8.86 6.31 13.29l-7.44 4.3-5.71-11.81-3.545 2.01v15.03l-6.79 3.94zm6.79 4.28v8.21c2.76-1.72 6.365-2.89 7.675-6.15 0.64-1.68 1.22-4.37-0.72-5.4-2.63 0.1-4.715 2.13-6.955 3.34z"/>
  </g>
  <g id="l" transform="matrix(.35278 0 0 .35278 -228.5 -33.653)" fill="#cc232a">
   <path id="m" d="m312.44 215.78h573.64l-573.64 331.22z"/>
   <path id="n" d="m886.08 481.78v331.18h-573.64z"/>
  </g>
 </g>
 <g id="o" transform="matrix(.81526 0 0 .81526 156.22 -4.0552)">
  <path id="p" d="m49.86 6.95c3.64-1.82 8.15-2.82 11.99-1.05 3.53 1.53 5.57 5.27 6.02 8.97 0.71 6.16-1.37 12.25-4.13 17.68-3.68 7.02-9.03 13.41-16.03 17.3l-7.6 4.38v-33.3l-5.05 2.96v33.19l-7.735 4.47v-16.13l-11.43 6.62v16.52l-7.795 4.29v-41.64l7.795-4.66v16.87l11.43-6.54v-17.08l22.535-12.85m-2.205 9.8v24.25c6.6-5.6 11.485-13.48 12.825-22.09 0.34-2.47 0.02-6.83-3.45-6.41-3.48 0.43-6.0939 1.9896-9.375 4.25z" fill="#010101"/>
 </g>
</svg>
