<?xml version="1.0" encoding="UTF-8"?>
<!-- Generator: Adobe Illustrator 14.0.0, SVG Export Plug-In . SVG Version: 6.00 Build 43363)  -->
<svg id="Layer_1" width="276.42" height="84.047" enable-background="new 0 0 595.276 793.701" version="1.1" viewBox="0 0 259.15 78.794" xml:space="preserve" xmlns="http://www.w3.org/2000/svg" xmlns:cc="http://creativecommons.org/ns#" xmlns:dc="http://purl.org/dc/elements/1.1/" xmlns:rdf="http://www.w3.org/1999/02/22-rdf-syntax-ns#"><metadata id="metadata8"><rdf:RDF><cc:Work rdf:about=""><dc:format>image/svg+xml</dc:format><dc:type rdf:resource="http://purl.org/dc/dcmitype/StillImage"/><dc:title/></cc:Work></rdf:RDF></metadata><g id="g3129" transform="translate(-.01249 -.013593)" fill="#05429e"><g id="text2992"><path id="path3113" d="m111.12 25.355-3.3736 6.5743c-0.77875-0.6344-1.651-1.1463-2.6167-1.5357-0.96574-0.38934-1.9678-0.58402-3.006-0.58405-0.14433 2.7e-5 -0.30293 0.0073-0.47582 0.02178-0.17292 0.01454-0.34561 0.05084-0.51806 0.10889-0.66347 0.14345-1.2691 0.43141-1.8168 0.86386-0.54776 0.43251-0.82164 1.0095-0.82163 1.731-1.2e-5 0.69164 0.25934 1.2464 0.77807 1.6644 0.5187 0.41798 1.0812 0.75676 1.6875 1.0163 0.23052 0.08713 0.4538 0.16655 0.66984 0.23824 0.21601 0.07173 0.42521 0.13663 0.62761 0.19468l2.162 0.60583c2.2781 0.69164 4.1884 1.6934 5.7309 3.0054 1.5425 1.312 2.3137 3.2944 2.3138 5.9474-3e-5 0.11528-3e-5 0.23055 0 0.34581-3e-5 0.11528-3e-5 0.23055 0 0.34581-0.0581 1.4994-0.3322 2.9627-0.82229 4.3899-0.49014 1.4272-1.3406 2.66-2.5513 3.6983-1.0955 0.9512-2.3353 1.6576-3.7194 2.1191-1.3841 0.46152-2.7968 0.74991-4.2382 0.86518-0.23143-1e-6 -0.45515 7e-3 -0.67116 0.02112-0.21603 0.01408-0.42479 0.02112-0.62628 0.02112-2.0476 0-4.0516-0.32425-6.0121-0.97276-1.9605-0.6485-3.7771-1.5495-5.4498-2.7031l3.6336-6.8766c1.0665 0.95121 2.2269 1.7585 3.4812 2.422 1.2543 0.66347 2.6021 0.9952 4.0435 0.99519 0.05806 6e-6 0.11592 6e-6 0.17356 0 0.05762 6e-6 0.11504 6e-6 0.17224 0 0.95207-0.05807 1.8172-0.35372 2.5956-0.88696 0.77827-0.53323 1.1674-1.3335 1.1674-2.4009-2e-5 -0.80688-0.32427-1.4554-0.97276-1.9455-0.64852-0.49011-1.3766-0.87947-2.1844-1.1681-0.34582-0.11526-0.69185-0.22327-1.0381-0.32403-0.34626-0.10074-0.66325-0.19467-0.95098-0.2818-0.05809-0.02902-0.1232-0.05058-0.19534-0.06467-0.07216-0.01407-0.13684-0.03562-0.19402-0.06468-2.5667-0.72064-4.6141-1.6432-6.1421-2.7678-1.528-1.1245-2.292-3.2293-2.292-6.3143-3e-6 -3.3164 1.0596-5.9694 3.1789-7.9589 2.1193-1.9895 4.8081-2.9842 8.0665-2.9843 0.66257 3.3e-5 1.3399 0.03611 2.032 0.10823 0.69204 0.07219 1.3843 0.19494 2.0768 0.36825 1.0955 0.23057 2.1694 0.53327 3.2218 0.90808 1.0524 0.37488 2.011 0.80736 2.876 1.2974z"/><path id="path3115" d="m116.15 33.962h7.8718v11.85c-1e-5 1.4422 0.25209 2.6101 0.7563 3.5036 0.50418 0.89357 1.5636 1.3403 3.1783 1.3403 1.6146 6e-6 2.6743-0.44678 3.1789-1.3403 0.50462-0.89356 0.75694-2.0469 0.75696-3.4601v-11.893h7.8718v13.364c-2e-5 3.6913-1.1316 6.2072-3.3947 7.5478-2.2632 1.3406-5.0675 2.0108-8.413 2.0108-3.3156-1e-6 -6.1122-0.67028-8.3898-2.0108-2.2777-1.3406-3.4165-3.842-3.4165-7.5042zm6.2708-12.412c1.1826 0.02819 2.1846 0.4532 3.006 1.275 0.8214 0.82188 1.2321 1.8241 1.2321 3.0067-1e-5 1.1818-0.41071 2.1836-1.2321 3.0054-0.82142 0.82188-1.8234 1.2328-3.006 1.2328-1.1817 2.6e-5 -2.1908-0.4109-3.0272-1.2328-0.83638-0.82182-1.2546-1.8236-1.2546-3.0054 0-1.1826 0.41818-2.1848 1.2546-3.0067 0.83636-0.82182 1.8454-1.2327 3.0272-1.2328zm11.073 0c1.1817 0.02819 2.1835 0.4532 3.0054 1.275 0.82182 0.82188 1.2328 1.8241 1.2328 3.0067-2e-5 1.1818-0.41095 2.1836-1.2328 3.0054-0.82187 0.82188-1.8237 1.2328-3.0054 1.2328-1.1826 2.6e-5 -2.1919-0.4109-3.0278-1.2328-0.83594-0.82182-1.2539-1.8236-1.2539-3.0054-1e-5 -1.1826 0.41795-2.1848 1.2539-3.0067 0.83591-0.82182 1.8452-1.2327 3.0278-1.2328z"/><path id="path3117" d="m161.44 56.15v-2.4655h-0.0871c-0.63445 1.0383-1.4994 1.8098-2.5949 2.3144-1.0955 0.50464-2.2346 0.78555-3.4172 0.84275-0.11528 0.02904-0.23055 0.04356-0.34581 0.04356-0.11528-1e-6 -0.23055-1e-6 -0.34581 0-3.2874-1e-6 -5.9762-1.1749-8.0665-3.5248-2.0903-2.3498-3.1354-5.1108-3.1354-8.2829 0-3.1712 1.0308-5.9318 3.0925-8.2816 2.0616-2.3498 4.7357-3.5247 8.0223-3.5248 0.14429 2.2e-5 0.2886 2.2e-5 0.43292 0 0.1443 2.2e-5 0.2886 0.0141 0.43292 0.04224 1.1245 0.08714 2.2273 0.36849 3.3083 0.84407 1.081 0.47562 1.9822 1.1459 2.7038 2.0108v-15.915h7.8705v35.897h-7.8705zm-4.8017-16.089c-1.5856 0.02905-2.8254 0.54095-3.7194 1.5357-0.89401 0.99477-1.341 2.1697-1.341 3.5248-1e-5 1.4132 0.44699 2.5953 1.341 3.5465 0.89399 0.9512 2.1338 1.4268 3.7194 1.4268 1.6146 6e-6 2.8617-0.47559 3.7412-1.4268 0.87947-0.95119 1.3192-2.1334 1.3192-3.5465-2e-5 -1.3551-0.43976-2.53-1.3192-3.5248-0.8795-0.99474-2.1266-1.4921-3.7412-1.4921z"/><path id="path3119" d="m182.84 40.45v15.7h-7.8718v-15.7h-2.5513v-6.4872h2.5513v-6.6601h7.8718v6.6601h4.4546v6.4872z"/><path id="path3121" d="m197.64 33.962v22.187h-7.8718v-22.187zm-3.9359-12.932c1.2108 0.02907 2.2486 0.47607 3.1136 1.341 0.86496 0.865 1.2974 1.9029 1.2974 3.1136-1e-5 1.2117-0.43249 2.25-1.2974 3.1149-0.86497 0.86499-1.9028 1.2975-3.1136 1.2974-1.2108 2.6e-5 -2.2486-0.43246-3.1136-1.2974-0.86497-0.86494-1.2974-1.9032-1.2974-3.1149 0-1.2107 0.43248-2.2486 1.2974-3.1136 0.86496-0.86493 1.9028-1.2974 3.1136-1.2974z"/><path id="path3123" d="m210.74 33.962v3.6336h0.0858c0.74968-1.3269 1.7517-2.3076 3.006-2.942 1.2543-0.6344 2.6457-0.95162 4.1741-0.95164l1.5139-0.04224v7.5682c-0.11529-0.02902-0.22352-0.07236-0.32469-0.13001-0.10121-0.05762-0.20944-0.10096-0.32469-0.13001-0.43206-0.17245-0.86432-0.2875-1.2968-0.34515-0.4325-0.05762-0.8938-0.08644-1.3839-0.08645-2.1919 1.5e-5 -3.6482 0.64148-4.3688 1.9244-0.72067 1.2829-1.081 2.876-1.081 4.7793v8.9092h-7.8718v-22.187h7.8718z"/><path id="path3125" d="m234.18 33.227c3.5751 0.02906 6.6964 1.0744 9.3639 3.136 2.6675 2.0617 4.0012 4.9808 4.0012 8.7574-2e-5 3.7485-1.3338 6.6463-4.0012 8.6934-2.6675 2.0471-5.7888 3.0707-9.3639 3.0707-3.5461-1e-6 -6.6599-1.0163-9.3415-3.0489-2.6816-2.0326-4.0224-4.9377-4.0224-8.7152 0-3.7766 1.3335-6.6958 4.0006-8.7574 2.667-2.0616 5.7881-3.0925 9.3633-3.0925zm0 6.833c-1.5856 0.02905-2.8254 0.54095-3.7194 1.5357-0.89401 0.99477-1.341 2.1697-1.341 3.5248-1e-5 1.4132 0.44699 2.5953 1.341 3.5465 0.89399 0.9512 2.1338 1.4268 3.7194 1.4268 1.6146 6e-6 2.8617-0.47559 3.7412-1.4268 0.87947-0.95119 1.3192-2.1334 1.3192-3.5465-2e-5 -1.3551-0.43976-2.53-1.3192-3.5248-0.8795-0.99474-2.1266-1.4921-3.7412-1.4921z"/><path id="path3127" d="m258.97 20.253v35.897h-7.8718v-35.897z"/></g><path id="path477" d="m78.615 0.20109h-78.415v78.419h78.415zm-62.635 38.289h0.78985c2.6611 0 5.6487-0.49824 5.6487-3.9029 0-3.4046-2.9875-3.9048-5.6487-3.9048h-0.78985zm17.904 17.284h-10.137l-7.6841-12.047h-0.08304v12.047h-8.1379v-31.324h12.166c6.1894 0 10.882 2.9489 10.882 9.6365 0 4.32-2.4082 8.0607-6.8518 8.8486zm8.1128-10.637c0 2.6978 1.7902 4.7777 4.8627 4.7777 3.0744 0 4.8607-2.0779 4.8607-4.7777 0-2.6148-1.7863-4.8163-4.8607-4.8163s-4.8627 2.1996-4.8627 4.8163m17.029 10.637h-7.5567v-2.3715h-0.08304c-1.3286 2.1204-3.9434 3.0744-6.4385 3.0744-6.3149 0-10.757-5.274-10.757-11.38 0-6.1083 4.3644-11.342 10.672-11.342 2.4487 0 5.0288 0.91344 6.6065 2.7828v-2.0741h7.5567v21.31zm12.701-29.497c0 2.329-1.9138 4.237-4.237 4.237-2.3232 0-4.2312-1.908-4.2312-4.237 0-2.3251 1.908-4.237 4.2312-4.237 2.3232 0 4.237 1.9119 4.237 4.237m-0.45769 29.497h-7.5547v-21.309h7.5547z"/></g></svg>
