<svg width="600" height="141.07" viewBox="0 0 158.75 37.324" xmlns="http://www.w3.org/2000/svg">
 <g transform="translate(-60.411 -266.88)" fill="#595959">
  <path d="m151.2 282.46c1.4444-.17148 2.9295.0431 4.2744.59408-.40319.77118-.81405 1.5383-1.2147 2.3097-.70689-.35472-1.5082-.59026-2.3043-.48384-.24753.0365-.52058.14162-.64052.37793-.097.19956-.11484.46648.0408.64409.12503.14673.30623.2409.48996.29679.58947.17327 1.207.24319 1.7889.44504.52823.17633 1.0437.43943 1.4214.85816.39809.42642.63542.98884.69414 1.5661.074.74768-.051 1.5294-.43894 2.1824-.45677.77577-1.2249 1.3397-2.067 1.6409-.69156.24753-1.429.34706-2.1589.35727-1.4852.0383-2.9525-.41086-4.2182-1.1631.43382-.8429.87017-1.6855 1.304-2.5279.70176.45806 1.4775.83806 2.3145.97025.3445.0503.69663.0666 1.0411-.003.23478-.0488.4772-.17097.57928-.39861.10207-.23502.0944-.53206-.0689-.73775-.13525-.17276-.3445-.26463-.54865-.32945-.58182-.18425-1.1866-.27866-1.7761-.44224-.59204-.14775-1.1611-.44938-1.549-.92662-.35726-.43458-.50271-1.0046-.51547-1.5579-.0255-.66273.1327-1.3372.4874-1.9024.29602-.4818.7094-.89624 1.2019-1.1818.56652-.33328 1.2122-.51089 1.8629-.58846z"/>
  <path d="m60.411 266.88v37.324h37.017v-37.324c-12.34-.00069-24.679-.00051-37.017-.00051zm31.812 10.396c.3762.008.74947.12429 1.0614.33694.47975.31898.80914.85023.88058 1.4211.074.54789-.09488 1.1218-.44959 1.5451-.35726.4351-.90574.71253-1.4697.7271-.50272.0199-1.0077-.16802-1.3803-.50334-.42616-.37385-.6811-.93238-.6811-1.4986-.0051-.54252.22139-1.0799.60927-1.4578.28581-.28174.65867-.4755 1.0542-.54261.12376-.0214.24978-.0307.37518-.0279zm-28.214 1.1452h5.2245c.43229.00069.86403-.003 1.295.0382 1.1269.10055 2.2789.46267 3.113 1.2568.70052.65582 1.0961 1.5898 1.2056 2.5332.10565.86303.03838 1.7566-.28061 2.5704-.28019.72472-.77424 1.3784-1.4227 1.8118-.44402.30241-.9543.4922-1.48.59326 1.5421 2.04 3.0931 4.0669 4.638 6.1036-1.5947.003-3.1904 0-4.7848 0-1.1925-1.8853-2.3869-3.7697-3.5781-5.6571-.0222-.0352-.04951-.0657-.0832-.0894-.0082 1.9155.0026 3.8326 0 5.747-1.2808.003-2.5663.003-3.8468 0zm3.8468 2.9668v3.7192c.52467.003 1.0542.008 1.5689-.10852.36109-.0819.72376-.22522.9953-.48524.27636-.25699.42342-.62427.45941-.99478.04389-.44505-.01123-.92974-.26769-1.308-.22329-.33276-.58637-.53858-.96378-.65061-.5808-.17429-1.1917-.17489-1.7922-.17208zm13.733 1.464c.27884.007.55687.0379.83096.0909.83854.16767 1.6511.56929 2.2071 1.2315v-.9891c1.1889-.001 2.3775.0007 3.5667 0v10.144h-3.5667c-.0031-.38024.000198-.76309-.0062-1.1421-.08472.0559-.12197.15391-.185.22842-.443.57672-1.1084.94424-1.8056 1.1178-1.3351.32409-2.8058.0406-3.9233-.76068-.94472-.66654-1.631-1.6721-1.971-2.7735-.47975-1.5426-.3091-3.2848.51005-4.6824.5188-.89063 1.312-1.6318 2.2583-2.048.56677-.25365 1.1847-.392 1.8056-.41445.09308-.003.1861-.004.27906-.001zm8.8047.3359c1.1891-.00052 2.378-.00052 3.5647 0v10.141c-1.1866.003-2.3755.003-3.5647 0zm-8.0311 2.7921c-.07758.002-.15264.004-.22944.0124-.64945.0633-1.2766.42042-1.6206.98238-.3667.58156-.43841 1.3183-.26769 1.9777.12862.49838.43746.94759.87386 1.2247.52926.34118 1.1918.42125 1.8056.32556.51369-.0822 1.0071-.3351 1.3333-.74673.41952-.51852.55204-1.2248.45889-1.8754-.0786-.56168-.362-1.1025-.81598-1.4485-.43305-.33582-.99383-.46875-1.5374-.45217z"/>
  <path d="m162.3 277.67c.86254-.20416 1.7634-.24396 2.6437-.13092.78595.10437 1.5541.36825 2.2252.79596.96969.62037 1.7634 1.5411 2.1512 2.6305.30367.84747.37257 1.7684.26794 2.6593-.0868.70614-.31388 1.3953-.6737 2.0088-.35981.62852-.84463 1.1759-1.3627 1.6771-.88043.81586-1.7608 1.6334-2.6386 2.4501 1.6255-.001 3.2485-.00052 4.874-.00052v3.2991c-3.9528 0-7.9054 0-11.859-.003.005-.0587-.0153-.1327.0383-.17352 1.2096-1.2599 2.4166-2.5182 3.6262-3.777.50783-.54634 1.0361-1.0756 1.5107-1.6515.81149-.98349 1.6077-2.0032 2.1308-3.1753.2756-.6265.47975-1.3268.33684-2.0135-.0944-.4499-.35981-.85692-.71708-1.1417-.65839-.52952-1.7608-.40473-2.2406.30367-.3598.52338-.39043 1.2096-.26539 1.8141-1.4265.00052-2.853 0-4.282 0-.005-1.1221.23477-2.2717.84721-3.2251.763-1.1882 2.0185-2.0257 3.3863-2.3469z"/>
  <path d="m176.16 277.46v.00052c-1.845 3.2105-3.6771 6.4299-5.5196 9.6424v.00051c-.0357.0666-.0919.13048-.0817.21291v2.5306c2.3528.0007 4.7055-.0003 7.0586.00052v3.1988c1.1688.003 2.3396-.00009 3.5084.002v-3.2014c.58949-.0004 1.182.00052 1.7715 0v-3.1073c-.58949-.00051-1.182.00012-1.7715-.001v-9.2755c-1.6561-.002-3.3095.004-4.9656-.003zm1.4568 3.2929v5.9862c-1.1399.00069-2.2796.00012-3.422.00052 1.1407-1.996 2.2813-3.9918 3.422-5.9868z"/>
  <path d="m99.63 278.01c1.3448.0005 2.6897-.001 4.0345.00069 2.4702 3.1319 4.943 6.2622 7.4157 9.3931v-9.3938c1.3448-.00052 2.6871-.00052 4.032 0v15.359c-1.3448 0-2.6871-.003-4.032 0-2.4727-3.1357-4.9455-6.2712-7.4185-9.4063v9.4063c-1.3448 0-2.6871-.003-4.032 0z"/>
  <path d="m121.81 282.23c-.30147-.005-.60333.007-.90383.0305-.89063.0783-1.7837.31656-2.5518.79582-1.0973.68365-1.8807 1.8333-2.1844 3.096-.22712.94721-.25247 1.9466-.0713 2.9042.23222 1.2126.91604 2.3294 1.8909 3.0743.49507.37997 1.0616.65803 1.6537.83665.82425.25263 1.6918.32886 2.5492.30334.86253-.0306 1.7301-.19396 2.5084-.5793.50018-.24752.96237-.58134 1.3452-.99271.51037-.55938.83681-1.2666 1.0537-1.9906-1.1637 0-2.3302-.001-3.4939 0-.20415.33046-.4871.62015-.83923.78807-.41596.20441-.89297.22204-1.3446.16743-.3496-.0418-.70227-.14754-.99323-.3545-.25263-.17659-.44599-.43089-.57103-.71521-.16842-.38634-.21708-.81426-.21963-1.2335 2.534-.00041 5.0704 0 7.6043-.00052.008-.60913-.005-1.2224-.12247-1.8216-.22456-1.2098-.82425-2.3723-1.7736-3.1585-.58948-.48895-1.3017-.81081-2.0418-.97825-.49123-.11227-.99199-.16399-1.4945-.17156zm.10645 2.3177c.48108.0145.9563.15713 1.3147.48938.34451.32.53566.77251.64028 1.2268-1.378.0005-2.7556.0005-4.1336 0 .0536-.31618.15527-.62837.339-.8935.25519-.37717.66125-.64005 1.0976-.7488h-.002c.174-.0393.35508-.0643.53796-.0723.0685-.003.13764-.004.20619-.002z"/>
  <path d="m127.11 282.38c1.3499-.00051 2.6999-.00051 4.0498 0 .82168 1.9096 1.6332 3.8247 2.4626 5.7313.8574-1.9106 1.7174-3.8211 2.5748-5.7313.76301.001 1.5234-.003 2.284.002.85234 1.9678 1.7097 3.9334 2.5646 5.9001.85997-1.9667 1.7225-3.9319 2.5774-5.8994 1.3474-.007 2.6948-.001 4.0447-.003-1.7914 3.629-3.5904 7.2521-5.3743 10.883-.80892.0128-1.6204.003-2.4319.008-.85491-1.9912-1.7098-3.9822-2.5672-5.9729-.82169 1.9902-1.6383 3.9825-2.46 5.9729-.81406-.003-1.6307 0-2.4447-.003-1.7608-3.6293-3.5216-7.2583-5.2798-10.888z"/>
  <path d="m189.58 277.46c.00062 5.196-.00042 10.392 0 15.587h29.582v-15.586c-9.8606-.004-19.722-.00024-29.582-.001zm6.9195 3.9223c.77425 0 1.5491.001 2.3239 0 .001 1.1503.0001 2.3007.00052 3.451 1.1139-.00042 2.228.0006 3.342-.001-.00063-1.1497.00042-2.2987 0-3.4484.77936-.001 1.5596-.00001 2.3394-.00052 0 2.9774-.00042 5.9553 0 8.9334-.77938.003-1.5591.00067-2.3384.001-.00063-1.2267-.00061-2.4537-.001-3.681-1.1139 0-2.2275.00042-3.3414 0-.001 1.2268.00041 2.4543 0 3.681-.77556.00041-1.55.00041-2.325 0 0-2.978-.00041-5.9569 0-8.935zm9.8698 0c .90083.00063 1.8014-.00002 2.7022.00051.54452.006 1.0966-.0331 1.6325.0899.9355.18981 1.7685.7416 2.3911 1.4542.52553.58898.89986 1.3178 1.0387 2.097.19145 1.0608.0167 2.2012-.56742 3.1166-.4859.76252-1.1741 1.4097-1.9958 1.7952-.54232.25491-1.1418.37758-1.7394.38138-1.1541.00042-2.3078 0-3.4618 0-.00043-2.978-.00043-5.9568 0-8.9349zm2.3249 1.973c0 1.6632-.00074 3.3263.00052 4.9899.40132-.004.80826.0203 1.203-.0687.59276-.11936 1.1424-.46703 1.4764-.97515.33951-.51249.43167-1.154.37311-1.757-.0856-.87426-.6454-1.7488-1.5022-2.033-.50492-.12908-1.0324-.14847-1.5508-.15607z"/>
 </g>
</svg>
