<svg id="a" width="265.8" height="84.047" enable-background="new 0 0 595.276 793.701" version="1.1" viewBox="0 0 249.18 78.794" xml:space="preserve" xmlns="http://www.w3.org/2000/svg"><g id="b" transform="translate(-.012497 -.013591)" fill="#05429e"><path id="c" d="m98.323 23.539v25.432h10.163v7.1789h-18.641v-32.61z"/><path id="d" d="m135.31 33.962v22.187h-7.8718v-2.4655h-0.0858c-0.63444 1.0383-1.4996 1.8098-2.5956 2.3144-1.096 0.50464-2.2348 0.78555-3.4165 0.84275-0.11529 0.02904-0.23056 0.04356-0.34581 0.04356-0.11529-1e-6 -0.23056-1e-6 -0.34581 0-3.2874-1e-6 -5.9762-1.1749-8.0665-3.5248-2.0903-2.3498-3.1354-5.1108-3.1354-8.2829 0-3.1712 1.0306-5.9318 3.0918-8.2816s4.7355-3.5247 8.0229-3.5248c0.1443 2.2e-5 0.28861 2.2e-5 0.43293 0 0.14429 2.2e-5 0.28816 0.0141 0.4316 0.04224 1.1245 0.08713 2.2275 0.36849 3.309 0.84407 1.0814 0.47562 1.9824 1.1459 2.7031 2.0108v-2.2055h7.8718zm-12.672 6.0979c-1.5856 0.02905-2.8254 0.54095-3.7194 1.5357-0.89401 0.99477-1.341 2.1697-1.341 3.5248-1e-5 1.4132 0.447 2.5953 1.341 3.5465 0.89399 0.9512 2.1338 1.4268 3.7194 1.4268 1.6146 6e-6 2.8617-0.47559 3.7412-1.4268 0.87946-0.95119 1.3192-2.1334 1.3192-3.5465-2e-5 -1.3551-0.43976-2.53-1.3192-3.5248-0.8795-0.99474-2.1266-1.4921-3.7412-1.4921z"/><path id="e" d="m157.22 56.15v-2.4655h-0.0871c-0.63445 1.0383-1.4994 1.8098-2.5949 2.3144-1.0955 0.50464-2.2346 0.78555-3.4172 0.84275-0.11529 0.02904-0.23056 0.04356-0.34581 0.04356-0.11528-1e-6 -0.23055-1e-6 -0.34581 0-3.2874-1e-6 -5.9762-1.1749-8.0665-3.5248-2.0903-2.3498-3.1354-5.1108-3.1354-8.2829 0-3.1712 1.0308-5.9318 3.0925-8.2816s4.7357-3.5247 8.0223-3.5248c0.14429 2.2e-5 0.2886 2.2e-5 0.43292 0 0.14429 2.2e-5 0.2886 0.0141 0.43292 0.04224 1.1245 0.08713 2.2273 0.36849 3.3083 0.84407 1.081 0.47562 1.9822 1.1459 2.7038 2.0108v-15.915h7.8705v35.897h-7.8705zm-4.8018-16.089c-1.5856 0.02905-2.8254 0.54095-3.7194 1.5357-0.89401 0.99477-1.341 2.1697-1.341 3.5248 0 1.4132 0.447 2.5953 1.341 3.5465 0.89399 0.9512 2.1338 1.4268 3.7194 1.4268 1.6146 6e-6 2.8617-0.47559 3.7412-1.4268 0.87946-0.95119 1.3192-2.1334 1.3192-3.5465-1e-5 -1.3551-0.43976-2.53-1.3192-3.5248-0.8795-0.99474-2.1266-1.4921-3.7412-1.4921z"/><path id="f" d="m177.88 33.962v22.187h-7.8718v-22.187zm-3.9359-12.932c1.2108 0.02907 2.2486 0.47607 3.1136 1.341 0.86496 0.865 1.2974 1.9029 1.2974 3.1136-1e-5 1.2117-0.43249 2.25-1.2974 3.1149-0.86497 0.86499-1.9028 1.2975-3.1136 1.2974-1.2108 2.6e-5 -2.2486-0.43246-3.1136-1.2974-0.86496-0.86494-1.2974-1.9032-1.2974-3.1149 0-1.2107 0.43248-2.2486 1.2974-3.1136 0.86496-0.86493 1.9028-1.2974 3.1136-1.2974z"/><path id="g" d="m190.97 33.962v2.8549h0.0858c0.92302-1.3269 1.9541-2.2497 3.0932-2.7685 1.139-0.51869 2.4724-0.77805 3.9999-0.77807 2.9988 2.2e-5 5.1398 0.85047 6.4232 2.5513 1.2833 1.7009 1.925 3.921 1.925 6.6601v13.667h-7.8718v-10.812c-2e-5 -0.05806-2e-5 -0.13022 0-0.21646-2e-5 -0.08622-2e-5 -0.17245 0-0.2587-2e-5 -0.25957-2e-5 -0.53366 0-0.82229-2e-5 -0.2886-0.0145-0.57678-0.0436-0.86452-0.0581-0.89399-0.31767-1.7231-0.77873-2.4873-0.4611-0.7642-1.3692-1.1463-2.7242-1.1463-1.5856 1.7e-5 -2.6668 0.51191-3.2436 1.5357-0.5768 1.0238-0.8652 2.2273-0.86519 3.6105v11.462h-7.8718v-22.187h7.8718z"/><path id="h" d="m219.52 33.962v22.187h-7.8718v-22.187zm-3.9359-12.932c1.2108 0.02907 2.2486 0.47607 3.1136 1.341 0.86496 0.865 1.2974 1.9029 1.2974 3.1136-1e-5 1.2117-0.43249 2.25-1.2974 3.1149-0.86497 0.86499-1.9028 1.2975-3.1136 1.2974-1.2108 2.6e-5 -2.2486-0.43246-3.1136-1.2974-0.86496-0.86494-1.2974-1.9032-1.2974-3.1149-1e-5 -1.2107 0.43248-2.2486 1.2974-3.1136 0.86496-0.86493 1.9028-1.2974 3.1136-1.2974z"/><path id="i" d="m249.01 33.962v22.187h-7.8718v-2.4655h-0.0858c-0.63444 1.0383-1.4996 1.8098-2.5956 2.3144-1.096 0.50464-2.2348 0.78555-3.4165 0.84275-0.11528 0.02904-0.23055 0.04356-0.34581 0.04356-0.11528-1e-6 -0.23055-1e-6 -0.34581 0-3.2874-1e-6 -5.9762-1.1749-8.0665-3.5248-2.0903-2.3498-3.1354-5.1108-3.1354-8.2829 0-3.1712 1.0306-5.9318 3.0918-8.2816s4.7355-3.5247 8.0229-3.5248c0.1443 2.2e-5 0.2886 2.2e-5 0.43292 0 0.1443 2.2e-5 0.28816 0.0141 0.4316 0.04224 1.1245 0.08713 2.2275 0.36849 3.309 0.84407 1.0814 0.47562 1.9824 1.1459 2.7031 2.0108v-2.2055h7.8718zm-12.672 6.0979c-1.5856 0.02905-2.8254 0.54095-3.7194 1.5357-0.89401 0.99477-1.341 2.1697-1.341 3.5248-1e-5 1.4132 0.44699 2.5953 1.341 3.5465 0.89399 0.9512 2.1338 1.4268 3.7194 1.4268 1.6146 6e-6 2.8617-0.47559 3.7412-1.4268 0.87947-0.95119 1.3192-2.1334 1.3192-3.5465-2e-5 -1.3551-0.43976-2.53-1.3192-3.5248-0.8795-0.99474-2.1266-1.4921-3.7412-1.4921z"/></g><path id="j" d="m78.603 0.1875h-78.415v78.419h78.415zm-62.635 38.289h0.78985c2.6611 0 5.6487-0.49824 5.6487-3.9029 0-3.4046-2.9875-3.9048-5.6487-3.9048h-0.78985zm17.904 17.284h-10.137l-7.6841-12.047h-0.08304v12.047h-8.1379v-31.324h12.166c6.1894 0 10.882 2.9489 10.882 9.6365 0 4.32-2.4082 8.0607-6.8518 8.8486zm8.1128-10.637c0 2.6978 1.7902 4.7777 4.8627 4.7777 3.0744 0 4.8607-2.0779 4.8607-4.7777 0-2.6148-1.7863-4.8163-4.8607-4.8163s-4.8627 2.1996-4.8627 4.8163m17.029 10.637h-7.5567v-2.3715h-0.08304c-1.3286 2.1204-3.9434 3.0744-6.4385 3.0744-6.3149 0-10.757-5.274-10.757-11.38 0-6.1083 4.3644-11.342 10.672-11.342 2.4487 0 5.0288 0.91344 6.6065 2.7828v-2.0741h7.5567v21.31zm12.701-29.497c0 2.329-1.9138 4.237-4.237 4.237s-4.2312-1.908-4.2312-4.237c0-2.3251 1.908-4.237 4.2312-4.237s4.237 1.9119 4.237 4.237m-0.45769 29.497h-7.5547v-21.309h7.5547z" fill="#05429e"/></svg>
