<svg width="838.31" height="248" enable-background="new 0 0 3573.143 1078.132" space="preserve" version="1.1" viewBox="0 0 838.31 248" xmlns="http://www.w3.org/2000/svg">
 <link href="" rel="stylesheet" type="text/css"/>
 <style type="text/css"/>
 <g transform="scale(.23003)" fill="#009">
  <path d="m0 0v1078.1h1078.1v-1078.1zm338.17 749.09-103.24-162.02h-0.903v162.02h-110.01v-421.05h163.93c83.152 0 146.21 39.838 146.21 129.69 0 58.039-32.368 108.29-92.081 118.89l132.26 172.47h-136.17zm452.92 3h-102.01v-32.004h-1.409c-18.033 29.004-53.537 41.678-87.351 41.678-85.66 0-145.96-71.582-145.96-154.42 0-82.844 59.313-153.86 144.97-153.86 33.249 0 67.743 12.392 89.745 37.752v-28.18h102.01zm161.02-1h-102.01v-286.04h102.01zm-51.07-339.14c-31.252 0-56.923-25.671-56.923-56.923 0-31.251 25.671-56.922 56.923-56.922s56.923 25.671 56.923 56.922c0 31.252-25.671 56.923-56.923 56.923z"/>
  <path d="m626.25 542.52c-41.703 0-65.935 29.867-65.935 65.371 0 36.63 24.232 64.809 65.935 64.809s65.936-28.178 65.936-64.809c0-35.504-24.233-65.371-65.936-65.371z"/>
  <path d="m244.42 412.05h-10.39v105.01h10.39c35.716 0 75.897-6.745 75.897-52.506s-40.181-52.507-75.897-52.507z"/>
 </g>
 <g transform="matrix(3.5051 0 0 3.5051 13151 11923)" fill="#009" font-family="'ITC Lubalin Graph Std'" font-size="40px" font-weight="bold" letter-spacing="0px" word-spacing="0px" aria-label="Ladinia">
  <path d="m-3650.2-3351.8v-9.4h-7v3.08h-5.28v-16.36h2.76v-5.88h-12.56v5.88h2.76v16.8h-2.76v5.88z"/>
  <path d="m-3623.3-3351.8v-5.88h-2.28v-9.84h2.28v-5.84h-8.64v2.08c-1.4-1.84-3.24-2.76-5.68-2.76-6 0-11.08 5.16-11.08 11.56 0 6.12 4.84 11.36 10.84 11.36 2.48 0 4.52-0.88 5.92-2.52v1.84zm-8.6-10.84c0 2.92-2.32 5.28-5.16 5.28-2.88 0-5.2-2.28-5.2-5.16 0-2.92 2.36-5.28 5.24-5.28 2.84 0 5.12 2.32 5.12 5.16z"/>
  <path d="m-3595.2-3351.8v-5.88h-2.32v-22.68h-8.64v5.88h2.32v3.16c-1.72-1.6-3.76-2.48-6.12-2.48-5.4 0-10.72 4.64-10.72 11.08 0 6.52 5.32 11.36 10.88 11.36 2.64 0 4.56-0.92 5.96-2.72v2.28zm-8.48-10.92c0 2.92-2.32 5.36-5.24 5.36-2.84 0-5.2-2.36-5.2-5.2 0-2.88 2.36-5.24 5.24-5.24s5.2 2.28 5.2 5.08z"/>
  <path d="m-3583.7-3374.5v-5.88h-6.36v5.88zm2.24 22.68v-5.88h-2.24v-15.68h-8.64v5.84h2.28v9.84h-2.28v5.88z"/>
  <path d="m-3554-3351.8v-5.88h-2.28v-8.04c0-1.16-0.04-2.36-0.4-3.32-1.04-2.84-3.92-4.76-7.4-4.76-2.52 0-4.52 1.12-5.76 3.24v-2.8h-8.64v5.84h2.28v9.84h-2.28v5.88h10.88v-5.88h-2.24v-4.88c0-2.28 0.24-5 3.84-5 2.12 0 3.36 1.12 3.36 3.64v12.12z"/>
  <path d="m-3542.8-3374.5v-5.88h-6.36v5.88zm2.24 22.68v-5.88h-2.24v-15.68h-8.64v5.84h2.28v9.84h-2.28v5.88z"/>
  <path d="m-3512.7-3351.8v-5.88h-2.28v-9.84h2.28v-5.84h-8.64v2.08c-1.4-1.84-3.24-2.76-5.68-2.76-6 0-11.08 5.16-11.08 11.56 0 6.12 4.84 11.36 10.84 11.36 2.48 0 4.52-0.88 5.92-2.52v1.84zm-8.6-10.84c0 2.92-2.32 5.28-5.16 5.28-2.88 0-5.2-2.28-5.2-5.16 0-2.92 2.36-5.28 5.24-5.28 2.84 0 5.12 2.32 5.12 5.16z"/>
 </g>
</svg>
