<?xml version="1.0" encoding="UTF-8"?>
<!-- Created with Inkscape (http://www.inkscape.org/) -->
<svg id="svg4520" width="158.75mm" height="116.8mm" version="1.1" viewBox="0 0 158.75 116.8" xmlns="http://www.w3.org/2000/svg" xmlns:cc="http://creativecommons.org/ns#" xmlns:dc="http://purl.org/dc/elements/1.1/" xmlns:rdf="http://www.w3.org/1999/02/22-rdf-syntax-ns#">
 <metadata id="metadata4517">
  <rdf:RDF>
   <cc:Work rdf:about="">
    <dc:format>image/svg+xml</dc:format>
    <dc:type rdf:resource="http://purl.org/dc/dcmitype/StillImage"/>
    <dc:title/>
   </cc:Work>
  </rdf:RDF>
 </metadata>
 <g id="layer1" transform="translate(96.382 -90.433)">
  <g id="g14" transform="translate(-96.382 90.433)" fill="#00b46e">
   <path id="path2" d="m137.77 67.868v0.58255c0 2.9128 1.7477 4.3693 4.9522 4.3693 3.2043 0 4.9522-2.039 4.9522-4.9522 0-3.4954-2.6216-5.2432-7.8647-5.2432h-2.3303v-8.7386h1.1651c4.9522 0 7.2821-1.7477 7.2821-5.5343 0-2.9128-1.4564-4.6606-3.7867-4.6606s-3.4954 1.4564-3.4954 3.7867v0.58255h-11.069c0-8.4476 5.8256-13.982 14.856-13.982 8.4476 0 13.982 5.2432 13.982 12.816 0 4.3693-2.039 7.8647-6.6995 9.321 5.8261 1.7515 9.0305 5.5377 9.0305 10.782 0 9.0296-6.4082 15.147-16.021 15.147-10.486 0-16.312-5.5343-16.312-14.856h11.36z"/>
   <path id="path4" d="m0 0v116.8h116.8v-116.8zm97.58 32.332c3.2041 0 6.1163 2.9125 6.1163 6.1163 0 3.2041-2.6212 6.1163-6.1163 6.1163-3.4954 0-6.1171-2.9125-6.1171-6.1163 0-3.4954 2.9133-6.1163 6.1171-6.1163zm-84.182 3.2004h17.768c9.0296 0 16.021 4.3693 16.021 13.982 0 6.4082-3.4954 11.651-9.9033 12.816l14.273 18.642h-14.857l3e-3 0.2951-11.361-17.478v17.477h-11.943zm11.941 9.3252v11.36h1.1655c3.7867 0 8.156-0.58271 8.156-5.8258 0-4.9522-4.3693-5.5337-8.156-5.5337v-8.01e-4zm39.907 4.0783c3.4954 0 7.2818 1.4566 9.612 4.0783v-2.9136h11.069v31.168l-0.29136-1e-3h-11.069v-3.4948c-2.039 3.2041-5.8253 4.369-9.3207 4.369-9.321 0-15.73-7.5737-15.73-16.603 0-9.0297 6.4087-16.603 15.73-16.603zm26.8 1.4553h11.069l-8e-4 30.877h-11.068zm-24.177 8.4497c-4.3693 0-6.9905 3.2046-6.9905 6.9913 0 4.0783 2.6214 6.9905 6.9905 6.9905s6.9905-2.9128 6.9905-6.9905c0.29128-3.7867-2.3301-6.9913-6.9905-6.9913z"/>
   <g id="g12" transform="matrix(1.5061 0 0 1.5061 -108.4 -76.911)">
    <path id="path6" d="m163.72 115.91c-1e-5 0.78335-0.21784 1.4208-0.65349 1.9123-0.63097 0.71167-1.5924 1.0675-2.8844 1.0675h-4.274v-10.483h3.966c1.9229 1e-5 2.8844 0.91136 2.8844 2.734-1e-5 0.54784-0.10516 1.0061-0.31548 1.3747-0.17527 0.31232-0.44568 0.57856-0.81123 0.79871 0.82124 0.17409 1.3821 0.50944 1.6826 1.0061 0.2704 0.45568 0.4056 0.9856 0.40561 1.5898zm-3.4252-4.4083c0-0.47615-0.21032-0.79102-0.63095-0.94463-0.15024-0.0512-0.35054-0.0768-0.60092-0.0768h-0.48824v2.0505h0.48824c0.4607 0 0.7912-0.11519 0.99151-0.3456 0.16023-0.18431 0.24036-0.41215 0.24036-0.68351zm0.75865 4.224c0-0.60927-0.30797-0.96767-0.9239-1.0752-0.1953-0.0307-0.53081-0.0461-1.0065-0.0461h-0.54833v2.2118h0.5934c0.68103 0 1.1568-0.0819 1.4272-0.24576 0.30546-0.18431 0.45819-0.46591 0.45819-0.84479z"/>
    <path id="path8" d="m168.1 118.88h-2.6666v-10.483h2.6666z"/>
    <path id="path10" d="m177.38 115.41c-1e-5 1.7715-0.76116 2.926-2.2835 3.4636-0.53081 0.18944-1.1017 0.28416-1.7126 0.28416-1.282 0-2.4712-0.3968-3.5679-1.1904l1.1417-2.1965c0.80121 0.73727 1.5849 1.1059 2.3511 1.1059 0.34552 0 0.63846-0.0819 0.87883-0.24576 0.28042-0.18432 0.42064-0.44543 0.42064-0.78335 0-0.3072-0.15524-0.56319-0.46571-0.768-0.23035-0.15359-0.61844-0.30975-1.1643-0.46847-0.66101-0.19967-1.0766-0.33791-1.2469-0.41472-0.27041-0.11775-0.50076-0.25599-0.69105-0.41471-0.54583-0.46079-0.81874-1.1571-0.81874-2.0889 0-0.97279 0.28293-1.7792 0.84879-2.4192 0.661-0.75262 1.5423-1.1289 2.644-1.129 1.1067 1e-5 2.1908 0.28417 3.2524 0.85247l-1.0666 2.1197c-0.58089-0.46079-1.1668-0.69118-1.7577-0.69119-0.28543 1e-5 -0.54082 0.0742-0.76616 0.22272-0.25539 0.16896-0.38309 0.39424-0.38308 0.67583-1e-5 0.27648 0.16775 0.51456 0.50326 0.71423 0.15023 0.0922 0.60091 0.25089 1.3521 0.47616 0.94142 0.2816 1.6124 0.68096 2.013 1.1981 0.34552 0.44032 0.51828 1.0061 0.51829 1.6973z"/>
   </g>
  </g>
 </g>
</svg>
