<svg id="a" version="1.1" viewBox="0 0 456.95 133.53" xmlns="http://www.w3.org/2000/svg">
 <path id="b" d="m10.468 2.351c4.7553-2.5816 10.327-2.3776 15.57-2.3244l202.36 0.01908v133.46h-202.32c-4.7294 0-9.6264 0.31857-14.143-1.3948-6.6627-2.6427-11.747-9.276-11.942-16.534v-97.528c0.16857-6.6668 4.5247-12.842 10.469-15.698z" fill="#05a9a0" stroke-width=".76158"/>
 <path id="c" d="m228.4 0.044303 201.36 0.01908c4.4019 0.05341 8.8876-0.31952 13.206 0.74524 8.2022 2.218 14.325 10.371 13.967 18.897v94.017c0.2818 7.3035-3.9983 14.44-10.525 17.684-4.8436 2.5513-10.495 2.0704-15.772 2.1009h-202.23v-133.46z" fill="#b91537" stroke-width=".76158"/>
 <g id="d" transform="matrix(.76158 0 0 .76158 -.00076158 -2.002e-7)" fill="#fdfdfc">
  <path id="e" d="m246.69 99.323c0.13-19.14-0.2-38.303 0.16-57.443 4.75-0.094 9.52-0.047 14.27-0.035 1.06 20.724 0.04 41.507 0.56 62.255 0.18 2.25 0.75 4.79 2.73 6.16 2.91 2.18 6.75 1.61 10.17 1.8-0.04 4.22-0.01 8.45 0.02 12.68-7.26 1.28-15.49 0.57-21.14-4.63-5.71-5.23-6.83-13.44-6.77-20.787z"/>
  <path id="f" d="m65.412 49.976c-5.112 0.01-10.205 0.052-15.319 0.087-0.21 25.047-0.198 50.077-0.059 75.107 4.683-0.02 9.384-0.01 14.067 0.03 0.396-8.87 0.117-17.77 0.175-26.646 4.636-0.035 9.255-0.017 13.892-0.029 5.16 8.865 10.21 17.775 15.406 26.615 5.405-0.03 10.836 0.39 16.196-0.61-5.05-9.67-10.913-18.89-16.109-28.48 5.79-3.064 10.509-8.306 11.939-14.795 1.56-7.864 0.82-16.816-4.45-23.212-4.908-5.929-12.97-8.02-20.39-8.009-5.114-0.04-10.237-0.068-15.348-0.058zm9.028 13.455c3.383-0.041 6.757 0.012 10.106 0.437 10.007 1.864 10.018 19.664-0.233 20.969-6.664 0.408-13.362 0.122-20.037 0.146 0-7.13 0.041-14.259 0.029-21.377 3.367 6e-3 6.752-0.134 10.135-0.175z"/>
  <path id="g" d="m423.86 73.485c6.75-8.073 20.11-6.85 26.64 0.862 7.7-8.213 22.11-8.668 30-0.571 4.69 4.893 5.74 12.034 5.42 18.546-0.12 10.938 0.13 21.888-0.17 32.828-4.73-0.01-9.46-0.02-14.18-0.01-0.34-11.74 0-23.5-0.16-35.253-0.03-2.481-0.76-5.207-2.89-6.698-4.63-3.705-12.77-0.525-13.24 5.463-0.26 12.158 0.08 24.338-0.15 36.508-4.86-0.02-9.7-0.02-14.54-0.05-0.22-12.1 0.08-24.21-0.12-36.318 0-3.157-2.29-6.151-5.4-6.815-5.08-1.852-10.82 2.656-10.73 7.957-0.25 11.746 0.13 23.486-0.17 35.216-4.77-0.04-9.54-0.01-14.31-0.01-0.21-18.54-0.16-37.07-0.02-55.593 4.5-0.058 8.99-0.058 13.49-0.047 0.17 1.328 0.36 2.657 0.53 3.985z"/>
  <path id="h" d="m523.82 68.033c-0.5-9e-3 -0.97 0.011-1.46 0.029-10.52 0.058-20.44 6.786-24.99 16.163-3.06 6.081-3.32 13.188-2.27 19.805 1.93 9.12 8.69 17.03 17.33 20.47 7.02 2.76 15.01 2.6 22.05 0.03 7.17-2.81 13.76-8.86 15.05-16.71-0.15-0.05-9.63-0.33-14.41-0.47-3.07 3.89-7.55 7.01-12.73 6.41-6.5 0.17-11.46-5-13.48-10.75 13.99-0.02 27.99-0.06 41.99 0.03 1.33-9.25-0.85-19.269-7.19-26.328-5.06-5.461-12.48-8.554-19.89-8.679zm-0.18 12.727c6.17 5e-3 11.41 4.841 13.34 10.542-9.27 0.012-18.52 0.065-27.78-0.029 2.12-5.44 6.91-10.688 13.19-10.455 0.42-0.044 0.84-0.059 1.25-0.058z"/>
  <path id="i" d="m142.36 68.12c-4.2-0.109-8.41 0.68-12.24 2.388-12.55 5.324-20.02 20.299-16.6 33.522 1.94 9.24 8.79 17.21 17.57 20.65 6.87 2.76 14.7 2.4 21.63 0.03 7.39-2.85 14.2-9.22 15.24-17.36-4.87-0.11-9.77-0.06-14.65 0-4.08 7.11-14.76 8.77-20.89 3.41-2.44-1.88-3.71-4.79-5.06-7.46 13.77-0.31 27.57 0.2 41.32-0.23 1.59-1.15 0.92-3.258 1.08-4.924 0.04-8.096-2.68-16.402-8.47-22.192-4.99-4.98-11.95-7.652-18.93-7.834zm-2.13 12.727c0.4-0.016 0.79-0.025 1.19 0 6.43-0.245 11.99 4.526 13.81 10.514-9.2-0.035-18.4 0.04-27.61-0.029 1.93-5.417 6.68-10.24 12.61-10.485z"/>
  <path id="j" d="m203.57 68.207c-9.24 0.041-18 5.672-22.48 13.689-5.68 10.216-5.15 23.714 1.6 33.314 5.16 7.74 14.79 12.16 24 11.07 5.29-0.35 9.83-3.3 14.12-6.12 0.1 1.67 0.21 3.36 0.33 5.01 4.39 0 8.78-0.03 13.19 0.03 0.08-18.56 0.11-37.124-0.03-55.682-4.43-0.047-8.85-0.017-13.28-0.029-0.07 1.771-0.11 3.547-0.15 5.329-4.46-3.459-9.64-6.401-15.43-6.552-0.62-0.048-1.25-0.061-1.87-0.059zm1.52 13.339c10.61-0.478 17.87 11.917 14.15 21.374-2.19 7.78-11.77 12.71-19.13 8.74-9.2-4.47-10.84-18.057-4.11-25.338 2.31-2.667 5.57-4.403 9.09-4.776z"/>
 </g>
 <path id="k" d="m291.81 38.003v10.536h11.424v-10.536zm0.22085 14.683v42.633h11.157v-42.633z" fill="#fff" stroke-width=".76158"/>
 <path id="l" d="m247.25 38.003v10.536h15.392v46.781h11.317v-46.781h15.392v-10.536z" fill="#fff" stroke-width=".76158"/>
</svg>
