<svg id="a" width="127pt" height="68.36pt" version="1.1" viewBox="0 0 127 68.36" xmlns="http://www.w3.org/2000/svg">
 <path id="b" d="m0 0h127v39.75h-127v-39.75" fill="#023f76"/>
 <path id="c" d="m4.155 44.545h3.605v23.815h-3.605z" fill="#023f76"/>
 <path id="d" d="m14.07 44.455h19.84v2.64h-8.125v21.265h-3.485v-21.265h-8.23z" fill="#023f76"/>
 <path id="e" d="m63.595 44.595h3.845v21.07h14.26v2.695h-18.105z" fill="#023f76"/>
 <path id="f" d="m87.58 44.57h3.855v23.79h-3.855z" fill="#023f76"/>
 <path id="g" d="m108.11 44.57h1.96l11.97 23.79h-4.2l-3.1-6.44h-11.29l-2.91 6.44h-4.2l11.77-23.79m1.115 4.84-4.355 9.575h8.71z" fill="#023f76"/>
 <path id="h" d="m3.935 4.1113h9.6762c2.8017 0 6.3033 0.00698 8.8931 0.55572 1.986 0.49845 3.7798 1.2262 5.0722 2.4128 2.5845 2.4116 3.2922 6.6429 1.9272 9.9501-1.1165 2.8307-3.5318 4.006-6.1336 5.1301l9.01 13.75h-5.24l-8.82-13.145h-9.655v13.145h-4.73v-31.799m4.73 3.9887v10.64c4.1672 0 8.4739 0.27119 12.415-0.33 4.81-0.5 5.24-8.45 0.72-9.76-2.3715-0.64077-8.671-0.55-13.135-0.55z" fill="#fbfdfc"/>
 <path id="i" d="m37.34 4.2403h23.815v3.8647h-19.095v9.495l17.325-0.03v3.96h-17.325v10.47h19.23v3.8903h-23.95z" fill="#fbfdfc"/>
 <path id="j" d="m66.26 4.34h26.52v3.62h-10.785v27.94h-4.74v-27.94h-10.995z" fill="#fbfdfc"/>
 <path id="k" d="m98.602 4.2403h23.815v3.8647h-19.095v9.495l17.325-0.03v3.96h-17.325v10.47h19.23v3.8902h-23.95z" fill="#fbfdfc"/>
 <path id="l" d="m45.59 44.57h1.96l11.97 23.79h-4.2l-3.1-6.44h-11.29l-2.91 6.44h-4.2l11.77-23.79m1.115 4.84-4.355 9.575h8.71z" fill="#023f76"/>
</svg>
