<?xml version="1.0" encoding="UTF-8"?>
<svg id="svg27" width="682.43pt" height="597.6pt" version="1.1" viewBox="0 0 682.43 597.6" xmlns="http://www.w3.org/2000/svg" xmlns:cc="http://creativecommons.org/ns#" xmlns:dc="http://purl.org/dc/elements/1.1/" xmlns:rdf="http://www.w3.org/1999/02/22-rdf-syntax-ns#">
 <metadata id="metadata33">
  <rdf:RDF>
   <cc:Work rdf:about="">
    <dc:format>image/svg+xml</dc:format>
    <dc:type rdf:resource="http://purl.org/dc/dcmitype/StillImage"/>
    <dc:title/>
   </cc:Work>
  </rdf:RDF>
 </metadata>
 <ellipse id="path4510" cx="340.18" cy="239.54" rx="248.56" ry="239.54" fill="#006ffe"/>
 <g id="#ffffffff" transform="translate(-15.75 -65.344)">
  <path id="path2" d="m227.51 129.8c0-3.6853 4.9384-4.0341 7.4098-4.0341h236.04c3.8603 0 5.37 1.0369 5.37 2.67v69.41l-115.9 306.05c-1.3854 3.5648-2.6388 4.4009-6.5033 4.4009-25.34 0.03-50.68 0.02-76.01 0-5.8699 0-6.4069-0.17587-4.17-5.45l122.82-305.13c1.4151-4.1977 1.2397-7.7126-1.65-10.795h-164.94c-2.3287 0-2.4698-0.75959-2.4698-3.355z" fill="#fff"/>
 </g>
 <g id="#010101ff" transform="translate(-15.75 -65.344)" fill="#010101">
  <path id="path8" d="m351.1 575.95c10.77-1.4 22.83-1.54 32.14 4.91 6.45 4.45 9.55 12.16 10.35 19.73-5.74 0.68-11.52 0.71-17.28 1.06-1.11-4.43-2.95-9.49-7.71-11.08-6.27-2.1-13.79-1.92-19.46 1.74-3.65 2.28-3.63 8.06-0.18 10.5 3.84 2.83 8.67 3.76 13.17 5.04 1.31 0.38 2.62 0.68 3.95 1.04 1.3 0.37 2.62 0.67 3.94 1.02 5.3 1.33 10.47 3.16 15.26 5.82 4.14 3.16 7.81 7.27 9.23 12.4 3.09 9.42 0.4 20.61-7.1 27.21-7.31 6.07-17.22 7.57-26.44 7.38-6.23 0.07-12.47-1.02-18.21-3.46-2.29-1.34-4.51-2.77-6.58-4.42-5.69-5.42-8.35-13.1-9.62-20.68 5.55-0.96 11.19-1.19 16.78-1.9 1.02 5.02 3.16 9.99 7.37 13.14 6.75 3.63 15.39 3.97 22.19 0.31 4.39-2.23 7.17-8.05 4.74-12.65-1.43-3.37-5.25-4.37-8.37-5.51-10.16-3.14-21.18-4.34-30.19-10.45-6.63-5.16-10.69-13.89-8.79-22.29 1.72-10.17 10.95-17.35 20.81-18.86z"/>
  <path id="path10" d="m15.75 576.56c13.76-0.03 27.52-0.05 41.28 0 6.47 0.49 13.44 0.73 18.98 4.52 12.59 8.96 12.47 30.97-1 39.07-2.57 1.24-5.27 2.14-7.96 3.05-0.84 0.12-2.54 0.38-3.39 0.5 2.07 2.14 4.73 3.59 6.84 5.7 5.52 5.37 9.13 12.27 13.28 18.68 2.61 4.5 5.72 8.71 8.2 13.28l-1.76-0.21c-0.05 0.45-0.14 1.34-0.19 1.79-0.09-0.45-0.26-1.37-0.34-1.82-5.95 0.41-11.91 0.11-17.86 0.22-6.28-9.71-12.45-19.52-19.39-28.78-2.16-2.81-5.02-5.23-8.52-6.09-3.49-0.76-7.07-0.62-10.61-0.74-0.79 6.41 0.05 12.84-0.24 19.27-0.08 5.46-0.06 10.92 0.1 16.38-5.8-0.1-11.61-0.05-17.41-0.05 0.01-28.26 0.03-56.51-0.01-84.77m16.99 14.77c0.41 7.06 0.1 14.14 0.45 21.19 6.58-0.02 13.16 0.04 19.74-0.06 4.74-0.16 10.24-0.52 13.28-4.71 1.59-3.06 1.55-6.55 1.11-9.88-0.26-0.5-0.8-1.51-1.06-2.02-2.94-4.88-9.19-4.89-14.2-4.85-6.44 0.21-12.91-0.4-19.32 0.33z"/>
  <path id="path12" d="m633.56 576.5c20.96 0.06 41.93 0.07 62.9-0.01-0.12 4.96-0.12 9.92-0.02 14.89-3.12-0.7-6.33-0.29-9.48-0.37-12.12-0.07-24.24 0.16-36.36-0.14 0.11 6.26 0.12 12.52-0.01 18.79 13.99 0 27.99 0.28 41.98-0.14 1.54 4.69 0.32 9.78 0.72 14.65-14.2 0.03-28.41 0.1-42.61-0.04-0.05 7.52 0.01 15.03-0.03 22.55 15.63 0.25 31.27 0.15 46.9 0.06 1.44 4.77-0.46 9.73 0.63 14.59-21.56 0-43.12-0.01-64.67 0 0.03-28.28-0.06-56.56 0.05-84.83z"/>
  <path id="path14" d="m101.21 661.33c0.14-28.29-0.03-56.59 0.09-84.88 20.84 0.15 41.69 0.12 62.53 0.01-0.06 4.84 0.13 9.69-0.05 14.53-15.19 0.07-30.37-0.04-45.56 0.05-0.15 6.2 0.02 12.41-0.11 18.61 14.14 0.12 28.28 0.09 42.41 0.01 0.25 4.8 0.04 9.62 0.17 14.43-14.19 0.25-28.38 0.06-42.57 0.09 0.1 7.54-0.05 15.09 0.07 22.64 15.77-0.06 31.54 0.1 47.3-0.09 0.13 4.89 0.05 9.78 0.05 14.67-21.44-0.17-42.89-0.03-64.33-0.07z"/>
  <path id="path16" d="m174.2 590.94c-0.04-4.81-0.02-9.63 0-14.44 22.31 0.07 44.63 0.03 66.94 0.02 0.14 4.79-0.08 9.58 0.13 14.38-8.39 0.23-16.77 0.06-25.16 0.11 0.19 23.44 0.08 46.88 0.06 70.32-5.69 0.02-11.37-0.08-17.06 0.07 0.2-23.38-0.09-46.75 0.15-70.12-8.33-0.67-16.71-0.02-25.06-0.34z"/>
  <path id="path18" d="m252.2 661.34c0.16-28.29-0.03-56.58 0.1-84.87 20.74 0.2 41.49-0.06 62.23 0.13l0.62 0.26c0.24 4.64-0.02 9.31 0.16 13.96-15.28 0.46-30.58 0-45.86 0.25 0.02 6.21 0.04 12.42 0 18.63 14.1 0.02 28.21 0.04 42.31-0.02 0.02 4.84 0 9.68 0.04 14.53-14.11-0.08-28.23 0.1-42.33-0.08-0.04 7.54 0.05 15.09-0.07 22.64 13.21 0.1 26.42 0.02 39.64 0.04 2.88 0.04 5.81-0.31 8.64 0.41-0.23 0.3-0.71 0.91-0.95 1.22-0.1 4.29-0.08 8.6-0.01 12.9-21.5-0.03-43.01-0.02-64.52 0z"/>
  <path id="path20" d="m410.15 661.33c0.11-28.29-0.05-56.58 0.09-84.87 20.85 0.11 41.7 0.15 62.55-0.02 0.34 4.73-0.41 9.57 0.64 14.23-15.64 1.01-31.39-0.34-47.03 0.7 0.21 0.3 0.64 0.91 0.86 1.22-0.14 5.69 0.02 11.39-0.12 17.09 14.15 0.01 28.31 0.15 42.47-0.07 0.1 4.84 0.05 9.68 0.07 14.53-14.16 0.11-28.32 0.08-42.47 0.01-0.01 7.52 0.01 15.05-0.03 22.57 15.78 0.17 31.56 0.12 47.34 0.03 0.13 4.86 0.1 9.72 0.07 14.59-21.48-0.03-42.96-0.01-64.44-0.01z"/>
  <path id="path22" d="m483.19 590.89c0.12-4.8 0-9.6 0.09-14.4 22.26 0.04 44.52 0.14 66.79-0.05 0.01 4.82-0.3 9.66 0.1 14.48-8.31 0.23-16.62-0.04-24.92 0.15 0.01 23.43-0.01 46.86 0.01 70.28-5.78-0.08-11.56-0.01-17.34-0.03 0.14-23.48 0.08-46.95 0.02-70.43-8.25 0.19-16.51 0.2-24.75 0z"/>
  <path id="path24" d="m555.39 590.95c0.04-4.83 0.03-9.66 0.07-14.48 22.28 0.1 44.56 0.12 66.84-0.01 0.04 4.87-0.02 9.75 0.05 14.63-8.27-0.24-16.54 0.17-24.79-0.29-0.3 23.53-0.07 47.07-0.12 70.61-5.74-0.16-11.48-0.08-17.22-0.05 0.16-23.37-0.13-46.75 0.15-70.12-8.31-0.56-16.65 0-24.98-0.29z"/>
 </g>
</svg>
