<?xml version="1.0" encoding="UTF-8"?>
<svg width="600" height="599.3" version="1.1" viewBox="0 0 158.75 158.56" xmlns="http://www.w3.org/2000/svg">
 <g transform="translate(-60.479 -96.006)">
  <path d="m193.37 180.24v-0.0219c-2.0702-0.67912-3.5709-2.6288-3.5709-4.9291 0-2.3002 1.5116-4.2609 3.5818-4.9182v-0.011c15.039-5.1482 25.85-19.388 25.85-36.147 0-21.097-17.12-38.206-38.206-38.206h-82.324c-21.118 0-38.217 17.109-38.217 38.206v82.174c0 21.075 17.109 38.184 38.217 38.184 17.077 0 31.568-11.238 36.453-26.727 0.62435-2.0045 2.5084-3.4723 4.6881-3.4723 2.2017 0 4.0857 1.4678 4.721 3.4723v-0.0329c4.8743 15.499 19.333 26.76 36.464 26.76 21.064 0 38.206-17.109 38.206-38.184 0-16.792-10.833-31.02-25.861-36.147m-37.275 3.5928h-6.7584v10.658c0 5.6082-4.5567 10.187-10.165 10.187-5.6082 0-10.165-4.5786-10.165-10.187v-10.658h-23.868c-5.5754 0-10.154-4.5348-10.154-10.132 0-2.2674 0.76675-4.3814 2.0264-6.0573h-0.01095l33.949-45.1h0.0109c1.8402-2.5412 4.8524-4.1842 8.2042-4.1842 5.6082 0 10.165 4.5567 10.165 10.143v35.019h6.7584c5.6301 0 10.143 4.5786 10.143 10.187 0 5.5973-4.5129 10.132-10.143 10.132" fill="#e4612b"/>
 </g>
</svg>
