<svg width="1418.9pt" height="149.28pt" version="1.1" viewBox="0 0 1418.9 149.28" xmlns="http://www.w3.org/2000/svg">
 <g transform="translate(-41.216 -25.37)" fill="#e65600">
  <path d="m571.79 25.37c16.05 1.39 32.2 1.24 48.24 2.73 7.97 0.76 15.67 5.05 19.93 11.92 4.85 7.46 5.55 16.57 6.48 25.17 2.42 25.65 2.14 51.57-0.93 77.16-1.3 8.37-3.65 17.19-9.71 23.45-5.93 5.95-14.76 7.1-22.76 7.28-13.38 0.25-26.74 0.88-40.09 1.57 5.41-3.06 10.86-6.12 15.76-9.98 10.04-7.81 18.43-18.16 22.53-30.31 1.86-5.34 2.49-11 2.92-16.61-9.9-0.04-19.79 0.21-29.69 0.36-0.18 6.5-0.95 13.24-4.44 18.89-11.01 18.64-36.15 26.78-56.25 19.29-10.23-3.87-18.23-12.27-23.16-21.88-3.22-6.13-4.82-12.92-6.13-19.67 19.3-3.74 38.86-5.97 58.28-9 13.8-2.17 27.65-4.03 41.46-6.2 5.66-0.94 11.44-1.19 17.03-2.55 1.1-4.6-0.05-9.32-0.59-13.91-2.35-16.05-8.69-31.9-20.12-43.65-5.41-5.73-12.15-9.89-18.76-14.06z"/>
  <path d="m488.47 26.06c4.31-0.28 8.63-0.4 12.95-0.31-3.25 2-6.62 3.78-9.86 5.78-9.39 5.71-17.21 13.98-22.4 23.67-6.64 12.45-8.89 26.79-8.66 40.77 0.4 13.09 2.07 26.33 6.88 38.58 4.09 10.66 10.4 20.49 18.67 28.39 4.53 4.49 9.83 8.07 15.11 11.59-11.72-0.17-23.41-1.12-35.13-1.26-7.54-0.27-15.41 0.11-22.5-2.88-5.14-2.13-9.23-6.32-11.7-11.26-3.68-7.28-5.03-15.45-5.7-23.5-2.35-26.48-2.48-53.25 0.91-79.64 0.91-7.58 3.71-15.25 9.36-20.6 4.82-4.66 11.45-6.93 18.03-7.57 11.31-1.11 22.7-1.02 34.04-1.76z"/>
  <path d="m523.38 44.32c11.21-2.41 23.54-1.31 33.41 4.86 10.46 6.51 17.26 17.69 20.4 29.42-21.12 2.89-42.22 5.95-63.32 8.98-7.66 1.06-15.31 2.33-23.02 2.95 0.2-5.24 0.45-10.53 1.82-15.62 2.06-7.7 6.01-14.95 11.66-20.59 5.16-5.16 11.95-8.48 19.05-10z"/>
 </g>
 <g transform="translate(-41.216 -25.37)" fill="#fff">
  <path d="m688.97 36.92c10.03-6.54 22.15-9.78 34.11-9.03 14.65 0.74 28.91 7.37 38.76 18.26 4.55 5.02 7.87 10.96 11.29 16.77-7.71 4.35-15.45 8.63-23.23 12.84-3.14-4.98-5.8-10.44-10.31-14.37-7.18-6.4-17.58-8.6-26.85-6.42-9.78 2.32-18.15 9.89-21.34 19.43-1.47 4.38-1.34 9.05-1.34 13.61 0.07 7.66 0.07 15.32 0 22.99 0.01 4.81-0.1 9.77 1.61 14.35 3.6 9.89 12.98 17.24 23.32 18.83 8.62 1.43 17.92-0.89 24.53-6.7 4.53-3.88 7.26-9.29 10.41-14.24 7.79 4.17 15.55 8.42 23.23 12.8-4.52 7.87-9.37 15.82-16.53 21.6-10.65 9.05-24.73 13.79-38.68 13.22-22.63-0.31-44.2-15.86-51.43-37.35-2.13-5.93-2.88-12.25-2.92-18.53-0.06-7.99 0.05-15.98-0.01-23.98 0.02-6.42-0.2-12.91 1.12-19.24 2.97-14.25 11.98-27.05 24.26-34.84z"/>
  <path d="m829.41 28.7c15.39-2.83 31.87 1.08 44.33 10.55 12.13 9.07 20.45 23.33 21.7 38.49 0.54 6.4 0.22 12.84 0.28 19.26-0.07 7.21 0.18 14.42-0.1 21.62-0.64 15.34-8.41 30.09-20.34 39.67-6.81 5.42-14.81 9.42-23.31 11.34-11.95 2.45-24.73 1.42-35.88-3.66-15.02-6.59-26.88-20.08-31.15-35.96-2.49-8.78-1.81-17.99-1.87-27.01 0.08-7.69-0.19-15.39 0.12-23.08 0.68-16.48 9.73-32.21 23.19-41.61 6.85-4.84 14.78-8.12 23.03-9.61m4.04 26.05c-9.91 1.82-18.48 9.19-22.03 18.58-1.65 4.35-1.66 9.08-1.65 13.67 0.07 8.01 0.09 16.01 0.01 24.02-0.03 4.85-0.12 9.88 1.71 14.47 3.91 10.51 14.23 18.25 25.44 18.99 12.63 1.3 25.4-6.48 30.28-18.14 2.24-5.14 2.05-10.86 2.03-16.35-0.13-8.68 0.03-17.36-0.02-26.03 0.01-5.32-1.04-10.75-3.93-15.28-6.39-10.66-19.64-16.59-31.84-13.93z"/>
  <path d="m965.75 28.14c15.54-1.11 31.32 4.77 42.55 15.53 9.6 9.2 15.94 21.94 16.77 35.27 0.26 4.01 0.21 8.04 0.2 12.06-0.1 26.01 0.12 52.02-0.11 78.04-8.76 0.12-17.53 0.11-26.28 0.02-0.21-24.02-0.04-48.04-0.1-72.06-0.05-5.55 0.27-11.12-0.16-16.66-0.84-9.74-7.39-18.48-16.04-22.8-7.24-3.72-16.01-4.14-23.68-1.51-10.88 3.74-19.37 14.38-19.53 26.05-0.08 28.98 0.21 57.98-0.13 86.97-8.77 0.11-17.54 0.12-26.31-0.02-0.53-27.67-0.04-55.35-0.26-83.02-0.28-10.42 2.14-20.93 7.4-29.96 9.19-16.23 27.06-27.08 45.68-27.91z"/>
  <path d="m1090.4 28.16c16.86-1.97 34.42 4.04 46.44 16.05 9.21 9.19 15.18 21.68 16.11 34.7 0.56 8.35 0.12 16.73 0.26 25.09 0.15 11.27 0.21 23.03-4.65 33.48-8.2 19.03-27.74 32.47-48.44 33.34-16.9 1.1-34.16-5.81-45.49-18.41-8.43-9.23-13.64-21.42-14.1-33.94-0.28-7.82-0.03-15.64-0.1-23.46 0.05-8.43-0.49-17 1.57-25.25 3.61-14.42 13.41-27.12 26.35-34.38 6.76-3.89 14.3-6.38 22.05-7.22m0.09 26.63c-10.38 2.07-19.27 10.18-22.29 20.32-1.17 3.85-1.02 7.91-0.99 11.89 0.1 8.34 0.1 16.68-0.01 25.02-0.03 3.95-0.17 8 1.04 11.82 3.06 9.89 11.67 17.89 21.84 20 8.22 1.92 17.19 0.11 24.08-4.75 7.15-4.96 12.17-13.22 12.3-22.03 0.12-8.36-0.15-16.71-0.01-25.06 0-7.01 0.74-14.44-2.55-20.91-5.67-12.28-20.27-19.24-33.41-16.3z"/>
  <path d="m1195.6 33.65c14.49-8.27 33.83-7.47 47.32 2.47 1.84 1.26 3.65 2.69 5.82 3.38 1.43-0.74 2.71-1.73 4.03-2.66 12.21-9.51 29.65-11.39 43.84-5.44 11.26 4.56 20.47 13.91 24.66 25.34 3.35 8.68 2.83 18.14 2.85 27.26-0.14 28.34 0.23 56.69-0.2 85.04-8.87 0.11-17.75 0.19-26.61-0.09 0.09-31.33-0.04-62.65 0.07-93.98-0.09-3.84-0.19-7.88-2.06-11.33-3.29-6.08-10.3-9.88-17.19-9.23-7.86 0.37-15.38 6.66-16.15 14.67-0.49 5.29-0.11 10.62-0.17 15.92-0.04 27.99 0.09 55.97-0.06 83.95-8.91 0.28-17.82 0.18-26.72 0.11-0.33-11.69-0.11-23.38-0.17-35.06 0.04-20.36-0.09-40.72 0.1-61.08-0.04-2.89-0.18-5.88-1.46-8.53-2.94-6.14-9.65-10.33-16.5-9.96-6.25-0.02-12.4 3.49-15.47 8.94-1.66 2.9-1.96 6.31-2 9.58 0.14 31.99 0.03 63.98 0.07 95.97-8.86 0.33-17.72 0.21-26.57 0.13-0.37-28.35-0.05-56.7-0.17-85.05 0.07-7.87-0.48-15.9 1.63-23.57 3-11.32 10.86-21.16 21.11-26.78z"/>
  <path d="m41.22 29.31c21.27 0.07 42.53 0.04 63.8 0.02 4.44 0.02 8.91 0.28 13.25 1.27 13.22 2.99 24.88 12.37 30.36 24.81 5.92 12.85 4.87 28.59-2.69 40.55-4.42 7.28-11.33 12.63-18.8 16.51 9.6 18.84 19.13 37.72 28.71 56.57-9.86 0.07-19.73 0.25-29.58-0.14-8.79-17.39-17.69-34.73-26.51-52.09-10.67-0.26-21.34-0.13-32-0.1-0.16 17.42-0.06 34.83-0.05 52.25-8.83 0.25-17.66 0.22-26.49 0.04 0-46.56-0.01-93.12 0-139.69m26.55 26.78c-0.14 11.35-0.14 22.7 0 34.05 11.42 0.17 22.83 0.01 34.24 0.13 4.55-0.04 9.28 0.09 13.55-1.71 6.11-2.53 10.58-8.89 10.36-15.57 0.11-6.67-4.48-12.74-10.41-15.44-3.27-1.51-6.94-1.52-10.47-1.53-12.42 0.17-24.84 0.08-37.27 0.07z"/>
  <path d="m1327.7 29.39c10.22-0.06 20.44-0.14 30.66 0.08 11.64 20.06 23.47 40.02 35.59 59.8 12.08-19.8 23.63-39.92 35.53-59.83 10.21-0.18 20.42-0.08 30.64-0.09-15.24 26.3-30.84 52.39-46.27 78.58-2.62 4.78-6.83 9.23-6.7 15.01-0.04 15.35 0.18 30.7-0.07 46.04-8.79 0.22-17.58 0.17-26.36 0.07-0.44-15.34-0.07-30.68-0.15-46.02 0.07-2.91-0.93-5.69-2.42-8.14-12.43-20.65-24.56-41.49-36.87-62.21-4.53-7.76-9.26-15.41-13.58-23.29z"/>
  <path d="m211.12 33.15c7.74-2.27 15.83-3.23 23.88-3.3 12.75 0.08 25.83 2.6 36.76 9.44 13.76 8.39 23.45 22.84 26.66 38.57 2.2 9.33 1.75 18.96 1.55 28.45-21.65 0.45-43.31 0.59-64.97 0.64-12.94 0.36-25.89 0.25-38.83 0.47 0.52 7.17 1.21 14.5 4.19 21.14 4.29 10.31 13.08 18.98 24.01 21.89 10.24 2.63 21.57 1.86 30.99-3.12 6.13-3.17 11.64-7.88 14.96-14 1.95-3.59 2.73-7.63 3.62-11.57 8.4 0.84 16.75 2.09 25.15 2.94-1.03 4.45-2.13 8.93-4.11 13.08-3.78 8.06-9.89 14.88-17.03 20.13-12.06 8.87-26.96 13.64-41.89 13.96-10.52 0.22-21.25-1.42-30.79-6.01-14.79-6.97-26.07-20.35-31.72-35.57-5.28-14.23-5.81-29.84-3.72-44.75 1.62-11.99 5.73-23.85 13.19-33.49 6.93-9.2 17.11-15.65 28.1-18.9m10.52 18.71c-14.63 4.55-24.14 19.42-25.36 34.25 5.16 1.14 10.48 0.56 15.72 0.61 20.15-0.02 40.29 0.01 60.44 0-1.4-9.61-5.02-19.21-12.05-26.12-9.97-9.82-25.56-12.36-38.75-8.74z"/>
  <path d="m307.96 30.09c35.13 0.04 70.26 0.04 105.39 0 0.2 8.85 0.26 17.71-0.06 26.56-13.03-0.08-26.07-0.16-39.1 0.03-0.02 37.47 0.16 74.94-0.09 112.4-8.93 0.1-17.86 0.17-26.79-0.07 0.01-37.47 0.11-74.93-0.05-112.39-13.06-0.07-26.13-0.05-39.19 0.01-0.32-8.84-0.23-17.69-0.11-26.54z"/>
 </g>
</svg>
