<?xml version="1.0" encoding="UTF-8"?>
<svg id="Livello_1" enable-background="new 0 0 417 410.4" space="preserve" version="1.1" viewBox="0 0 417 410.4" xmlns="http://www.w3.org/2000/svg" xmlns:cc="http://creativecommons.org/ns#" xmlns:dc="http://purl.org/dc/elements/1.1/" xmlns:rdf="http://www.w3.org/1999/02/22-rdf-syntax-ns#" xmlns:xlink="http://www.w3.org/1999/xlink">
 <metadata id="metadata24">
  <rdf:RDF>
   <cc:Work rdf:about="">
    <dc:format>image/svg+xml</dc:format>
    <dc:type rdf:resource="http://purl.org/dc/dcmitype/StillImage"/>
    <dc:title/>
   </cc:Work>
  </rdf:RDF>
 </metadata>
 <defs id="defs22">
  <linearGradient id="linearGradient826" x1="208.5" x2="208.5" y1="-.0021008" y2="410.39" gradientUnits="userSpaceOnUse">
   <stop id="stop4" stop-color="#EA651E" offset="0"/>
   <stop id="stop6" stop-color="#E64011" offset="1"/>
  </linearGradient>
 </defs>
 <g id="g17">
  <g id="g11">
   <path id="ellipse9" d="M 417,205.2 A 208.5,205.2 0 0 1 208.5,410.39999 208.5,205.2 0 0 1 0,205.2 208.5,205.2 0 0 1 208.5,0 208.5,205.2 0 0 1 417,205.2 Z" fill="url(#linearGradient826)"/>
  </g>
  <g id="g15">
   <path id="path13" class="st1" d="m273.3 262.7h-18.7v29.6c0 15.6-12.7 28.3-28.3 28.3s-28.2-12.7-28.2-28.3v-29.6h-66.3c-15.5 0-28.2-12.6-28.2-28.2 0-6.3 2.1-12.2 5.6-16.8h-0.1l94.4-125.4c5.1-7 13.4-11.6 22.8-11.6 15.6 0 28.3 12.6 28.3 28.2v97.3h18.7c15.6 0 28.2 12.7 28.2 28.3s-12.6 28.2-28.2 28.2" fill="#fff"/>
  </g>
 </g>
</svg>
