<svg id="a" width="381.31pt" height="155.44pt" version="1.1" viewBox="0 0 381.31 155.44" xmlns="http://www.w3.org/2000/svg">
 <g id="b" transform="translate(-13.292 -25.426)" fill="#264fa4">
  <path id="c" d="m13.529 138.15c5.38 1.34 10.345 3.97 15.725 5.34 11.556 3.2462 23.594 5.1851 35.62 5.0686 3.324 0.0767 6.5356-0.35263 9.5546-0.97558 12.315-2.5564 23.975-8.0628 36.626-9.083 4.82-0.25 9.68-0.35 14.49 0.15 15.11 2.29 28.86 11.14 44.46 10.57 14.57-1.38 27.7-8.79 42.17-10.65 8.1147-0.75301 16.63-0.44 24.71 1.49 13.43 2.41 26.31 7.67 40.02 8.46 15.46 0.93 29.92-5.51 44.76-8.71 12.381-2.2373 26.913-1.971 35.225-0.29342 12.824 1.8022 25.707 5.5072 37.435 10.446v12.947c-6.02-1.74-12.7-4.84-18.8-6.36-15.145-5.0245-37.664-8.0276-53.16-3.9-12.529 3.056-24.897 7.9111-37.875 8.2672-3.2593 0.107-6.6489 0.10123-9.7414-8e-3 -12.557-0.46757-24.565-5.0936-36.804-7.6787-8.47-2.24-17.32-2.24-26-1.7-10.78 1.6-20.66 6.65-31.27 8.98-6.11 1.56-12.48 1.41-18.72 1.1-12.86-1.18-24.38-7.79-37-10.04-4.99-0.48-10.03-0.38-15.02-0.06-13.004 1.7554-25.184 8.0716-38.238 9.2041-4.1218 0.26111-8.2179 0.14187-12.056 0.11354-6.1252-0.0473-12.254-0.2676-18.266-1.5176-9.43-1.95-18.925-3.93-27.845-7.67v-13.49z"/>
  <path id="d" d="m13.575 156.11c5.38 1.34 10.345 3.97 15.725 5.34 11.556 3.2462 23.594 5.1851 35.62 5.0686 3.324 0.0767 6.5356-0.35263 9.5546-0.97558 12.315-2.5564 23.975-8.0628 36.626-9.083 4.82-0.25 9.68-0.35 14.49 0.15 15.11 2.29 28.86 11.14 44.46 10.57 14.57-1.38 27.7-8.79 42.17-10.65 8.1147-0.75301 16.63-0.44 24.71 1.49 13.43 2.41 26.31 7.67 40.02 8.46 15.46 0.93 29.92-5.51 44.76-8.71 12.381-2.2373 26.913-1.971 35.225-0.29342 12.824 1.8022 25.707 5.5072 37.435 10.446v12.947c-6.02-1.74-12.7-4.84-18.8-6.36-15.145-5.0245-37.664-8.0276-53.16-3.9-12.529 3.056-24.897 7.9111-37.875 8.2672-3.2593 0.107-6.6489 0.10123-9.7414-8e-3 -12.557-0.46757-24.565-5.0936-36.804-7.6787-8.47-2.24-17.32-2.24-26-1.7-10.78 1.6-20.66 6.65-31.27 8.98-6.11 1.56-12.48 1.41-18.72 1.1-12.86-1.18-24.38-7.79-37-10.04-4.99-0.48-10.03-0.38-15.02-0.06-13.004 1.7554-25.184 8.0716-38.238 9.2041-4.1218 0.26111-8.2179 0.14187-12.056 0.11354-6.1252-0.0473-12.254-0.2676-18.266-1.5176-9.43-1.95-18.925-3.93-27.845-7.67v-13.49z"/>
 </g>
 <g id="e" transform="translate(-8.4061 -25.426)">
  <path id="f" d="m190.44 53.543a28.117 28.117 0 0 1-28.118 28.118 28.117 28.117 0 0 1-28.118-28.118 28.117 28.117 0 0 1 28.118-28.117 28.117 28.117 0 0 1 28.118 28.117z" fill="#de1d21" style="paint-order:normal"/>
  <path id="g" d="m227.5 53.543a28.117 28.117 0 0 1-28.118 28.118 28.117 28.117 0 0 1-28.118-28.118 28.117 28.117 0 0 1 28.118-28.117 28.117 28.117 0 0 1 28.118 28.117z" fill="#2f8824" style="paint-order:normal"/>
  <path id="h" d="m263.92 53.543a28.117 28.117 0 0 1-28.118 28.117 28.117 28.117 0 0 1-28.118-28.117 28.117 28.117 0 0 1 28.118-28.117 28.117 28.117 0 0 1 28.118 28.117z" fill="#264fa4" style="paint-order:normal"/>
 </g>
 <g id="i" transform="matrix(1.589 0 0 1.589 116.32 323.27)" fill="#edd418" stroke="#000" stroke-width="1.3547" style="paint-order:normal" aria-label="RETECAPRI">
  <path id="j" d="m-66.781-162.7h13.24q3.24 0 5.32 0.8t3.2 2.24q2 2.4 1.16 6.52v0.08q-0.64 3.24-2.64 5.36t-4.84 3.24l4.72 9.76h-8.96l-3.96-8.48h-3.4l-1.68 8.48h-7.76zm10.2 13.44q2 0 3.24-0.88 1.28-0.92 1.56-2.44l0.04-0.08q0.32-1.68-0.64-2.48-0.96-0.84-2.92-0.84h-5.08l-1.32 6.72z" style="paint-order:normal"/>
  <path id="k" d="m-38.031-162.7h22.52l-1.32 6.6h-14.84l-0.84 4.24h13.44l-1.24 6.12h-13.44l-0.88 4.44h15.04l-1.32 6.6h-22.72z" style="paint-order:normal"/>
  <path id="l" d="m-5.8326-155.9h-8.4l1.36-6.8h24.56l-1.36 6.8h-8.4l-4.24 21.2h-7.76z" style="paint-order:normal"/>
  <path id="m" d="m15.094-162.7h22.52l-1.32 6.6h-14.84l-0.84 4.24h13.44l-1.24 6.12h-13.44l-0.88 4.44h15.04l-1.32 6.6h-22.72z" style="paint-order:normal"/>
  <path id="n" d="m49.338-134.14q-3 0-5.44-1.08-2.4-1.08-3.96-3-1.56-1.96-2.16-4.6-0.6-2.68 0.04-5.8v-0.08q0.6-3.04 2.24-5.68 1.68-2.68 4.04-4.64 2.36-2 5.28-3.12t6.12-1.12q2.16 0 3.84 0.44 1.68 0.4 2.96 1.2 1.32 0.76 2.28 1.84t1.64 2.36l-6.76 4.52q-0.88-1.52-2.16-2.4t-3.32-0.88q-1.48 0-2.8 0.6-1.32 0.56-2.4 1.56t-1.88 2.36q-0.76 1.36-1.08 2.88v0.08q-0.32 1.56-0.12 2.96 0.24 1.36 0.92 2.36t1.8 1.6q1.12 0.56 2.6 0.56 1.08 0 2-0.24 0.96-0.24 1.8-0.68 0.84-0.48 1.6-1.08 0.8-0.64 1.6-1.4l5 4.16q-1.28 1.36-2.72 2.52-1.4 1.16-3.08 2-1.64 0.84-3.6 1.32t-4.28 0.48z" style="paint-order:normal"/>
  <path id="o" d="m80.282-162.9h7.48l6.28 28.2h-8.32l-1.04-5h-10.8l-3 5h-8.16zm3.36 17.16-1.52-7.96-4.76 7.96z" style="paint-order:normal"/>
  <path id="p" d="m102.36-162.7h12q2.64 0 4.64 0.68 2.04 0.64 3.32 1.92 1.28 1.24 1.72 3.08t0 4.16l-0.04 0.08q-0.48 2.48-1.76 4.36t-3.16 3.16q-1.84 1.28-4.2 1.92-2.32 0.64-4.92 0.64h-3.84l-1.6 8h-7.76zm8.64 13.92q2.08 0 3.44-0.96 1.4-1 1.76-2.68v-0.08q0.36-1.8-0.64-2.72-1-0.96-3.12-0.96h-3.64l-1.48 7.4z" style="paint-order:normal"/>
  <path id="q" d="m129.23-162.7h13.24q3.24 0 5.32 0.8t3.2 2.24q2 2.4 1.16 6.52v0.08q-0.64 3.24-2.64 5.36t-4.84 3.24l4.72 9.76h-8.96l-3.96-8.48h-3.4l-1.68 8.48h-7.76zm10.2 13.44q2 0 3.24-0.88 1.28-0.92 1.56-2.44l0.04-0.08q0.32-1.68-0.64-2.48-0.96-0.84-2.92-0.84h-5.08l-1.32 6.72z" style="paint-order:normal"/>
  <path id="r" d="m158.14-162.7h7.8l-5.6 28h-7.8z" style="paint-order:normal"/>
 </g>
</svg>
