<svg id="b" enable-background="new 0 0 417 410.4" space="preserve" version="1.1" viewBox="0 0 417 410.4" xmlns="http://www.w3.org/2000/svg">
 <defs id="c">
  <linearGradient id="a" x1="208.5" x2="208.5" y1="-.0021008" y2="410.39" gradientUnits="userSpaceOnUse">
   <stop id="d" stop-color="#EA651E" offset="0"/>
   <stop id="e" stop-color="#E64011" offset="1"/>
  </linearGradient>
 </defs>
 <g id="f">
  <g id="g">
   <path id="h" d="M 417,205.2 A 208.5,205.2 0 0 1 208.5,410.39999 208.5,205.2 0 0 1 0,205.2 208.5,205.2 0 0 1 208.5,0 208.5,205.2 0 0 1 417,205.2 Z" fill="url(#a)"/>
  </g>
  <g id="i">
   <path id="j" class="st1" d="m273.3 262.7h-18.7v29.6c0 15.6-12.7 28.3-28.3 28.3s-28.2-12.7-28.2-28.3v-29.6h-66.3c-15.5 0-28.2-12.6-28.2-28.2 0-6.3 2.1-12.2 5.6-16.8h-0.1l94.4-125.4c5.1-7 13.4-11.6 22.8-11.6 15.6 0 28.3 12.6 28.3 28.2v97.3h18.7c15.6 0 28.2 12.7 28.2 28.3s-12.6 28.2-28.2 28.2" fill="#fff"/>
  </g>
 </g>
</svg>
