<?xml version="1.0" encoding="UTF-8"?>
<svg width="600" height="263.53" version="1.1" viewBox="0 0 158.75 69.725" xmlns="http://www.w3.org/2000/svg">
 <path d="m93.957 32.369-0.1107 0.87583-4.1468 32.515h64.791l4.26-33.391zm8.6719 3.6979h4.047l-1.3539 10.705h13.517l1.3624-10.705h4.0507l-3.2844 25.934h-4.0507l1.4232-11.021h-13.56l-1.3916 11.021h-4.0519zm26.355 0h7.6148c2.3599 0 4.3062 0.41359 5.7902 1.1678h0.0122c1.5327 0.77852 2.7613 1.7882 3.6614 2.9924 0.91232 1.2164 1.5692 2.5788 1.9584 4.0629 0.38926 1.5084 0.58389 2.9924 0.58389 4.3913 0 1.9463-0.29195 3.7588-0.83934 5.3888-0.57172 1.6543-1.3502 3.0532-2.3355 4.221-0.97314 1.1799-2.1531 2.0923-3.479 2.737-1.3137 0.64471-2.7491 0.97314-4.294 0.97314h-11.933zm3.6128 3.406-0.10948 0.87583-2.2747 18.246h5.4861c1.4719 0 2.81-0.27978 3.9412-0.87583 1.0826-0.57172 2.0071-1.3502 2.7126-2.299 0.69337-0.94881 1.2043-2.0314 1.5205-3.2235 0.32844-1.1921 0.49874-2.3964 0.49874-3.6006 0-1.2286-0.19463-2.4207-0.57173-3.5276-0.37709-1.107-0.93665-2.0801-1.6787-2.9073v-0.01216c-0.75418-0.82717-1.6908-1.484-2.7734-1.9584-1.107-0.48657-2.372-0.71769-3.7588-0.71769z" color="#000000" color-rendering="auto" fill="#a7a5a5" image-rendering="auto" shape-rendering="auto" solid-color="#000000" stroke-width="1.2164" style="font-feature-settings:normal;font-variant-alternates:normal;font-variant-caps:normal;font-variant-ligatures:normal;font-variant-numeric:normal;font-variant-position:normal;isolation:auto;mix-blend-mode:normal;shape-padding:0;text-decoration-color:#000000;text-decoration-line:none;text-decoration-style:solid;text-indent:0;text-transform:none;white-space:normal"/>
 <path d="m58.434 37.04v-0.0096c-0.91033-0.29863-1.5702-1.156-1.5702-2.1675s0.6647-1.8737 1.575-2.1627v-0.0049c6.6131-2.2638 11.367-8.5255 11.367-15.895 0-9.277-7.5282-16.8-16.8-16.8h-36.201c-9.286-1.7619e-4 -16.805 7.5232-16.805 16.8v36.135c0 9.2673 7.5234 16.791 16.805 16.791 7.5093 0 13.881-4.9417 16.03-11.753 0.27455-0.88144 1.103-1.5269 2.0615-1.5269 0.96816 0 1.7966 0.64544 2.076 1.5269v-0.01446c2.1434 6.8154 8.5013 11.767 16.034 11.767 9.2625 0 16.8-7.5234 16.8-16.791 0-7.384-4.7636-13.64-11.372-15.895m-16.39 1.58h-2.972v4.6867c0 2.4661-2.0037 4.4795-4.4699 4.4795-2.4661 0-4.4699-2.0134-4.4699-4.4795v-4.687h-10.495c-2.4517 0-4.465-1.9941-4.465-4.4554 0-0.99705 0.33716-1.9266 0.89107-2.6636h-0.0049l14.929-19.832h0.0047c0.8092-1.1174 2.1338-1.8399 3.6076-1.8399 2.4661 0 4.4699 2.0037 4.4699 4.4602v15.399h2.9719c2.4757 0 4.4602 2.0134 4.4602 4.4795 0 2.4613-1.9845 4.4554-4.4602 4.4554" fill="#e4612b" stroke-width=".43973"/>
</svg>
