<svg width="600pt" height="247.43pt" version="1.1" viewBox="0 0 600 247.43" xmlns="http://www.w3.org/2000/svg">
 <g transform="matrix(1.5587 0 0 1.5587 150.23 -108.27)">
  <path d="m-17.005 69.463c43.84 0 79.37 35.477 79.37 79.247s-35.53 79.25-79.37 79.25c-43.841 0-79.377-35.48-79.377-79.25s35.536-79.247 79.377-79.247z" fill="#ed1b24"/>
  <path d="m-81.035 101.93h128.1l-64.05 126.28z"/>
  <g transform="translate(-118.31,4.5358)" fill="#fff">
   <path d="m70.177 119.03h1.117c2.497 0 4.677 0.37 4.677 3.45 0 2.97-2.394 3.34-4.784 3.34h-1.01zm-16.188 29.08h14.248v-12.84h0.267l6.379 12.84h16.801l-8.72-13c-0.797-1.17-1.702-1.81-2.446-2.39v-0.32c5.422-1.8 7.764-4.35 7.764-10.4 0-10.09-7.657-13.91-16.696-13.91h-17.597z"/>
   <path d="m89.424 121.1 8.027-0.37v27.38h14.569v-27.38l8.03 0.37v-13.01h-30.626z"/>
   <path d="m122.89 148.11h26.8v-12.84h-12.23v-27.18h-14.57z"/>
   <path d="m80.193 160.93c2.635 0 3.149 2.99 3.149 4.98 0 1.86-0.676 5.32-3.149 5.32s-3.149-3.46-3.149-5.32c0-1.99 0.515-4.98 3.149-4.98m0-7.5c-7.324 0-11.566 5.39-11.566 12.25 0 7.25 4.08 12.7 11.566 12.7s11.566-5.45 11.566-12.7c0-6.86-4.242-12.25-11.566-12.25"/>
   <path d="m114.95 178v-7.44l-4.72 0.28-4.14 0.58v-0.25c4.27-1.32 8.51-4.33 8.51-9.21 0-5.61-5.33-8.53-10.38-8.53-7.29 0-10.439 3.18-11.081 10.23h8.611c0.06-1.48 0.29-3.05 2.15-3.05 1.09 0 1.99 0.84 1.99 1.93 0 2.15-3.82 5.55-5.33 6.89l-9.668 8.57z"/>
   <path d="m122.67 170.33c-2.34 0-4.78 1.51-4.78 4.08 0 2.53 2.44 3.97 4.78 3.97 2.35 0 4.79-1.44 4.79-3.97 0-2.57-2.44-4.08-4.79-4.08"/>
   <path d="m54.126 161.83 3.727-0.25v16.42h8.739v-24.19l-12.466 0.39z"/>
   <path d="m133.38 153.82-2.12 14.3c2.02-0.71 4.24-1.06 6.43-1.06 1.38 0 4.85 0.45 4.85 2.41 0 1.89-2.8 2.4-4.28 2.4-1.99 0-5.46-1.03-7.23-1.99l-0.96 6.55c2.28 1.12 7.13 1.95 9.67 1.95 5.14 0 11.6-2.79 11.6-8.72 0-4.62-3.85-7.57-8.29-7.57-1.22 0-3.31 0.22-4.11 1.28h-0.23c0.42-0.86 0.62-1.86 0.77-2.79h10.38v-6.76z"/>
  </g>
 </g>
 <g transform="matrix(1.0873 0 0 1.0873 -180.79 -115.35)" fill="#ed1b24">
  <path d="m562.49 230.67c6.32-1.27 13.2-1.16 19.06 1.79 5.72 2.81 10.07 8.23 11.5 14.45 2.54 10.85-0.72 23.46-9.71 30.47-6.7 5.4-15.85 6.4-24.13 5.32-5.9-0.8-11.37-4.17-14.69-9.11-8.91-12.86-3.85-32.97 10.07-40.11 2.48-1.31 5.16-2.22 7.9-2.81m1.95 6.85c-13.98 2.15-21.54 20.83-12.94 32.04 4.85 6.76 14.35 7.48 21.66 4.85 11.4-3.99 16.34-19.6 10.06-29.69-3.93-6.09-11.86-8.57-18.78-7.2z"/>
  <path d="m622.03 230.83c7.54-1.95 15.65-0.81 22.54 2.74l-1.04 9.23c-6.29-5.99-16.29-7.36-23.95-3.3-8.41 4.4-11.84 15.13-9.98 24.04 1.34 6.3 6.84 11.51 13.31 12.09 6.27 0.94 12.43-1.73 17.17-5.69l-1.49 9.51c-9.52 5.42-23.15 5.26-30.95-3.12-6.49-6.58-7.6-16.72-5.51-25.36 2.24-9.7 10.16-17.89 19.9-20.14z"/>
  <path d="m518.68 232.49c6.49 2.1 11.91 7.57 13.35 14.32 2.13 10.34 0.05 22.81-9.03 29.33-7.0643 5.2482-15.766 5.9102-24.35 5.9102h-8.8702l6.3-51.23h9.3821c4.4779 0 8.9361 0.21726 13.218 1.67zm-15.6 5.74-4.47 36.34c6.08 0.22 12.58 0.15 17.97-3.06 8.75-5.31 10.54-18.17 5.65-26.66-3.96-6.46-12.39-6.82-19.15-6.62z"/>
 </g>
 <g transform="matrix(1.0873 0 0 1.0873 -180.79 -115.35)">
  <path d="m557.83 211.87h-5.25l-2.26-7.4998h-13.5l-4.19 7.4998h-5.42l19.77-33.26zm-18.27-12.185h9.35l-3.32-10.455z"/>
  <path d="m663.74 211.87h-5.25l-2.26-7.4998h-13.5l-4.19 7.4998h-5.42l19.77-33.26zm-18.27-12.185h9.35l-3.32-10.455z"/>
  <path d="m443.39 183.62c4.5 3.31 5.17 9.43 4.42 14.56-0.58 4.84-3.63 9.37-8.07 11.47-4.0422 2.0066-8.5167 2.2438-12.969 2.2438h-5.1113l3.86-31.486h6.2706c4.1488 0 8.2686 0.52355 11.599 3.212zm-16.28 23.72c4.22-0.05 8.95-0.02 12.33-2.95 4.29-3.81 4.92-10.97 1.88-15.72-2.58-3.63-7.46-3.74-11.48-3.71z"/>
  <path d="m475.93 181.09c6.89-2.79 15.4-1 19.8 5.22l-3.92 2.96c-3.98-5.94-13.09-6.5-18.06-1.54-5.43 4.94-5.61 15.51 1.34 19.17 5.85 3.11 13.66-0.345 15.08-6.885h-7.94l0.58-4.505h13.04c-0.52 5.84-2.79 12.24-8.27 15.15-6.36 3.22-15.36 2.48-19.75-3.63-6.49-8.53-1.86-22.4 8.1-25.94z"/>
  <path d="m503.61 180.44h4.88l-3.86 31.435h-4.87z"/>
  <path d="m512.66 180.44h19.26l-0.54 4.555h-7.23l-3.29 26.88h-4.87l3.29-26.88h-7.2z"/>
  <path d="m596.43 182.5c4.46-4.26 13.08-3.44 15.71 2.51l-4.14 2.38c-1.3-3.27-5.87-4.04-8.36-1.71-1.66 1.35-1.62 4.22 0.28 5.34 3.46 2.12 8.31 2.83 10.16 6.91 1.65 4.32 0.32 9.84-3.53 12.56-2.99 2.14-7.02 2.44-10.48 1.47-3.7-1.2-5.42-5.19-5.75-8.78l4.86-1.05c0.07 2.76 1.53 6.06 4.8 5.86 4.5 0.75 7.69-5.41 4.74-8.72-2.85-2.69-7.39-2.94-9.82-6.19-2.4-3.24-1.3-7.98 1.53-10.58z"/>
  <path d="m625.27 180.44c2.4125 0 4.7938 0.19204 6.9698 1.335 5.42 3.13 4.87 12.01-0.09 15.34-2.99 2.05-6.76 1.94-10.22 2.06l-1.57 12.7h-4.87l3.88-31.435zm-2.7602 14.245c2.1-0.13 4.34 0.05 6.31-0.87 2.81-1.39 3.49-5.85 1.03-7.89-1.1058-0.75946-2.3883-0.94511-3.6874-0.97077l-2.4926-0.04923z"/>
  <path d="m674.02 183.93c5.61-4.94 14.15-5.13 20.64-1.86l-0.65 5.69c-4.82-4.55-13.35-4.65-17.8 0.47-4.19 4.93-4.89 13.72 0.66 17.93 4.62 3.35 11.05 1.75 15.09-1.79l-0.71 5.84c-5.64 3.02-13.37 3.43-18.38-1.02-7.27-6.46-6.04-19.21 1.15-25.26z"/>
  <path d="m700.75 180.44h17.38l-0.54 4.56h-12.53l-0.94 7.88h12.14l-0.58 4.625h-12.14l-1.21 9.805h12.5l-0.53 4.5648h-17.41z"/>
  <path d="m565.56 180.44h4.87l-3.29 26.88h9.22l-0.55 4.555h-14.12z"/>
  <path d="m455.92 180.44h4.88l-3.86 31.435h-4.87z"/>
 </g>
</svg>
