<?xml version="1.0" encoding="UTF-8"?>
<!-- Created with Inkscape (http://www.inkscape.org/) -->
<svg id="svg2" width="300" height="124.5" version="1.1" xmlns="http://www.w3.org/2000/svg" xmlns:cc="http://creativecommons.org/ns#" xmlns:dc="http://purl.org/dc/elements/1.1/" xmlns:rdf="http://www.w3.org/1999/02/22-rdf-syntax-ns#" xmlns:xlink="http://www.w3.org/1999/xlink">
 <metadata id="metadata8">
  <rdf:RDF>
   <cc:Work rdf:about="">
    <dc:format>image/svg+xml</dc:format>
    <dc:type rdf:resource="http://purl.org/dc/dcmitype/StillImage"/>
    <dc:title/>
   </cc:Work>
  </rdf:RDF>
 </metadata>
 <defs id="defs6">
  <linearGradient id="linearGradient3915">
   <stop id="stop3917" stop-color="#0092d4" offset="0"/>
   <stop id="stop3919" stop-color="#00446d" offset="1"/>
  </linearGradient>
  <linearGradient id="linearGradient3880" x1="375.39" x2="1678" y1="349.92" y2="350.5" gradientTransform="matrix(.17913 0 0 .17913 -.58218 -.5374)" gradientUnits="userSpaceOnUse">
   <stop id="stop3876" stop-color="#0096ff" offset="0"/>
   <stop id="stop3886" stop-color="#69d2df" offset=".33754"/>
   <stop id="stop3884" stop-color="#0096ff" offset=".33754"/>
   <stop id="stop3927" stop-color="#34b4ef" offset=".55564"/>
   <stop id="stop3882" stop-color="#69d2df" offset=".73472"/>
   <stop id="stop3894" stop-color="#0096ff" offset=".73472"/>
   <stop id="stop3896" stop-color="#34b4ef" offset=".93913"/>
   <stop id="stop3878" stop-color="#69d2df" offset="1"/>
  </linearGradient>
  <linearGradient id="linearGradient3905" x1="1117" x2="1551.8" y1="199.5" y2="199.5" gradientTransform="matrix(.17913 0 0 .17913 -.58218 -.5374)" gradientUnits="userSpaceOnUse" xlink:href="#linearGradient3915"/>
  <linearGradient id="linearGradient3913" x1="597" x2="1031.8" y1="501.5" y2="501.5" gradientTransform="matrix(.17913 0 0 .17913 -.58218 -.5374)" gradientUnits="userSpaceOnUse" xlink:href="#linearGradient3915"/>
  <linearGradient id="linearGradient3935" x1="902.05" x2="1267.7" y1="79.202" y2="618.28" gradientTransform="matrix(.17913 0 0 .17913 -.58218 -.5374)" gradientUnits="userSpaceOnUse">
   <stop id="stop3931" stop-color="#00b1ff" offset="0"/>
   <stop id="stop3937" stop-color="#003332" offset=".5"/>
   <stop id="stop3933" stop-color="#00b1ff" offset="1"/>
  </linearGradient>
 </defs>
 <path id="rect3103" d="m176.94 1.7913h20.823l8.9128 57.322v63.95h-20.594l-9.1416-58.039z" fill="url(#linearGradient3935)"/>
 <path id="path3090" d="m113.52 54.098c-4.5121 7.2816-7.1652 16.204-7.1652 25.817 0 24.622 17.403 44.581 38.871 44.581s38.871-19.959 38.871-44.581c0-9.6134 1.1677-16.243-3.3444-23.524l-3.8209 6.8426c0 17.511-14.195 31.706-31.706 31.706-17.511 0-31.706-14.195-31.706-31.706z" fill="url(#linearGradient3913)"/>
 <path id="path3097" d="m270.22 70.399c4.5121-7.2816 7.1652-16.204 7.1652-25.817 0-24.622-17.403-44.581-38.871-44.581s-38.871 19.959-38.871 44.581c0 9.6134-1.1677 16.243 3.3444 23.524l3.8209-6.8426c0-17.511 14.195-31.706 31.706-31.706s31.706 14.195 31.706 31.706z" fill="url(#linearGradient3905)"/>
 <path id="path2987" d="m236.66 0.0625c-33.143 0.9609-59.719 28.093-59.719 61.469 0 0.47861 0.0205 0.96147 0.0312 1.4375h-0.0312c7.2e-4 0.0898 0 0.16004 0 0.25 0 45.437-13.288 60.29-30 61.219 32.733-0.84992 59.123-27.219 59.906-59.969-0.1056-1.0531-0.15625-2.1378-0.15625-3.2188 0-45.432 13.259-60.256 29.969-61.188zm3.4375 0c16.712 0.92828 30 15.751 30 61.188 0 0 0.61611 61.447 0.15625 61.812h29.75v-61.531c0-33.436-26.679-60.602-59.906-61.469zm-156.31 1.375v29.75h-83.781v61.594h91.5c10.224 18.417 29.958 31.009 52.375 31.656-16.731-0.93112-30.344-15.787-30.344-61.219v-61.781zm-11.438 45.75c3.6706 0 6.5931 0.22461 7.9062 0.40625 0.59033 0.09082 0.90332 0.38324 0.8125 1.0625l-0.5625 3.375c-0.18164 0.999-0.47938 1.1514-1.6562 1.0625-1.1334-0.09271-4.0028-0.3125-6.8125-0.3125-2.0851 0-4.25 0.45497-4.25 2.8125 0 1.6764 1.0477 2.3803 3.3125 2.9688l3.3438 0.875c5.9809 1.5402 7.7188 4.4944 7.7188 8.4375 0 6.7074-5.2637 9.0625-12.469 9.0625-3.2184 0-6.5288-0.22461-7.8438-0.40625-0.58844-0.09082-0.90143-0.38135-0.8125-1.0625l0.53125-3.4688c0.17975-0.999 0.51063-1.1533 1.6875-1.0625 1.1334 0.09082 4.4384 0.375 6.3438 0.375 4.1683 0 5.875-0.46272 5.875-3 0-1.7218-1.1732-2.5253-3.9375-3.25l-3.3438-0.875c-4.3972-1.1315-6.9375-3.8928-6.9375-8.5625 0-5.1654 3.6181-8.4375 11.094-8.4375zm-60.25 0.3125h10.094c6.9799 0 10.156 3.1808 10.156 8.8438 0 4.3953-2.4974 6.4086-4.7188 7.8125l6.625 10.969c0.72467 1.1352-0.05176 1.5312-0.6875 1.5312h-4.9375c-1.0861 0-1.454-0.32178-1.9062-1.0938l-5.375-9.6875c-0.31787-0.54492-0.46875-0.92279-0.46875-1.375 0-0.17974 0.05127-0.45698 0.1875-1l0.46875-1.875c0.4068-1.7237 0.84504-1.1426 2.1562-1.6875 1.0444-0.4522 2.0938-1.1917 2.0938-3.5 0-2.5392-1.3123-3.5312-4.0312-3.5312h-4.3125v22.531c0 0.91009-0.2793 1.2188-1.1875 1.2188h-4.1562c-0.90441 0-1.1875-0.30866-1.1875-1.2188v-26.688c0-0.9063 0.28309-1.25 1.1875-1.25zm23.75 0h21.938c0.9082 0 1.1875 0.34369 1.1875 1.25v3.0625c0 0.9063-0.2793 1.2188-1.1875 1.2188h-7.6875v22.406c0 0.9082-0.2793 1.2188-1.1875 1.2188h-4.1875c-0.90631 0-1.1562-0.31055-1.1562-1.2188v-22.406h-7.7188c-0.9082 0-1.1875-0.31245-1.1875-1.2188v-3.0625c0-0.90631 0.2793-1.25 1.1875-1.25z" fill="url(#linearGradient3880)"/>
</svg>
