<svg id="e" width="447.03mm" height="100mm" version="1.1" viewBox="0 0 447.03 100" xmlns="http://www.w3.org/2000/svg">
 <defs id="f">
  <linearGradient id="c" x2="1" gradientTransform="matrix(0 95.661 95.661 0 -5.3538 101.33)" gradientUnits="userSpaceOnUse">
   <stop id="g" stop-color="#777878" offset="0"/>
   <stop id="h" stop-color="#d0d2d0" offset=".020448"/>
   <stop id="i" stop-color="#f3f3f2" offset=".052404"/>
   <stop id="j" stop-color="#e9ebe9" offset=".48766"/>
   <stop id="k" stop-color="#f3f3f2" offset=".89549"/>
   <stop id="l" stop-color="#e6e7e6" offset=".92944"/>
   <stop id="m" stop-color="#d0d2d0" offset=".96426"/>
   <stop id="n" stop-color="#777878" offset="1"/>
  </linearGradient>
  <linearGradient id="d" x2="1" gradientTransform="matrix(0 95.661 95.661 0 -5.3536 101.33)" gradientUnits="userSpaceOnUse">
   <stop id="o" stop-color="#a6a4a3" offset="0"/>
   <stop id="p" stop-color="#e3e3e1" offset=".020448"/>
   <stop id="q" stop-color="#f8f8f7" offset=".052404"/>
   <stop id="r" stop-color="#f2f3f1" offset=".48766"/>
   <stop id="s" stop-color="#f8f8f7" offset=".89549"/>
   <stop id="t" stop-color="#f0f0f0" offset=".92944"/>
   <stop id="u" stop-color="#e3e3e1" offset=".96426"/>
   <stop id="v" stop-color="#a6a4a3" offset="1"/>
  </linearGradient>
 </defs>
 <g id="w" transform="translate(240.52 -98.833)">
  <path id="x" d="m-226.77 102.15c-7.4157 0-10.054 4.3767-10.054 11.661v70.76c0 7.2854 2.638 11.662 10.054 11.662h419.52c7.4165 0 10.054-4.3769 10.054-11.662v-70.76c0-7.2846-2.6377-11.661-10.054-11.661z" fill="url(#c)"/>
  <path id="y" d="m-227.01 103.66c-6.5486 0-9.0646 2.6155-9.0646 10.348l-0.0243 66.79c0 4.1624 0.23155 6.9526 0.8568 6.9526h2e-3c0.22729-1.3079 0.41917-7.7292 7.4709-13.582 22.602-17.444 88.917-30.035 164.12-35.184 5.3e-4 -3e-5 1e-3 4e-5 2e-3 0 24.606-1.684 50.18-2.573 75.473-2.573 89.972 0 153.23 11.223 181.6 37.757 6.3779 6.3164 7.2436 12.275 7.4709 13.583 0.62606 0 0.8573-2.7906 0.8573-6.9531l-0.0243-66.79c0-7.7328-2.5146-10.348-9.064-10.348-2.2171 0-4.4354 1.1896-7.3903 1.1896h-404.9c-2.954 0-5.1726-1.1901-7.3897-1.1901z" fill="url(#d)" stroke-width=".26458"/>
  <path id="z" d="m-63.653 102.15v94.083h256.4c7.4165 0 10.054-4.3769 10.054-11.662v-70.76c0-7.2846-2.6377-11.661-10.054-11.661z" fill="#b30f38"/>
  <path id="aa" d="m192.14 198.83c11.012 0 14.369-6.8462 14.369-13.689v-72.622c0-6.8438-3.3568-13.689-14.369-13.689h-418.29c-11.013 0-14.369 6.8454-14.369 13.689v72.622c0 6.843 3.3568 13.689 14.369 13.689zm-417.78-0.91968c-7.4165 0-12.432-4.3768-12.432-11.661v-74.838c0-7.2846 5.0158-11.661 12.432-11.661h417.27c7.4165 0 12.432 4.3768 12.432 11.661v74.838c0 7.2846-5.0158 11.661-12.432 11.661z" fill="#939695"/>
  <path id="ab" d="m200.89 187.75c-0.22731-1.3079-1.0928-7.266-7.4707-13.582-28.364-26.534-91.628-37.757-181.6-37.757-25.293 0-50.868 0.88894-75.474 2.573v-34.134h248.92c2.9548 0 5.1727-1.1898 7.3898-1.1898 6.5494 0 9.0642 2.6151 9.0642 10.348l0.0243 66.79c0 4.1624-0.23133 6.953-0.85738 6.953" fill="#cf5d6a"/>
  <path id="ac" d="m-176.95 158.2c0 8.0539-5.2673 13.939-15.96 15.103-7.7497 0.82989-18.968-0.14964-24.293-0.76357-0.19817-0.86872-0.35186-1.9502-0.35186-2.7995 0-7.0501 3.8114-8.6573 7.3777-8.6573 3.7054 0 9.5446 0.64223 13.89 0.64223 4.7707 0 6.2291-1.6226 6.2291-3.1627 0-2.023-1.9283-2.8634-5.6346-3.5728l-10.144-1.951c-8.4446-1.6177-12.95-7.4594-12.95-13.657 0-7.5346 5.3337-13.842 15.821-15.004 7.9301-0.8574 17.579 0.11082 22.876 0.76033 0.19574 0.91079 0.29685 1.7698 0.29685 2.7162 0 7.025-3.7054 8.5408-7.2757 8.5408-2.7453 0-7.0007-0.51444-11.859-0.51444-4.9486 0-7.0007 1.3694-7.0007 3.0373 0 1.7552 1.9558 2.484 5.053 3.0252l9.6975 1.7981c9.9604 1.8377 14.229 7.4958 14.229 14.458zm17.404 8.6476c0 4.321-1.697 6.8123-10.128 6.8123-1.117 0-2.095-0.0825-3.0316-0.21678v-57.311c0-4.3533 1.4802-8.8935 9.9992-8.8935 1.0717 0 2.154 0.11 3.1602 0.32112zm34.473 22.171c1.1041 0.56459 3.377 1.2505 6.2364 1.3274 4.8912 0.10677 7.5653-1.7714 9.5454-6.1555l26.275-58.61c-1.0839-0.58401-3.4806-1.2311-5.4518-1.2772-3.3738-0.0566-7.9083 0.63091-10.81 7.5443l-8.5068 20.083-16.687-27.18c-1.0766-0.33083-3.7038-0.80401-5.6346-0.80401-5.8804 0-9.179 2.1726-12.594 5.878l-16.223 17.744 13.049 20.54c2.4112 3.7418 5.5917 5.6491 10.751 5.6491 3.3754 0 6.1862-0.76761 7.4877-1.3912l-15.712-23.692 11.135-11.798 18.267 28.668" fill="#231f20"/>
  <g id="ad" transform="matrix(.47177 0 0 .47177 -313.68 -13.976)" fill="#fff">
   <path id="ae" d="m831.56 288.33c12.57-9.64 27.95-16.23 43.96-16.45 14.3-0.59 29.91 2.13 40.56 12.43 11.05 10.11 14.64 26.37 11.96 40.72-3.6 17.99-18.02 30.8-31.81 41.59-10.76 9.38-21.64 18.64-32.36 28.06 22.17 0.6 44.39-0.25 66.57 0.42 0.7 5.49 1.44 11.21 0.02 16.64-1.02 3.83-4.99 6.12-8.81 5.9-30.13-0.06-60.26 0.16-90.39-0.12-1.04-8.94-1.4-19.58 5.52-26.39 15.94-14.4 32.03-28.64 48.05-42.96 7-6.35 14.06-13.32 17.45-22.34 3.02-9 1.46-20.28-6.17-26.55-6.03-4.84-14.19-5.48-21.62-5.09-7.94 0.31-15.13 4.1-21.94 7.85-4.04 2.38-9.11 5.21-13.76 2.7-5.62-3.23-6.98-10.45-7.23-16.41z"/>
   <path id="af" d="m698.69 302.93c10.48-15.84 28.04-26.43 46.67-29.46 6.62-1.29 13.39-1.07 20.1-0.93 14.76 0.99 29.71 3.82 42.85 10.88-0.17 5.4-0.26 11.76-4.7 15.58-4.14 3.74-10.27 2.45-15.08 0.91-11.5-3.82-23.8-5.49-35.88-4.19-13.21 1.56-25.9 9-32.78 20.53-9.46 15.56-9.76 35.64-3.13 52.32 5.22 13.35 16.78 24.12 30.73 27.71 13.57 3.45 28.23 1.27 40.62-5.12 0.2-11.25-0.01-22.49 0.09-33.74-9.22-0.01-18.45 0.04-27.67-0.01-3.38 0.07-7.41-1.64-8.29-5.19-1.74-5.13-0.74-10.61 0.17-15.79 16.08 0.02 32.16-0.02 48.24 0.01 2.58-0.01 5.23 0.5 7.51 1.76 2.9 2.28 3.8 6.2 3.85 9.73-0.03 19.06-0.06 38.13 0 57.2-15.65 9.7-33.97 15.39-52.47 14.98-19.54 0.57-39.21-7.29-52.72-21.47-24.05-25.03-27.49-66.97-8.11-95.71z"/>
   <path id="ag" d="m573.28 280.02c0.75-4.28 5.2-6.55 9.24-6.36 34.79 0.02 69.57 0.03 104.36 0 0.71 5.67 1.74 11.63-0.3 17.15-1.25 3.26-4.42 5.68-7.97 5.62-11.89 0.14-23.79 0.07-35.69 0.01-0.03 37.5 0.01 75 0 112.5 0.02 4.26-2.88 8.61-7.22 9.43-5.86 0.98-11.82 0.31-17.67-0.34-0.15-40.53 0.04-81.05-0.07-121.58-14.85 0-29.71 0.24-44.56-0.14-0.4-5.4-1.05-10.9-0.12-16.29z"/>
   <path id="ah" d="m949.1 360.49c20.33-28.99 40.87-57.83 61.28-86.76 8.77-0.1 17.54 0.01 26.32-0.06-0.1 30.15 0.03 60.3-0.05 90.45 7.37 0.04 14.75 0 22.13 0.01 0.89 5.14 1.81 10.56 0.32 15.69-0.85 3.3-4.09 5.59-7.42 5.76-4.99 0.24-9.99 0.07-14.98 0.08-0.12 7.77 0.06 15.54-0.05 23.31 0 3.91-2.14 8.18-6.14 9.24-5.85 1.2-11.87 0.49-17.74-0.17-0.16-10.79-0.1-21.58-0.03-32.37-22.45-0.07-44.9 0.25-67.34-0.15-1.75-8.45-1.7-17.84 3.7-25.03m22.2 3.67c13.8-0.08 27.61 0.04 41.41-0.05-0.03-19.62-0.08-39.24 0.05-58.86-13.66 19.75-27.8 39.16-41.46 58.91z"/>
  </g>
 </g>
</svg>
