<?xml version="1.0" encoding="UTF-8"?>
<svg id="svg49" width="512pt" height="512pt" version="1.1" viewBox="0 0 512 512" xmlns="http://www.w3.org/2000/svg" xmlns:cc="http://creativecommons.org/ns#" xmlns:dc="http://purl.org/dc/elements/1.1/" xmlns:rdf="http://www.w3.org/1999/02/22-rdf-syntax-ns#">
 <metadata id="metadata55">
  <rdf:RDF>
   <cc:Work rdf:about="">
    <dc:format>image/svg+xml</dc:format>
    <dc:type rdf:resource="http://purl.org/dc/dcmitype/StillImage"/>
   </cc:Work>
  </rdf:RDF>
 </metadata>
 <g id="#e75e0eff">
  <path id="path38" d="m0 340.25h512v171.75h-512v-171.75" fill="#e75e0e"/>
 </g>
 <g id="#044997ff">
  <path id="path2" d="m0 0h512v340.25h-512v-340.25" fill="#044997"/>
 </g>
 <path id="path5" d="m395.11 76.1c19.56-2.23 39.73 0.97 57.65 9.1 10.11 4.79 19.69 12.01 24.88 22.16 4.81 9.26 4.04 20.94-1.64 29.65-6.05 9.34-15.66 15.8-25.71 20.22-10.87 4.61-22.56 7.22-34.31 8.27-19.88 0.61-40.56-1.56-58.35-11.1-10.44-5.35-20.11-13.86-23.62-25.39-3.24-10.04-0.09-21.39 6.92-29.07 13.51-15.51 34.43-21.58 54.18-23.84z" fill="#fff"/>
 <path id="path7" d="m46.34 79.53c1.6748-0.53874 3.3863-0.72865 5.1183-0.8755h258.23c2.0766-0.02958 4.4687 0.75572 4.4234 3.2455v59.14c-0.0934 3.6991-6.1814 3.9603-7.2359 0.75905-0.21994-0.91935-0.51701-1.9943-0.81387-2.845-3.3837-9.6612-10.749-17.751-20.01-22.144-13.39-6.4-28.43-8.05-43.07-9.01-10.76-0.37-21.54 0.43-32.17 2.03-8.06 1.2-16.48 3.57-22.34 9.56-4.54 4.58-8.11 11.15-6.65 17.76 1.53 6.31 6.87 10.72 12.33 13.69 7.1 3.85 15.25 4.67 23.01 6.37 31 6.43 62.6 9.38 93.86 13.9 2.27 0.96 2.27 3.79 2.31 5.9v107.05c0.42 2.06-2.26 1.87-3.25 0.94-4.31-2.85-9.05-4.97-14.01-6.41-14.76-4.14-29.97-6.37-45.19-8.05-20.96-2.99-42.09-4.53-63.01-7.88-23.41-2.9-46.86-6.08-69.77-11.82-20.02-5.08-38.97-14.19-55.51-26.53-24.75-17.53-37.35-48.52-37.36-78.25 0.07-19.81 3.81-40 13.4-57.51 1.9-3.45 3.88-7.38 7.71-9.02z" fill="#fff"/>
 <path id="path9" d="m341.26 174.2c0.97538-1.1621 3.22-0.75508 4.76-0.63 17.78 1.23 35.47 3.45 53.11 5.98 11.79 1.81 23.7 3.05 35.31 5.84 15.61 3.49 30.79 8.63 45.73 14.29 3.4567 1.2791 4.12 2.4467 4.12 5.29v71.09c0 3.0931 0.29 8.0188-1.23 9.01-1.82 1.06-4.03 1.01-6.06 1.1h-124.96c-3.18-0.09-8.2488 0.27831-9.55-0.8-1.44-0.98-1.455-2.93-1.625-4.39v-103.05c0-1.2714-0.1311-3.2039 0.395-3.73z" fill="#fff"/>
 <path id="path11" d="m268.25 374.33c5.35-2.75 14.19 0.93 13.07 7.72-2.22 7.29-14.29 7.83-17.27 0.87-1.7-3.48 0.96-7.28 4.2-8.59z" fill="#fff"/>
 <path id="path13" d="m400.31 374.45c5.47-3.1 15.16 1.04 13.15 8.18-2.69 6.75-13.97 6.97-17.02 0.37-1.25-3.44 0.45-7.25 3.87-8.55z" fill="#fff"/>
 <path id="path19-4" d="m289.31 375.59h14.39v16.685h9.305v11.43h-9.305v33.135h-14.39z" fill="#fff"/>
 <path id="path17" d="m374.16 375.5h14.205v61.305h-14.205z" fill="#fff"/>
 <path id="path19" d="m236.76 375.52h14.39v16.685h9.305v11.43h-9.305v33.135h-14.39z" fill="#fff"/>
 <path id="path21" d="m56.96 392.2h29.43v11.405h-24.947c-5.1804 0-4.8889 5.0724-0.06047 5.1097h12.597c8.0196 0 11.732 4.803 11.868 10.25v7.891c-0.32543 6.3184-4.3049 9.7617-10.928 9.914h-31.21v-11.415h25.33c4.5291 0 4.5209-5.0832-0.01205-5.0843l-12.514 0.0743c-6.7513 0-12.201-3.704-12.334-10.36v-9.212c0-6.0268 5.6303-8.6098 12.78-8.573z" fill="#fff"/>
 <path id="path23" transform="scale(.75)" d="m152.61 522.89c-3.9467-0.0217-7.894 8e-3 -11.834 0.28125-4.1867 0.39825-8.4824 2.3993-11.025 5.7881-1.6519 2.1672-2.805 4.1871-2.805 6.999v68.68h18.945v-22.281c9.6576 0.0465 19.325 0.12767 28.992-0.0664 6.44-0.30667 14.719-4.1329 14.666-11.6v-36.107c0.13333-4.1067-2.8938-7.6393-6.4805-9.2793-5.72-3.08-12.385-2.28-18.625-2.3867-3.94 0.0667-7.8873-6e-3 -11.834-0.0273zm-2.0234 15.488h15.23c4.0828 0 4.8398 1.3162 4.8398 4.2598v20.133c0 3.4418-0.50994 4.3398-4.6934 4.3398h-14.814c-3.2 0-4.9394-0.91749-4.9394-5.7402v-18.867c0-2.1272 0.54272-4.125 4.377-4.125z" fill="#fff" stroke-width="1.3333"/>
 <path id="path25" d="m161.21 392.38c5.91-0.41 11.84-0.09 17.75-0.19 4.68 0.08 9.68-0.52 13.97 1.79 2.69 1.23 4.96 3.88 4.86 6.96v27.08c0.04 5.6-6.17 8.47-11 8.7-7.97 0.16-15.94 0.07-23.9 0.04-4.42-0.06-9.86-1.75-11.17-6.5-1.36-5.64-0.7-11.5-0.84-17.24 0.11-4.56-0.46-9.22 0.72-13.68 1.27-4.13 5.51-6.57 9.61-6.96m7.3582 11.405c-2.8757 0-3.2832 1.4996-3.2832 3.095v14.15c0 3.6171 1.305 4.305 3.705 4.305h11.11c3.1376 0 3.52-0.67363 3.52-3.255v-15.1c0-2.2076-0.56794-3.195-3.63-3.195z" fill="#fff"/>
 <path id="path27" d="m214.31 393.27c1.8322-0.6184 3.7102-1.0619 5.6214-1.0619h11.754v11.524h-7.1861c-1.3436 0-2.6189 1.3326-2.6189 2.208v30.855h-14.2v-33.755c-0.22-4.29 2.5-8.46 6.63-9.77z" fill="#fff"/>
 <path id="path33-2" d="m265.48 392.26h14.385v44.565h-14.385z" fill="#fff"/>
 <path id="path35-2" d="m317.85 392.19h32.375c3.98-0.01 8.31 0.705 11.35 3.505 2.24 2.1 2.98 5.3 2.9 8.28v22.08c0.12 4.1-2.63 7.87-6.31 9.5-2.1287 1.0801-4.4507 1.2437-6.7876 1.2483h-18.917c-1.4061-0.0276-2.8113-0.0917-4.215-0.17828-4.46-0.31-9.33-2.93-10.18-7.68-0.39-4.3-0.3-8.63-0.12-12.94 0.46-5.46 6.21-8.725 11.24-8.775h20.89c0.28999-2.08-0.0375-4.3875-2.8-4.32h-29.425v-10.72m16.425 33.3h13.87c3.3369 0 3.2427-7.8548-0.50076-7.8548h-12.905c-4.8933 0-4.7422 7.8548-0.46428 7.8548z" fill="#fff"/>
 <path id="path33" d="m397.77 392.22h14.385v44.565h-14.385z" fill="#fff"/>
 <path id="path35" d="m421.62 392.2h32.375c3.98-0.01 8.31 0.705 11.35 3.505 2.24 2.1 2.98 5.3 2.9 8.28v22.08c0.12 4.1-2.63 7.87-6.31 9.5-2.1287 1.0801-4.4507 1.2437-6.7876 1.2483h-18.917c-1.4061-0.0276-2.8113-0.0917-4.215-0.17828-4.46-0.31-9.33-2.93-10.18-7.68-0.39-4.3-0.3-8.63-0.12-12.94 0.46-5.46 6.21-8.725 11.24-8.775h20.89c0.29-2.08-0.0375-4.3875-2.8-4.32h-29.425v-10.72m16.425 33.3h13.87c3.3369 0 3.2427-7.8548-0.50076-7.8548h-12.905c-4.8933 0-4.7422 7.8548-0.46428 7.8548z" fill="#fff"/>
</svg>
