<?xml version="1.0" encoding="UTF-8"?>
<svg id="svg27" width="1220pt" height="200pt" version="1.1" viewBox="0 0 1220 200" xmlns="http://www.w3.org/2000/svg" xmlns:cc="http://creativecommons.org/ns#" xmlns:dc="http://purl.org/dc/elements/1.1/" xmlns:rdf="http://www.w3.org/1999/02/22-rdf-syntax-ns#">
 <metadata id="metadata33">
  <rdf:RDF>
   <cc:Work rdf:about="">
    <dc:format>image/svg+xml</dc:format>
    <dc:type rdf:resource="http://purl.org/dc/dcmitype/StillImage"/>
   </cc:Work>
  </rdf:RDF>
 </metadata>
 <g id="#b2b3b5ff">
  <path id="path2" d="m0 0h990v200h-990v-200" fill="#b2b3b5"/>
 </g>
 <g id="#0055a0ff">
  <path id="path24" d="m1020 0h200v200h-200v-200" fill="#0055a0"/>
 </g>
 <g id="#ffffffff" fill="#fff">
  <path id="path9" d="m94.14 41.13c11.84-4.06 24.45-4.96 36.87-5.39 16.34-0.21 32.9 0.35 48.8 4.47 9.53 2.48 18.97 6.88 25.5 14.47 4.84 5.59 7.44 12.86 7.8 20.21l-54.55-0.14c-0.97-2.84-1.69-6.24-4.55-7.8-6.29-3.8-13.93-4.2-21.09-3.92-4.31 0.26-8.91 0.73-12.55 3.28-2.63 1.69-3.19 5.48-1.84 8.15 1.39 2.27 4.3 2.64 6.68 3.14 18.31 2.68 36.62 5.37 54.92 8.12 10.89 1.61 22.17 5.04 30.14 13.01 7.05 7.03 9.18 17.64 7.89 27.24-0.75 7.21-3.68 14.24-8.7 19.51-7.06 7.66-17.17 11.48-27.05 13.94-14.52 3.41-29.55 3.97-44.41 3.88-14.73-0.34-29.73-0.95-43.86-5.51-8.61-2.62-16.87-7.3-22.32-14.63-4.32-5.72-6.07-13-5.88-20.1l56.54 0.16c1.01 2.8 1.76 6.13 4.5 7.79 3.88 2.28 8.54 2.63 12.95 2.95 5.73 0.16 11.72 0.26 17.14-1.91 4.24-1.68 6.56-7.25 4.13-11.27-1.98-3.31-6.1-3.92-9.57-4.5-16.81-2.42-33.59-5-50.39-7.47-9.31-1.36-19.1-4.23-25.55-11.51-7.08-7.42-9.21-18.33-7.75-28.23 0.77-6.62 3.8-12.93 8.51-17.64 4.8-5.02 11.2-8.08 17.69-10.3z"/>
  <path id="path11" d="m821.47 36.56c13.6-1.14 27.31-1.2 40.92-0.07 13.24 0.78 26.49 4.3 37.81 11.33 9.59 6.58 17.15 16.32 20.53 27.51 2.8 9.28 3.53 19.1 3.15 28.75-0.49 13.67-4.11 27.88-13.62 38.14-9.37 11.26-23.81 16.63-37.83 19.17-16.33 2.27-32.91 2.38-49.34 1.2-13.39-0.82-26.84-4.28-38.29-11.41-9.15-6.29-16.48-15.43-20.03-26-3.22-9.37-3.95-19.41-3.7-29.24 0.41-13.54 3.63-27.66 12.74-38.1 11.42-14.2 30.13-19.86 47.66-21.28m14.87 29.81c-7.48 0.9-14.99 4.3-19.38 10.63-5.19 7.51-5.98 17.07-5.6 25.93 0.41 8.24 2.51 17.14 8.95 22.81 7.4 6.71 18.07 8 27.64 7 8.19-0.81 16.45-4.74 20.87-11.91 4.61-7.62 5.25-16.9 4.76-25.6-0.49-7.97-2.7-16.46-8.86-21.98-7.61-6.83-18.6-8.09-28.38-6.88z"/>
  <path id="path13" d="m221.28 40.18h134.34v29.93h-43.59v88.82h-47.26v-88.82h-43.495z"/>
  <path id="path15" d="m364.07 40.105h46.87c0.2 23.32-0.02 46.615 0.09 69.935 0.2 5.6 0.47 12.01 4.74 16.2 5.03 4.92 12.51 5.71 19.21 5.8 6.75-0.03 14.26-0.84 19.41-5.65 4.32-4.24 4.86-10.69 4.9-16.4-0.03-23.28-0.02-46.595-0.02-69.885h46.96c0.48 24.3 0.03 48.585 0.22 72.895 0.14 11.29-1.73 23.38-9.12 32.35-6.3 7.9-15.98 12.09-25.56 14.45-14.96 3.5-30.45 3.78-45.73 3.36-13.94-0.69-28.37-1.85-41.02-8.25-7.14-3.45-13.01-9.39-16.46-16.52-3.46-7.26-4.68-15.4-4.58-23.4 0.1-24.97-0.09-49.915 0.09-74.885z"/>
  <path id="path17" d="m526.36 40.105h74.64c13.01 0.22 26.19-1.035 39 1.845 11.58 2.41 23.27 7.89 30.1 17.91 7.78 11.39 9.65 25.66 9.67 39.15 0.19 15.31-2.55 31.85-13.06 43.66-11.05 11.93-27.97 15.92-43.69 16.22h-96.66v-118.78m47.02 30.245v58.44c8.2 0.45 16.41 0.15 24.63 0.18 7.74-0.07 16.08-0.6 22.57-5.32 6.31-4.43 9.26-12.2 9.74-19.66 0.58-8.46-0.06-17.82-5.59-24.7-5.35-6.75-14.39-9.13-22.68-9.03-9.56 0.1-19.12-0.09-28.67 0.09z"/>
  <path id="path19" d="m697.07 40.07h46.86v118.86h-46.86z"/>
  <path id="path21" d="m1121.5 47.275h35.445v115.72h-43.99v-65.77h-35.2v-29.2c10.34 0.07 21.205 0.06 30.755-4.49 6.53-3.12 10.57-9.665 12.99-16.255z"/>
 </g>
</svg>
