<?xml version="1.0" encoding="UTF-8"?>
<!-- Created with Inkscape (http://www.inkscape.org/) -->
<svg id="svg4514" width="54.014mm" height="31.986mm" version="1.1" viewBox="0 0 54.014 31.986" xmlns="http://www.w3.org/2000/svg" xmlns:cc="http://creativecommons.org/ns#" xmlns:dc="http://purl.org/dc/elements/1.1/" xmlns:rdf="http://www.w3.org/1999/02/22-rdf-syntax-ns#">
 <metadata id="metadata4511">
  <rdf:RDF>
   <cc:Work rdf:about="">
    <dc:format>image/svg+xml</dc:format>
    <dc:type rdf:resource="http://purl.org/dc/dcmitype/StillImage"/>
    <dc:title/>
   </cc:Work>
  </rdf:RDF>
 </metadata>
 <g id="layer1" transform="translate(44.016 -132.84)">
  <g id="g10" transform="matrix(.35278 0 0 .35278 -52.109 122.25)">
   <path id="path2" d="m141.72 34.96 21.56-4.93-2.03 49.12 14.8 2.77-10.03 11.43 2.37 16.2-14.21-6.42-4 2.62 1.08 2.12-16.72 6.54-4.75-8.77-0.96 8.87-18.62 4.8 2.05-13.74-21.92 2.82 0.02-15.5-4.66 2.93-0.61 18.32-18.46 6.56-0.01-2.67c-5.78 2.58-13.09 2.71-18.24-1.32-2.58-1.85-3.98-4.79-4.98-7.71-4.2 0.77-8.96 1.01-12.45-1.9-6.61-4.45-7.24-13.17-8.01-20.37l8.28-5.6c-8.12-6.19-9.79-18.76-4.29-27.16 4.55-7.03 16.06-9.5 22.12-3.07 4.54 4.45 4.63 11.31 4.79 17.24l11.22-0.36 0.09-4.19c8.19-2.46 16.55-5.89 25.27-4.71l0.52-1.54c11.36-1.38 22.79-2.31 34.2-3.21l-0.27 7.9c6.15-1.55 13.27-2.12 18.66 1.87-0.64-9.64-1.21-19.29-1.81-28.94" fill="#005970"/>
   <path id="path4" d="m147.71 38.39 10.4-1.96-1.55 37.38-7.61 1.15z" fill="#fec524"/>
   <path id="path6" d="m30.58 57.55c2.34-4.37 7.96-6.5 12.61-4.75 4.23 2.11 5.22 7.19 5.44 11.48l-6.64 2.68c-0.31188-2.4786-0.23307-5.3345-1.7207-7.3844-0.53558-0.79289-0.9417-1.1133-1.35-1.1074-0.80485-0.01581-1.4286 0.8813-2.009 1.5726-1.8932 2.5706-1.323 6.7638 0.91968 9.0693 3.16 3.27 7.44 5.24 10.35 8.81l-0.03-5.18 7.6 0.11c-0.3 9.41-0.84 18.81-1.11 28.21 0.12 1.48-0.34 3.34 0.87 4.49 1.43 1.72 4.47 1.48 5.71-0.35 0.76-1.23 0.88-2.72 1.02-4.12 0.57-9.42 1.01-18.85 1.55-28.28l6.4 0.39-0.01-5.75c6.64-1.79 13.53-4.38 20.48-2.94 2.68 0.52 3.98 3.07 5.14 5.24l-0.16-7.3c8.2-0.96 16.39-1.92 24.59-2.88v8.07c-5.22 0.59-10.42 1.33-15.65 1.68-0.16 2.73-0.22 5.46-0.24 8.19 3.48-0.35 6.96-0.69 10.45-0.95l-0.07 7.79c-3.4 0.39-6.8 0.83-10.2 1.27-0.07 2.61-0.15 5.22-0.24 7.83 4.95-0.53 9.9-1.07 14.85-1.7l1.42-13.57-3.62 1.54 0.42-8.78c6.38-2.63 13.25-6.94 20.37-4.55 4.97 1.87 5.34 7.99 4.7 12.49-0.5 4.78-3.86 8.52-7.6 11.22l9.3 15.1-7.15 3.18-7.95-15.28-2.78 0.94-1.95 16.5-8.11 2.44 1.7-13.28-22.47 3.01 0.15-23.74c-2.18 6.7-8.27 11.06-14.43 13.86l-0.54 16-7.96 3.18 1.63-36.43-3.08 1.28c-0.28 9.08-0.58 18.18-1.38 27.24-0.23 4.5-3.03 9.02-7.55 10.24-4.09 0.97-9.1 0.85-12.19-2.41-3.13-3.47-2.35-8.47-2.35-12.75-2.68 4.81-9.09 7.09-13.94 4.09-4.31-3.25-5.3-9.13-5.37-14.2l7.04-4.73c0.08879 3.0427 0.02567 5.8206 1.1571 8.2582 0.68139 1.6684 1.3718 2.0331 2.6915 1.9682 1.4998-0.12679 2.5725-1.6811 3.042-3.3238 0.31416-1.3282 0.34741-2.6273 0.27416-3.9108-0.41561-4.9522-5.6196-7.83-9.0047-10.962-5.6-4.36-6.04-12.82-3.02-18.81m50.98 15.72-0.15 10.4c3.53-1.84 7.4-5.11 6.35-9.6-0.65-3.1-4.23-1.6-6.2-0.8m47.26 2.67-1.1 9.54c3.75-1.85 8.12-5.35 6.76-10.08-0.67969-1.9233-4.1131-0.35309-5.66 0.54z" fill="#f0eb9a"/>
   <path id="path8" d="m148.78 85.69 4.02-9.01 4.46 8.04 8.84 1.12-5.72 6.44 2.58 9.32-8.91-4.42-8.9 5.53 1.82-9.67-6.63-5.48z" fill="#fd4f00"/>
  </g>
 </g>
</svg>
