<svg width="224.71mm" height="206.91mm" version="1.1" viewBox="0 0 224.71 206.91" xmlns="http://www.w3.org/2000/svg">
 <g transform="translate(-23.448 132.14)">
  <path d="m109.51-18.891q5.5545 17.814 19.123 25.593 13.568 7.7794 27.542 4.6248 9.316-2.1031 14.789-7.9185 5.5485-5.9261 6.8782-17.443l3.7636 1.0198q1.6261 12.438-5.6944 24.653-7.3482 12.127-23.082 15.679-17.079 3.8556-32.844-4.5497-15.689-8.5159-21.707-27.44-6.5179-20.494 2.2701-34.722 8.8637-14.339 27.703-18.592 15.941-3.5986 29.017 2.9833 13.049 6.4947 17.764 21.32zm-1.6087-5.0581 43.889-9.9078q-2.9583-7.5575-5.6129-10.323-4.141-4.2995-10.204-5.9218-5.9596-1.6457-11.549-0.38386-8.5914 1.9395-13.62 9.1503-4.9531 7.1002-2.9021 17.386z" fill="#026c9e"/>
  <path d="m124.84-132.14 1.3543 28.711h-3.4308q-0.99312-7.5839-2.7085-10.834-2.7988-5.2365-7.4936-7.6742-4.6046-2.528-12.188-2.528h-17.244v93.535q0 11.286 2.4377 14.084 3.4308 3.792 10.563 3.792h4.2434v3.3405h-51.914v-3.3405h4.3337q7.7645 0 11.015-4.6948 1.9863-2.8891 1.9863-13.182v-93.535h-14.716q-8.5771 0-12.188 1.264-4.6948 1.7154-8.0354 6.5908-3.3405 4.8754-3.9725 13.182h-3.4308l1.4446-28.711z" fill="#fff"/>
  <path d="m190.73-125.46v48.122h22.3q7.6742 0 11.195-3.3406 3.6114-3.4308 4.7851-13.452h3.3405v41.441h-3.3405q-0.0903-7.1325-1.896-10.473-1.7154-3.3405-4.8754-4.9657-3.0697-1.7154-9.2091-1.7154h-22.3v38.461q0 9.2994 1.1737 12.279 0.90286 2.2571 3.792 3.8823 3.9725 2.1668 8.3062 2.1668h4.424v3.3405h-52.546v-3.3405h4.3337q7.5839 0 11.015-4.424 2.1668-2.8891 2.1668-13.904v-79.09q0-9.2993-1.1737-12.279-0.90284-2.2571-3.7017-3.8822-3.8823-2.1668-8.3062-2.1668h-4.3337v-3.3406h91.098l1.1737 26.905h-3.16q-2.3474-8.577-5.5074-12.55-3.0697-4.0628-7.6742-5.8685-4.5142-1.8057-14.084-1.8057z" fill="#fff"/>
  <g transform="matrix(1.8731 0 0 1.8731 -20.75 -79.611)" fill="#fff">
   <path d="m37.971 64.833 0.38447 5.7175h-0.38447q-0.76895-2.5673-2.1952-3.6959-1.4263-1.1286-3.423-1.1286-1.6743 0-3.0262 0.85576-1.3519 0.84336-2.1332 2.7037-0.76894 1.8604-0.76894 4.6261 0 2.282 0.73174 3.9563t2.1952 2.5673q1.4759 0.89297 3.361 0.89297 1.6371 0 2.8897-0.69453 1.2526-0.70693 2.7533-2.7905l0.38447 0.24805q-1.265 2.2448-2.9518 3.2866-1.6867 1.0418-4.006 1.0418-4.1796 0-6.474-3.1006-1.7115-2.3068-1.7115-5.4322 0-2.5177 1.1286-4.6261t3.1006-3.2618q1.9844-1.1658 4.3284-1.1658 1.8231 0 3.5967 0.89297 0.5209 0.27285 0.74414 0.27285 0.33486 0 0.58291-0.23564 0.32246-0.33486 0.45888-0.93018z"/>
   <path d="m44.867 73.018h7.8135v-4.8121q0-1.2898-0.16123-1.6991-0.12402-0.31006-0.5209-0.5333-0.5333-0.29766-1.1286-0.29766h-0.59531v-0.45889h7.1934v0.45889h-0.59531q-0.59531 0-1.1286 0.28526-0.39688 0.19844-0.5457 0.60771-0.13642 0.39688-0.13642 1.6371v10.852q0 1.2774 0.16123 1.6867 0.12402 0.31006 0.5085 0.5333 0.5457 0.29766 1.141 0.29766h0.59531v0.45889h-7.1934v-0.45889h0.59531q1.0294 0 1.5007-0.60771 0.31006-0.39688 0.31006-1.91v-5.1222h-7.8135v5.1222q0 1.2774 0.16123 1.6867 0.12402 0.31006 0.5209 0.5333 0.5333 0.29766 1.1286 0.29766h0.60771v0.45889h-7.2058v-0.45889h0.59531q1.0418 0 1.5131-0.60771 0.29766-0.39688 0.29766-1.91v-10.852q0-1.2898-0.16123-1.6991-0.12402-0.31006-0.5085-0.5333-0.5457-0.29766-1.141-0.29766h-0.59531v-0.45889h7.2058v0.45889h-0.60771q-0.59531 0-1.1286 0.28526-0.38447 0.19844-0.5333 0.60771-0.14883 0.39688-0.14883 1.6371z"/>
   <path d="m69.622 76.404h-6.5112l-1.141 2.6541q-0.42168 0.97978-0.42168 1.4635 0 0.38447 0.35967 0.68213 0.37207 0.28526 1.5875 0.37207v0.45889h-5.2958v-0.45889q1.0542-0.18603 1.3643-0.48369 0.63252-0.59531 1.4015-2.4185l5.9159-13.841h0.43408l5.8539 13.99q0.70693 1.6867 1.2774 2.1952 0.58291 0.49609 1.6123 0.5581v0.45889h-6.6353v-0.45889q1.0046-0.04961 1.3519-0.33486 0.35967-0.28526 0.35967-0.69453 0-0.5457-0.49609-1.7239zm-0.34727-0.91777-2.8525-6.7965-2.927 6.7965z"/>
   <path d="m76.021 65.217h4.5641l10.282 12.613v-9.6986q0-1.5503-0.34727-1.9348-0.45888-0.5209-1.4511-0.5209h-0.58291v-0.45889h5.8539v0.45889h-0.59531q-1.0666 0-1.5131 0.64492-0.27285 0.39688-0.27285 1.8107v14.176h-0.44648l-11.088-13.543v10.356q0 1.5503 0.33486 1.9348 0.47129 0.5209 1.4511 0.5209h0.59531v0.45889h-5.8539v-0.45889h0.58291q1.079 0 1.5255-0.64492 0.27285-0.39688 0.27285-1.8107v-11.695q-0.73174-0.85576-1.1162-1.1286-0.37207-0.27285-1.1038-0.5085-0.35967-0.11162-1.0914-0.11162z"/>
   <path d="m94.377 65.217h4.5641l10.282 12.613v-9.6986q0-1.5503-0.34726-1.9348-0.45889-0.5209-1.4511-0.5209h-0.58291v-0.45889h5.8539v0.45889h-0.59531q-1.0666 0-1.5131 0.64492-0.27285 0.39688-0.27285 1.8107v14.176h-0.44649l-11.088-13.543v10.356q0 1.5503 0.33486 1.9348 0.47129 0.5209 1.4511 0.5209h0.59531v0.45889h-5.8539v-0.45889h0.58291q1.079 0 1.5255-0.64492 0.27285-0.39688 0.27285-1.8107v-11.695q-0.73174-0.85576-1.1162-1.1286-0.37207-0.27285-1.1038-0.5085-0.35967-0.11162-1.0914-0.11162z"/>
   <path d="m118.38 66.135v6.6477h3.6959q1.4387 0 1.9224-0.43408 0.64493-0.57051 0.71934-2.0092h0.45889v5.8539h-0.45889q-0.17363-1.2278-0.34727-1.5751-0.22324-0.43408-0.73174-0.68213-0.50849-0.24805-1.5627-0.24805h-3.6959v5.5438q0 1.1162 0.0992 1.3643 0.0992 0.23564 0.34727 0.38447 0.24804 0.13643 0.94257 0.13643h2.8525q1.4263 0 2.0712-0.19844 0.64492-0.19844 1.2402-0.78135 0.76894-0.76894 1.5751-2.3192h0.49609l-1.4511 4.2168h-12.96v-0.45889h0.59531q0.59531 0 1.1286-0.28525 0.39688-0.19844 0.5333-0.59531 0.14883-0.39688 0.14883-1.6247v-10.926q0-1.5999-0.32246-1.972-0.44648-0.49609-1.4883-0.49609h-0.59531v-0.45889h12.96l0.18603 3.6835h-0.48369q-0.26045-1.327-0.58291-1.8231-0.31006-0.49609-0.93018-0.75654-0.49609-0.18603-1.7487-0.18603z"/>
   <path d="m143.16 77.384 0.40928 0.08682-1.4387 4.5641h-13.022v-0.45889h0.63252q1.0666 0 1.5255-0.69453 0.26045-0.39688 0.26045-1.8355v-10.852q0-1.5751-0.34727-1.972-0.48369-0.5457-1.4387-0.5457h-0.63252v-0.45889h7.615v0.45889q-1.3394-0.01241-1.8852 0.24805-0.5333 0.26045-0.73174 0.65732-0.19843 0.39688-0.19843 1.8976v10.567q0 1.0294 0.19843 1.4139 0.14883 0.26045 0.45889 0.38447t1.9348 0.12402h1.2278q1.9348 0 2.7161-0.28526 0.78135-0.28525 1.4263-1.0046 0.64492-0.73174 1.2898-2.2944z"/>
  </g>
 </g>
</svg>
