<?xml version="1.0" encoding="UTF-8"?>
<svg id="svg171" width="855.63pt" height="256.93pt" version="1.1" viewBox="0 0 855.63 256.93" xmlns="http://www.w3.org/2000/svg" xmlns:cc="http://creativecommons.org/ns#" xmlns:dc="http://purl.org/dc/elements/1.1/" xmlns:rdf="http://www.w3.org/1999/02/22-rdf-syntax-ns#">
 <metadata id="metadata177">
  <rdf:RDF>
   <cc:Work rdf:about="">
    <dc:format>image/svg+xml</dc:format>
    <dc:type rdf:resource="http://purl.org/dc/dcmitype/StillImage"/>
    <dc:title/>
   </cc:Work>
  </rdf:RDF>
 </metadata>
 <path id="path2" d="m337.17 5.6599 49.99 211.39 50.21-210.47 0.35 248.46h-22.57l0.12-70.745-17.72 70.745h-20.78l-17.05-70.705-0.16 70.705h-22.63z"/>
 <path id="path4" d="m793.85 160.82c12.33-2.89 25.78-2.5 37.53 2.48 10.71 4.56 18.46 14.42 21.76 25.43 2.94 9.7 2.92 20.06 1.75 30.05-1.36 11.28-6.54 22.44-15.75 29.4-8.78 6.96-20.37 9.02-31.31 8.72-8.26-0.24-16.63-1.62-24.01-5.5-3.24-2.07-6.28-4.45-9.04-7.13-3.29-3.48-5.8-7.59-7.91-11.86-5.5-13.01-5.52-27.9-2.53-41.53 0.99-3.41 2.33-6.7 3.77-9.94 5.34-9.9 14.75-17.49 25.74-20.12m2.01 26.01c-4.31 4.9-5.21 11.73-5.52 18-0.19 6.46-0.04 13.13 2.32 19.23 2.01 5.3 6.82 9.69 12.53 10.43l-0.48 0.17c5.34 0.78 11.27 0.35 15.6-3.22 3.95-3 5.79-7.9 6.56-12.65 1.29-7.6 1.46-15.49-0.2-23.05l-0.25 0.57c-0.07-2.92-1.54-5.62-3.09-8.02-6.03-8.8-20.57-9.63-27.47-1.46z"/>
 <path id="path6" d="m0 160.54h84.67v23.525h-28.225v71.195h-27.815v-71.195h-28.63z"/>
 <path id="path8" d="m90.625 160.48h74.805v20.375h-46.715v14.93h43.13v19.51h-43.13v18.315h48.085v21.655h-76.175z"/>
 <path id="path10" d="m175 160.51h28.15v71.3h43.325v23.345h-71.475z"/>
 <path id="path8-3" d="m252.35 160.57h74.805v20.375h-46.715v14.93h43.13v19.51h-43.13v18.315l48.085-1.2e-4v21.655h-76.175z"/>
 <path id="path14" d="m451.11 160.86h27.6v94.42h-27.6z"/>
 <path id="path16" d="m492.84 160.83h27.67l-0.12 71.82h43.24v22.53l-71.03 2.5e-4z"/>
 <path id="path18" d="m600.77 160.47h30.42l34.04 94.71h-29.26l-5.04-15.41h-30.92l-4.3253 15.41h-28.655l33.74-94.71m5.43 58.57h19.47l-9.735-33.27z"/>
 <path id="path20" d="m667.88 160.76h25.92l33.86 51.97v-51.97h26.14v94.63h-26.146l-33.764-51.75v51.75h-26.01z"/>
 <g id="#f0cb32ff" transform="translate(-11.2 -12.15)">
  <path id="path66" d="m389.1 17.08c2.47-3.46 6.93-5.96 11.21-4.51 5.15 1.84 8 7.05 9.7 11.93 2.63 9.21 2.02 19.91-3.57 27.94-2.56 3.8-7.23 6.15-11.8 4.8-6.36-3.23-9.45-10.35-10.37-17.1-1.05-7.88 0.04-16.51 4.83-23.06z" fill="#f0cb32"/>
 </g>
</svg>
