<?xml version="1.0" encoding="UTF-8"?>
<svg id="svg23" width="1031.8pt" height="176.16pt" version="1.1" viewBox="0 0 1031.8 176.16" xmlns="http://www.w3.org/2000/svg" xmlns:cc="http://creativecommons.org/ns#" xmlns:dc="http://purl.org/dc/elements/1.1/" xmlns:rdf="http://www.w3.org/1999/02/22-rdf-syntax-ns#">
 <metadata id="metadata29">
  <rdf:RDF>
   <cc:Work rdf:about="">
    <dc:format>image/svg+xml</dc:format>
    <dc:type rdf:resource="http://purl.org/dc/dcmitype/StillImage"/>
    <dc:title/>
   </cc:Work>
  </rdf:RDF>
 </metadata>
 <g id="#000000ff" transform="translate(-83.762 -11.723)" fill="#2778cc">
  <path id="path2" d="m850.47 12.55c7.09-1.71 15.34-0.94 21.07 3.94 8.05 6.57 7.94 20.46 0 27.07-8.34 6.95-22.25 6.61-29.97-1.15-6.65-6.67-6.54-18.97 0.54-25.31 2.35-2.18 5.26-3.73 8.36-4.55z"/>
  <path id="path4" d="m350.6 16.77c11.76-0.01 23.51-0.01 35.27 0 0.01 44.07 0.01 88.14 0.01 132.2 0.04 3.21 0.22 7.04 3.06 9.13 2.11 1.81 5.02 1.1 7.54 0.97 1.41 8.67 2.87 17.33 4.29 26-8.19 2.9-17.12 3.45-25.67 2.14-7.69-1.19-15.02-5.63-18.87-12.51-4.65-8.04-5.52-17.58-5.63-26.68-0.01-43.75-0.01-87.5 0-131.25z"/>
  <path id="path6" d="m83.77 28.52c40.48-0.01 80.95-0.01 121.43 0 0.01 9.92 0.01 19.84 0 29.75-14.32 0.03-28.64 0-42.96 0.01-0.01 42.24 0 84.48-0.01 126.71-11.76 0.01-23.51 0.01-35.27 0-0.02-42.24 0.01-84.47-0.02-126.71-14.39 0-28.78 0.01-43.17-0.01-0.01-9.91-0.01-19.83 0-29.75z"/>
  <path id="path8" d="m545.52 28.52c11.76-0.01 23.52-0.02 35.28 0.01 0 29.16-0.01 58.33 0.01 87.49 0.09 9.12 0.55 18.52 4.03 27.06 2.65 6.71 8.69 11.93 15.75 13.49 8.22 1.81 17.63 0.82 24.3-4.71 4.05-3.25 6.69-7.94 8.13-12.87 2.91-9.71 2.76-19.96 2.75-30 0-26.82-0.01-53.64 0-80.47 11.36-0.01 22.72-0.02 34.08 0-0.05 29.5 0.08 59-0.07 88.49-0.53 17.15-2.95 35.3-13.11 49.64-8.86 12.48-23.84 19.3-38.8 20.69-17.79 1.81-37.41-0.63-51.45-12.62-12.05-10.03-17.4-25.69-19.5-40.76-1.87-12.57-1.32-25.29-1.41-37.95 0.01-22.49-0.01-44.99 0.01-67.49z"/>
  <path id="path10" d="m236.91 79.96c10.97-11.57 27.16-18.06 43.11-16.74 13 0.52 25.92 6.35 34.11 16.61 12.13 15.36 14.11 36.51 10.9 55.24-23.78 0.02-47.56-0.01-71.33 0.02 1.45 8.59 5.56 17.42 13.58 21.66 13.51 7.53 30.49 4.26 43.09-3.65 3.9 7.13 7.9 14.21 11.72 21.39-15.44 10.26-34.6 15.5-53.06 12.57-15.1-2.18-29.51-10.29-38.24-22.94-9.03-12.68-12.01-28.73-10.97-44.04 0.83-14.8 6.88-29.34 17.09-40.12m24.75 15.75c-4.96 4.48-7.08 11.13-8.2 17.51 14.34 0.02 28.67 0.01 43.01 0-0.13-7.57-1.98-16.46-8.91-20.72-8.17-4.32-19.11-3.19-25.9 3.21z"/>
  <path id="path12" d="m430.92 78.93c10.92-10.94 26.64-16.98 42.1-15.71 13.49 0.52 26.88 6.82 35.01 17.76 11.31 15.32 13.14 35.8 10 54.09-23.78 0.02-47.56-0.01-71.33 0.02 1.45 8.6 5.57 17.44 13.6 21.67 13.51 7.51 30.47 4.26 43.06-3.66 3.88 7.17 8.01 14.2 11.69 21.47-15.19 9.94-33.84 15.25-51.98 12.64-14.97-1.93-29.38-9.6-38.39-21.86-9.06-12.03-12.56-27.43-11.99-42.3 0.24-16.29 6.66-32.56 18.23-44.12m23.76 16.76c-4.97 4.47-7.1 11.13-8.22 17.53 14.33 0.02 28.67 0.01 43.01 0-0.13-7.56-1.97-16.44-8.89-20.71-8.16-4.32-19.1-3.21-25.9 3.18z"/>
  <path id="path14" d="m759.24 65.08c8.42-2.57 17.58-2.64 26.07-0.37 7.05 1.9 13.28 6.58 16.94 12.91 6.02 10 7.54 21.95 7.61 33.42 0.04 24.65 0.01 49.3 0.02 73.95-11.76 0.01-23.52 0.01-35.28 0-0.02-23.34 0.01-46.68-0.02-70.02-0.15-5.54-0.28-11.42-3.04-16.39-2.51-4.32-7.87-5.78-12.57-5.46-8.49 0.05-15.66 5.86-21.02 11.82-0.17 26.68-0.02 53.37-0.07 80.05-11.76 0.02-23.52 0.01-35.28 0-0.01-39.67-0.02-79.35 0-119.03 9.51 0.03 19.03-0.1 28.54 0.05 1.48 4.95 1.63 10.33 2.77 15.42 7.92-6.14 15.59-13.22 25.33-16.35z"/>
  <path id="path16" d="m909.5 88.45c11.91-17.46 33.75-26.54 54.54-25.23 11.62 0.52 23.11 5.21 31.32 13.54-5.35 7.27-10.7 14.53-16.05 21.79-4.19-3.24-8.92-6.16-14.29-6.75-8.05-0.82-16.68 1.91-22.01 8.18-6.95 7.85-8.6 18.9-8.01 29.03 0.42 9.01 3.56 18.34 10.54 24.38 5.2 4.75 12.57 6.62 19.48 5.69 6.72-0.67 12.47-4.59 17.85-8.38 4.74 7.43 9.46 14.87 14.18 22.32-20.9 18.73-55.46 20.01-77.29 2.17-13.47-10.88-20.43-28.27-21.01-45.31-0.88-14.48 2.31-29.46 10.75-41.43z"/>
  <path id="path18" d="m1017.4 78.7c14.18-8.39 29.99-14.93 46.65-15.51 12.55-0.61 26.11 1.45 36 9.81 8.89 7.32 13.06 18.75 14.56 29.86 1.5 11.32 0.75 22.77 0.94 34.16 0 15.99-0.01 31.98 0 47.96-9.59 0.05-19.18-0.01-28.76 0.04-0.99-4.18-1.81-8.39-2.79-12.56-7.55 5.94-15.55 11.91-25.05 14.2-10.98 2.59-23.46 1.23-32.47-5.96-12.67-9.98-16.5-28.82-10.2-43.41 4.3-9.7 13.51-16.19 23.13-19.99 13.03-5.27 27.07-7.21 40.93-8.99-0.58-5.42-2.45-11.28-7.23-14.42-4.89-3-10.92-2.99-16.44-2.41-9.65 1.19-18.42 5.79-26.8 10.46-4.17-7.74-8.32-15.49-12.47-23.24m40.65 56.37c-4.51 2.05-8.85 5.41-10.51 10.25-1.62 4.82-0.22 11.22 4.78 13.45 6.05 2.73 13.59 2.27 19.27-1.2 3.11-2.13 6.32-4.37 8.61-7.4 0.16-6.86 0.01-13.73 0.05-20.6-7.54 1.13-15.17 2.42-22.2 5.5z"/>
  <path id="path20" d="m839.6 65.96c11.76-0.01 23.51-0.01 35.27 0 0.02 39.68 0 79.36 0.01 119.03-11.76 0.02-23.52 0.01-35.28 0.01-0.01-39.68-0.02-79.36 0-119.04z"/>
 </g>
</svg>
