<?xml version="1.0" encoding="UTF-8"?>
<svg id="svg62" width="872.97pt" height="561pt" version="1.1" viewBox="0 0 872.97 561" xmlns="http://www.w3.org/2000/svg" xmlns:cc="http://creativecommons.org/ns#" xmlns:dc="http://purl.org/dc/elements/1.1/" xmlns:rdf="http://www.w3.org/1999/02/22-rdf-syntax-ns#" xmlns:xlink="http://www.w3.org/1999/xlink">
 <metadata id="metadata68">
  <rdf:RDF>
   <cc:Work rdf:about="">
    <dc:format>image/svg+xml</dc:format>
    <dc:type rdf:resource="http://purl.org/dc/dcmitype/StillImage"/>
    <dc:title/>
   </cc:Work>
  </rdf:RDF>
 </metadata>
 <defs id="defs66">
  <linearGradient id="linearGradient4585">
   <stop id="stop4581" stop-color="#0277bc" offset="0"/>
   <stop id="stop4583" stop-color="#009de0" offset="1"/>
  </linearGradient>
  <linearGradient id="linearGradient4587" x1="496.67" x2="496.67" y1="527.93" y2="73.704" gradientUnits="userSpaceOnUse" xlink:href="#linearGradient4585"/>
 </defs>
 <g id="g4579" transform="translate(-63.568 -69.054)" fill="url(#linearGradient4587)">
  <path id="path29" d="m251.54 70.74c12.74-1.6 25.91-2.99 38.49 0.42 9.44 2.25 19.01 6.89 24.22 15.45 4.87 7.41 5.99 16.85 3.82 25.37-2.58 11.18-9.02 21.12-11.02 32.46 27.98 0.13 55.97 0.18 83.95 0.2 9.99 0.17 20.03 0.44 29.95-1.01 12.8-1.35 25.61-4.01 38.53-2.87 7.41 0.78 15.6 3.48 19.5 10.33 2.39 5.21 1.37 11.55-1.66 16.29-4.93 8.66-14.2 14.26-23.9 15.84-18.64 3.04-37.6 2.72-56.42 2.71-35.06 0.24-70.07-1.85-105.07-3.59-11.2 34.45-21.62 69.2-29.41 104.61-7.3 33.7-15.34 67.5-16.99 102.07-0.84 16.68-0.06 33.55 3.8 49.86 2.86 12.21 7.24 24.55 15.72 34.04 6.48 7.26 16.35 11.4 26.09 10.46 15.73-0.97 29.5-10.13 40.9-20.38 27.52-25 47.15-57.19 64.31-89.84 9.73-18.22 18.74-36.82 29.04-54.73 10.37-17.88 23.48-34.38 39.72-47.27 29.09-23.85 70.47-31.27 106.11-19.32 16.26 5.31 31.59 13.49 45.32 23.65 5.74 4.4 11.68 9.45 13.97 16.57 2.01 8.41-2.55 17.19-9.56 21.81-8.19 5.35-18.29 7.06-27.92 6.55-12.73-0.92-25.52-3.64-36.9-9.58-4.07-2.17-8.31-4.63-13.09-4.36-7.69 0.12-14.02 5.21-19.27 10.3-11.63 12.08-22.37 25.38-29.15 40.85-13.26 29.47-16.65 62.34-16.12 94.34 0.45 10.8 2.92 22.07 9.78 30.7 6.06 7.65 15.35 12.16 24.86 13.72 18.84 3.31 38.2-1.1 55.46-8.73 16.35-7.59 30.27-19.48 42.54-32.52 11.43-12.43 21.54-26 31.04-39.94 22.96-33.14 41.05-69.72 52.91-108.28 3.06-10.1 5.12-21.26 12.68-29.15 7.13-7.03 17.78-7.78 27.24-8.14 13.39-0.02 26.92-0.34 40.12 2.26 5.55 1.23 11.21 2.83 15.9 6.17 4.23 3.09 6.71 8.61 5.64 13.81-0.74 6.17-5.29 10.75-7.67 16.27-9.67 20.89-18.06 42.35-26.12 63.9-9.82 25.47-16.9 52.47-16.49 79.94 0.24 10.58 1.54 21.86 7.89 30.7 5.9 8.37 17.18 11.48 26.92 9.58 9.95-2.72 17.65-10.2 24.5-17.55 12.26-13.24 20.79-29.25 30.97-44.03 10.38-15.36 21.3-30.45 33.75-44.22 8.56-9.13 17.57-18.35 29.04-23.76 5.79-2.81 12.89-3.77 18.83-0.83 8.53 4.08 15.59 12.43 16.17 22.14 0.02 5.34-2.16 10.33-4.27 15.13-6.87 15.1-16.2 28.9-25.45 42.62-10.17 14.68-20.8 29.06-32.21 42.81-7.51 9.14-15.99 17.56-25.75 24.29-18.28 13.04-40.5 20.02-62.84 21.15-10.62 0.84-21.28 0.08-31.86-0.82-20.49-2.19-41.71-7.8-57.42-21.83-11.28-9.78-18.01-23.78-21.11-38.19-13.62 13.65-28.15 26.56-44.56 36.78-18.05 11.44-38.06 20.08-59.14 23.92-14.08 3.05-28.54 2.83-42.85 2.57-23.03-1.1-46.31-4.07-67.92-12.49-16-6.18-30.94-15.77-41.92-29.08-6.47-7.68-11.31-16.6-14.97-25.92-8.85 7.84-17.15 16.35-26.64 23.47-17.2 13.5-36.56 24.62-57.65 30.72-21.68 6.33-44.87 6.21-66.9 1.75-20.05-4.11-39.06-13.77-53.54-28.33-23.95-24.57-37.03-59.2-35.57-93.46 1.73-37.56 10.46-74.27 17.82-111 7.15-35.27 14.49-70.5 21.82-105.74-5.82-0.63-11.68-0.52-17.51-0.2-18.33 0.24-36.66 0.32-54.99 0.7-13.64-0.14-27.35 1.53-40.93-0.33-7.34-0.97-15.39-2.41-20.87-7.81-5.5-5.52-4.18-14.63-0.15-20.57 5.38-4.54 12.83-5.16 19.49-6.48 30.28-4.01 60.91-3.45 91.39-3.58 10.81-0.16 21.65 0.42 32.44-0.52 1.72-11.11 5.04-21.89 8.25-32.64 2.93-8.9 5.78-17.87 9.92-26.3 1.76-3.36 3.68-6.99 7.15-8.87 4.86-2.75 10.32-4.24 15.82-5.02z"/>
  <path id="path31" d="m772.52 116.73c12.77-1.34 26.07-0.14 38.14 4.44 9.78 3.69 18.28 11.2 21.96 21.12 4.15 10.73 3.96 22.64 2.01 33.83-1.86 10.04-7.18 19.98-16.19 25.29-10.83 6.71-24.18 7.14-36.5 5.98-16.05-1.61-31.34-9.25-42.48-20.87-8.09-8.89-14.03-21.06-11.78-33.33 1.78-9.47 8.83-16.65 15.79-22.78 8.33-6.86 18.31-12 29.05-13.68z"/>
 </g>
 <g id="g4575" transform="translate(-63.568 -69.054)" fill="#0b74b6">
  <path id="path33" d="m200.22 567.42c3.71-0.12 8.2-0.73 10.9 2.48 3.05 3.66 2.3 8.85 1.48 13.19-1.69 7.59-5.01 14.78-9.36 21.21-2.1 3.27-5.28 5.62-7.57 8.73-0.41 5.25 3.07 10.74 8.28 12.04 2.48-0.61 3.95-2.87 5.25-4.87 2.4-4.04 4.47-8.29 6.23-12.64 1.39-3.5 2.08-7.55 4.94-10.22 3.28-3.05 8.51-1.92 11.79 0.52 2.2 1.51 1.7 4.4 1.21 6.64-1.75 6.92-6.66 12.34-11.06 17.73 1.94 1.8 4.29 4.65 7.26 3.21 4.19-2.88 6.41-7.73 8.66-12.13 1.85-4.05 4.04-8.02 4.76-12.46 2.63 0.17 7.08-0.48 7.45 3.17-0.38 6.3-3.02 13.71 1.28 19.25 5.59-7.95 9.24-17.99 6.45-27.7 2-0.44 4.59-0.62 5.59 1.66 2.35 4.72 0.77 10.24-0.64 15.02-1.55 4.66-3.08 9.63-6.64 13.2-2.49 2.55-6.85 3.05-9.71 0.82-2.51-2.03-3.2-5.36-4.25-8.25-3.15 5.36-7.66 11.34-14.53 11.35-5.7 0.53-11.03-2.99-12.97-8.32-3.25 4-7.11 9.39-13.02 8.43-5.78-0.23-9.41-5.05-12.01-9.61-2.63 2.77-4.6 6.34-8.17 8.05-6.66 3.52-15.96 0.63-18.51-6.73-2.01 2.06-3.88 4.41-6.51 5.72-3.38 1.75-7.79 0.41-9.95-2.62-2.68-3.79-3.55-8.64-3.08-13.19 0.79-7.69 2.33-15.28 3.05-22.97-3.95-0.13-7.91 0.04-11.86 0.16-1.72 0.18-3.43-1.47-2.9-3.21 4.92-1.97 10.37-0.27 15.4-1.56 1.14-3.23 0.85-6.8 2.24-9.94 0.72-2.39 4.92-2.43 5.76-0.06 1.04 3.19 0.47 6.63 0.58 9.94 6.97 0.66 13.97 0.55 20.95 0.76 1.69 0.05 2.34 2.08 1.79 3.47-1.46 0.84-3.18 0.76-4.8 0.82-6.56 0.05-13.11-0.07-19.66-0.18-2.45 9.96-4.17 20.31-2.81 30.58 0.26 1.65 0.8 3.55 2.48 4.31 3.41-1.19 5.11-4.62 6.68-7.6 2.19-4.19 3.37-8.78 4.85-13.25 1.09-3.35 3.7-6.76 7.52-6.88 3.12 0.09 6.69 1.06 8.6 3.72 1.12 3.54-0.55 7.25-1.99 10.47-2.12 4.65-5.87 8.2-8.71 12.36 1.09 2.86 5.19 5.06 7.8 2.76 2.99-2.48 4.77-6.04 6.63-9.37 1.47-3.01 3.39-5.98 3.66-9.4 0.59-6.33 1.33-12.68 3.12-18.8 1.37-5.34 3.97-10.23 5.61-15.48 0.48-1.62 1.5-2.98 2.46-4.33m5.55 7.1c-4.24 9.12-8.19 18.59-9.49 28.64 3.87-6.07 7.45-12.44 9.46-19.38 0.93-3.02 0.87-6.23 0.03-9.26m-35.46 40.87c3.24-4.61 5.61-10.09 5.43-15.82-3.31 4.6-4.9 10.23-5.43 15.82m51.76 0.19c2.93-4.8 5.78-10.12 5.38-15.92-3.32 4.61-4.9 10.31-5.38 15.92z"/>
  <path id="path35" d="m867.31 570.23c0.94-3.41 5.03-3.13 7.8-2.79 3.86 0.22 6.95 3.72 7.02 7.54 0.61 9.83-3.77 19.16-8.65 27.43-2.25 4.12-6 7.03-8.86 10.65-0.35 5.27 3.23 10.64 8.39 12.02 2.55-0.45 3.95-2.88 5.23-4.88 3.25-5.67 7.02-11.49 6.97-18.28-0.27-4.8 5.95-3.46 8.98-3-1.4 8.05-5.87 16.07-3.59 24.38 0.59 0.2 1.76 0.61 2.35 0.81 6.42-6.77 6.42-17 11.71-24.48 3.31-6.29 13.33-3.77 15.85 2 3.53 6.64-0.91 14.12 0.96 21.03 0.37 1.61 2.12 2.08 3.53 1.39 3.25-3.08 4.14-7.75 6.87-11.19 1.07-1.37 2.72-1.76 4.24-0.78 1.21 2.26-0.4 4.59-1.43 6.57-2.27 3.67-4.54 7.95-8.77 9.62-3.63 1.07-7.07-1.21-9.51-3.66-2.64 3.02-6.13 6.18-10.5 5.28-3.04 0.04-4.86-2.54-6.53-4.66-2.9 2.18-6.56 4.22-10.23 2.68-3.29-0.57-4.31-3.99-5.45-6.62-2.4 3.11-4.87 6.68-8.79 7.93-3.66 0.83-7.72-0.01-10.63-2.41-2.3-1.7-3.46-4.38-4.97-6.7-2.83 1.65-3.78 5.68-6.88 7.27-3.8 2.7-8.36-0.06-11.28-2.75-2.72 3.5-6.99 6.44-11.62 5.08-3.02-0.38-4.36-3.32-5.77-5.6-2.86 1.88-6.05 4.47-9.7 3.28-3.93-0.77-5.29-4.77-7.41-7.59-1.87 2.91-3.23 6.69-6.77 7.97-4.52 2.05-10.62-0.68-11.14-5.86-0.88-7.63 1.47-15.19 1.57-22.82 2.61-0.51 6.61-1.88 8.23 0.94-1.43 7.24-5.14 14.43-3.68 21.97 0.04 1.64 2.45 2.95 3.52 1.36 3.02-3.96 4.52-8.83 6.72-13.25 3.22-6.73 3.12-14.36 4.37-21.57-3.01-0.81-8.83 0.44-8.47-4.21 3.11-0.43 6.25-0.55 9.39-0.75 0.41-2.7 0.36-5.54 1.48-8.06 4.77-1 6.35 4.34 6.71 7.97 3.53 1.27 7.71 0.06 11.23 1.63 1.08 0.58 1.47 1.52 1.14 2.81-4.48 1.65-9.33 0.09-13.97 0.37-2.72 10.25-3.95 20.96-2.69 31.53 0.39 1.5 1.44 4.16 3.46 3 6.5-4.44 6.1-13.1 9.59-19.45 1.75-3.35 4.07-8.14 8.65-7.37 5.18-0.38 9.1 3.72 11.24 7.98 1.93 5.35-1.73 10.64-1.3 16.07 0.04 1.58 0.23 4.17 2.32 4.28 1.71 0.2 2.57-1.61 3.47-2.74 2.46-3.97 4.5-8.26 5.97-12.7 0.87-6.27 1.02-12.67 2.71-18.82 1.51-6.88 4.76-13.18 6.92-19.85m5.74 7.8c-3.33 8.1-6.68 16.33-7.78 25.1 5.07-8.54 11.5-17.92 9.75-28.34-0.83 0.96-1.48 2.07-1.97 3.24m-36.45 23.64c-4.6 6.34-7.35 14.47-6.49 22.35-0.13 2.06 2.81 2.51 3.57 0.74 3.85-5.23 6.05-11.53 7.57-17.79 0.71-2.54-1.66-7.22-4.65-5.3m73.46 2.33c-3.3 6.3-5.92 13.52-4.59 20.72 0.21 1.31 2.09 1.6 2.85 0.63 2.8-3.18 4.4-7.19 6.02-11.04 1.77-4.51 2.97-10.09-0.19-14.28-1.53 1.13-3.24 2.19-4.09 3.97z"/>
  <path id="path37" d="m543.73 583.9c0.51-2.91-0.63-7 2.26-8.87 2.57-0.2 5.09 0.81 7.24 2.16 0.72 2.2-0.65 4.52-1.04 6.72 2.84 0.32 8.38-1.52 8.12 3.04-2.6 2.49-6.76 1.09-10.02 1.4-2.35 10.4-4.47 21.25-2.47 31.88 0.31 2.6 3.26 3.48 4.86 1.34 5.25-6.24 8.07-14.33 8.64-22.41 2.67-1.35 5.81-0.97 8.37 0.46-2.23 6.93-4.92 14.07-4.36 21.46-0.09 1.63 1.63 4.05 3.33 2.52 6.92-7.7 6.01-19.91 13.97-26.92 6.14-2.38 13.51 2.08 15.26 8.24 1.08 6.25-3.62 12.72-0.59 18.75 1.22 1.99 3.25 0.14 4.17-1.09 4.13-5.86 6.32-12.79 8.91-19.41 0.88-3.25 5.1-2.97 7.71-2.35 2.03 1.55 0.15 4.07-0.14 6.01-1 4.95-0.63 10.08-0.4 15.1 3.06-6.46 7.02-12.68 8.26-19.84 0.46-2.16 0.71-5.07 3.12-6 2.58 0.07 6.43-0.07 7.46 2.94 0.39 7.82-3.56 15.73-0.87 23.46 0.46 1.91 2.9 1.09 3.74-0.09 6.36-7.09 5.88-17.81 12.4-24.79 1.83-2.11 4.91-1.71 7.36-1.21 4.53 0.86 8.18 4.9 8.8 9.44 0.18 5.71-2.54 11.44-0.81 17.09 0.4 1.61 2.64 2.25 3.61 0.68 5.19-5.88 6.77-13.87 10.32-20.67 0.9-2.43 5.7-1.79 5.02 1.08-0.96 4.74-3.34 9.05-5.4 13.38-2.16 3.98-4.42 8.5-8.67 10.58-3.78 1.73-7.5-0.92-10.21-3.35-2.48 2.83-5.55 5.82-9.66 5.34-3.72 0.2-6.26-2.79-7.69-5.85-1.72 1.5-3.31 3.26-5.44 4.17-3.21 0.84-6.81-0.89-8.3-3.82-1.81-3.57-1.99-7.65-2.83-11.49-1.99 4.05-3.37 8.36-5.37 12.4-1.67 3.24-6.39 3.35-9.15 1.55-2.82-2.13-2.11-6.09-2.78-9.16-2.47 3.66-4.46 8.15-8.63 10.19-3.73 1.7-7.53-0.88-10.2-3.32-2.57 2.67-5.56 5.83-9.64 5.35-3.41 0.22-5.85-2.31-7.36-5.06-2.59 2.34-6.07 4.4-9.66 3.14-3.28-0.43-4.63-3.63-6.02-6.16-2.05 1.67-3.76 3.81-6.16 5.01-3.24 1.52-7.47 0.57-9.64-2.3-2.89-3.64-3.72-8.56-3.37-13.09 0.72-7.84 2.34-15.57 3.02-23.42-2.91-0.06-5.85 0.39-8.73-0.04-1.95-0.08-2.2-2.15-2.91-3.52 4.15-0.67 8.37-0.56 12.57-0.65m36.81 40.16c-0.06 1.87 2.55 2.58 3.41 0.91 4.24-5.74 7.09-12.78 7.28-19.97 0.09-2.25-1.7-3.7-3.24-4.97-4.94 6.9-8.39 15.42-7.45 24.03m75.14-20.4c-3.42 6.19-5.87 13.24-5 20.41-0.13 1.8 2.34 2.52 3.27 1.02 2.57-3.1 4.19-6.89 5.65-10.62 1.38-4.53 2.67-10.06-0.72-14.04-1.16 0.96-2.46 1.86-3.2 3.23z"/>
  <path id="path39" d="m272.32 580.04c1.32-4.04 7.05-5.09 10.11-2.45 1.79 1.62 0.61 4.04 0.19 5.97-3.7 1.34-8.89 0.76-10.3-3.52z"/>
  <path id="path41" d="m313.44 576.62c3.06-1.5 8.69 0.12 7.86 4.3-0.92 5.2-8.77 3.87-10.79 0.06-0.78-2.16 1.28-3.52 2.93-4.36z"/>
  <path id="path43" d="m507.44 576.49c1.8-0.72 3.87-0.28 5.61 0.43 2.45 1.24 2.34 4.78 0.56 6.56-3.32 1.96-8.62 0.49-9.78-3.4 0.37-1.81 2-2.97 3.61-3.59z"/>
  <path id="path45" d="m565.41 576.48c3.07-1.31 8.42 0.4 7.54 4.52-0.91 4.86-8.23 3.88-10.33 0.4-1.92-2.07 1.05-4.13 2.79-4.92z"/>
  <path id="path47" d="m713.16 576.17c2.86-0.59 7.11 1.39 6.11 4.85-0.73 4.8-7.87 3.79-10.17 0.71-2.22-2.69 1.57-5.26 4.06-5.56z"/>
  <path id="path49" d="m794.42 576.65c2.25-0.86 5.15-0.76 6.99 0.95 1.52 1.64 0.94 4.02-0.07 5.78-3.35 2.14-8.9 0.64-10.01-3.37 0.32-1.61 1.6-2.8 3.09-3.36z"/>
  <path id="path51" d="m891.19 576.29c2.04-0.33 4.57-0.11 5.99 1.61 0.86 1.71 0.72 4.12-0.65 5.55-3.12 1.72-7.71 0.76-9.48-2.44-0.81-2.64 1.99-4.23 4.14-4.72z"/>
  <path id="path53" d="m472.19 591.13c1.04-3.23 6.17-3.64 8.02-1.03 0.7 2.4 0.2 4.93 0.18 7.4 3.7 1.59 8.13 2.32 10.83 5.57 1.3 6.65-2.38 13.18-1.4 19.84-0.12 1.86 2.86 2.21 3.65 0.7 3.13-4.17 5.25-8.99 7.55-13.63 1.71-3.36 1.28-7.24 2.2-10.8 2.62-1.3 5.74-0.88 8.28 0.4-2.11 7.44-5.63 15.2-3.92 23.04 0.81 2.59 3.47 1.19 4.31-0.61 3.93-7.19 7.63-14.77 8.47-23.03 0.26-1.8 0.22-4.6 2.61-4.87 2.15-0.21 5.19-0.78 6.67 1.23 0.44 2.2-0.81 4.42-0.69 6.68 0.61 7.58 7.39 13.95 5.45 21.84-0.75 4.23-5.5 6.13-9.38 5.72-3.49 0.2-6.43-1.82-8.98-3.92-2.83 1.96-6.39 3.78-9.85 2.23-3.09-0.73-4.37-3.77-5.23-6.49-2.21 2.76-4.25 6.44-8.03 7.11-3.4-0.01-7.3-1.39-8.96-4.55-2.02-6.5-0.01-13.3-0.61-19.91-1.17-0.89-2.5-1.5-3.79-2.14-2.39 6.09-4.35 12.4-7.55 18.14-2.38 4.04-5.97 8.19-10.99 8.5-4.38 0.52-9.32-1.41-11.13-5.65-2.35-5.53-1.36-11.82 0.52-17.34 1.34-3.6 3.21-7.45 6.77-9.32 4.07-1.96 8.88 1.04 10.59 4.83-0.02 4.51-5.68 3.05-8.39 2.24-3.88 5.15-4.44 12.01-3.78 18.22 0.37 2.91 3.93 3.91 6.2 2.4 3.85-2.35 5.79-6.69 7.67-10.6 1.78-4.36 3.71-8.74 4.49-13.4-0.62-2.92-2.83-5.71-1.78-8.8m51.91 18.6c-1.81 3.4-3.69 6.81-4.9 10.48 0.07 2.49 1.71 6 4.71 5.7 2.98 0 4.21-3.46 3.85-5.97-0.52-3.56-1.36-7.37-3.66-10.21z"/>
  <path id="path55" d="m289.2 596.88c0.46-4.5 6.35-2.8 9.29-2.15-0.36 3.42-1.75 6.92-0.43 10.31 1.88 6.96 8.17 14.38 3.62 21.59-4.44 4.8-12.83 3.5-17.05-1.04-2.78 1.98-6.22 3.7-9.68 2.41-4.01-0.83-5.51-5.39-5.41-9.01 0.26-6.66 1.52-13.23 1.89-19.88 2.68-0.46 6.35-1.71 8.32 0.9-1.71 7.21-5.14 14.47-3.77 22.04 0.1 2.19 2.93 2.69 3.86 0.77 4.72-7.93 8.57-16.64 9.36-25.94m3.23 13.23c-2.01 3.5-3.5 7.27-5.34 10.86 1.04 1.53 1.86 3.28 3.29 4.52 2.14 1.12 5.23 0 5.63-2.53 1.08-4.37-1.07-8.71-2.64-12.69-0.24-0.04-0.71-0.12-0.94-0.16z"/>
  <path id="path57" d="m328.08 599.83c0.94-2.33 2.06-5.24 4.93-5.6 5.47-0.82 11.51 1.46 15.08 5.69 1.93 4.11 1.2 8.85 1.74 13.26 3.24 0.06 7.13-0.62 8.3-4.14 1.81-2.9 1.5-8.29 5.88-8.56 1.75-0.03 5.43-0.31 5.07 2.4-2.27 6.09-1.83 12.68-1.49 19.05 3.29-6.77 7.36-13.4 8.46-20.98 0.24-2.2 1.32-4.97 3.93-5.04 2.34 0.05 5.9 0.28 6.49 3.13 0.41 8.15-4.3 16.9-0.17 24.66 2.84 0.03 4.2-2.81 5.49-4.88 2.71-5.02 5.17-10.22 6.67-15.74 1.13-3.79 4.1-7.97 8.54-7.57 3.29 0.33 7.8 1.61 8.32 5.47-0.51 8.44-6.32 15.17-11.66 21.23 2.05 2.05 5.26 5.2 8.18 2.68 6.52-5.88 8.58-14.86 12.97-22.15 0.86-2.41 5.4-1.27 4.38 1.29-2.42 7.34-4.9 15.09-10.24 20.89-4.42 4.95-12.51 5.91-17.98 2.22-2.25-1.43-3.34-3.94-4.62-6.15-2.37 2.89-4.51 6.63-8.43 7.53-2.98 0.17-5.9-1.54-7.29-4.16-1.88-3.48-1.99-7.53-2.78-11.33-2 3.81-3.36 7.91-5.18 11.8-1.72 4.99-10.51 4.1-11.38-1.01-0.46-2.97-0.55-5.97-0.82-8.95-3.56 1.93-7.58 3.01-11.61 2.11-1.72 4.61-4.1 9.99-9.16 11.66-3.34 0.8-7.14 0.56-10.11-1.29-2.36-1.5-3.32-4.26-4.35-6.7-1.73 2.66-3.21 5.94-6.38 7.14-3.79 1.59-9.11 0.14-10.64-3.92-1.45-4.53-0.49-9.35 0.01-13.95 0.55-3.52 0.57-7.12 1.24-10.61 2.6-1.63 5.82-1.04 8.43 0.24-1.99 7.26-5.35 14.72-4.07 22.39 0.16 2.17 2.94 2.87 3.93 0.87 4.38-7.19 7.24-15.18 10.32-22.98m8.4 0.62c-2.63 5.43-4.16 11.5-4.18 17.55-0.01 2.85 1.03 7.13 4.66 6.94 2.59-2.39 4.64-5.56 5.5-8.99-0.11-3.13-1.53-6-1.95-9.07-0.27-2.47 0.04-4.95 0.14-7.41-1.46 0.07-3.63-1.01-4.17 0.98m66.9 15.45c3.03-4.95 5.93-10.43 5.5-16.43-3.3 4.85-4.81 10.67-5.5 16.43z"/>
  <path id="path59" d="m743.17 596.21c2.88-0.24 7.57-0.25 7.76 3.65 0.28 8.02-3.47 16.18-0.34 24.07 1.49-0.43 3.17-0.85 4.01-2.32 3.94-5.54 6.06-12.07 8.97-18.14 0.87-2.1 4.1-2.9 5.22-0.49-0.31 4.2-2.57 7.91-4.31 11.65-2.45 4.59-4.95 9.43-9.14 12.67-3.22 2.63-8.21 0.54-10.04-2.79-1.93-3.56-2.11-7.72-2.81-11.62-1.98 3.94-3.32 8.16-5.27 12.11-1.74 4.19-8.46 4-10.72 0.48-0.94-2.74-0.99-5.68-1.41-8.52-1.63 2.77-2.92 5.76-4.83 8.36-3.02 3.94-9.8 4.26-12.94 0.31-2.24-3.02-1.93-7.02-1.64-10.55 0.61-5.3 1.34-10.59 1.6-15.92 2.65-0.77 6.31-1.69 8.31 0.77-1.43 7.25-5.2 14.48-3.71 22.03 0.1 2.24 2.93 2.78 3.94 0.84 3.87-6.17 6.22-13.15 9.19-19.77 1.65-3.69 6.37-2.73 9.34-1.41-3.08 6.22-2.5 13.28-2.13 19.99 3.49-6.51 7.22-13.14 8.43-20.53 0.44-1.75 0.71-3.98 2.52-4.87z"/>
 </g>
</svg>
