<svg width="164.03pt" height="158.02pt" version="1.1" viewBox="0 0 164.03 158.02" xmlns="http://www.w3.org/2000/svg" xmlns:xlink="http://www.w3.org/1999/xlink">
 <defs>
  <linearGradient id="a">
   <stop stop-color="#1a63a7" offset="0"/>
   <stop stop-color="#2f73b0" offset="1"/>
  </linearGradient>
  <linearGradient id="c" x1="79.66" x2="92.189" y1="116.26" y2="87.413" gradientTransform="translate(-27.97,-21.99)" gradientUnits="userSpaceOnUse" xlink:href="#a"/>
  <linearGradient id="b" x1="92.065" x2="102.88" y1="72.151" y2="47.773" gradientTransform="translate(-27.97,-21.99)" gradientUnits="userSpaceOnUse" xlink:href="#a"/>
 </defs>
 <path d="m62.02 4.64c1.97-1.39 3.48-3.35 5.54-4.64-0.61 2.21-1.25 4.42-1.86 6.64 11.25 6.24 16.15 20.23 14.39 32.56 3.01-4.7 6.48-9.09 9.43-13.83 24.8-3.29 49.64-6.35 74.47-9.35 0.62 11.71-5.25 24.89-16.88 29-12.01 1.82-24.87 1.28-35.91 7.07-7.96 4.05-12.94 11.96-16.44 19.89-16.54-8.46-32.99-17.1-49.58-25.48 2.49-6.54 5.29-12.96 7.87-19.47 0.68-1.59 0.94-3.31 1.07-5.03-6.04-1.53-12.17-2.57-18.26-3.82-0.48-1.59-0.96-3.18-1.47-4.76 9.15-3.12 18.47-5.72 27.63-8.78z" fill="url(#b)"/>
 <path d="m108.87 62.84c8.1-8.71 20.94-10.63 32.23-9.01-9.07 22.78-18.74 45.31-27.93 68.04-18.15-9.61-36.44-18.96-54.57-28.6-2.64 5.19-3.97 11.1-7.77 15.66-7.6 10.37-21.67 13.84-33.92 12.19 0.84-3.09 2.08-6.04 3.25-9.01 7.58-19.65 15.14-39.31 22.72-58.96 18.7 9.46 37.22 19.26 55.95 28.67 2.33-6.79 4.74-13.86 10.04-18.98z" fill="url(#c)"/>
 <path d="m0 139.76 0.78-3.925h34.8l-0.83 3.925h-11.87l-0.81 4.515h10.91l-0.67 4.04h-11.26l-1.03 5.47h12.37l-0.87 3.95h-17.55l3.89-17.975h-6.09l-4.01 17.975h-4.99l3.88-17.975z" fill="#236aa8"/>
 <path d="m37.83 135.83h5.04l-3.75 17.95h11.03l3.82-17.95h16.97l-1.04 3.925h-11.87l-0.71 4.515h11l-0.91 4.04h-11.06l-1.15 5.47h12.44l-0.91 3.95h-33.51z" fill="#236aa8"/>
 <path d="m73.17 135.83h4.85l5.47 13.54 2.9-13.54h4.68l-4.45 21.9h-4.84l-5.43-13.75-3.05 13.75h-4.84z" fill="#236aa8"/>
 <path d="m97.34 136.55c4.34-1.86 10.52-1.48 13.24 2.86 3.17 5.34 0.81 12.61-3.87 16.28-4.6 3.3-12.36 3.45-15.52-1.9-2.9-6.03 0.01-14.44 6.15-17.24m2.09 3.96c-3.27 1.81-4.81 5.95-4.31 9.54 0.37 2.62 3.26 4.25 5.75 3.66 4.09-1.11 6.54-5.78 6.12-9.82-0.2-3.54-4.76-5.32-7.56-3.38z" fill="#236aa8"/>
 <path d="m112.37 135.83h4.96l2.92 15.43 8.44-15.43h5.02l-11.83 21.9h-5.77z" fill="#236aa8"/>
 <path d="m140.17 135.83h5.86l3.03 21.9h-4.75l-0.59-4.72h-8.56l-2.59 4.72h-5.3l12.9-21.9m-2.69 13.215h5.68l-1.13-7.805z" fill="#236aa8"/>
</svg>
