<svg id="a" width="302.58pt" height="252.51pt" version="1.1" viewBox="0 0 302.58 252.51" xmlns="http://www.w3.org/2000/svg">
 <path id="b" d="m171.64 0 15.182 44.519-42.792 115.41h-17.64l-6.6336-25.545z"/>
 <path id="c" d="m110.12 159.93 5.62-15.87 0.45 15.87z"/>
 <path id="d" d="m111.47 164.6h81.96l12.73 32.245h-81.46z"/>
 <g id="e" transform="translate(-49.71 -71.67)" fill="#039d56">
  <path id="f" d="m129.01 108.11 20.23 32.395h-32.89z"/>
  <path id="g" d="m250.27 143.4h24.816l16.9 27.095h-26.11z"/>
  <path id="h" d="m118.44 146.57h35.18l18.35 28.985h-36.16z"/>
  <path id="i" d="m242.97 147.91 16.62 25.97-5.12 14.255h-26.52z"/>
  <path id="j" d="m112.76 151.99 16.4 27.055-4.9002 17.565-29.1-2.4e-4z"/>
  <path id="k" d="m225.6 195.66c16.48-0.16 32.95 0.12 49.43 0 5.72 9.36 11.93 18.39 17.39 27.91-16.92 0.11-33.83 0.04-50.74 0-5.11-9.43-11.06-18.42-16.08-27.91z"/>
  <path id="l" d="m95.16 203.42h34.717l18.073 28.019-36.25 0.13024z"/>
 </g>
 <g id="m" transform="matrix(1.1933 0 0 1.2598 40.277 -343.23)" stroke-width="1px" aria-label="telecampione">
  <path id="n" d="m-21.975 444.24v4.375h-3.75v8.3594c0 1.6927 0.03255 2.6823 0.09766 2.9688 0.07813 0.27344 0.24088 0.50131 0.48828 0.6836 0.26042 0.18229 0.57292 0.27343 0.9375 0.27343 0.50781 0 1.2435-0.17578 2.207-0.52734l0.46875 4.2578c-1.276 0.54688-2.7214 0.82032-4.3359 0.82032-0.98958 0-1.8815-0.16276-2.6758-0.48829-0.79427-0.33854-1.3802-0.76823-1.7578-1.2891-0.36458-0.53385-0.61849-1.25-0.76172-2.1484-0.11719-0.63802-0.17578-1.9271-0.17578-3.8672v-9.043h-2.5195v-4.375h2.5195v-6.0063h5.5078v6.0063z"/>
  <path id="o" d="m-6.1152 458.38 5.4688 0.91797q-1.0547 3.0078-3.3398 4.5898-2.2656 1.5625-5.6836 1.5625-5.4102 0-8.0078-3.5352-2.0508-2.832-2.0508-7.1484 0-5.1562 2.6953-8.0664 2.6953-2.9297 6.8164-2.9297 4.6289 0 7.3047 3.0664 2.6758 3.0469 2.5586 9.3555h-13.75q0.05859 2.4414 1.3281 3.8086 1.2695 1.3476 3.1641 1.3476 1.2891 0 2.168-0.70312 0.87891-0.70313 1.3281-2.2656zm0.3125-5.5469q-0.058594-2.3828-1.2305-3.6133-1.1719-1.25-2.8516-1.25-1.7969 0-2.9688 1.3086t-1.1523 3.5547z"/>
  <path id="p" d="m4.1387 464.98v-28.633h5.4883v28.633z"/>
  <path id="q" d="m27.244 458.38 5.4688 0.91797q-1.0547 3.0078-3.3398 4.5898-2.2656 1.5625-5.6836 1.5625-5.4102 0-8.0078-3.5352-2.0508-2.832-2.0508-7.1484 0-5.1562 2.6953-8.0664 2.6953-2.9297 6.8164-2.9297 4.6289 0 7.3047 3.0664 2.6758 3.0469 2.5586 9.3555h-13.75q0.05859 2.4414 1.3281 3.8086 1.2695 1.3476 3.1641 1.3476 1.2891 0 2.168-0.70312 0.87891-0.70313 1.3281-2.2656zm0.3125-5.5469q-0.05859-2.3828-1.2305-3.6133-1.1719-1.25-2.8516-1.25-1.7969 0-2.9688 1.3086t-1.1523 3.5547z"/>
  <path id="r" d="m55.584 450.37-5.4102 0.97656q-0.27344-1.6211-1.25-2.4414-0.95703-0.82032-2.5-0.82032-2.0508 0-3.2812 1.4258-1.2109 1.4062-1.2109 4.7266 0 3.6914 1.2305 5.2148 1.25 1.5234 3.3398 1.5234 1.5625 0 2.5586-0.87891 0.99609-0.89843 1.4062-3.0664l5.3906 0.91797q-0.83984 3.7109-3.2227 5.6055-2.3828 1.8945-6.3867 1.8945-4.5508 0-7.2656-2.8711-2.6953-2.8711-2.6953-7.9492 0-5.1367 2.7148-7.9883 2.7148-2.8711 7.3438-2.8711 3.7891 0 6.0156 1.6406 2.2461 1.6211 3.2227 4.9609z"/>
  <path id="s" d="m63.865 450.57-4.9805-0.89843q0.83984-3.0078 2.8906-4.4531 2.0508-1.4453 6.0938-1.4453 3.6719 0 5.4688 0.8789 1.7969 0.85938 2.5195 2.207 0.74219 1.3281 0.74219 4.9023l-0.05859 6.4062q0 2.7344 0.25391 4.043 0.27344 1.2891 0.99609 2.7734h-5.4297q-0.21484-0.54688-0.52734-1.6211-0.13672-0.48828-0.19531-0.64453-1.4062 1.3672-3.0078 2.0508t-3.418 0.6836q-3.2031 0-5.0586-1.7383-1.8359-1.7383-1.8359-4.3945 0-1.7578 0.83984-3.125 0.83984-1.3867 2.3438-2.1094 1.5234-0.74219 4.375-1.2891 3.8477-0.72266 5.332-1.3477v-0.54688q0-1.582-0.78125-2.2461-0.78125-0.68359-2.9492-0.68359-1.4648 0-2.2852 0.58593-0.82031 0.56641-1.3281 2.0117zm7.3438 4.4531q-1.0547 0.35156-3.3398 0.83984-2.2852 0.48828-2.9883 0.95703-1.0742 0.76172-1.0742 1.9336 0 1.1523 0.85938 1.9922 0.85938 0.83985 2.1875 0.83985 1.4844 0 2.832-0.97656 0.99609-0.74219 1.3086-1.8164 0.21484-0.70313 0.21484-2.6758z"/>
  <path id="t" d="m81.619 444.24h5.0586v2.832q2.7148-3.3008 6.4648-3.3008 1.9922 0 3.457 0.82031t2.4023 2.4805q1.3672-1.6602 2.9492-2.4805t3.3789-0.82031q2.2852 0 3.8672 0.9375 1.582 0.91797 2.3633 2.7148 0.5664 1.3281 0.5664 4.2969v13.262h-5.4883v-11.855q0-3.0859-0.5664-3.9844-0.76172-1.1719-2.3438-1.1719-1.1524 0-2.168 0.70312-1.0156 0.70313-1.4648 2.0703-0.44922 1.3477-0.44922 4.2774v9.9609h-5.4883v-11.367q0-3.0274-0.29297-3.9062-0.29297-0.87891-0.91797-1.3086-0.60547-0.42968-1.6602-0.42968-1.2695 0-2.2852 0.68359t-1.4648 1.9727q-0.42969 1.2891-0.42969 4.2773v10.078h-5.4883z"/>
  <path id="u" d="m117.42 444.24h5.1172v3.0469q0.99609-1.5625 2.6953-2.5391t3.7695-0.97656q3.6133 0 6.1328 2.832t2.5195 7.8906q0 5.1953-2.5391 8.0859-2.5391 2.8711-6.1523 2.8711-1.7188 0-3.125-0.6836-1.3867-0.68359-2.9297-2.3438v10.449h-5.4883zm5.4297 10.02q0 3.4961 1.3867 5.1758 1.3867 1.6602 3.3789 1.6602 1.9141 0 3.1836-1.5234 1.2695-1.543 1.2695-5.0391 0-3.2617-1.3086-4.8438-1.3086-1.582-3.2422-1.582-2.0117 0-3.3398 1.5625-1.3281 1.543-1.3281 4.5898z"/>
  <path id="v" d="m142.03 441.42v-5.0781h5.4883v5.0781zm0 23.555v-20.742h5.4883v20.742z"/>
  <path id="w" d="m151.85 454.32q0-2.7344 1.3476-5.293 1.3477-2.5586 3.8086-3.9062 2.4805-1.3476 5.5273-1.3476 4.707 0 7.7148 3.0664 3.0078 3.0469 3.0078 7.7148 0 4.707-3.0469 7.8125-3.0273 3.0859-7.6367 3.0859-2.8516 0-5.4492-1.2891-2.5781-1.2891-3.9258-3.7695-1.3476-2.5-1.3476-6.0742zm5.625 0.29297q0 3.0859 1.4648 4.7266 1.4648 1.6406 3.6133 1.6406t3.5938-1.6406q1.4648-1.6406 1.4648-4.7656 0-3.0469-1.4648-4.6875-1.4453-1.6406-3.5938-1.6406t-3.6133 1.6406q-1.4648 1.6406-1.4648 4.7266z"/>
  <path id="x" d="m196.44 464.98h-5.4883v-10.586q0-3.3594-0.35156-4.3359-0.35157-0.99609-1.1524-1.543-0.78125-0.54687-1.8945-0.54687-1.4258 0-2.5586 0.78125t-1.5625 2.0703q-0.41016 1.2891-0.41016 4.7656v9.3945h-5.4883v-20.742h5.0977v3.0469q2.7148-3.5156 6.8359-3.5156 1.8164 0 3.3203 0.66406 1.5039 0.64453 2.2656 1.6602 0.78125 1.0156 1.0742 2.3047 0.3125 1.2891 0.3125 3.6914z"/>
  <path id="y" d="m214.04 458.38 5.4688 0.91797q-1.0547 3.0078-3.3398 4.5898-2.2656 1.5625-5.6836 1.5625-5.4102 0-8.0078-3.5352-2.0508-2.832-2.0508-7.1484 0-5.1562 2.6953-8.0664 2.6953-2.9297 6.8164-2.9297 4.6289 0 7.3047 3.0664 2.6758 3.0469 2.5586 9.3555h-13.75q0.0586 2.4414 1.3281 3.8086 1.2695 1.3476 3.1641 1.3476 1.2891 0 2.168-0.70312 0.87891-0.70313 1.3281-2.2656zm0.3125-5.5469q-0.0586-2.3828-1.2305-3.6133-1.1719-1.25-2.8516-1.25-1.7969 0-2.9688 1.3086t-1.1523 3.5547z"/>
 </g>
</svg>
