<?xml version="1.0" encoding="UTF-8"?>
<svg id="svg57" width="688.66pt" height="495.01pt" version="1.1" viewBox="0 0 688.66 495.01" xmlns="http://www.w3.org/2000/svg" xmlns:cc="http://creativecommons.org/ns#" xmlns:dc="http://purl.org/dc/elements/1.1/" xmlns:rdf="http://www.w3.org/1999/02/22-rdf-syntax-ns#">
 <metadata id="metadata63">
  <rdf:RDF>
   <cc:Work rdf:about="">
    <dc:format>image/svg+xml</dc:format>
    <dc:type rdf:resource="http://purl.org/dc/dcmitype/StillImage"/>
    <dc:title/>
   </cc:Work>
  </rdf:RDF>
 </metadata>
 <path id="path35" d="m18.334 50.393c15.33-19.72 39.7-32.07 64.69-32.56 21.85 0.01 43.71 0.03 65.56-0.01 0.07 14.18 0.04 28.37 0.02 42.56-20.86-0.08-41.72 0.01-62.57-0.05-13.91-0.33-27.73 6.77-35.63 18.22-5.05 7.09-7.72 15.76-7.8 24.44 0.03 90.01 0.01 180.02 0.02 270.03 0.1 8.34-0.71 16.91 2 24.96 5.01 16.6 21.06 29.07 38.39 29.82 8.67 0.1 17.35 0 26.02 0.04v42.51c-14.28-0.42-28.83 1.31-42.86-2.13-22.85-5.16-43.16-20.3-54.75-40.64-8.01-13.72-11.76-29.73-11.4-45.57 0.01-92.31 0.02-184.63 0-276.94-0.32-19.59 6.05-39.33 18.31-54.68" fill="#1f110e"/>
 <path id="path10" d="m27.434 47.443c14.38-15.14 34.82-24.17 55.69-24.76 20.25-0.21 40.51-0.06 60.76-0.08-0.02 10.94-0.01 21.87 0 32.8-19.29 0.05-38.58-0.02-57.87 0.03-6.01 0.02-12.03 0.9-17.63 3.12-18.12 6.64-30.92 25.2-30.67 44.49-0.05 93.97-0.05 187.93 0 281.9-0.35 19.23 12.29 37.74 30.25 44.54 11.4 4.82 23.94 2.59 35.92 3.13-0.04 11.02 0.03 22.04-0.03 33.06-11.66-0.15-23.47 0.64-34.95-1.89-20.48-4.17-38.93-16.88-50.48-34.24-8.71-13.1-13.56-28.8-13.39-44.56v-281.94c-0.19-20.52 8.16-40.87 22.4-55.6z" fill="#fff"/>
 <g id="g4642" transform="translate(-32.966 -15.997)">
  <path id="path33" d="m460.65 16h57.7c0 8.39-0.01 16.78 0 25.17-11.06-0.02-22.12 0-33.18-0.01-0.01 1.56-0.02 3.12-0.01 4.68h30c-0.02 7.92 0.05 15.84-0.05 23.76-9.98-0.02-19.97-0.02-29.96 0 0 1.74 0.01 3.49 0.01 5.24h34c-0.02 8.25 0.04 16.5-0.03 24.76-19.5-0.04-39 0-58.51-0.02 0.07-27.86 0.01-55.72 0.03-83.58" fill="#1f110e"/>
  <path id="path31" d="m385.84 16h26.16c0.01 19.62-0.01 39.23 0.01 58.85 10.05-0.02 20.1-0.01 30.15-0.01 0.01 8.24-0.03 16.47 0.02 24.71-18.79 0.06-37.57 0.05-56.36 0.01 0.05-27.86 0-55.71 0.02-83.56" fill="#1f110e"/>
  <path id="path29" d="m308.39 16c19.2-0.01 38.41 0.01 57.61 0v25.16c-11-0.01-21.99 0.01-32.99-0.01-0.01 1.56-0.01 3.13 0 4.7 9.99-0.02 19.99-0.01 29.99-0.01-0.01 7.92 0.01 15.84 0 23.77-10-0.05-20-0.02-30-0.02 0 1.75 0 3.51 0.02 5.27 11.32-0.04 22.65-0.01 33.98-0.02-0.01 8.26 0.02 16.51-0.01 24.77-19.53-0.04-39.07-0.04-58.6 0 0.04-27.87 0.04-55.74 0-83.61" fill="#1f110e"/>
  <path id="path27" d="m230.65 16h60.35v25.16h-17.84c0.02 19.47-0.03 38.93 0.02 58.4-8.19 0.05-16.37 0.03-24.56 0.01 0.08-19.46-0.01-38.92 0.05-58.38-6.01-0.05-12.01-0.03-18.02-0.02v-25.17" fill="#1f110e"/>
  <path id="path2" d="m235.31 21.05c16.9-0.11 33.79-0.02 50.69-0.05v15h-18c-0.01 19.62 0.02 39.24-0.02 58.85-4.88-0.03-9.76 0.01-14.65-0.03 0.04-19.61 0.01-39.21 0.02-58.82-6.01-0.01-12.02 0.03-18.03-0.04 0.04-4.97 0.05-9.94-0.01-14.91z" fill="#fff"/>
  <path id="path4" d="m313.15 21.02c15.95-0.04 31.9-0.01 47.85-0.02v15h-33.16v15h30.16c0 4.62 0 9.23-0.01 13.85-10.05-0.02-20.1 0-30.15-0.01 0 4.92-0.02 9.84 0.03 14.76 11.38-0.03 22.75-0.01 34.13-0.01-0.01 5.09 0.01 10.18-0.02 15.27-16.27-0.04-32.54-0.01-48.82-0.02-0.01-24.61 0.02-49.22-0.01-73.82z" fill="#fff"/>
  <path id="path6" d="m391 21h16c0.01 19.54-0.02 39.08 0.01 58.61 10.13-0.05 20.26-0.02 30.4-0.01 0.01 5.08 0.01 10.16-0.01 15.25-15.46-0.01-30.93-0.02-46.39 0-0.03-24.62 0-49.23-0.01-73.85z" fill="#fff"/>
  <path id="path8" d="m465.31 21.05c16.03-0.11 32.07-0.02 48.1-0.05v15c-11.01 0.01-22.01-0.01-33.02 0.01 0.04 4.99 0.04 9.99 0 14.98 10.01 0.02 20.01 0 30.02 0.01 0 4.62 0.02 9.23-0.02 13.85-10 0.01-19.99-0.07-29.99 0.04 0.02 4.91 0.03 9.81-0.01 14.72 11.34-0.05 22.67-0.02 34.01-0.02 0.02 5.09 0.03 10.18-0.01 15.26-16.35-0.04-32.7 0.03-49.06-0.03 0.01-24.59 0.06-49.18-0.02-73.77z" fill="#fff"/>
 </g>
 <g id="g4614" transform="matrix(-1 0 0 1 1542.4 -81.206)">
  <path id="path35-1" d="m872.06 131.54c15.33-19.72 39.7-32.07 64.69-32.56 21.85 0.01 43.71 0.03 65.56-0.01 0.07 14.18 0.04 28.37 0.02 42.56-20.86-0.08-41.72 0.01-62.57-0.05-13.91-0.33-27.73 6.77-35.63 18.22-5.05 7.09-7.72 15.76-7.8 24.44 0.03 90.01 0.01 180.02 0.02 270.03 0.1 8.34-0.71 16.91 2 24.96 5.01 16.6 21.06 29.07 38.39 29.82 8.67 0.1 17.35 0 26.02 0.04v42.51c-14.28-0.42-28.83 1.31-42.86-2.13-22.85-5.16-43.16-20.3-54.75-40.64-8.01-13.72-11.76-29.73-11.4-45.57 0.01-92.31 0.02-184.63 0-276.94-0.32001-19.59 6.05-39.33 18.31-54.68" fill="#1f110e"/>
  <path id="path10-8" d="m881.16 128.59c14.38-15.14 34.82-24.17 55.69-24.76 20.25-0.21 40.51-0.06 60.76-0.08-0.02 10.94-0.01 21.87 0 32.8-19.29 0.05-38.58-0.02-57.87 0.03-6.01 0.02-12.03 0.9-17.63 3.12-18.12 6.64-30.92 25.2-30.67 44.49-0.05 93.97-0.05 187.93 0 281.9-0.35 19.23 12.29 37.74 30.25 44.54 11.4 4.82 23.94 2.59 35.92 3.13-0.04 11.02 0.03 22.04-0.03 33.06-11.66-0.15-23.47 0.64001-34.95-1.89-20.48-4.17-38.93-16.88-50.48-34.24-8.71-13.1-13.56-28.8-13.39-44.56v-281.94c-0.19-20.52 8.16-40.87 22.4-55.6z" fill="#fff"/>
 </g>
 <path id="path39" d="m216.15 126.99c2.2-1.85 3.56-5.66 6.88-5.34h300c4.65 0.17 9.36-0.4 13.97 0.32 1.12 1.17 1.37 2.87 0 3.97-73.19 74.8-146.48 149.51-219.71 224.27-4.81 4.57-9 9.78-14.03 14.12-1.7 0.47-3.5 0.2-5.23 0.28-50.34-0.06-100.69 0.01-151.03-0.04-2.58-3.06 1.19-5.36 3.14-7.45 49.39-49.35 98.76-98.72 148.11-148.11-49.8-0.03-99.61 0.02-149.41-0.03-2.38 0.08-3.86-3.15-1.75-4.64 23.02-25.78 46.05-51.56 69.06-77.35" fill="#1f110e"/>
 <g id="g4632" transform="translate(-32.966 -15.997)">
  <path id="path41" d="m188.4 426.91c8.25-0.15 16.51-0.04 24.76-0.07 0 19.52 0.01 39.04 0 58.56 9.64 0.02 19.29 0.03 28.94 0 0.14 8.31 0.02 16.63 0.07 24.95-17.92 0.02-35.83-0.04-53.74 0.03-0.05-27.83 0.02-55.65-0.03-83.47" fill="#1f110e"/>
  <path id="path14" d="m193.15 432.01c5.08-0.02 10.17-0.01 15.26-0.01 0.02 19.46-0.03 38.92 0.03 58.38 9.66-0.04 19.33-0.08 28.99 0.02-0.03 5.07-0.03 10.13 0 15.2-14.75 0.13-29.5 0-44.25 0.06-0.05-24.55 0.01-49.1-0.03-73.65z" fill="#fff"/>
  <path id="path43" transform="scale(.75)" d="m353.89 568.83c-0.0533 37.493 0.0539 74.987-0.0527 112.48 11.453 0.0667 22.92 6.8e-4 34.373 0.0273-0.0133-13.333 0.013-26.655-0.0137-39.988 5.44-0.0267 10.894-0.0117 16.348-0.0117 0 13.333 0.0263 26.667-0.0137 40 11.373 0.0133 22.746-0.0133 34.133 0v-112.47c-28.253-0.0267-56.52 0.0523-84.773-0.041zm51.24 26.641-0.0137 14.986h-17.652l-0.0137-14.986z" fill="#1f110e" stroke-width="1.3333"/>
  <path id="path16" d="m270.61 432.15c17.68 0.04 35.37-0.02 53.05 0.02-0.03 24.49 0.01 48.99-0.01 73.48-5.03-0.01-10.06 0.04-15.08-0.05 0.03-9.99 0.02-19.99 0.01-29.98-7.59 0.06-15.17 0.02-22.75 0.03 0.01 10 0.02 20 0 30-5.09-0.01-10.17 0.04-15.26-0.04 0.04-24.49-0.02-48.98 0.04-73.46m14.78 9.24c0.04 7.24 0.03 14.48 0.01 21.72 7.92 0.11 15.84 0.02 23.76 0.05-0.04-7.26 0.08-14.51-0.07-21.76-7.9 0.02-15.8 0.03-23.7-0.01z" fill="#fff"/>
  <path id="path45" d="m354.65 426.83c22.24 0.02 44.47 0.01 66.7 0 0 7.18-0.01 14.35 0.01 21.53-13.67-0.02-27.34-0.02-41.01 0-0.01 13.49 0 26.98 0 40.47 5.54 0.02 11.09 0 16.64 0.02 0.01-2.62 0.01-5.24 0.01-7.85-3.39-0.01-6.78 0-10.16 0-0.01-7.12 0-14.23-0.01-21.35h34.34c-0.02 16.84-0.01 33.67-0.01 50.51-22.17 0-44.34-0.01-66.51 0.01v-83.34" fill="#1f110e"/>
  <path id="path18" d="m359.31 432.05c19.12-0.1 38.24-0.06 57.36-0.02-0.03 3.87-0.01 7.75-0.03 11.62-13.67-0.01-27.33 0.01-41-0.01 0 16.64 0.05 33.29-0.02 49.93 8.79 0.05 17.58-0.02 26.37 0.04 0.03-5.87 0-11.74 0.01-17.61h-10.41c-0.01-3.8-0.01-7.61 0.01-11.4 8.13-0.03 16.26-0.01 24.4-0.01v40.82c-18.87 0.01-37.74-0.01-56.61 0.02-0.12-24.46 0.04-48.92-0.08-73.38z" fill="#fff"/>
  <path id="path47" d="m446 426.84h25.16c0 9.27-0.01 18.54 0.01 27.82 4.59-0.01 9.19-0.03 13.79 0.03 0.09-9.29 0.02-18.57 0.04-27.85h25.16c0 27.84-0.01 55.67 0.01 83.51h-25.17c-0.02-10.35 0.04-20.69-0.04-31.03-4.6 0.04-9.19 0.03-13.79 0.02-0.02 10.34-0.01 20.67 0 31.01-8.39-0.01-16.78 0-25.17 0v-83.51" fill="#1f110e"/>
  <path id="path20" d="m451.15 432.01c5.09-0.02 10.17-0.01 15.26-0.01 0.01 9.12-0.01 18.25 0.01 27.38 7.86-0.07 15.72-0.02 23.58-0.03v-27.35h15.41c0.01 24.54-0.01 49.07 0.01 73.61-5.12 0.08-10.24 0-15.36 0.08-0.13-10.34-0.03-20.69-0.06-31.04-7.86-0.02-15.72 0.03-23.58-0.03-0.01 10.33-0.01 20.66 0 30.99-5.08 0.07-10.16 0.02-15.24 0.05-0.05-24.55 0-49.1-0.03-73.65z" fill="#fff"/>
  <path id="path49" d="m536.65 426.83c8.32 0.04 16.63-0.06 24.95 0.06-0.04 27.83 0.01 55.66-0.02 83.49-8.32-0.06-16.63-0.03-24.94-0.02 0.02-27.84 0.01-55.68 0.01-83.53" fill="#1f110e"/>
  <path id="path22" d="m541.32 432.04c5.17-0.07 10.35-0.04 15.53-0.03-0.03 24.55 0.01 49.1-0.02 73.65-5.16-0.02-10.32-0.01-15.47-0.01-0.04-24.54 0.03-49.07-0.04-73.61z" fill="#fff"/>
 </g>
 <path id="path54" d="m223.38 126.35c102 0.03 203.99-0.03 305.99 0.02-5.15 6.13-11.2 11.42-16.6 17.31-70.6 72.05-141.22 144.09-211.8 216.17-48.77-0.05-97.54 0.03-146.31-0.04 15.73-16.31 32.01-32.09 47.95-48.2 34.92-35.02 70.04-69.83 104.82-104.97-0.91-1.72-2.32-3.18-4.46-2.79-49.55-0.05-99.11 0.04-148.67-0.05 22.89-25.94 46.06-51.64 69.08-77.45z" fill="#f9ee05"/>
</svg>
