<svg id="a" width="569.74pt" height="748.95pt" version="1.1" viewBox="0 0 569.74 748.95" xmlns="http://www.w3.org/2000/svg">
 <g id="b" transform="translate(9.0107e-5)">
  <g id="c" transform="translate(-90.805,-69.63)" fill="#dadada" stroke-width="1.3333">
   <path id="d" transform="scale(.75)" d="m622.12 268.21c-33.366-3.5254-64.617 0-96.926 0v156.04c7.3376 1.5061 9.893 9.9805 25.114 0 23.802-10.286 45.773-15.888 70.227-11.853 20.293 3.16 39.253 12.534 55.08 25.48 10.387 8.1467 18.853 18.44 26.359 29.227 2.3467 3.5333 4.4545 7.2253 6.5078 10.945l125.69-79.354c-0.65334-1.4267-1.6118-2.6585-2.3984-3.9785-26.973-40.747-64.507-74.388-107.92-96.814-21.467-10.693-44.094-19.16-67.561-24.24-11.296-2.804-22.655-4.461-34.174-5.4534z"/>
   <path id="e" transform="scale(.75)" d="m600.8 527.14v125.25h96.468c-25.706 34.909-76.322 54.703-114.19 47.313-22.56-4.1733-43.466-15.8-59.68-31.906-30.298-30.203-34.202-52.848-43.906-89.814-3.9959-15.935-67.923 0-101.89 0v185c5.5222-0.13689 11.646-3.8838 16.498 0 9.7035 7.5324 18.68 16.318 28.359 23.8 32.44 25.187 70.506 42.745 110.44 52.105 61.987 13.893 128.59 6.4 185.65-21.613 44.467-21.6 82.999-55.052 110.95-95.785 29.213-42.413 46.76-92.747 50.387-144.11 0.88-16.333 1.6269-32.881-0.75977-49.107l-0.15651-1.1397z"/>
  </g>
  <g id="f" transform="translate(-90.805,-69.63)">
   <path id="g" d="m90.805 69.63h436.08l-259.84 564.66h-161.07l200.04-422.06h-215.2z" fill="#fff"/>
  </g>
 </g>
 <g id="h" transform="matrix(1.1237 0 0 1.1237 .0007866 565.68)" fill="#fff">
  <path id="i" d="m345.84 29.415c4.68-1.75 10.34 2.14 10.19 7.17 0.67 6.17-4.53 12.27-10.72 12.59-3.55 0.26-6.91-2.35-7.54-5.84-1.47-5.89 2.52-12 8.07-13.92z"/>
  <path id="j" d="m39.582 32.125h6.408l-3.55 22.325h21.34l-2.27 19.255h-22.53l-3.2504 22.181c-1.2273 9.8503 0.65458 10.946 7.8761 10.37 5.1897-0.43646 10.091-2.899 14.544-5.5615l-3.54 22.78c-5.8804 3.9861-12.595 7.0634-19.675 7.824-7.024 0.95313-15.36-0.12497-20.781-3.2856-7.3822-4.2165-9.7656-12.052-8.3009-20.378l5.9765-33.93h-11.83l2.8567-11.04z"/>
  <path id="k" d="m398 32.316h6.408l-3.55 22.325h21.34l-2.27 19.255h-22.53l-3.2504 22.181c-1.2273 9.8503 0.65458 10.946 7.8761 10.37 5.1897-0.43647 10.091-2.899 14.544-5.5615l-3.54 22.78c-5.8804 3.9861-12.595 7.0634-19.675 7.824-7.024 0.95313-15.36-0.12498-20.781-3.2856-7.3822-4.2166-9.7656-12.052-8.3008-20.378l5.9765-33.93h-11.83l2.8568-11.04z"/>
  <path id="l" d="m153.8 32.88h27.26l-15.57 97.225h-27.71z"/>
  <path id="m" d="m102.14 53.636c9.69-1.57 20.53 1.19 27.12 8.77 2.7382 2.8026 4.5053 6.3105 5.8018 9.9794 1.2575 3.0689 1.6198 6.2741 1.7635 9.321 0.25122 5.4963-0.20245 11.055-1.6353 16.355h-45.66c-0.71 6.29 4.14 11.875 9.79 13.885 7.33 2.8 15.42 0.59 22.26-2.55 2.99-1.24 5.48-3.44 8.54-4.51l2.75 12.03c-7.475 7.9043-17.763 13.229-28.592 14.317-4.5195 0.36663-9.1382 0.41544-13.301-0.22459-6.3521-1.0025-12.417-3.7841-17.037-8.3023-6.23-5.9-9.1-14.62-9.29-23.05 0.03-6.46 1.71-12.77 3.94-18.79 5.72-13.85 18.52-25.05 33.55-27.23m-3.86 18.14c-5.19 3.22-7.25 9.47-7.8 15.24h23.96c0-3.9015 0.40349-10.445-1.81-13.85-3.39-4.32-10.01-3.97-14.35-1.39z"/>
  <path id="n" d="m215.39 53.695c9.69-1.57 20.53 1.19 27.12 8.77 2.7382 2.8026 4.5053 6.3105 5.8018 9.9794 1.2575 3.0689 1.6198 6.2741 1.7635 9.321 0.25122 5.4963-0.20245 11.055-1.6353 16.355h-45.66c-0.71 6.29 4.14 11.875 9.79 13.885 7.33 2.8 15.42 0.59 22.26-2.55 2.99-1.24 5.48-3.44 8.54-4.51l2.75 12.03c-7.475 7.9043-17.763 13.229-28.592 14.317-4.5195 0.36663-9.1382 0.41543-13.301-0.2246-6.3521-1.0025-12.417-3.7841-17.037-8.3023-6.23-5.9-9.1-14.62-9.29-23.05 0.03-6.46 1.71-12.77 3.94-18.79 5.72-13.85 18.52-25.05 33.55-27.23m-3.86 18.14c-5.19 3.22-7.25 9.47-7.8 15.24h23.96c0-3.9015 0.40349-10.445-1.81-13.85-3.39-4.32-10.01-3.97-14.35-1.39z"/>
  <path id="o" d="m272.57 61.905c13.71-10.45 32.87-10.64 48.46-4.59l-4.25 24.945-2.84-1.3753c-6.03-2.9-13.06-3.68-19.58-2.21-5.95 1.42-10.76 6.38-12.45 12.19-0.6 3.76-0.91 8.26 1.92 11.26 3.1 4.12 8.65 5.23 13.53 5.07 5.91 0.02 11.26-2.79 16.78-4.47l-3.67 24.09c-7.33 3-15.18 5.07-23.17 4.63-9.25 0.45-18.94-2.61-25.51-9.31-6.44-6.67-8.8-16.37-8-25.43 1.25-13.46 7.77-26.69 18.78-34.8z"/>
  <path id="p" d="m330.18 55.145h27.8l-12.16 75.1h-27.26z"/>
  <path id="q" d="m426.3 54.69h29.41l6.45 37.055 19.78-37.055h25.08l-64.94 108.4h-25.64l26.55-43.43z"/>
 </g>
</svg>
