<?xml version="1.0" encoding="UTF-8"?>
<svg id="svg59" width="1402.4pt" height="577.98pt" version="1.1" viewBox="0 0 1402.4 577.98" xmlns="http://www.w3.org/2000/svg" xmlns:cc="http://creativecommons.org/ns#" xmlns:dc="http://purl.org/dc/elements/1.1/" xmlns:rdf="http://www.w3.org/1999/02/22-rdf-syntax-ns#">
 <metadata id="metadata65">
  <rdf:RDF>
   <cc:Work rdf:about="">
    <dc:format>image/svg+xml</dc:format>
    <dc:type rdf:resource="http://purl.org/dc/dcmitype/StillImage"/>
    <dc:title/>
   </cc:Work>
  </rdf:RDF>
 </metadata>
 <g id="g4654" transform="translate(-306.89 180.51)">
  <path id="path4546" d="m1505.2-58.458a122 122.06 0 0 1-122 122.06 122 122.06 0 0 1-122-122.06 122 122.06 0 0 1 122-122.06 122 122.06 0 0 1 122 122.06z" fill="#f9af45" style="paint-order:stroke fill markers"/>
  <path id="path4546-1" d="m1492.4-58.458a109.22 109.6 0 0 1-109.22 109.6 109.22 109.6 0 0 1-109.22-109.6 109.22 109.6 0 0 1 109.22-109.6 109.22 109.6 0 0 1 109.22 109.6z" fill="#ffe72b" style="paint-order:stroke fill markers"/>
 </g>
 <g id="g4634" transform="translate(-497.2 165.68)">
  <path id="path4546-13" d="m1899.6 88.748a152.46 152.54 0 0 1-152.46 152.54 152.46 152.54 0 0 1-152.46-152.54 152.46 152.54 0 0 1 152.46-152.54 152.46 152.54 0 0 1 152.46 152.54z" fill="#87210d" style="paint-order:stroke fill markers"/>
  <path id="path4546-1-2" d="m1887 88.748a139.88 139.73 0 0 1-139.88 139.73 139.88 139.73 0 0 1-139.88-139.73 139.88 139.73 0 0 1 139.88-139.73 139.88 139.73 0 0 1 139.88 139.73z" fill="#e9242d" style="paint-order:stroke fill markers"/>
 </g>
 <g id="g4638" transform="translate(-371.75 -80.188)">
  <path id="path4546-13-7" d="m1617.2 571.99a86.38 86.183 0 0 1-86.38 86.183 86.38 86.183 0 0 1-86.38-86.183 86.38 86.183 0 0 1 86.38-86.183 86.38 86.183 0 0 1 86.38 86.183z" fill="#0260aa" style="paint-order:stroke fill markers"/>
  <path id="path4546-1-2-4" d="m1604 571.6a73.53 73.761 0 0 1-73.53 73.761 73.53 73.761 0 0 1-73.53-73.761 73.53 73.761 0 0 1 73.53-73.761 73.53 73.761 0 0 1 73.53 73.761z" fill="#0095cf" style="paint-order:stroke fill markers"/>
 </g>
 <g id="g4669" fill="#fff" stroke-width="1.0363">
  <path id="path15" d="m24.221 251.2c4.3628-3.2229 10.197-5.6271 15.596-3.6478 5.7514 0.9223 10.145 6.2074 11.088 11.752 0.13472 15.13-0.02073 30.25 0.05181 45.379 6.0623 1.6374 13.565 0.60106 17.928 6.0727 3.9276 3.482 2.7773 9.0883 2.7358 13.731-0.15544 4.5804-3.5752 8.1038-7.1919 10.456-4.197 1.9586-8.9225 2.2073-13.482 2.1244-0.06218 16.892 0.12436 33.783-0.07254 50.675-1.5855 8.8293-0.93267 17.855-0.8394 26.778 0.38343 5.1918 6.28 4.5701 10 5.5753 6.4872 1.2643 11.296 7.71 10.695 14.28 0.38343 4.2177-0.80831 8.7464-4.0001 11.658-2.3835 1.5648-4.9742 2.8913-7.6893 3.7825-10.529 0.20726-22.602 1.7721-31.182-5.7929-6.4561-4.9328-8.5495-13.275-9.0572-20.995-0.03109-23.856 0.05182-47.711-0.04145-71.567-0.0829-4.7877 1.4923-9.4303 1.1399-14.249-7.3784-0.50778-16.311-2.2591-19.462-9.9174-0.4767-5.8551-1.5752-13.368 3.5545-17.586 4.1866-4.2074 10.425-3.969 15.845-5.0571 0.01036-13.42 0.03109-26.83-0.03109-40.25-0.20726-4.7359 1.5441-9.4925 4.4146-13.202z"/>
  <path id="path17" d="m620.95 247.91c6.3007-2.9016 14.208 0.31089 17.576 6.1556 1.5441 2.7669 2.4975 5.8136 3.7203 8.736 20.446 51.618 41.483 102.99 62.022 154.57 2.2695 5.7825 5.2851 11.638 4.7877 18.042 0.0104 6.5805-5.8033 11.575-11.658 13.379-3.9379 0.0725-8.4251 1.0778-11.897-1.2746-3.4509-2.5389-6.2282-6.0105-7.4924-10.135-2.6115-8.1142-6.508-15.721-9.4614-23.7-1.5337-3.3887-2.3524-7.1401-4.425-10.239-24.654-0.2798-49.328-0.0622-74.002-0.10363-4.8499 11.347-8.8707 23.027-13.451 34.478-1.7306 4.0934-4.0105 8.508-8.2593 10.404-3.8136 1.1296-7.9484 2.3109-11.824 0.78758-6.9743-1.7617-12.736-9.1194-11.192-16.456 1.6788-6.311 4.3524-12.301 6.5183-18.446 19.866-51.659 39.545-103.39 59.452-155.03 1.8757-4.5286 4.5804-9.5961 9.5858-11.171m5.5856 59.867c-3.5649 10.29-7.8344 20.322-11.555 30.55-4.7255 11.586-8.6945 23.472-13.71 34.934 16.985-0.0622 33.959 0.0829 50.944-0.0725-8.5287-21.804-17.431-43.483-25.679-65.411z"/>
  <path id="path19" d="m962.69 247.64c4.4457-1.8239 9.6272-0.0933 13.296 2.684 2.1451 2.1037 3.6063 4.8499 4.8395 7.5753 4.2903 12.021 9.679 23.617 14.187 35.555 16.861 42.177 33.69 84.355 50.799 126.43 1.741 4.3835 3.2747 8.9018 4.0934 13.565-0.1555 5.4509-2.9327 11.151-7.8551 13.803-4.0209 2.456-9.0573 1.9379-13.493 1.3265-7.565-2.114-9.6791-10.425-12.249-16.84-4.1037-9.4407-7.0364-19.431-12.135-28.415-24.705 0.0104-49.4-0.0104-74.106 0.0104-1.6892 6.6323-4.9017 12.736-7.0054 19.234-3.2747 7.4613-5.254 15.534-9.6894 22.446-2.9534 3.1607-7.5339 4.1556-11.638 4.881-5.0468-0.80831-10.798-2.4146-13.513-7.1608-2.8602-4.3006-2.6633-9.9795-1.1503-14.715 21.182-55.452 42.478-110.86 63.701-166.3 1.8964-5.8965 5.6271-12.197 11.917-14.073m3.8758 61.028c-7.7826 21.669-16.405 43.037-24.633 64.541 16.985 0.114 33.959 0 50.934 0.0518-2.6529-5.7618-4.7981-11.741-7.2126-17.607-5.0364-13.752-10.819-27.213-16.094-40.872-0.77723-2.1451-1.7824-4.197-2.9949-6.1142z"/>
  <path id="path21-3" d="m433.09 251.75c4.1763-3.3783 9.7619-2.9534 14.757-3.8343 20.736-0.13472 41.473-0.0414 62.199-0.0414 7.7515 0.96376 15.669 1.2746 23.161 3.741 7.7204 2.5493 15.213 6.394 21.151 12.021 22.042 19.285 23.845 56.229 5.4406 78.572-2.9845 4.2903-7.4406 7.1608-11.627 10.145-9.2749 6.8603-20.778 9.907-32.053 11.43-4.4872 0.0933-8.9536 0.32125-13.379 1.1192-14.498 0.1969-28.996-0.0104-43.493 0.0725-0.0104 23.151-0.0207 46.302 0.0207 69.463 0.0414 4.5701-1.7824 9.3059-5.4613 12.176-4.881 4.311-12.228 4.2903-18 1.9586-4.311-3.0053-7.5961-7.7411-7.6582-13.13-0.0311-57.007 0.0207-114.02-0.0207-171.03 0.30052-4.5182 0.99484-9.8137 4.9639-12.664m26.167 27.224c-0.0311 18.291-0.0207 36.592-0.0104 54.882 15.897 0 31.794 0.0415 47.69 0 8.7153-0.93267 18.021-2.2902 25.006-8.0831 8.4458-6.6219 11.461-18.902 7.793-28.861-1.6995-5.5856-6.0934-9.7723-10.446-13.41-4.539-2.7047-9.8448-4.2074-15.099-4.5494-18.311 0.0311-36.623 0.0104-54.934 0.0207z"/>
  <path id="path23" d="m684.25 264.2c-0.76686-7.5546 4.7048-15.202 12.342-16.322 3.9587-0.11399 8.28-0.67359 11.772 1.6581 5.4924 2.6011 6.7152 9.078 8.5702 14.259 5.6167 14.394 9.6065 29.379 15.244 43.773 3.3369 9.8345 6.5183 19.721 9.8759 29.534 3.254 8.0624 5.71 16.405 8.5287 24.622 2.1348 6.0312 3.6478 12.322 6.6634 18.021 1.5234-5.4198 3.3058-10.757 5.4406-15.969 3.5027-10.062 6.7152-20.218 10.156-30.301 4.6426-11.907 8.2282-24.198 12.436-36.27 4.9224-12.674 8.736-25.742 13.213-38.581 1.6374-4.4664 4.9846-8.4355 9.306-10.477 5.6686-0.91194 12.208-0.8394 16.529 3.5441 5.5856 4.7566 5.8654 12.974 3.2022 19.368-6.7152 18.705-12.892 37.618-19.151 56.489-6.1556 16.301-11.213 32.996-16.861 49.483-8.0935 21.317-14.073 43.4-22.425 64.623-2.3938 3.4405-5.7618 7.4199-10.342 7.3163-3.0364-0.0207-6.4147 0.49743-9.0158-1.4197-3.0674-2.2799-5.0675-5.7618-6.2074-9.3578-3.0674-9.3474-6.1867-18.684-9.306-28.011-4.3939-11.14-7.7204-22.653-11.679-33.939-4.2799-10.881-7.5339-22.125-11.389-33.162-4.2903-10.881-7.5235-22.135-11.399-33.162-4.5286-11.358-7.7722-23.182-11.969-34.664-1.5026-3.5649-2.7669-7.2541-3.5338-11.057z"/>
  <path id="path25" d="m855.52 248.18c6.0105-0.9534 12.757 1.9482 15.534 7.565 2.3938 3.4923 1.5959 7.8448 1.6995 11.814-0.0311 52.851-0.0207 105.7-0.0104 158.55-0.0622 5.2229 0.71504 10.819-2.0726 15.544-4.3524 8.8396-17.835 10.943-24.716 3.9587-3.3783-3.0467-4.083-7.907-4.3524-12.218 0.0518-56.312-0.0311-112.62 0.0415-168.94-0.0933-7.907 5.8551-15.451 13.876-16.28z"/>
  <path id="path27-1" d="m236.82 249.22c8.8085-2.311 18.374 5.0157 18.28 14.177 0.0518 51.1-0.0829 102.22 0.0622 153.32-0.23835 6.1245 6.4561 8.1453 8.622 13.13 2.9327 4.6737 2.114 10.974-0.94303 15.399-2.1762 4.0519-6.9536 5.4509-11.078 6.653-8.394 1.0778-16.467-3.9897-20.985-10.819-5.1297-7.0054-5.8344-15.938-6.7774-24.27-0.0311-46.302 0-92.593-0.0104-138.89-0.12435-7.3888-0.3627-15.151 2.8395-21.99 1.741-4.0416 6.1142-5.5235 9.9899-6.7048z"/>
  <path id="path31-8" d="m128.87 304.84c6.7463-1.7099 13.762-0.99485 20.643-1.0259 8.28 0.96375 16.425 3.3887 23.824 7.2437 7.2437 4.6115 14.643 9.5028 19.607 16.684 7.8862 9.9899 12.943 22.311 13.607 35.068-0.1969 6.9536 0.93266 14.259-2.0622 20.809-1.969 5.4302-7.9588 8.0106-13.358 8.4769-5.8447 1.2954-11.845 0.72541-17.772 0.81868-21.14 0.0414-42.281-0.0933-63.421 0.0725 1.2228 8.9329 7.8033 16.508 15.399 20.964 5.2229 2.7255 10.923 5.2333 16.943 4.9224 9.0262 0.18653 17.586-4.1763 24.27-9.9795 5.14-3.8965 12.653-5.2955 18.239-1.513 8.2386 4.7255 9.7723 17.234 3.2747 24.052-8.8189 7.8758-19.296 14.363-31.047 16.633-15.534 4.0105-32.322 1.3783-46.561-5.7411-9.6376-5.5131-18.083-13.368-23.472-23.151-11.824-19.824-11.866-44.24-7.5546-66.261 1.6477-10.943 7.0883-20.985 14.363-29.203 9.4614-9.5961 21.773-16.405 35.079-18.871m-20.011 56.882c21.928 0.14508 43.866 0.12436 65.805 0.0104-1.5544-8.7256-7.4095-15.876-14.166-21.234-5.2748-2.9431-10.891-6.2489-17.171-5.6789-15.969-1.2021-31.338 11.43-34.467 26.902z"/>
  <path id="path31" d="m330.81 304.88c6.7463-1.7099 13.762-0.99485 20.643-1.0259 8.28 0.96375 16.425 3.3887 23.824 7.2437 7.2437 4.6115 14.643 9.5028 19.607 16.684 7.8862 9.9899 12.943 22.311 13.607 35.068-0.1969 6.9536 0.93266 14.259-2.0622 20.809-1.969 5.4302-7.9588 8.0106-13.358 8.4769-5.8447 1.2954-11.845 0.72541-17.772 0.81868-21.14 0.0414-42.281-0.0933-63.421 0.0725 1.2228 8.9329 7.8033 16.508 15.399 20.964 5.2229 2.7255 10.923 5.2333 16.943 4.9224 9.0262 0.18654 17.586-4.1763 24.27-9.9795 5.14-3.8965 12.653-5.2955 18.239-1.513 8.2386 4.7255 9.7723 17.234 3.2747 24.052-8.8189 7.8758-19.296 14.363-31.047 16.633-15.534 4.0105-32.322 1.3783-46.561-5.7411-9.6376-5.5131-18.083-13.368-23.472-23.151-11.824-19.824-11.866-44.24-7.5546-66.261 1.6477-10.943 7.0883-20.985 14.363-29.203 9.4614-9.5961 21.773-16.405 35.079-18.871m-20.011 56.882c21.928 0.14508 43.866 0.12436 65.805 0.0104-1.5544-8.7256-7.4095-15.876-14.166-21.234-5.2748-2.9431-10.891-6.2489-17.171-5.6789-15.969-1.2021-31.338 11.43-34.467 26.902z"/>
 </g>
</svg>
