<?xml version="1.0" encoding="UTF-8"?>
<!-- Created with Inkscape (http://www.inkscape.org/) -->
<svg id="svg32445" width="147.61mm" height="142.52mm" version="1.1" viewBox="0 0 147.61 142.52" xmlns="http://www.w3.org/2000/svg" xmlns:cc="http://creativecommons.org/ns#" xmlns:dc="http://purl.org/dc/elements/1.1/" xmlns:rdf="http://www.w3.org/1999/02/22-rdf-syntax-ns#">
 <metadata id="metadata32442">
  <rdf:RDF>
   <cc:Work rdf:about="">
    <dc:format>image/svg+xml</dc:format>
    <dc:type rdf:resource="http://purl.org/dc/dcmitype/StillImage"/>
    <dc:title/>
   </cc:Work>
  </rdf:RDF>
 </metadata>
 <g id="layer1" transform="translate(-378.57 105.8)">
  <g id="flowRoot33274" transform="matrix(.17352 0 0 .17352 357.75 -549.02)" stroke-width="1px" aria-label="Telepace">
   <path id="path33687" d="m161.25 3337v-112.97h-41.25v-26.625h117.56v26.625h-41.25v112.97z"/>
   <path id="path33689" d="m304.22 3339.8q-29.812 0-45.75-14.25-15.844-14.25-15.844-40.594 0-25.781 14.812-41.156t41.438-15.375q24.188 0 36.375 13.031 12.188 13.031 12.188 37.312v11.812h-71.906q0.46875 7.3125 3.0938 12.281 2.625 4.875 6.9375 7.7812 4.2188 2.9063 9.8438 4.2188 5.625 1.2187 12.281 1.2187 5.7188 0 11.25-1.2187 5.5312-1.3125 10.125-3.375 4.0312-1.7813 7.4062-3.8438 3.4688-2.0625 5.625-3.6562h3.4688v27.094q-4.0312 1.5938-7.4062 3-3.2812 1.3125-9.0938 2.7188-5.3438 1.4062-11.062 2.1562-5.625 0.8438-13.781 0.8438zm10.875-69q-0.28125-10.406-4.875-15.844-4.5-5.4375-13.875-5.4375-9.5625 0-15 5.7188-5.3438 5.7187-5.9062 15.562z"/>
   <path id="path33691" d="m397.12 3337h-32.812v-145.88h32.812z"/>
   <path id="path33693" d="m476.34 3339.8q-29.812 0-45.75-14.25-15.844-14.25-15.844-40.594 0-25.781 14.812-41.156t41.438-15.375q24.188 0 36.375 13.031 12.188 13.031 12.188 37.312v11.812h-71.906q0.46875 7.3125 3.0938 12.281 2.625 4.875 6.9375 7.7812 4.2188 2.9063 9.8438 4.2188 5.625 1.2187 12.281 1.2187 5.7188 0 11.25-1.2187 5.5312-1.3125 10.125-3.375 4.0312-1.7813 7.4062-3.8438 3.4688-2.0625 5.625-3.6562h3.4688v27.094q-4.0312 1.5938-7.4062 3-3.2812 1.3125-9.0938 2.7188-5.3438 1.4062-11.062 2.1562-5.625 0.8438-13.781 0.8438zm10.875-69q-0.28125-10.406-4.875-15.844-4.5-5.4375-13.875-5.4375-9.5625 0-15 5.7188-5.3438 5.7187-5.9062 15.562z"/>
   <path id="path33695" d="m639.66 3282.9q0 25.219-12.844 40.688-12.75 15.469-31.5 15.469-7.875 0-13.688-1.7813-5.8125-1.7812-12.375-5.5312v43.875h-32.812v-143.91h32.812v10.969q7.2188-6.1875 14.719-10.031 7.5-3.8437 17.344-3.8437 18.281 0 28.312 14.531 10.031 14.531 10.031 39.562zm-33.562 0.6563q0-15.375-4.7812-22.312-4.6875-6.9375-14.719-6.9375-4.4062 0-8.8125 1.4062-4.3125 1.4063-8.5312 4.2188v52.969q2.625 1.125 5.7188 1.5938 3.1875 0.4687 7.5 0.4687 12 0 17.812-7.7812 5.8125-7.875 5.8125-23.625z"/>
   <path id="path33697" d="m715.22 3309.5v-21.938q-8.3438 0.8438-13.5 1.5-5.1562 0.5625-10.125 2.3438-4.3125 1.5-6.75 4.5937-2.3438 3-2.3438 8.0625 0 7.4063 3.9375 10.219 4.0312 2.7187 11.812 2.7187 4.3125 0 8.8125-1.9687 4.5-1.9688 8.1562-5.5313zm0 16.312q-3.375 2.8125-6.0938 5.0625-2.625 2.25-7.125 4.5-4.4062 2.1563-8.625 3.2813-4.125 1.125-11.625 1.125-13.969 0-23.25-9.375-9.1875-9.375-9.1875-23.625 0-11.719 4.6875-18.938 4.6875-7.2188 13.5-11.438 8.9062-4.3125 21.281-6t26.625-2.625v-0.5625q0-8.7188-6.4688-12-6.375-3.375-19.219-3.375-5.8125 0-13.594 2.1562-7.7812 2.0625-15.188 5.3438h-2.8125v-25.406q4.875-1.4062 15.75-3.2812 10.875-1.9688 21.938-1.9688 27.188 0 39.562 9.0938 12.469 9 12.469 27.562v71.625h-32.625z"/>
   <path id="path33699" d="m823.97 3339.8q-13.031 0-23.906-3.2813-10.781-3.2812-18.75-10.125-7.875-6.8437-12.281-17.156-4.4062-10.406-4.4062-24.469 0-15.094 4.7812-25.688 4.7812-10.594 12.938-17.438 7.875-6.5625 18.469-9.6562 10.688-3.1875 22.219-3.1875 8.7188 0 17.438 2.0625 8.7188 1.9687 17.531 6.375v28.125h-4.2188q-1.9688-1.875-4.875-4.125-2.8125-2.25-6.1875-4.125-3.5625-1.9688-8.0625-3.2813-4.5-1.4062-10.031-1.4062-12.562 0-19.5 8.8125-6.8438 8.7187-6.8438 23.531 0 15.844 7.3125 23.625 7.4062 7.7813 19.594 7.7813 6.1875 0 10.875-1.4063 4.6875-1.4062 8.0625-3.375 3.2812-1.9687 5.625-4.0312 2.3438-2.1563 4.0312-3.8438h4.2188v28.125q-2.8125 1.2188-6.5625 2.8125-3.6562 1.5938-7.5 2.625-4.7812 1.3125-9 1.9688-4.125 0.75-10.969 0.75z"/>
   <path id="path33701" d="m927.47 3339.8q-29.812 0-45.75-14.25-15.844-14.25-15.844-40.594 0-25.781 14.812-41.156t41.438-15.375q24.188 0 36.375 13.031 12.188 13.031 12.188 37.312v11.812h-71.906q0.46875 7.3125 3.0938 12.281 2.625 4.875 6.9375 7.7812 4.2188 2.9063 9.8438 4.2188 5.625 1.2187 12.281 1.2187 5.7188 0 11.25-1.2187 5.5312-1.3125 10.125-3.375 4.0312-1.7813 7.4062-3.8438 3.4688-2.0625 5.625-3.6562h3.4688v27.094q-4.0312 1.5938-7.4062 3-3.2812 1.3125-9.0938 2.7188-5.3438 1.4062-11.062 2.1562-5.625 0.8438-13.781 0.8438zm10.875-69q-0.28125-10.406-4.875-15.844-4.5-5.4375-13.875-5.4375-9.5625 0-15 5.7188-5.3438 5.7187-5.9062 15.562z"/>
  </g>
  <g id="g4567" transform="matrix(.2636 0 0 .2636 394.3 -105.8)" fill="#0c7813">
   <path id="path17" d="m92.152 0.0012689c-3.5518 0.084155-5.7117 4.4177-5.1211 7.6802 2.04 16.43 6.6101 32.481 12.64 47.881 11.63 29.83 28.639 57.12 45.379 84.28 10.22 15.37 25.271 26.82 41.281 35.64 9.71 5.05 18.07 12.309 27.79 17.339 5.61 3.39 7.7894 9.8706 10.649 15.371 4.56 6.39 11.08 11.44 14.3 18.75 1.85 3.97 0.0913 8.2797-1.6787 11.93-2.8 5.23-4.7106 10.96-8.3906 15.68-5.64 7.19-13.33 12.661-21.69 16.261-2.74 1.54-4.5695 4.2895-5.9795 7.0195-3.42 7.2-4.6006 15.2-5.6206 23.03-0.35 1.71 0.0995 3.4001 0.43945 5.0801 4.03-1.97 7.291-5.6008 11.981-6.0908 7.58-0.99 14.61-4.0604 21.82-6.4204 10.69-3.68 22.249-5.7889 31.509-12.649 3.41-2.41 8.5005-2.131 10.98 1.459 7.07 10.17 16.091 19.101 26.801 25.411 1.9 0.97 4.8496 2.4201 6.3896 0.12012-0.65-3.27-3.1205-5.8207-5.7305-7.7007-5.98-4.21-12.01-8.6097-16.49-14.47-1.9-2.49-2.7704-6.1099-1.1104-8.9399 2.04-3.42 5.9299-4.9495 9.3999-6.4995 5.5-2.11 9.7304-6.9399 15.71-7.8999 4.79-0.68 9.6194-2.0004 13.589-4.8604 6.69-4.64 13.55-9.0297 20.36-13.49 2.33-1.41 3.321-4.0897 5.231-5.9297 2.83-1.31 3.809 2.3299 4.919 4.1499-1.04 3.52-1.6089 7.5396 0.39111 10.83 1.49 2.36 2.199 5.0296 1.979 7.8296-0.74001 0.43-2.2087 1.3-2.9487 1.73 2.04 1.46 4.3997 2.5003 6.2197 4.2803-0.49 1.83-1.5399 3.4399-2.3599 5.1299 1.79 3.29 5.3702 4.7408 7.9102 7.3008 2.26 1.87-0.13067 5.6988 2.5693 7.2788 5.61 3.97 12.75 4.4508 19.25 6.0308 1.68 0.37 2.2506 2.1304 3.0806 3.4204-3.54 1.23-7.8603 1.779-9.8203 5.439 3.1 1.99 7.2008 2.3012 9.8408 4.9512 1.93 3.51-3.8601 5.679-2.8301 9.249 2.01 2.27 6.2994 3.501 5.6894 7.251-0.36 2.99-3.08 4.4788-5.25 6.0688 1.15 0.48999 2.3207 0.96993 3.4907 1.4399 0.78 1.53 1.4794 3.1004 2.1694 4.6904-3.16 0.93-6.5403 0.97998-9.5303-0.52002-5.15-2.05-11.04-1.33-16-4.04-4.74-2-7.8787-7.0698-13.389-7.2598 0.37999 4.92 5.3289 7.3502 8.8389 9.9902 3.13 2.59 7.7498 1.4801 10.84 4.1001 2.36 1.65 3.8811 4.289 6.3911 5.729 3.65 1.45 7.6297 1.8906 11.18 3.6606-1.15 0.92-2.3395 2.4196-4.0195 1.8296-10.93-1.95-20.77-7.7096-29.55-14.29-3.16-2.56-8.7309-1.79-9.9009 2.48-1.67 6.14 3.5601 11.15 8.0801 14.38 21.27 14.74 45.801 23.84 70.421 31.27 4.13 1.15 8.3988 2.8502 12.759 1.9102 2.54-0.93 4.4412-3.9013 3.2812-6.5713-1.45-5.42-8.0901-7.09-9.5801-12.52-1.81-6.74-8.06-11.21-14.25-13.61-4.05-0.73001-8.3611-1.6495-11.121-4.9995-4.5-4.56-1.8088-11.43-3.5288-16.98-0.48-4.93-4.1802-8.8698-4.2202-13.84-0.39999-5.07-2.2704-9.9398-2.2104-15.05-0.03-3.04 0.0796-6.55-2.3804-8.77-4.51-4.71-11.63-4.5302-16.77-8.2002-5.63-3.9-9.8105-10.209-10.23-17.149-0.87-9.66-5.1601-18.501-7.3301-27.861-0.47001-2.3-0.74959-5.5687 1.9204-6.6387 3.51-0.54 7.0906 9e-3 10.641-0.16113 10.04 0.29999 20.129-1.35 30.139 0 3.58 0.78999 7.5706-0.50913 9.6606-3.5991 5.25-7.89 5.6993-17.601 7.0693-26.681 1.09-5.2-5.42-5.9199-7.04-9.9199-2.03-2.49-1.2198-6.1093-3.3398-8.5093-1.71-1.8-1.6604-4.3709-1.9204-6.6709-2.21-2.05-5.3891-2.2199-7.8091-3.8599-0.36-2.4 0.43014-5.3492-1.6099-7.1792-1.9-2.25-6.2308 0.17885-7.3008-2.9312 0.07-2.54 1.4411-4.8398 1.8911-7.3198-3.85-0.22-7.54 3.1202-11.25 1.6802-3-3.29 2.2295-7.5898 0.4995-11.24-2.23-0.34-3.7009 1.4998-5.1709 2.8198-3.03 2.9-7.1694 4.6808-11.399 4.5308 1.01-5.55 8.5201-7.8501 7.3301-14.08-5.73-0.19999-9.5395 4.5589-13.02 8.3789-7.06 7.43-13.59 15.431-18.64 24.371-1.93 3.41-4.6305 7.3998-9.0205 7.3198-5.03-0.39-8.1296-4.7896-11.58-7.8896-11.92-9.8-24.551-18.73-36.321-28.72-17.42-14.56-35.22-28.671-52.03-43.951-2.96-3.09-7.8892-4.1999-11.909-2.9399-5.3 2.84-4.3407 9.6202-5.9707 14.49-3.57 5.55-10.93 6.04-16.8 7.27-5.57 1.71-11.589 1.171-17.029-0.76905-2.03-2.44-3.8406-5.8509-7.3506-6.2109-4.2-0.68001-7.8901 2.3008-12.06 2.0508-2.6-0.08-6.87-0.26016-6.98 3.3398 1.03 3.44 2.9299 6.7799 1.4399 10.44-3.06 0.82001-6.0597-0.59953-7.6597-3.2695-8.1-12.26-14.641-25.551-19.811-39.311-1-2.24-0.67004-4.7308-0.29004-7.0708 6.7 1.61 6.5097 11.12 13.72 11.95 0.52-2.39 0.0905-4.8201-1.2495-6.8701-6.18-10.43-11.811-21.209-16.641-32.339-5.31-11.46-8.7891-23.65-13.289-35.41-0.42-2.59-0.34096-5.8601-2.981-7.3301-2.2-0.83-4.6496-0.61969-6.8496-1.4297-2.51-0.94-3.4203-3.9205-5.7803-5.0405-0.24875-0.03375-0.49124-0.046628-0.72802-0.041018zm138.28 105.86c2.85 3.19 0.74046 7.3694-0.26953 10.879-1.61 1.39-4.0898 0.15978-3.7998-1.9702-0.74-3.57 0.55934-7.3992 4.0693-8.9092zm9.5654 13.772c2.2535-0.10067 1.9579 2.4472 2.0142 4.2378-1.6 1.33-3.1686 2.6888-4.7886 3.9888-1.27-2.94-1.2404-6.9294 2.2896-8.1694 0.17375-0.0313 0.33463-0.0504 0.48487-0.0571zm9.3852 7.5776c3.66 2.13-0.97972 5.1997-2.4697 7.1396-2.45-1.95-0.37027-7.0096 2.4697-7.1396zm11.416 8.042c1.6283-0.13372 3.0835 2.7937 2.0434 4.248-1.31 2.18-2.16 5.1101-4.5 6.3501-1.24 0.55-3.9992 0.52922-3.8892-1.3008-0.09-3.64 2.7792-6.3602 5.2192-8.6602 0.36563-0.4125 0.75072-0.60636 1.1265-0.63721zm-53.706 146.03a2.8001 2.3662 0 0 1 2.7993 2.3657 2.8001 2.3662 0 0 1-2.7993 2.3672 2.8001 2.3662 0 0 1-2.8008-2.3672 2.8001 2.3662 0 0 1 2.8008-2.3657zm199.25 81.125c1.3769-0.0142 2.5351 1.732 3.6401 2.4551 3.03 3.27 8.3006 1.561 11.331 4.831-1.31 0.71-2.4804 2.0894-4.1104 1.8794-2.75 0.32-4.6007-2.0901-7.0107-2.8901-2.11-0.26-4.2401-0.2399-6.3501-0.39991-0.01-1.87-0.67975-4.6303 1.5102-5.5503 0.34312-0.225 0.67249-0.32192 0.99023-0.32519z"/>
   <path id="path19" d="m122.58 30.102c2.77-0.69 5.75 1.13 6.51 3.87 1.93 5.19 5.33 9.88 6.13 15.45-1.66 0.05-3.31-0.01-4.96-0.16-1.35-4.58-2.79-9.18-5.11-13.37-0.98-1.87-2.09-3.72-2.57-5.79z"/>
   <path id="path21" d="m136.9 39.552c0.7-1.02 1.41-2.04 2.14-3.04 2.92 2.47 6.61 3.52 10.4 3.4 3.67-0.27 5.18 3.61 7.9 5.25 2.77 0.11 5.56-0.13 8.34-0.13 2.41 2.47 3.42 5.98 5.86 8.39 3.33 1.87 7.32 1.82 10.89 3.03 2.39 7.47 4.76 15.48 3 23.36-1 0.79-2.4 0.56-3.57 0.82-3.08-5.58-1.48-12.26-3.19-18.19-0.55-1.78-2.28-2.71-3.66-3.76-3.03 5.57 1.94 12.42-2.02 17.76-2.4-0.18-3.53-2.81-3.98-4.85-1.22-5.6-1.96-11.29-2.88-16.94-2.1-1.7-4.33-3.41-7.14-3.6-0.28 4.65 0.94 9.18 1.64 13.74 0.67 1.9-0.27 3.68-1.46 5.13-3.14-3.7-2.96-8.86-4.27-13.31-0.72-4.62-2.13-9.88-6.9-11.87-2.53 3.51-0.77 7.72-0.5 11.6-1.54-0.27-3.05-0.66-4.52-1.15-1.04-5.55-2.93-10.93-6.08-15.64z"/>
   <path id="path23" d="m192.16 63.882c2.32 1.48 4.4 3.44 5.77 5.85 0.36 2.31 0.41 4.67 0.63 7 4.3 1.49 9.65 3.13 11.17 7.98 0.45 4.66-0.51 9.34-0.86 13.99-0.04 1.95-1.62 3.26-2.77 4.64-0.98-0.81-2.1-1.49-2.81-2.56-1.34-6.11 1.65-12.56-0.73-18.52-1.77-0.14-3.55-0.18-5.32-0.11-1.04 1.94-2.12 3.93-3.99 5.2-0.47-2.86-0.56-5.77-0.3-8.66 0.46-5.01-2.46-9.82-0.79-14.81z"/>
   <path id="path25" d="m126.72 241.23c2.01-2.26 5.4-2.31 7.88-0.81 6.03 3.37 10.49 8.95 14.14 14.71 2.59 4.01 4.04 8.76 3.93 13.55-0.27 9.77 3.13 19.67 9.73 26.92 2.1 1.48 4.83 1.74 7.26 2.45 7.08 1.41 14.24 2.46 21.23 4.35-0.56 1.52-1.11 3.04-1.65 4.57-7.39-0.87-14.81-1.84-21.94-4.11-5.72-2-12.06-2.67-17.95-1.01-4.69 1.36-7.94 5.29-12.26 7.39-8.7 4.43-18.07 7.38-27.55 9.65-7.8 1.65-16.34 3.91-23.97 0.36-3.14-1.43-7.09-4.27-5.92-8.25 1.59-3.98 5.98-5.45 9.1-7.95 5.05-3.9 10.97-6.41 16.96-8.49-7.1-0.96-14.17-2.49-21.37-2.31-2.83 8.25-7.26 16.01-13.44 22.2-6.47 7.02-14.52 12.31-22.65 17.2-4.06 1.81-8.56 2.48-12.97 2.76-3.35 0.37-7.49-1.97-7-5.77 0.62-4.8 3.31-9 5.83-13.02 4.19-6.69 10.15-11.96 16.38-16.69-1.59-0.79-3.25-2.46-5-1.06-9.69 4.82-20.44 7.4-31.25 7.64-4.65-0.15-9.74-1.28-12.98-4.87-2.45-3.24-1-7.75 1.54-10.47 5.25-5.73 12.86-8.56 20.28-10.2 10.79-2.34 22.15-0.05 31.88 4.91 2.8 1.39 5.4 3.21 8.37 4.27 1.36-0.38 2.69-0.86 3.98-1.45-5.38-3.64-11.12-6.85-17.16-9.25-5.08-2.18-10.94-1.24-15.9-3.76-6.32-3.02-11.07-8.93-13.24-15.53-1.26-5.06-0.82-10.97 2.73-15.04 1.89-2.14 4.51-4.23 7.54-3.96 1.69 0.27 3.19 1.16 4.76 1.8 3.8 2.01 8.58 0.03 12.15 2.82 10.92 7.04 18.03 19.23 20.45 31.85 0.87 3.44-0.6 8.26 3.04 10.41 2.71 1.01 5.7 0.44 8.53 0.57 15.64-0.22 31 3.24 46.46 5.1-6.09-4.43-12.75-8.09-18.41-13.08-3.77-3.44-7.07-7.98-7.22-13.27 1.74-5.14 6.76-9.16 12.18-9.71 2.66-0.3 5.28 1.47 6.04 4.04 3.8 9.93 9.25 19.66 17.93 26.12 3.68 2.65 7.35 5.91 12.06 6.36-0.25-3.17-3.51-4.11-5.68-5.73-10.88-7.17-20.13-18.35-21.33-31.74-0.79-5.2 1.02-10.58 4.48-14.47z"/>
   <path id="path27" d="m308.66 291.72c0.97-2.51 3.89-4.47 6.57-3.27 5.09 1.75 9.77 4.89 13.54 8.72 6.68 9.86 10.69 21.55 11.29 33.46 0.52 6.53-1.06 13.48 1.79 19.64 3.42 6.53 9.29 11.34 15.18 15.57 15.02 10.02 31.51 17.49 47.63 25.51 10.12 6.19 20.27 12.34 30.46 18.41-6.54 2.27-13.2 4.19-19.75 6.44-11.44-8.44-22.85-16.92-34.27-25.38-9.64-6.39-19.39-12.61-28.99-19.05-2.09-1.31-4.16-3.07-6.79-2.85-5.41-0.1-11.33 0.01-16.01 3.09-2.18 1.8-3.24 4.57-5.07 6.69-5.31 6.87-12.81 11.88-20.9 14.89-1.45 0.47-3.04 1.21-4.52 0.45-5.26-1.9-10.7-3.24-16.16-4.41-9.27 2.79-19.4 2.72-28.53-0.55-5.07-1.95-10.73-5.59-10.65-11.71 3.66-0.99 7.71-1.2 10.84-3.56 4.3-3.59 10.76 0.61 14.96-3.18 7.55-5.63 16.66-9 25.94-10.29 8.06-0.17 15.94 2.03 23.48 4.7 5.26 1.31 11.07 1.84 16.25-0.12-2.06-8.4-12.4-10.57-19.82-9.4-14.79 2.94-29.73 5.87-44.88 5.92-4.45-0.14-9.24-0.06-13.2-2.42-2.13-1.39-4.29-3.57-4.11-6.31 0.18-3.97 3.39-6.92 6.6-8.78 7.39-4.11 15.95-5.11 24.23-5.9-9.01-3.75-18.27-6.89-27.14-10.98-8.59-3.11-18.92-5.2-27.2-0.18-2.76 1.85-6.18-0.12-9.11 1.17-1.96 0.57-3.58 2.48-2.9 4.61 2.51 8.49 1.69 17.61-0.18 26.15-2.62 11.51-10.89 21.14-21.09 26.77-3.09 1.68-7.05 1.9-10.12 0.09-5.99-3.46-7.97-12.36-3.74-17.89 6.1-6.63 13.38-12.02 19.98-18.12 4.79-4.6 9.49-9.74 11.32-16.29-9.8 7.03-16.46 17.33-24.76 25.91-3.56 3.67-7.38 7.94-12.73 8.66-5.71 0.82-11.59 2.39-17.33 0.94-3.96-1.06-6.88-5.06-6.09-9.19 1.78-12.9 11.96-23.3 23.69-28.1 12.34-5.07 25.95-4.58 38.94-6.57 4.26-0.74 8.68-1.73 12.24-4.32 0.99-2.32-2-3.03-3.54-3.72-8.01-2.34-15.98-4.88-23.76-7.89 1.72-1.46 3.34-3.07 5.25-4.29 2.23 0.05 4.28 1.04 6.4 1.63 8.37 2.73 16.98 4.88 24.94 8.74 7.39 3.65 15.83 3.58 23.89 3.84 4.89 5.27 12.14 6.9 18.64 9.29 14.09 4.89 28.9 9.84 39.97 20.29 1.65 1.04 3.89 1.79 5.65 0.5-0.71-4.53-5.57-6.59-7.88-10.22-6.15-9.15-7.56-20.45-8.59-31.17-0.33-5.3-1.63-10.79 0.14-15.97z"/>
   <path id="path29" d="m128.2 316.63c2.52-1.83 4.65-4.75 8.11-4.49 0.74 1.75 1.78 3.47 1.82 5.43 0.35 11.4-2.92 22.74-8.57 32.59-2.49 4.64-5.9 9.61-11.35 10.91-3.35 0.71-6.28-2.02-7.19-5.05-1.84-5.89-1.02-12.21-0.02-18.18 1.36-5.95 3.17-12.27 7.56-16.73 2.55-2.79 6.89-2.01 9.64-4.48z"/>
   <path id="path31" d="m85.401 327.79c8.75-4.27 18.49-6.05 28.09-7.1-6.56 12.4-12.84 25.23-22.46 35.61-3.61 3.76-8.41 7.11-13.84 6.92-4.98 0.09-8.88-4.79-8.82-9.54-0.85-11.22 7.4-21.16 17.03-25.89z"/>
  </g>
 </g>
</svg>
