<svg id="b" width="818.22pt" height="313.27pt" version="1.1" viewBox="0 0 818.22 313.27" xmlns="http://www.w3.org/2000/svg">
 <defs id="c">
  <linearGradient id="a" x1="856.26" x2="1042" y1="485.29" y2="485.29" gradientTransform="matrix(.75 0 0 .75 -62.261 -102.89)" gradientUnits="userSpaceOnUse">
   <stop id="d" stop-color="#fefefe" offset="0"/>
   <stop id="e" stop-color="#e8e8e8" offset="1"/>
  </linearGradient>
 </defs>
 <path id="f" d="m16.059 209.49c3.54-0.52 7.13-0.24 10.69-0.3 104.68 0 209.36 0.04 314.05 0.01 6.27-0.73 12.59-0.41 18.9-0.47 146.67 0.01 293.34-0.01 440.01 0 5.1-0.2 9.45 3.28 12.19 7.3 4.59 6.75 6.32 15.07 6.32 23.14 0 14.64 0.01 29.28 0 43.93-0.05 8.22-1.9 16.74-6.79 23.49-2.71 3.7-6.89 6.82-11.67 6.65-150.33 0.04-300.66-0.02-451 0.03-14.64-0.94-29.34-0.27-44.01-0.47-95.01-0.01-190.03 0.02-285.05 0-10.54 0.28-19.98-9.17-19.69-19.71 0.02-21.69-0.05-43.39 0.03-65.08 0.18-8.91 7.24-17.03 16.02-18.52" fill="#0f8942"/>
 <path id="g" d="m351.81 213.16c4.69 3.88 7.7804 9.7394 7.6304 15.899 0 21.36 0.01 42.711-0.0103 64.061 0.1 6.11-3.0011 11.889-7.6611 15.719 121.65-0.15 243.3 0.0899 364.96 0.10986 10.8-0.18 21.65 0.35123 32.42-0.23877 16.54 0.35 33.099 0.0394 49.649 0.14942 3.88 0.24 7.5995-1.6706 10.02-4.6406 4.89-5.82 6.6097-13.639 6.7397-21.079 0.0398-14.34-0.01-28.671 0.0203-43.011 0.0398-6.42-1.0592-12.999-4.1792-18.669-1.89-3.43-4.7007-6.5299-8.4507-7.8999-37.39-0.39-74.829-0.13979-112.24-0.27978-112.97-0.12-225.93-0.0501-338.9-0.12012z" fill="url(#a)"/>
 <g id="h" transform="translate(-62.261 -102.89)" fill="#0f8942">
  <path id="i" d="m504.27 335.28c6.24-1.08 13.34-1 18.68 2.85 4.56 3.36 6.02 9.44 5.63 14.84-0.59 6.88-2.61 13.67-5.9 19.74-4.42 8.04-12.47 14.38-21.74 15.41-5.54 0.54-11.6 0.41-16.42-2.69-4.93-3.37-6.61-9.81-6.21-15.48 0.49-6.63 2.46-13.15 5.6-19.01 4.18-7.76 11.59-13.98 20.36-15.66m-0.04 11.99c-5.1 1.61-7.99 6.66-9.53 11.47-1.33 4.47-2.92 9.39-1.4 14 1.57 4.07 6.9 4.37 10.4 2.86 5.4-2.31 7.56-8.31 9.1-13.53 0.99-3.92 2.29-8.33 0.38-12.17-1.69-3.11-5.85-3.67-8.95-2.63z"/>
  <path id="j" d="m574.35 335.59c6.17 0.03 12.33 0 18.5 0.02-4.58 17.28-9.14 34.57-13.72 51.85-3.85 0.01-7.7 0.01-11.55 0 3.4-12.96 6.97-25.88 10.21-38.87-6.45 12.9-12.77 25.87-19.08 38.84-3.51 0.05-7.02 0.04-10.52 0.04 0.35-13.04 1.21-26.07 1.32-39.11-3.31 13.06-6.86 26.07-10.28 39.11-3.85-0.01-7.7-0.01-11.55-0.02 4.66-17.27 9.11-34.6 13.8-51.87 6.16 0.07 12.32 0.01 18.48 0.04-0.27 10.48-0.77 20.96-1.13 31.44 5.26-10.45 10.28-21.01 15.52-31.47z"/>
  <path id="k" d="m663.99 335.62c5.21-0.06 10.41-0.02 15.62-0.04 1.1 17.31 2.46 34.6 3.35 51.92-4.91-0.02-9.81-0.03-14.71-0.01-0.02-2.87-0.02-5.74-0.03-8.61-5.33 0.23-10.8-0.48-16.03 0.33-1.72 2.62-2.97 5.5-4.46 8.24-4.85 0.05-9.68 0.02-14.52 0.02 10.27-17.28 20.57-34.54 30.78-51.85m-5.77 32.03c3.29-0.02 6.59-0.02 9.9 0.05 0.12-6.02 0.11-12.04-0.08-18.06-3.57 5.84-6.48 12.04-9.82 18.01z"/>
  <path id="l" d="m837.95 335.57c4.05-0.03 8.1-0.07 12.16 0.03 1.14 0.02 2.29 0.06 3.46 0.1 1.08 17.24 2.32 34.48 3.41 51.73h-14.72c-0.03-1.16-0.04-2.31-0.05-3.46-0.02-1.64-0.02-3.27 0-4.9-5.31 0.31-10.68-0.64-15.93 0.14-1.8 2.55-3.03 5.45-4.44 8.23-4.91 0.13-9.81 0.08-14.72 0.07 10.27-17.32 20.6-34.6 30.83-51.94m-5.78 32.14c3.3 0 6.61 0 9.92 0.05 0.17-6.22 0.07-12.44-0.01-18.65-3.36 6.17-6.68 12.36-9.91 18.6z"/>
  <path id="m" d="m432.08 387.45c4.58-17.28 9.13-34.56 13.73-51.83 4.7 0 9.4-0.01 14.1 0.01-3.45 13.01-6.85 26.04-10.35 39.04 7.36 0.11 14.71 0.02 22.07 0.04-1.11 4.26-2.22 8.51-3.37 12.75-12.06-0.01-24.12 0.01-36.18-0.01z"/>
  <path id="n" d="m588.13 387.47c4.55-17.29 9.14-34.58 13.72-51.87 9.04 0.03 18.08-0.05 27.12 0.03 3.99-0.13 8.44 1.85 9.58 5.97 2.02 7.49-3.06 15.58-10.13 18.22 2.77 1.13 5.7 3.02 6.23 6.23 1.38 9.43-5.84 19.74-15.55 20.71-10.25 1.44-20.66 0.4-30.97 0.71m25.13-41.29c-0.82 3.23-1.67 6.46-2.54 9.68 3.24-0.11 6.61 0.41 9.77-0.55 2.94-1.24 5.16-5.9 2.65-8.44-3.1-1.3-6.61-0.55-9.88-0.69m-5.19 19.66c-0.89 3.5-1.83 6.98-2.75 10.48 4.17-0.31 8.85 0.91 12.61-1.38 2.37-1.71 4.24-6.06 1.57-8.26-3.59-1.53-7.65-0.66-11.43-0.84z"/>
  <path id="o" d="m687.64 387.48c4.71-17.28 9.14-34.63 13.82-51.92 8.51 0.07 17.02-0.04 25.54 0.05 3.34 0.14 7.08 0.29 9.8 2.53 3.26 2.92 3.2 7.86 2.15 11.78-1.64 6.95-7.2 12.78-14.14 14.55 2.32 1.66 4.04 4.05 4.72 6.85 1.29 5.35 2.1 10.79 3.17 16.19-5.34-0.02-10.68-0.02-16.02-0.01-1.39-6.1-2.35-12.3-4-18.33-0.44-2.37-3.12-2.65-5.05-2.95-1.9 7.07-3.8 14.15-5.6 21.25-4.8 0.04-9.6 0.02-14.39 0.01m25.27-41.37c-0.89 3.51-1.84 7.01-2.78 10.51 3.93-0.08 8.27 0.47 11.77-1.68 2.25-1.82 4.02-6.11 1.3-8.21-3.3-1.1-6.88-0.48-10.29-0.62z"/>
  <path id="p" d="m751.03 335.62c7.31-0.09 14.62-0.06 21.93-0.04 4.3-0.03 9.1 0.98 11.89 4.54 3.69 4.71 3.53 11.15 2.57 16.75-1.69 8.99-4.85 18.33-11.99 24.48-4.66 4.36-11.16 6.11-17.41 6.15-6.88 0.03-13.76-0.02-20.63 0 4.51-17.3 9.24-34.55 13.64-51.88m11.18 11.73c-2.44 9.46-4.99 18.9-7.47 28.36 4.75 0.09 10.75 0.29 13.48-4.47 3.31-5.76 5.22-12.6 4.96-19.24-0.92-5.09-7.04-4.72-10.97-4.65z"/>
  <path id="q" d="m801.04 335.62c4.81-0.12 9.62-0.05 14.43-0.07-4.5 17.29-9.41 34.48-13.54 51.85-4.84 0.21-9.68 0.08-14.51 0.11 4.53-17.3 9.29-34.54 13.62-51.89z"/>
 </g>
 <g id="r" transform="translate(-62.261 -102.89)" fill="#fefefe">
  <path id="s" d="m95.62 334.63c10.64-5.7 23.57-6.36 35.11-3.3 8.28 2.19 14.98 8.89 17.12 17.19-4.67 0.39-9.33 0.9-14 1.27-1.76-4.3-5.16-8.08-9.77-9.29-7.62-2.07-16.2-0.68-22.73 3.77-6.9 4.89-10.21 13.53-10.49 21.77-0.03 3.81 0.61 7.95 3.19 10.94 2.5 2.9 6.35 4.18 10.06 4.57 7.54 0.78 15.05-1.04 22.14-3.48 0.88-3.1 1.68-6.21 2.42-9.34-6.29 0.01-12.58 0-18.87 0.01 0.84-3.32 1.67-6.64 2.48-9.97 10.97-0.08 21.95-0.02 32.93-0.03-2.22 8.68-4.36 17.39-6.65 26.05-13.13 6.26-28.23 8.77-42.59 6.13-8.72-1.56-16.69-8.04-18.75-16.84-3.72-15.3 4.68-32.13 18.4-39.45z"/>
  <path id="t" d="m232.02 333.06c6.69-3.56 14.54-3.81 21.94-3.33 6.94 0.55 14.32 2.74 18.94 8.26 2.38 2.69 3.47 6.21 4.04 9.7-4.79 0.14-9.58 0.41-14.36 0.57-0.75-2.84-2.04-5.78-4.82-7.16-4.35-2.21-9.52-2.09-14.23-1.32-3.07 0.48-6.38 2.78-6.17 6.23 0.14 2.58 2.45 4.2 4.57 5.2 7.56 3.62 15.88 5.52 23.16 9.73 4.23 2.39 7.08 7.14 6.77 12.05 0.07 6.48-4.63 11.91-10.04 14.9-7.54 4.21-16.5 4.41-24.9 3.85-6.18-0.62-12.61-2.24-17.47-6.31-4.02-3.42-5.54-8.86-5.44-13.98 4.73-0.16 9.46-0.28 14.18-0.63 0.44 3.46 0.97 7.82 4.78 9.19 6.08 2.35 13.17 2.3 19.33 0.24 4.18-1.23 6.61-7.31 2.59-10.14-8.04-4.9-17.82-6.17-25.76-11.33-3.84-2.57-6.43-7.06-6.09-11.75-0.22-5.99 3.89-11.26 8.98-13.97z"/>
  <path id="u" d="m363.5 330.74c10.48-2.16 22.34-1.91 31.49 4.25 5.76 3.78 9.74 10.17 10.26 17.08 1.41 15.39-8.64 30.64-22.82 36.38-9.57 3.96-20.55 4.77-30.54 1.96-7.11-2.19-13.77-7.18-16.34-14.37-3.42-8.41-1.21-17.9 2.59-25.79 4.81-10.03 14.62-17.09 25.36-19.51m3.95 9.95c-11.9 3.31-19.56 16.36-18.56 28.35 0.86 7.73 8.71 12.87 16.12 12.65 15.82 0.59 28.3-16.71 24.77-31.6-2.73-9.15-14.06-11.88-22.33-9.4z"/>
  <path id="v" d="m160.57 330.57c5.01 0.02 10.02 0.01 15.03 0.01-3.6 13.4-7.08 26.84-10.79 40.22-0.46 2.02-1.11 4.38 0.2 6.24 2.37 3.56 6.98 4.45 10.96 4.64 5.59 0.23 11.9-0.48 15.98-4.72 3.11-3.48 4.29-8.16 5.61-12.52 2.92-11.27 5.75-22.56 8.61-33.85 5.04-0.03 10.08-0.02 15.12-0.01-3.09 11.87-6 23.79-9.14 35.65-2.18 7.24-4.97 15.09-11.55 19.49-8.22 5.96-18.83 6.69-28.62 6.06-6.84-0.5-14.07-2.67-18.64-8.08-3.52-3.97-4.47-9.74-3-14.76 3.25-12.83 6.81-25.58 10.23-38.37z"/>
  <path id="w" d="m281.43 340.64c0.8-3.36 1.6-6.72 2.42-10.07 19.22 0 38.44-0.01 57.67 0-0.78 3.37-1.59 6.73-2.43 10.09-7.03 0-14.05-0.03-21.08 0.01-4.18 16.73-8.55 33.42-12.7 50.16-5.06 0.1-10.11 0.03-15.16 0.05 4.27-16.74 8.52-33.48 12.76-50.22-7.16-0.02-14.32 0-21.48-0.02z"/>
 </g>
 <g id="x" transform="matrix(.63794 0 0 .63794 -37.031 -35.235)">
  <path id="y" d="m495.09 57.1c3.91-0.72 7.92-0.57 11.86-1.14 25.07-1.82 50.4-0.25 74.98 5.01 18.64 4.6 37.12 11.65 52.13 23.89 15.61 12.36 26.55 30.1 31.79 49.21 1.04 3.95 2.1 7.91 3.06 11.88l14.73-85.47h171.32c13 0.05 26.01-0.14 39.01 0.21 9.16 0.71 18.28 2.01 27.25 4.06 3.97 1.24 7.86 2.72 11.7 4.34 14.65 6.96 28.48 17.3 35.84 32.14 11.14 21.08 9.53 46.05 5.36 68.77-3.55 15.55-8.29 30.98-16.02 45-8.02 14.94-19.31 28.28-33.44 37.76-17.56 12.58-38.23 20.8-59.64 23.66-13.56 2.11-27.33 1.08-40.98 1.33-21.55-0.03-43.1 0.08-64.64-0.06l0.11 0.86-0.84-0.32-15.27 87.41-113.32-0.03 14.75-85.1c-13.09 25.08-32.68 46.82-56.78 61.72-14.01 8.75-29.44 14.97-45.23 19.7-23.38 6.24-47.6 9.32-71.8 8.79-8.31 0.1-16.67 0.1-24.93-0.82-8.84-0.53-17.55-2.13-26.25-3.71-21.16-4.67-42.3-12.68-58.51-27.49-13.29-11.78-22.49-27.66-27.48-44.62-1.68-6.26-3.09-12.6-4.03-19.02-4.72-42.5 3.92-86 22.22-124.49h-77.27l-37.63 215.04h-113.65l38.01-215.04h-100.13l15.67-90.015h313.67l-8.29 46.665c14.76-14.92 32.49-26.84 51.83-34.96s39.99-13.01 60.84-15.16m-2.26 76.62c-6.44 3.63-12.07 8.62-16.84 14.25-11.72 14.01-17.17 31.93-21.87 49.26l-0.3 0.59c-1.44 6.34-2.98 12.66-4.02 19.08-2.18 16.29-3.31 32.9-0.75 49.22 1.71 10.54 7.76 20.31 16.36 26.59 10.31 6.47 23.42 5.69 34.75 2.75 15.28-4.59 27.34-17.06 34.02-31.27 8.77-17.53 12.69-36.88 15.98-56.05 1.88-11.65 3.37-23.46 2.31-35.27-0.66-11.77-2.49-24.48-10.92-33.41-7.88-9.35-21.06-11.53-32.65-10.65-5.6 0.75-10.96 2.51-16.07 4.91m288.93-2.35-13.36 75.75c13.56-0.07 27.15 0.35 40.69-0.82 10.12-1.33 20.57-2.51 29.78-7.23 10.54-5.71 18.81-15.77 21.39-27.58 2-8.57 3.02-18.69-2.5-26.22-5.12-7.45-14.18-10.67-22.66-12.45-17.71-2.05-35.56-1.3-53.34-1.45z"/>
 </g>
 <g id="z" transform="matrix(.63489 0 0 .63489 -36.113 -33.012)" fill="#d2d2d2">
  <path id="aa" d="m1283.7 58.754 1.5235 2.0164c15.88 21.78 29.85 45.16 39.63 70.35 13.49 33.86 17.86 71.12 13.64 107.27-3.99 37.02-18.89 72.08-38.62 103.36-5.14 8.13-10.76 15.94-16.26 23.83h-35.36c10.35-17.52 20.49-35.26 28.4-54.04 15.3-36.97 21.54-77.53 18.94-117.42-1.82-24.25-5.89-48.87-16.96-70.78-4-7.54-9.35-15.12-17.55-18.42-7.67-3.06-16.02-1.05-23.7 0.86l-10.25-19.97z"/>
  <path id="ab" d="m1167 112.13 45.57-21.12c18.53 31.32 31.73 66.41 34.13 102.95 1.95 24.85 0.08 50.13-6.39 74.24-9.39 35.52-27.71 68-49.45 97.38h-34.85c9.57-17.75 20.36-34.95 27.93-53.7 20.16-48.62 24.82-103.38 13.89-154.82-1.71-8.35-3.33-17.83-10.38-23.49-3.88-3.3-9.23-2.93-13.98-2.91z"/>
  <path id="ac" d="m1099.6 141.78 35.85-15.81c17.44 41.04 21.72 87.39 12.76 131.03-8.09 39.77-28.14 76.05-51.86 108.58h-35.21c12.1-21.56 25.04-42.98 32.96-66.54 11.16-31.32 15.8-64.86 14.58-98.05-0.95-19.99-4.1-39.84-9.08-59.21z"/>
 </g>
</svg>
