<svg width="509.51pt" height="198.96pt" version="1.1" viewBox="0 0 509.51 198.96" xmlns="http://www.w3.org/2000/svg">
 <g transform="translate(-50.121 -83.56)">
  <path d="m60.83 219.1c2.61-0.99 5.44-1.235 8.21-1.355h326.98c4.79 0.02 9.91 0.695 13.65 3.985 4.31 3.34 6.27 8.97 6.06 14.3-0.07 10.31 0.05 20.63-0.07 30.94-0.18 7.23-5.8 13.21-12.39 15.5h-334.3c-3.13 0.17-6.26-0.1-9.22-1.14-5.35-3.12-9.97-8.82-9.59-15.3-0.07-10.35-0.03-20.71 0-31.07-0.28-6.82 4.25-13.54 10.67-15.86" fill="#0195fe"/>
 </g>
 <g transform="translate(-50.121 -83.56)" fill="#fff">
  <path d="m169.37 224.91 8.125-1.79v11.48h8.8825l0.1 4.035h-8.9825v28.405c0 1.4548-0.17853 3.3397 1.0725 4.27 2.29 1.61 5.2501 1.7179 7.9198 2.15v4.14c-2.0557 0.14819-4.1576 0.16066-6.2212-0.0602-5.4823-0.79568-10.992-2.029-10.896-8.4798v-30.425h-7.0225l0.14-4.035h6.8825z"/>
  <path d="m269.48 225.35 8.83-2.17v14.67c5.63-1.58 11.745-1.97 17.185 0.51 5.11 2.43 8.04 8.1 8.02 13.64v25.395h-8.265v-23.425c-0.24155-12.146-8.6433-16.094-16.94-9.79v33.215h-8.83z"/>
  <path d="m203.29 237.21c6.18-2.03 12.97 0.75 17.2 5.38 3.69 4.86 5.38 11.04 4.95 17.12-9.1 0.26-18.21 0.01-27.31 0-0.06 5.53 3.55 11.24 9.12 12.47 5.06 1.05 9.63-2.07 13.31-5.16l0.13067 5.5c-4.96 4.58-12.461 6.57-18.911 4.32-11.98-5.17-14.92-21.93-8.13-32.29 2.46-3.24 5.59-6.29 9.64-7.34m-5.03 17.2h19.44c-1.8993-18.732-20.191-14.655-19.44 0z"/>
  <path d="m237.37 240.31c4.72-4.01 11.79-4.98 17.31-2.05 2.3784 1.0415 4.3507 2.65 5.9167 4.6424 1.3509 1.7187 2.1341 3.5446 2.7671 5.6976l-6.7738 0.78c-0.76197-6.1763-8.8606-9.6284-13.2-5.89-6.34 5.04-7.19 14.57-4.35 21.72 4.6715 9.4076 12.363 9.2487 17 0.465h6.79c0 6.9903-8.5014 12.097-14.582 12.097-4.7355 0.14154-9.535-1.6357-12.738-5.2422-7.87-8.9-7.45-24.45 1.86-32.22z"/>
 </g>
 <g transform="matrix(.40951 0 0 .40951 -24.553 -22.618)">
  <path d="m495.09 57.1c3.91-0.72 7.92-0.57 11.86-1.14 25.07-1.82 50.4-0.25 74.98 5.01 18.64 4.6 37.12 11.65 52.13 23.89 15.61 12.36 26.55 30.1 31.79 49.21 1.04 3.95 2.1 7.91 3.06 11.88l14.73-85.47h171.32c13 0.05 26.01-0.14 39.01 0.21 9.16 0.71 18.28 2.01 27.25 4.06 3.97 1.24 7.86 2.72 11.7 4.34 14.65 6.96 28.48 17.3 35.84 32.14 11.14 21.08 9.53 46.05 5.36 68.77-3.55 15.55-8.29 30.98-16.02 45-8.02 14.94-19.31 28.28-33.44 37.76-17.56 12.58-38.23 20.8-59.64 23.66-13.56 2.11-27.33 1.08-40.98 1.33-21.55-0.03-43.1 0.08-64.64-0.06l0.11 0.86-0.84-0.32-15.27 87.41-113.32-0.03 14.75-85.1c-13.09 25.08-32.68 46.82-56.78 61.72-14.01 8.75-29.44 14.97-45.23 19.7-23.38 6.24-47.6 9.32-71.8 8.79-8.31 0.1-16.67 0.1-24.93-0.82-8.84-0.53-17.55-2.13-26.25-3.71-21.16-4.67-42.3-12.68-58.51-27.49-13.29-11.78-22.49-27.66-27.48-44.62-1.68-6.26-3.09-12.6-4.03-19.02-4.72-42.5 3.92-86 22.22-124.49h-77.27l-37.63 215.04h-113.65l38.01-215.04h-100.13l15.67-90.015h313.67l-8.29 46.665c14.76-14.92 32.49-26.84 51.83-34.96s39.99-13.01 60.84-15.16m-2.26 76.62c-6.44 3.63-12.07 8.62-16.84 14.25-11.72 14.01-17.17 31.93-21.87 49.26l-0.3 0.59c-1.44 6.34-2.98 12.66-4.02 19.08-2.18 16.29-3.31 32.9-0.75 49.22 1.71 10.54 7.76 20.31 16.36 26.59 10.31 6.47 23.42 5.69 34.75 2.75 15.28-4.59 27.34-17.06 34.02-31.27 8.77-17.53 12.69-36.88 15.98-56.05 1.88-11.65 3.37-23.46 2.31-35.27-0.66-11.77-2.49-24.48-10.92-33.41-7.88-9.35-21.06-11.53-32.65-10.65-5.6 0.75-10.96 2.51-16.07 4.91m288.93-2.35-13.36 75.75c13.56-0.07 27.15 0.35 40.69-0.82 10.12-1.33 20.57-2.51 29.78-7.23 10.54-5.71 18.81-15.77 21.39-27.58 2-8.57 3.02-18.69-2.5-26.22-5.12-7.45-14.18-10.67-22.66-12.45-17.71-2.05-35.56-1.3-53.34-1.45z"/>
 </g>
 <g transform="matrix(.41046 0 0 .41046 -40.527 -22.836)" fill="#d2d2d2">
  <path d="m1283.7 58.754 1.5235 2.0164c15.88 21.78 29.85 45.16 39.63 70.35 13.49 33.86 17.86 71.12 13.64 107.27-3.99 37.02-18.89 72.08-38.62 103.36-5.14 8.13-10.76 15.94-16.26 23.83h-35.36c10.35-17.52 20.49-35.26 28.4-54.04 15.3-36.97 21.54-77.53 18.94-117.42-1.82-24.25-5.89-48.87-16.96-70.78-4-7.54-9.35-15.12-17.55-18.42-7.67-3.06-16.02-1.05-23.7 0.86l-10.25-19.97z"/>
  <path d="m1167 112.13 45.57-21.12c18.53 31.32 31.73 66.41 34.13 102.95 1.95 24.85 0.08 50.13-6.39 74.24-9.39 35.52-27.71 68-49.45 97.38h-34.85c9.57-17.75 20.36-34.95 27.93-53.7 20.16-48.62 24.82-103.38 13.89-154.82-1.71-8.35-3.33-17.83-10.38-23.49-3.88-3.3-9.23-2.93-13.98-2.91z"/>
  <path d="m1099.6 141.78 35.85-15.81c17.44 41.04 21.72 87.39 12.76 131.03-8.09 39.77-28.14 76.05-51.86 108.58h-35.21c12.1-21.56 25.04-42.98 32.96-66.54 11.16-31.32 15.8-64.86 14.58-98.05-0.95-19.99-4.1-39.84-9.08-59.21z"/>
 </g>
</svg>
