<?xml version="1.0" encoding="UTF-8"?>
<svg id="svg44" width="1280pt" height="489.83pt" version="1.1" viewBox="0 0 1280 489.83" xmlns="http://www.w3.org/2000/svg" xmlns:cc="http://creativecommons.org/ns#" xmlns:dc="http://purl.org/dc/elements/1.1/" xmlns:rdf="http://www.w3.org/1999/02/22-rdf-syntax-ns#">
 <metadata id="metadata50">
  <rdf:RDF>
   <cc:Work rdf:about="">
    <dc:format>image/svg+xml</dc:format>
    <dc:type rdf:resource="http://purl.org/dc/dcmitype/StillImage"/>
    <dc:title/>
   </cc:Work>
  </rdf:RDF>
 </metadata>
 <g id="#ffc801ff" transform="translate(-59.995 -55.233)">
  <path id="path35" d="m96.44 383.6c5.17-0.55 10.39-0.265 15.58-0.325h807c8.45 0.09 17.22-0.725 25.29 2.395 12.67 4.47 22.88 15.37 26.34 28.38 1.53 5.15 1.66 10.58 1.58 15.92v65.97c0.05 6.71 0.2 13.61-2.11 20.03-4.14 13.34-15.46 24.13-29 27.59-6.56 1.85-13.41 1.4-20.13 1.45h-802.99c-11.08-0.27-22.8 1.35-33.15-3.58-14.66-6.15-24.935-21.49-24.855-37.4v-81.09c0.43-19.68 16.955-37.24 36.445-39.34" fill="#ffc801"/>
 </g>
 <path id="path8" d="m553.01 354.49c8-0.33 16.01-0.09 24.02-0.16 8.14 0.11 16.56-0.48 24.32 2.5 7.04 2.73 13.91 7.3 17.2 14.35 4.02 9.65 5.48 20.19 5.11 30.6-0.37 12.32 1.25 25-2.44 36.97-1.2 4.14-2.37 8.47-5.15 11.88-6.49 8.04-16.81 12.5-27.06 12.65-11.33 0.23-22.66 0.1-33.98 0.07-11.18 0.01-22.95-4.66-29.44-14.06-3.39-5.93-5.04-12.71-6.08-19.41-0.98-14.06-1.02-28.21 0.04-42.27 1.57-8.74 3.51-18.58 10.9-24.39 6.24-5.44 14.34-8.33 22.56-8.73m-3.2 29.19c-0.87 3.28-1.665 6.62-1.535 10.05v33.09c-0.01 3.55 1.145 7.97 4.975 9.17 7.71 2.3 15.91 1.65 23.86 1.65 5.65-0.3 12.54 0.18 16.21-5.06 0.31-1.3 0.64764-2.59 0.97764-3.87v-36.094c-0.14952-2.6985-0.44625-5.3824-1.0776-8.0357-5.03-5.15-12.66-4.18-19.19-4.44-8.13 0.13-17-1.06-24.22 3.54z" fill="#fff"/>
 <path id="path10" d="m103.12 358.29c7.37-2.59 15.26-2.05 22.92-2.12h27c4.0442 0.0562 8.44 0.64344 8.44 3.52v18.16c-0.32457 3.2359-5.4115 3.0655-8.3525 3.1829-3.7051 0.13983-7.4367-0.0499-11.138 0.0121h-24.08c-3.73-0.09-7.05 2.765-8.35 6.115-1.91 5-1 10.44-1.2 15.66 0.16853 8.6218-0.3081 17.275 0.14035 25.89 0 4.7546 5.0294 7.3156 8.4296 7.3701 12.981 0.29524 25.997-0.21819 38.983 0.18751 3.057-0.37815 5.4321 1.1042 5.4321 3.2025v17.266c-0.37598 4.3795-3.2546 3.692-6.7407 3.9407-9.8341 0.6907-19.746-0.0583-29.595 0.24291-10.82 0.34-22.36-0.55-31.54-6.86-7.15-5.41-13-13.33-14.21-22.36-0.26-13.66 0.01-27.34-0.12-41-0.15-6.33 1.13-12.88 4.63-18.24 4.71-6.65 11.53-11.79 19.35-14.17z" fill="#fff"/>
 <path id="path12" d="m290.41 358.95c0-1.2544 2.705-2.61 4.585-2.66h19.08c3.6833 0 5.555 2.511 5.555 5.41v74.415h42.465c2.17-0.08 6.0966 0.0595 6.25 1.355 0.62 6.6 0.7 13.3 0.21 19.91-0.58 3.57-4.97 3.19-7.67 3.49h-36.89c-8.37-0.16-17.37-0.6-24.49-5.51-6.5-4.59-9.255-12.88-9.095-20.57z" fill="#fff"/>
 <path id="path10-1" d="m402.72 358.25c7.37-2.59 15.26-2.05 22.92-2.12h27c4.0442 0.0562 8.44 0.64344 8.44 3.52v18.16c-0.32457 3.2359-5.4115 3.0655-8.3525 3.1829-3.7051 0.13983-7.4367-0.0499-11.138 0.0121h-24.08c-3.73-0.09-7.05 2.765-8.35 6.115-1.91 5-1 10.44-1.2 15.66 0.16853 8.6218-0.3081 17.275 0.14035 25.89 0 4.7546 5.0294 7.3156 8.4296 7.3701 12.981 0.29524 25.997-0.21819 38.983 0.18751 3.057-0.37815 5.4321 1.1042 5.4321 3.2025v17.266c-0.37598 4.3795-3.2546 3.692-6.7407 3.9407-9.8341 0.6907-19.746-0.0583-29.595 0.24291-10.82 0.34-22.36-0.55-31.54-6.86-7.15-5.41-13-13.33-14.21-22.36-0.26-13.66 0.01-27.34-0.12-41-0.15-6.33 1.13-12.88 4.63-18.24 4.71-6.65 11.53-11.79 19.35-14.17z" fill="#fff"/>
 <path id="path16" d="m476.27 357.68c7.7621-2.1476 20.605-2.1518 28.18-0.13 0.6 5.06 0.4 4.1702 0.42 9.2502v75.96c-0.02 5.48 0.16 10.98-0.32 16.45-6.2135 2.829-23.26 2.3877-28.47-0.09-0.64-5.09-0.4-10.23-0.42-15.34v-76.98c-0.03-3.05 0.16-6.1002 0.61-9.1202z" fill="#fff"/>
 <path id="path18" d="m212.27 358.22c7.03-2.15 14.51-2.12 21.78-1.7 4.59 0.51 9.57 0.95 13.36 3.88 2.58 2.01 3.73 5.22 4.83 8.19 9.81 27.9 19.44 55.86 29.27 83.75 0.63 1.81 0.98 3.7 1.27 5.59 0.0588 1.3499-1.0278 2.3054-2.23 2.52-7.82 0.58-15.72 0.76-23.54 0.11-2.58-0.05-4.09-2.45-4.82-4.63-2.43-6.92-4.85-14.125-7.04-21.125h-34.42c-2.29 6.97-4.8 13.575-7.15 20.525-0.84 2.47-2.8202 5.1515-5.44 5.33-7.03 0.41-14.13 0.44-21.16-0.03-2.2809 0-4.5-1.715-4.5-3.4 10.13-29.69 20.85-59.17 31.1-88.82 1.34-4.37 4.11-8.76 8.69-10.19m7.47 50.89 16.11-0.04-8.055-23.78z" fill="#fff"/>
 <path id="path20" d="m672.8 356.65 39.17 2.5e-4c8-0.18 16.21 2.46 21.7 8.49 8.23 7.86 9.11 20.21 7.38 30.83-0.94 5.82-4.22 11.44-9.53 14.27-9.47 5.35-20.15 7.92-30.24 11.79-3.14 1.28-6.53 2.85-8.3 5.91-0.85 4.98-0.26 10.145-0.31 15.185h47.205v17.815h-70.125c0-13.154-0.83-23.51 0.74-35.11 1.47-10.57 10.69-18.09 20.33-21.25 9.32-3.38 19.86-4.75 27.59-11.44 1.7399-1.3674 2.7261-3.2528 3.1578-5.304 0.68705-4.2203-0.15066-8.3402-3.368-10.973-2.7091-2.1734-6.086-2.165-10.18-2.1581h-35.22z" fill="#fff"/>
 <path id="path22" d="m794.47 357.37c2.36-0.93 5.02-0.66 7.53-0.76 7.27 0.14 14.935-0.72 21.935 1.78v63.8h8.8v18.215h-8.8v20.67h-21.948v-20.67h-53.442v-25.075l40.025-50.94c1.94-2.35 3.58-4.99 5.9-7.02m-22.68 64.82h30.198v-41.29z" fill="#fff"/>
 <g id="#000000ff" transform="translate(-59.995 -55.233)" fill="#fff">
  <path id="path25" d="m495.09 57.1c3.91-0.72 7.92-0.57 11.86-1.14 25.07-1.82 50.4-0.25 74.98 5.01 18.64 4.6 37.12 11.65 52.13 23.89 15.61 12.36 26.55 30.1 31.79 49.21 1.04 3.95 2.1 7.91 3.06 11.88l14.73-85.47h171.32c13 0.05 26.01-0.14 39.01 0.21 9.16 0.71 18.28 2.01 27.25 4.06 3.97 1.24 7.86 2.72 11.7 4.34 14.65 6.96 28.48 17.3 35.84 32.14 11.14 21.08 9.53 46.05 5.36 68.77-3.55 15.55-8.29 30.98-16.02 45-8.02 14.94-19.31 28.28-33.44 37.76-17.56 12.58-38.23 20.8-59.64 23.66-13.56 2.11-27.33 1.08-40.98 1.33-21.55-0.03-43.1 0.08-64.64-0.06l0.11 0.86-0.84-0.32-15.27 87.41-113.32-0.03 14.75-85.1c-13.09 25.08-32.68 46.82-56.78 61.72-14.01 8.75-29.44 14.97-45.23 19.7-23.38 6.24-47.6 9.32-71.8 8.79-8.31 0.1-16.67 0.1-24.93-0.82-8.84-0.53-17.55-2.13-26.25-3.71-21.16-4.67-42.3-12.68-58.51-27.49-13.29-11.78-22.49-27.66-27.48-44.62-1.68-6.26-3.09-12.6-4.03-19.02-4.72-42.5 3.92-86 22.22-124.49h-77.27l-37.63 215.04h-113.65l38.01-215.04h-100.13l15.67-90.015h313.67l-8.29 46.665c14.76-14.92 32.49-26.84 51.83-34.96s39.99-13.01 60.84-15.16m-2.26 76.62c-6.44 3.63-12.07 8.62-16.84 14.25-11.72 14.01-17.17 31.93-21.87 49.26l-0.3 0.59c-1.44 6.34-2.98 12.66-4.02 19.08-2.18 16.29-3.31 32.9-0.75 49.22 1.71 10.54 7.76 20.31 16.36 26.59 10.31 6.47 23.42 5.69 34.75 2.75 15.28-4.59 27.34-17.06 34.02-31.27 8.77-17.53 12.69-36.88 15.98-56.05 1.88-11.65 3.37-23.46 2.31-35.27-0.66-11.77-2.49-24.48-10.92-33.41-7.88-9.35-21.06-11.53-32.65-10.65-5.6 0.75-10.96 2.51-16.07 4.91m288.93-2.35-13.36 75.75c13.56-0.07 27.15 0.35 40.69-0.82 10.12-1.33 20.57-2.51 29.78-7.23 10.54-5.71 18.81-15.77 21.39-27.58 2-8.57 3.02-18.69-2.5-26.22-5.12-7.45-14.18-10.67-22.66-12.45-17.71-2.05-35.56-1.3-53.34-1.45z" fill="#fff"/>
 </g>
 <g id="#d2d2d2ff" transform="translate(-59.995 -55.233)" fill="#d2d2d2">
  <path id="path28" d="m1283.7 58.754 1.5235 2.0164c15.88 21.78 29.85 45.16 39.63 70.35 13.49 33.86 17.86 71.12 13.64 107.27-3.99 37.02-18.89 72.08-38.62 103.36-5.14 8.13-10.76 15.94-16.26 23.83h-35.36c10.35-17.52 20.49-35.26 28.4-54.04 15.3-36.97 21.54-77.53 18.94-117.42-1.82-24.25-5.89-48.87-16.96-70.78-4-7.54-9.35-15.12-17.55-18.42-7.67-3.06-16.02-1.05-23.7 0.86l-10.25-19.97z"/>
  <path id="path30" d="m1167 112.13 45.57-21.12c18.53 31.32 31.73 66.41 34.13 102.95 1.95 24.85 0.08 50.13-6.39 74.24-9.39 35.52-27.71 68-49.45 97.38h-34.85c9.57-17.75 20.36-34.95 27.93-53.7 20.16-48.62 24.82-103.38 13.89-154.82-1.71-8.35-3.33-17.83-10.38-23.49-3.88-3.3-9.23-2.93-13.98-2.91z"/>
  <path id="path32" d="m1099.6 141.78 35.85-15.81c17.44 41.04 21.72 87.39 12.76 131.03-8.09 39.77-28.14 76.05-51.86 108.58h-35.21c12.1-21.56 25.04-42.98 32.96-66.54 11.16-31.32 15.8-64.86 14.58-98.05-0.95-19.99-4.1-39.84-9.08-59.21z"/>
 </g>
</svg>
