<svg id="a" width="154.92pt" height="71.245pt" version="1.1" viewBox="0 0 154.92 71.245" xmlns="http://www.w3.org/2000/svg">
 <g id="b" transform="translate(-38.74 -.5)" fill="#00a9d3">
  <path id="c" d="m179 0.5h13v15.01c-3.73-3.17-8.22-5.32-13-6.36z"/>
  <path id="d" d="m38.74 13h46.505v11.73h-16.735v47.015h-13.265v-47.015h-16.505z"/>
  <path id="e" d="m91.495 13 24.565 0.01c5.73 0.24 12.07 1.38 16.15 5.79 4.45 4.61 4.76 11.74 3.44 17.67-1.4 5.55-6.24 9.48-11.72 10.65l14.8 24.615h-15.85l-12.28-23.485h-6.095v23.485h-13.01v-58.735m13.01 11.26v12.98h8.2772c2.2161 0 4.4056-0.30342 6.5178-1.0298 4.5-1.62 4.62-8.88 0.31-10.81-2.4388-1.0908-5.0402-1.1398-7.6742-1.1398z"/>
  <path id="f" d="m155.56 17.63c11.05-6.9 27.82-7.09 36.74 3.4l-9.61 7.92c-4.86-5.41-13.74-5.98-19.51-1.74-10.05 7.21-9.43 25.13 1.7 31 6.08 3.48 14.43 1.58 18.3-4.3l10.48 7.81c-11.39 15.34-38.14 11.92-46.91-4.48-6.97-12.89-4.12-31.53 8.81-39.61z"/>
 </g>
</svg>
