<?xml version="1.0" encoding="UTF-8" standalone="no"?>
<svg
   xmlns:dc="http://purl.org/dc/elements/1.1/"
   xmlns:cc="http://creativecommons.org/ns#"
   xmlns:rdf="http://www.w3.org/1999/02/22-rdf-syntax-ns#"
   xmlns:svg="http://www.w3.org/2000/svg"
   xmlns="http://www.w3.org/2000/svg"
   xmlns:xlink="http://www.w3.org/1999/xlink"
   xmlns:sodipodi="http://sodipodi.sourceforge.net/DTD/sodipodi-0.dtd"
   xmlns:inkscape="http://www.inkscape.org/namespaces/inkscape"
   width="374.564pt"
   height="326.65204pt"
   viewBox="0 0 374.564 326.65204"
   version="1.1"
   id="svg60"
   sodipodi:docname="TRS-Evergreen.svg"
   inkscape:version="0.92.1 r15371">
  <metadata
     id="metadata66">
    <rdf:RDF>
      <cc:Work
         rdf:about="">
        <dc:format>image/svg+xml</dc:format>
        <dc:type
           rdf:resource="http://purl.org/dc/dcmitype/StillImage" />
        <dc:title></dc:title>
      </cc:Work>
    </rdf:RDF>
  </metadata>
  <defs
     id="defs64">
    <linearGradient
       inkscape:collect="always"
       id="linearGradient4640">
      <stop
         style="stop-color:#f7ed5a;stop-opacity:1"
         offset="0"
         id="stop4636" />
      <stop
         id="stop4645"
         offset="0.31272519"
         style="stop-color:#f4e500;stop-opacity:1" />
      <stop
         style="stop-color:#f4e500;stop-opacity:1"
         offset="0.79381758"
         id="stop4647" />
      <stop
         style="stop-color:#484848;stop-opacity:1"
         offset="1"
         id="stop4638" />
    </linearGradient>
    <linearGradient
       inkscape:collect="always"
       xlink:href="#linearGradient4640"
       id="linearGradient4642"
       x1="-219.39569"
       y1="-123.77588"
       x2="-83.085968"
       y2="68.690643"
       gradientUnits="userSpaceOnUse" />
  </defs>
  <sodipodi:namedview
     pagecolor="#ffffff"
     bordercolor="#666666"
     borderopacity="1"
     objecttolerance="10"
     gridtolerance="10"
     guidetolerance="10"
     inkscape:pageopacity="0"
     inkscape:pageshadow="2"
     inkscape:window-width="1920"
     inkscape:window-height="1017"
     id="namedview62"
     showgrid="false"
     inkscape:zoom="1.251579"
     inkscape:cx="-30.311212"
     inkscape:cy="254.01775"
     inkscape:window-x="-8"
     inkscape:window-y="-8"
     inkscape:window-maximized="1"
     inkscape:current-layer="svg60"
     fit-margin-top="0"
     fit-margin-left="0"
     fit-margin-right="0"
     fit-margin-bottom="0" />
  <g
     id="g4651"
     transform="translate(277.44955,166.03352)">
    <path
       id="path4568"
       d="M -9.6920471,-32.527889 A 133.87875,133.50563 0 0 1 -143.5708,100.97774 133.87875,133.50563 0 0 1 -277.44955,-32.527889 133.87875,133.50563 0 0 1 -143.5708,-166.03352 133.87875,133.50563 0 0 1 -9.6920471,-32.527889 Z"
       style="opacity:1;fill:url(#linearGradient4642);fill-opacity:1;stroke:none;stroke-width:1.31237209;stroke-linecap:butt;stroke-linejoin:miter;stroke-miterlimit:4;stroke-dasharray:none;stroke-opacity:1;paint-order:normal"
       inkscape:connector-curvature="0" />
    <path
       id="path4568-5"
       d="M -15.101881,-32.527889 A 128.46893,128.11088 0 0 1 -143.57079,95.58299 128.46893,128.11088 0 0 1 -272.03972,-32.527889 128.46893,128.11088 0 0 1 -143.57079,-160.63877 128.46893,128.11088 0 0 1 -15.101881,-32.527889 Z"
       style="opacity:1;fill:#f4e500;fill-opacity:1;stroke:none;stroke-width:1.25934124;stroke-linecap:butt;stroke-linejoin:miter;stroke-miterlimit:4;stroke-dasharray:none;stroke-opacity:1;paint-order:normal"
       inkscape:connector-curvature="0" />
  </g>
  <path
     id="path11"
     d="m 70.112206,64.16923 c 5.459267,-5.949202 15.527914,-6.03919 21.697084,-1.16984 3.48953,3.15957 5.1893,8.1589 4.98933,12.81828 H 73.271782 c 1.199838,3.44954 4.939336,4.65937 8.188899,5.1493 1.279627,0.089 3.572638,0.24708 5.91692,-0.10379 2.111769,-0.31607 4.272069,-1.01743 5.991709,-1.6701 0.54467,-0.23448 0.9687,-0.34638 1.48672,-0.36381 2.04819,0.15932 2.53911,2.89677 0.82668,4.35381 -1.04379,1.02999 -2.31257,1.69803 -3.70654,2.12977 -4.08885,1.38399 -11.586487,2.09334 -16.642841,0.24946 -3.132433,-1.16031 -5.761739,-3.7412 -7.530813,-6.58507 -2.099718,-4.79936 -1.609783,-11.05852 2.30969,-14.80801 m 3.069588,5.78922 H 89.72957 c -4.295249,-6.2824 -13.940004,-5.40891 -16.547776,0 z"
     inkscape:connector-curvature="0"
     style="opacity:1;fill:#000000;stroke-width:0.99986565"
     sodipodi:nodetypes="cccccscccccccccc" />
  <path
     id="path13"
     d="m 100.34525,60.59007 c 4.04046,-0.98878 8.37091,-1.005922 12.40068,0.0386 3.97329,0.76133 0.75378,4.35586 -2.23915,5.86028 l 5.98919,11.68843 5.84922,-12.02839 c -0.68748,-0.26901 -1.37496,-0.5416 -2.06031,-0.81349 -2.28542,-0.46471 -2.30475,-4.39426 -0.0859,-4.75175 4.06139,-0.972832 8.40872,-0.997961 12.46604,0.0309 2.36765,0.39884 1.51154,4.21244 -0.20806,4.63945 -1.12324,0.41305 -2.30122,0.6707 -3.45264,0.95491 l -9.6287,19.68236 h -6.0092 L 104.0891,66.88722 c -0.93708,-0.95218 -2.45862,-1.3141 -3.79988,-1.71257 -2.40644,-0.58427 -1.88803,-4.23116 0.0561,-4.58452 z"
     inkscape:connector-curvature="0"
     style="opacity:1;fill:#000000;stroke-width:0.99986565"
     sodipodi:nodetypes="cccccccccccccccc" />
  <path
     id="path11-5"
     d="m 139.48989,63.65188 c 5.45926,-5.949198 15.52791,-6.039186 21.69708,-1.16984 3.48953,3.15957 5.1893,8.1589 4.98933,12.81828 h -23.52684 c 1.19984,3.44954 4.93934,4.65937 8.1889,5.1493 1.27963,0.089 3.57264,0.24708 5.91692,-0.10379 2.11177,-0.31607 4.27207,-1.01743 5.99171,-1.6701 0.54467,-0.23448 0.9687,-0.34638 1.48672,-0.36381 2.04819,0.15932 2.53911,2.89677 0.82668,4.35381 -1.04379,1.03 -2.31257,1.69804 -3.70654,2.12978 -4.08885,1.38399 -11.58649,2.09334 -16.64284,0.24946 -3.13243,-1.16031 -5.76174,-3.74121 -7.53081,-6.58508 -2.09972,-4.79936 -1.60979,-11.05852 2.30969,-14.80801 m 3.06958,5.78922 h 16.54778 c -4.29525,-6.2824 -13.94,-5.40891 -16.54778,0 z"
     inkscape:connector-curvature="0"
     style="opacity:1;fill:#000000;stroke-width:0.99986571"
     sodipodi:nodetypes="cccccscccccccccc" />
  <path
     id="path17"
     d="m 175.27623,60.215037 c 1.04844,-0.367772 5.54916,-0.265242 8.5107,-0.265242 0.69991,1.069855 1.39982,2.129715 2.12972,3.179575 1.81522,-1.23666 3.71413,-2.65118 5.84807,-3.237149 1.43742,-0.323957 2.69259,-0.386863 4.08402,-0.215762 1.78326,0.293704 3.30533,1.420521 4.78385,2.512681 4.70418,3.15323 -2.82306,8.51126 -4.16321,4.25518 -2.02918,-0.86908 -3.54368,-0.83274 -5.33107,0.13443 -2.22705,1.21516 -4.21272,3.05751 -6.36151,4.39956 v 8.748825 h 10.24862 c 4.51565,0 4.68407,6.089185 -0.007,6.089185 h -21.53984 c -2.73937,0 -2.4639,-5.948625 0.2579,-5.948625 l 4.9664,-0.14056 V 66.07897 c -1.15824,-0.0663 -2.73027,-0.0988 -3.96466,-0.54389 -2.92619,-1.41237 -2.52644,-4.35238 0.53827,-5.320043 z"
     inkscape:connector-curvature="0"
     style="opacity:1;fill:#000000;stroke-width:0.99986565"
     sodipodi:nodetypes="cccccccccccccccccc" />
  <path
     id="path20"
     d="m 56.179378,96.75487 c 9.866379,0.1143 18.562225,6.75155 18.562225,20.60718 v 15.35297 H 58.983353 V 119.5603 c 0,-9.70586 -5.16375,-9.52014 -5.16375,0 l -2.08e-4,52.76475 c 0,5.76955 5.724811,5.9392 5.964208,0 v -18.018 h -3.519538 v -13.59809 l 18.647493,0.09 c -0.249966,16.30781 0.03999,32.57063 -0.14998,48.88844 H 64.672937 l -1.839753,-4.16445 c -2.45967,2.84962 -5.189303,6.55912 -9.398737,6.36915 -5.989196,-0.17998 -10.778552,-5.02933 -13.008253,-10.27862 -1.459804,-3.86948 -2.739632,-7.93893 -2.579653,-12.12837 0.08999,-17.37767 -0.01,-34.75539 0.03999,-52.12306 0,-12.20342 6.394381,-20.71811 18.292847,-20.60718 z"
     inkscape:connector-curvature="0"
     style="opacity:1;fill:#00df00;stroke-width:0.99986565"
     sodipodi:nodetypes="cccccccccccccccccccc" />
  <path
     id="path22-6"
     d="M 81.720645,98.74958 H 101.418 c 3.57952,0.17998 7.60898,0.64492 10.17863,3.45454 2.70013,2.70651 3.92504,6.26066 4.5567,9.9522 0.60339,3.59047 0.6914,6.99667 0.74812,10.35731 0.0757,4.57906 0.006,9.17983 -0.9954,13.65593 -0.63991,2.9196 -3.39954,4.55938 -5.50926,6.36914 3.69951,2.83962 6.52413,7.05905 6.42414,11.8784 v 35.27027 h -14.78801 v -38.7398 c 0,-1.3507 -2.18598,-2.49153 -4.81935,-2.68964 v 41.42944 H 81.720645 V 98.74958 m 15.582905,15.15297 v 20.30727 c 3.14337,0 4.5543,-0.3278 4.5543,-2.71127 v -15.22632 c 0,-2.18278 -1.89011,-2.36968 -4.5543,-2.36968 z"
     inkscape:connector-curvature="0"
     style="opacity:1;fill:#00df00;stroke-width:0.99986565"
     sodipodi:nodetypes="cccccccccccccccccccc" />
  <path
     id="path24"
     d="m 122.37518,98.74958 h 26.16149 v 18.47252 h -10.71856 v 16.96772 h 9.80868 v 17.48265 h -9.80868 v 20.01731 h 12.00339 v 17.99759 h -27.44632 v -21.27215 z"
     inkscape:connector-curvature="0"
     style="opacity:1;fill:#00df00;stroke-width:0.99986565"
     sodipodi:nodetypes="cccccccccccccc" />
  <path
     id="path24-3"
     d="m 154.96684,98.74958 h 26.16149 v 18.47252 h -10.71856 v 16.96772 h 9.80868 v 17.48265 h -9.80868 v 20.01731 h 12.00339 v 17.99759 h -27.44632 v -21.27215 z"
     inkscape:connector-curvature="0"
     style="opacity:1;fill:#00df00;stroke-width:0.99986571"
     sodipodi:nodetypes="cccccccccccccc" />
  <path
     id="path28"
     d="m 186.92151,98.74958 h 13.31321 l 9.43864,38.85978 V 98.74958 h 12.9285 v 90.93779 H 208.5636 l -8.52849,-37.48997 v 37.48997 h -13.1136 z"
     inkscape:connector-curvature="0"
     style="opacity:1;fill:#00df00;stroke-width:0.99986565"
     sodipodi:nodetypes="ccccccccccc" />
  <g
     id="#4567afff"
     transform="translate(-12.5869,-39.54796)">
    <path
       d="m 273.74,214.29 c 11.91,-2.62 23.99,-5.22 36.26,-4.68 21.1477,-0.3481 37.83395,4.43788 51.94,13.55 12.76,8.67 22.64,22.3 24.59,37.83 1.61806,11.64917 -0.0253,18.44777 -3.77774,28.53813 -8.62255,23.05765 -27.44817,41.32637 -48.19226,54.01187 -13.31726,8.24783 -28.23884,14.12293 -42.28829,17.77336 -11.96516,2.61267 -23.86852,4.61749 -35.26171,4.88664 -17.62,-0.55 -35.68,-3.92 -50.81,-13.4 -16.22606,-10.29873 -22.44635,-20.86868 -25.59,-37.85 -1.82222,-12.28907 0.98227,-24.24122 5.83,-34.91 -4.49,-6.78 -5.14,-17.47 1.78,-22.9 4.92,-4.51 11.99,-3.95 18.1,-5.11 2.88,-1.96 5.08,-4.73 7.74,-6.96 16.13,-14.16 35.77,-23.81 56.21,-30.02 1.14,-0.29 2.3,-0.52 3.47,-0.76 m -50.10869,32.73451 c -2.20762,1.52209 -4.28482,3.20911 -6.05131,5.25049 h 64.45 c 8.34,0.44 16.26,5.295 20.29,12.695 3.17,-3.03 6.03,-6.5 9.92,-8.65 4.41,-2.66 9.57,-3.975 14.69,-4.045 h 31.7 c -5.29,-10.12 -15.14,-17.245 -25.41,-21.745 -7.24,-3.58 -15.17,-5.54 -23.18,-6.38 -32.87819,-3.97826 -65.21943,7.85519 -86.40869,22.87451 z M 191.34,283.76 c -9.41436,19.35061 -6.4598,45.5244 7.4,59.5 12.89,12.83 31.42,18.47 49.22,19.47 6.94316,0.22436 13.96354,0.13985 20.87606,-0.70171 10.64797,-1.6308 21.40619,-4.46346 30.7036,-8.07913 13.9798,-5.48224 26.99371,-13.53274 38.17034,-23.51416 H 325 280.96 c -8.81,-0.71 -18.1,-2.535 -25.18,-8.225 -5.52,-4.58 -11.01,-10.71 -10.46,-18.42 -3.47,4.08 -3.73,9.73 -5.74,14.52 -2.71,10.2 -15.75,15.76 -25.13,11.32 -5.26,-2.68 -7.65,-9 -6.79,-14.65 1.91446,-11.61995 6.92562,-22.83288 8.68,-31.22 h -25 m 104.47,14.95 h 6.07 l -2.36,-3.67 z"
       id="path57"
       inkscape:connector-curvature="0"
       style="opacity:1;fill:#4567af"
       sodipodi:nodetypes="ccccccccccccccccccccccccccccccccccccccccccccc" />
  </g>
  <path
     style="opacity:1;fill:#ffffff"
     inkscape:connector-curvature="0"
     id="path6"
     d="m 178.9331,222.95204 c 3.12,-2.77 7.52,-3.075 11.49,-3.085 h 77.97 c 5.34,-0.21 11.01,1.855 14.3,6.185 2.93,5.29 4.1,11.7 2.29,17.56 -0.87117,5.79924 -4.93738,10.42405 -9.80622,13.43207 -2.21944,1.57605 -4.96653,2.09732 -7.28102,2.66945 -3.90165,0.97092 -7.8728,2.34613 -3.20077,5.011 1.36544,0.7514 3.21469,0.96967 4.65801,0.93748 h 55.12 c 8.68132,0 8.92649,-5.79223 3.65,-5.79223 h -18.32107 c -3.07723,0 -6.1405,-0.24795 -9.17893,-0.76777 -4.27455,-1.58811 -7.92127,-5.40116 -9.3258,-9.83296 -0.82337,-3.47874 -0.8728,-7.19682 -0.26728,-10.45852 1.92254,-10.08086 10.81452,-18.96444 21.39308,-18.88852 h 41 c 3.67,-0.24 8.11,1.74 8.61,5.77 1.19,6.08 -4.68,11.72 -10.61,11.39 h -34.05 c -1.97793,0 -5.15126,0.95197 -5.16,2.92988 -0.009,1.9543 3.1183,2.93988 5.07262,2.93988 H 333.679 c 2.81685,-0.17672 5.83983,0.54342 8.07369,1.58038 4.08604,1.92762 7.44778,5.39402 8.88041,9.71986 2,5.58 2.08,12.18 -1.11,17.34 -4.33,6.89 -11.96,11.73 -20.08,12.41 h -61.07 c -9.28,-0.11 -18.88,-3.28 -25.31,-10.21 -2.17787,-2.40968 -3.9017,-5.47436 -4.57895,-8.70365 -0.64734,-4.16764 0.28118,-8.19454 1.58985,-11.84966 1.00406,-2.76531 2.50063,-5.3136 4.8791,-7.13669 4.54,-3.02 10.2,-3.52 15.51,-3.31 1.98,-0.14 4.56,0.46 5.95,-1.37 1.69,-1.91 -0.17319,-4.24 -2.94,-4.24 h -28.99 l -13.45,39.57 c -1.94,7.61 -14.42,11.25 -18.95,4.09 -2.17,-3.45 -0.4,-7.52 0.72,-11 l 10.18,-32.66 h -28.61 c -3.33,0.14 -6.97,-2.21 -7.38,-5.69 -0.22,-2.92 -0.45,-6.4 1.94,-8.54 z"
     sodipodi:nodetypes="cccccccccccscccccccsasccccccccccccccccccccc" />
</svg>
