<svg id="b" width="374.56pt" height="326.65pt" version="1.1" viewBox="0 0 374.56 326.65" xmlns="http://www.w3.org/2000/svg" xmlns:xlink="http://www.w3.org/1999/xlink">
 <defs id="c">
  <linearGradient id="a" x1="-219.4" x2="-83.086" y1="-123.78" y2="68.691" gradientUnits="userSpaceOnUse">
   <stop id="d" stop-color="#f7ed5a" offset="0"/>
   <stop id="e" stop-color="#f4e500" offset=".31273"/>
   <stop id="f" stop-color="#f4e500" offset=".79382"/>
   <stop id="g" stop-color="#484848" offset="1"/>
  </linearGradient>
 </defs>
 <g id="h" transform="translate(277.45 166.03)">
  <path id="i" d="m-9.692-32.528a133.88 133.51 0 0 1-133.88 133.51 133.88 133.51 0 0 1-133.88-133.51 133.88 133.51 0 0 1 133.88-133.51 133.88 133.51 0 0 1 133.88 133.51z" fill="url(#a)" style="paint-order:normal"/>
  <path id="j" d="m-15.102-32.528a128.47 128.11 0 0 1-128.47 128.11 128.47 128.11 0 0 1-128.47-128.11 128.47 128.11 0 0 1 128.47-128.11 128.47 128.11 0 0 1 128.47 128.11z" fill="#f4e500" style="paint-order:normal"/>
 </g>
 <path id="k" d="m70.112 64.169c5.4593-5.9492 15.528-6.0392 21.697-1.1698 3.4895 3.1596 5.1893 8.1589 4.9893 12.818h-23.527c1.1998 3.4495 4.9393 4.6594 8.1889 5.1493 1.2796 0.089 3.5726 0.24708 5.9169-0.10379 2.1118-0.31607 4.2721-1.0174 5.9917-1.6701 0.54467-0.23448 0.9687-0.34638 1.4867-0.36381 2.0482 0.15932 2.5391 2.8968 0.82668 4.3538-1.0438 1.03-2.3126 1.698-3.7065 2.1298-4.0888 1.384-11.586 2.0933-16.643 0.24946-3.1324-1.1603-5.7617-3.7412-7.5308-6.5851-2.0997-4.7994-1.6098-11.059 2.3097-14.808m3.0696 5.7892h16.548c-4.2952-6.2824-13.94-5.4089-16.548 0z" stroke-width=".99987"/>
 <path id="l" d="m100.35 60.59c4.0405-0.98878 8.3709-1.0059 12.401 0.0386 3.9733 0.76133 0.75378 4.3559-2.2392 5.8603l5.9892 11.688 5.8492-12.028c-0.68748-0.26901-1.375-0.5416-2.0603-0.81349-2.2854-0.46471-2.3048-4.3943-0.0859-4.7518 4.0614-0.97283 8.4087-0.99796 12.466 0.0309 2.3676 0.39884 1.5115 4.2124-0.20806 4.6394-1.1232 0.41305-2.3012 0.6707-3.4526 0.95491l-9.6287 19.682h-6.0092l-9.2773-19.004c-0.93708-0.95218-2.4586-1.3141-3.7999-1.7126-2.4064-0.58427-1.888-4.2312 0.0561-4.5845z" stroke-width=".99987"/>
 <path id="m" d="m139.49 63.652c5.4593-5.9492 15.528-6.0392 21.697-1.1698 3.4895 3.1596 5.1893 8.1589 4.9893 12.818h-23.527c1.1998 3.4495 4.9393 4.6594 8.1889 5.1493 1.2796 0.089 3.5726 0.24708 5.9169-0.10379 2.1118-0.31607 4.2721-1.0174 5.9917-1.6701 0.54467-0.23448 0.9687-0.34638 1.4867-0.36381 2.0482 0.15932 2.5391 2.8968 0.82668 4.3538-1.0438 1.03-2.3126 1.698-3.7065 2.1298-4.0888 1.384-11.586 2.0933-16.643 0.24946-3.1324-1.1603-5.7617-3.7412-7.5308-6.5851-2.0997-4.7994-1.6098-11.059 2.3097-14.808m3.0696 5.7892h16.548c-4.2952-6.2824-13.94-5.4089-16.548 0z" stroke-width=".99987"/>
 <path id="n" d="m175.28 60.215c1.0484-0.36777 5.5492-0.26524 8.5107-0.26524 0.69991 1.0699 1.3998 2.1297 2.1297 3.1796 1.8152-1.2367 3.7141-2.6512 5.8481-3.2371 1.4374-0.32396 2.6926-0.38686 4.084-0.21576 1.7833 0.2937 3.3053 1.4205 4.7838 2.5127 4.7042 3.1532-2.8231 8.5113-4.1632 4.2552-2.0292-0.86908-3.5437-0.83274-5.3311 0.13443-2.227 1.2152-4.2127 3.0575-6.3615 4.3996v8.7488h10.249c4.5156 0 4.6841 6.0892-7e-3 6.0892h-21.54c-2.7394 0-2.4639-5.9486 0.2579-5.9486l4.9664-0.14056v-13.648c-1.1582-0.0663-2.7303-0.0988-3.9647-0.54389-2.9262-1.4124-2.5264-4.3524 0.53827-5.32z" stroke-width=".99987"/>
 <path id="o" d="m56.179 96.755c9.8664 0.1143 18.562 6.7516 18.562 20.607v15.353h-15.758v-13.155c0-9.7059-5.1638-9.5201-5.1638 0l-2.08e-4 52.765c0 5.7696 5.7248 5.9392 5.9642 0v-18.018h-3.5195v-13.598l18.647 0.09c-0.24997 16.308 0.03999 32.571-0.14998 48.888h-10.089l-1.8398-4.1644c-2.4597 2.8496-5.1893 6.5591-9.3987 6.3692-5.9892-0.17998-10.779-5.0293-13.008-10.279-1.4598-3.8695-2.7396-7.9389-2.5797-12.128 0.08999-17.378-0.01-34.755 0.03999-52.123 0-12.203 6.3944-20.718 18.293-20.607z" fill="#00df00" stroke-width=".99987"/>
 <path id="p" d="m81.721 98.75h19.697c3.5795 0.17998 7.609 0.64492 10.179 3.4545 2.7001 2.7065 3.925 6.2607 4.5567 9.9522 0.60339 3.5905 0.6914 6.9967 0.74812 10.357 0.0757 4.5791 6e-3 9.1798-0.9954 13.656-0.63991 2.9196-3.3995 4.5594-5.5093 6.3691 3.6995 2.8396 6.5241 7.059 6.4241 11.878v35.27h-14.788v-38.74c0-1.3507-2.186-2.4915-4.8194-2.6896v41.429h-15.493v-90.938m15.583 15.153v20.307c3.1434 0 4.5543-0.3278 4.5543-2.7113v-15.226c0-2.1828-1.8901-2.3697-4.5543-2.3697z" fill="#00df00" stroke-width=".99987"/>
 <path id="q" d="m122.38 98.75h26.161v18.473h-10.719v16.968h9.8087v17.483h-9.8087v20.017h12.003v17.998h-27.446v-21.272z" fill="#00df00" stroke-width=".99987"/>
 <path id="r" d="m154.97 98.75h26.161v18.473h-10.719v16.968h9.8087v17.483h-9.8087v20.017h12.003v17.998h-27.446v-21.272z" fill="#00df00" stroke-width=".99987"/>
 <path id="s" d="m186.92 98.75h13.313l9.4386 38.86v-38.86h12.928v90.938h-14.038l-8.5285-37.49v37.49h-13.114z" fill="#00df00" stroke-width=".99987"/>
 <g id="t" transform="translate(-12.587 -39.548)">
  <path id="u" d="m273.74 214.29c11.91-2.62 23.99-5.22 36.26-4.68 21.148-0.3481 37.834 4.4379 51.94 13.55 12.76 8.67 22.64 22.3 24.59 37.83 1.6181 11.649-0.0253 18.448-3.7777 28.538-8.6226 23.058-27.448 41.326-48.192 54.012-13.317 8.2478-28.239 14.123-42.288 17.773-11.965 2.6127-23.869 4.6175-35.262 4.8866-17.62-0.55-35.68-3.92-50.81-13.4-16.226-10.299-22.446-20.869-25.59-37.85-1.8222-12.289 0.98227-24.241 5.83-34.91-4.49-6.78-5.14-17.47 1.78-22.9 4.92-4.51 11.99-3.95 18.1-5.11 2.88-1.96 5.08-4.73 7.74-6.96 16.13-14.16 35.77-23.81 56.21-30.02 1.14-0.29 2.3-0.52 3.47-0.76m-50.109 32.735c-2.2076 1.5221-4.2848 3.2091-6.0513 5.2505h64.45c8.34 0.44 16.26 5.295 20.29 12.695 3.17-3.03 6.03-6.5 9.92-8.65 4.41-2.66 9.57-3.975 14.69-4.045h31.7c-5.29-10.12-15.14-17.245-25.41-21.745-7.24-3.58-15.17-5.54-23.18-6.38-32.878-3.9783-65.219 7.8552-86.409 22.875zm-32.291 36.735c-9.4144 19.351-6.4598 45.524 7.4 59.5 12.89 12.83 31.42 18.47 49.22 19.47 6.9432 0.22436 13.964 0.13985 20.876-0.70171 10.648-1.6308 21.406-4.4635 30.704-8.0791 13.98-5.4822 26.994-13.533 38.17-23.514h-56.75c-8.81-0.71-18.1-2.535-25.18-8.225-5.52-4.58-11.01-10.71-10.46-18.42-3.47 4.08-3.73 9.73-5.74 14.52-2.71 10.2-15.75 15.76-25.13 11.32-5.26-2.68-7.65-9-6.79-14.65 1.9145-11.62 6.9256-22.833 8.68-31.22h-25m104.47 14.95h6.07l-2.36-3.67z" fill="#4567af"/>
 </g>
 <path id="v" d="m178.93 222.95c3.12-2.77 7.52-3.075 11.49-3.085h77.97c5.34-0.21 11.01 1.855 14.3 6.185 2.93 5.29 4.1 11.7 2.29 17.56-0.87117 5.7992-4.9374 10.424-9.8062 13.432-2.2194 1.576-4.9665 2.0973-7.281 2.6694-3.9016 0.97092-7.8728 2.3461-3.2008 5.011 1.3654 0.7514 3.2147 0.96967 4.658 0.93748h55.12c8.6813 0 8.9265-5.7922 3.65-5.7922h-18.321c-3.0772 0-6.1405-0.24795-9.1789-0.76777-4.2746-1.5881-7.9213-5.4012-9.3258-9.833-0.82337-3.4787-0.8728-7.1968-0.26728-10.459 1.9225-10.081 10.815-18.964 21.393-18.889h41c3.67-0.24 8.11 1.74 8.61 5.77 1.19 6.08-4.68 11.72-10.61 11.39h-34.05c-1.9779 0-5.1513 0.95197-5.16 2.9299-9e-3 1.9543 3.1183 2.9399 5.0726 2.9399h16.393c2.8168-0.17672 5.8398 0.54342 8.0737 1.5804 4.086 1.9276 7.4478 5.394 8.8804 9.7199 2 5.58 2.08 12.18-1.11 17.34-4.33 6.89-11.96 11.73-20.08 12.41h-61.07c-9.28-0.11-18.88-3.28-25.31-10.21-2.1779-2.4097-3.9017-5.4744-4.579-8.7036-0.64734-4.1676 0.28118-8.1945 1.5898-11.85 1.0041-2.7653 2.5006-5.3136 4.8791-7.1367 4.54-3.02 10.2-3.52 15.51-3.31 1.98-0.14 4.56 0.46 5.95-1.37 1.69-1.91-0.17319-4.24-2.94-4.24h-28.99l-13.45 39.57c-1.94 7.61-14.42 11.25-18.95 4.09-2.17-3.45-0.4-7.52 0.72-11l10.18-32.66h-28.61c-3.33 0.14-6.97-2.21-7.38-5.69-0.22-2.92-0.45-6.4 1.94-8.54z" fill="#fff"/>
</svg>
