<svg width="1066.7" height="1318.2" version="1.1" viewBox="0 0 1e3 1235.8" xmlns="http://www.w3.org/2000/svg">
 <link href="" rel="stylesheet" type="text/css"/>
 <defs>
  <clipPath id="d">
   <path d="m0 0h595.28v595.28h-595.28z"/>
  </clipPath>
  <clipPath id="c">
   <path d="m0 0h595.28v595.28h-595.28z"/>
  </clipPath>
  <clipPath id="b">
   <path d="m0 0h595.28v595.28h-595.28z"/>
  </clipPath>
  <clipPath id="a">
   <path d="m0 0h595.28v595.28h-595.28z"/>
  </clipPath>
 </defs>
 <g transform="translate(-243.49 325.87)">
  <g transform="matrix(1.25 0 0 -1.25 -1357.3 209.68)">
   <g transform="matrix(108.9 0 0 108.9 -6053.3 -34603)">
    <path d="m72.953 312.6h-5.606v9.071h5.606z" fill="#706d6e"/>
    <g clip-path="url(#d)">
     <g transform="translate(70.093 316.27)">
      <path d="m0 0c-0.98 0-1.961-4e-3 -1.961 0 0.015 1.071 0.887 1.934 1.961 1.934z" fill="#e9e9e9"/>
     </g>
     <g transform="translate(70.093 316.16)">
      <path d="m0 0c-0.98 1e-3 -1.961 4e-3 -1.961 0 0.015-1.071 0.887-1.934 1.961-1.934z" fill="#e9e9e9"/>
     </g>
     <g transform="translate(72.944 314.28)">
      <path d="m0 0-1.466 1.881c-0.98 1e-3 -1.255 0-1.255 0l1.53-1.933h1.191z" fill="#e9e9e9"/>
     </g>
     <g transform="translate(72.944 318.15)">
      <path d="m0 0-1.466-1.881c-0.98-1e-3 -1.255 0-1.255 0l1.53 1.933h1.191z" fill="#e9e9e9"/>
     </g>
    </g>
    <path d="m73.866 312.6h0.819v0.822h-0.819z" fill="#706d6e"/>
    <g clip-path="url(#c)">
     <g transform="translate(74.679 314.64)">
      <path d="m0 0v-0.179l-0.316-0.155v-0.112h0.316v-0.154h-0.793v0.31c0 0.079 0.023 0.142 0.07 0.188s0.104 0.07 0.173 0.07c0.052 0 0.097-0.014 0.132-0.042 0.036-0.027 0.061-0.062 0.076-0.103zm-0.475-0.218c-0.019 0.02-0.044 0.031-0.075 0.031-0.032 0-0.057-0.011-0.076-0.031-0.019-0.021-0.029-0.048-0.029-0.082v-0.146h0.209v0.146c0 0.034-9e-3 0.061-0.029 0.082" fill="#e9e9e9"/>
     </g>
    </g>
    <g transform="translate(73.886 315.33)">
     <path d="m0 0v-0.569h0.138v0.207h0.655v0.155h-0.655v0.207z" fill="#e9e9e9"/>
    </g>
    <g transform="translate(73.886 315.89)">
     <path d="m0 0 0.517-0.159-0.517-0.16v-0.161l0.793 0.262v0.116l-0.793 0.263z" fill="#e9e9e9"/>
    </g>
    <g clip-path="url(#b)">
     <g transform="translate(74.445 316.92)">
      <path d="m0 0c0.075 0 0.134-0.028 0.177-0.083 0.042-0.055 0.064-0.126 0.064-0.211 0-0.063-8e-3 -0.118-0.024-0.164s-0.043-0.088-0.081-0.126l-0.1 0.101c0.044 0.044 0.067 0.108 0.067 0.191 0 0.094-0.033 0.14-0.099 0.14-0.029 0-0.051-8e-3 -0.066-0.024-0.014-0.015-0.023-0.038-0.028-0.07l-0.014-0.096c-9e-3 -0.068-0.031-0.119-0.065-0.154-0.038-0.038-0.09-0.057-0.156-0.057-0.072 0-0.13 0.025-0.175 0.075-0.044 0.05-0.066 0.117-0.066 0.202 0 0.107 0.031 0.192 0.093 0.256l0.096-0.098c-0.036-0.038-0.054-0.092-0.054-0.163 0-0.039 9e-3 -0.069 0.028-0.091 0.019-0.021 0.043-0.031 0.072-0.031 0.023 0 0.042 8e-3 0.057 0.023 0.016 0.018 0.027 0.042 0.031 0.074l0.014 0.093c9e-3 0.067 0.03 0.118 0.061 0.152 0.038 0.041 0.094 0.061 0.168 0.061" fill="#e9e9e9"/>
     </g>
    </g>
    <g transform="translate(74.541 317.58)">
     <path d="m0 0v-0.36h-0.655v-0.155h0.793v0.515z" fill="#e9e9e9"/>
    </g>
    <g clip-path="url(#a)">
     <g transform="translate(74.183 318.24)">
      <path d="m0 0c0.021 1e-3 0.054 1e-3 0.099 1e-3s0.079 0 0.099-1e-3c0.021-1e-3 0.047-3e-3 0.078-8e-3 0.031-4e-3 0.057-0.012 0.078-0.024 0.022-0.011 0.042-0.027 0.062-0.046 0.057-0.058 0.086-0.129 0.086-0.214s-0.029-0.157-0.086-0.215c-0.02-0.019-0.04-0.034-0.061-0.046-0.021-0.011-0.048-0.018-0.08-0.023-0.032-4e-3 -0.057-7e-3 -0.077-8e-3 -0.019 0-0.052-1e-3 -0.099-1e-3s-0.08 1e-3 -0.099 1e-3c-0.019 1e-3 -0.045 4e-3 -0.077 8e-3 -0.032 5e-3 -0.058 0.012-0.079 0.023-0.022 0.012-0.042 0.027-0.061 0.046-0.058 0.058-0.087 0.13-0.087 0.215s0.029 0.156 0.087 0.214c0.019 0.019 0.04 0.035 0.061 0.046 0.022 0.012 0.048 0.02 0.079 0.024 0.03 5e-3 0.056 7e-3 0.077 8e-3m0.253-0.162c-0.028 6e-3 -0.08 8e-3 -0.154 8e-3s-0.126-2e-3 -0.154-8e-3c-0.029-5e-3 -0.052-0.015-0.069-0.031-0.028-0.024-0.042-0.057-0.042-0.099s0.014-0.076 0.042-0.1c0.017-0.016 0.04-0.026 0.068-0.031 0.029-5e-3 0.08-7e-3 0.155-7e-3s0.127 2e-3 0.155 7e-3 0.051 0.015 0.068 0.031c0.028 0.024 0.042 0.058 0.042 0.1s-0.014 0.075-0.042 0.099c-0.017 0.016-0.04 0.026-0.069 0.031" fill="#e9e9e9"/>
     </g>
    </g>
   </g>
  </g>
 </g>
</svg>
