<svg width="454.08pt" height="600pt" version="1.1" viewBox="0 0 454.08 600" xmlns="http://www.w3.org/2000/svg" xmlns:xlink="http://www.w3.org/1999/xlink">
 <defs>
  <linearGradient id="linearGradient874">
   <stop stop-color="#112c5f" offset="0"/>
   <stop stop-color="#2274b8" offset="1"/>
  </linearGradient>
  <linearGradient id="linearGradient876" x1="223.11" x2="223.11" y1="227.01" y2="317.23" gradientUnits="userSpaceOnUse" xlink:href="#linearGradient874"/>
  <linearGradient id="linearGradient905" x1="169.36" x2="169.36" y1="132.27" y2="2.7481" gradientTransform="matrix(1.9075 0 0 1.9075 -77.711 -5.2419)" gradientUnits="userSpaceOnUse" xlink:href="#linearGradient874"/>
  <linearGradient id="linearGradient913" x1="162.55" x2="278.51" y1="175.53" y2="175.53" gradientTransform="matrix(1.9075 0 0 1.9075 -77.711 -5.2419)" gradientUnits="userSpaceOnUse" xlink:href="#linearGradient874"/>
  <linearGradient id="linearGradient921" x1="40.74" x2="155.65" y1="156.56" y2="156.56" gradientTransform="matrix(1.9075 0 0 1.9075 -77.711 -5.2419)" gradientUnits="userSpaceOnUse" xlink:href="#linearGradient874"/>
 </defs>
 <path d="m245.35 0c8.6605 0 11.741 7.0606 14.966 13.337l84.35 166.11c3.1888 6.5777-0.0763 13.642-6.352 17.568l-83.968 48.126c-9.4803 6.0277-21.994-2.5154-21.994-13.81v-217.47c0-8.2501 5.5974-13.852 12.998-13.852z" fill="url(#linearGradient905)" stroke-width="1.9075"/>
 <path d="m127.25 196.29 78.627 45.17c15.967 8.4187 17.208 21.522 5.7225 29.337l-192.54 120.1c-10.301 6.3138-23.92-7.4202-17.32-17.606l105.73-170.66c4.4422-7.2777 12.519-10.822 19.781-6.3329z" fill="url(#linearGradient921)" stroke-width="1.9075"/>
 <path d="m255.03 268.47 184.63 95.966c19.401 9.7346 17.214 28.52 1.259 28.298h-194.37c-7.7167 0-14.182-3.9592-14.182-12.637v-97.264c0-13.741 12.022-19.968 22.671-14.364z" fill="url(#linearGradient913)" stroke-width="1.9075"/>
 <g transform="matrix(1.9075 0 0 1.9075 -77.711 -5.2419)" fill="url(#linearGradient876)">
  <path d="m40.8 231.97c0.84-3.04 4.04-5.105 7.15-4.975h75.1c4.2347 0 6.8981 2.51 8.06 6.09l20.425 57.835 20.395-57.835c1.2054-3.6248 3.9066-6.09 7.95-6.09h17.69l-36.29 90.3-19.49 2.4e-4 -28.76-71.29h-21.675v71.29h-21.79v-71.29h-28.765z"/>
  <path d="m223.11 227.01-34.85 90.29h16.964c3.1508-0.0859 5.8171-2.1369 6.835-4.9849l5.6104-14.815h31.709l5.6104 14.815c1.0183 2.8494 3.6866 4.9008 6.8394 4.9849l16.961-9e-5 -34.85-90.29zm10.415 24.208 9.6445 29.461h-19.291z"/>
 </g>
</svg>
