<svg width="2463.4pt" height="1883.5pt" version="1.1" viewBox="0 0 2463.4 1883.5" xmlns="http://www.w3.org/2000/svg" xmlns:xlink="http://www.w3.org/1999/xlink">
 <defs>
  <linearGradient id="linearGradient878" x2="2445" y1="938.6" y2="938.6" gradientUnits="userSpaceOnUse">
   <stop stop-color="#b0afaf" offset="0"/>
   <stop stop-color="#6a6a6a" offset="1"/>
  </linearGradient>
 </defs>
 <g fill="#fafffc">
  <path d="m1937 925.33v174.45h-226.24l-5.99 783.76h-186.69v-774.42h-241.43v-183.8z"/>
  <path d="m1120.8 0 195.69 245.58v-195.14h523.16v526.11l623.72 667.78h-111.16l-604.56-658.54v-436.96h-342.28v195.5h-97.94l-186.62-225.96-1006 800.64h572.07v183.69l-235.24 2e-4h-0.42l0.21 768.84h-189.85v-768.84l-243.16 2e-4v-190.5z"/>
  <path d="m613.33 1250.7 146.91-0.01 134.52 477.4 149.43-477.4h144.21l-198.72 626.6h-189.85z"/>
  <path d="m1257.2 1586.1c11.48-0.23 23.31 0.52 33.89 5.4 16.19 6.75 28.26 22.1 31.1 39.4 3.02 16.18-0.36 33.67-10.28 46.97-13.654 17.336-32.575 27.04-47.227 35.657l64.927 73.713c14.62-22.89 20.79-50.145 25.1-76.635h31.63c-3.15 19.16-7.59 38.115-14.46 56.315-5.55 14.76-13.09 28.86-23.1 41.08l-0.3513 0.3788 43.778 46.951-41.4 0.12-24.886-25.81c-2.15 1.89-4.27 3.81-6.49 5.63-12.16 9.81-26.38 17.14-41.58 20.85-11.38 2.85-23.17 3.57-34.84 3.4-14.02-1.16-28.11-4.47-40.27-11.75-15.75-9.14-27.66-24.62-32.38-42.21-5.63-20.93-2.53-44.3 9.23-62.61 10.438-16.199 25.846-26.964 40.315-35.421-14.539-20.572-24.402-45.768-21.745-66.039 2.85-20.97 16.51-40.39 35.99-49.04 7.23-3.55 15.23-4.83 23.05-6.35m-1.41 24.63c-10.84 1.35-19.64 9.91-23.47 19.83-6.39 16.34-2.91 35.13 6.01 49.84 3.6255 6.0946 7.2393 10.431 11.25 14.92 13.44-8.23 27.77-16.5 36.72-29.91 7.01-10.29 8.26-23.92 4.01-35.53-2.77-8.22-9.12-15.35-17.42-18.18-5.44-1.8-11.61-2.51-17.1-0.97m-36.922 128.44c-6.3797 6.37-11.685 13.812-14.758 22.336-5.98 16.1-3.79 35.02 5.89 49.25 8.8 13.12 24.16 21.45 39.87 22.2 19.87 1.85 40.82-5.72 55.39-19.61l3.9789-3.6688-74.519-82.841c-5.7823 4.0158-10.771 7.2864-15.852 12.334z"/>
 </g>
 <g fill="url(#linearGradient878)">
  <path d="m1102.4 0 195.69 245.58v-195.14h523.16v526.11l623.72 667.78h-111.16l-604.56-658.54v-436.96h-342.28v195.5h-97.94l-186.62-225.96-1006 800.64h572.07v183.69l-235.24 2e-4h-0.42l0.21 768.84h-189.85v-768.84l-243.16 2e-4v-190.5z"/>
  <path d="m1295 912.76h660.72v174.56h-6.2553v6.13h-226.24v777.78h-5.99v5.975h-186.69v-774.42h-241.43v-183.8h5.88z"/>
  <path d="m625.46 1244.5 146.91-0.01 134.52 477.4 149.44-477.4h144.21l-198.72 626.6h-189.85z"/>
  <path d="m1269.4 1586.2c11.48-0.23 23.31 0.52 33.89 5.4 16.19 6.75 28.26 22.1 31.1 39.4 3.02 16.18-0.36 33.67-10.28 46.97-13.654 17.336-32.575 27.04-47.227 35.657l64.927 73.713c14.62-22.89 20.79-50.145 25.1-76.635h31.63c-3.15 19.16-7.59 38.115-14.46 56.315-5.55 14.76-13.09 28.86-23.1 41.08l-0.3513 0.3788 43.778 46.951-41.4 0.12-24.886-25.81c-2.15 1.89-4.27 3.81-6.49 5.63-12.16 9.81-26.38 17.14-41.58 20.85-11.38 2.85-23.17 3.57-34.84 3.4-14.02-1.16-28.11-4.47-40.27-11.75-15.75-9.14-27.66-24.62-32.38-42.21-5.63-20.93-2.53-44.3 9.23-62.61 10.438-16.199 25.846-26.964 40.315-35.421-14.539-20.572-24.402-45.768-21.745-66.039 2.85-20.97 16.51-40.39 35.99-49.04 7.23-3.55 15.23-4.83 23.05-6.35m-1.41 24.63c-10.84 1.35-19.64 9.91-23.47 19.83-6.39 16.34-2.91 35.13 6.01 49.84 3.6255 6.0946 7.2393 10.431 11.25 14.92 13.44-8.23 27.77-16.5 36.72-29.91 7.01-10.29 8.26-23.92 4.01-35.53-2.77-8.22-9.12-15.35-17.42-18.18-5.44-1.8-11.61-2.51-17.1-0.97m-36.922 128.44c-6.3797 6.37-11.685 13.812-14.758 22.336-5.98 16.1-3.79 35.02 5.89 49.25 8.8 13.12 24.16 21.45 39.87 22.2 19.87 1.85 40.82-5.72 55.39-19.61l3.9789-3.6688-74.519-82.841c-5.7823 4.0158-10.771 7.2864-15.852 12.334z"/>
 </g>
 <path d="m2007.1 1672.5h321.84l-56.81 198.8-205.25 1e-4z" fill="#bdbdbd"/>
 <path d="m2279.1 1244.3h184.28l-73.5 238.59-179.39 3e-4z" fill="#f7003d"/>
 <path d="m1950 1482.9h181.41l45.76 189.57h-170.15z" fill="#e26d00"/>
 <path d="m2210.5 1482.9 179.39 0.13-61.01 189.44h-151.69l-9.6783-40.083 42.988-149.49z" fill="#006500"/>
 <path d="m1878.3 1244.3h184.3l68.85 238.59h-181.41z" fill="#00246c"/>
 <path d="m2007.1 1672.5h12.2l59.701 198.8h-12.12z" fill="#fff"/>
 <path d="m1950 1482.9h12.2l57.016 189.57h-12.12z" fill="#ffc85d"/>
 <path d="m1878.3 1244.3h12.2l71.664 238.59h-12.12z" fill="#3657a1"/>
 <path d="m2291.3 1244.3h-12.2l-68.61 238.59h12.12z" fill="#ff3d5f"/>
 <path transform="scale(.75)" d="m2947.4 1977.2-57.316 199.32 7.3886 30.602 66.191-229.91z" fill="#4ac54d" stroke-width="1.3333"/>
</svg>
