<?xml version="1.0" encoding="UTF-8"?>
<svg width="344.68pt" height="211.08pt" version="1.1" viewBox="0 0 344.68 211.08" xmlns="http://www.w3.org/2000/svg">
 <path d="m0 0h147.41v17.67h-147.41z" fill="#d4542b"/>
 <g transform="matrix(.53646 0 0 .53646 54.271 14.279)" fill="#454579" stroke-width="1px" aria-label="VOXSON">
  <path d="m175.59 337.73h9.2578l6.4453 20.605 6.3477-20.605h8.9844l-10.625 28.633h-9.5898z"/>
  <path d="m207.08 352.07q0-7.0117 3.9062-10.918t10.879-3.9062q7.1484 0 11.016 3.8477 3.8672 3.8281 3.8672 10.742 0 5.0195-1.6992 8.2422-1.6797 3.2031-4.8828 5-3.1836 1.7773-7.9492 1.7773-4.8438 0-8.0273-1.543-3.1641-1.543-5.1367-4.8828-1.9727-3.3398-1.9727-8.3594zm8.8477 0.0391q0 4.3359 1.6016 6.2305 1.6211 1.8945 4.3945 1.8945 2.8516 0 4.4141-1.8555t1.5625-6.6602q0-4.043-1.6406-5.8984-1.6211-1.875-4.4141-1.875-2.6758 0-4.2969 1.8945t-1.6211 6.2695z"/>
  <path d="m237.55 337.73h9.7461l5.0781 8.8086 4.9219-8.8086h9.6484l-8.9062 13.867 9.7461 14.766h-9.9414l-5.6445-9.1992-5.6641 9.1992h-9.8828l9.8828-14.922z"/>
  <path d="m269.07 356.89 8.418-0.52734q0.27344 2.0508 1.1133 3.125 1.3672 1.7383 3.9062 1.7383 1.8945 0 2.9102-0.87891 1.0352-0.89843 1.0352-2.0703 0-1.1133-0.97656-1.9922t-4.5312-1.6602q-5.8203-1.3086-8.3008-3.4766-2.5-2.168-2.5-5.5273 0-2.207 1.2695-4.1602 1.2891-1.9726 3.8477-3.0859 2.5781-1.1328 7.0508-1.1328 5.4883 0 8.3594 2.0508 2.8906 2.0312 3.4375 6.4844l-8.3398 0.48828q-0.33203-1.9336-1.4062-2.8125-1.0547-0.8789-2.9297-0.8789-1.543 0-2.3242 0.66406-0.78125 0.64453-0.78125 1.582 0 0.68359 0.64454 1.2305 0.625 0.5664 2.9688 1.0547 5.8008 1.25 8.3008 2.5391 2.5195 1.2695 3.6523 3.1641 1.1523 1.8945 1.1523 4.2383 0 2.7539-1.5234 5.0781t-4.2578 3.5352q-2.7344 1.1914-6.8945 1.1914-7.3047 0-10.117-2.8125t-3.1836-7.1484z"/>
  <path d="m298.41 352.07q0-7.0117 3.9062-10.918t10.879-3.9062q7.1484 0 11.016 3.8477 3.8672 3.8281 3.8672 10.742 0 5.0195-1.6992 8.2422-1.6797 3.2031-4.8828 5-3.1836 1.7773-7.9492 1.7773-4.8438 0-8.0274-1.543-3.1641-1.543-5.1367-4.8828-1.9727-3.3398-1.9727-8.3594zm8.8477 0.0391q0 4.3359 1.6016 6.2305 1.6211 1.8945 4.3945 1.8945 2.8516 0 4.4141-1.8555t1.5625-6.6602q0-4.043-1.6406-5.8984-1.6211-1.875-4.4141-1.875-2.6758 0-4.2969 1.8945t-1.6211 6.2695z"/>
  <path d="m332.94 337.73h8.2617l10.781 15.84v-15.84h8.3398v28.633h-8.3398l-10.723-15.723v15.723h-8.3203z"/>
 </g>
 <path d="m191.38 0h55.18c22.04 0 35.224 9.149 45.71 17.095 10.267 8.6729 25.095 26.478 25.96 49.12 1.2661 19.235-3.5481 38.38-15.234 53.305-4.4345 5.6651-16.465 18.715-27.926 22.565l69.61 68.995h-24.34l-81.43-80.525c8.39-0.24 16.91-0.95 24.79-4.05 15.53-5.75 28.39-18.6 33.52-34.42 5.09-14.57 3.74-31.21-3.57-44.79-9.32-17.93-28.81-30.04-49.06-30.14h-44.56l-89.68 158.07h-27.865v-137.78h64.925v17.705h-46.115v99.91h1.985z" fill="#d4542b"/>
 <path d="m0 17.67h147.41v19.78h-64.925v137.78h27.865l89.68-158.07h44.56c20.25 0.1 39.74 12.21 49.06 30.14 7.31 13.58 8.66 30.22 3.57 44.79-5.13 15.82-17.99 28.67-33.52 34.42-7.88 3.1-16.4 3.81-24.79 4.05l81.43 80.525h-28.22l-79.45-78.525 13.134-21.2c11.05-0.69 24.476 1.37 34.806-3.68 15.79-7.08 25.2-26.24 20.08-42.96-3.94-15.2-18.26-27.25-34.07-27.7h-32.91l-90.42 157.06h-59.1v-156.62h-64.19z" fill="#454579"/>
 <path d="m213.71 37.015h32.91c15.81 0.45 30.13 12.5 34.07 27.7 5.12 16.72-4.29 35.88-20.08 42.96-10.33 5.05-23.756 2.99-34.806 3.68l-13.134 21.2 79.45 78.525h-23.58l-77.07-76.885c7.66-13.51 15.67-26.79 23.53-40.19h28.5c9.6336 0 18.881-7.4701 19.74-18.034 0.2554-13.837-7.6759-21.876-19.965-21.876h-20.105l-89.69 156.98h-87.9v-155.92h-45.58v-17.705h64.19v156.62h59.1z" fill="#599148"/>
 <path d="m191.38 0h55.18c22.04 0 35.224 9.149 45.71 17.095 10.267 8.6729 25.095 26.478 25.96 49.12 1.2661 19.235-3.5481 38.38-15.234 53.305-4.4345 5.6651-16.465 18.715-27.926 22.565l69.61 68.995h-24.34l-81.43-80.525c8.39-0.24 16.91-0.95 24.79-4.05 15.53-5.75 28.39-18.6 33.52-34.42 5.09-14.57 3.74-31.21-3.57-44.79-9.32-17.93-28.81-30.04-49.06-30.14h-44.56l-89.68 158.07h-27.865v-137.78h64.925v17.705h-46.115v99.91h1.985z" fill="#d4542b"/>
 <path d="m0 17.67h147.41v19.78h-64.925v137.78h27.865l89.68-158.07h44.56c20.25 0.1 39.74 12.21 49.06 30.14 7.31 13.58 8.66 30.22 3.57 44.79-5.13 15.82-17.99 28.67-33.52 34.42-7.88 3.1-16.4 3.81-24.79 4.05l81.43 80.525h-28.22l-79.45-78.525 13.134-21.2c11.05-0.69 24.476 1.37 34.806-3.68 15.79-7.08 25.2-26.24 20.08-42.96-3.94-15.2-18.26-27.25-34.07-27.7h-32.91l-90.42 157.06h-59.1v-156.62h-64.19z" fill="#454579"/>
 <path d="m213.71 37.015h32.91c15.81 0.45 30.13 12.5 34.07 27.7 5.12 16.72-4.29 35.88-20.08 42.96-10.33 5.05-23.756 2.99-34.806 3.68l-13.134 21.2 79.45 78.525h-23.58l-77.07-76.885c7.66-13.51 15.67-26.79 23.53-40.19h28.5c9.6336 0 18.881-7.4701 19.74-18.034 0.2554-13.837-7.6759-21.876-19.965-21.876h-20.105l-89.69 156.98h-87.9v-155.92h-45.58v-17.705h64.19v156.62h59.1z" fill="#599148"/>
</svg>
