<?xml version="1.0" encoding="UTF-8"?>
<!-- Created with Inkscape (http://www.inkscape.org/) -->
<svg id="svg2" width="800" height="152.83" version="1.1" viewBox="0 0 800 152.83" xml:space="preserve" xmlns="http://www.w3.org/2000/svg" xmlns:cc="http://creativecommons.org/ns#" xmlns:dc="http://purl.org/dc/elements/1.1/" xmlns:rdf="http://www.w3.org/1999/02/22-rdf-syntax-ns#"><metadata id="metadata8"><rdf:RDF><cc:Work rdf:about=""><dc:format>image/svg+xml</dc:format><dc:type rdf:resource="http://purl.org/dc/dcmitype/StillImage"/><dc:title/></cc:Work></rdf:RDF></metadata><g id="g10" transform="matrix(1.3333 0 0 -1.3333 -502.93 1201.8)"><g id="g6011" transform="matrix(2.4096 0 0 2.4096 -1377.5 -1146.3)" fill="#2190d5" fill-rule="evenodd"><path id="path96" d="m806.21 835.89h-3.0918v-14.852c0-4.1041-2.1525-6.3516-6.0556-6.3516-4.1041 0-6.4503 2.2476-6.4503 6.3516v14.852h-3.0954v-14.852c0-6.1872 3.5522-8.9537 9.5457-8.9537 5.7925 0 9.1474 3.0918 9.1474 8.9537z"/><path id="path100" d="m809.5 812.63h2.9346v18.664h0.0621l12.151-18.664h3.3841v23.254h-2.931v-18.858h-0.0658l-12.246 18.858h-3.2891z"/><path id="path102" d="m831.54 812.63h3.0954v23.254h-3.0954z"/><path id="path106" d="m838.17 812.63h2.931v18.664h0.0658l12.148-18.664h3.3878v23.254h-2.9346v-18.858h-0.0621l-12.243 18.858h-3.2928z"/><path id="path110" d="m860.08 812.63h16.157v2.6094h-13.058v8.0437h12.078v2.602h-12.078v7.3932h12.959v2.6057h-16.058z"/><path id="path114" d="m883.62 812.63h3.0881v20.648h7.755v2.6057h-18.598v-2.6057h7.755z"/><path id="path118" d="m900.68 812.63h3.0918v20.648h7.755v2.6057h-18.602v-2.6057h7.755z"/><path id="path122" d="m931.03 835.89h-3.0954v-14.852c0-4.1041-2.1489-6.3516-6.0592-6.3516-4.1041 0-6.4503 2.2476-6.4503 6.3516v14.852h-3.0954v-14.852c0-6.1872 3.5522-8.9537 9.5457-8.9537 5.7961 0 9.1547 3.0918 9.1547 8.9537z"/><path id="path126" d="m934.31 812.63h2.931v18.664h0.0621l12.148-18.664h3.3878v23.254h-2.931v-18.858h-0.0658l-12.246 18.858h-3.2854z"/><path id="path130" d="m958.02 824.26c0 4.6888 2.3755 9.5749 8.0437 9.5749 5.6682 0 8.04-4.8861 8.04-9.5749 0-4.6924-2.3718-9.5749-8.04-9.5749-5.6682 0-8.0437 4.8825-8.0437 9.5749m-3.0954 0c0-6.3187 3.7459-12.181 11.139-12.181 7.3932 0 11.139 5.8619 11.139 12.181 0 6.3151-3.7459 12.181-11.139 12.181-7.3932 0-11.139-5.8656-11.139-12.181"/></g><g id="g5999" transform="matrix(.93636 0 0 .93636 24.005 50.067)"><path id="path216" d="m509.72 814.15c1.3924-6.2091-18.784-16.025-45.072-21.927-26.28-5.9058-49.49-4.4988-50.879 1.7067-1.396 6.2054 19.548 14.863 45.832 20.772 26.287 5.8984 48.723 5.6536 50.119-0.55184" fill="#647175"/><path id="path228" d="m495.57 847.42c0-32.306-26.192-58.502-58.506-58.502-32.31 0-58.495 26.196-58.495 58.502 0 32.314 26.207 57.329 58.495 58.506 32.792 1.195 58.506-26.192 58.506-58.506" fill="#2190d5"/><path id="path232" d="m397.41 876.13c1.4582 1.0891 2.7519 2.412 3.1575 4.2649 0.0548-0.0475 0.10598-0.0987 0.1608-0.1535 0.25216 0.7163 0.32891 1.4838 0.45316 2.2293 0.12426 0.77111 0.36546 0.53357 0.65051 0.93557 0.96846 1.3485 1.7688 2.5765 2.8469 3.7934-0.73457-0.37277-3.1868-1.3814-1.5605 0.1206 1.2243 1.1329 1.904 2.127 2.7702 3.5742 0.4422 0.74553-0.7967 0.62127 0.37642 1.206 0.48971 0.24851 1.1073 0.59935 1.4216-0.15714 0.23023-0.5628-1.7834-3.629-2.3718-4.1077 1.2243 0.71264 2.2329 1.4691 3.6399 2.5216 0.56645-0.81131 1.9662 0.75649 2.5911 1.1987 0.5628 0.40566 0.27409 0.69072 0.52991 1.005 0.42393 0.50798 0.85516 0.52625 1.0562 0.71629 0.81862 0.75649 1.5934 1.6336 2.2037 2.3828 0.72726 0.87344 1.6446 2.7884 2.9419 2.7592-0.45682-1.2133 3.3001-0.24851 4.115-0.15349-0.61031-0.36546-1.0342-0.66513-1.7396-0.94653 1.2828-1.9004-1.407-2.7628-2.5363-3.6363-0.80035-0.63224-0.73822-0.80035-1.1-1.3449-0.57376-0.85151-1.7871-0.48606-2.021-1.608-0.29968-1.4911-4.3014-1.5642-4.3014-3.6911 0-1.6738-2.8286-2.8213-1.4289-4.7363-0.10232-0.0621-0.21196-0.10963-0.31063-0.1608 0.71994-1.0562 4.5609 2.4632 5.4745 3.0698 1.3705 0.91364 4.3818 1.9442 6.0556 1.8163 2.2402-0.17176 4.4622 0.16446 5.5768 2.0246 0.69436 1.1402 2.1452 2.3353 3.2891 2.8908-0.96115 0.70167 1.5386 1.4216 0.94653 2.5253 0.24851 0.095 0.5226 0.27775 0.78573 0.31795-0.16081 0.61397 1.597 1.2352 2.2183 1.4253-0.25216 0.44951-0.75284 0.65416-1.2645 0.78573 0.81862 1.6226-3.5449 1.3083-4.2722 1.7469 1.396 1.9186-1.217 1.217-1.8967 2.211-0.35084-0.12791-0.36911-0.0183-0.63224-0.1608-0.0512 0.1608-0.10598 0.3216-0.15715 0.47874-0.10598-0.0548-0.20831-0.10963-0.31794-0.15714-0.22293 0.57011-1.7432 0.42758-0.1535 0.95018-0.0585 0.10964-0.37641 0.70899-0.3216 0.62128-0.57011 0.35083-1.2681 0.38738-1.8931 0.1608 0.10599 0.10963 0.20831 0.21196 0.31795 0.3216-0.21196 0.0548-0.42393 0.10598-0.63589 0.1608 0.76745 1.2133 4.1662 1.5495 5.6828 1.7103 2.5582 0.26678 5.0689 0.31795 7.5722 0.69437 4.3051 0.64685 9.1839-0.51895 13.149-1.9296 0.17908 0.5628 0.71264 0.63224 0.94653 0 0.0512 0.14984 0.10964 0.31064 0.1608 0.46778 0.76015-0.0256 1.4253-0.39103 2.2147-0.79303-0.15714-0.15715-0.31794-0.3143-0.47874-0.47144 0.89171-0.26313 1.9479-0.32891 1.8967-1.2681-1.6701 0.17542-1.8236-0.603-3.3183-0.94653-0.16811-0.0366-0.14253 0.51529-0.50799 0.42393-0.35083-0.0841-0.71629-0.22293-1.0708-0.26313-0.66148-0.0804-1.1256-0.5226-1.8967-0.3216 0.80401-1.3851 3.9286 0.65051 5.3758-0.47509 0.54453-0.42028 1.3339-1.3814 2.0539-1.8931 0.70899-0.49702 1.0744-1.195 1.7396-1.5788 0.17908-0.41662 0.17542-0.85517-0.63589-0.79304 0.0585-0.10598 0.10598-0.21196 0.15715-0.31064-0.30699 0.0366-0.63224-0.0256-0.93922 0v-0.3216c1.3741-0.33622 2.4814-2.1891 3.9506-2.6861-0.65051-0.48606-1.915-0.58108-2.8506-0.63224 0.9648-0.30699 2.1635-0.20831 1.111-1.5861-0.27409 0.1608-0.201 4e-3 -0.47509 0.1608-0.89537-2.1452-1.0087-2.4376-3.322-2.0575 0.34718-0.28871 2.0064-1.3558 1.82-1.7396-0.12791-0.24851-0.88806-0.85517-1.1548-0.43124-1.0708 1.7176-3.0991 1.3558-4.9336 1.5459-0.43855 0.0439-1.2718 0.75284-1.6299 0.82958-0.75284 0.14984-0.97942-0.10598-1.5349-0.20465-0.59569-0.0987-0.24485 0.45316-1.0233 0-0.402-0.22659-0.38738-0.50799-0.55549-0.62493-0.96481-0.68706-1.005-0.59204-1.7396-1.4253 1.217-1.0891-0.75284-3.0991-0.47144-4.1077-1.1731-0.70167-3.3512-3.9506-4.7436-3.6472-0.74553-1.597 0.50067-3.0589 1.2608-4.5792 0.44586 0.27044 2.1672 1.6263 2.5216 1.2754 0.98308-0.98308 0.49702-0.88806 0.63955-2.2329-0.4422 0.23754-0.24851 0.60665-0.46778 0.71994-0.34353 0.16811-1.2097-1.8967-1.407-2.2695-0.33987-0.6359 0.0914-1.4253 0.26313-2.1014 0.11329-0.46413-1.418-1.0525-1.6299-0.84786-0.63589 0.62127-1.1256-0.70167-1.2645-1.0269-0.46779-1.122-0.97943-1.3156-2.0392-1.9625-0.84054-0.51529-0.52625-1.1804-1.6372-1.7359-0.46413-0.22658-0.89171-0.81131-1.6226-0.0987-0.33256-1.4143-0.43489-1.2535-1.8894-1.1073-0.0621-1.1877 0.95384-2.3535 1.5788-3.0808 0.49702-0.57377 0.52991-3.2964-0.31429-3.8738-0.63589-0.43489-2.9529 0.42028-3.6399 0.47875-0.68341 0.0475-3.2416-0.33988-3.3293-1.217-0.15349-1.4509-0.46048-2.6386-0.77842-4.0054-0.25582-1.0927-0.78573-2.9456 0.86247-3.11 1.5313-0.15349 2.2402-1.8675 1.3485-3.0552-0.65782-0.88441-2.4741-1.5495-2.825-2.3901-0.60665-1.4472-1.0269-2.9931-2.0794-4.1698-0.54087-0.61031-0.99769-0.93922-1.6957-1.3778-0.52626-0.32525-1.4801-0.10598-1.8748-0.55183-1.8346-2.0575-4.1991-4.7253-5.0506-7.258 0.011 0.0256 0.29236-1.3047 0.46778-1.7798 0.50433-1.3887 0.29602-3.2489-0.38007-4.612-0.42028-0.84785-1.2572-0.3618-0.55184-1.3449 0.52991-0.74553 0.27409-1.195 0.10963-2.1123-0.0658-0.34353 2.4559-1.8017 2.8104-2.2366-0.0512-0.0475-0.10599-0.10233-0.1608-0.14984 0.80765-0.6834 1.3522-2.5874 2.2183-3.6472s3.1795-2.3864 4.5682-3.5559c1.82-1.5313 3.5193-0.3947 5.5842-0.73457 0.94288-0.15715 5.2516-0.0877 5.3393-0.4422 0.67244 0.87709 5.4124 1.6482 6.3004 0.86978 0.88806-0.77476 0.87709-1.5678 2.1525-1.3814 1.5824 0.22293 2.3024 0.42028 3.7313-0.21562 0.17908-0.0804 0.23389-2.4266 0.14984-2.7555-0.44951-1.7725-1.1183-1.1548 0.57742-2.518 0.80035-0.63955 4.5061-3.6509 3.534-4.433 1.1037-1.5495 0.33257-1.4216-0.38007-2.5765-0.48606-0.80034-0.96846-1.597-1.4582-2.3937-0.12791-0.21927 1.7432-1.2535 2.0356-1.4399 0.4422-0.2814 1.1841-1.7688 0.45682-1.8492-1.8894-0.21196-3.7825-0.42027-5.6682-0.63224-5.9569-0.66512-12.338-0.64685-18.149 1.0562-4.2758 1.2572-9.3739 2.2549-13.847 4.919-2.9017 1.7323-6.1323 3.2708-8.8404 5.2845-0.76015 0.55914-6.4686 5.8582-6.4028 5.9277 0.0219 0.0219 0.0548 0.0475 0.0768 0.0767-0.46779 0.0987-1.3778 1.2718-1.7103 1.7578-0.90999 1.3266 0.402-0.50798 0.34352-0.37642-1.2827 2.8579-4.3672 5.6244-6.3041 8.0766-1.5751 1.9954-2.127 3.2854-2.9529 5.7194-1.3412 3.9652-2.6824 7.9194-4.0273 11.877-0.72726 2.1452-1.0781 5.0433-1.4764 6.7792-0.69437 3.0479-0.52626 6.5307-0.78208 9.6517-0.084 1.0635 0.46413 1.9223 0.53722 2.9638 0.0694 1.0452-0.28505 3.7276 0.16446 4.6194 0.28871 0.57377 0.0804 1.5788 0.3216 2.0612 0.42393 0.85151 0.70898 2.6971 1.0927 3.7752 0.85517 2.4047 1.5861 5.7559 3.0918 7.2908 0.80401 0.82593 2.4924 3.4097 4.115 3.6363-0.011-0.31064 0.19004-0.63955 0.15715-0.95019 0.52625 0.48606 1.0269 1.9808 1.5824 2.2147 0.17907 0.0731 1.407-0.46047 1.7359-0.47144-0.19369-0.402-0.25581-0.89536-0.47509-1.2681 0.77842 1.0671 1.5605 2.1343 2.3572 3.1904 0.5226 0.70167 2.1745 1.9954 1.4399 0.13156h0.3143c-0.10599 0.77112 0.20465 1.6628 0.79303 0.79304 0.66513-0.99404 1.2791 0.5226 2.0539-0.47874-0.8442-0.57742-1.6848-1.1622-2.5326-1.7396 0.58473 0.1608 1.1622 0.31794 1.7432 0.47509" fill="#fff"/><path id="path236" d="m467.77 845.13c-1.4509-0.1206-2.2731-0.0548-3.3183-1.1037-1.1585-1.1548-2.3974-0.85151-4.02-0.91729-1.6518-0.0694-4.3855 1.6848-5.8582-7e-3 -1.0781-1.2279-0.1206-2.4047-1.7834-2.8213-0.42393-0.10964-2.518 0.37642-2.6861 0.52625-1.4545 1.312-1.8894 1.3522-3.8556 1.4655-1.2754 0.0841-2.0612 1.407-2.9894 0.9648 0.24486 1.1402 1.217 0.55915 0.9575 1.7359-0.11329 0.48606-0.31795 0.69071-0.66879 1.1183-0.34353 0.39834 0.81862 0.804 0.19004 1.5751-0.87709 1.0635-2.3755-0.68706-3.2379-0.39835-0.47143 0.15715-0.91729-0.13156-1.3887-0.0402-0.64685 0.13157-0.93556-0.42758-1.4216-0.30698-1.4947 0.38008-4.433 0.14984-5.4672-0.62493-0.70168-0.5226-1.8127-1.3376-2.7153-1.4801-0.78938-0.11329-2.8944 0.53356-3.1612 1.2608 1.0489 0.14253 2.6971 0.0183 3.6363 0.47509 0.35814 0.17907 0.4422 0.69437 0.75649 0.85517 0.69436 0.34718 1.3924 0.69436 2.0904 1.0452-1.0635 0.97942-0.0914 2.1964 0.32526 3.3695 0.201 0.57376 2.2878 1.217 2.9967 1.5313-0.0548 0.24485 7e-3 0.20831 0 0.47509-0.58107 0.17176-0.70167 0.62858-0.63223 1.2681 0.39834 0.0439 0.80034 0.0841 1.1987 0.13522 0.5226 0.0512 0.0365-0.2814 0.22293-0.29602 0.51894-0.0402 1.4472-0.34353 1.8638 0.14984 0.59204 0.70898 2.4888 2.3535 2.8834 1.0306 0.34353-1.1293 0.35084-0.99769-0.71263-1.5349-1.1475-0.57011 0.24485-0.9575-0.14984-1.8456-0.61031-1.3851-0.80035-2.6496 0.22293-3.808 0.46413 1.0269 0.92095 2.0502 1.3851 3.0735 0.095 0.20466-0.57742 0.66513-0.67243 0.96115-0.16811 0.51164 7e-3 1.1256 0.0621 1.6519 0.0658 0.65782 1.5897-0.15715 1.8602-0.39835 0.54088-0.48605 2.3097-1.3303 2.423-1.809 1.3047 0.58473 3.5449-2.5618 1.0708-2.8688-0.84055-0.10598-2.613 0.095-2.0977-1.1914 0.24486-0.61397 2.8286-1.2389 3.4024-0.84055-0.10964 0.73091-0.43855 1.6884 0.79304 1.7396-0.0146 0.31794 0.90267 1.4399 0.66147 1.7286-0.8844 1.0598-0.48605 2.0685 0.59935 0.80035 1.3632 1.2681-1.3412 1.9552-2.211 2.2147 0.0987 0.82593-0.77112 0.82593-1.5422 0.9246-0.42758 0.0512-1.4289 1.418-1.8456 1.7505-0.57742 0.46048-1.3083 1.8163-0.25216 2.0721 0.8442 0.19369 1.7323-1.2974 1.8967-1.9004 0.10964 0.0512 0.21197 0.10233 0.3216 0.15349 1.301-0.98673 3.8629-1.2718 4.5536-3.1466 0.25582-0.70899 0.5226-1.4143 0.78207-2.1233 0.095-0.26313 0.62859-0.22293 0.82593-0.57742 0.23024-0.40931-0.22293-1.9406 0.95019-1.4253-0.0914-1.5788 0.92825-0.77842 1.5824-1.7396 0.40565 0.61396 0.54818 0.17542 0.82593-0.38738 0.46413-0.92826 1.0416-0.31064 1.3887-1.0379 0.62858 0.4422 1.2681 0.61397 1.7396 0 0.39834 0.65417 1.5203 1.5605 1.1073 2.3755 0.21196-0.10598 0.42393-0.20831 0.63223-0.31429 0.0146 0.57377 0.22659 1.2681 0.85152 1.2681 0.32891 0 0.88805-0.10598 1.2023 0 0.26679 0.0877 0.35815 0.75649 0.4751 0.78573 1.2133 0.29602 1.9296-0.50798 2.9054 0.96115 0.89536 1.3522 1.2352-0.81497 1.5605-1.4107 0.70899-1.2754-0.27043-3.6728-0.51529-5.0871" fill="#fff"/><path id="path240" d="m468.88 859.21c-1.8967-1.3997-4.0346 0.54818-5.5147-0.93557-0.6359-0.63223-1.6299-2.1014-2.7117-1.8784-1.6336 0.3216-1.3705 0.4422-1.8894 2.021 0.33622-0.14618 0.20831-7e-3 0.47144-0.31429 0.0585 0.65417-0.37642 1.1548-0.31795 2.0502 0.0475 0.58472 0.48241 0.43123 0.3545 1.2974-0.0768 0.54088 0.31063 1.0708 0.52625 1.5678 0.10598 0.23023 0.33622 0.1608 0.55915 0.095 1.217-0.35083 0.32525-0.48971 0.77476-0.90633 0.52261-0.47874 1.3778-1.1402 2.0539-1.1037 0.4349 3.7423 8.643-0.34353 5.6938-1.8931" fill="#fff"/><path id="path244" d="m476.63 864.11c0.58838-0.98308 3.6692-3.9213 2.7702-4.8204-1.8419-1.8419-3.7203 0.71264-3.2818 2.8688 0.13522 0.68705-1.7688 0.94287-2.1927 1.3047-0.57011 0.48971-2.3828 2.2074-2.1964 3.0114 0.42759 1.8236 4.3782-1.6299 4.9008-2.3645" fill="#fff"/><path id="path248" d="m495.41 842.08c-0.66147-4.4147-1.0781-8.9135-2.529-13.127-1.5897-4.6303-4.5134-9.1181-6.6842-13.518-0.82959-1.6811-2.2512-3.121-3.3878-4.6011-0.14619-0.19004-0.28871-0.43855-0.47875-0.33987-0.33622 0.1608-0.76015-0.65782-0.96115-0.93192-0.66878-0.87709-1.4509-1.6848-2.2037-2.4851-1.6117-1.714-3.2745-3.3001-5.0177-4.8423-1.3449-1.1731-3.3439-3.8227-5.1895-3.8592 2.2074 1.8894 4.4695 3.5449 6.6732 5.4307 0.3618 0.31064 0.70533 2.8944 0.5226 3.2562-0.45682 0.92826 0.12426 0.91729 0.12426 1.8967 0 0.45317 0.62858 1.3485 0.55549 1.4947-0.48971 0.99403 4.2283 6.6842 4.9117 7.7184 1.4655 2.2147 2.401 4.6815 3.7021 6.9912 0.22659 0.402 2.1087 5.8802 0.95019 6.4795-0.72726 0.38373-2.507-2.2731-3.015-2.8323-0.084-0.0987-2.8323-3.1246-2.8323-1.3485 0 1.005 1.3924 1.4326 1.9369 2.5143 0.67974 1.3631 1.8382 2.5911 2.7373 3.8154 0.87709 1.195 3.2672 6.8559 4.0164 6.8632-0.76745 0.26313-0.31794 0.85882-0.15714 1.5824 0.0512-0.0548 0.10598-0.10599 0.15714-0.15715 0.10598 0.96846-0.19734 1.4582 0.0804 2.2951 0.38738 1.1731 0.45317 2.6276-0.23754 3.7167-0.58108 0.24486-1.8273-0.39469-2.2147 0.31064-0.5153 0.93922 0.97942 1.418 1.4253 1.9004 0.0548-0.15715 0.10598-0.31429 0.1608-0.47509 0.24486 0.75283 1.703 3.7971 2.3682 3.7971 1.2718 0 2.2987-2.3499 3.4389-1.0927 0.60666-1.8382 1.0452-3.7605 1.0708-5.7888 0.0219-1.904 0.27044-2.9273 0.0768-4.6632" fill="#fff"/><path id="path252" d="m475.68 834.7c1.6226-0.49336 3.5595-1.8236 2.8469-3.629 1.4399 0.0914 0.84785-1.3887 1.1841-2.0612 0.42393-0.84055-1.6628 0.2412-1.9735 0.15349 0.70899 0.93191-0.2412 1.6482-0.94653 0.6432-0.39103 1.4874-1.8054 1.6007-2.2256 2.8579-0.34718 1.0525-0.41296 2.1489-1.1731 2.9054-0.1206 0.12426-0.82958 0.402-1.0306 0.402-0.31429 0-0.26678 1.0233-0.50432 1.3705-0.52261 0.75284-2.9602 3.1941-1.8711 3.8409 0.57742-0.57377 1.9625-1.5788 1.9004-2.211 1.1914 0.0694 2.8396-3.2928 3.7934-4.2722" fill="#fff"/><path id="path256" d="m482.95 848.3c0.4422 0.49336 0.74187 0.2814 1.3339 0.0804 0.53722-0.17907 1.2499 0.69802 1.6701 1.0269-0.26312-1.005-0.5226-2.01-0.78938-3.0077-0.38373-0.0365-0.52991-0.0219-0.94653-0.31794-0.73091 1.4326-2.814 0.47509-3.4828 2.2183-0.13887 0.3618-4e-3 1.6482 0.47875 1.7396 0.25947 0.0475 1.4984-1.502 1.7359-1.7396" fill="#fff"/><path id="path260" d="m448.01 872.8c0.74918-1.0269-0.4422-1.2645-0.63589-1.8967-0.0402 0.27409-0.23389 0.52991-0.31429 0.79303-0.17177-0.57742-1.9004-1.0379-2.5509-1.4582-0.86979-0.54819-1.2718 0.89171-2.0319-0.1206-0.0548 0.10598-0.10598 0.20831-0.15714 0.31063 0.0219 0.21562 0.19004 0.31795 0.15714 0.79304 1.8784-0.90267 2.4376 2.7044 4.1077 2.529-0.0585 0.40931-0.0621 1.1768-0.39469 1.4984-0.33256 0.33257-0.72725 0.14984-0.47874 0.73091 0.51163 1.1987 0.35814 0.65782 1.5057 0.77842 0.60666 0.0585 1.1 0.35084 1.4253-0.1608-1.2097-0.0292-0.63224-2.8798-0.63224-3.7971" fill="#fff"/><path id="path264" d="m446.43 878.82c0.0694-1.3887-2.0283-1.2974-1.8054-0.13522 0.47509 2.5326 0.71264 2.3206 1.8054 0.13522" fill="#fff"/><path id="path268" d="m446.58 881.98c-0.22658-0.30698-0.65051-0.54818-0.94653-0.79304 0.0768 0.70168-0.32525 2.0977 0.78938 2.2147 0.0512-0.47144 0.10964-0.94653 0.15715-1.4216" fill="#fff"/><path id="path280" d="m496.21 847.92c0-33.037-26.327-59.814-58.816-59.814-32.474 0-58.802 26.777-58.802 59.814 0 33.034 26.327 59.814 58.802 59.814 32.489 0 58.816-26.781 58.816-59.814zm-81.694 39.963c-0.67975 0.82593-2.4303 0.50433-3.914-0.71994-1.4838-1.2206-2.1343-2.8798-1.4545-3.7057s2.4339-0.50068 3.914 0.71629c1.4838 1.2243 2.1343 2.8834 1.4545 3.7094zm23.166 13.452c-5.5147 6.6805-19.709 4.0894-31.718-5.8071-12.016-9.8819-18.149-23.448-12.667-30.135 5.5184-6.6842 20.575-3.9579 32.588 5.9386 12.005 9.8746 17.29 23.323 11.797 30.004zm12.564-2.6715c-9.2789 11.234-30.585 9.0012-47.612-5.0323-17.041-14.019-23.338-34.514-14.107-45.751 9.2935-11.245 30.589-9.0012 47.619 5.0323 17.03 14.015 23.345 34.51 14.099 45.751zm-71.242-56.953c13.105-26.203 44.154-20.868 65.647-3.1722 21.481 17.684 29.065 44.012 16.932 58.769-12.177 14.757-39.451 12.396-60.929-5.3064m15.386-99.872c4.433-2.5399 27.409-4.0456 51.873 15.02 24.401 19.015 28.107 62.961 12.177 82.33-3.4353 4.1698-7.6673 7.3895-12.447 9.6882m-78.346-85.641c14.286-17.315 43.398-9.1291 67.262 10.529 23.857 19.64 28.125 52.574 13.898 69.879-4.0237 4.8752-9.3739 8.2337-15.517 10.09m-42.565-15.879s-0.62493 8.4603 4.6961 14.315m-7.649-16.175s-9.3886 4.0383-15.492 1.4034m20.959-1.4618s57.004-18.759 65.358-79.304m-66.199 77.787s40.595-34.115 34.612-94.942m-36.801 93.264s25.834-36.107 0.33622-88.718m-1.8456 88.382s6.7207-59.767-20.586-70.23m19.384 70.99s-11.366-39.831-31.257-40.394m30.779 41.486s-15.031-21.277-28.228-18.149m34.612 21.259s69.937 14.706 75.986-64.039m-77.118 64.667s53.795 41.344 82.235-38.888" fill="none" stroke="#a7a5a6" stroke-width="2.7811"/><path id="path290" d="m512 787.23h3.6107v121.67h-3.6107z" fill="#a7a5a6"/></g></g></svg>
