<?xml version="1.0" encoding="UTF-8"?>
<svg id="svg42" width="482.33pt" height="82.276pt" version="1.1" viewBox="0 0 482.33 82.276" xmlns="http://www.w3.org/2000/svg" xmlns:cc="http://creativecommons.org/ns#" xmlns:dc="http://purl.org/dc/elements/1.1/" xmlns:rdf="http://www.w3.org/1999/02/22-rdf-syntax-ns#" xmlns:xlink="http://www.w3.org/1999/xlink">
 <metadata id="metadata48">
  <rdf:RDF>
   <cc:Work rdf:about="">
    <dc:format>image/svg+xml</dc:format>
    <dc:type rdf:resource="http://purl.org/dc/dcmitype/StillImage"/>
    <dc:title/>
   </cc:Work>
  </rdf:RDF>
 </metadata>
 <defs id="defs46">
  <linearGradient id="linearGradient4621" x1="24.629" x2="473.81" y1="49.438" y2="49.438" gradientTransform="translate(-7.3945 -8.33)" gradientUnits="userSpaceOnUse">
   <stop id="stop4615" stop-color="#aed0e6" offset="0"/>
   <stop id="stop4623" stop-color="#7aa1c8" offset=".49653"/>
   <stop id="stop4617" stop-color="#1b5d9d" offset="1"/>
  </linearGradient>
 </defs>
 <path id="path17" d="m106.77 1.35c7.8092-0.9058 11.435-1.0656 15.93-1.35-8.6057 1.0443-17.37 2.52-26.04 3.89-17.6 3.24-35.37 6.75-51.87 13.91-5.56 2.69-11.65 5.69-14.74 11.33-2.71 4.93 1.58 10.06 5.43 12.82 11.98 8.13 26.34 11.52 40.19 14.98 37.39 8.42 75.67 11.77 113.84 14.25 25.66 1.31 51.35 1.92 77.04 2.08 40.954-0.52218 81.245-1.8926 119.03-5.94 25.379-2.8169 50.845-6.1662 75.569-12.676 6.4637-1.5551 16.018-4.4434 21.181-6.3942-4.5224 4.0121-14.387 8.0829-19.15 10.016-6.7355 2.4359-13.648 4.3893-20.59 6.1342-32.15 7.73-65.1 11.56-98.01 14.29-33.55 2.64-67.25 3.9-100.94 3.52-33.75 0.27-67.51-1.16-101.15-3.9-29.01-2.59-58.01-6.06-86.49-12.31-10.43-2.44-20.92-4.87-30.94-8.74-7.47-2.67-14.87-6.02-20.9-11.27-2.97-2.76-5.39-7.12-3.47-11.16 3.16-6.4 9.95-9.86 16.11-12.85 17.96-7.9 37.3-11.87 56.49-15.56 11.12-1.96 22.26-3.78 33.48-5.07z" fill="url(#linearGradient4621)"/>
 <g id="g4605" transform="matrix(1.0126 0 0 1.0126 -216.59 80.768)" fill="#aed0e6">
  <path id="path4554" d="m420.55-67.895c5.04-1.2 10.86-0.42 14.76 3.24 4.8 4.26 6.4199 10.98 6.4799 17.16 0.12 6.3-1.32 13.08-5.94 17.64-6.24 6.48-18.24 5.58-23.46-1.74-4.74-6.72-5.22-15.66-3.42-23.46 1.38-5.82 5.52-11.4 11.58-12.84m0.06 6.8999c-3.96 1.8-5.7 6.24-6.06 10.32-0.48 5.1-0.36 10.74 2.88 15 3.12 4.26 10.02 4.92 13.86 1.2 3.48-3.3 4.26-8.4599 4.26-13.02-0.12-4.08-0.71999-8.5799-3.66-11.58-2.82-3.06-7.6199-3.54-11.28-1.92z"/>
  <path id="path4556" d="m496.57-68.015c5.04-1.08 10.8-0.12 14.58 3.54 4.62 4.32 6.24 10.86 6.3 16.98 0.06 6.18-1.32 12.9-5.76 17.46-6 6.36-17.64 6-23.1-0.89999-5.1-6.24-5.64-14.94-4.32-22.56 1.08-6.54 5.52-13.02 12.3-14.52m0.83999 6.54c-4.32 1.26-6.66 5.7-7.14 9.8999-0.71999 5.4-0.53999 11.58 2.94 16.08 3.24 4.26 10.14 4.56 13.92 0.83999 2.82-2.82 3.84-6.9599 3.96-10.8 0.12-4.44-0.12-9.2999-2.94-12.96-2.46-3.18-7.02-4.2-10.74-3.06z"/>
  <path id="path4558" d="m291.13-67.835h7.38c3.18 11.16 6.12 22.38 9.4199 33.54 3-11.22 6.24-22.32 9.2399-33.54h7.5c-4.32 13.86-8.5799 27.78-12.84 41.7-2.7 0-5.4 0-8.0999 0.06-4.26-13.92-8.3999-27.84-12.6-41.76z"/>
  <path id="path4560" d="m328.51-67.775c2.16-0.06 4.26-0.06 6.42-0.12 0 13.98 0.12 27.9-0.06 41.82-2.1 0-4.26-0.06-6.36-0.06 0.06-13.92 0.06-27.78 0-41.64z"/>
  <path id="path4562" d="m342.07-67.835c7.4999 0.42 15.84-1.5 22.56 2.88 9.1799 5.82 11.16 18.9 6.72 28.26-2.82 6.24-9.3599 10.26-16.14 10.56-4.38 0.12-8.7599-0.06-13.2 0 0.06-13.92 0.06-27.78 0.06-41.7m6.42 6.18c-0.06 9.7799 0 19.56-0.06 29.4 4.32 0 8.9999 0.12 12.72-2.52 7.14-4.98 7.92-16.56 2.16-22.86-3.78-4.08-9.6599-4.08-14.82-4.02z"/>
  <path id="path4564" d="m379.63-26.075c0-13.92-0.06-27.84 0-41.76 7.4999 0.06 14.94 0 22.44 0v6.24c-5.4 0-10.74-0.06-16.08 0-0.06 3.6-0.06 7.2599-0.06 10.92h10.14v6.3h-10.14c0 4.02 0 8.0399 0.06 12.06h16.08v6.18c-7.4999 0-14.94 0-22.44 0.06z"/>
  <path id="path4566" d="m448.09-67.835h7.9799c4.98 9.7799 9.9599 19.5 14.94 29.28 0.06-9.7799 0-19.5 0-29.28h6.42v41.7h-7.26c-5.16-10.2-10.38-20.34-15.54-30.54-0.12 10.2-0.06 20.4-0.06 30.54h-6.48c0.06-13.92 0.06-27.78 0-41.7z"/>
  <path id="path4568" d="m519.49-67.835h7.4399c3.12 11.22 6.18 22.38 9.2999 33.6 3.12-11.22 6.18-22.44 9.4199-33.6h7.3799c-4.32 13.92-8.6399 27.78-12.84 41.7h-8.1599c-4.14-13.86-8.3399-27.78-12.54-41.7z"/>
  <path id="path4570" d="m562.33-67.835h8.8799c4.14 13.92 8.1599 27.84 12.36 41.7-2.28 0-4.56 0-6.8399 0.06-0.78-2.7-1.56-5.4-2.28-8.0999-5.04 0-10.02-0.18-15.06 0.06-1.32 2.46-1.68 5.34-2.46 7.9799h-7.02c4.2-13.86 8.3399-27.78 12.42-41.7m4.32 6.66c-1.86 6.8999-3.84 13.8-5.76 20.76h11.76c-2.04-6.9599-3.9-13.92-6-20.76z"/>
  <path id="path4572" d="m587.05-67.835c5.76 0.06 11.46-0.12 17.16 0.12 4.62 0.12 9.0599 3.06 10.32 7.6199 1.02 4.08 1.08 8.8799-1.44 12.42-1.38 2.04-3.66 3.06-5.7 4.2 2.7 5.76 5.28 11.58 7.9799 17.34h-7.08l-7.3799-16.2h-7.38v16.26c-2.16-0.06-4.32-0.06-6.48-0.06 0.06-13.92 0.06-27.78 0-41.7m6.48 6.24c-0.06 4.32 0 8.6399 0 12.96 3.9-0.12 7.8 0.3 11.64-0.36 5.4-1.68 4.92-11.64-0.9-12.36-3.54-0.48-7.1399-0.24-10.74-0.24z"/>
  <path id="path4574" d="m617.41-26.135c4.14-13.86 8.2199-27.84 12.42-41.7h8.7599c4.2 13.92 8.2199 27.84 12.42 41.7h-6.9c-0.71999-2.7-1.5-5.4-2.28-8.0999-5.1 0.06-10.14 0.06-15.24 0-0.78 2.7-1.5 5.4-2.22 8.0999h-6.9599m16.74-34.86c-2.1 6.8399-3.9 13.74-5.82 20.58h11.7c-1.92-6.8999-3.78-13.74-5.88-20.58z"/>
 </g>
</svg>
