<?xml version="1.0" encoding="UTF-8"?>
<svg id="svg52" width="554.95pt" height="71.25pt" version="1.1" viewBox="0 0 554.95 71.25" xmlns="http://www.w3.org/2000/svg" xmlns:cc="http://creativecommons.org/ns#" xmlns:dc="http://purl.org/dc/elements/1.1/" xmlns:rdf="http://www.w3.org/1999/02/22-rdf-syntax-ns#">
 <metadata id="metadata58">
  <rdf:RDF>
   <cc:Work rdf:about="">
    <dc:format>image/svg+xml</dc:format>
    <dc:type rdf:resource="http://purl.org/dc/dcmitype/StillImage"/>
    <dc:title/>
   </cc:Work>
  </rdf:RDF>
 </metadata>
 <g id="g896" fill="#fff">
  <path id="path900" d="m12.45 12.7h13.064l8.7513 25.303 0.57073 2.4732q0.31708 1.3317 0.50733 2.7269 0.25366 1.3317 0.25366 2.7269l0.76099-5.4537q0.19024-1.4586 0.63415-2.4732l8.6245-25.303h13.19l-17.566 45.723h-11.351z"/>
  <path id="path902" d="m81.162 58.423v-45.723h12.429v45.723z"/>
  <path id="path904" d="m118.83 58.423v-45.723h15.347q8.0538 0 13.507 2.3464 5.5172 2.283 8.6245 7.8635 3.1074 5.5172 3.1074 12.683 0 10.654-5.9611 16.742-5.8976 6.0879-16.425 6.0879zm12.493-34.752v24.098h3.361q5.7074 0 8.8148-3.1708 3.1708-3.2342 3.1708-9.1318 0-11.795-11.605-11.795z"/>
  <path id="path906" d="m195.07 58.423v-45.723h27.395v10.02h-14.966v7.6733h14.142v9.766h-14.142v8.0538h15.093v10.21z"/>
  <path id="path908" d="m253.41 35.656q0-10.337 6.8489-17.059 6.9123-6.7854 17.566-6.7854 10.59 0 17.503 6.722 6.9123 6.722 6.9123 17.059 0 10.273-6.9123 17.059-6.9123 6.7855-17.503 6.7855-10.59 0-17.503-6.722-6.9123-6.7854-6.9123-17.059zm24.415-12.429q-4.9464 0-8.3708 3.6147-3.361 3.5513-3.361 8.8148t3.361 8.8147q3.361 3.5513 8.3708 3.5513 4.883 0 8.244-3.6147t3.361-8.8148-3.361-8.7513q-3.361-3.6147-8.244-3.6147z"/>
  <path id="path910" d="m333.54 58.423v-45.723h12.493v34.498h14.078v11.225z"/>
  <path id="path914" d="m428.67 58.423v-45.723h12.556l15.79 23.654 1.3317 2.1561 2.7269 5.3269-1.0781-5.8342-0.19024-2.6v-22.703h12.176v45.723h-12.303l-16.044-23.844-1.3317-2.2196q-0.50732-0.88782-1.1415-2.1561-0.63415-1.3317-1.4586-2.9805l1.1415 5.7708 0.19024 2.6v22.83z"/>
  <path id="path916" d="m495.55 58.423 16.805-45.723h13.888l16.869 45.723h-13.19l-2.6-7.6099h-15.981l-2.6635 7.6099zm22.005-27.015-3.361 10.59h10.146l-3.9952-12.873q-0.19027-0.57074-0.50732-2.4098-0.31709-1.839-0.57076-3.8683 0 1.7122-0.31706 3.2976-0.25367 1.5854-0.69758 2.9805z"/>
  <path id="path902-8" d="m392.36 58.423v-45.723h12.429v45.723z"/>
 </g>
 <g id="g907" fill="#fff">
  <path id="rect928-5" d="m0 1.3392e-5v71.25h71.25v-71.25zm2.25 2.25h66.75l3.08e-4 66.75h-66.75z" style="paint-order:stroke fill markers"/>
  <path id="rect928-5-7" d="m103.5 1.2e-5v71.25h71.25v-71.25zm2.25 2.25h66.75l3.1e-4 66.75h-66.75z" style="paint-order:stroke fill markers"/>
  <path id="rect928-5-2-6" d="m173.2 1.2e-5v71.25h71.25v-71.25zm2.25 2.25h66.75v66.75h-66.75z" style="paint-order:stroke fill markers"/>
  <path id="rect928-5-0" d="m242.2 1.2e-5v71.25h71.25v-71.25zm2.25 2.25h66.75l3.1e-4 66.75h-66.75z" style="paint-order:stroke fill markers"/>
  <path id="rect928-5-2-7" d="m311.2 1.2e-5v71.25h71.25v-71.25zm2.25 2.25h66.75l2e-5 66.75h-66.75z" style="paint-order:stroke fill markers"/>
  <path id="rect928-5-2-6-4" d="m414.7 1.2e-5v71.25h71.25v-71.25zm2.25 2.25h66.75v66.75h-66.75z" style="paint-order:stroke fill markers"/>
  <path id="rect928-5-2-6-4-9" d="m483.7 1.2e-5v71.25h71.25v-71.25zm2.25 2.25h66.75v66.75h-66.75z" style="paint-order:stroke fill markers"/>
  <path id="rect928-5-2-3" d="m69.001 1.3392e-5v71.25l36.75-5e-6v-71.25zm2.25 2.25 32.25 2e-4 2e-5 66.75-32.25 5e-6z" style="paint-order:stroke fill markers"/>
  <path id="rect928-5-2-3-9" d="m380.2 1e-5v71.25l36.75-5e-6v-71.25zm2.25 2.25 32.25 2e-4 2e-5 66.75-32.25 5e-6z" style="paint-order:stroke fill markers"/>
 </g>
</svg>
