<svg width="221.55mm" height="90.359mm" version="1.1" viewBox="0 0 221.55 90.359" xmlns="http://www.w3.org/2000/svg">
 <g transform="translate(127.78 -103.65)">
  <g transform="matrix(.26458 0 0 .26458 -128.38 49.245)" fill="#fff">
   <path d="m313.67 209c-3.571 0-35.905-1e-3 -35.917 0-6.381 0-9.146 2.192-10.328 9.941-10.923 68.878-30.309 194.96-30.309 194.96s-18.909-130.21-28.352-197.46c-0.569-3.996-3.712-7.447-8.807-7.447 0 0-46.502-1e-3 -46.525 0-7.221 0-10.478 3.523-11.437 10.101-10.712 78.521-30.255 231.32-30.255 231.32s-23.478-148.74-36.237-232.45c-1.068-5.281-4.117-8.978-9.426-8.978 0 0-55.183-1e-3 -55.206 0-8.131 0-9.14 5.076-8.406 10.25 19.23 119.87 36.122 223.43 52.609 321.66 0.879 5.077 4.636 7.785 9.39 5.334 25.525-13.129 54.176-26.24 81.069-37.551 4.016-1.702 7.753-6.401 8.34-10.469 6.914-47.942 22.101-148.72 22.101-148.72s13.913 87.994 20.916 131.34c0.264 1.705 1.212 3.124 2.663 3.992 1.755 1.059 4.099 1.191 6.379 0.378 21.896-7.835 42.474-14.493 65.242-21.203 4.104-1.215 7.949-5.213 8.578-8.902 12.158-72.947 25.335-150.04 40.603-237.96 0.751-4.982-2.608-8.153-6.685-8.153z"/>
   <path d="m395.75 217.64c0-4.711-3.818-8.639-8.527-8.639h-38.844c-4.709 0-8.583 3.929-8.583 8.64v217.47c0 4.264 3.7 8.643 9.409 7.394 15.884-3.482 24.521-5.441 38.119-8.164 4.229-0.845 8.427-4.652 8.427-10.169-1e-3 -64.3-1e-3 -206.53-1e-3 -206.53z"/>
   <path d="m839.44 394.41c-9.902-57.907-20.254-117.09-31.068-177.34-0.84-4.591-4.068-8.069-9.009-8.069h-37.376c-0.012 0-0.035-1e-3 -0.045 0-4.859 0-8.525 4.23-9.091 8.477-10.532 59.407-21.16 117.75-32.131 176.46-0.605 3.488 0.952 6.661 6.633 6.661h0.058c6.257-0.06 14.75-0.098 20.995-0.109 4.215-0.012 6.973-2.864 7.569-6.468l3.702-22.67c0.463-2.749 3.114-5.06 6.393-5.07h0.034c9.122 0.044 19.235 0.133 28.348 0.246 3.314 0.037 6.033 2.596 6.528 5.584l3.803 21.91c0.629 3.831 2.827 7.024 7.004 7.119 6.085 0.136 15.934 0.468 21.327 0.537 5.504 0.07 7.079-3.034 6.326-7.26zm-49.764-58.801c-4.742 0-12.962-0.109-19.121-0.135-3.265 0-4.71-1.695-4.202-4.908 4.729-28.727 13.275-81.226 13.275-81.226s9.162 52.351 14.003 80.539c0.712 3.406-0.04 5.73-3.955 5.73z"/>
   <path d="m679.69 273.6h22.578c4.711 0 6.993-2.709 6.993-7.42v-10.34c-0.055-32.389-23.635-50.198-56.836-50.198-33.2 0-58.97 15.366-58.97 50.339v99.137c0.061 13.848 3.785 28.244 11.992 36.088 9.681 9.231 22.988 15.07 42.829 15.026 1.671-2e-3 3.367-0.031 5.106-0.104 37.646-1.358 55.869-19.594 55.844-51.321v-53.286c0-4.71-2.761-7.847-7.469-7.847l-43.07 2e-3c-4.71 0-7.335 2.795-7.335 7.504v17.795c0 4.71 2.625 7.504 7.335 7.504l14.938-0.012v23.253c0 14.879-6.231 22.326-19.396 22.326-13.826 0-21.421-6.695-21.421-20.758v-89.356c0-15.166 6.623-22.051 20.57-22.051 13.593 0 19.296 7.721 19.296 22.051l0.018 4.248c1e-3 4.711 2.287 7.42 6.998 7.42z"/>
   <path d="m572.71 217.12c-0.074-4.453-3.854-8.021-8.342-8.118-6e-3 -1e-3 -23.673 0-23.673 0-4.711 0-8.553 3.835-8.553 8.544v108.19s-31.124-78.413-43.791-110.76c-1.287-3.261-4.941-5.97-9.901-5.97h-47.812c-4.71 0-8.529 3.929-8.529 8.64v200.92c0 4.794 4.491 7.581 7.664 7.085 10.338-1.613 21.249-3.341 31.343-4.827 4.256-0.622 8.074-3.573 8.074-9.778v-138.51s38.801 95.253 54.796 134.11c1.243 3.026 3.01 5.905 8.987 5.151 11.225-1.052 21.341-2.154 31.991-3.055 4.281-0.372 7.745-3.521 7.745-8.037v-183.58z"/>
  </g>
 </g>
</svg>
