<?xml version="1.0" encoding="UTF-8"?>
<svg id="svg33" width="860.48pt" height="379.26pt" version="1.1" viewBox="0 0 860.48 379.26" xmlns="http://www.w3.org/2000/svg" xmlns:cc="http://creativecommons.org/ns#" xmlns:dc="http://purl.org/dc/elements/1.1/" xmlns:rdf="http://www.w3.org/1999/02/22-rdf-syntax-ns#">
 <defs id="defs18">
  <clipPath id="clipPath26">
   <path id="path24-4" d="m0 1080h1920v-1080h-1920z"/>
  </clipPath>
 </defs>
 <metadata id="metadata39">
  <rdf:RDF>
   <cc:Work rdf:about="">
    <dc:format>image/svg+xml</dc:format>
    <dc:type rdf:resource="http://purl.org/dc/dcmitype/StillImage"/>
    <dc:title/>
   </cc:Work>
  </rdf:RDF>
 </metadata>
 <g id="g12" transform="matrix(1 0 0 -1 792.76 272.24)">
  <path id="path14" d="m0 0v-61.817h-296.1v208.38h-37.268v-246.27h371.26v99.709z" fill="#ff9b00"/>
 </g>
 <g id="g16" transform="matrix(1 0 0 -1 459.4 0)">
  <path id="path18-4" d="m0 0v-68.531h37.259v30.639h296.1v-59.181h37.892v97.073z" fill="#ff9b00"/>
 </g>
 <g id="g20" transform="matrix(1 0 0 -1 -529.76 729.63)">
  <g id="g22" clip-path="url(#clipPath26)">
   <g id="g28" transform="translate(747.36 486.38)">
    <path id="path30-0" d="m0 0c-3.401 2.777-7.427 4.167-12.075 4.167-4.651 0-8.562-1.39-11.735-4.167-3.176-2.779-5.161-6.378-5.953-10.8h35.546c-0.454 4.422-2.381 8.021-5.783 10.8m-12.415-68.115c-13.835 0-25.171 4.449-34.015 13.351-8.844 8.9-13.266 20.72-13.266 35.46 0 14.739 4.393 26.474 13.181 35.206 8.786 8.729 20.154 13.096 34.1 13.096s25.511-4.311 34.695-12.926c9.184-8.618 13.776-20.579 13.776-35.885 0-3.291-0.229-6.352-0.681-9.185h-65.308c0.566-4.196 2.437-7.626 5.613-10.289 3.173-2.665 6.603-3.997 10.289-3.997 3.683 0 6.434 0.367 8.249 1.105 1.812 0.737 3.146 1.473 3.996 2.212 0.851 0.736 1.956 1.955 3.317 3.656h31.464c-2.722-9.524-8.164-17.207-16.328-23.045-8.163-5.841-17.857-8.759-29.082-8.759" fill="#00a6d6"/>
   </g>
   <g id="g32" transform="translate(691.55 419.43)">
    <path id="path34" d="m0 0h-160.22l96.49 155.4h-60.723l3.056-11.94-28.078-7.186-12.31 48.107h150.16l-96.489-155.4h65.774l-6.34 16.331 27.017 10.488z" fill="#00a6d6"/>
   </g>
   <g id="g36" transform="translate(823.45 406.71)">
    <path id="path38" d="m0 0-28.806-24.104v147.8h28.806z" fill="#00a6d6"/>
   </g>
   <g id="g40" transform="translate(863.7 440.39)">
    <path id="path42" d="m0 0-28.807-24.104v95.598h28.807z" fill="#00a6d6"/>
   </g>
   <g id="g44" transform="translate(849.29 599.95)">
    <path id="path46" d="m0 0c-19.551 0-35.401-15.85-35.401-35.401 0-19.552 15.85-35.402 35.401-35.402s35.401 15.85 35.401 35.402c0 19.551-15.85 35.401-35.401 35.401m0-25.648c5.378 0 9.753-4.375 9.753-9.753s-4.375-9.753-9.753-9.753-9.753 4.375-9.753 9.753 4.375 9.753 9.753 9.753" fill="#00a6d6"/>
   </g>
   <g id="g48" transform="translate(921.3 463.09)">
    <path id="path50" d="m0 0c-7.704 0-13.949 6.245-13.949 13.949s6.245 13.949 13.949 13.949 13.949-6.245 13.949-13.949-6.245-13.949-13.949-13.949m10.029 52.405v-5.71c-5.864 3.618-12.763 5.71-20.144 5.71-21.223 0-38.49-17.559-38.49-38.783 0-21.223 17.267-38.196 38.49-38.196 7.381 0 14.28 2.093 20.144 5.709v-43.762c0-11.851-9.641-21.492-21.492-21.492-11.852 0-21.493 9.641-21.493 21.492 0 3.087 2.511 5.598 5.598 5.598 2.514 0 4.734-1.686 5.399-4.1l23.612 6.501c-2.586 14.489-13.664 26.206-29.011 26.206-18.861 0-34.205-15.345-34.205-34.205 0-27.625 22.474-50.1 50.1-50.1 27.625 0 50.099 22.475 50.099 50.1v115.03z" fill="#00a6d6"/>
   </g>
   <g id="g52" transform="translate(1142 517.51)">
    <path id="path54" d="m0 0h-0.035c0-16.851-13.71-30.561-30.561-30.561-16.852 0-30.562 13.71-30.562 30.561v86.44h33.105v28.662h-33.105v28.607h-28.661v-143.99h6e-3c0.152-32.528 26.654-58.945 59.217-58.945 19.263 0 36.401 9.249 47.223 23.534z" fill="#00a6d6"/>
   </g>
   <g id="g56" transform="translate(1388.8 547.5)">
    <path id="path58" d="m0 0c-3.281 14.757-11.478 25.885-14.563 30.073-0.222 0.302-0.409 0.555-0.55 0.753-5.337 7.551-25.565 24.419-50.908 25.36-13.271 0.488-32.759-3.352-50.153-24.456-7.049-8.551-10.863-16.054-14.552-23.311-1.525-3-2.965-5.835-4.662-8.805l-30.226-58.37-52.241 115.2-48.863-43.784 13.54-29.062 24.638 22.107 61.102-134.74 58.861 113.72c1.991 3.506 3.626 6.721 5.207 9.834 3.205 6.305 5.972 11.751 10.873 17.695 7.392 8.967 15.34 13.329 24.293 13.329h0.175c13.395-0.085 25.716-9.832 27.933-12.533 0.222-0.309 0.5-0.689 0.826-1.133 13.073-17.744 13.305-31.253 0.758-43.8-2.687-2.689-6.874-5.883-11.582-5.883h-0.067c-3.907 0.023-6.631 2.167-7.906 3.442-1.693 1.694-6.672 7.767 0.373 14.811l-21.7 21.699c-14.199-14.199-19.155-39.425-0.373-58.209 7.949-7.946 18.394-12.359 29.414-12.429h0.259c8.462 0 21.02 2.609 33.281 14.87 19.428 19.43 19.866 39.885 16.813 53.625" fill="#00a6d6"/>
   </g>
  </g>
 </g>
</svg>
