<?xml version="1.0" encoding="UTF-8"?>
<svg id="svg33" width="1493.8pt" height="658.36pt" version="1.1" viewBox="0 0 1493.8 658.36" xmlns="http://www.w3.org/2000/svg" xmlns:cc="http://creativecommons.org/ns#" xmlns:dc="http://purl.org/dc/elements/1.1/" xmlns:rdf="http://www.w3.org/1999/02/22-rdf-syntax-ns#">
 <metadata id="metadata39">
  <rdf:RDF>
   <cc:Work rdf:about="">
    <dc:format>image/svg+xml</dc:format>
    <dc:type rdf:resource="http://purl.org/dc/dcmitype/StillImage"/>
    <dc:title/>
   </cc:Work>
  </rdf:RDF>
 </metadata>
 <g id="#ffa400ff" transform="translate(-47.79,-47.33)" fill="#ffa400">
  <path id="path11" d="m845.38 47.33h644.35v168.39l-65.598 0.01v-102.61h-514.22v53.155h-64.538z"/>
  <path id="path13" d="m845.38 265.51h64.538v361.8h514.22v-107.42h65.598v173h-644.35z"/>
 </g>
 <g id="#00acd9ff" transform="translate(-47.79,-47.33)" fill="#00acd9">
  <path id="path16" d="m954.64 166.1h49.715v49.61h57.385v49.66h-57.385v147.68c-0.08 5.36 0.34 10.77 1.76 15.96 4.11 16.12 16.33 29.92 31.87 35.89 13.3 5.33 28.77 4.9 41.74-1.21 18.43-8.24 30.73-27.71 30.93-47.83l28.76 61.53c-10.93 14.63-25.91 26.18-42.78 33.16-22.26 9.28-47.83 10.31-70.76 2.81-22.27-7.12-41.81-22.21-54.54-41.79-10.97-16.67-16.815-36.61-16.695-56.55z"/>
  <path id="path18" d="m47.79 265.74h260.52l-167.31 269.76h114.02l-10.85-28.325 46.79-18.18 37.59 96.715h-277.9l167.27-269.64h-105.43l5.3 20.66-48.72 12.38z"/>
  <path id="path20" d="m1076.2 341.35 84.75-75.77 90.66 199.78 58.82-112.98c6.26-12.38 12.57-24.82 20.87-35.99 11.43-15.73 25.73-29.76 43.03-38.89 16.95-9.07 36.59-13.04 55.73-11.18 18.92 1.68 37.14 8.49 53.3 18.32 11.84 7.42 23.26 16.15 31.3 27.74 10.98 14.8 19.77 31.49 24.08 49.5 4.29 17.63 3.76 36.53-2.27 53.71-5.86 16.97-16.69 31.91-29.77 44.08-12.32 11.4-27.82 19.77-44.59 22-18.37 2.63-37.66-2.29-52.57-13.33-15.32-11.21-26.82-28.25-29.45-47.24-3.27-22.31 5.45-45.36 21.1-61.28l37.66 37.43c-3.25 3.88-6.52 8.38-6.23 13.72 0.51 10.47 10.99 19.21 21.39 18.08 5.87-0.6 11.12-3.77 15.53-7.54 9.4-8.47 17.41-19.62 18.59-32.55 1.22-12.52-3.6-24.73-9.92-35.29-4.26-6.81-8.46-14.04-15.23-18.67-14.25-10.41-32.05-18.16-50.01-15.22-16.07 2.69-28.72 14.44-38.05 27.12-9.94 13.46-16.24 29.08-24.48 43.55l-101.91 196.81-106.19-233.66-42.65 38.27z"/>
  <path id="path22" d="m592.21 273.3c11.28-1.86 23.1-0.63 33.67 3.77 15.46 6.3 28.05 19.22 33.96 34.83 5.95 15.39 5.31 33.21-1.77 48.12-6.25 13.33-17.46 24.25-30.95 30.13-13.36 5.88-28.85 6.8-42.78 2.42-11-3.34-20.94-9.92-28.42-18.63-10-11.46-15.4-26.8-14.81-42 0.35-17.23 8.6-34.01 21.79-45.05 8.33-7.02 18.56-11.79 29.31-13.59m5.3 44.38c-6.02 1.77-10.77 7.17-11.75 13.37-1.97 9.73 6.32 19.83 16.25 19.75 10.27 0.66 19.26-9.7 17.16-19.79-1.39-9.77-12.29-16.45-21.66-13.33z"/>
  <path id="path24" d="m507.64 393.21h49.915v214.62l-49.915 41.759z"/>
  <path id="path26" d="m361.41 429.45c16.48-9.19 36.04-11.55 54.6-9.51 16.91 1.78 33.39 8.55 46.11 19.93 10.74 9.31 18.51 21.89 22.27 35.58 3.98 14.4 4.59 29.655 2.55 44.425h-113.57c1.24 7.83 5.45 15.205 12.11 19.655 8.16 6.21 19.28 6.25 28.79 3.72 5.8-1.63 10.36-5.82 13.85-10.57h54.65c-4.42 15.8-14.33 29.93-27.7 39.44-14.86 11.09-33.66 15.97-52.05 15.68-18.17 0.01-36.68-5.3-50.96-16.79-15.07-11.62-25.1-29.15-28.39-47.81-3-17.16-2.42-35.17 2.97-51.8 5.73-17.72 18.5-32.93 34.77-41.95m22.42 40.41c-5.43 4.73-8.72 11.46-10.04 18.48h61.95c-0.9-4.87-2.27-9.81-5.39-13.75-10.48-14.17-33.44-16.58-46.52-4.73z"/>
  <path id="path28" d="m701.09 419.66c15.1-2.08 30.775 1.33 43.775 9.23v-9.785h49.65v184.88c-0.09 11.32 0.635 22.81-2.135 33.91-5.93 27.06-25.74 50.52-51.33 61.08-18.83 7.95-40.51 8.87-59.96 2.58-15.48-4.93-29.47-14.37-39.94-26.79-13.76-16.15-21.29-37.52-20.45-58.75 0.57-13.88 6.3-27.45 15.78-37.6 11.24-12.27 27.87-19.4 44.52-19 10.75 0.12 21.4 4.02 29.71 10.84 10.54 8.61 17.18 21.33 19.67 34.6l-40.69 11.14c-1.51-2.4-2.98-5.16-5.81-6.18-5.49-2.52-12.72 1.16-13.49 7.25-0.6 6.65 1.18 13.38 4.25 19.26 6.62 12.71 21.04 20.78 35.34 19.66 14.52-0.75 27.91-10.88 32.71-24.58 2.43-6.17 2.26-12.88 2.18-19.39v-69.19c-11.35 6.81-24.66 10.44-37.93 9.72-16.71-0.58-33.03-7.86-44.77-19.76-11.71-11.76-18.71-28.1-19-44.7-0.43-14.39 3.98-28.83 12.32-40.56 10.51-15.01 27.38-25.51 45.6-27.87m19.33 42.93c-6.47 1.99-12.07 6.76-14.89 12.94-3.88 8-2.75 18.11 2.77 25.07 4.78 6.32 12.83 9.94 20.74 9.34 11.55-0.39 21.69-10.39 22.56-21.86 0.95-8.85-3.54-18.02-11.11-22.7-5.84-3.86-13.4-4.77-20.07-2.79z"/>
  <path id="path30" d="m577.53 425.41h49.94v123.92l-49.94 41.79z"/>
 </g>
</svg>
